<?xml version="1.0" encoding="UTF-8" standalone="no"?>
<!-- Created with Inkscape (http://www.inkscape.org/) -->

<svg
   xmlns:dc="http://purl.org/dc/elements/1.1/"
   xmlns:cc="http://creativecommons.org/ns#"
   xmlns:rdf="http://www.w3.org/1999/02/22-rdf-syntax-ns#"
   xmlns:svg="http://www.w3.org/2000/svg"
   xmlns="http://www.w3.org/2000/svg"
   xmlns:sodipodi="http://sodipodi.sourceforge.net/DTD/sodipodi-0.dtd"
   xmlns:inkscape="http://www.inkscape.org/namespaces/inkscape"
   width="297mm"
   height="210mm"
   viewBox="0 0 297 210"
   version="1.1"
   id="svg1549"
   sodipodi:docname="1.svg"
   inkscape:version="0.92.2 (5c3e80d, 2017-08-06)">
  <defs
     id="defs1543">
    <inkscape:path-effect
       effect="spiro"
       id="path-effect1424"
       is_visible="true" />
  </defs>
  <sodipodi:namedview
     id="base"
     pagecolor="#ffffff"
     bordercolor="#666666"
     borderopacity="1.0"
     inkscape:pageopacity="0.0"
     inkscape:pageshadow="2"
     inkscape:zoom="3.5793566"
     inkscape:cx="84.93774"
     inkscape:cy="733.77188"
     inkscape:document-units="mm"
     inkscape:current-layer="layer1"
     showgrid="false"
     inkscape:window-width="1366"
     inkscape:window-height="705"
     inkscape:window-x="-8"
     inkscape:window-y="-8"
     inkscape:window-maximized="1" />
  <metadata
     id="metadata1546">
    <rdf:RDF>
      <cc:Work
         rdf:about="">
        <dc:format>image/svg+xml</dc:format>
        <dc:type
           rdf:resource="http://purl.org/dc/dcmitype/StillImage" />
        <dc:title />
      </cc:Work>
    </rdf:RDF>
  </metadata>
  <g
     inkscape:label="Capa 1"
     inkscape:groupmode="layer"
     id="layer1"
     transform="translate(0,-87)">
    <path
       style="opacity:1;fill:#216778;fill-opacity:1;fill-rule:nonzero;stroke:none;stroke-width:0.66499996;stroke-linecap:butt;stroke-linejoin:miter;stroke-miterlimit:4;stroke-dasharray:none;stroke-dashoffset:0;stroke-opacity:1;paint-order:stroke fill markers"
       d="m 4.3810012,93.814448 c -0.418118,-0.18981 -0.787699,-0.62896 -1.592564,-1.89232 -0.258307,-0.40545 -0.487367,-0.73719 -0.509021,-0.73719 -0.02164,0 -0.06991,0.33174 -0.10723,0.73719 -0.120518,1.3092 -0.231201,1.73056 -0.489691,1.86423 -0.08432,0.0436 -0.203957,0.0793 -0.265861,0.0793 -0.190889,0 -0.42508002,-0.15464 -0.46834702,-0.30925 -0.06507,-0.23253 -0.03851,-3.57734 0.03222,-4.05779 0.08536,-0.5798 0.13887702,-0.64947 0.53321202,-0.69408 0.377603,-0.0427 0.474793,-0.12912 0.520296,-0.46253 0.05727,-0.419632 0.07424,-0.461472 0.212756,-0.524582 0.313439,-0.14282 1.801739,-0.24756 2.108034,-0.14836 0.118073,0.0382 0.121848,0.0561 0.08693,0.410382 -0.04324,0.43883 -0.01384,0.48989 0.383225,0.66549 0.212526,0.094 0.292555,0.16376 0.347123,0.30263 0.09588,0.24399 0.134442,2.88048 0.05488,3.75229 -0.06108,0.6694 -0.134022,0.89353 -0.337051,1.03574 -0.153389,0.10744 -0.233002,0.10413 -0.508923,-0.0211 z m -0.390892,-3.51903 c 0,-1.09006 -0.04364,-1.26516 -0.34689,-1.39187 -0.230582,-0.0963 -0.770665,-0.15842 -0.96152,-0.11052 -0.201044,0.0505 -0.17944,0.17812 0.133133,0.78663 0.487738,0.94953 1.023266,1.74651 1.129456,1.68088 0.02519,-0.0156 0.04582,-0.44988 0.045821,-0.96512 z m -1.554808,-0.14508 c 0,-0.1212 -0.769697,-0.78706 -0.834681,-0.72207 -0.03036,0.0303 0.161006,0.2798 0.453046,0.59056 0.186925,0.19891 0.381635,0.26601 0.381635,0.13151 z"
       id="path2458"
       inkscape:connector-curvature="0" />
    <path
       style="opacity:1;fill:#216778;fill-opacity:1;fill-rule:nonzero;stroke:none;stroke-width:0.66499996;stroke-linecap:butt;stroke-linejoin:miter;stroke-miterlimit:4;stroke-dasharray:none;stroke-dashoffset:0;stroke-opacity:1;paint-order:stroke fill markers"
       d="m 9.9635432,110.77515 c -0.726252,-0.25769 -1.821527,-1.73699 -2.079768,-2.809 -0.185108,-0.76841 -0.390673,-3.13462 -0.332756,-3.83023 0.04551,-0.54656 0.19063,-0.96936 0.720577,-2.09935 0.236448,-0.50417 0.47965,-1.06434 0.540457,-1.24484 0.117279,-0.34814 0.146174,-0.70685 0.05694,-0.70685 -0.105694,0 -0.05071,-0.254072 0.106267,-0.491072 0.240546,-0.36315 0.765342,-0.83698 1.0933188,-0.98713 0.780431,-0.3573 2.749214,-0.49921 3.650195,-0.26311 0.175665,0.046 1.020088,0.37416 1.876494,0.72917 2.217695,0.9193 3.920553,1.486042 6.139391,2.043272 0.947505,0.23796 1.175465,0.27687 1.636943,0.27943 0.489569,0.003 0.551516,-0.009 0.713137,-0.12976 0.253473,-0.19011 0.290869,-0.10233 0.250703,0.58846 -0.0933,1.60463 -0.462116,3.05426 -0.912357,3.58603 -0.245566,0.29004 -0.41764,0.3325 -1.548884,0.38218 -1.244696,0.0547 -1.384438,0.0901 -1.820146,0.46089 -0.315177,0.26825 -0.643509,0.31779 -1.388258,0.20949 -1.592231,-0.23153 -3.12393,-0.72034 -3.663146,-1.16903 -0.08563,-0.0713 -0.208386,-0.15726 -0.272796,-0.19113 -0.188253,-0.099 -0.665927,-0.0716 -1.260038,0.0724 -0.660771,0.16009 -0.926092,0.16772 -1.147006,0.033 -0.207134,-0.12631 -0.366167,-0.44601 -0.31868,-0.64064 0.0946,-0.38772 0.557527,-0.80692 1.582901,-1.43339 0.655122,-0.40026 1.233123,-0.96133 1.233123,-1.19701 0,-0.20023 -0.163616,-0.38085 -0.345001,-0.38085 -0.197363,0 -0.357402,0.0754 -0.61292,0.28892 -0.2583,0.21581 -0.328817,0.2099 -0.328817,-0.0275 0,-0.39797 -0.247441,-0.50736 -1.026263,-0.45372 -0.828376,0.057 -0.92492,0.11753 -1.086739,0.68077 -0.115856,0.40325 -0.385702,2.08592 -0.463344,2.88925 -0.07328,0.75817 -0.03886,1.62283 0.08536,2.14456 0.04563,0.19167 0.21395,0.63073 0.374039,0.97569 0.492664,1.06161 0.601773,1.49339 0.387678,1.5342 -0.151501,0.0289 -0.81116,-0.44639 -1.04596,-0.75358 -0.553415,-0.72405 -0.8648478,-1.65052 -1.1950668,-3.55518 -0.262242,-1.51257 -0.223824,-1.73188 0.5330608,-3.04298 0.412316,-0.71423 0.756534,-1.41952 0.756534,-1.55012 0,-0.17296 -0.224708,-0.21152 -0.684932,-0.11752 -0.3632068,0.0742 -0.8263098,0.71542 -1.5617428,2.16247 l -0.494969,0.97391 0.380389,1.87962 c 0.543681,2.68649 0.716719,3.16588 1.450443,4.01838 0.3890848,0.45207 0.6427418,0.83357 0.6427418,0.9667 0,0.13013 -0.146511,0.2622 -0.285306,0.25717 -0.06424,-0.002 -0.215347,-0.0392 -0.3357928,-0.0819 z"
       id="path2460"
       inkscape:connector-curvature="0" />
    <path
       style="opacity:1;fill:#216778;fill-opacity:1;fill-rule:nonzero;stroke:none;stroke-width:0.66499996;stroke-linecap:butt;stroke-linejoin:miter;stroke-miterlimit:4;stroke-dasharray:none;stroke-dashoffset:0;stroke-opacity:1;paint-order:stroke fill markers"
       d="m 6.4442042,110.8992 c -0.18755,-0.18755 -0.497906,-0.6716 -0.456899,-0.7126 0.04824,-0.0482 0.557573,0.25905 0.72707,0.43865 0.343048,0.3635 0.08303,0.62715 -0.270171,0.27395 z"
       id="path2462"
       inkscape:connector-curvature="0" />
    <path
       style="opacity:1;fill:#216778;fill-opacity:1;fill-rule:nonzero;stroke:none;stroke-width:0.66499996;stroke-linecap:butt;stroke-linejoin:miter;stroke-miterlimit:4;stroke-dasharray:none;stroke-dashoffset:0;stroke-opacity:1;paint-order:stroke fill markers"
       d="m 13.124877,112.07019 c -0.01643,-0.0428 -0.01278,-0.10553 0.0081,-0.13936 0.06682,-0.10812 0.688726,-0.37245 0.876392,-0.37249 l 0.181115,-5e-5 -0.133315,0.17425 c -0.254609,0.33277 -0.851284,0.54887 -0.932334,0.33765 z"
       id="path2464"
       inkscape:connector-curvature="0" />
    <path
       style="opacity:1;fill:#216778;fill-opacity:1;fill-rule:nonzero;stroke:none;stroke-width:0.66499996;stroke-linecap:butt;stroke-linejoin:miter;stroke-miterlimit:4;stroke-dasharray:none;stroke-dashoffset:0;stroke-opacity:1;paint-order:stroke fill markers"
       d="m 10.53213,109.54889 c -0.129625,-0.13208 -0.220477,-0.25534 -0.201898,-0.27392 0.07141,-0.0714 0.52248,0.33641 0.52248,0.47238 0,0.0902 -0.09499,0.0314 -0.320582,-0.19846 z"
       id="path2466"
       inkscape:connector-curvature="0" />
    <path
       style="opacity:1;fill:#216778;fill-opacity:1;fill-rule:nonzero;stroke:none;stroke-width:0.66499996;stroke-linecap:butt;stroke-linejoin:miter;stroke-miterlimit:4;stroke-dasharray:none;stroke-dashoffset:0;stroke-opacity:1;paint-order:stroke fill markers"
       d="m 6.6969362,113.43301 c -2.985989,-0.044 -3.548126,-0.0761 -3.589017,-0.20498 -0.07984,-0.25155 -0.134763,-4.74421 -0.135572,-11.08913 l -7.94e-4,-7.087182 0.227859,-0.0284 c 0.125322,-0.0156 0.794829,-0.0558 1.487792,-0.0894 0.692962,-0.0335 1.271992,-0.0725 1.286737,-0.0865 0.02795,-0.0267 0.149455,-2.29507 0.156689,-2.92531 l 0.0042,-0.3619 h 9.2569318 9.256935 l -0.03557,3.25706 c -0.03205,2.93535 -0.07076,3.8855 -0.171183,4.20189 -0.01815,0.0572 -0.140081,0.15431 -0.270954,0.21583 -0.271455,0.1276 -0.381175,0.26448 -0.656855,0.819472 l -0.195995,0.39456 -1.742456,-0.499642 c -2.095725,-0.60092 -4.008342,-1.24361 -5.816563,-1.95452 -0.737505,-0.28995 -1.460304,-0.56694 -1.606219,-0.61554 -0.783506,-0.26094 -1.424022,-0.29779 -2.776808,-0.15978 -1.336098,0.1363 -1.9465388,0.31588 -2.2723068,0.66846 -0.230508,0.24948 -0.860222,0.74859 -1.669024,1.32286 -1.173596,0.833272 -1.894596,1.664132 -2.456598,2.830902 -0.550085,1.14203 -0.579914,1.63412 -0.160808,2.65284 0.338523,0.82284 1.249494,2.6101 1.886122,3.70043 0.799769,1.36974 1.363667,2.18936 1.951939,2.83711 0.296794,0.32681 0.524793,0.59419 0.506662,0.59419 -0.07072,0 -0.77564,-0.43666 -1.031812,-0.63915 -0.159155,-0.12581 -0.332885,-0.33031 -0.422487,-0.49732 -0.17218,-0.32092 -0.771789,-0.83616 -1.489556,-1.27996 -0.577197,-0.35689 -0.851347,-0.45885 -1.023223,-0.38053 -0.115427,0.0526 -0.132456,0.0952 -0.132456,0.33126 0,0.77593 1.004964,2.57293 1.438902,2.57293 0.184814,0 0.725974,0.19654 1.402644,0.50941 1.039542,0.48065 1.174572,0.50072 3.5921438,0.53401 0.960848,0.0132 1.717551,0.0468 1.834841,0.0814 0.158319,0.0467 0.230796,0.0428 0.350353,-0.019 0.223713,-0.11569 0.844074,-0.75213 1.204421,-1.23564 0.501517,-0.67294 0.596553,-0.92372 0.4178,-1.10247 -0.235698,-0.2357 -0.84951,-0.0982 -2.038151,0.4567 -0.894551,0.41757 -1.331495,0.58383 -1.976186,0.75197 -0.530903,0.13846 -0.758132,0.16279 -0.758132,0.0812 0,-0.0273 0.126664,-0.10818 0.281474,-0.17968 0.335278,-0.15485 0.572291,-0.38029 0.612815,-0.58292 0.04417,-0.22087 0.185317,-0.31521 0.548373,-0.36653 0.430053,-0.0608 0.648869,-0.20375 0.840086,-0.54889 0.144976,-0.26167 0.156403,-0.32291 0.152808,-0.81896 -0.0047,-0.64666 -0.124915,-1.03993 -0.611026,-1.99866 -0.393648,-0.77638 -0.436317,-0.94138 -0.266875,-1.03206 0.186005,-0.0995 0.923221,-0.12561 1.578769,-0.0558 0.804987,0.0857 1.514575,0.23513 2.298168,0.48396 1.201595,0.38155 2.553187,0.572 3.727212,0.52517 0.75598,-0.0302 0.900144,-0.0708 1.195255,-0.33747 0.243708,-0.22017 0.357375,-0.23065 0.569148,-0.0525 0.168375,0.14168 0.223713,0.25534 0.354613,0.7283 0.11834,0.42759 0.336248,0.7011 0.693221,0.87012 0.418881,0.19833 0.47171,0.3222 0.519121,1.21714 0.05463,1.03117 0.0536,1.02949 0.86315,1.41376 0.671296,0.31864 0.6882,0.3518 0.729697,1.43155 l 0.03077,0.80072 -7.715163,-0.009 c -4.24334,-0.005 -8.8494098,-0.0258 -10.2357098,-0.0463 z"
       id="path2468"
       inkscape:connector-curvature="0" />
    <path
       style="opacity:1;fill:#216778;fill-opacity:1;fill-rule:nonzero;stroke:none;stroke-width:0.66499996;stroke-linecap:butt;stroke-linejoin:miter;stroke-miterlimit:4;stroke-dasharray:none;stroke-dashoffset:0;stroke-opacity:1;paint-order:stroke fill markers"
       d="m 24.716718,110.5669 c -0.537634,-0.42207 -0.604425,-0.6919 -0.603943,-2.43991 2.64e-4,-1.3532 0.02904,-1.5528 0.280077,-1.95047 0.07628,-0.12083 0.229714,-0.4371 0.340971,-0.70282 0.111257,-0.26572 0.221919,-0.48313 0.245912,-0.48313 0.024,0 0.0589,0.15682 0.07757,0.34849 0.04868,0.4998 0.05438,5.46864 0.0063,5.4686 -0.02212,-2e-5 -0.178203,-0.10836 -0.346856,-0.24076 z"
       id="path2470"
       inkscape:connector-curvature="0" />
    <path
       style="opacity:1;fill:#ffffff;fill-opacity:1;fill-rule:nonzero;stroke:none;stroke-width:2.51338601;stroke-linecap:butt;stroke-linejoin:miter;stroke-miterlimit:4;stroke-dasharray:none;stroke-dashoffset:0;stroke-opacity:1;paint-order:stroke fill markers"
       d="m 47.277341,98.248266 c -1.767078,-0.106874 -4.910101,-0.211809 -6.984496,-0.233184 -5.070559,-0.05225 -6.852976,-0.386924 -10.476743,-1.967147 -1.690248,-0.737071 -3.785525,-1.547138 -4.65617,-1.800153 -1.287881,-0.374263 -1.747191,-0.681195 -2.463754,-1.646396 -2.446475,-3.295372 -4.190523,-8.768998 -2.946188,-9.246495 1.121792,-0.430471 5.978861,2.565073 8.243522,5.084101 2.917298,3.244972 3.298734,3.598876 4.812009,4.464685 0.851771,0.487334 1.634262,0.886062 1.738869,0.886062 0.104607,0 -0.710353,-1.037198 -1.811023,-2.304884 C 29.293555,87.523085 25.19679,80.915836 21.082438,72.694274 16.590802,63.718805 16.373618,62.27392 18.764454,57.273196 c 2.339338,-4.89301 4.754398,-7.651383 10.213509,-11.665407 1.843906,-1.355804 3.953852,-3.021892 4.688767,-3.702417 2.439454,-2.258911 5.224345,-3.017713 12.213712,-3.327881 4.961064,-0.220158 5.310418,-0.141149 13.941326,3.152929 10.937815,4.174534 28.211263,9.550188 28.445017,8.852347 0.375568,-1.121209 2.322459,-3.825236 3.089474,-4.290949 0.503105,-0.305474 0.974558,-0.555408 1.047675,-0.555408 0.07312,0 0.132937,1.831426 0.132937,4.069835 0,3.831502 -0.03024,4.060235 -0.516431,3.905925 -0.284037,-0.09015 -0.881211,0.02632 -1.327054,0.258832 -1.639395,0.854945 -5.140382,0.321493 -13.544909,-2.063863 -6.029223,-1.711202 -10.837649,-3.40412 -19.115013,-6.729885 L 51.607728,42.595455 48.53455,42.453946 c -3.232237,-0.148834 -6.951005,0.218454 -9.312577,0.919765 -1.651347,0.490397 -3.901877,2.183819 -5.099582,3.837203 -0.748377,1.033104 -0.827731,1.321612 -0.672981,2.446776 0.194123,1.411444 -0.276932,2.88977 -2.332973,7.321629 -2.29402,4.944832 -2.61122,6.140433 -2.592204,9.770639 0.03749,7.15737 0.878638,12.39319 2.526239,15.724898 2.619542,5.297128 7.455675,9.191775 8.782227,7.072528 0.380556,-0.607961 0.05914,-1.206479 -2.082363,-3.877599 -2.870961,-3.580984 -3.584601,-5.618007 -5.856281,-16.716264 L 30.7276,63.254823 32.481904,59.873678 c 2.049908,-3.950875 3.804266,-6.741753 4.828825,-7.681822 0.504556,-0.462947 1.174707,-0.711581 2.177715,-0.807957 l 1.448871,-0.139219 -0.188835,0.947648 c -0.103859,0.521206 -1.133858,2.674525 -2.288887,4.785154 -1.155029,2.110628 -2.283687,4.357981 -2.508129,4.994117 -0.583004,1.652411 -0.506911,3.866638 0.27912,8.122102 1.345899,7.286502 2.800338,11.041333 5.171488,13.350908 1.34853,1.313509 3.011869,2.319106 3.419389,2.067245 0.497204,-0.307289 0.145688,-1.736099 -1.218307,-4.95206 -1.84512,-4.350332 -2.184063,-5.809086 -2.184056,-9.39982 8e-6,-4.010176 1.449511,-13.914437 2.257295,-15.423795 0.408319,-0.762951 1.104287,-1.012606 3.403747,-1.220978 2.743301,-0.248592 3.703272,0.101289 3.954669,1.441359 0.09854,0.525274 0.231966,0.955043 0.296495,0.955043 0.06453,0 0.712052,-0.377163 1.438937,-0.838139 0.726885,-0.460977 1.606876,-0.83814 1.955533,-0.83814 0.595657,0 1.212341,0.704394 1.212341,1.384775 0,0.647227 -2.48802,2.963898 -4.889147,4.552431 -5.385096,3.562664 -6.551088,5.117884 -5.285332,7.04967 0.770348,1.1757 1.862197,1.326235 5.085704,0.701176 1.580452,-0.30646 3.214824,-0.55451 3.631938,-0.551222 0.417114,0.0033 1.606962,0.555762 2.644109,1.227724 3.144445,2.037262 10.603537,4.110459 15.031333,4.177843 2.340241,0.03562 2.421477,0.01425 3.95609,-1.040483 1.511719,-1.038997 1.68304,-1.086235 4.874569,-1.34406 6.101203,-0.492882 6.194862,-0.509603 7.094549,-1.266642 1.493578,-1.256762 2.564843,-4.015945 3.330017,-8.576895 0.257373,-1.534132 0.615773,-2.838605 0.796439,-2.898827 0.245573,-0.08186 0.328487,1.562885 0.328487,6.516081 0,6.385216 -0.0228,6.662246 -0.628605,7.636382 -0.603312,0.970133 -0.628604,1.263739 -0.628604,7.296851 0,6.017455 0.02685,6.331492 0.628604,7.349689 0.501987,0.849399 0.628605,1.487175 0.628605,3.166304 0,1.156465 -0.09429,2.059719 -0.209535,2.007238 C 90.755294,91.907426 88.090301,90.383068 87.800749,90.034178 87.590105,89.780367 87.31612,88.338382 87.172538,86.727903 86.855962,83.177055 86.578057,82.442934 85.302847,81.78887 83.838475,81.037785 83.11974,80.145926 82.479753,78.285779 81.349497,75.000628 80.628949,74.560227 78.67598,75.960898 l -1.291631,0.926362 -4.786296,-0.0112 C 67.373854,76.86382 65.698551,76.608121 59.709742,74.908835 52.451645,72.8494 45.321682,72.491853 45.321682,74.187317 c 0,0.289714 0.635257,1.883738 1.411681,3.542279 2.296008,4.904566 2.794594,7.972114 1.657904,10.200213 -0.640598,1.255675 -1.385986,1.8118 -2.790205,2.08174 -1.77579,0.341366 -1.960131,0.45666 -2.536506,1.58645 -0.314312,0.616102 -0.954577,1.329856 -1.42281,1.58612 -0.468234,0.256264 -1.120437,0.681762 -1.449342,0.945553 l -0.598008,0.479619 0.820319,0.0093 c 1.365079,0.01548 4.844967,-1.088707 8.537035,-2.708814 4.564567,-2.002975 6.28263,-2.590116 7.579033,-2.590116 2.043177,0 1.913263,1.399313 -0.409286,4.408376 -1.716334,2.223659 -4.509215,4.820897 -5.121633,4.762853 -0.28031,-0.02657 -1.955446,-0.135748 -3.722523,-0.242625 z m 4.462746,-3.616647 c 1.272036,-0.648946 2.211847,-1.769762 1.594622,-1.901747 -0.485124,-0.103736 -3.474999,1.003276 -3.702088,1.37071 -0.262281,0.424384 0.09143,1.086056 0.580568,1.086056 0.241435,0 0.928536,-0.24976 1.526898,-0.555019 z M 26.044475,90.475277 c 0,-0.892303 -2.797012,-3.201187 -3.285815,-2.712384 -0.236918,0.236917 0.45735,1.415238 1.404899,2.384415 0.941891,0.963388 1.880916,1.127124 1.880916,0.327969 z m 15.08651,-4.486683 c 0,-0.335521 -1.641629,-1.977149 -1.97715,-1.977149 -0.409735,0 -0.314015,0.196013 0.609192,1.247487 0.849121,0.967095 1.367958,1.243841 1.367958,0.729662 z"
       id="path1426"
       inkscape:connector-curvature="0"
       transform="matrix(0.26458333,0,0,0.26458333,0,87)" />
    <path
       style="opacity:1;fill:#ffffff;fill-opacity:1;fill-rule:nonzero;stroke:none;stroke-width:2.51338601;stroke-linecap:butt;stroke-linejoin:miter;stroke-miterlimit:4;stroke-dasharray:none;stroke-dashoffset:0;stroke-opacity:1;paint-order:stroke fill markers"
       d="m 43.924783,98.222234 c -9.077164,-0.342199 -10.214619,-0.514579 -14.119099,-2.139717 -1.838177,-0.765093 -3.997823,-1.602621 -4.799213,-1.86117 -1.172973,-0.378431 -1.651302,-0.734682 -2.453215,-1.827105 -1.529102,-2.083053 -2.974249,-5.442833 -3.14337,-7.307922 -0.185862,-2.049723 0.158315,-2.232921 2.32847,-1.23939 2.446052,1.119838 4.89157,3.006978 7.141893,5.511205 1.813366,2.017969 5.147213,4.643759 5.477112,4.313859 0.06616,-0.06616 -0.72147,-1.103936 -1.750294,-2.30616 -2.148577,-2.510703 -5.185013,-7.000373 -7.656038,-11.320202 -2.797503,-4.89058 -6.975102,-13.639597 -7.456471,-15.61586 -0.58941,-2.419823 -0.242487,-4.132163 1.571185,-7.755033 2.394524,-4.783142 4.382252,-6.973451 10.499254,-11.569294 1.55214,-1.166158 3.437954,-2.653559 4.190697,-3.305335 1.702698,-1.474311 3.139268,-2.120018 5.910091,-2.656457 3.106043,-0.601339 9.403,-0.831087 11.495471,-0.419419 0.937099,0.184363 4.626798,1.44435 8.199332,2.79997 7.097619,2.693239 16.156942,5.728127 22.872372,7.662284 6.207974,1.788002 5.971322,1.757657 6.361484,0.815726 0.596781,-1.44076 1.909701,-3.191318 2.799191,-3.732248 0.482547,-0.293456 0.937182,-0.533556 1.010299,-0.533556 0.07312,0 0.132937,1.836404 0.132937,4.080898 0,3.482562 -0.06044,4.057705 -0.412225,3.922713 -0.226722,-0.087 -0.886757,0.04061 -1.466744,0.283584 -1.536304,0.643603 -4.150397,0.338945 -10.035549,-1.169587 -6.488376,-1.663156 -13.184292,-3.914738 -21.503896,-7.230945 -3.705705,-1.477099 -7.477332,-2.82523 -8.381394,-2.995847 -2.886374,-0.544723 -9.869194,0.06702 -12.404529,1.086719 -1.168481,0.469958 -3.512622,2.469433 -4.201082,3.583384 -0.480185,0.776956 -0.653061,1.485692 -0.669923,2.746467 -0.01901,1.421303 -0.267059,2.247709 -1.516333,5.051838 -3.49018,7.83409 -3.24831,6.893673 -3.233475,12.572092 0.02206,8.445085 0.940444,12.846739 3.497747,16.764133 2.798297,4.286561 6.316948,6.762025 7.531484,5.2986 0.484243,-0.583479 0.158263,-1.23021 -2.135073,-4.235901 -1.03004,-1.349991 -2.168573,-3.123324 -2.530074,-3.940742 -0.803766,-1.817458 -1.94402,-6.33318 -3.334465,-13.205412 l -1.049334,-5.186299 1.767753,-3.334786 c 2.102737,-3.966718 3.850176,-6.717199 4.85097,-7.635463 0.504556,-0.462947 1.174707,-0.711581 2.177715,-0.807957 l 1.448871,-0.139219 -0.188975,0.947648 c -0.103937,0.521206 -1.134235,2.700157 -2.289553,4.842114 -2.707227,5.019197 -3.042495,6.048676 -2.821452,8.663612 0.424519,5.022044 2.383873,12.750797 3.845706,15.169538 1.373877,2.273213 3.895562,4.540752 5.049678,4.540752 0.821852,0 0.624668,-0.963349 -1.024049,-5.003111 -1.980373,-4.852395 -2.21844,-6.135446 -2.017524,-10.873315 0.165794,-3.909652 1.352723,-11.777841 2.016273,-13.36594 0.496772,-1.188943 1.137558,-1.477652 3.69771,-1.666025 2.785093,-0.204925 3.611957,0.09952 3.859903,1.421192 0.102195,0.544752 0.230313,0.990458 0.284705,0.990458 0.05439,0 0.693619,-0.377163 1.420504,-0.838139 0.726885,-0.460977 1.606876,-0.83814 1.955533,-0.83814 0.595657,0 1.212341,0.704394 1.212341,1.384775 0,0.594793 -2.407028,2.903668 -4.470077,4.287798 -5.044915,3.384708 -6.436905,4.865705 -6.044139,6.430608 0.465851,1.856104 2.245948,2.282192 6.044139,1.44674 2.502391,-0.550426 3.62935,-0.512343 4.609767,0.155774 3.573569,2.435253 11.263949,4.723553 16.204029,4.82157 2.106108,0.04179 2.311782,-0.0087 3.565367,-0.875741 1.828292,-1.264487 2.3063,-1.384321 6.789818,-1.70218 2.161196,-0.15322 4.262822,-0.40533 4.670281,-0.560246 1.71019,-0.650212 3.145286,-3.855089 4.067731,-9.084124 0.269233,-1.526179 0.640785,-2.825295 0.825676,-2.886925 0.255641,-0.08521 0.336164,1.468838 0.336164,6.487783 0,6.30951 -0.02766,6.651579 -0.628605,7.776072 -0.595922,1.11508 -0.628604,1.488533 -0.628604,7.1829 0,5.664934 0.03576,6.079235 0.628604,7.282236 0.475189,0.964257 0.628605,1.765434 0.628605,3.282713 0,1.10393 -0.06878,2.007142 -0.152849,2.007142 -0.338519,0 -4.291536,-2.286519 -4.604076,-2.663107 -0.184536,-0.222352 -0.495544,-1.877038 -0.69113,-3.677079 -0.392436,-3.611761 -0.101521,-3.08955 -3.049888,-5.474744 -0.647796,-0.524061 -1.118176,-1.25634 -1.43568,-2.235039 -0.616499,-1.900358 -1.398274,-3.17433 -2.052998,-3.345545 -0.304985,-0.07976 -1.08931,0.229508 -1.867956,0.736537 -1.299577,0.846247 -1.455828,0.876943 -4.91761,0.966037 -4.351564,0.111995 -8.313681,-0.423174 -13.110459,-1.770852 -8.199082,-2.303567 -15.332543,-2.772855 -15.332543,-1.008675 0,0.265114 0.513961,1.544003 1.142135,2.841977 2.491619,5.148327 3.100611,8.588493 1.92745,10.888077 -0.620919,1.217104 -1.381709,1.817606 -2.650515,2.092094 -1.673691,0.362079 -2.294747,0.743955 -2.744805,1.687739 -0.28657,0.600943 -1.011016,1.302918 -1.930153,1.870283 -1.234659,0.762131 -1.371246,0.922501 -0.848924,0.99674 1.02837,0.146161 4.740909,-0.998791 8.59706,-2.651345 4.777654,-2.047466 6.430773,-2.605655 7.716853,-2.605655 2.525613,0 1.613206,2.524565 -2.397138,6.632706 -2.151314,2.203778 -2.650216,2.580754 -3.364057,2.541915 -0.460976,-0.02509 -3.541139,-0.147505 -6.844805,-0.272049 z m 7.739162,-3.62157 c 1.125607,-0.544897 1.994165,-1.507777 1.660795,-1.841147 -0.191009,-0.191009 -2.75345,0.6675 -3.397107,1.138155 -0.539871,0.394763 -0.410683,1.288966 0.18622,1.288966 0.186796,0 0.884338,-0.26369 1.550092,-0.585974 z m -25.751567,-3.89639 c 0.09914,-0.160415 -0.02221,-0.600675 -0.269677,-0.978355 -0.50229,-0.76659 -2.596887,-2.250181 -2.837374,-2.009694 -0.268462,0.268462 0.669631,1.786785 1.57427,2.547986 0.947422,0.797205 1.257106,0.886115 1.532781,0.440063 z m 14.296653,-5.789502 c -0.726385,-0.726384 -1.033705,-0.897119 -1.033705,-0.574282 0,0.501403 1.64678,2.028619 1.906926,1.768475 0.08827,-0.08827 -0.304683,-0.625655 -0.873221,-1.194193 z"
       id="path1428"
       inkscape:connector-curvature="0"
       transform="matrix(0.26458333,0,0,0.26458333,0,87)" />
    <path
       style="opacity:1;fill:#ffffff;fill-opacity:1;fill-rule:nonzero;stroke:none;stroke-width:2.51338601;stroke-linecap:butt;stroke-linejoin:miter;stroke-miterlimit:4;stroke-dasharray:none;stroke-dashoffset:0;stroke-opacity:1;paint-order:stroke fill markers"
       d="M 43.086643,98.227735 C 33.991055,97.88626 34.064841,97.903361 23.876132,93.775423 22.40606,93.179825 19.339359,87.059046 19.339359,84.720547 c 0,-1.68331 0.465797,-1.845516 2.476957,-0.862551 2.477039,1.210661 4.869008,3.050872 6.891825,5.302081 1.799515,2.002692 5.029566,4.572811 5.347459,4.254918 0.0851,-0.0851 -0.475144,-0.884217 -1.244992,-1.775808 C 29.164933,87.416985 24.999145,80.628966 20.75694,71.998113 17.457162,65.284649 16.84201,63.27401 17.368306,60.922273 c 0.521499,-2.330303 3.091716,-7.227619 4.96552,-9.461348 0.901019,-1.074088 2.5864,-2.707213 3.745292,-3.629166 1.158893,-0.921953 3.527394,-2.807767 5.263336,-4.190697 4.991945,-3.976809 5.229488,-4.088981 10.06791,-4.754264 3.523653,-0.484502 8.090429,-0.530682 10.089196,-0.102023 0.800759,0.171732 4.295702,1.37827 7.766541,2.681195 9.894692,3.714388 25.419135,8.703447 28.224586,9.070479 0.579264,0.07578 0.833396,-0.179427 1.69963,-1.706847 0.881739,-1.554764 2.438044,-3.093192 3.129135,-3.093192 0.11958,0 0.217419,1.863816 0.217419,4.141813 v 4.141813 l -0.907985,0.07111 C 87.688055,54.39975 85.643235,54.191408 81.082298,53.016574 74.95094,51.437221 67.274485,48.880322 59.430363,45.804678 50.555916,42.325047 51.308909,42.522151 46.997961,42.550372 c -5.728149,0.0375 -8.532367,0.727618 -10.895897,2.681487 -1.849178,1.528667 -2.592189,2.803513 -2.556526,4.386448 0.03584,1.590919 -0.477161,3.173472 -2.409494,7.432986 -2.624763,5.785864 -2.854092,7.196234 -2.330619,14.333313 0.423598,5.775387 0.920875,8.073401 2.405239,11.115084 2.386334,4.889952 7.133436,8.91387 8.530288,7.230769 0.474305,-0.571505 0.212533,-1.090277 -2.110441,-4.182425 -1.038926,-1.38293 -2.194994,-3.200667 -2.569039,-4.039416 -0.847314,-1.899995 -1.921466,-6.125673 -3.307995,-13.013553 l -1.070717,-5.319017 1.894873,-3.600959 c 3.402814,-6.466606 4.668813,-7.975763 6.867956,-8.187073 1.304032,-0.125301 1.406016,-0.09043 1.406016,0.480692 0,0.338686 -1.12004,2.781265 -2.488978,5.427954 -1.574732,3.044571 -2.562118,5.299902 -2.6881,6.140006 -0.418303,2.789447 1.590205,12.609681 3.327042,16.266967 1.434457,3.020559 4.485277,6.03975 5.651004,5.592418 0.592235,-0.227261 0.361129,-1.15844 -1.281506,-5.163509 -0.732061,-1.784907 -1.472698,-3.911507 -1.645861,-4.725779 -0.654542,-3.077886 -0.288259,-9.034699 0.982651,-15.980744 0.795825,-4.349505 1.139883,-4.724721 4.535187,-4.945893 2.747206,-0.178954 3.576855,0.134346 3.822447,1.443468 l 0.186271,0.99291 1.469199,-0.840591 c 2.078022,-1.188922 3.217154,-1.036679 3.217154,0.429967 0,0.800053 -2.56457,3.188854 -5.660984,5.272992 -2.967192,1.997164 -4.955449,4.027461 -4.955449,5.060234 0,0.436447 0.329671,1.061582 0.816649,1.548557 0.963649,0.963648 1.834587,1.030945 5.144749,0.397533 3.128613,-0.598675 3.794503,-0.541519 5.368632,0.460806 3.492338,2.223738 9.950367,4.120928 14.791983,4.345471 3.005291,0.13938 3.097864,0.125525 4.190697,-0.627177 1.82601,-1.25769 2.593474,-1.455513 6.961463,-1.794412 2.475596,-0.192076 4.484532,-0.487216 4.948127,-0.726952 1.528934,-0.790642 2.699432,-3.482835 3.7247,-8.566956 1.004055,-4.978936 1.268189,-4.298874 1.268189,3.265178 0,6.287891 -0.02944,6.655432 -0.622763,7.776072 -0.588058,1.110691 -0.622891,1.510933 -0.625115,7.1829 -0.0022,5.655483 0.03419,6.081243 0.62276,7.282236 0.470861,0.960809 0.625118,1.77086 0.625118,3.282713 0,1.10393 -0.07591,2.007142 -0.168681,2.007142 -0.409814,0 -4.02317,-2.052628 -4.456757,-2.531734 -0.33202,-0.366879 -0.588552,-1.472661 -0.830417,-3.57952 -0.19249,-1.676754 -0.468271,-3.260011 -0.612845,-3.51835 -0.14457,-0.258337 -0.881222,-0.932715 -1.637001,-1.498619 -0.937604,-0.702048 -1.57469,-1.472033 -2.005427,-2.423757 -1.872529,-4.137416 -2.009833,-4.234442 -4.247213,-3.001274 -1.620802,0.893331 -1.705991,0.907985 -5.278879,0.907985 -4.700853,0 -6.754507,-0.302834 -13.311671,-1.962951 -7.780561,-1.969851 -13.392659,-2.447929 -14.405785,-1.227184 -0.280746,0.338279 -0.08308,0.996081 1.075886,3.580459 1.923896,4.290076 2.378559,5.961429 2.248388,8.265142 -0.145202,2.569702 -1.001605,3.721194 -3.246182,4.364706 -1.836799,0.526603 -2.167152,0.745385 -2.646819,1.752907 -0.191803,0.402877 -0.938442,1.109663 -1.659198,1.57064 -0.720756,0.460977 -1.317292,0.94348 -1.325635,1.072232 -0.04383,0.67632 4.741962,-0.812574 10.601263,-3.298132 4.374337,-1.85563 6.716316,-2.289473 7.225279,-1.338464 0.504845,0.943309 -0.887768,3.243195 -3.721532,6.146063 -2.482605,2.543147 -2.547474,2.586775 -3.783126,2.544197 -0.691465,-0.02383 -3.960209,-0.144803 -7.263876,-0.26883 z m 8.019025,-3.373182 c 0.86434,-0.367315 2.318029,-1.596818 2.318029,-1.960545 0,-0.504602 -3.359981,0.788432 -3.769161,1.450498 -0.202525,0.327696 0.05401,0.842132 0.419944,0.842132 0.137363,0 0.601396,-0.149438 1.031188,-0.332085 z m -25.19329,-4.150279 c 0.09914,-0.160415 -0.02221,-0.600675 -0.269677,-0.978355 -0.514384,-0.785049 -2.599343,-2.247725 -2.848642,-1.998426 -0.243341,0.243342 0.94097,2.051843 1.771458,2.705106 0.808287,0.635799 1.087067,0.692032 1.346861,0.271675 z m 14.939227,-4.967851 c 0,-0.330264 -1.366214,-1.569411 -1.5394,-1.396223 -0.188781,0.18878 0.942956,1.626904 1.280297,1.626904 0.142507,0 0.259103,-0.103806 0.259103,-0.230681 z"
       id="path1430"
       inkscape:connector-curvature="0"
       transform="matrix(0.26458333,0,0,0.26458333,0,87)" />
    <path
       style="opacity:1;fill:#ffffff;fill-opacity:1;fill-rule:nonzero;stroke:none;stroke-width:2.51338601;stroke-linecap:butt;stroke-linejoin:miter;stroke-miterlimit:4;stroke-dasharray:none;stroke-dashoffset:0;stroke-opacity:1;paint-order:stroke fill markers"
       d="M 42.388194,98.225335 C 35.088375,97.940496 33.805598,97.723552 29.57831,96.05894 c -1.86678,-0.735096 -4.000643,-1.560348 -4.741917,-1.833888 -1.602792,-0.591459 -2.529317,-1.731859 -4.189911,-5.157103 -0.81441,-1.679852 -1.171399,-2.810458 -1.255791,-3.977159 -0.151467,-2.094013 0.24808,-2.29708 2.425625,-1.232794 2.411489,1.178625 4.677064,2.934385 7.474133,5.792253 2.112559,2.15848 4.85604,4.284787 4.85604,3.763626 0,-0.07273 -0.771892,-1.055114 -1.715316,-2.183071 -3.535846,-4.227458 -7.101778,-10.03377 -11.296967,-18.394551 -2.63414,-5.249695 -4.029886,-8.805229 -4.029886,-10.26576 0,-2.356472 2.717763,-8.116605 5.254933,-11.137511 1.563318,-1.86138 2.752372,-2.893798 9.295861,-8.0713 3.888702,-3.076916 4.845298,-3.599137 7.674524,-4.18965 3.065595,-0.639846 10.188206,-0.88643 12.156789,-0.420866 0.83501,0.197477 4.661223,1.520702 8.502695,2.9405 10.753693,3.974536 25.902652,8.799524 27.601547,8.791175 0.459633,-0.0023 0.863812,-0.436033 1.593644,-1.710339 0.845289,-1.475891 2.457875,-3.036092 3.13803,-3.036092 0.117991,0 0.214528,1.925992 0.214528,4.279981 v 4.279981 l -3.562093,-0.04571 C 85.781933,54.209692 84.963795,54.086567 81.082298,53.062908 74.661636,51.3696 67.878465,49.09936 59.492832,45.837191 50.864304,42.480532 49.711745,42.236076 44.515816,42.660595 c -4.556328,0.372261 -6.586291,1.047257 -8.551787,2.843609 -1.930394,1.764272 -2.262233,2.401207 -2.449858,4.702282 -0.118021,1.447443 -0.576994,2.808155 -2.261659,6.705116 -2.696388,6.237278 -2.889406,7.312125 -2.455606,13.674385 0.521123,7.64296 1.257531,10.458402 3.68467,14.087277 2.269808,3.393646 5.285915,5.791675 6.714258,5.338337 0.535652,-0.170009 0.65952,-0.454347 0.543682,-1.248021 -0.03343,-0.229016 -0.946365,-1.611946 -2.028756,-3.073178 -1.08239,-1.461234 -2.27221,-3.313997 -2.644043,-4.117254 -0.815021,-1.760654 -1.889518,-5.958962 -3.326738,-12.998324 l -1.069694,-5.239255 1.208199,-2.443689 c 1.870106,-3.782453 4.07286,-7.376716 5.160222,-8.420003 0.784737,-0.752929 1.277578,-0.97535 2.400202,-1.083219 1.317435,-0.126589 1.412697,-0.09353 1.412697,0.490296 0,0.344321 -1.008726,2.582689 -2.241612,4.974151 -2.961318,5.744143 -3.203641,6.605574 -2.789364,9.915872 0.681795,5.447917 2.345166,11.617082 3.803,14.104685 1.447325,2.469673 4.073302,4.789104 5.013558,4.428296 0.565429,-0.216977 0.386777,-0.878982 -1.516905,-5.620901 l -1.570228,-3.911317 0.01675,-5.028837 c 0.01699,-5.10009 0.62702,-10.118393 1.672413,-13.757817 0.56689,-1.973565 1.193816,-2.341935 4.285761,-2.51823 2.254626,-0.128553 2.525379,-0.08845 3.068258,0.454426 0.327481,0.327481 0.59542,0.846863 0.59542,1.154181 0,0.708263 0.403159,0.707606 1.400104,-0.0023 1.659127,-1.181394 3.349353,-0.97296 3.349353,0.413041 0,0.809676 -2.528329,3.215525 -5.435832,5.172506 -4.258025,2.865991 -5.588146,4.525856 -4.854082,6.057433 0.643147,1.341881 1.680663,1.641041 4.280024,1.234116 4.969178,-0.777914 4.588531,-0.821399 8.048186,0.919383 4.516776,2.272691 10.439105,3.80674 14.696236,3.80674 1.531862,0 2.038252,-0.125062 2.912879,-0.719386 1.772109,-1.20418 2.692226,-1.451965 6.614292,-1.781214 2.074395,-0.17414 4.244813,-0.442384 4.823149,-0.596093 1.836198,-0.488024 3.078192,-3.062431 4.218045,-8.743167 1.005337,-5.01033 1.295859,-4.278342 1.295859,3.264985 0,5.937208 -0.05233,6.673517 -0.552625,7.776072 -0.495686,1.092395 -0.553255,1.845089 -0.558759,7.305514 -0.0056,5.543429 0.04381,6.185553 0.552624,7.1829 0.412513,0.808592 0.55876,1.6466 0.55876,3.201737 0,1.158563 -0.07591,2.106479 -0.168681,2.106479 -0.410113,0 -4.023332,-2.052804 -4.457346,-2.532385 C 87.592846,89.78845 87.33802,88.778238 87.15896,87.1591 c -0.40365,-3.649957 -0.681455,-4.299538 -2.444724,-5.716401 -1.266166,-1.017418 -1.67322,-1.573783 -2.312944,-3.161365 -0.82548,-2.048558 -1.447019,-2.930663 -2.064977,-2.930663 -0.208998,0 -1.048297,0.377163 -1.865103,0.838139 -1.440566,0.813007 -1.594823,0.83814 -5.144078,0.83814 -4.654504,0 -6.786597,-0.304306 -13.031026,-1.859865 C 52.36262,73.190763 46.55948,72.65926 45.595583,73.820684 c -0.254146,0.306228 -0.02344,1.070052 1.070614,3.54443 1.762501,3.986216 2.287423,5.775339 2.287423,7.79637 0,2.657324 -0.872889,4.150335 -2.765036,4.729389 -2.0725,0.634246 -2.580355,0.925323 -2.987224,1.712121 -0.229731,0.44425 -1.059658,1.268935 -1.844283,1.832631 -0.784626,0.563696 -1.286892,1.071469 -1.116148,1.128384 0.593659,0.197888 4.685512,-1.096694 8.573001,-2.712328 5.089492,-2.115185 6.35429,-2.532019 7.682878,-2.532019 2.561625,0 1.670752,2.500415 -2.363163,6.632706 l -2.525917,2.587518 -1.676279,-0.04281 c -0.921954,-0.02355 -4.316418,-0.14583 -7.543255,-0.271741 z m 9.359883,-3.743938 c 0.38451,-0.19529 0.938308,-0.619386 1.230665,-0.942435 0.52479,-0.579887 0.523779,-0.587363 -0.07948,-0.587363 -0.665706,0 -2.433674,0.674222 -2.999625,1.143921 -0.194725,0.161607 -0.283772,0.476968 -0.197877,0.700799 0.165349,0.430896 0.757206,0.33981 2.046315,-0.314922 z M 25.786048,90.639731 c -0.01152,-0.111402 -0.02095,-0.390344 -0.02095,-0.619868 0,-0.466612 -2.103794,-2.0971 -2.705856,-2.0971 -0.524466,0 -0.10334,0.765179 1.156043,2.100514 0.851572,0.90293 1.63209,1.209248 1.570766,0.616454 z M 40.216651,84.92578 c -0.971089,-0.971091 -1.264357,-0.677823 -0.330176,0.330177 0.394183,0.42533 0.797357,0.692666 0.895943,0.594081 0.09858,-0.09858 -0.15601,-0.514503 -0.565767,-0.924258 z"
       id="path1432"
       inkscape:connector-curvature="0"
       transform="matrix(0.26458333,0,0,0.26458333,0,87)" />
  </g>
</svg>
