<?xml version="1.0" encoding="UTF-8" standalone="no"?>
<!-- Created with Inkscape (http://www.inkscape.org/) -->

<svg
   xmlns:dc="http://purl.org/dc/elements/1.1/"
   xmlns:cc="http://creativecommons.org/ns#"
   xmlns:rdf="http://www.w3.org/1999/02/22-rdf-syntax-ns#"
   xmlns:svg="http://www.w3.org/2000/svg"
   xmlns="http://www.w3.org/2000/svg"
   xmlns:sodipodi="http://sodipodi.sourceforge.net/DTD/sodipodi-0.dtd"
   xmlns:inkscape="http://www.inkscape.org/namespaces/inkscape"
   width="297mm"
   height="210mm"
   viewBox="0 0 297 210"
   version="1.1"
   id="svg1549"
   inkscape:version="0.92.2 (5c3e80d, 2017-08-06)"
   sodipodi:docname="A.svg">
  <defs
     id="defs1543">
    <inkscape:path-effect
       effect="spiro"
       id="path-effect843"
       is_visible="true" />
  </defs>
  <sodipodi:namedview
     id="base"
     pagecolor="#ffffff"
     bordercolor="#666666"
     borderopacity="1.0"
     inkscape:pageopacity="0.0"
     inkscape:pageshadow="2"
     inkscape:zoom="4.7372387"
     inkscape:cx="75.38692"
     inkscape:cy="825.51087"
     inkscape:document-units="mm"
     inkscape:current-layer="layer1"
     showgrid="false"
     inkscape:window-width="1366"
     inkscape:window-height="705"
     inkscape:window-x="-8"
     inkscape:window-y="-8"
     inkscape:window-maximized="1" />
  <metadata
     id="metadata1546">
    <rdf:RDF>
      <cc:Work
         rdf:about="">
        <dc:format>image/svg+xml</dc:format>
        <dc:type
           rdf:resource="http://purl.org/dc/dcmitype/StillImage" />
        <dc:title />
      </cc:Work>
    </rdf:RDF>
  </metadata>
  <g
     inkscape:label="Capa 1"
     inkscape:groupmode="layer"
     id="layer1"
     transform="translate(0,-87)">
    <path
       style="opacity:1;fill:#006680;fill-opacity:1;fill-rule:nonzero;stroke:none;stroke-width:0.66499996;stroke-linecap:butt;stroke-linejoin:miter;stroke-miterlimit:4;stroke-dasharray:none;stroke-dashoffset:0;stroke-opacity:1;paint-order:stroke fill markers"
       d="m 17.596854,111.57399 c -0.698842,-0.13177 -1.190187,-0.35691 -1.190187,-0.54537 0,-0.0724 0.236779,-0.38187 0.526181,-0.68764 0.477718,-0.50472 0.534155,-0.64899 0.612789,-1.56662 0.04764,-0.55589 0.133214,-1.05519 0.190176,-1.10956 0.05696,-0.0543 0.365052,-0.0241 0.684647,0.0673 0.319595,0.0915 0.707341,0.12794 0.861658,0.0812 0.532233,-0.16123 0.317923,-0.66215 -0.778673,-1.82001 -0.882466,-0.93177 -1.231268,-1.4545 -2.089942,-3.13208 -1.118229,-2.18469 -1.434007,-2.63217 -2.881434,-4.083309 -0.525828,-0.527173 -1.062483,-1.155705 -1.192567,-1.396718 -0.251442,-0.465881 -0.327768,-1.821111 -0.102569,-1.821111 0.07367,0 0.606252,0.493883 1.183512,1.097525 1.469314,1.536476 2.604121,2.375171 4.387489,3.242667 0.846766,0.411896 1.740921,0.894826 1.987013,1.073156 0.531201,0.38495 1.691479,1.85856 2.368239,3.00779 0.443901,0.75381 0.482449,0.91193 0.467345,1.91701 -0.0282,1.87578 -0.743845,5.33798 -1.167528,5.64832 -0.266578,0.19526 -2.87784,0.2138 -3.866153,0.0274 z"
       id="path1631"
       inkscape:connector-curvature="0" />
    <path
       style="opacity:1;fill:#006680;fill-opacity:1;fill-rule:nonzero;stroke:none;stroke-width:0.66499996;stroke-linecap:butt;stroke-linejoin:miter;stroke-miterlimit:4;stroke-dasharray:none;stroke-dashoffset:0;stroke-opacity:1;paint-order:stroke fill markers"
       d="m 12.82027,102.89889 c -0.449463,-0.16136 -2.209938,-0.9208 -3.1560328,-1.36145 -0.5283017,-0.24606 -0.5269317,-0.67217 0.00352,-1.09822 0.5522928,-0.443573 0.6224348,-0.445465 0.9113778,-0.0246 0.309264,0.45053 1.238278,0.95346 2.691031,1.45683 1.312043,0.45461 1.643167,0.67457 1.510872,1.00364 -0.109154,0.27151 -1.232733,0.28511 -1.960773,0.0238 z"
       id="path1633"
       inkscape:connector-curvature="0" />
    <path
       style="opacity:1;fill:#006680;fill-opacity:1;fill-rule:nonzero;stroke:none;stroke-width:0.66499996;stroke-linecap:butt;stroke-linejoin:miter;stroke-miterlimit:4;stroke-dasharray:none;stroke-dashoffset:0;stroke-opacity:1;paint-order:stroke fill markers"
       d="m 12.533358,105.36075 c -1.316522,-0.27878 -2.6298287,-0.74591 -3.0843037,-1.09707 -0.3568388,-0.27571 -0.4033845,-0.37504 -0.2724404,-0.58135 0.2477111,-0.39032 0.7991397,-0.36756 2.1641991,0.0892 0.695349,0.23272 1.74577,0.48798 2.334269,0.56724 1.521999,0.20499 2.234357,0.59356 1.865635,1.01763 -0.21491,0.24717 -1.849307,0.24948 -3.007359,0.004 z"
       id="path1635"
       inkscape:connector-curvature="0" />
    <path
       style="opacity:1;fill:#006680;fill-opacity:1;fill-rule:nonzero;stroke:none;stroke-width:0.66499996;stroke-linecap:butt;stroke-linejoin:miter;stroke-miterlimit:4;stroke-dasharray:none;stroke-dashoffset:0;stroke-opacity:1;paint-order:stroke fill markers"
       d="m 11.783176,107.86582 c -0.562247,-0.15232 -1.401658,-0.93306 -1.401658,-1.30368 0,-0.24461 0.702789,-0.20796 3.371216,0.17581 1.897335,0.27287 2.54168,0.43961 2.472845,0.63991 -0.140859,0.40988 -3.40653,0.76859 -4.442403,0.48796 z"
       id="path1637"
       inkscape:connector-curvature="0" />
    <path
       style="opacity:1;fill:#006680;fill-opacity:1;fill-rule:nonzero;stroke:none;stroke-width:0.66499996;stroke-linecap:butt;stroke-linejoin:miter;stroke-miterlimit:4;stroke-dasharray:none;stroke-dashoffset:0;stroke-opacity:1;paint-order:stroke fill markers"
       d="m 13.465821,109.82242 c -0.697508,-0.15054 -0.479229,-0.35193 0.583906,-0.53872 1.085605,-0.19074 1.854844,-0.17586 1.854844,0.0358 0,0.35076 -1.607569,0.68221 -2.43875,0.50283 z"
       id="path1639"
       inkscape:connector-curvature="0" />
    <path
       style="opacity:1;fill:#006680;fill-opacity:1;fill-rule:nonzero;stroke:none;stroke-width:0.66499996;stroke-linecap:butt;stroke-linejoin:miter;stroke-miterlimit:4;stroke-dasharray:none;stroke-dashoffset:0;stroke-opacity:1;paint-order:stroke fill markers"
       d="m 22.877078,112.82191 c -0.114781,-0.0677 -0.08265,-0.38444 0.113142,-1.11513 0.345316,-1.28876 0.848412,-4.15319 0.969412,-5.51946 0.102436,-1.1567 0.297206,-1.54946 0.695949,-1.40342 0.418721,0.15337 0.213184,2.77235 -0.425954,5.42757 -0.280987,1.16732 -0.544359,2.22358 -0.585276,2.34725 -0.08413,0.25426 -0.525656,0.40572 -0.767273,0.26319 z"
       id="path1641"
       inkscape:connector-curvature="0" />
    <path
       style="opacity:1;fill:#006680;fill-opacity:1;fill-rule:nonzero;stroke:none;stroke-width:0.66499996;stroke-linecap:butt;stroke-linejoin:miter;stroke-miterlimit:4;stroke-dasharray:none;stroke-dashoffset:0;stroke-opacity:1;paint-order:stroke fill markers"
       d="M 3.160904,112.85876 C 3.0380604,112.74151 3.0355375,98.595523 3.1580408,96.422064 l 0.092702,-1.64572 1.2259607,-0.08262 c 1.057079,-0.07116 1.2760061,-0.13035 1.5892614,-0.429354 0.3335135,-0.318345 0.3678719,-0.464672 0.4190715,-1.784889 l 0.055777,-1.438111 h 9.6670026 9.667001 v 6.078095 6.078125 l -0.537957,0.091 c -0.295878,0.05 -0.663001,0.12634 -0.815827,0.16952 -0.271068,0.0766 -0.271275,0.0832 -0.0085,0.26656 0.258213,0.18022 0.256188,0.18804 -0.04869,0.18804 -0.444727,0 -1.439537,-0.99247 -2.168058,-2.16296 -0.797158,-1.28078 -1.415172,-1.792185 -3.19699,-2.645501 -2.532062,-1.212613 -4.066832,-2.360172 -5.220616,-3.90349 -0.358091,-0.478989 -0.815873,-0.99462 -1.017293,-1.145846 -0.838491,-0.629552 -1.802452,-0.134597 -1.983612,1.018512 -0.168475,1.07235 -0.0056,2.678852 0.335783,3.312252 l 0.305243,0.566327 -0.891165,0.05739 c -1.0953118,0.07053 -1.8619288,0.408216 -2.3696837,1.043626 -0.4808264,0.6017 -0.530275,1.4883 -0.1078656,1.93382 0.2735503,0.28851 0.273699,0.30161 0.00826,0.73049 -0.3046106,0.4922 -0.3475146,1.48226 -0.087394,2.01692 0.091601,0.18826 0.320323,0.54324 0.5082725,0.78882 0.1903248,0.24867 0.3859982,0.75372 0.4416435,1.13989 0.086237,0.59852 0.2156179,0.81146 0.945663,1.55636 0.4651633,0.47464 0.9372773,1.07207 1.0491393,1.32761 0.111864,0.25555 0.321689,0.56635 0.466281,0.69067 0.465457,0.40019 1.725289,0.9323 2.207342,0.9323 0.320877,0 0.698324,0.16582 1.199386,0.52691 0.402137,0.28981 0.936488,0.62827 1.187448,0.75214 0.250961,0.12387 0.496476,0.28728 0.545586,0.36313 0.100674,0.15548 -13.2976408,0.20189 -13.4603169,0.0466 z"
       id="path1643"
       inkscape:connector-curvature="0" />
    <path
       style="opacity:1;fill:#006680;fill-opacity:1;fill-rule:nonzero;stroke:none;stroke-width:0.66499996;stroke-linecap:butt;stroke-linejoin:miter;stroke-miterlimit:4;stroke-dasharray:none;stroke-dashoffset:0;stroke-opacity:1;paint-order:stroke fill markers"
       d="M 0.42999775,92.339283 C 0.27330678,91.949524 1.6578965,88.255997 2.1587015,87.727794 c 0.3451745,-0.364058 0.9740715,-0.313435 1.319931,0.106248 0.287166,0.34847 1.2594975,2.601637 1.6012538,3.710567 0.3718408,1.206548 -0.2982037,1.369325 -1.3104516,0.318376 -0.7601869,-0.789261 -1.1290114,-0.858456 -1.6420401,-0.308096 -0.1930547,0.207104 -0.478309,0.5152 -0.6339043,0.684642 -0.3230133,0.351781 -0.93894434,0.409551 -1.06349255,0.09975 z"
       id="path1645"
       inkscape:connector-curvature="0" />
    <path
       style="opacity:1;fill:#ffffff;fill-opacity:1;fill-rule:nonzero;stroke:none;stroke-width:2.51338577;stroke-linecap:butt;stroke-linejoin:miter;stroke-miterlimit:4;stroke-dasharray:none;stroke-dashoffset:0;stroke-opacity:1;paint-order:stroke fill markers"
       d="m 88.516932,97.840842 c 0,-0.07959 0.201438,-0.359136 0.44764,-0.621206 0.483577,-0.514745 2.396221,-7.800905 3.567015,-13.588433 1.331556,-6.582229 1.887703,-14.010522 1.176405,-15.7129 -0.604086,-1.445781 -1.951973,-1.091497 -2.528125,0.664505 -0.182387,0.555875 -0.52554,2.625546 -0.762564,4.59927 -0.78838,6.564875 -2.000945,13.468169 -3.409748,19.412144 -0.50745,2.141015 -0.816588,3.915211 -0.769048,4.413706 l 0.07949,0.83357 -11.696673,-0.128959 C 64.861233,97.604932 62.867631,97.533144 62.580227,97.278943 62.390792,97.111392 61.38087,96.475954 60.335958,95.866859 59.291045,95.257763 57.719197,94.261763 56.842963,93.653525 54.563948,92.071546 53.268721,91.470795 51.63601,91.238441 49.858294,90.985452 48.181824,90.417177 45.934017,89.305633 43.855461,88.277786 42.839647,87.33965 41.911069,85.590321 41.075751,84.016683 40.071542,82.724434 37.70122,80.17295 c -2.36427,-2.54497 -2.952223,-3.430819 -3.335099,-5.024889 -0.699114,-2.910696 -1.076483,-3.919473 -1.938449,-5.181827 -1.779778,-2.606493 -2.206637,-3.544829 -2.355623,-5.178202 -0.199743,-2.189839 0.07225,-3.81575 0.923927,-5.523085 0.672584,-1.348306 0.70702,-1.505902 0.415936,-1.903537 -1.484044,-2.027276 -1.47367,-1.999709 -1.468353,-3.901997 0.0062,-2.218524 0.523591,-3.366038 2.256719,-5.00516 1.993519,-1.885387 4.170786,-2.652098 8.59549,-3.02685 1.443541,-0.122261 2.653023,-0.250695 2.687736,-0.285408 0.03471,-0.03471 -0.269283,-0.689098 -0.675548,-1.454188 -1.34737,-2.537411 -1.637928,-4.116981 -1.661096,-9.030281 -0.02327,-4.934169 0.185105,-5.952362 1.520667,-7.43067 0.99018,-1.09601 1.697794,-1.435255 2.993734,-1.435255 2.14284,0 3.17893,0.810944 6.857168,5.367076 4.984866,6.174619 8.867951,9.115298 18.696736,14.159126 8.146577,4.180571 9.4907,5.251997 12.855634,10.24746 3.663008,5.437971 6.720836,8.431283 8.615228,8.433461 0.858169,0.0011 0.866332,-0.208716 0.03214,-0.825466 -0.373374,-0.276045 -0.574725,-0.562659 -0.469324,-0.66806 0.17628,-0.17628 4.30315,-1.10199 4.404878,-0.988071 0.02692,0.03015 0.118668,8.247876 0.203883,18.261621 l 0.154932,18.206809 h -4.2478 c -2.336289,0 -4.247799,-0.06512 -4.247799,-0.144715 z m -7.632166,-4.889655 c 0.976238,-0.550709 2.095746,-3.843224 3.185295,-9.368071 1.0924,-5.539307 1.364537,-7.972676 1.375685,-12.300879 l 0.01032,-4.010775 -0.688687,-1.407801 C 83.942041,64.176509 80.944943,59.646298 79.282877,57.573654 75.651673,53.045438 75.308908,52.785612 67.927984,48.966307 59.716918,44.717433 57.546033,43.139188 50.802292,36.515841 c -2.340981,-2.299188 -4.356219,-4.180343 -4.478308,-4.180343 -0.520708,0 -0.716293,0.94155 -0.589447,2.837614 0.250889,3.750244 0.771314,4.607525 6.290073,10.361452 4.735852,4.93766 5.576979,6.147973 9.694861,13.950094 3.323706,6.297405 4.794799,8.587068 7.28929,11.345295 3.053712,3.376578 3.870928,4.400369 4.446808,5.570867 0.51704,1.050904 0.527261,1.134942 0.19897,1.635974 -0.308985,0.471573 -0.486914,0.52736 -1.660534,0.520648 -0.722957,-0.0041 -1.884421,-0.14514 -2.581029,-0.313343 -2.068775,-0.499525 -2.37622,-0.443368 -2.62337,0.479182 -0.116638,0.43538 -0.359537,2.057504 -0.539779,3.604722 -0.18024,1.547216 -0.471562,3.157409 -0.647381,3.578205 -0.17582,0.420796 -0.869104,1.387205 -1.540632,2.147574 -1.762132,1.995259 -2.180899,2.620406 -2.025906,3.024316 0.276237,0.719859 3.456854,1.809517 6.216054,2.129579 0.406355,0.04714 3.303612,0.07153 6.43835,0.0542 4.288019,-0.0237 5.822094,-0.100641 6.194454,-0.310694 z M 55.641654,86.273409 c 3.221423,-0.485576 5.138227,-1.504828 4.232526,-2.250625 -0.839833,-0.691561 -8.161782,0.03649 -10.017405,0.996069 -1.0466,0.541219 -0.759017,0.88045 1.085525,1.280483 1.572925,0.341124 2.290503,0.337166 4.699354,-0.02593 z M 52.357722,79.09801 c 3.838145,-0.190187 7.75785,-0.980439 8.717527,-1.757539 0.441488,-0.357495 0.449515,-0.406308 0.120856,-0.73497 -0.701063,-0.701061 -4.439654,-1.450263 -12.892473,-2.583611 -5.391324,-0.722864 -8.312046,-0.877042 -8.850486,-0.4672 -0.372342,0.283416 -0.381724,0.37003 -0.110916,1.023963 0.426138,1.029017 2.665631,3.145107 4.089442,3.864097 0.969586,0.489619 1.618787,0.645418 3.152067,0.756454 1.062042,0.07691 2.263459,0.111976 2.669813,0.07793 0.406355,-0.03405 1.803232,-0.114654 3.10417,-0.179119 z m 5.120814,-9.176979 c 0.942874,-0.181923 1.696408,-0.813848 1.696408,-1.422633 0,-1.105997 -2.637486,-2.242422 -6.75499,-2.910556 -2.991276,-0.485382 -6.722748,-1.384621 -9.969589,-2.402547 -4.966908,-1.55719 -6.903337,-1.602888 -7.766649,-0.183284 -0.448145,0.736916 -0.323395,1.143085 0.6087,1.981852 1.753813,1.578209 8.771039,4.012971 13.53895,4.697602 0.87076,0.125033 1.820681,0.262193 2.110934,0.3048 1.066721,0.156581 5.62225,0.111115 6.536236,-0.06523 z m -1.906744,-9.602472 c 0.642529,-0.58148 0.550578,-1.277138 -0.249303,-1.886137 -0.814401,-0.620051 -2.193972,-1.218982 -6.174483,-2.680612 -4.596341,-1.687759 -6.886858,-2.942142 -8.719453,-4.775134 -0.848252,-0.848435 -1.638181,-1.54261 -1.755399,-1.54261 -0.794409,0 -3.246292,2.10164 -3.55967,3.051183 -0.195115,0.591203 -0.175611,0.844251 0.107224,1.391196 0.395221,0.764273 1.594155,1.369264 8.746168,4.413373 3.817748,1.624947 4.791559,1.978535 6.658784,2.417786 0.232203,0.05462 1.341805,0.07837 2.465784,0.05276 1.657506,-0.03776 2.12611,-0.121229 2.480348,-0.441808 z"
       id="path845"
       inkscape:connector-curvature="0"
       transform="matrix(0.26458333,0,0,0.26458333,0,87)" />
    <path
       style="opacity:1;fill:#ffffff;fill-opacity:1;fill-rule:nonzero;stroke:none;stroke-width:2.51338577;stroke-linecap:butt;stroke-linejoin:miter;stroke-miterlimit:4;stroke-dasharray:none;stroke-dashoffset:0;stroke-opacity:1;paint-order:stroke fill markers"
       d="m 88.516932,97.80031 c 0,-0.101884 0.143151,-0.304049 0.318111,-0.449254 0.792548,-0.657756 3.521455,-11.92611 4.540223,-18.747748 0.54893,-3.675603 0.77655,-9.091782 0.434551,-10.340049 -0.419933,-1.532726 -1.717429,-1.580072 -2.428651,-0.08862 -0.19843,0.416111 -0.503272,1.808007 -0.677427,3.093099 -1.44189,10.639747 -2.150731,14.752869 -3.693472,21.431717 -0.469197,2.031255 -0.81318,4.011709 -0.766394,4.412461 l 0.08488,0.727097 -11.69214,-0.118745 c -9.790096,-0.09943 -11.749782,-0.16856 -12.046478,-0.424975 -0.194887,-0.168427 -1.066781,-0.717089 -1.937542,-1.219248 -0.87076,-0.50216 -2.703835,-1.652982 -4.073497,-2.557383 -2.370966,-1.56557 -4.006541,-2.285825 -5.200154,-2.289979 -0.846595,-0.003 -4.422224,-1.307289 -5.995301,-2.187004 -1.710923,-0.956802 -2.712599,-1.918158 -3.390293,-3.253822 -0.735857,-1.450294 -2.115994,-3.245141 -4.336607,-5.639693 -2.609467,-2.813862 -2.856039,-3.221135 -3.514511,-5.805069 -0.61309,-2.405845 -0.995484,-3.287098 -2.198344,-5.066243 -1.20649,-1.784512 -1.652093,-2.784949 -1.885228,-4.232588 -0.294632,-1.829496 0.02677,-3.98282 0.829909,-5.560133 0.348222,-0.683892 0.633132,-1.419259 0.633132,-1.634148 0,-0.214891 -0.328575,-0.821166 -0.730167,-1.347281 -0.841926,-1.102982 -1.057609,-1.979138 -0.904059,-3.672506 0.284538,-3.137936 3.075653,-5.86848 7.017108,-6.864831 1.076418,-0.272105 5.083811,-0.752419 6.282386,-0.752988 0.316436,-1.5e-4 0.249726,-0.243671 -0.448203,-1.63615 -1.17894,-2.352174 -1.544027,-4.178507 -1.667231,-8.34028 -0.144304,-4.874479 0.20639,-6.540077 1.714524,-8.143019 0.923146,-0.98118 1.630485,-1.301324 2.875199,-1.301324 2.10882,0 3.115793,0.765989 6.521361,4.960696 5.352343,6.59259 9.075002,9.412151 19.610498,14.853084 2.680762,1.384447 5.593543,3.014521 6.472849,3.622384 1.988774,1.374839 3.740715,3.23108 5.430942,5.75427 3.924894,5.859126 7.115138,9.017479 9.108536,9.017479 0.736809,0 0.71449,-0.16139 -0.11942,-0.863592 l -0.686054,-0.5777 0.531285,-0.205334 c 0.659798,-0.255005 4.016242,-0.947842 4.114724,-0.84936 0.03968,0.03968 0.141308,8.264369 0.225838,18.277086 L 97.02551,97.98556 h -4.254293 c -2.339859,0 -4.25429,-0.08336 -4.25429,-0.185247 z m -7.746498,-4.85143 c 0.813894,-0.328362 1.488215,-1.91897 2.473529,-5.834635 1.540531,-6.122109 2.478474,-13.498108 2.268229,-17.837396 -0.08594,-1.773661 -0.18363,-2.176132 -0.845444,-3.483041 C 83.022317,62.546494 79.328391,57.379024 76.669125,54.605856 74.86733,52.726885 73.757994,52.01287 68.146415,49.120291 59.762548,44.798688 57.882189,43.435068 50.87707,36.596701 c -2.415954,-2.358445 -4.504359,-4.250843 -4.640898,-4.20533 -0.494683,0.164894 -0.648685,1.419291 -0.41672,3.394323 0.394757,3.361099 0.761061,3.932912 6.251932,9.759465 4.821199,5.115941 5.761335,6.484578 10.066493,14.654673 3.23465,6.138544 4.262033,7.688282 7.486904,11.293499 2.753665,3.078434 3.433979,3.953313 3.908732,5.026588 0.418081,0.94516 0.425881,1.051606 0.112146,1.530428 -0.292377,0.446226 -0.497845,0.514635 -1.546108,0.514778 -0.664906,8.9e-5 -1.991276,-0.155134 -2.947487,-0.344941 -1.326906,-0.26339 -1.808315,-0.287216 -2.033146,-0.100624 -0.28258,0.23452 -0.501265,1.401215 -0.993528,5.30055 -0.286756,2.27145 -0.683061,3.124546 -2.304493,4.960696 -0.717673,0.812709 -1.435631,1.72735 -1.595467,2.032532 -0.256436,0.489633 -0.247184,0.594175 0.07869,0.889085 0.893949,0.809014 3.123803,1.508267 5.842298,1.832072 2.119038,0.2524 11.894594,0.108668 12.624019,-0.185615 z M 56.721717,86.046872 c 2.03409,-0.410923 3.339087,-1.06953 3.256313,-1.643396 -0.09236,-0.640312 -1.469367,-0.822025 -4.167212,-0.549913 -3.616023,0.364721 -6.557266,1.114662 -6.557266,1.671934 0,0.124899 0.261229,0.328837 0.580507,0.453196 1.619528,0.6308 3.986686,0.654231 6.887658,0.06818 z m -0.330899,-7.364184 c 2.863955,-0.487795 4.789514,-1.170486 4.789514,-1.698085 0,-0.845473 -2.185031,-1.39747 -9.974172,-2.519735 -8.278214,-1.192733 -11.580223,-1.401175 -11.978856,-0.756173 -0.252879,0.409167 0.525163,1.636434 1.822397,2.874611 1.340518,1.279493 2.657207,2.105332 3.876436,2.431339 1.039744,0.278014 9.285105,0.03927 11.464681,-0.331957 z m 1.87239,-9.054364 c 2.202433,-1.138923 0.147358,-2.852887 -4.471147,-3.729012 -4.402763,-0.835197 -8.232917,-1.736207 -10.973024,-2.581309 -3.162444,-0.975358 -5.566063,-1.442288 -6.57862,-1.277973 -0.83965,0.136257 -1.763405,0.990242 -1.763405,1.63022 0,1.462717 4.495403,3.670208 10.554672,5.182927 1.335166,0.333327 3.140015,0.707205 4.010775,0.830836 0.87076,0.123633 1.820681,0.265832 2.110934,0.316 0.290254,0.05017 1.857789,0.0651 3.483414,0.03318 2.2407,-0.04399 3.117928,-0.141933 3.626401,-0.404873 z m -3.330377,-9.070993 c 1.625021,-0.569771 1.364095,-1.681475 -0.631036,-2.688613 -0.71495,-0.360906 -2.831979,-1.228979 -4.704504,-1.929054 -4.959268,-1.854097 -7.276367,-3.101135 -9.229668,-4.967309 -0.885561,-0.846058 -1.708882,-1.538289 -1.829604,-1.538289 -0.360329,0 -2.716851,1.855522 -3.100886,2.441634 -0.562527,0.858523 -0.483556,1.722125 0.221083,2.417697 0.949252,0.937033 11.907281,5.702324 14.320545,6.227537 1.605255,0.349362 4.011063,0.367037 4.95407,0.0364 z"
       id="path847"
       inkscape:connector-curvature="0"
       transform="matrix(0.26458333,0,0,0.26458333,0,87)" />
    <path
       style="opacity:1;fill:#ffffff;fill-opacity:1;fill-rule:nonzero;stroke:none;stroke-width:2.51338577;stroke-linecap:butt;stroke-linejoin:miter;stroke-miterlimit:4;stroke-dasharray:none;stroke-dashoffset:0;stroke-opacity:1;paint-order:stroke fill markers"
       d="m 88.516932,97.843858 c 0,-0.07793 0.130206,-0.291665 0.289348,-0.47496 0.914,-1.052717 3.8325,-13.401282 4.693637,-19.859404 0.193513,-1.451268 0.362656,-4.114262 0.375871,-5.917764 0.02058,-2.809453 -0.02958,-3.361214 -0.350253,-3.852456 -0.780412,-1.195512 -2.002153,-0.456314 -2.458109,1.487251 -0.12906,0.550135 -0.472526,2.85259 -0.763257,5.116567 -0.723489,5.63393 -1.830068,11.951578 -2.976447,16.993022 -0.528006,2.322027 -0.975146,4.73332 -0.993642,5.358429 L 86.30045,97.831104 74.690311,97.728612 63.080172,97.626122 61.765503,96.803144 C 61.042437,96.350507 59.285084,95.23354 57.860275,94.320994 54.71775,92.308302 53.07683,91.497577 51.801072,91.327343 49.261128,90.988415 44.845765,89.075957 43.429094,87.701125 42.96663,87.252317 42.269556,86.319218 41.880041,85.627571 40.96659,84.00559 39.817929,82.528979 37.535486,80.042615 c -2.486869,-2.709053 -2.726238,-3.113924 -3.474049,-5.876046 -0.705076,-2.604274 -0.938212,-3.142417 -2.118344,-4.88972 -1.186514,-1.756751 -1.630494,-2.740911 -1.895311,-4.201285 -0.314528,-1.734518 0.0055,-3.881767 0.848322,-5.691032 0.34408,-0.738669 0.6256,-1.444158 0.6256,-1.567753 0,-0.123595 -0.35622,-0.742295 -0.791601,-1.37489 -0.766199,-1.113264 -0.791438,-1.20859 -0.786544,-2.970756 0.0062,-2.243252 0.520286,-3.374632 2.29662,-5.054615 2.007652,-1.898756 4.444456,-2.716228 9.25569,-3.105002 1.015887,-0.08209 1.847067,-0.235719 1.847067,-0.341399 0,-0.10568 -0.294209,-0.77497 -0.653797,-1.487312 -1.326505,-2.62779 -1.768019,-5.435724 -1.627903,-10.353105 0.102482,-3.596616 0.409285,-4.678446 1.712006,-6.036775 0.961458,-1.002499 1.64925,-1.301324 2.995195,-1.301324 2.048215,0 3.148399,0.873877 6.909769,5.48843 4.910618,6.024482 8.923407,9.009415 19.550608,14.542811 7.225254,3.762063 8.521262,4.83933 12.149055,10.098531 3.261577,4.728295 6.698706,8.069448 8.308158,8.076161 0.614829,0.0026 0.600333,-0.228832 -0.05277,-0.842394 C 92.343,62.88246 92.10552,62.593308 92.10552,62.51258 c 0,-0.165069 4.413305,-1.136208 4.548601,-1.000914 0.04771,0.04771 0.151772,8.273849 0.231258,18.280315 l 0.144518,18.193576 h -4.256483 c -2.341065,0 -4.256482,-0.06377 -4.256482,-0.141699 z m -7.85944,-4.939101 c 0.794531,-0.276973 1.266124,-1.207418 2.154726,-4.251229 1.516571,-5.194862 2.574401,-12.305323 2.615743,-17.582384 0.02702,-3.4483 0.0068,-3.633976 -0.517392,-4.749603 C 83.562871,63.45321 79.637747,57.835174 76.900646,54.856926 75.173106,52.977181 73.984179,52.1939 68.611173,49.395704 59.832053,44.823643 57.911801,43.466794 51.786674,37.507514 46.862151,32.71633 46.309176,32.239982 46.014671,32.53535 c -0.313579,0.3145 -0.276977,3.296172 0.06036,4.91678 0.363593,1.746754 1.342602,3.070341 5.817907,7.865614 4.277249,4.583058 5.978455,6.898004 8.454489,11.504593 0.780055,1.451267 2.080779,3.873564 2.8905,5.382882 2.066653,3.85224 3.796473,6.36725 6.33301,9.207647 2.826672,3.165289 3.391902,3.888533 3.971805,5.082146 0.455183,0.936907 0.460927,1.008947 0.121729,1.526628 -0.312914,0.477565 -0.500314,0.543321 -1.548467,0.543321 -0.655859,0 -1.994717,-0.150328 -2.97524,-0.334062 -1.141141,-0.213829 -1.855832,-0.260998 -1.985773,-0.131057 -0.280948,0.280948 -0.506854,1.399148 -0.901398,4.461787 -0.185959,1.443507 -0.512735,3.010876 -0.72617,3.483041 -0.213432,0.472166 -1.017914,1.570922 -1.787733,2.441682 -1.650198,1.866573 -1.879302,2.437365 -1.199324,2.987979 0.74367,0.602187 3.722144,1.450216 5.812294,1.654874 2.433046,0.238231 11.449372,0.07377 12.304834,-0.224448 z M 56.583774,86.042264 c 1.83238,-0.378489 2.975147,-0.866659 3.310933,-1.414377 0.418949,-0.68337 -0.205537,-0.818574 -3.252884,-0.704256 -5.253755,0.197089 -8.681748,1.374976 -6.332803,2.176006 1.061223,0.361894 4.392409,0.331436 6.274754,-0.05737 z m -0.469685,-7.373131 c 2.648062,-0.399492 4.135551,-0.825814 4.777254,-1.369186 0.493452,-0.417838 0.49457,-0.427711 0.08442,-0.744551 -0.755183,-0.583374 -3.088058,-1.086621 -9.189087,-1.982269 -8.441159,-1.239184 -12.077485,-1.473361 -12.490923,-0.804403 -0.406053,0.657007 1.877373,3.28336 3.867073,4.447833 0.539496,0.315739 1.394424,0.662597 1.899841,0.770795 1.280306,0.274086 8.504056,0.06608 11.051424,-0.318219 z m 2.100568,-9.057707 c 1.004539,-0.419723 1.150077,-1.063298 0.414157,-1.831434 -0.834448,-0.870975 -2.285477,-1.347513 -7.016111,-2.304184 -4.429887,-0.895851 -5.599285,-1.185965 -9.747421,-2.418229 -1.62767,-0.483522 -3.287535,-0.827451 -4.332189,-0.897641 -1.613695,-0.108422 -1.725635,-0.08677 -2.374802,0.459472 -0.405193,0.340948 -0.681279,0.770656 -0.681279,1.06036 0,2.043636 8.795045,5.332001 16.887475,6.314029 1.460906,0.177285 6.135184,-0.08363 6.85017,-0.382373 z m -2.851902,-9.193807 c 0.671642,-0.359452 0.750076,-1.029026 0.190752,-1.628396 -0.67803,-0.726577 -1.473126,-1.106617 -5.703883,-2.726343 -5.258191,-2.013076 -7.475185,-3.200335 -9.483928,-5.07889 -0.911536,-0.852458 -1.745932,-1.549924 -1.854214,-1.549924 -0.29671,0 -2.180104,1.536522 -2.829755,2.30859 -0.314289,0.373511 -0.571435,0.935663 -0.571435,1.249226 0,1.316098 0.795396,1.801163 7.977484,4.865015 4.680985,1.996891 6.018682,2.485186 7.593484,2.771828 1.211541,0.220523 4.120056,0.08937 4.681495,-0.211106 z"
       id="path849"
       inkscape:connector-curvature="0"
       transform="matrix(0.26458333,0,0,0.26458333,0,87)" />
    <path
       style="opacity:1;fill:#ffffff;fill-opacity:1;fill-rule:nonzero;stroke:none;stroke-width:2.51338577;stroke-linecap:butt;stroke-linejoin:miter;stroke-miterlimit:4;stroke-dasharray:none;stroke-dashoffset:0;stroke-opacity:1;paint-order:stroke fill markers"
       d="M 74.268125,97.772671 63.080173,97.629311 60.780628,96.205938 C 59.515879,95.423081 57.685771,94.2695 56.713723,93.642423 54.155609,91.99216 53.415627,91.658071 51.531405,91.302691 48.52371,90.735414 44.734842,89.03821 43.343572,87.634993 42.936867,87.224797 42.11404,86.084892 41.515066,85.101872 c -0.598973,-0.98302 -1.976358,-2.774751 -3.060854,-3.981625 -3.216088,-3.578999 -3.525139,-4.013076 -3.998553,-5.616141 -1.08481,-3.673372 -1.342124,-4.320065 -2.339855,-5.880633 -1.434726,-2.244081 -2.008381,-3.589477 -2.172947,-5.096226 -0.170337,-1.559577 0.271347,-3.844087 1.034303,-5.349709 0.299499,-0.591032 0.544544,-1.175045 0.544544,-1.297805 0,-0.122761 -0.329303,-0.701923 -0.731785,-1.287028 -0.853954,-1.24143 -1.054289,-2.087904 -0.899127,-3.799061 0.147361,-1.625124 0.764119,-2.854659 2.104121,-4.194661 1.945511,-1.945511 4.684887,-2.9146 9.292996,-3.287514 1.017611,-0.08235 1.893049,-0.219057 1.945418,-0.303792 0.05237,-0.08473 -0.240145,-0.853844 -0.650031,-1.709133 -1.257686,-2.62435 -1.44041,-3.740546 -1.449113,-8.852112 -0.0073,-4.298758 0.01793,-4.594264 0.478045,-5.593976 0.535454,-1.163409 1.52692,-2.301537 2.406279,-2.762225 0.831901,-0.435824 2.773019,-0.379859 3.713028,0.107052 0.924039,0.478639 2.553077,2.134921 4.687712,4.766108 5.017343,6.184458 8.657816,8.937527 19.120915,14.459991 2.83375,1.495664 5.698254,3.081175 6.365565,3.523356 2.082335,1.379827 3.938127,3.329609 6.05439,6.361027 3.507678,5.024534 6.315719,7.957407 8.142832,8.504825 1.106759,0.331592 1.276387,0.121293 0.530305,-0.65745 -0.331377,-0.345883 -0.561931,-0.667758 -0.512345,-0.715282 0.182062,-0.174485 4.409491,-1.051914 4.522692,-0.938713 0.06434,0.06434 0.177578,8.29966 0.251634,18.300701 l 0.134643,18.183711 h -4.256473 c -2.34106,0 -4.256473,-0.04207 -4.256473,-0.09348 0,-0.05141 0.184945,-0.407634 0.410988,-0.7916 0.496009,-0.842539 1.610236,-4.866004 2.73628,-9.880684 2.102756,-9.364329 2.878974,-17.861311 1.788576,-19.578917 -0.405937,-0.639438 -1.209538,-0.611083 -1.738467,0.06134 -0.503559,0.640172 -0.736009,1.65181 -1.186374,5.163223 -0.878869,6.852361 -1.915097,12.836653 -3.296769,19.039079 -0.457587,2.054141 -0.854428,4.238958 -0.88187,4.855149 -0.04255,0.955465 -0.111947,1.122996 -0.471556,1.138353 -0.231915,0.0099 -5.456242,-0.0465 -11.609615,-0.125349 z m 6.121709,-4.826683 c 1.183388,-0.296345 2.007613,-2.205403 3.169188,-7.340417 1.272337,-5.624655 1.787436,-9.880735 1.789777,-14.788265 l 0.0017,-3.631333 -0.837046,-1.589345 c -1.563439,-2.968588 -4.961325,-7.764631 -7.513861,-10.605654 -1.701531,-1.893837 -3.068135,-2.796975 -8.694941,-5.746147 -5.109835,-2.678214 -7.17443,-3.868071 -9.126664,-5.259832 -1.773137,-1.26408 -5.251838,-4.277963 -6.863611,-5.946502 -2.266997,-2.346843 -5.78401,-5.491902 -6.141408,-5.491902 -0.309882,0 -0.338893,0.277873 -0.258961,2.480348 0.138718,3.822264 0.416827,4.295361 6.131086,10.429717 4.966013,5.331102 5.600997,6.25003 9.968799,14.426536 3.059117,5.726652 4.55818,8.037726 7.105977,10.955133 3.217013,3.683711 3.777536,4.397578 4.35445,5.545737 0.526157,1.047139 0.533851,1.112977 0.191171,1.635974 -0.32062,0.489327 -0.491162,0.544899 -1.671516,0.544676 -0.722957,-1.38e-4 -2.017186,-0.134262 -2.876064,-0.298056 -0.858876,-0.163791 -1.685032,-0.250437 -1.835901,-0.192545 -0.323353,0.124083 -0.605207,1.399231 -1.033351,4.675045 -0.171796,1.314445 -0.494651,2.786821 -0.717453,3.271948 -0.222803,0.485126 -1.079171,1.683147 -1.903039,2.662266 -0.823871,0.979121 -1.497945,1.954187 -1.497945,2.166811 0,1.009208 3.48285,2.074751 7.38827,2.260365 3.238809,0.153932 10.008713,0.05146 10.871312,-0.164558 z M 56.305445,86.069172 c 1.679029,-0.32125 3.343336,-0.953739 3.599257,-1.367829 0.08303,-0.134344 0.02486,-0.396201 -0.129258,-0.581906 -0.542042,-0.653119 -7.412268,-0.03211 -9.556557,0.863828 -2.410381,1.007123 2.199638,1.829598 6.086558,1.085907 z m -1.036677,-7.324518 c 2.234576,-0.26298 4.841533,-0.896811 5.521746,-1.342506 1.343466,-0.880272 -0.654075,-1.553991 -7.817865,-2.636768 -7.772284,-1.174747 -12.974605,-1.594796 -13.480919,-1.088482 -0.411676,0.411677 0.088,1.374999 1.382777,2.665872 1.606011,1.601162 2.981548,2.426312 4.427503,2.655948 1.323977,0.210266 7.320081,0.05742 9.966758,-0.254064 z m 0.734434,-8.824846 c 2.030098,-0.168028 2.251292,-0.229695 2.701561,-0.753162 0.438889,-0.51024 0.459297,-0.617583 0.194219,-1.021574 -0.349054,-0.531972 -1.637121,-1.309577 -2.679346,-1.617518 -0.406355,-0.120064 -2.591172,-0.599788 -4.855149,-1.066058 -2.263977,-0.466267 -5.588699,-1.267245 -7.38827,-1.779948 -4.483939,-1.277487 -5.830111,-1.575118 -7.140642,-1.578755 -0.963585,-0.0027 -1.212766,0.08517 -1.741521,0.613923 -0.803439,0.803438 -0.77813,1.186569 0.135293,2.048037 2.382053,2.246566 12.160247,5.147513 17.929434,5.319219 0.348304,0.01036 1.628293,-0.06351 2.844421,-0.164164 z m -0.995597,-9.429007 c 0.814791,-0.159796 1.126287,-0.807048 0.700866,-1.456323 -0.495962,-0.756933 -1.752044,-1.392911 -5.821638,-2.947612 -5.202059,-1.987333 -7.453568,-3.191486 -9.527309,-5.095401 l -1.701021,-1.56172 -0.839941,0.472075 c -1.316744,0.740051 -2.70827,2.34384 -2.70827,3.121386 0,1.228013 1.035712,1.855596 7.903514,4.789098 6.928022,2.959222 8.627321,3.338715 11.993799,2.678497 z"
       id="path851"
       inkscape:connector-curvature="0"
       transform="matrix(0.26458333,0,0,0.26458333,0,87)" />
    <path
       style="opacity:1;fill:#ffffff;fill-opacity:1;fill-rule:nonzero;stroke:none;stroke-width:0.66499996;stroke-linecap:butt;stroke-linejoin:miter;stroke-miterlimit:4;stroke-dasharray:none;stroke-dashoffset:0;stroke-opacity:1;paint-order:stroke fill markers"
       d="M 3.229677,77.1843 0.49293872,77.152264 -0.00972754,76.838298 C -0.2861941,76.665617 -0.82975938,76.324163 -1.2176512,76.079513 -1.6055426,75.834862 -2.0328089,75.606382 -2.1671321,75.57178 c -0.1343223,-0.0346 -0.4515678,-0.112921 -0.7049894,-0.174041 -0.5057579,-0.121978 -1.2564316,-0.452116 -1.6610925,-0.73053 -0.1869244,-0.128607 -0.3728291,-0.352528 -0.6654403,-0.801518 -0.2233274,-0.34268 -0.66451,-0.912087 -0.9804061,-1.265349 -0.7520988,-0.841063 -0.8032472,-0.924529 -1.0096802,-1.647629 -0.1753195,-0.614113 -0.2856936,-0.854077 -0.7064692,-1.535924 -0.1232186,-0.19967 -0.2520289,-0.451004 -0.2862448,-0.558518 -0.1811906,-0.569342 -0.128129,-1.193485 0.1566204,-1.842261 l 0.1746461,-0.397915 -0.1148826,-0.178467 c -0.29231,-0.454095 -0.3532555,-0.654519 -0.3263781,-1.073325 0.032107,-0.500296 0.1869483,-0.835354 0.5521976,-1.194887 0.5104183,-0.50243 1.0911052,-0.727404 2.1722691,-0.841594 0.9304697,-0.09828 0.8628774,-0.04253 0.639014,-0.527049 -0.3016012,-0.652776 -0.3654959,-1.002205 -0.399107,-2.182644 -0.024773,-0.870005 -0.013864,-1.124974 0.060548,-1.415268 0.1088218,-0.424533 0.3549534,-0.786444 0.6461585,-0.950111 0.2790794,-0.156851 0.76283,-0.162659 1.0523136,-0.01263 0.2522381,0.130723 0.7169906,0.60825 1.3992844,1.437745 1.24803477,1.517293 2.18067672,2.202409 5.1191887,3.760543 0.7065253,0.374632 1.4360252,0.789084 1.6211113,0.921003 0.4529153,0.322815 0.983547,0.896803 1.4208895,1.536986 0.8517813,1.246838 1.7224681,2.16387 2.1724894,2.288127 0.2719078,0.07508 0.3212021,0.01551 0.1419715,-0.17157 -0.084755,-0.08846 -0.1402234,-0.174724 -0.1232617,-0.191685 0.051319,-0.05132 1.1587496,-0.271284 1.1930605,-0.236974 0.017552,0.01755 0.046853,2.195927 0.065115,4.840832 l 0.033202,4.808919 H 8.3490377 c -1.0242571,0 -1.2495757,-0.02871 -1.074498,-0.136914 0.1146384,-0.07085 0.5418187,-1.606649 0.8731736,-3.139233 0.4811729,-2.225525 0.6423644,-4.508044 0.3397309,-4.810678 -0.1192274,-0.119227 -0.3525584,-0.04129 -0.4519819,0.150976 -0.1179785,0.228145 -0.170969,0.50134 -0.3367842,1.736299 -0.1998874,1.488726 -0.4313936,2.819084 -0.7334247,4.214644 -0.1398696,0.64628 -0.2710275,1.350988 -0.2914626,1.566017 l -0.037154,0.390963 -0.3351109,0.0041 C 6.1172154,77.214488 4.7348831,77.20192 3.229677,77.1843 Z m 1.8256107,-1.290662 c 0.2640383,-0.07334 0.377843,-0.259232 0.597158,-0.975447 0.4318008,-1.410125 0.6753974,-2.960198 0.7168388,-4.561445 L 6.4006085,69.146407 6.1931286,68.738002 C 5.7624174,67.890189 4.7305916,66.44229 4.0721601,65.761778 3.6422868,65.317488 3.2396584,65.060229 1.7653713,64.287861 c -2.09316266,-1.096593 -2.6207188,-1.47243 -4.2050597,-2.995736 -1.2167507,-1.169876 -1.4794325,-1.394139 -1.5684978,-1.339093 -0.04674,0.02889 -0.05776,0.220096 -0.038213,0.663044 0.04235,0.959671 0.1217756,1.095983 1.5110764,2.593348 1.406425,1.515821 1.5830693,1.767302 2.69281831,3.833663 1.03014909,1.918145 1.21159269,2.186249 2.41476499,3.568088 0.4773811,0.548271 0.7970456,1.039432 0.7970456,1.224654 0,0.04234 -0.04949,0.121766 -0.1099777,0.176507 -0.1137685,0.102959 -0.3321473,0.102313 -1.378784,-0.0041 l -0.3437998,-0.03495 -0.059656,0.299553 c -0.032811,0.164755 -0.087121,0.525754 -0.1206884,0.80222 -0.1011565,0.83314 -0.1788811,1.030741 -0.61993617,1.576074 -0.51922944,0.64199 -0.55616369,0.722979 -0.38766618,0.850076 0.1823892,0.137577 0.60177918,0.280129 1.07817445,0.366475 0.5003998,0.0907 3.3225075,0.110866 3.6283153,0.02593 z m -6.5230355,-1.78401 c 0.49455197,-0.08099 0.89845165,-0.210672 1.04644766,-0.335989 0.13148469,-0.111337 0.1316138,-0.112599 0.020611,-0.201536 -0.19429174,-0.155668 -1.77375496,-0.02452 -2.46930646,0.20503 -0.1845365,0.0609 -0.2396228,0.178321 -0.1187148,0.253046 0.2101233,0.129863 0.9705557,0.169586 1.5209636,0.07945 z M -1.6852816,72.14804 c 0.6221838,-0.06789 1.41523661,-0.251462 1.5626172,-0.361701 0.28028053,-0.209648 -0.13243851,-0.370741 -1.5626172,-0.609924 -2.0526804,-0.34329 -3.9841712,-0.513825 -4.0791437,-0.360157 -0.078063,0.126308 0.047696,0.351741 0.3814673,0.683812 0.4393551,0.437117 0.8484817,0.661194 1.2931613,0.708259 0.4250047,0.04498 1.7425215,0.01195 2.4045151,-0.06029 z m 0.93816932,-2.467242 c 0.22320064,-0.146437 0.20097326,-0.341103 -0.0585036,-0.512378 -0.31340852,-0.206874 -0.60101852,-0.29209 -1.81450372,-0.537615 -0.6080723,-0.123031 -1.5862528,-0.361103 -2.1737341,-0.529049 -1.229663,-0.351527 -1.7217882,-0.421579 -1.9894169,-0.283182 -0.2064028,0.106735 -0.3116064,0.274653 -0.2646886,0.422478 0.1080378,0.340397 1.4183801,0.935094 2.8214203,1.280497 0.9702284,0.238852 1.3368843,0.280916 2.3484276,0.269417 0.8318383,-0.0095 1.00288619,-0.02612 1.13099902,-0.110168 z M -1.5762058,67.285455 c 0.1705451,-0.07771 0.1943568,-0.318808 0.044517,-0.450752 -0.1610616,-0.141825 -0.6090472,-0.347597 -1.4940359,-0.686251 -0.8484047,-0.324656 -1.7008901,-0.722091 -2.009304,-0.936755 -0.092904,-0.06466 -0.3409765,-0.275369 -0.5512726,-0.468235 l -0.382356,-0.350664 -0.1658091,0.08574 c -0.2565889,0.132687 -0.7040372,0.591971 -0.7478479,0.767629 -0.06606,0.264868 0.06282,0.406064 0.6403408,0.701529 0.7006887,0.358479 2.3083298,1.045052 2.9090639,1.242369 0.3909808,0.128422 0.5752809,0.15631 1.0445935,0.158069 0.3183493,0.0012 0.6326378,-0.02647 0.7121107,-0.06268 z"
       id="path853"
       inkscape:connector-curvature="0" />
  </g>
</svg>
