<?xml version="1.0" encoding="UTF-8" standalone="no"?>
<!-- Created with Inkscape (http://www.inkscape.org/) -->

<svg
   xmlns:dc="http://purl.org/dc/elements/1.1/"
   xmlns:cc="http://creativecommons.org/ns#"
   xmlns:rdf="http://www.w3.org/1999/02/22-rdf-syntax-ns#"
   xmlns:svg="http://www.w3.org/2000/svg"
   xmlns="http://www.w3.org/2000/svg"
   xmlns:sodipodi="http://sodipodi.sourceforge.net/DTD/sodipodi-0.dtd"
   xmlns:inkscape="http://www.inkscape.org/namespaces/inkscape"
   width="297mm"
   height="210mm"
   viewBox="0 0 297 210"
   version="1.1"
   id="svg1549"
   sodipodi:docname="B.svg"
   inkscape:version="0.92.2 (5c3e80d, 2017-08-06)">
  <defs
     id="defs1543">
    <inkscape:path-effect
       effect="spiro"
       id="path-effect2249"
       is_visible="true" />
  </defs>
  <sodipodi:namedview
     id="base"
     pagecolor="#ffffff"
     bordercolor="#666666"
     borderopacity="1.0"
     inkscape:pageopacity="0.0"
     inkscape:pageshadow="2"
     inkscape:zoom="5.5105851"
     inkscape:cx="50.649003"
     inkscape:cy="742.85082"
     inkscape:document-units="mm"
     inkscape:current-layer="layer1"
     showgrid="false"
     inkscape:window-width="1366"
     inkscape:window-height="705"
     inkscape:window-x="-8"
     inkscape:window-y="-8"
     inkscape:window-maximized="1" />
  <metadata
     id="metadata1546">
    <rdf:RDF>
      <cc:Work
         rdf:about="">
        <dc:format>image/svg+xml</dc:format>
        <dc:type
           rdf:resource="http://purl.org/dc/dcmitype/StillImage" />
        <dc:title />
      </cc:Work>
    </rdf:RDF>
  </metadata>
  <g
     inkscape:label="Capa 1"
     inkscape:groupmode="layer"
     id="layer1"
     transform="translate(0,-87)">
    <path
       style="opacity:1;fill:#006680;fill-opacity:1;fill-rule:nonzero;stroke:none;stroke-width:0.66499996;stroke-linecap:butt;stroke-linejoin:miter;stroke-miterlimit:4;stroke-dasharray:none;stroke-dashoffset:0;stroke-opacity:1;paint-order:stroke fill markers"
       d="m 0.31114218,90.272437 c 0.002463,-2.898961 -0.00431,-2.884899 1.40784912,-2.868366 1.1353168,0.01332 1.8116683,0.24578 2.0616966,0.708698 0.075697,0.140149 0.1376356,0.64264 0.1376356,1.116651 0,0.474 0.060152,0.898658 0.1336705,0.94368 0.2058248,0.126047 0.1583561,1.09169 -0.075718,1.5402 -0.3038313,0.582174 -0.9054263,0.777696 -2.3929265,0.777696 H 0.30917407 Z M 2.8227793,90.950155 C 2.8536553,90.73566 2.7619403,90.632541 2.4419916,90.52202 1.9721185,90.359715 1.5122225,90.51392 1.5122225,90.833431 c 0,0.507971 1.2383657,0.618258 1.3105568,0.116724 z M 2.5986638,88.960661 c 0.1338748,-0.159834 0.1288765,-0.222558 -0.025653,-0.322047 -0.4775126,-0.307426 -1.2053696,0.109159 -1.0212741,0.584522 0.067406,0.174068 0.153325,0.187266 0.4813657,0.07392 0.2196221,-0.07585 0.4741254,-0.227255 0.5655677,-0.336424 z"
       id="path2237"
       inkscape:connector-curvature="0" />
    <path
       style="opacity:1;fill:#006680;fill-opacity:1;fill-rule:nonzero;stroke:none;stroke-width:0.66499996;stroke-linecap:butt;stroke-linejoin:miter;stroke-miterlimit:4;stroke-dasharray:none;stroke-dashoffset:0;stroke-opacity:1;paint-order:stroke fill markers"
       d="M 6.2973934,111.83426 C 4.775375,111.78973 3.4820971,111.70569 3.4234426,111.6476 3.2768511,111.50241 3.1990316,101.30569 3.3169593,97.695091 c 0.064656,-1.979448 0.1498034,-3.014443 0.2603265,-3.164211 0.1220271,-0.165365 0.4814581,-0.248607 1.3983575,-0.323857 0.6787629,-0.05572 1.2749495,-0.141756 1.3248644,-0.19119 0.049911,-0.04941 0.112125,-0.800176 0.1382492,-1.668302 l 0.047499,-1.578399 H 10.32678 c 2.112286,0 6.196317,0.03945 9.075628,0.08775 l 5.235107,0.08775 -5.43e-4,6.965277 c -2.68e-4,3.830901 -0.0396,7.635811 -0.08726,8.455351 l -0.08665,1.49007 h -0.3896 c -0.333459,0 -0.376915,-0.0396 -0.301569,-0.27482 0.08229,-0.25692 0.0502,-0.26952 -0.492264,-0.19336 -0.694702,0.0975 -1.423463,-0.21661 -1.679258,-0.72387 -0.09184,-0.18212 -0.169189,-0.77815 -0.171887,-1.32452 -0.0034,-0.67458 -0.08369,-1.16341 -0.250396,-1.52319 -0.396849,-0.85658 -3.480477,-4.172206 -3.880219,-4.172206 -0.07562,0 -0.105952,-0.08144 -0.06742,-0.180901 0.03961,-0.102276 -0.409443,-0.745983 -1.033217,-1.481096 -1.115798,-1.314949 -4.161166,-4.608664 -4.571185,-4.94396 -0.162604,-0.132961 -0.610072,-0.17601 -1.6592735,-0.15961 -2.2714873,0.03548 -2.8336852,0.265292 -2.9623206,1.210874 -0.064595,0.474855 -0.1369316,0.589809 -0.4114854,0.653905 -0.423803,0.09893 -0.6649512,0.570654 -0.66746,1.305655 -0.00113,0.31739 -0.1040261,0.996044 -0.2287601,1.508122 -0.2133956,0.876046 -0.2133494,0.981819 8.147e-4,1.79083 0.294617,1.113007 1.0209398,2.577447 1.3622165,2.746527 0.1650999,0.0817 0.2521606,0.23771 0.2276413,0.40768 -0.021826,0.15137 0.6218272,1.6223 1.4303593,3.26873 1.7848028,3.63442 2.0805648,3.98142 4.4285948,5.19585 l 1.532719,0.79275 -0.668361,0.0897 c -0.784106,0.10524 -3.827368,0.0996 -7.7131794,-0.0141 z"
       id="path2239"
       inkscape:connector-curvature="0" />
    <path
       style="opacity:1;fill:#006680;fill-opacity:1;fill-rule:nonzero;stroke:none;stroke-width:0.66499996;stroke-linecap:butt;stroke-linejoin:miter;stroke-miterlimit:4;stroke-dasharray:none;stroke-dashoffset:0;stroke-opacity:1;paint-order:stroke fill markers"
       d="m 15.58739,110.8046 c -0.802407,-0.3275 -2.399922,-1.15847 -3.178293,-1.6532 -1.040474,-0.66135 -1.343572,-1.09446 -2.320595,-3.31611 -0.5917802,-1.34566 -1.3166665,-2.83495 -2.1824442,-4.48387 -0.8205132,-1.562719 -1.2548443,-2.602341 -1.0871956,-2.602341 0.1089183,0 0.507492,0.623647 1.1311374,1.769881 0.590795,1.08586 1.0293784,1.74725 1.2688325,1.91344 0.2623869,0.18211 0.584591,0.15266 0.6835138,-0.0624 0.1331571,-0.28958 -0.079689,-0.84229 -0.9698014,-2.518322 C 7.6310679,97.401066 7.1257996,96.369182 7.108182,96.125893 7.09398,95.929903 7.118238,95.897774 7.2801476,95.897774 c 0.2552831,0 0.6852542,0.534874 1.965649,2.445213 1.0335134,1.54199 1.7098104,2.442303 1.9236894,2.560893 0.184903,0.10254 0.481276,-0.0105 0.529798,-0.20207 0.091,-0.35924 -0.341238,-1.209992 -1.9192063,-3.777541 -1.0269301,-1.670935 -1.5986925,-2.889383 -1.3558614,-2.889383 0.231755,0 1.0483556,0.934062 2.5618737,2.930389 1.460557,1.926455 2.112122,2.55125 2.407373,2.308449 0.347541,-0.285799 -0.05036,-1.0966 -1.582132,-3.223874 -1.436021,-1.994293 -1.570767,-2.236637 -1.13252,-2.036844 0.416928,0.190082 1.169902,0.926537 2.583067,2.526401 0.83342,0.943528 1.96992,2.181803 2.525556,2.751734 l 1.010246,1.036209 -1.399827,0.0332 c -1.203959,0.0285 -1.449307,0.0551 -1.753466,0.19034 -0.651893,0.28984 -0.985978,0.94951 -1.495283,2.95254 l -0.290484,1.14246 0.148855,0.30081 c 0.08188,0.16546 0.297791,0.40355 0.479827,0.52912 0.279225,0.19261 0.419187,0.23271 0.895261,0.25653 0.694208,0.0348 1.00171,-0.0605 1.445699,-0.44775 0.18941,-0.1652 0.362212,-0.30036 0.384004,-0.30036 0.02181,0 0.0205,0.31764 -0.0029,0.70585 -0.03156,0.52426 -0.01102,0.81282 0.0798,1.12154 0.145843,0.49569 0.505364,1.08029 0.77004,1.25213 0.257641,0.16726 0.629988,0.16715 0.816677,-2.4e-4 0.239959,-0.21517 0.193283,-0.58231 -0.157778,-1.24105 l -0.311026,-0.58363 0.02326,-1.19173 0.02327,-1.19174 -0.225573,-0.23414 c -0.266267,-0.27638 -0.778931,-0.5379 -1.054475,-0.5379 -0.280447,0 -0.530349,0.22368 -1.014099,0.90775 -0.233833,0.33065 -0.498792,0.62435 -0.588794,0.65266 -0.342153,0.10759 -0.341389,-0.0561 0.0069,-1.48231 0.184145,-0.75404 0.357246,-1.40695 0.384667,-1.45091 0.04385,-0.0703 2.241452,-0.21258 3.415488,-0.22114 l 0.386953,-0.003 1.293786,1.49476 1.293785,1.49475 -0.04973,1.41685 c -0.02735,0.77926 -0.0875,1.61932 -0.133671,1.86679 -0.165675,0.88805 -0.607986,1.45557 -1.649994,2.11711 -0.603563,0.38317 -2.115787,1.19112 -2.225351,1.18895 -0.03856,-8.1e-4 -0.35632,-0.11822 -0.706132,-0.26099 z"
       id="path2243"
       inkscape:connector-curvature="0" />
    <path
       style="opacity:1;fill:#006680;fill-opacity:1;fill-rule:nonzero;stroke:none;stroke-width:0.66499996;stroke-linecap:butt;stroke-linejoin:miter;stroke-miterlimit:4;stroke-dasharray:none;stroke-dashoffset:0;stroke-opacity:1;paint-order:stroke fill markers"
       d="m 20.175389,109.51754 c 0,-0.0157 0.06043,-0.0756 0.13429,-0.13306 0.121712,-0.0946 0.124425,-0.0919 0.02898,0.0287 -0.100252,0.12666 -0.163264,0.16695 -0.163264,0.10436 z"
       id="path2245"
       inkscape:connector-curvature="0" />
    <path
       style="opacity:1;fill:#006680;fill-opacity:1;fill-rule:nonzero;stroke:none;stroke-width:0.66499996;stroke-linecap:butt;stroke-linejoin:miter;stroke-miterlimit:4;stroke-dasharray:none;stroke-dashoffset:0;stroke-opacity:1;paint-order:stroke fill markers"
       d="m 16.562857,112.41787 c 0,-0.0247 0.154527,-0.13309 0.343396,-0.24092 2.677945,-1.52895 3.3319,-1.94897 3.901692,-2.50596 0.418126,-0.40872 0.590385,-0.69182 0.678689,-1.11538 0.03094,-0.14842 0.0771,-0.26985 0.102582,-0.26985 0.05538,0 0.228633,0.3636 0.23011,0.48291 0.0016,0.13915 -0.178142,0.44349 -0.415697,0.70341 -0.123224,0.13481 -0.572963,0.57046 -0.999421,0.96811 -1.219958,1.13753 -1.567836,1.5519 -1.567836,1.86746 v 0.15508 h -1.136758 c -0.691292,0 -1.13676,-0.0176 -1.13676,-0.0448 z"
       id="path2251"
       inkscape:connector-curvature="0" />
    <path
       style="opacity:1;fill:#006680;fill-opacity:1;fill-rule:nonzero;stroke:none;stroke-width:0.66499996;stroke-linecap:butt;stroke-linejoin:miter;stroke-miterlimit:4;stroke-dasharray:none;stroke-dashoffset:0;stroke-opacity:1;paint-order:stroke fill markers"
       d="m 19.878404,112.42196 c 0,-0.0225 0.367672,-0.34305 0.817047,-0.71247 0.946919,-0.77845 2.235109,-2.03101 2.427149,-2.36004 0.07286,-0.1248 0.15073,-0.32383 0.173061,-0.44227 0.04125,-0.21879 0.151361,-0.38677 0.25353,-0.38677 0.244508,0 0.431368,0.80339 0.545803,2.34662 0.0517,0.6972 0.141865,1.33928 0.212546,1.51357 0.03144,0.0775 -0.09183,0.0822 -2.197914,0.0822 -1.231505,0 -2.231222,-0.0183 -2.231222,-0.0408 z"
       id="path2253"
       inkscape:connector-curvature="0" />
    <path
       style="opacity:1;fill:#006680;fill-opacity:1;fill-rule:nonzero;stroke:none;stroke-width:0.66499996;stroke-linecap:butt;stroke-linejoin:miter;stroke-miterlimit:4;stroke-dasharray:none;stroke-dashoffset:0;stroke-opacity:1;paint-order:stroke fill markers"
       d="m 11.109843,108.95454 c -0.05892,-0.0744 -0.05724,-0.0761 0.0179,-0.0177 0.04559,0.0354 0.08289,0.0724 0.08289,0.0821 0,0.0386 -0.03889,0.0137 -0.100776,-0.0645 z"
       id="path2255"
       inkscape:connector-curvature="0" />
    <path
       style="opacity:1;fill:#006680;fill-opacity:1;fill-rule:nonzero;stroke:none;stroke-width:0.66499996;stroke-linecap:butt;stroke-linejoin:miter;stroke-miterlimit:4;stroke-dasharray:none;stroke-dashoffset:0;stroke-opacity:1;paint-order:stroke fill markers"
       d="m 11.252342,109.28503 c -0.248718,-0.23052 -0.353742,-0.37723 -0.304777,-0.42574 0.03113,-0.0308 0.641969,0.54972 0.641969,0.61015 0,0.085 -0.113607,0.0228 -0.337192,-0.18441 z"
       id="path2257"
       inkscape:connector-curvature="0" />
    <path
       style="opacity:1;fill:#006680;fill-opacity:1;fill-rule:nonzero;stroke:none;stroke-width:0.66499996;stroke-linecap:butt;stroke-linejoin:miter;stroke-miterlimit:4;stroke-dasharray:none;stroke-dashoffset:0;stroke-opacity:1;paint-order:stroke fill markers"
       d="m 19.736311,109.77843 c 0,-0.0768 0.938184,-1.0011 0.976999,-0.96264 0.03756,0.0372 -0.200563,0.32859 -0.592826,0.7254 -0.284286,0.28759 -0.384173,0.34927 -0.384173,0.23724 z"
       id="path2259"
       inkscape:connector-curvature="0" />
    <path
       style="opacity:1;fill:#006680;fill-opacity:1;fill-rule:nonzero;stroke:none;stroke-width:0.66499996;stroke-linecap:butt;stroke-linejoin:miter;stroke-miterlimit:4;stroke-dasharray:none;stroke-dashoffset:0;stroke-opacity:1;paint-order:stroke fill markers"
       d="m 21.015165,110.68086 c 0,-0.0899 0.688713,-0.79941 0.775934,-0.79941 0.0866,0 -0.0074,0.13294 -0.332252,0.46984 -0.344437,0.35723 -0.443682,0.43094 -0.443682,0.32957 z"
       id="path2261"
       inkscape:connector-curvature="0" />
    <path
       style="opacity:1;fill:#ffffff;fill-opacity:1;fill-rule:nonzero;stroke:none;stroke-width:2.51338577;stroke-linecap:butt;stroke-linejoin:miter;stroke-miterlimit:4;stroke-dasharray:none;stroke-dashoffset:0;stroke-opacity:1;paint-order:stroke fill markers"
       d="m 71.768274,95.010001 -0.421089,-0.118503 0.569115,-0.81612 c 0.313013,-0.448867 2.63892,-2.857646 5.168684,-5.352844 4.606652,-4.543712 5.358179,-5.465605 5.356698,-6.571019 -7.26e-4,-0.532298 -0.604533,-1.685817 -0.882456,-1.685817 -0.08943,0 -0.258882,0.387889 -0.376568,0.861977 -0.573433,2.310023 -1.806747,3.905799 -4.70717,6.090582 -1.658147,1.24902 -6.325913,4.128445 -10.274597,6.338136 l -1.814689,1.015504 -5.020832,-0.211914 c -2.761456,-0.116552 -5.076557,-0.267725 -5.144668,-0.335941 -0.234458,-0.234817 0.116425,-0.511112 0.649091,-0.511112 0.293533,0 0.531735,-0.06125 0.529339,-0.136102 -0.0024,-0.07486 -1.492711,-0.89787 -3.311808,-1.82892 C 41.114166,86.131629 40.079915,85.059115 34.120309,73.116206 30.135683,65.131108 27.638742,59.488611 27.638742,58.469391 c 0,-0.408565 -0.232845,-0.768351 -0.971492,-1.50112 -1.650441,-1.637309 -3.666724,-5.624971 -4.838446,-9.569137 -1.043608,-3.512914 -1.044046,-3.789289 -0.01375,-8.671291 0.200103,-0.948176 0.481597,-2.915495 0.625541,-4.37182 0.347766,-3.518441 0.719788,-4.272907 2.478679,-5.0268 1.099119,-0.471102 1.237797,-0.677708 1.567082,-2.334688 0.607149,-3.055205 1.759909,-3.932568 5.81448,-4.425389 2.521702,-0.306506 9.913742,-0.328095 10.891941,-0.03181 0.638751,0.193469 1.2964,0.792331 4.002962,3.645137 1.781252,1.877499 5.163393,5.529521 7.515871,8.115604 7.795868,8.570013 10.300163,11.725182 10.31441,12.995162 0.0035,0.310461 0.197362,0.506289 0.757183,0.76479 1.464858,0.676409 8.179639,7.58099 11.926014,12.263117 2.685612,3.356408 2.966914,4.169891 3.263621,9.437885 0.219169,3.891333 0.395281,4.568582 1.46658,5.639881 1.332638,1.33264 2.492749,1.704536 5.217418,1.672544 l 2.220242,-0.02607 -0.04261,0.848179 -0.04262,0.848177 1.134181,0.05403 1.134181,0.05402 v 7.900362 c 0,6.238095 -0.04771,7.884459 -0.226753,7.824777 -0.27419,-0.0914 -0.36675,-0.703841 -0.761075,-5.03579 -0.461595,-5.070977 -1.091245,-7.818932 -1.859095,-8.113585 -0.501126,-0.192299 -0.816425,0.193684 -1.31723,1.61253 -0.301188,0.853305 -0.769359,1.717296 -1.225832,2.262228 -1.188189,1.418442 -5.010517,5.062464 -7.925249,7.555548 l -2.6993,2.308816 -1.928158,-0.01809 c -1.060486,-0.0099 -2.117648,-0.07142 -2.349248,-0.136592 z m -7.217221,-5.443188 c 6.90207,-3.58904 9.365075,-5.504897 10.844348,-8.43532 0.921448,-1.82538 1.157383,-3.788722 1.508375,-12.552011 l 0.101757,-2.540565 -4.916491,-5.670904 -4.916488,-5.670904 -1.665379,3.63e-4 c -2.066632,5.44e-4 -7.889658,0.305403 -10.557358,0.552805 -1.419078,0.131603 -2.057342,0.266033 -2.207798,0.465 -0.116402,0.153934 -0.68099,2.172243 -1.25464,4.485129 -1.176331,4.742818 -1.364801,6.522792 -0.700712,6.617786 0.574406,0.08217 1.208173,-0.526944 3.015154,-2.897847 1.986341,-2.606236 2.69262,-3.152115 3.869598,-2.990793 1.101335,0.150955 2.359263,0.816596 3.526577,1.866111 l 0.969213,0.871406 -0.130444,4.497109 -0.130445,4.497109 0.841872,1.544436 c 0.898433,1.648234 1.547275,3.330414 1.547275,4.011484 0,1.131268 -0.758916,1.769298 -2.080752,1.749315 -1.404399,-0.02123 -2.452344,-0.96108 -3.591384,-3.220938 -0.878537,-1.743014 -1.042214,-2.660167 -1.042214,-5.839942 0,-1.628717 -0.04519,-2.961301 -0.100416,-2.961301 -0.05523,0 -0.647271,0.438806 -1.31565,0.975125 -0.668379,0.536321 -1.483314,1.111432 -1.810969,1.278026 -1.353328,0.688096 -5.128683,0.665029 -6.493224,-0.03967 -0.909941,-0.469928 -2.10719,-1.718212 -2.607431,-2.718579 l -0.388693,-0.7773 0.834363,-3.215017 c 2.203505,-8.490673 3.363523,-10.92151 5.774828,-12.101252 1.146363,-0.560862 3.8102,-0.808649 8.783858,-0.817058 1.721687,-0.0029 3.130339,-0.07583 3.130339,-0.162037 0,-0.08621 -1.523727,-1.739845 -3.386061,-3.674746 -1.862332,-1.934902 -5.890231,-6.294477 -8.950884,-9.687946 -3.060656,-3.393469 -6.422368,-6.986554 -7.470474,-7.984633 -1.986782,-1.891951 -3.662606,-3.006292 -4.005462,-2.663437 -0.274049,0.27405 0.322906,1.227387 4.234527,6.762535 6.272176,8.875451 7.68087,11.442117 7.027783,12.804738 -0.868338,1.811726 -3.164087,-0.33504 -10.314424,-9.645079 -4.797107,-6.246034 -7.875087,-9.708588 -8.630287,-9.708588 -0.966465,0 0.96229,4.199469 5.042436,10.978871 4.144217,6.88586 5.176387,8.67939 6.164208,10.711129 1.392033,2.863117 1.376739,3.992518 -0.05891,4.350721 -0.961602,0.239924 -2.333803,-1.42156 -7.891057,-9.554619 -5.501002,-8.050735 -6.610455,-9.408814 -7.686325,-9.408814 -0.697142,0 -0.822841,0.444785 -0.442551,1.56596 0.318222,0.938184 3.311623,6.938119 7.048945,14.128817 1.244336,2.394132 2.511291,4.982737 2.815456,5.752456 0.935441,2.367224 0.670691,3.59548 -0.775002,3.59548 -1.493024,0 -2.40988,-1.223982 -7.000605,-9.34565 C 26.5505,44.81665 25.642584,43.628221 25.642584,44.8058 c 0,0.865325 1.353426,3.82022 5.89144,12.862607 2.510813,5.003013 5.326512,10.811267 6.257108,12.907234 4.08706,9.205215 5.275874,10.864409 9.718459,13.563766 2.286739,1.389446 6.142021,3.467516 8.418913,4.537956 2.333733,1.097161 5.278585,2.305984 5.628312,2.310344 0.140573,0.0018 1.48798,-0.637649 2.994237,-1.420894 z m 16.537609,-1.244529 c 1.227383,-1.267849 1.614155,-1.868112 1.203698,-1.868112 -0.224372,0 -2.934971,2.829887 -2.934971,3.064132 0,0.442844 0.43693,0.141 1.731273,-1.19602 z m -5.535267,-2.586613 c 0.345559,-0.295367 0.720365,-0.54035 0.832904,-0.544406 0.253954,-0.0091 0.62866,-0.446523 0.679538,-0.793183 0.02094,-0.142693 0.300126,-0.557899 0.620408,-0.92268 0.548564,-0.62478 0.72775,-1.013546 0.467152,-1.013546 -0.228981,0 -3.514201,3.339322 -3.514201,3.572074 0,0.36392 0.225617,0.290312 0.914199,-0.298259 z M 42.947992,83.860586 c -1.270728,-1.369603 -2.209953,-1.681366 -1.24195,-0.412251 0.603976,0.791855 1.964539,1.820043 2.053849,1.552113 0.03571,-0.107143 -0.32964,-0.620079 -0.811899,-1.139862 z"
       id="path2011"
       inkscape:connector-curvature="0"
       transform="matrix(0.26458333,0,0,0.26458333,0,87)" />
    <path
       style="opacity:1;fill:#ffffff;fill-opacity:1;fill-rule:nonzero;stroke:none;stroke-width:2.51338577;stroke-linecap:butt;stroke-linejoin:miter;stroke-miterlimit:4;stroke-dasharray:none;stroke-dashoffset:0;stroke-opacity:1;paint-order:stroke fill markers"
       d="m 71.692346,95.039979 c -0.293865,-0.07692 -0.295597,-0.122244 -0.02519,-0.659458 0.159696,-0.317271 2.441973,-2.72066 5.071724,-5.340865 2.629752,-2.620204 4.998892,-5.135189 5.264759,-5.588856 0.538861,-0.919496 0.528485,-1.676579 -0.03476,-2.536197 -0.2882,-0.439848 -0.341216,-0.458179 -0.539781,-0.186625 -0.121105,0.165623 -0.275992,0.598574 -0.344194,0.962116 -0.219741,1.171324 -1.021886,2.46495 -2.342884,3.778388 -2.031726,2.0201 -3.707312,3.157899 -10.493241,7.12539 l -3.754861,2.195335 -4.77205,-0.186484 c -2.624627,-0.102567 -4.961588,-0.225249 -5.193246,-0.272628 -0.602023,-0.123127 -0.387204,-0.509567 0.344887,-0.620421 l 0.620717,-0.09399 -1.179548,-0.651671 c -0.648752,-0.358419 -2.771938,-1.486811 -4.718193,-2.50754 -4.469833,-2.344235 -6.249256,-3.522852 -8.085892,-5.355761 -2.206378,-2.201899 -3.692608,-4.6312 -7.498577,-12.25671 -4.289537,-8.59437 -6.092203,-12.655594 -6.464708,-14.564328 -0.05372,-0.275268 -0.497059,-0.90198 -0.985197,-1.392694 -2.020393,-2.031055 -4.511431,-7.601518 -5.383037,-12.037557 l -0.300506,-1.529427 0.651367,-3.248788 c 0.358252,-1.786834 0.740517,-4.228721 0.849477,-5.426416 0.328128,-3.606792 0.690033,-4.394541 2.399624,-5.223204 1.189286,-0.576462 1.434671,-0.949073 1.758804,-2.670695 0.43124,-2.290522 1.448246,-3.32616 3.825394,-3.895481 0.651418,-0.156013 2.965612,-0.376267 5.181954,-0.493194 4.74205,-0.250174 7.588073,-0.07341 8.389592,0.521074 0.636504,0.472093 5.771931,5.891407 10.325987,10.89681 8.14052,8.947316 10.760578,12.222774 10.760578,13.452308 0,0.229155 0.302291,0.530074 0.861977,0.858066 1.704992,0.99917 8.883012,8.412093 11.955039,12.346268 2.540288,3.253205 2.857715,4.177931 3.143625,9.157972 0.218158,3.799903 0.475262,4.804736 1.488675,5.81815 1.23899,1.23899 2.042166,1.495554 4.923972,1.572894 l 2.502439,0.06716 -0.05261,0.844411 -0.05261,0.844412 1.134181,0.05403 1.134181,0.05402 v 7.88524 c 0,7.224446 -0.06304,8.335832 -0.438353,7.728557 -0.05326,-0.08618 -0.223163,-1.453998 -0.377564,-3.039604 -0.75051,-7.707284 -1.282958,-10.050946 -2.283442,-10.050946 -0.379159,0 -0.630662,0.457732 -1.346073,2.449831 -0.271348,0.755587 -0.829795,1.41061 -3.338908,3.916333 -1.657184,1.654945 -4.177967,4.002699 -5.601739,5.217232 l -2.588678,2.208243 -2.03878,-0.02105 c -1.121329,-0.01158 -2.180778,-0.05822 -2.354331,-0.103652 z m -8.564521,-4.747608 c 1.971715,-0.9535 5.887909,-3.152852 7.411496,-4.162333 1.707287,-1.131194 3.474187,-2.813837 4.314506,-4.108765 1.327785,-2.046111 1.619405,-3.787636 1.960559,-11.70824 l 0.183268,-4.254922 -0.4234,-0.46327 c -0.232868,-0.254797 -2.449593,-2.811023 -4.926052,-5.6805 l -4.502655,-5.217232 -1.379673,0.0011 c -3.11794,0.0026 -12.156256,0.588832 -12.782073,0.828981 -0.282874,0.108547 -1.057031,2.730454 -1.942703,6.579506 -0.71326,3.099767 -0.835904,4.244141 -0.485976,4.534557 0.507235,0.420966 1.209832,-0.164763 3.148183,-2.624531 2.000209,-2.538264 2.722099,-3.149833 3.717761,-3.1496 0.892684,1.81e-4 2.738174,0.940061 3.81428,1.942498 l 0.934073,0.870127 -0.119527,4.464874 -0.119524,4.464873 1.080459,2.111797 c 0.594252,1.161487 1.135841,2.481107 1.203529,2.932486 0.231006,1.54046 -0.456848,2.335995 -1.999641,2.312671 -1.42268,-0.02151 -2.448693,-0.955318 -3.636822,-3.310001 -0.811725,-1.608711 -0.868942,-1.925346 -0.980834,-5.427789 l -0.106677,-3.339137 -1.179548,0.957826 c -0.648751,0.526804 -1.618282,1.16217 -2.154514,1.411924 -0.866995,0.403809 -1.20293,0.452735 -3.033514,0.441792 -1.680531,-0.01005 -2.217957,-0.0826 -2.926617,-0.395112 -1.095192,-0.482964 -2.310067,-1.652034 -2.886488,-2.777658 l -0.445381,-0.86973 0.923544,-3.576259 c 2.123847,-8.224196 3.372727,-10.735842 5.892467,-11.850442 0.978303,-0.432751 3.955731,-0.701031 7.987678,-0.71973 1.696735,-0.0079 3.218423,-0.06981 3.381529,-0.137655 0.233891,-0.09728 -0.103552,-0.545142 -1.596967,-2.119504 C 57.939619,44.551593 53.318477,39.561941 50.69631,36.64095 44.578301,29.825725 41.804059,27.115973 40.302185,26.488451 c -1.09443,-0.457282 -1.064919,-0.149323 0.170799,1.782427 0.439006,0.68628 1.965838,2.891127 3.392963,4.899661 6.14512,8.648634 7.75244,11.646666 6.92286,12.912766 -0.419306,0.639941 -1.002295,0.562949 -2.126814,-0.280871 -1.497025,-1.123339 -3.414284,-3.37554 -8.764991,-10.296208 -4.30852,-5.572688 -7.325021,-8.936802 -8.013366,-8.936802 -1.058456,0 0.860809,3.936569 6.547134,13.428701 1.763822,2.944334 3.742964,6.425467 4.398093,7.73585 1.688365,3.377057 1.735808,4.495884 0.206822,4.877395 -0.977662,0.243947 -2.173463,-1.208895 -8.141224,-9.891211 -5.39162,-7.844105 -6.45869,-9.14786 -7.398458,-9.039492 -0.457885,0.0528 -0.491712,0.115463 -0.482554,0.893927 0.01077,0.91577 1.625581,4.301173 6.785094,14.224774 1.401097,2.694814 2.793165,5.5299 3.093485,6.300192 0.900567,2.309863 0.661441,3.589865 -0.670648,3.589865 -1.520814,0 -2.41798,-1.107285 -6.04639,-7.462474 -3.487469,-6.10833 -4.532406,-7.620953 -4.532406,-6.560991 0,0.866053 1.111895,3.318001 5.610264,12.371742 2.658109,5.349901 5.841018,11.946197 7.073131,14.658437 2.595231,5.712861 3.668597,7.62497 5.225571,9.30891 1.762758,1.906507 4.741076,3.793535 10.763126,6.819397 2.689181,1.351216 6.774112,3.150366 7.177622,3.161281 0.105087,0.0029 0.841074,-0.309168 1.635527,-0.693356 z m 17.92205,-2.002669 c 1.287312,-1.322836 1.632293,-1.83553 1.235094,-1.83553 -0.216373,0 -2.92758,2.855124 -2.92758,3.082983 0,0.390355 0.348943,0.133164 1.692486,-1.247453 z m -5.503334,-2.561405 c 0.378052,-0.299424 0.777052,-0.544407 0.886663,-0.544407 0.109612,0 0.342844,-0.277835 0.518293,-0.617408 0.17545,-0.339574 0.554954,-0.913424 0.843344,-1.275222 0.288391,-0.361797 0.469564,-0.712596 0.402607,-0.779553 -0.145024,-0.145023 -3.558252,3.270225 -3.558252,3.560359 0,0.308056 0.161702,0.246792 0.907345,-0.343769 z m -31.91832,-1.051049 c -0.237881,-0.44448 -1.95433,-2.033923 -2.19645,-2.033923 -0.38526,0 0.376013,0.99795 1.418919,1.860056 0.702225,0.580487 1.034968,0.654894 0.777531,0.173867 z"
       id="path2013"
       inkscape:connector-curvature="0"
       transform="matrix(0.26458333,0,0,0.26458333,0,87)" />
    <path
       style="opacity:1;fill:#ffffff;fill-opacity:1;fill-rule:nonzero;stroke:none;stroke-width:2.51338577;stroke-linecap:butt;stroke-linejoin:miter;stroke-miterlimit:4;stroke-dasharray:none;stroke-dashoffset:0;stroke-opacity:1;paint-order:stroke fill markers"
       d="m 71.602287,95.045396 c -0.495572,-0.200387 0.530054,-1.407467 5.295287,-6.232128 4.577314,-4.634397 5.544787,-5.78824 5.544787,-6.612904 0,-0.438093 -0.714739,-1.76297 -0.891984,-1.653426 -0.0837,0.05173 -0.247591,0.472929 -0.364192,0.935995 -0.834274,3.313203 -3.560667,5.671092 -12.756382,11.032209 l -3.94103,2.297629 -5.132417,-0.232351 c -4.3379,-0.19638 -5.132415,-0.274486 -5.132415,-0.504552 0,-0.16205 0.201948,-0.295441 0.49904,-0.329624 0.274472,-0.03158 0.499039,-0.116204 0.499039,-0.188049 0,-0.07185 -1.38782,-0.852278 -3.084044,-1.734293 C 43.380951,87.27036 41.448782,85.812213 38.797075,81.755953 35.967855,77.428154 28.255966,61.534337 27.630008,58.741186 27.491352,58.122475 27.201774,57.637319 26.574793,56.973295 24.46363,54.7374 21.765351,48.609811 21.097532,44.534848 c -0.21276,-1.298239 -0.193145,-1.511683 0.425238,-4.627457 0.356558,-1.796543 0.738623,-4.205543 0.849035,-5.353334 0.333856,-3.470619 0.708732,-4.280316 2.390123,-5.16244 1.225425,-0.642906 1.354639,-0.830464 1.69859,-2.465546 0.719779,-3.421714 2.027362,-4.140347 8.280365,-4.550796 3.675142,-0.241238 7.818524,-0.11999 8.710955,0.254909 0.687731,0.288907 3.161663,2.804191 8.877667,9.026059 9.068527,9.871085 12.685107,14.248458 12.694616,15.365086 0.0039,0.459381 0.135474,0.599039 1.307927,1.388427 2.116508,1.425002 10.552179,10.4535 12.656647,13.54611 1.458937,2.143974 1.740788,3.200357 1.999755,7.495135 0.261191,4.331695 0.366894,4.721597 1.609517,5.936989 0.588315,0.575423 1.332758,1.105149 1.749817,1.245122 0.399232,0.133991 1.803793,0.284697 3.121244,0.334901 l 2.395368,0.09128 0.05446,0.841223 0.05446,0.841225 1.043447,0.05442 1.043446,0.05442 v 7.884841 c 0,7.213096 -0.06329,8.335024 -0.436168,7.731696 -0.05206,-0.08423 -0.303463,-2.124778 -0.558681,-4.534549 -0.511862,-4.833015 -0.867822,-6.851973 -1.389143,-7.879027 -0.559289,-1.101856 -1.13544,-0.797714 -1.684269,0.889103 -0.167224,0.51396 -0.545842,1.299519 -0.841372,1.74569 -0.690388,1.042294 -5.357157,5.600124 -8.544303,8.344847 l -2.475066,2.13149 -2.152392,-0.01434 c -1.183816,-0.0079 -2.253256,-0.05511 -2.376533,-0.104958 z m -7.458009,-5.300245 c 8.524565,-4.3826 11.263604,-6.954114 12.017285,-11.282288 0.273806,-1.572381 0.595672,-6.347155 0.691994,-10.265467 l 0.054,-2.196776 -4.891542,-5.651756 -4.891543,-5.651755 -1.187667,9.07e-4 c -3.425883,0.0027 -12.382694,0.633619 -12.89616,0.908417 -0.421725,0.2257 -1.737429,4.940434 -2.450753,8.782093 -0.298487,1.60753 -0.205586,2.466976 0.266667,2.466976 0.360815,0 1.518543,-1.191011 3.028203,-3.115257 1.722358,-2.195357 2.550969,-2.87329 3.511642,-2.873074 0.914932,1.81e-4 2.751617,0.929592 3.838828,1.942497 l 0.933959,0.870128 -0.104771,4.456477 -0.104769,4.456476 1.067276,2.129932 c 0.587004,1.171462 1.122003,2.494859 1.188889,2.940884 0.229582,1.530959 -0.511846,2.374893 -2.034655,2.315959 -1.522483,-0.05892 -2.509801,-1.042782 -3.838253,-3.824803 L 57.67185,74.749426 57.60918,71.437618 C 57.5717,69.45714 57.475592,68.12581 57.370104,68.12581 c -0.09702,0 -0.640444,0.379936 -1.207609,0.844302 -0.567163,0.464367 -1.47895,1.050689 -2.026189,1.302938 -0.886188,0.408487 -1.216748,0.456796 -3.023053,0.441795 -1.64985,-0.0137 -2.191907,-0.08905 -2.906599,-0.404051 -1.116244,-0.491982 -2.43813,-1.78507 -2.956744,-2.892334 l -0.402402,-0.859144 0.930163,-3.502284 c 1.776629,-6.689425 2.676619,-9.006669 4.081359,-10.50845 1.515024,-1.619685 3.217876,-2.000452 9.083107,-2.031035 1.596926,-0.0083 3.230147,-0.07383 3.629378,-0.145562 l 0.725876,-0.130419 -2.812769,-2.971592 C 56.836838,43.41622 55.486321,41.952564 50.430295,36.37335 c -2.304142,-2.542569 -5.006329,-5.449556 -6.004858,-6.459969 -2.665748,-2.697476 -4.809745,-4.156489 -4.809745,-3.273083 0,0.319971 1.592045,2.74705 4.536348,6.91568 4.720214,6.683016 6.570426,9.767567 6.834312,11.393714 0.129255,0.796509 -0.298344,1.581315 -0.861574,1.581315 -1.324609,0 -3.309143,-2.101665 -9.474076,-10.033255 -5.269795,-6.779937 -8.0616,-9.928328 -8.803848,-9.928328 -0.904624,0 1.376915,4.68218 6.32249,12.975029 4.115664,6.901234 5.813102,10.181147 5.937156,11.472199 0.07837,0.815648 0.0397,0.936971 -0.41194,1.292229 -0.779728,0.613336 -1.149538,0.496432 -2.347573,-0.742111 -1.089926,-1.126779 -2.774759,-3.4491 -7.800551,-10.752035 -4.175727,-6.067714 -5.428432,-7.460399 -6.381557,-7.09465 -0.74943,0.287583 0.292893,2.805871 4.551357,10.996232 5.005076,9.62633 5.721829,11.199247 5.721829,12.556578 0,0.974911 -0.396428,1.41653 -1.271572,1.41653 -1.477626,0 -2.424779,-1.186035 -6.159052,-7.712429 -3.333532,-5.826019 -4.364857,-7.304237 -4.364857,-6.256236 0,0.740366 1.45603,3.929347 5.578797,12.218623 2.340246,4.70532 5.196119,10.596653 6.346384,13.091851 3.573179,7.751073 4.455131,9.345414 6.207984,11.222447 1.501718,1.608103 6.091551,4.405666 11.649223,7.100357 2.488942,1.206786 5.71162,2.59506 6.086237,2.621845 0.115491,0.0083 1.30037,-0.545572 2.633069,-1.230732 z m 17.086306,-1.650296 c 1.220006,-1.293271 1.534254,-1.826037 0.866183,-1.468496 -0.40414,0.216289 -2.739378,2.737379 -2.739378,2.957392 0,0.310599 0.702049,-0.24742 1.873195,-1.488896 z m -5.690897,-2.373933 c 0.345557,-0.295368 0.719648,-0.537032 0.831313,-0.537032 0.111663,0 0.31518,-0.224568 0.45226,-0.49904 0.137078,-0.274472 0.385052,-0.662361 0.551054,-0.861977 0.166001,-0.199616 0.455535,-0.607921 0.643407,-0.907345 l 0.341589,-0.544407 -0.763573,0.598948 c -0.855553,0.671097 -2.956541,2.907722 -2.956541,3.14741 0,0.268731 0.251972,0.157769 0.900491,-0.396557 z M 43.619434,84.660831 c -0.100547,-0.187873 -0.611131,-0.726683 -1.134629,-1.197354 -1.307751,-1.175781 -1.393344,-0.674331 -0.09746,0.570976 1.033393,0.993063 1.575955,1.268894 1.232091,0.626378 z"
       id="path2015"
       inkscape:connector-curvature="0"
       transform="matrix(0.26458333,0,0,0.26458333,0,87)" />
    <path
       style="opacity:1;fill:#ffffff;fill-opacity:1;fill-rule:nonzero;stroke:none;stroke-width:2.51338577;stroke-linecap:butt;stroke-linejoin:miter;stroke-miterlimit:4;stroke-dasharray:none;stroke-dashoffset:0;stroke-opacity:1;paint-order:stroke fill markers"
       d="m 71.573874,94.999196 c -0.410439,-0.259905 0.220717,-0.993432 5.324723,-6.188386 2.928245,-2.980423 4.895165,-5.129964 5.168653,-5.648544 0.438352,-0.831197 0.439216,-0.843134 0.121092,-1.676129 -0.176224,-0.461434 -0.42645,-0.838971 -0.556057,-0.838971 -0.129609,0 -0.330703,0.377483 -0.446876,0.838851 -0.832226,3.305063 -3.527475,5.638191 -12.751401,11.03818 l -3.936829,2.304747 -5.045884,-0.216905 c -2.775237,-0.119297 -5.116347,-0.281625 -5.202469,-0.360725 -0.26011,-0.238913 0.05646,-0.538384 0.569118,-0.538384 0.41663,0 0.445883,-0.03375 0.216127,-0.249362 C 54.887923,93.326419 53.012636,92.292616 50.866766,91.166229 45.277568,88.23241 43.649574,87.187114 41.690889,85.274624 39.797166,83.425565 38.436377,81.452667 36.246139,77.380726 33.25478,71.819392 28.713793,62.122573 27.801491,59.348029 27.381426,58.070506 27.094655,57.543137 26.412017,56.792794 24.41791,54.600914 21.97823,49.09821 21.164598,44.957227 20.864733,43.43106 20.867023,43.34935 21.26998,41.198595 c 0.777003,-4.147199 0.906784,-4.956669 1.10132,-6.869125 0.336255,-3.305687 0.754722,-4.146912 2.497387,-5.020381 0.967372,-0.484873 1.231565,-0.891383 1.593457,-2.451827 0.771161,-3.325184 2.054786,-4.051477 7.924013,-4.483517 3.486763,-0.256664 8.155032,-0.130448 9.045584,0.244566 0.87681,0.369227 7.083527,6.868515 14.434104,15.114493 4.77893,5.36107 6.91949,8.125946 7.145096,9.229028 0.08195,0.400705 0.34823,0.717009 0.924726,1.098459 1.768155,1.169936 8.60895,8.24047 11.710936,12.104232 2.627483,3.272736 3.027985,4.378246 3.349485,9.245632 0.284432,4.306216 0.498214,5.060134 1.745353,6.155137 1.195891,1.050007 2.005285,1.291522 4.708067,1.404844 l 2.433079,0.102013 v 0.770014 c 0,0.878983 0.154675,0.990314 1.375859,0.990314 h 0.801768 v 7.893899 c 0,7.27706 -0.06195,8.346257 -0.447417,7.72255 -0.05825,-0.09424 -0.311773,-2.115353 -0.563394,-4.491356 -0.61755,-5.83137 -1.133714,-8.212253 -1.839059,-8.48292 -0.437079,-0.167722 -0.718167,0.183836 -1.24104,1.552178 -0.26572,0.695384 -0.789078,1.648934 -1.163017,2.119002 -0.957143,1.203203 -5.472511,5.555773 -8.268581,7.97047 l -2.356024,2.034669 -2.177627,0.0041 c -1.197695,0.0022 -2.291276,-0.06789 -2.430181,-0.155851 z M 64.261752,89.63733 c 5.176737,-2.629275 8.355882,-4.783959 9.852959,-6.677903 1.541642,-1.950324 2.038029,-3.47916 2.341592,-7.211922 0.262691,-3.230178 0.50121,-9.472344 0.371901,-9.732783 -0.05616,-0.113115 -2.266132,-2.713409 -4.911042,-5.77843 l -4.808926,-5.572764 -3.084972,0.116146 c -3.52457,0.132695 -10.067251,0.589777 -10.694103,0.747107 -0.231383,0.05807 -0.520416,0.323875 -0.642294,0.590671 -0.493754,1.080847 -2.034517,7.627591 -2.132135,9.059488 -0.10183,1.493705 -0.101055,1.497118 0.340359,1.497118 0.519836,0 1.124799,-0.604707 3.203834,-3.202476 1.599776,-1.998933 2.372373,-2.604607 3.322141,-2.604386 0.893855,1.81e-4 2.739617,0.940967 3.811169,1.942498 l 0.930961,0.870127 -0.08191,4.444479 -0.08191,4.444479 1.080895,2.235995 c 0.594492,1.229799 1.120206,2.584767 1.168253,3.011043 0.126177,1.119435 -0.303127,1.857685 -1.224558,2.1058 -1.555422,0.418832 -2.916659,-0.434215 -4.133503,-2.590343 -1.083485,-1.919831 -1.307993,-2.919661 -1.322108,-5.887931 -0.007,-1.475315 -0.07042,-2.828394 -0.140889,-3.006842 -0.112385,-0.284572 -0.261373,-0.220111 -1.21216,0.524458 -0.596214,0.4669 -1.533162,1.058868 -2.082105,1.315483 -0.893464,0.417672 -1.208257,0.464725 -3.003293,0.44892 -1.641809,-0.01446 -2.174647,-0.09054 -2.940123,-0.419843 -1.012967,-0.435767 -2.440512,-1.819834 -3.02724,-2.935041 l -0.349656,-0.664595 0.784296,-3.055518 c 1.670591,-6.50842 2.85763,-9.600572 4.261836,-11.101783 1.490682,-1.59366 3.226634,-2.004384 8.629434,-2.041716 1.547023,-0.01069 3.261904,-0.07261 3.810848,-0.137592 l 0.998079,-0.118154 -3.381196,-3.571594 c -1.85966,-1.964375 -5.784281,-6.210748 -8.721381,-9.436384 -6.223069,-6.834409 -8.474538,-9.11795 -9.983145,-10.12536 -1.124244,-0.750741 -1.595992,-0.89942 -1.59595,-0.502991 3.6e-5,0.320212 1.435911,2.522866 4.147156,6.361791 4.990026,7.065517 6.965156,10.336367 7.223988,11.963057 0.133424,0.838526 -0.296972,1.591368 -0.909776,1.591368 -1.23308,0 -3.276454,-2.130475 -8.612857,-8.979983 -6.835143,-8.773209 -9.418702,-11.618463 -9.754725,-10.742804 -0.293219,0.764118 1.806865,4.86646 6.70577,13.099171 3.772838,6.340332 5.569764,9.845172 5.690196,11.098524 0.07954,0.827774 0.04204,0.946678 -0.410908,1.302966 -0.274139,0.215638 -0.652569,0.39207 -0.840954,0.39207 -0.875328,0 -2.610576,-2.150643 -7.686958,-9.52712 -3.858542,-5.606835 -5.540313,-7.869767 -6.51936,-8.77222 -1.511648,-1.393389 -2.086871,-0.792211 -1.283699,1.341621 0.260195,0.691272 2.432886,5.116156 4.828204,9.833072 2.395318,4.716919 4.555632,9.108917 4.800697,9.759998 0.802901,2.13311 0.508884,3.353813 -0.807466,3.352445 -1.3943,-0.0015 -2.40792,-1.165303 -5.135854,-5.897062 -3.940724,-6.835416 -5.023605,-8.510303 -5.316639,-8.223225 -0.34131,0.334373 1.519048,4.458819 6.451207,14.302434 1.625289,3.243758 4.20127,8.577612 5.724402,11.85301 3.091984,6.649113 3.906667,8.168407 5.259698,9.808748 1.649289,1.99951 5.206922,4.297344 11.419041,7.375426 2.574749,1.275779 6.603139,3.06008 6.952839,3.079629 0.03136,0.0018 1.256275,-0.605915 2.722034,-1.350377 z m 16.892401,-1.477587 c 1.28981,-1.381117 1.599354,-1.88486 0.942061,-1.533088 -0.389948,0.208693 -2.557356,2.559601 -2.557356,2.773869 0,0.359034 0.428972,0.02952 1.615295,-1.240781 z m -5.108572,-2.833685 c 0.523991,-0.383912 0.952712,-0.781897 0.952712,-0.884409 0,-0.102512 0.258624,-0.508211 0.574721,-0.90155 1.096023,-1.363854 0.333939,-0.939423 -1.295848,0.721702 -2.148293,2.189602 -2.220512,2.521487 -0.231585,1.064257 z m -32.73367,-0.996611 c -0.497553,-0.666419 -1.670801,-1.594402 -1.823164,-1.442039 -0.06861,0.06861 0.345383,0.580109 0.919988,1.136659 1.05712,1.023901 1.568797,1.196908 0.903176,0.30538 z"
       id="path2017"
       inkscape:connector-curvature="0"
       transform="matrix(0.26458333,0,0,0.26458333,0,87)" />
    <path
       style="opacity:1;fill:#ffffff;fill-opacity:1;fill-rule:nonzero;stroke:none;stroke-width:2.51338577;stroke-linecap:butt;stroke-linejoin:miter;stroke-miterlimit:4;stroke-dasharray:none;stroke-dashoffset:0;stroke-opacity:1;paint-order:stroke fill markers"
       d="m 71.462724,94.981975 c -0.200167,-0.323881 0.628815,-1.279672 4.80005,-5.534295 6.203381,-6.327397 6.506334,-6.741014 5.878584,-8.025873 -0.183775,-0.376149 -0.404452,-0.683906 -0.490391,-0.683906 -0.08594,0 -0.33698,0.499125 -0.557872,1.109167 -0.622449,1.719043 -1.245054,2.637292 -2.725788,4.020134 -1.958961,1.829454 -6.435311,4.745912 -12.861471,8.379582 l -1.057995,0.598241 -4.839745,-0.20991 c -2.661861,-0.115452 -5.029287,-0.250694 -5.260945,-0.300538 -0.551716,-0.11871 -0.411382,-0.514967 0.208356,-0.588333 0.266774,-0.03158 0.485044,-0.123542 0.485044,-0.204356 0,-0.08081 -1.286161,-0.825264 -2.858135,-1.654334 C 45.189449,88.199414 43.537071,87.15175 41.499873,85.114463 39.095729,82.710214 37.178316,79.526525 33.071575,71.120047 30.446304,65.74613 28.24021,60.816225 27.636999,58.975531 27.373373,58.171079 26.984236,57.453047 26.555183,56.979373 25.1812,55.462496 23.927477,53.214865 22.664777,50.004787 c -0.787766,-2.002686 -1.740693,-5.577236 -1.73965,-6.525649 4.04e-4,-0.367534 0.246746,-1.917469 0.547427,-3.444302 0.300681,-1.526831 0.670225,-3.85417 0.82121,-5.171864 0.449229,-3.920569 0.872189,-4.814065 2.659429,-5.617999 0.85533,-0.384743 1.141783,-0.838142 1.492191,-2.361848 0.680644,-2.959691 1.758151,-3.798843 5.548613,-4.321208 2.362075,-0.325519 10.380366,-0.340536 11.281214,-0.02113 0.765969,0.271585 3.589697,3.1099 9.42724,9.475944 5.359614,5.844845 7.38612,8.136375 9.429634,10.662836 2.016028,2.492478 2.684383,3.479248 2.910003,4.296373 0.105055,0.380479 0.493583,0.804321 1.226678,1.338174 2.109102,1.535888 9.009128,8.77869 11.872409,12.462203 2.239686,2.88128 2.559833,3.947648 3.005231,10.010039 0.199831,2.719974 0.391189,3.419455 1.196847,4.374933 1.119526,1.327712 2.809219,1.837654 6.13295,1.850894 l 1.406384,0.0056 v 0.719491 c 0,0.848284 0.32461,1.095198 1.439822,1.095198 h 0.737805 v 7.984633 c 0,7.286043 -0.06337,8.434694 -0.432359,7.837649 -0.04996,-0.08084 -0.220045,-1.326171 -0.37796,-2.767401 -0.827571,-7.552942 -1.149584,-9.336557 -1.826209,-10.115242 -0.377283,-0.434194 -0.455813,-0.458901 -0.691619,-0.217605 -0.146308,0.149712 -0.530238,0.925492 -0.853182,1.723955 -0.566744,1.401252 -0.698338,1.562634 -3.783088,4.639411 -1.757757,1.753213 -4.257516,4.099255 -5.555019,5.213427 l -2.359096,2.025765 -2.303018,0.0038 c -1.354279,0.0022 -2.349538,-0.07146 -2.41594,-0.178901 z m -7.686414,-5.09083 c 6.486906,-3.254039 10.143763,-6.000682 11.387918,-8.553399 1.040494,-2.134849 1.369686,-4.547159 1.59368,-11.678413 l 0.11428,-3.638341 -2.341412,-2.715777 c -8.154454,-9.458263 -7.344483,-8.603021 -8.148416,-8.603869 -3.548616,-0.0037 -12.781382,0.687884 -13.261322,0.993412 -0.241469,0.153717 -0.517411,0.718916 -0.76747,1.571973 -0.824805,2.813748 -1.684636,6.653264 -1.791751,8.000943 -0.0994,1.250648 -0.07734,1.406384 0.199247,1.406384 0.602016,0 1.027406,-0.395542 2.91869,-2.713887 2.032572,-2.491538 2.760355,-3.093204 3.741312,-3.092975 0.892082,1.81e-4 2.73912,0.940399 3.803687,1.936179 l 0.923481,0.863807 -0.04248,4.543042 -0.04248,4.543044 1.051709,2.129178 c 1.577827,3.194302 1.56402,4.564792 -0.05086,5.04862 -1.557299,0.466579 -2.999961,-0.468874 -4.276638,-2.773063 -0.977437,-1.764112 -1.20636,-2.791311 -1.20636,-5.413067 0,-2.305011 -0.116257,-3.437657 -0.352847,-3.437657 -0.06931,0 -0.56948,0.336294 -1.111497,0.747322 -0.542019,0.411027 -1.434623,0.960213 -1.983566,1.220415 -0.871594,0.413139 -1.228053,0.472537 -2.812769,0.468699 -2.384599,-0.0058 -3.325872,-0.284409 -4.487957,-1.328525 -0.991679,-0.891007 -1.95419,-2.249414 -1.95419,-2.757977 0,-0.461841 1.556971,-6.323525 2.277051,-8.572638 1.28278,-4.006673 2.58889,-6.022909 4.408766,-6.805798 1.142252,-0.491386 3.324799,-0.75036 6.556655,-0.777994 1.449832,-0.01239 3.207687,-0.07364 3.906342,-0.136102 L 63.297388,50.25112 61.30123,48.157103 c -3.140329,-3.29428 -6.189421,-6.58202 -11.100963,-11.969826 -2.502094,-2.744717 -5.407872,-5.823278 -6.457287,-6.841246 -2.414466,-2.342116 -4.127288,-3.472193 -4.127288,-2.72308 0,0.28504 1.526849,2.585147 5.101645,7.685323 5.500431,7.847488 6.886519,10.531107 6.077248,11.766211 -0.760313,1.160385 -2.208711,0.202948 -5.348908,-3.535795 -0.964037,-1.147791 -3.057136,-3.760943 -4.651333,-5.807006 -7.554691,-9.696026 -10.230893,-12.253804 -8.625038,-8.243371 0.750459,1.874182 2.474659,5.018109 6.197638,11.300845 3.795808,6.405639 5.618859,9.971386 5.739393,11.22581 0.07856,0.81755 0.04007,0.938492 -0.411777,1.293913 -0.274139,0.215638 -0.650508,0.39207 -0.836377,0.39207 -0.880186,0 -2.533085,-2.044674 -7.774996,-9.617854 -5.113667,-7.387901 -6.098919,-8.656065 -7.14545,-9.197247 -0.49752,-0.257278 -0.563953,-0.255705 -0.764164,0.0181 -0.153258,0.209594 -0.171928,0.530152 -0.06201,1.064765 0.08649,0.42069 2.292123,5.007436 4.901401,10.192768 2.609277,5.185334 4.897358,9.873212 5.084623,10.417506 0.423241,1.230172 0.439244,2.337587 0.04015,2.778578 -0.397458,0.439186 -1.443793,0.428856 -2.182466,-0.02155 -0.72574,-0.442515 -2.162263,-2.476274 -3.980269,-5.635067 -3.88264,-6.746103 -4.961472,-8.415058 -5.252144,-8.125081 -0.268581,0.26794 0.788003,2.626594 5.224892,11.663725 2.499097,5.090203 5.681544,11.704746 7.072105,14.698983 3.772872,8.123971 4.725116,9.626329 7.350272,11.59654 3.028557,2.27297 9.831388,5.910355 14.749155,7.886179 1.500835,0.602996 1.356349,0.623941 3.657029,-0.530152 z M 81.245163,88.04465 c 1.050099,-1.177164 1.254959,-1.54981 0.68402,-1.244253 -0.348214,0.186358 -2.390325,2.439142 -2.390325,2.63692 0,0.283318 0.776828,-0.35072 1.706305,-1.392667 z m -5.108848,-2.774238 c 0.37428,-0.249706 0.680509,-0.522906 0.680509,-0.607109 0,-0.0842 0.293827,-0.537912 0.652948,-1.00824 0.359124,-0.470328 0.616998,-0.891094 0.573058,-0.935037 -0.108134,-0.108132 -3.403634,3.208197 -3.403634,3.425146 0,0.09449 0.183738,0.03848 0.408305,-0.124473 0.224568,-0.16295 0.714534,-0.500578 1.088814,-0.750287 z M 43.263949,84.303058 c -0.427869,-0.600887 -1.63005,-1.560804 -1.774195,-1.416657 -0.130089,0.130087 1.679924,1.934551 1.940502,1.934551 0.111357,0 0.03652,-0.233052 -0.166307,-0.517894 z"
       id="path2019"
       inkscape:connector-curvature="0"
       transform="matrix(0.26458333,0,0,0.26458333,0,87)" />
    <path
       style="opacity:1;fill:#ffffff;fill-opacity:1;fill-rule:nonzero;stroke:none;stroke-width:2.51338577;stroke-linecap:butt;stroke-linejoin:miter;stroke-miterlimit:4;stroke-dasharray:none;stroke-dashoffset:0;stroke-opacity:1;paint-order:stroke fill markers"
       d="m 71.462724,94.981975 c -0.198265,-0.320801 0.619708,-1.265922 4.756976,-5.496415 4.247732,-4.343446 5.778425,-6.060373 6.057566,-6.794567 0.125491,-0.330067 0.07286,-0.656716 -0.207581,-1.288368 -0.428851,-0.965924 -0.491766,-0.920018 -1.079227,0.787468 -0.995665,2.893951 -4.093126,5.440056 -12.778772,10.504117 -3.290989,1.918773 -3.695235,2.107533 -4.513462,2.107533 -1.505022,0 -8.901648,-0.368941 -9.351073,-0.466427 -0.551567,-0.119645 -0.411484,-0.515695 0.208356,-0.589072 0.266774,-0.03158 0.485044,-0.114699 0.485044,-0.184708 0,-0.07001 -1.367822,-0.855176 -3.039604,-1.744822 -7.132018,-3.795329 -8.424973,-4.626649 -10.570865,-6.796656 -2.480991,-2.50887 -4.187472,-5.350223 -8.437594,-14.048895 -2.77438,-5.678286 -4.41735,-9.338428 -5.207798,-11.601717 -0.361863,-1.036124 -0.78767,-1.856311 -1.224744,-2.359096 -1.479981,-1.702491 -2.896194,-4.289089 -4.072703,-7.438465 -0.754999,-2.021043 -1.562612,-5.188545 -1.561897,-6.12585 2.66e-4,-0.349328 0.24767,-1.941718 0.549787,-3.538644 0.302116,-1.596927 0.669271,-3.923795 0.815899,-5.170819 0.445896,-3.792205 0.845086,-4.619873 2.671779,-5.539572 0.823655,-0.414692 1.099667,-0.911846 1.666616,-3.001915 0.519532,-1.915266 1.442229,-2.765543 3.61532,-3.331561 2.669992,-0.695445 12.072341,-0.865514 13.278583,-0.240182 0.884113,0.458334 8.182013,8.134705 14.709333,15.472156 3.955443,4.446372 6.429598,7.619684 6.788304,8.706576 0.148923,0.451237 0.584089,0.941764 1.44454,1.628303 1.489533,1.188474 5.342792,5.037367 7.938513,7.929515 4.277889,4.76642 5.83801,7.078913 6.223874,9.225353 0.09868,0.548943 0.300716,2.467977 0.448962,4.26452 0.148247,1.796542 0.372174,3.593085 0.497618,3.992316 0.267079,0.849994 1.397992,2.049482 2.363432,2.50674 0.738891,0.349961 3.01192,0.665406 4.8105,0.667589 l 1.134181,0.0014 0.0028,0.589774 c 0.0041,0.875201 0.224245,1.083663 1.248162,1.182049 l 0.926687,0.08904 v 7.961544 c 0,7.275593 -0.0632,8.411868 -0.43448,7.811129 -0.05113,-0.08273 -0.303734,-2.022177 -0.561343,-4.309887 -0.522357,-4.638799 -0.708845,-5.863582 -1.12246,-7.371854 -0.293965,-1.071964 -0.74021,-1.671316 -1.08053,-1.451262 -0.107955,0.06981 -0.567809,0.902701 -1.021893,1.850876 -0.7953,1.660664 -0.94117,1.837479 -3.973357,4.81621 -1.731259,1.700739 -4.167829,3.966832 -5.414597,5.035762 l -2.26685,1.943509 h -2.304528 c -1.351019,0 -2.351252,-0.0756 -2.41745,-0.182706 z m -6.905208,-5.51289 c 4.950345,-2.59135 7.204588,-4.113834 9.11518,-6.156263 2.292632,-2.450829 2.766404,-4.554328 3.074658,-13.651132 l 0.123208,-3.635984 -4.62795,-5.346728 c -2.54537,-2.9407 -4.798472,-5.498068 -5.006891,-5.683037 -0.360448,-0.319893 -0.580982,-0.326151 -4.517736,-0.128177 -4.321334,0.217313 -7.831731,0.47516 -8.997016,0.660852 -0.856157,0.136432 -1.022358,0.438614 -1.758644,3.197555 -1.297229,4.860841 -1.755518,7.947887 -1.179909,7.947887 0.533636,0 1.135462,-0.56781 2.827465,-2.667665 1.965425,-2.439181 2.811282,-3.13934 3.792612,-3.13934 0.877958,0 2.938742,1.045963 3.944104,2.001851 l 0.771243,0.733292 v 4.606817 4.606818 l 1.029047,2.10737 c 1.267199,2.59508 1.462494,3.793328 0.736566,4.519257 -0.635965,0.635965 -1.585211,0.778505 -2.601002,0.390572 -1.005971,-0.384185 -1.977761,-1.552583 -2.919069,-3.509644 -0.661478,-1.37527 -0.66487,-1.394551 -0.802318,-4.562505 -0.07592,-1.749769 -0.143293,-3.242644 -0.149724,-3.3175 -0.02253,-0.262276 -0.301854,-0.129948 -1.28496,0.608743 -1.946438,1.462527 -2.577884,1.689383 -4.715207,1.694007 -2.458351,0.0053 -3.394235,-0.266725 -4.578692,-1.330941 -1.023966,-0.920016 -1.95419,-2.253457 -1.95419,-2.801256 0,-0.527806 1.733244,-6.949779 2.470114,-9.152199 0.838704,-2.506793 1.544268,-3.880041 2.541058,-4.94569 1.479881,-1.582114 2.846057,-1.883784 9.405,-2.076751 1.990322,-0.05856 3.653635,-0.141332 3.696248,-0.183946 0.133574,-0.133574 -0.510801,-0.871474 -3.594905,-4.116666 -1.646831,-1.732849 -5.111474,-5.477003 -7.699208,-8.320341 -5.589051,-6.141114 -9.260118,-9.861352 -10.626732,-10.769065 -0.967583,-0.642674 -1.454174,-0.814849 -1.454174,-0.514544 0,0.302267 1.328687,2.3309 4.679666,7.144898 4.952823,7.115193 6.752877,10.176848 6.752877,11.48575 0,0.727112 -0.456928,1.365627 -0.977257,1.365627 -1.250434,0 -3.013722,-1.847844 -9.004587,-9.436385 -5.045718,-6.391336 -5.645262,-7.113301 -7.421868,-8.937345 -1.450402,-1.489129 -2.109219,-1.80236 -1.908416,-0.907345 0.323486,1.441833 2.618329,5.716224 7.848848,14.619323 3.343438,5.691015 4.570647,8.23113 4.564682,9.448127 -0.0033,0.676116 -0.129676,0.892655 -0.694632,1.190364 -1.237996,0.65237 -2.212818,-0.493664 -10.09529,-11.868384 -3.751698,-5.413849 -5.427676,-7.30749 -6.099859,-6.892059 -0.609479,0.376679 -0.0024,1.817044 5.001005,11.865636 4.565998,9.17011 5.031665,10.189669 5.125229,11.221515 0.125835,1.387736 -0.177054,1.855358 -1.201066,1.854293 -1.479715,-0.0015 -2.418648,-1.153479 -6.09703,-7.480204 -2.671023,-4.594095 -3.999651,-6.673695 -4.263735,-6.673695 -0.522357,0 0.299943,1.861854 5.530141,12.521357 2.424105,4.940492 5.202965,10.697594 6.175245,12.79356 2.378178,5.126693 3.791583,7.92931 4.713164,9.34565 1.750404,2.690123 4.867666,4.914574 11.708929,8.355387 3.682465,1.852097 6.891312,3.23961 7.515915,3.249902 0.31891,0.0053 1.547306,-0.524139 3.089863,-1.331619 z m 16.878939,-1.654113 c 0.477092,-0.558442 0.821003,-1.061784 0.764249,-1.11854 -0.114859,-0.114858 -2.657778,2.48417 -2.660271,2.718967 -0.003,0.283933 1.033961,-0.591373 1.896022,-1.600427 z m -5.493464,-2.441329 c 0.598577,-0.413544 1.962646,-2.147676 1.962646,-2.495102 0,-0.07506 -0.694118,0.554045 -1.542486,1.398004 -1.936255,1.926199 -2.049958,2.223089 -0.42016,1.097098 z M 43.218213,84.313995 c -0.354604,-0.504357 -1.42244,-1.370677 -1.542063,-1.251052 -0.05601,0.05601 0.284676,0.477493 0.757087,0.936622 0.849398,0.825523 1.259931,0.989964 0.784976,0.31443 z"
       id="path2021"
       inkscape:connector-curvature="0"
       transform="matrix(0.26458333,0,0,0.26458333,0,87)" />
    <path
       style="opacity:1;fill:#ffffff;fill-opacity:1;fill-rule:nonzero;stroke:none;stroke-width:2.51338577;stroke-linecap:butt;stroke-linejoin:miter;stroke-miterlimit:4;stroke-dasharray:none;stroke-dashoffset:0;stroke-opacity:1;paint-order:stroke fill markers"
       d="m 71.462724,94.981975 c -0.193337,-0.312829 0.5935,-1.254203 3.715096,-4.444752 6.302238,-6.441448 7.081094,-7.353507 7.082393,-8.293665 9.07e-4,-0.628819 -0.367972,-1.443263 -0.616154,-1.360536 -0.105247,0.03508 -0.370536,0.564317 -0.589533,1.176078 -0.521837,1.457733 -1.205732,2.425837 -2.724575,3.856834 -1.828145,1.722414 -6.338143,4.68288 -12.013885,7.886193 l -1.880982,1.061602 -5.105572,-0.227424 c -2.808063,-0.125083 -5.176033,-0.295235 -5.262155,-0.378117 -0.232848,-0.224095 0.03493,-0.545258 0.45462,-0.545258 0.796089,0 0.08404,-0.488986 -3.481741,-2.391019 -6.307915,-3.364722 -7.914634,-4.43119 -9.989304,-6.630452 -2.170236,-2.300563 -3.958209,-5.343133 -8.032034,-13.668006 -2.804753,-5.731522 -4.012751,-8.395967 -5.187147,-11.441141 -0.419301,-1.087233 -1.000946,-2.22842 -1.34113,-2.631299 -2.233786,-2.645454 -4.746537,-8.356441 -5.401418,-12.276354 -0.222837,-1.333834 -0.205565,-1.562596 0.351941,-4.661211 0.322454,-1.792194 0.705838,-4.223278 0.851966,-5.402409 0.444366,-3.585658 0.903698,-4.551285 2.562208,-5.386374 0.836958,-0.421423 1.246599,-1.040465 1.588067,-2.399858 0.706061,-2.810842 1.620989,-3.59943 4.85922,-4.188221 2.471229,-0.449332 11.415289,-0.471538 12.219643,-0.03034 0.687796,0.377265 4.665062,4.451328 9.540568,9.772761 7.672372,8.37411 10.904122,12.234478 11.783422,14.075455 0.405106,0.848166 0.789769,1.309358 1.664919,1.996158 2.45241,1.924598 9.280287,9.182503 11.766125,12.507166 2.078745,2.7802 2.405781,3.725967 2.716281,7.855298 0.245557,3.26563 0.476639,4.83095 0.807682,5.471116 0.387342,0.749037 1.375364,1.653219 2.227308,2.038305 0.812172,0.36711 3.061724,0.691596 4.810588,0.693904 l 1.043446,0.0014 v 0.612922 c 0,0.766214 0.321864,1.039797 1.361117,1.156935 l 0.81651,0.09203 v 7.961033 c 0,7.311661 -0.06236,8.412717 -0.441721,7.798904 -0.05511,-0.08917 -0.306374,-1.987789 -0.558361,-4.219153 -0.563507,-4.989855 -0.917371,-7.087952 -1.367619,-8.10878 -0.512289,-1.161484 -0.837728,-0.974232 -1.838262,1.05771 -0.804723,1.634277 -1.007271,1.879835 -3.901583,4.73006 -1.679035,1.653464 -4.102798,3.919557 -5.386139,5.035763 L 76.233183,95.1647 h -2.328769 c -1.367288,0 -2.375392,-0.07543 -2.44169,-0.182706 z M 62.70244,90.385259 c 3.718262,-1.646502 8.612447,-4.739667 10.528946,-6.654378 2.681813,-2.679315 3.18335,-4.701746 3.50983,-14.15332 l 0.122236,-3.538644 -4.151733,-4.807146 c -2.283453,-2.64393 -4.531957,-5.203459 -4.996673,-5.687841 l -0.844943,-0.880696 -2.240029,0.115412 c -9.117014,0.469735 -11.150923,0.673334 -11.643092,1.165505 -0.410102,0.410099 -1.200274,3.161188 -1.938959,6.750735 -0.620575,3.015598 -0.670245,3.760724 -0.261158,3.917705 0.370872,0.142317 0.99796,-0.459541 3.119683,-2.994172 1.874547,-2.23935 2.522709,-2.749728 3.4931,-2.750544 0.846768,-7.26e-4 2.591398,0.849211 3.762226,1.832832 l 0.949458,0.797645 0.0032,4.65874 0.0032,4.658739 1.029047,2.10737 c 1.267199,2.59508 1.462494,3.793328 0.736566,4.519257 -1.01983,1.01983 -2.853728,0.716343 -4.046371,-0.669622 -0.358259,-0.416334 -0.986525,-1.447092 -1.396146,-2.290578 l -0.744763,-1.533606 -0.152463,-3.264398 c -0.08385,-1.795417 -0.189237,-3.301172 -0.234187,-3.34612 -0.04495,-0.04495 -0.53589,0.261176 -1.090984,0.680274 -1.946243,1.469429 -2.658478,1.726151 -4.807366,1.732804 -2.54915,0.0079 -3.404405,-0.258641 -4.710701,-1.468042 -0.570871,-0.528525 -1.234815,-1.332528 -1.475432,-1.786674 l -0.437483,-0.825718 0.708424,-2.765761 c 1.737935,-6.785093 2.888593,-9.780125 4.362992,-11.356377 1.51532,-1.62 2.866496,-1.926073 9.400731,-2.129489 2.071015,-0.06447 3.765481,-0.178948 3.765481,-0.254392 0,-0.07544 -1.531144,-1.763936 -3.402543,-3.752208 -1.871387,-1.988272 -4.666622,-5.000266 -6.211623,-6.693321 -6.002176,-6.577348 -9.409493,-10.167151 -10.850919,-11.432056 -1.42826,-1.253353 -2.677451,-2.045186 -2.890448,-1.832189 -0.166226,0.166225 0.783683,1.655202 4.152548,6.509098 6.640821,9.568171 7.829323,11.802568 6.97304,13.109422 -0.892163,1.361611 -2.664392,-0.0774 -7.344897,-5.9639 -1.260685,-1.585515 -3.59818,-4.525312 -5.194437,-6.532881 -2.913207,-3.663863 -5.79315,-6.826126 -6.216531,-6.825934 -0.935373,4.18e-4 0.812136,3.609043 6.152661,12.705294 4.751599,8.093161 5.963706,10.498831 5.957612,11.824066 -0.0032,0.705864 -0.124985,0.927503 -0.6658,1.212166 -0.626943,0.329996 -0.913892,0.253539 -1.694183,-0.451408 -1.096202,-0.99035 -2.078861,-2.297041 -6.803884,-9.047449 -4.825279,-6.893643 -6.012676,-8.439519 -6.906988,-8.992234 -0.698516,-0.431707 -0.984446,-0.348155 -0.984446,0.287666 0,0.748037 0.43685,1.697888 5.385772,11.710374 4.331034,8.762392 4.815031,9.832161 4.906935,10.845703 0.1232,1.35867 -0.183808,1.844457 -1.165663,1.844457 -1.589606,0 -2.441317,-1.059223 -6.493317,-8.075367 -2.118792,-3.668743 -3.676162,-6.07921 -3.927697,-6.07921 -0.446471,0 0.827866,2.867877 5.563846,12.521357 2.227934,4.54126 5.194439,10.691591 6.592233,13.667402 1.397794,2.975811 2.975822,6.20122 3.50673,7.167573 1.665585,3.031689 4.051221,5.086022 9.222122,7.941412 3.725773,2.057384 9.971103,4.944118 10.746861,4.967442 0.171816,0.0052 0.743443,-0.181482 1.270282,-0.414775 z m 18.652089,-2.501376 c 0.398691,-0.472827 0.724894,-0.924136 0.724894,-1.002914 0,-0.193168 -2.155771,1.935305 -2.387642,2.357405 -0.307943,0.560592 0.82862,-0.365266 1.662748,-1.354491 z m -5.503481,-2.471872 c 0.567707,-0.425982 2.054589,-2.256955 2.054589,-2.530058 0,-0.07693 -0.694118,0.550633 -1.542486,1.394592 -1.876154,1.866408 -2.075607,2.308648 -0.512103,1.135466 z M 42.696929,83.819067 c -0.438739,-0.447041 -0.879712,-0.812804 -0.979939,-0.812804 -0.100227,0 0.218082,0.406423 0.707351,0.903163 0.489271,0.496739 0.930244,0.862502 0.97994,0.812805 0.0497,-0.0497 -0.268611,-0.45612 -0.707352,-0.903164 z"
       id="path2023"
       inkscape:connector-curvature="0"
       transform="matrix(0.26458333,0,0,0.26458333,0,87)" />
    <path
       style="opacity:1;fill:#ffffff;fill-opacity:1;fill-rule:nonzero;stroke:none;stroke-width:2.51338577;stroke-linecap:butt;stroke-linejoin:miter;stroke-miterlimit:4;stroke-dasharray:none;stroke-dashoffset:0;stroke-opacity:1;paint-order:stroke fill markers"
       d="m 71.458558,94.975231 c -0.196025,-0.317173 0.404458,-1.055289 3.167574,-3.893601 7.113018,-7.306592 7.63476,-7.914735 7.63476,-8.8991 0,-0.323296 -0.157256,-0.780594 -0.349457,-1.016221 -0.339911,-0.416707 -0.353086,-0.418494 -0.482377,-0.06547 -0.909517,2.483393 -1.348978,3.166188 -3.099107,4.815095 -1.799148,1.695094 -4.818045,3.705096 -11.040246,7.350675 l -2.722034,1.594836 -5.171865,-0.222621 c -2.844526,-0.122441 -5.242327,-0.29208 -5.328449,-0.376976 -0.233378,-0.230059 0.03483,-0.548918 0.461717,-0.548918 0.712271,0 -0.0086,-0.507295 -3.003852,-2.11389 -6.70969,-3.598948 -8.282881,-4.626124 -10.286615,-6.716394 -2.203075,-2.298221 -3.634259,-4.632672 -7.154174,-11.669405 -2.68378,-5.365198 -5.027173,-10.437928 -6.10465,-13.214702 -0.576533,-1.48579 -1.085259,-2.432377 -1.853016,-3.44791 -2.014742,-2.664957 -4.469677,-8.401019 -5.054105,-11.809136 -0.210403,-1.226979 -0.189054,-1.545807 0.285239,-4.259722 0.281966,-1.613412 0.665539,-4.076731 0.852384,-5.474042 0.186845,-1.39731 0.437505,-2.901198 0.557021,-3.341973 0.260369,-0.960234 1.046485,-1.90421 1.984127,-2.38256 0.907756,-0.463102 1.16984,-0.874668 1.727097,-2.712158 0.563951,-1.859566 1.07642,-2.583116 2.251172,-3.178408 1.61669,-0.819238 3.725339,-1.064627 9.25277,-1.076766 4.319038,-0.0095 5.064164,0.02951 5.538736,0.289845 1.391559,0.763371 14.752309,15.184553 19.044142,20.555659 0.926001,1.158866 1.940803,2.589517 2.255114,3.179223 0.435487,0.817059 1.099544,1.546562 2.79064,3.065675 3.133121,2.814483 8.808439,8.972216 10.981045,11.914459 1.672906,2.265527 2.092429,3.545244 2.390755,7.292779 0.258564,3.24804 0.53098,5.113811 0.831641,5.695887 0.322623,0.624593 1.618073,1.778392 2.331326,2.076409 0.610966,0.255278 3.539439,0.631988 4.912954,0.631988 0.763329,0 0.823762,0.03416 0.823762,0.465602 0,0.84329 0.303363,1.147216 1.273554,1.275915 l 0.904073,0.119929 v 7.961255 c 0,7.331818 -0.06189,8.413705 -0.445764,7.792583 -0.05734,-0.09277 -0.3096,-1.950559 -0.56059,-4.128419 -0.801432,-6.954076 -1.244033,-8.950142 -1.984575,-8.950142 -0.145326,0 -0.661777,0.783006 -1.17338,1.778989 -0.86039,1.675006 -1.096865,1.959371 -4.045652,4.864995 -1.722516,1.697303 -4.136122,3.959045 -5.363567,5.026095 l -2.231721,1.940091 h -2.339661 c -1.429728,0 -2.385197,-0.07368 -2.456746,-0.18945 z m -8.802064,-4.617056 c 3.381538,-1.42327 8.700739,-4.781452 10.636141,-6.714936 2.58972,-2.587158 3.090356,-4.669479 3.447148,-14.337881 l 0.120542,-3.266441 -3.773352,-4.355254 c -5.297196,-6.114097 -5.880969,-6.763556 -6.184037,-6.879854 -0.573064,-0.219904 -11.86889,0.487565 -13.193131,0.826301 -0.579513,0.148236 -0.753785,0.30946 -1.044221,0.966037 -0.427789,0.967091 -1.695388,6.174495 -2.001443,8.222101 -0.396698,2.654045 0.09053,2.497675 3.032697,-0.973314 2.0647,-2.435806 2.735477,-2.977947 3.684278,-2.977738 0.835361,1.81e-4 2.562053,0.824248 3.784012,1.805923 l 0.952712,0.765372 v 4.688671 4.688669 l 1.029047,2.10737 c 1.267199,2.59508 1.462494,3.793328 0.736566,4.519257 -1.020097,1.020096 -2.855301,0.716258 -4.044565,-0.669622 C 59.481621,78.356502 58.861904,77.3562 58.46174,76.549941 57.832057,75.281248 57.712533,74.841765 57.573381,73.2835 c -0.08843,-0.990283 -0.163698,-2.515049 -0.16726,-3.388368 -0.0036,-0.873319 -0.05773,-1.587853 -0.12038,-1.587853 -0.06265,0 -0.664091,0.407869 -1.336542,0.906377 -1.895463,1.405165 -2.294286,1.531751 -4.814471,1.528087 -1.88311,-0.0027 -2.296532,-0.05868 -3.019291,-0.408563 -0.965269,-0.467279 -2.537692,-2.051387 -3.00132,-3.023625 -0.314435,-0.659378 -0.310635,-0.693783 0.377646,-3.41819 1.649821,-6.530454 2.897829,-9.771837 4.36721,-11.342725 1.502131,-1.605898 2.838553,-1.918849 9.083161,-2.127005 1.996158,-0.06654 3.727584,-0.174036 3.847613,-0.238882 0.138622,-0.07489 -0.647754,-1.043851 -2.155575,-2.656068 -1.305597,-1.39599 -5.06414,-5.458785 -8.352317,-9.028432 -7.249281,-7.869822 -9.808434,-10.461468 -11.250974,-11.393826 -2.055145,-1.328305 -1.88719,-0.933441 1.972268,4.636862 7.394126,10.671837 8.6622,13.004243 7.79208,14.332216 -0.691222,1.054937 -2.069479,0.276868 -4.567974,-2.578767 -0.765703,-0.875154 -3.168932,-3.836867 -5.340511,-6.581585 -5.670064,-7.166551 -8.310724,-10.16226 -8.957838,-10.16226 -0.754692,0 1.33077,4.232835 6.169107,12.521356 5.166805,8.851218 6.058284,10.622863 6.051624,12.02646 -0.0033,0.687241 -0.127736,0.910392 -0.6658,1.193607 -0.708395,0.372869 -1.074728,0.225693 -2.077912,-0.834812 -1.333964,-1.410182 -2.014656,-2.3269 -6.501533,-8.755876 -5.273856,-7.55659 -6.514417,-9.073447 -7.42072,-9.073447 -0.401669,0 -0.429595,0.05614 -0.344295,0.69209 0.108951,0.812291 2.033639,4.910778 6.49255,13.825425 3.422103,6.841767 3.806138,7.742735 3.806138,8.929399 0,0.94861 -0.400639,1.41433 -1.216685,1.41433 -1.605412,0 -2.256212,-0.789422 -6.133726,-7.440226 -2.947752,-5.056055 -4.16036,-6.888579 -4.230958,-6.393931 -0.07663,0.536954 1.170937,3.318225 4.811426,10.726329 1.649272,3.356136 4.610874,9.496834 6.581338,13.645996 1.970465,4.149162 3.925199,8.130434 4.343855,8.847273 1.621465,2.77633 3.335813,4.346099 7.368027,6.746647 3.369782,2.006175 11.557542,5.958775 12.390723,5.981561 0.127768,0.0035 0.71476,-0.196711 1.304429,-0.444899 z M 81.24887,87.927179 c 1.069756,-1.17616 0.867966,-1.192557 -0.326067,-0.0265 -0.661361,0.645868 -1.202476,1.252145 -1.202476,1.347284 0,0.195663 0.697298,-0.406859 1.528543,-1.320786 z M 76.984534,84.18018 c 0.406798,-0.492284 0.739634,-0.976029 0.739634,-1.07499 0,-0.223085 -2.493748,2.219015 -2.759251,2.702104 -0.329769,0.600023 1.193026,-0.626825 2.019617,-1.627114 z M 42.791398,83.913607 c -0.389838,-0.399231 -0.79046,-0.725875 -0.890268,-0.725875 -0.09981,0 0.137492,0.326644 0.527331,0.725875 0.389838,0.399232 0.79046,0.725876 0.890268,0.725876 0.09981,0 -0.137492,-0.326644 -0.527331,-0.725876 z"
       id="path2025"
       inkscape:connector-curvature="0"
       transform="matrix(0.26458333,0,0,0.26458333,0,87)" />
  </g>
</svg>
