<?xml version="1.0" encoding="UTF-8" standalone="no"?>
<!-- Created with Inkscape (http://www.inkscape.org/) -->

<svg
   xmlns:dc="http://purl.org/dc/elements/1.1/"
   xmlns:cc="http://creativecommons.org/ns#"
   xmlns:rdf="http://www.w3.org/1999/02/22-rdf-syntax-ns#"
   xmlns:svg="http://www.w3.org/2000/svg"
   xmlns="http://www.w3.org/2000/svg"
   xmlns:sodipodi="http://sodipodi.sourceforge.net/DTD/sodipodi-0.dtd"
   xmlns:inkscape="http://www.inkscape.org/namespaces/inkscape"
   width="297mm"
   height="210mm"
   viewBox="0 0 297 210"
   version="1.1"
   id="svg1549"
   sodipodi:docname="C.svg"
   inkscape:version="0.92.2 (5c3e80d, 2017-08-06)">
  <defs
     id="defs1543">
    <inkscape:path-effect
       effect="spiro"
       id="path-effect2604"
       is_visible="true" />
    <inkscape:path-effect
       effect="spiro"
       id="path-effect2337"
       is_visible="true" />
  </defs>
  <sodipodi:namedview
     id="base"
     pagecolor="#ffffff"
     bordercolor="#666666"
     borderopacity="1.0"
     inkscape:pageopacity="0.0"
     inkscape:pageshadow="2"
     inkscape:zoom="5.1449538"
     inkscape:cx="76.384036"
     inkscape:cy="743.03493"
     inkscape:document-units="mm"
     inkscape:current-layer="layer1"
     showgrid="false"
     inkscape:window-width="1366"
     inkscape:window-height="705"
     inkscape:window-x="-8"
     inkscape:window-y="-8"
     inkscape:window-maximized="1" />
  <metadata
     id="metadata1546">
    <rdf:RDF>
      <cc:Work
         rdf:about="">
        <dc:format>image/svg+xml</dc:format>
        <dc:type
           rdf:resource="http://purl.org/dc/dcmitype/StillImage" />
        <dc:title />
      </cc:Work>
    </rdf:RDF>
  </metadata>
  <g
     inkscape:label="Capa 1"
     inkscape:groupmode="layer"
     id="layer1"
     transform="translate(0,-87)">
    <path
       style="opacity:1;fill:#006680;fill-opacity:1;fill-rule:nonzero;stroke:none;stroke-width:0.66500002;stroke-linecap:butt;stroke-linejoin:miter;stroke-miterlimit:4;stroke-dasharray:none;stroke-dashoffset:0;stroke-opacity:1;paint-order:stroke fill markers"
       d="M 2.1263267,92.319713 C 0.83533836,92.06376 -0.01038863,90.42878 0.37572457,88.935408 0.55258406,88.251371 0.98907718,87.627054 1.4403874,87.41262 1.8894398,87.199258 3.3509443,87.176395 3.8562228,87.37483 4.394462,87.586205 4.8695174,88.499608 4.604328,88.813229 4.4815794,88.958398 4.0189947,89.052315 3.7514008,88.986394 3.6373573,88.958304 3.5349928,88.859312 3.5070713,88.750118 3.4148249,88.389398 2.6323734,88.24674 2.1338743,88.499756 1.6213447,88.759892 1.4140502,89.755537 1.7301453,90.438885 2.0831602,91.202041 3.1840002,91.26257 3.6053482,90.54199 3.8285061,90.160355 4.460744,89.999425 4.6867649,90.266726 4.8353168,90.442409 4.8067748,91.074382 4.6389299,91.325803 4.1502861,92.05777 3.03344,92.49956 2.1263214,92.319713 Z M 1.0459258,90.021568 c 0.063352,-0.247721 -0.027193,-0.76331 -0.13404355,-0.76331 -0.0430157,0 -0.0782066,0.217091 -0.0782066,0.482423 0,0.490347 0.11856722,0.647253 0.21225015,0.280887 z"
       id="path2311"
       inkscape:connector-curvature="0" />
    <path
       style="opacity:1;fill:#006680;fill-opacity:1;fill-rule:nonzero;stroke:none;stroke-width:0.66500002;stroke-linecap:butt;stroke-linejoin:miter;stroke-miterlimit:4;stroke-dasharray:none;stroke-dashoffset:0;stroke-opacity:1;paint-order:stroke fill markers"
       d="m 16.933251,110.30464 c -0.927128,-0.16764 -1.718143,-0.51881 -2.584925,-1.14757 -0.99501,-0.72176 -1.661742,-1.53587 -1.661742,-2.02904 0,-0.57255 0.332024,-0.39406 1.518133,0.81613 1.409815,1.43843 1.813768,1.68419 2.837435,1.72624 0.796414,0.0327 0.978408,-0.0316 0.978408,-0.34558 0,-0.30801 -0.286372,-0.56156 -0.73855,-0.6539 -0.545225,-0.11135 -1.134212,-0.52339 -2.235677,-1.56404 -0.66884,-0.63192 -1.068133,-0.95906 -1.444341,-1.18337 -0.235847,-0.14062 -0.348014,-0.17654 -0.848729,-0.2718 -0.461062,-0.0877 -1.5574,-0.69406 -2.152127,-1.19026 -0.559252,-0.4666 -0.6547849,-0.67946 -0.376387,-0.83865 0.112015,-0.0641 0.211311,-0.0813 0.451338,-0.0785 0.563454,0.007 1.146413,0.16918 2.072046,0.5781 0.3385,0.14955 0.717009,0.30575 0.841125,0.34713 0.470204,0.15674 1.226385,0.0647 2.379354,-0.28973 0.971845,-0.29872 1.270132,-0.5576 1.270862,-1.10299 2.7e-4,-0.28137 -0.06267,-0.40408 -0.255088,-0.49657 -0.193856,-0.0932 -0.33314,-0.0657 -0.616377,0.12167 -0.307418,0.20333 -0.532541,0.30865 -0.959485,0.44887 -0.516631,0.16967 -1.043763,0.26201 -1.309594,0.22941 -0.25026,-0.0307 -0.667835,-0.21823 -1.081519,-0.48572 -0.552732,-0.3574 -0.598553,-0.4875 -0.559875,-1.58961 0.03121,-0.8893 0.07693,-1.317537 0.14777,-1.384047 0.03671,-0.0345 0.09515,0.008 0.239305,0.175237 0.104904,0.12145 0.266775,0.29815 0.359717,0.39265 0.230716,0.23458 0.352187,0.23095 0.878487,-0.0263 0.371481,-0.18153 0.568331,-0.24217 0.993303,-0.30594 0.314073,-0.0471 0.308627,-0.280917 -0.02766,-1.187567 -0.125552,-0.3385 -0.228279,-0.62294 -0.228279,-0.6321 0,-0.009 0.05723,0.0161 0.127167,0.0561 0.229395,0.13124 0.599935,0.56026 0.748929,0.86713 0.221629,0.45647 0.471771,0.63526 0.888767,0.63526 0.168723,0 0.228271,-0.0196 0.313188,-0.10291 0.08677,-0.0852 0.100295,-0.12672 0.07844,-0.24108 -0.07312,-0.38259 -0.716377,-1.683054 -0.975288,-1.971752 -0.264618,-0.295061 -0.390714,-0.322239 -1.488931,-0.320895 -1.362637,0.0016 -1.550074,0.06075 -2.805299,0.884317 -0.774101,0.50789 -1.315942,0.79756 -1.455404,0.77805 -0.132553,-0.0186 -0.137041,-0.22261 -0.0103,-0.46811 0.343091,-0.664534 1.434644,-1.642792 2.322046,-2.081029 1.098179,-0.54233 2.916759,-0.881965 3.765673,-0.703273 0.246798,0.05195 0.207831,0.01352 2.086813,2.057948 l 1.430443,1.556384 0.197308,1.786157 c 0.315612,2.85714 0.449348,4.51778 0.526691,6.54007 0.06758,1.76704 0.01806,2.06546 -0.375238,2.26125 -0.231876,0.11543 -0.736174,0.27665 -1.189886,0.3804 -0.474284,0.10846 -1.607116,0.13787 -2.072046,0.0538 z"
       id="path2319"
       inkscape:connector-curvature="0" />
    <path
       style="opacity:1;fill:#006680;fill-opacity:1;fill-rule:nonzero;stroke:none;stroke-width:0.66500002;stroke-linecap:butt;stroke-linejoin:miter;stroke-miterlimit:4;stroke-dasharray:none;stroke-dashoffset:0;stroke-opacity:1;paint-order:stroke fill markers"
       d="m 8.0642801,98.745803 c -0.072491,-0.18542 0.168022,-0.748134 0.4353225,-1.018474 0.097402,-0.09851 0.2263438,-0.180625 0.3242386,-0.206498 0.2390866,-0.06319 0.5758866,-0.324752 1.1752403,-0.912709 0.6654165,-0.652767 1.1695045,-0.996265 1.3578925,-0.925309 0.09821,0.03699 0.03056,0.09962 -0.362409,0.335507 -0.406902,0.244256 -0.734149,0.571215 -0.971036,0.970182 -0.4118863,0.693706 -1.176564,1.545381 -1.5598306,1.737291 -0.195052,0.0977 -0.3657149,0.10622 -0.3994183,0.02 z"
       id="path2321"
       inkscape:connector-curvature="0" />
    <path
       style="opacity:1;fill:#006680;fill-opacity:1;fill-rule:nonzero;stroke:none;stroke-width:0.66500002;stroke-linecap:butt;stroke-linejoin:miter;stroke-miterlimit:4;stroke-dasharray:none;stroke-dashoffset:0;stroke-opacity:1;paint-order:stroke fill markers"
       d="m 13.654657,99.114323 c -0.113791,-0.23609 -0.183364,-0.64226 -0.116914,-0.68257 0.101161,-0.0614 0.262585,0.28868 0.31742,0.68833 0.0399,0.29079 -0.05894,0.28795 -0.200506,-0.006 z"
       id="path2323"
       inkscape:connector-curvature="0" />
    <path
       style="opacity:1;fill:#006680;fill-opacity:1;fill-rule:nonzero;stroke:none;stroke-width:0.66500002;stroke-linecap:butt;stroke-linejoin:miter;stroke-miterlimit:4;stroke-dasharray:none;stroke-dashoffset:0;stroke-opacity:1;paint-order:stroke fill markers"
       d="m 14.471235,95.022156 c -0.03807,-0.06047 0.09538,-0.09791 0.34894,-0.09791 0.253562,0 0.387012,0.03745 0.348939,0.09791 -0.03331,0.05289 -0.664573,0.05289 -0.697879,0 z"
       id="path2325"
       inkscape:connector-curvature="0" />
    <path
       style="opacity:1;fill:#006680;fill-opacity:1;fill-rule:nonzero;stroke:none;stroke-width:0.66500002;stroke-linecap:butt;stroke-linejoin:miter;stroke-miterlimit:4;stroke-dasharray:none;stroke-dashoffset:0;stroke-opacity:1;paint-order:stroke fill markers"
       d="m 11.469344,100.36112 c -0.24772,-0.1075 -0.402871,-0.345 -0.225381,-0.345 0.04153,0 0.190219,0.0563 0.330425,0.12503 0.178134,0.0874 0.251066,0.14499 0.242127,0.19129 -0.01666,0.0863 -0.182684,0.10006 -0.347171,0.0287 z"
       id="path2329"
       inkscape:connector-curvature="0" />
    <path
       style="opacity:1;fill:#006680;fill-opacity:1;fill-rule:nonzero;stroke:none;stroke-width:0.66500002;stroke-linecap:butt;stroke-linejoin:miter;stroke-miterlimit:4;stroke-dasharray:none;stroke-dashoffset:0;stroke-opacity:1;paint-order:stroke fill markers"
       d="m 9.2271953,104.25891 c -0.044157,-0.0433 -0.033031,-0.48985 0.012889,-0.51771 0.061029,-0.037 0.1287251,0.17364 0.1147322,0.35702 -0.011615,0.15236 -0.066164,0.22102 -0.1276308,0.16069 z"
       id="path2331"
       inkscape:connector-curvature="0" />
    <path
       style="opacity:1;fill:#006680;fill-opacity:1;fill-rule:nonzero;stroke:none;stroke-width:0.66500002;stroke-linecap:butt;stroke-linejoin:miter;stroke-miterlimit:4;stroke-dasharray:none;stroke-dashoffset:0;stroke-opacity:1;paint-order:stroke fill markers"
       d="m 2.962338,107.83549 c 0,-2.03407 0.012267,-5.9552 0.027274,-8.713627 l 0.027275,-5.015327 0.9882351,-0.02212 c 1.0477876,-0.02347 1.3835739,-0.07143 1.6557668,-0.236543 0.2027138,-0.122967 0.2934807,-0.227279 0.4146735,-0.476562 l 0.1076829,-0.221492 v -1.087334 c 0,-0.598033 0.013398,-1.107541 0.029771,-1.13224 0.044024,-0.0664 0.4283515,-0.128323 1.0985669,-0.176993 0.9499316,-0.06898 5.6590828,-0.117776 11.4988208,-0.119144 l 5.405779,-0.0013 -2.69e-4,8.064395 c -2.7e-4,7.681397 -0.03033,10.571897 -0.123957,11.940897 -0.04872,0.7122 -0.07235,0.8554 -0.141184,0.8554 -0.0871,0 -0.188488,-0.14548 -0.214033,-0.30711 -0.06305,-0.39888 -0.449124,-0.91054 -1.514147,-2.00667 l -0.787412,-0.81042 0.03475,-1.1663 c 0.05461,-1.83269 -0.05799,-3.96578 -0.334744,-6.3412 -0.131607,-1.129627 -0.234353,-1.683057 -0.362612,-1.953177 -0.222034,-0.4676 -0.986924,-1.417791 -1.742294,-2.164374 -0.515773,-0.509773 -0.804394,-0.715045 -1.005381,-0.715045 -0.214125,0 -0.740506,-0.418417 -0.64469,-0.51246 0.01251,-0.01228 0.08786,0.02646 0.167462,0.08605 0.174819,0.130873 0.420871,0.236505 0.474758,0.203816 0.142034,-0.08616 -0.09833,-0.506574 -0.395756,-0.692219 -0.294542,-0.183845 -0.519462,-0.232791 -0.783757,-0.170561 -0.245966,0.05792 -0.326929,0.02254 -0.348246,-0.152135 -0.01836,-0.150344 -0.212354,-0.202073 -0.956787,-0.255114 -1.275372,-0.09087 -3.719003,0.09932 -4.735845,0.36858 -0.75407,0.199682 -2.3486387,1.22981 -2.7568813,1.781006 -0.097799,0.132046 -0.1202462,0.19698 -0.1035311,0.299485 0.024391,0.149508 0.00183,0.156458 -0.2719687,0.08453 -0.2595145,-0.06813 -0.4580448,-0.01646 -0.6685863,0.174035 -0.3577842,0.323691 -0.528228,0.848076 -0.5007314,1.540526 0.026898,0.67755 0.2205568,1.08132 0.6610254,1.378237 0.3203294,0.21595 0.4499979,0.23775 1.299135,0.21841 0.4174855,-0.01 1.0544835,-0.0186 1.4155535,-0.0201 0.6401009,-0.003 0.6623779,-2e-5 0.8924699,0.11088 0.366591,0.17668 0.523083,0.52198 0.523083,1.15418 0,0.50391 -0.09601,0.58973 -0.706418,0.63141 -0.6305523,0.0431 -1.0253053,0.22535 -1.3434544,0.62039 -0.2409082,0.29914 -0.3431729,0.59495 -0.3471168,1.00405 -0.00295,0.30342 0.010677,0.36975 0.1197949,0.5839 0.1393537,0.27351 0.5961127,0.74434 1.3094723,1.34981 0.540686,0.45891 0.929233,0.8953 1.110931,1.24775 0.170595,0.3309 0.268015,0.42133 0.414917,0.38514 l 0.110093,-0.0271 -0.02781,0.30125 c -0.046,0.49821 0.104265,0.80886 0.771962,1.59594 0.641342,0.75601 0.651375,0.83139 0.219839,1.65177 l -0.296229,0.56317 H 7.7949328 2.9623421 Z"
       id="path2333"
       inkscape:connector-curvature="0" />
    <path
       style="opacity:1;fill:#006680;fill-opacity:1;fill-rule:nonzero;stroke:none;stroke-width:0.66500002;stroke-linecap:butt;stroke-linejoin:miter;stroke-miterlimit:4;stroke-dasharray:none;stroke-dashoffset:0;stroke-opacity:1;paint-order:stroke fill markers"
       d="m 16.346408,111.9466 c -1.044849,-0.006 -1.80819,-0.0261 -1.795251,-0.0467 0.01237,-0.0196 -0.01574,-0.25672 -0.06246,-0.5268 -0.04673,-0.27008 -0.07594,-0.49993 -0.06488,-0.51078 0.01105,-0.0109 0.377095,0.0987 0.813428,0.24351 1.243707,0.41267 1.974114,0.51836 2.999962,0.4341 0.776821,-0.0638 1.335658,-0.18704 2.294402,-0.50595 0.438752,-0.14595 0.839678,-0.26536 0.890944,-0.26536 0.08453,0 0.07572,0.0191 -0.09467,0.20511 -0.298188,0.32552 -0.330757,0.61392 -0.10162,0.89984 l 0.0827,0.10319 -1.572398,-0.01 c -0.86482,-0.005 -2.39039,-0.0145 -3.390158,-0.0206 z"
       id="path2339"
       inkscape:connector-curvature="0" />
    <path
       style="opacity:1;fill:#006680;fill-opacity:1;fill-rule:nonzero;stroke:none;stroke-width:0.66500002;stroke-linecap:butt;stroke-linejoin:miter;stroke-miterlimit:4;stroke-dasharray:none;stroke-dashoffset:0;stroke-opacity:1;paint-order:stroke fill markers"
       d="m 22.130459,111.94413 c 0.0075,-0.018 0.09201,-0.1015 0.187758,-0.18564 0.213426,-0.18756 0.297769,-0.17171 0.297769,0.0559 v 0.16235 h -0.249602 c -0.137281,0 -0.243449,-0.0147 -0.235925,-0.0327 z"
       id="path2341"
       inkscape:connector-curvature="0" />
    <path
       style="opacity:1;fill:#ffffff;fill-opacity:1;fill-rule:nonzero;stroke:none;stroke-width:2.51338577;stroke-linecap:butt;stroke-linejoin:miter;stroke-miterlimit:4;stroke-dasharray:none;stroke-dashoffset:0;stroke-opacity:1;paint-order:stroke fill markers"
       d="m 87.90701,93.708411 c -1.822393,-0.05118 -2.262881,-0.121859 -2.466319,-0.395774 -0.207745,-0.279715 -0.311822,-0.294308 -0.645604,-0.09052 -0.257464,0.157195 -1.186562,0.242956 -2.632064,0.242956 -2.220978,0 -2.234852,-0.0029 -2.356091,-0.485913 -0.182015,-0.725213 0.03385,-1.324369 0.813261,-2.257262 0.385725,-0.461683 0.605189,-0.871467 0.487697,-0.91063 -0.117492,-0.03916 -1.635134,0.369393 -3.372536,0.907907 -5.442221,1.686833 -7.024861,1.968437 -11.06283,1.968437 -3.00426,0 -5.011042,-0.36444 -9.068526,-1.646881 -1.531079,-0.483927 -2.869254,-0.879866 -2.97372,-0.879866 -0.117773,0 -0.138491,0.454748 -0.05453,1.196866 l 0.135409,1.196868 -1.223279,-0.12786 C 52.815076,92.35642 51.318023,92.298884 50.161095,92.298884 H 48.05759 l 0.965826,-1.975013 c 1.449369,-2.963805 1.428597,-3.064997 -1.330067,-6.479873 -2.155776,-2.668578 -2.466055,-3.321968 -2.466055,-5.193071 0,-1.45875 -0.01269,-1.499081 -0.459996,-1.46206 -0.507811,0.04203 -0.766654,-0.235693 -1.997662,-2.143333 -0.465924,-0.72202 -1.669274,-2.028288 -2.954354,-3.207026 -3.531687,-3.239432 -5.385737,-5.177516 -5.776649,-6.038472 -1.017774,-2.241579 0.07265,-5.532639 2.301456,-6.946103 1.063322,-0.674341 1.788642,-0.892766 3.819678,-1.150277 0.815043,-0.103336 1.647542,-0.276537 1.849998,-0.384888 0.56122,-0.300356 0.852237,-1.436246 0.703895,-2.74742 -0.172158,-1.521675 -0.448459,-2.295159 -1.059977,-2.967321 -0.951328,-1.045671 -1.272129,-1.093662 -7.31084,-1.093662 -6.047067,0 -6.241916,-0.02925 -7.655898,-1.149141 -0.396906,-0.314355 -0.977652,-1.037176 -1.290547,-1.606267 -0.513511,-0.933973 -0.57602,-1.245434 -0.642036,-3.199039 -0.0847,-2.506404 0.203853,-3.810054 1.124671,-5.081206 0.812997,-1.12231 1.533171,-1.45211 2.99578,-1.371904 1.189381,0.06522 1.192137,0.06413 1.2565,-0.500263 0.09523,-0.835052 0.517681,-1.370081 2.107612,-2.66926 2.810372,-2.296438 6.481457,-4.377079 8.850045,-5.015891 3.355297,-0.904929 9.846958,-1.452973 15.658598,-1.321942 4.568224,0.102997 5.373724,0.252591 5.569953,1.034428 0.11357,0.452497 0.183059,0.472419 1.524193,0.436974 1.528398,-0.0404 2.304555,0.234487 3.31761,1.174954 0.556611,0.516729 1.100247,1.389335 1.100247,1.766037 0,0.346746 -0.643812,0.224486 -1.457739,-0.276826 -0.992969,-0.611586 -1.358005,-0.642248 -1.062027,-0.08921 0.277063,0.517697 1.889387,1.541876 2.427314,1.541876 0.731773,0 2.136571,1.118671 4.59408,3.658365 2.595743,2.682551 4.745693,5.388513 5.513299,6.939133 0.609104,1.230432 0.9499,2.863408 1.440598,6.902834 1.03262,8.500537 1.414112,15.023287 1.342172,22.948367 l -0.05577,6.143241 2.851631,2.996511 c 4.152636,4.363615 5.447942,6.088315 5.861314,7.804336 0.07167,0.297533 0.302845,0.688694 0.513719,0.86925 0.424321,0.363315 0.534353,1.433894 0.140449,1.366533 -0.133626,-0.02285 -1.241347,-0.06958 -2.461603,-0.103847 z M 71.369414,88.009306 c 1.714412,-0.286346 4.841626,-1.35738 5.444519,-1.864681 0.92611,-0.779271 1.061499,-1.521332 1.026315,-5.625209 -0.03674,-4.285518 -0.292816,-8.958242 -0.845685,-15.43166 -0.438378,-5.132849 -1.680523,-17.020155 -1.891578,-18.10234 -0.111647,-0.572478 -1.103441,-1.753433 -5.223437,-6.219686 -2.797092,-3.032168 -5.646608,-6.064217 -6.332259,-6.737885 -1.178494,-1.157902 -1.314851,-1.234757 -2.494621,-1.40606 -3.124195,-0.453632 -10.17833,0.991641 -13.774296,2.822121 -3.756067,1.911976 -8.951043,7.067466 -8.951043,8.883006 0,1.273615 1.053556,0.904785 5.643977,-1.975848 5.258189,-3.299678 5.898657,-3.501946 11.071431,-3.496506 3.491928,0.0037 4.29937,0.146695 5.089793,0.901555 0.969388,0.925774 3.583643,5.952344 3.931353,7.55903 0.183671,0.8487 -0.370159,1.306756 -1.551314,1.28305 -1.188718,-0.02386 -1.989225,-0.516703 -2.746847,-1.691128 -1.429597,-2.216084 -1.948548,-2.875428 -2.761212,-3.508217 -0.471087,-0.366817 -0.89106,-0.632401 -0.933272,-0.590188 -0.04221,0.04221 0.326953,1.266826 0.820369,2.721363 0.537835,1.585474 0.87268,2.896514 0.836091,3.273598 -0.05977,0.615938 -0.09531,0.637833 -1.713135,1.055339 -0.908657,0.234494 -2.240568,0.695651 -2.959801,1.024792 -2.006067,0.918032 -2.336622,0.852478 -3.842981,-0.762117 -0.698143,-0.748306 -1.36714,-1.360557 -1.486661,-1.360557 -0.119519,0 -0.275435,0.240527 -0.346477,0.534505 -0.194659,0.805502 -0.374328,7.683616 -0.22193,8.495961 0.0862,0.459487 0.403103,0.9713 0.899971,1.453494 0.99376,0.964411 4.118373,2.547831 5.287832,2.679647 1.855456,0.209137 5.839834,-0.915654 8.190565,-2.312197 1.469926,-0.873266 2.145001,-0.987959 2.900685,-0.492815 0.967697,0.63406 0.848017,2.878502 -0.206173,3.86653 -1.560677,1.462727 -7.225742,3.136015 -10.644595,3.144091 -1.859469,0.0044 -2.027836,-0.03133 -3.887304,-0.824881 -5.347228,-2.281979 -6.906268,-2.744405 -9.2526,-2.744405 -1.299796,0 -1.586433,0.06317 -2.034181,0.448307 -0.505584,0.434886 -0.51197,0.466136 -0.213283,1.043733 1.064256,2.058046 7.101756,5.806132 10.722603,6.656602 2.269138,0.532979 3.812326,1.569247 7.871791,5.285988 4.547574,4.163642 6.06531,5.217926 8.669714,6.022343 1.538982,0.475344 2.382626,1.185546 2.532977,2.13233 0.215215,1.355237 -0.994357,1.742963 -4.308534,1.381088 -3.42648,-0.374136 -4.1592,-0.839419 -9.56636,-6.074698 -2.24238,-2.171102 -4.334589,-4.027959 -4.832001,-4.288453 -0.873183,-0.457283 -0.878622,-0.457611 -1.172139,-0.07068 -0.430744,0.567826 -0.192699,1.912769 0.563724,3.185031 0.346257,0.582384 1.377631,1.809556 2.291944,2.727047 3.885155,3.898663 9.273565,6.712023 13.789648,7.199761 1.622079,0.175184 4.968146,0.07387 6.608417,-0.200097 z M 35.371911,64.489635 c 0.03148,-0.365888 -0.0654,-0.832796 -0.215289,-1.037573 -0.255158,-0.348587 -0.281152,-0.326363 -0.407782,0.348636 -0.156239,0.832824 0.01088,1.5363 0.339366,1.428507 0.124554,-0.04087 0.252221,-0.373679 0.283705,-0.73957 z m 9.318813,-14.11522 c 0.08018,-0.244341 -1.663319,-1.224606 -2.178081,-1.224606 -0.651815,0 0.01939,1.099285 0.868182,1.421888 0.459106,0.174495 1.225791,0.05902 1.309899,-0.197282 z m 7.733785,-3.954945 c 0.153866,-0.248961 -0.246947,-2.023569 -0.626281,-2.772875 -0.741267,-1.464233 -0.963902,0.626428 -0.229,2.150414 0.401901,0.83343 0.624686,0.99557 0.855281,0.622461 z M 32.068353,44.310723 c 1.049978,-0.535659 3.829194,-3.520476 5.266993,-5.656635 1.516837,-2.253587 2.480308,-3.293646 4.004644,-4.322976 1.663055,-1.123004 1.905073,-1.351637 1.618344,-1.528845 -0.630722,-0.389808 -2.455085,0.874001 -5.862341,4.061076 -1.596735,1.493552 -2.695584,2.349157 -3.592519,2.797271 -1.504153,0.751484 -2.374533,1.765915 -2.873626,3.349218 -0.523828,1.661773 -0.07121,2.071091 1.438505,1.300891 z m 25.258175,-14.06293 c -0.05342,-0.160266 -0.49995,-0.242957 -1.311965,-0.242957 -0.812015,0 -1.258544,0.08269 -1.311965,0.242957 -0.05977,0.179298 0.283989,0.242956 1.311965,0.242956 1.027976,0 1.37173,-0.06366 1.311965,-0.242956 z"
       id="path2606"
       inkscape:connector-curvature="0"
       transform="matrix(0.26458333,0,0,0.26458333,0,87)" />
    <path
       style="opacity:1;fill:#ffffff;fill-opacity:1;fill-rule:nonzero;stroke:none;stroke-width:2.51338577;stroke-linecap:butt;stroke-linejoin:miter;stroke-miterlimit:4;stroke-dasharray:none;stroke-dashoffset:0;stroke-opacity:1;paint-order:stroke fill markers"
       d="m 87.517502,93.708557 c -1.440042,-0.05079 -1.881735,-0.134377 -2.069888,-0.391693 -0.202857,-0.277421 -0.308603,-0.289975 -0.696055,-0.08262 -0.310867,0.166363 -1.171128,0.226784 -2.692059,0.189073 l -2.2352,-0.05542 -0.05266,-0.680279 c -0.05038,-0.650843 0.05299,-0.879498 1.002223,-2.216912 0.201556,-0.283983 0.323904,-0.558897 0.27188,-0.610919 -0.05202,-0.05202 -1.660095,0.38174 -3.573494,0.963916 -4.991642,1.51877 -5.914352,1.688466 -9.795775,1.801551 -3.959324,0.115354 -5.439561,-0.116525 -10.139127,-1.588298 -1.532387,-0.479901 -2.856101,-0.873343 -2.941585,-0.874316 -0.08548,-9.72e-4 -0.09448,0.536939 -0.01998,1.195361 l 0.13544,1.197128 -1.51567,-0.128119 c -0.833619,-0.07047 -2.330477,-0.128122 -3.32635,-0.128122 h -1.810681 l 0.864375,-1.775954 c 1.025982,-2.107995 1.202088,-2.869332 0.856626,-3.703351 -0.139811,-0.337532 -1.016882,-1.576441 -1.949046,-2.753128 -2.226778,-2.810904 -2.575232,-3.520092 -2.668436,-5.43092 -0.05011,-1.027482 -0.145399,-1.489728 -0.295878,-1.435412 -0.432292,0.156036 -0.897608,-0.278216 -1.787311,-1.667986 -0.581096,-0.907707 -1.703741,-2.163712 -3.166071,-3.542172 -5.94155,-5.600779 -6.389717,-6.216019 -6.204931,-8.518057 0.268385,-3.343517 2.346316,-5.257264 6.258006,-5.76354 2.033414,-0.263179 2.387307,-0.41774 2.586627,-1.129696 0.23695,-0.846374 0.102467,-3.041858 -0.235938,-3.851776 -0.414949,-0.993112 -0.822554,-1.42325 -1.754011,-1.850978 -0.695065,-0.319175 -1.364533,-0.357916 -6.316869,-0.365549 -4.935359,-0.0076 -5.624187,-0.04718 -6.316869,-0.362946 -1.161653,-0.529544 -1.999766,-1.32089 -2.575807,-2.432076 -0.446334,-0.860982 -0.526366,-1.286803 -0.593809,-3.159425 -0.09028,-2.506692 0.196066,-3.805948 1.119858,-5.081206 0.779549,-1.076136 1.532394,-1.442363 2.840471,-1.381771 1.138799,0.05275 1.293057,-0.0175 1.386765,-0.631531 0.100071,-0.655724 0.782945,-1.469831 2.164266,-2.580189 2.916444,-2.344347 6.764372,-4.490454 9.069455,-5.058313 1.666221,-0.410475 4.80008,-0.834066 8.093972,-1.094031 3.068361,-0.242165 11.174628,-0.149571 12.07942,0.137979 0.29838,0.09483 0.650989,0.389665 0.783577,0.655196 0.220082,0.440751 0.358993,0.484896 1.595511,0.507035 0.744942,0.01334 1.585251,0.116809 1.867352,0.229936 1.04236,0.418003 2.499749,2.020605 2.499749,2.748822 0,0.346746 -0.643812,0.224486 -1.457739,-0.276826 -0.908658,-0.559657 -1.069009,-0.590973 -1.069009,-0.208773 0,0.388167 1.495415,1.383733 2.474461,1.647363 0.443056,0.119302 1.226453,0.551571 1.740885,0.960598 1.352232,1.075163 4.80857,4.712477 6.303664,6.633724 2.440951,3.136707 2.714483,3.912271 3.461784,9.815443 0.980306,7.743729 1.369692,14.227465 1.372178,22.848374 l 0.0019,6.521699 0.703956,0.669814 c 1.669574,1.588601 5.842169,6.219272 6.68627,7.420305 0.505707,0.719544 1.014944,1.687438 1.131637,2.150873 0.116695,0.463436 0.389891,1.003443 0.607102,1.200016 0.220703,0.199734 0.39493,0.601357 0.39493,0.91038 0,0.502562 -0.05758,0.549293 -0.631687,0.512632 -0.347427,-0.02219 -1.455498,-0.0694 -2.462379,-0.10491 z M 73.215883,87.55242 c 2.407419,-0.719645 3.692687,-1.338317 4.113796,-1.980207 0.305193,-0.465201 0.366287,-1.04928 0.423767,-4.051369 C 77.87541,75.150901 77.09771,64.51798 75.450881,50.039543 75.133267,47.247168 75.006945,46.652295 74.61446,46.100673 74.006561,45.246295 64.720989,35.152826 63.351025,33.857258 62.054897,32.631515 61.650773,32.536714 58.367929,32.688304 53.3906,32.918139 48.242674,34.570277 44.741381,37.06151 c -1.710364,1.216955 -4.703311,4.135886 -5.552391,5.415079 -0.836186,1.259769 -1.077847,2.326427 -0.571125,2.520874 0.456063,0.175008 2.194754,-0.700795 5.597537,-2.819558 5.02329,-3.127782 5.649529,-3.323401 10.63297,-3.32144 4.034207,0.0016 4.539745,0.112026 5.541867,1.210667 0.827922,0.907663 2.959052,4.983718 3.51213,6.717392 0.325583,1.020567 0.324219,1.042427 -0.09099,1.457634 -0.321915,0.321916 -0.628291,0.413528 -1.296468,0.387669 -1.312164,-0.05078 -2.001569,-0.565577 -3.216056,-2.401493 -1.013914,-1.532718 -2.654955,-3.298212 -3.065711,-3.298212 -0.09836,0 0.210704,1.189476 0.686807,2.643281 0.483719,1.477057 0.839407,2.908569 0.806178,3.244564 -0.05741,0.580483 -0.120848,0.618875 -1.834045,1.109843 -0.976023,0.279709 -2.298925,0.743871 -2.939784,1.031471 -1.867435,0.838056 -2.229853,0.756318 -3.798753,-0.856741 -0.930284,-0.956467 -1.403978,-1.317553 -1.544325,-1.177206 -0.529803,0.529803 -0.739441,8.401388 -0.249007,9.349783 0.440261,0.85137 1.735242,1.854524 3.578524,2.772095 1.579375,0.786198 1.762708,0.832006 3.229354,0.806872 2.054995,-0.03522 4.417667,-0.747865 7.105497,-2.143222 l 2.091783,-1.085926 0.735818,0.364522 c 0.466467,0.231088 0.800466,0.564631 0.912424,0.911178 0.269303,0.833582 -0.01287,2.187868 -0.601614,2.887565 -0.965024,1.146866 -4.646895,2.514145 -8.591803,3.190604 -2.766173,0.474335 -3.697571,0.33343 -7.073145,-1.070046 -4.391366,-1.825818 -5.564333,-2.169565 -7.826233,-2.293531 -1.937316,-0.106178 -1.983598,-0.09869 -2.484457,0.402173 -0.483665,0.483664 -0.495206,0.539684 -0.220597,1.070719 1.022819,1.977914 7.132099,5.733503 10.777999,6.625614 2.385174,0.583628 3.47015,1.319732 7.895441,5.35668 4.177313,3.81073 6.105404,5.173523 8.196659,5.79348 1.802249,0.534279 2.683966,1.174919 2.88656,2.097327 0.315881,1.438196 -0.550679,1.845426 -3.518624,1.653545 -3.871681,-0.250312 -4.673813,-0.725305 -10.424741,-6.173167 -4.3433,-4.114414 -5.390626,-4.917514 -5.834235,-4.473749 -0.403873,0.404015 -0.25194,1.793763 0.318823,2.916298 0.290082,0.570513 1.233757,1.773031 2.097053,2.672259 3.462041,3.606144 7.523706,6.052626 12.109174,7.29378 1.167219,0.315933 1.886285,0.358153 5.053783,0.296741 3.324267,-0.06445 3.867574,-0.123802 5.442225,-0.594508 z M 35.316055,64.889023 c 0.145013,-0.456898 -0.05651,-1.550554 -0.285719,-1.550554 -0.214243,0 -0.362263,0.866035 -0.249151,1.457739 0.11214,0.586627 0.364255,0.630375 0.53487,0.09282 z m 9.198753,-14.35464 c 0.19965,-0.126557 0.140936,-0.257532 -0.255101,-0.569053 -0.568266,-0.446999 -1.815289,-0.915728 -1.984926,-0.746092 -0.213554,0.213553 0.13274,0.712865 0.759377,1.094923 0.689799,0.420568 1.074364,0.477766 1.48065,0.220222 z m 7.719134,-5.492836 c -0.173689,-0.68023 -0.487408,-1.40928 -0.697153,-1.620113 -0.379209,-0.381171 -0.381356,-0.378672 -0.381356,0.443565 0,1.257828 0.812761,2.994872 1.2137,2.593933 0.111229,-0.111228 0.0593,-0.65569 -0.135191,-1.417385 z M 32.562628,43.953216 c 1.091959,-0.756728 3.262316,-3.175986 4.656414,-5.19042 1.614781,-2.333317 2.845591,-3.630575 4.443223,-4.6831 1.397063,-0.920389 1.630996,-1.256564 0.874398,-1.256564 -0.650959,0 -2.773938,1.581425 -5.472708,4.076668 -1.28281,1.186067 -2.725972,2.354112 -3.207025,2.595656 -1.391288,0.698585 -1.871707,1.071625 -2.391349,1.856858 -0.638261,0.964477 -1.150144,2.496943 -0.996131,2.982197 0.161255,0.508067 1.041104,0.347793 2.093178,-0.381295 z M 57.271867,30.306205 c 0.160749,-0.260097 -1.122976,-0.467014 -1.942984,-0.313179 -0.377123,0.07075 -0.634355,0.211679 -0.571624,0.313179 0.148635,0.240497 2.365973,0.240497 2.514608,0 z"
       id="path2608"
       inkscape:connector-curvature="0"
       transform="matrix(0.26458333,0,0,0.26458333,0,87)" />
    <path
       style="opacity:1;fill:#ffffff;fill-opacity:1;fill-rule:nonzero;stroke:none;stroke-width:2.51338577;stroke-linecap:butt;stroke-linejoin:miter;stroke-miterlimit:4;stroke-dasharray:none;stroke-dashoffset:0;stroke-opacity:1;paint-order:stroke fill markers"
       d="m 87.210178,93.711719 c -1.119856,-0.04599 -1.618444,-0.148112 -1.781948,-0.364979 -0.179222,-0.237716 -0.311975,-0.25566 -0.630455,-0.08522 -0.248909,0.133214 -1.278619,0.194931 -2.688451,0.161139 L 79.8243,93.367893 79.766109,92.67479 c -0.04488,-0.534494 0.09968,-0.922607 0.631687,-1.696009 0.379432,-0.551601 0.689878,-1.041698 0.689878,-1.08911 0,-0.110633 -0.861191,0.122988 -3.984487,1.080904 -4.359026,1.336912 -5.497707,1.539015 -9.329529,1.655881 -4.131586,0.12601 -5.217452,-0.03535 -9.912626,-1.47298 -1.710414,-0.523717 -3.165431,-0.895705 -3.233372,-0.826639 -0.06794,0.06907 -0.06018,0.59703 0.01724,1.173251 l 0.140771,1.047673 -1.863711,-0.123434 c -1.025042,-0.06789 -2.536013,-0.123884 -3.357714,-0.124438 l -1.494003,-9.72e-4 0.90497,-1.895061 c 0.614754,-1.287335 0.906873,-2.152384 0.910906,-2.697468 0.0065,-0.873644 -0.273036,-1.332191 -2.818264,-4.623608 -1.507658,-1.949695 -1.937744,-2.974761 -1.937744,-4.61845 0,-0.965977 -0.05193,-1.131567 -0.35485,-1.131567 -0.423847,0 -0.962866,-0.561247 -1.680004,-1.749286 -0.29038,-0.481054 -2.386245,-2.711395 -4.657478,-4.956313 -4.705911,-4.651389 -4.898005,-4.945191 -4.733317,-7.239465 0.229928,-3.203119 2.382668,-5.182804 6.177789,-5.681164 0.994734,-0.130625 1.845448,-0.35797 2.138017,-0.571364 0.461608,-0.336685 0.485913,-0.450472 0.485913,-2.274827 0,-2.096299 -0.27126,-2.863067 -1.278416,-3.613694 -0.842507,-0.627914 -1.827345,-0.726837 -7.284082,-0.731647 l -5.258289,-0.0046 -1.009528,-0.503069 c -1.264739,-0.630245 -2.294145,-1.815572 -2.666932,-3.070883 -0.376249,-1.266967 -0.374885,-4.417826 0.0025,-5.688493 0.356212,-1.199497 1.259037,-2.480106 2.029266,-2.878407 0.327479,-0.169346 1.07277,-0.298521 1.722353,-0.298521 h 1.145078 l 0.229421,-0.765737 c 0.570911,-1.905532 7.492375,-6.53599 11.202475,-7.494453 2.611483,-0.674648 6.911312,-1.092869 12.34219,-1.200458 5.846168,-0.115816 8.079855,0.05667 8.492269,0.655793 0.559869,0.813326 0.690601,0.88068 1.497003,0.771263 1.146457,-0.155557 2.30837,0.197559 3.221284,0.97898 0.750575,0.642464 1.366835,1.540349 1.366835,1.991465 0,0.343843 -0.637355,0.223871 -1.534177,-0.288785 -0.469645,-0.268466 -0.90059,-0.441429 -0.957657,-0.384362 -0.199864,0.199865 0.973039,1.222809 1.777196,1.549977 1.984103,0.807225 2.532277,1.214659 4.939111,3.671024 2.640803,2.69515 5.03782,5.646596 5.781084,7.118247 0.572983,1.134497 0.984347,3.060663 1.454013,6.808245 0.991426,7.910858 1.366471,14.141459 1.367629,22.720369 l 9.72e-4,6.68524 2.285284,2.352742 c 4.013068,4.131528 5.673046,6.230041 6.21006,7.850644 0.166969,0.503882 0.4667,1.096716 0.666066,1.317408 0.199366,0.220691 0.362485,0.636147 0.362485,0.923234 0,0.498623 -0.04131,0.520228 -0.923235,0.482864 C 89.18066,93.79322 88.06549,93.74688 87.210283,93.711757 Z M 70.754569,88.020062 c 3.027906,-0.39314 6.04771,-1.579646 6.58707,-2.588112 0.908113,-1.697944 0.370687,-13.908444 -1.314599,-29.868089 -0.935764,-8.861677 -0.933484,-8.84781 -1.589906,-9.675955 -1.157131,-1.459842 -11.049553,-12.082957 -11.746185,-12.613805 -0.711392,-0.542096 -0.749561,-0.548084 -3.454905,-0.542052 -5.313879,0.01185 -10.507298,1.582577 -14.494663,4.383851 -3.797265,2.667721 -7.445471,7.374282 -6.112522,7.885782 0.403732,0.154927 2.558555,-0.942359 5.580331,-2.841634 4.883439,-3.069384 5.641339,-3.30501 10.639182,-3.307638 1.870765,-9.91e-4 3.724342,0.08791 4.119061,0.197536 0.455524,0.126517 1.000326,0.520437 1.491483,1.07842 0.808635,0.918658 3.131406,5.401953 3.546045,6.844396 0.222146,0.772805 0.208041,0.867768 -0.18765,1.263375 -0.318207,0.318139 -0.645071,0.423113 -1.275479,0.40963 -1.245401,-0.02663 -2.030426,-0.584522 -3.10311,-2.205259 -1.071707,-1.61926 -3.040655,-3.723206 -3.166514,-3.383621 -0.04565,0.12317 0.23418,1.171966 0.621846,2.330656 0.777375,2.323493 1.040149,3.828406 0.704679,4.035738 -0.117172,0.07242 -0.854941,0.299794 -1.639487,0.505287 -0.784545,0.205491 -2.050364,0.639121 -2.812929,0.963622 -2.062387,0.877625 -2.36827,0.825086 -3.920404,-0.673373 -0.719746,-0.694855 -1.400024,-1.263373 -1.511728,-1.263373 -0.320697,0 -0.442274,0.991404 -0.570578,4.652733 -0.0815,2.325741 -0.04834,3.673026 0.104071,4.228126 0.294595,1.07296 1.351825,1.969829 3.695749,3.135175 1.708865,0.849609 1.919234,0.906696 3.207026,0.870303 1.902892,-0.05378 4.454811,-0.827294 7.078676,-2.145625 l 2.201905,-1.106323 0.713573,0.382074 c 0.531297,0.284476 0.757738,0.560778 0.886472,1.08166 0.401994,1.626545 -0.350573,2.927476 -2.247402,3.884993 -1.437123,0.725456 -5.19503,1.817326 -7.328274,2.129247 -2.491058,0.36424 -3.420231,0.199316 -6.926075,-1.229354 -4.105501,-1.673037 -5.49853,-2.085772 -7.488614,-2.218766 -1.986259,-0.13274 -2.90775,0.193041 -2.90775,1.027997 0,1.592316 6.415183,5.777541 10.704456,6.983521 2.710914,0.762205 3.516154,1.313827 8.661566,5.933528 4.0885,3.670776 5.280994,4.505597 7.50731,5.255589 1.611169,0.542763 2.172859,0.852487 2.653017,1.462909 0.408392,0.519186 0.525536,1.335069 0.253188,1.76339 -0.631746,0.993534 -5.240518,0.797814 -7.524721,-0.319552 -1.48255,-0.725221 -2.908296,-1.912896 -6.890911,-5.740262 -3.239621,-3.113336 -4.680662,-4.240551 -5.177446,-4.049915 -0.45842,0.175912 -0.340973,1.796084 0.210406,2.90256 1.021673,2.050228 4.657241,5.410916 7.984235,7.380558 1.894071,1.121324 4.779398,2.292668 6.594829,2.677274 1.566165,0.331799 5.543878,0.395675 7.645676,0.122778 z M 35.316055,64.889023 c 0.152009,-0.478937 -0.06112,-1.550554 -0.308377,-1.550554 -0.09841,0 -0.178922,0.437321 -0.178922,0.971826 0,0.986362 0.259939,1.295075 0.487299,0.578728 z m 9.15026,-14.405327 c 0.165471,-0.267738 -0.495407,-0.794256 -1.413768,-1.126338 -0.788301,-0.285054 -0.950087,-0.197226 -0.654409,0.355253 0.397322,0.742403 1.769681,1.254063 2.068177,0.771085 z m 7.801619,-4.907774 c -0.169216,-1.639548 -1.112501,-3.099015 -1.112501,-1.721282 0,0.987303 0.708144,2.768421 1.100682,2.768421 0.06594,0 0.07126,-0.471212 0.01182,-1.047139 z m -19.650838,-1.69017 c 1.073796,-0.738791 3.113741,-3.055171 4.867611,-5.527225 1.506677,-2.123639 2.708393,-3.343274 4.402368,-4.46801 1.112426,-0.738609 1.360019,-1.067385 0.803819,-1.067385 -0.794284,0 -2.502883,1.264959 -6.014198,4.452603 -1.068199,0.969734 -2.431206,2.023801 -3.028904,2.34237 -1.729926,0.922041 -2.562558,1.949438 -3.067493,3.785022 -0.392853,1.428137 0.392178,1.614153 2.036797,0.482625 z M 57.180754,30.311827 c 0,-0.264683 -1.079425,-0.454117 -1.749287,-0.306991 -0.977252,0.214641 -0.651726,0.485913 0.583096,0.485913 0.641405,0 1.166191,-0.08052 1.166191,-0.178922 z"
       id="path2610"
       inkscape:connector-curvature="0"
       transform="matrix(0.26458333,0,0,0.26458333,0,87)" />
    <path
       style="opacity:1;fill:#ffffff;fill-opacity:1;fill-rule:nonzero;stroke:none;stroke-width:2.51338577;stroke-linecap:butt;stroke-linejoin:miter;stroke-miterlimit:4;stroke-dasharray:none;stroke-dashoffset:0;stroke-opacity:1;paint-order:stroke fill markers"
       d="m 86.886785,93.710055 c -0.817414,-0.04267 -1.380628,-0.170522 -1.52674,-0.346576 -0.170528,-0.205475 -0.328227,-0.227209 -0.598608,-0.08251 -0.206117,0.11031 -1.369101,0.172442 -2.652113,0.14169 L 79.8243,93.367893 79.766,92.672981 c -0.04461,-0.531762 0.100606,-0.931045 0.618544,-1.700696 0.48347,-0.718434 0.594031,-1.005783 0.386982,-1.005783 -0.159423,0 -1.727802,0.433683 -3.485285,0.963738 -4.705463,1.419165 -5.591677,1.577213 -9.512583,1.696492 -4.085627,0.124286 -5.23554,-0.0405 -9.737534,-1.395377 -1.592912,-0.479391 -3.01363,-0.872632 -3.15715,-0.87387 -0.19528,-0.0018 -0.24419,0.270239 -0.194365,1.080604 l 0.06658,1.082857 -3.304208,-0.135756 c -1.817315,-0.07466 -3.33854,-0.166246 -3.380497,-0.203516 -0.04196,-0.03727 0.01601,-0.179205 0.128837,-0.315414 0.477335,-0.576298 1.652565,-3.596541 1.652565,-4.246953 0,-0.757191 -0.478425,-1.53272 -2.864541,-4.643436 -1.408763,-1.836568 -1.853234,-2.892741 -1.853234,-4.403752 0,-0.92193 -0.05252,-1.049004 -0.527901,-1.27734 -0.290347,-0.139461 -0.917095,-0.822082 -1.392775,-1.516937 -0.47568,-0.694856 -2.633251,-3.012661 -4.794602,-5.150678 -4.601031,-4.551359 -4.840098,-4.910882 -4.709739,-7.082748 0.140981,-2.34883 1.235179,-4.05729 3.242785,-5.063225 0.470662,-0.235831 1.775961,-0.591576 2.900665,-0.790542 1.180506,-0.208839 2.174418,-0.491676 2.351276,-0.669098 0.235895,-0.236647 0.304435,-0.71905 0.297986,-2.097298 -0.01298,-2.773407 -0.713594,-3.821962 -2.820745,-4.221575 -0.557733,-0.105772 -3.29806,-0.193133 -6.089617,-0.194136 l -5.075558,-0.0018 -0.999802,-0.57343 c -2.078991,-1.19239 -2.791017,-2.703842 -2.789235,-5.920842 0.0013,-2.267966 0.164377,-2.98654 0.964295,-4.24788 0.804515,-1.268588 1.565626,-1.691944 3.043403,-1.692846 1.159625,-7e-4 1.193428,-0.01543 1.303921,-0.567897 0.422445,-2.112223 7.958462,-7.041934 12.039983,-7.875996 3.031355,-0.619461 6.369527,-0.909895 11.704912,-1.018376 6.389012,-0.129903 7.903793,0.01919 8.560318,0.842551 0.382093,0.479189 0.554804,0.534061 1.773211,0.563368 0.742436,0.01786 1.563707,0.14262 1.825047,0.277248 1.006195,0.518337 2.321632,2.056786 2.321632,2.715228 0,0.332876 -0.534302,0.235291 -1.561383,-0.28517 -0.530951,-0.269053 -0.965365,-0.406617 -0.965365,-0.305699 0,0.37344 1.442512,1.355524 2.598095,1.768824 1.0789,0.385873 1.469217,0.705744 4.112826,3.370545 2.965891,2.989663 4.977458,5.449267 5.825788,7.123366 0.600725,1.185472 1.140279,3.877352 1.636178,8.163037 0.846914,7.319216 1.022346,10.318856 1.125365,19.242155 l 0.102098,8.843617 2.360369,2.429565 c 4.15015,4.271811 5.424125,5.897254 6.156691,7.855209 0.216105,0.577597 0.520813,1.156318 0.677128,1.286047 0.156314,0.129729 0.284208,0.487555 0.284208,0.795167 v 0.559298 l -1.214782,-0.03807 c -0.668131,-0.02094 -1.797632,-0.06849 -2.510002,-0.105682 z m -14.20982,-6.083983 c 2.140182,-0.524871 4.072839,-1.443816 4.613248,-2.193518 0.375609,-0.521077 0.395162,-0.812252 0.378505,-5.636591 -0.0097,-2.797922 -0.121816,-6.574024 -0.249234,-8.391338 C 76.758106,61.971704 75.206622,47.271476 74.786741,46.459512 74.266247,45.452987 63.428921,33.770024 62.460617,33.171578 60.67697,32.069224 53.977487,32.85612 49.112903,34.73935 c -3.937635,1.52438 -8.98075,5.751427 -10.427604,8.740228 -0.460593,0.951458 -0.31788,1.53935 0.348089,1.43392 0.577882,-0.09148 2.488664,-1.121457 5.319263,-2.867251 3.128016,-1.92923 4.786056,-2.731546 6.198465,-2.999404 1.357078,-0.257365 7.486641,-0.255104 8.416317,0.0031 0.455524,0.126516 1.000326,0.520436 1.491483,1.078419 0.812707,0.923285 3.131855,5.403995 3.55084,6.860406 0.238583,0.82932 0.230389,0.864191 -0.312833,1.331451 -0.470542,0.404744 -0.681697,0.46002 -1.349401,0.353249 -1.248958,-0.199716 -1.882412,-0.692325 -3.022964,-2.350826 -1.076992,-1.566072 -2.860415,-3.518161 -3.045287,-3.333289 -0.05549,0.05549 0.218315,1.088262 0.608444,2.295059 0.794013,2.456125 1.044542,3.932735 0.703056,4.143786 -0.121552,0.07512 -0.827072,0.304537 -1.567827,0.50981 -0.740755,0.205273 -2.010061,0.63669 -2.82068,0.958703 -2.178782,0.865504 -2.422541,0.82218 -4.012936,-0.713216 -1.026917,-0.991406 -1.399006,-1.244899 -1.572561,-1.071345 -0.296049,0.29605 -0.651043,6.550835 -0.458527,8.078944 0.126579,1.00472 0.244333,1.239043 0.983844,1.957765 0.462031,0.449042 1.64046,1.225546 2.618731,1.725562 1.634582,0.835473 1.892849,0.909122 3.188056,0.909122 1.97689,0 4.079496,-0.600128 6.990924,-1.995357 l 2.495666,-1.195984 0.711359,0.380888 c 0.81567,0.436739 1.143857,1.317909 0.925117,2.483898 -0.354048,1.887238 -3.077525,3.300901 -8.518314,4.421568 -3.207813,0.660728 -4.217647,0.523353 -8.316061,-1.131297 -3.857887,-1.557544 -5.174231,-1.941536 -7.260118,-2.117858 -3.191633,-0.269793 -3.727326,1.051568 -1.249218,3.081375 2.57423,2.108539 6.104745,3.983497 9.401789,4.993028 2.385248,0.730347 3.573027,1.527382 7.273278,4.880598 4.78448,4.335755 6.383375,5.442006 9.426713,6.522192 1.681539,0.596837 2.677952,2.003554 2.082495,2.940023 -0.610068,0.959441 -5.074876,0.819622 -7.380895,-0.231137 -1.454988,-0.66298 -2.810999,-1.766873 -6.45261,-5.252905 -3.820566,-3.657343 -4.975461,-4.602231 -5.528543,-4.523241 -0.362091,0.05171 -0.405296,0.18114 -0.386347,1.157372 0.02396,1.234198 0.338693,1.858054 1.859091,3.684998 1.028169,1.235468 3.507025,3.375569 5.311088,4.585283 2.374089,1.591942 5.626443,2.976547 8.163338,3.475327 2.071984,0.407374 6.908136,0.240758 9.179342,-0.316246 z m -37.494359,-23.820839 -0.242012,-0.563947 -0.06887,0.749309 c -0.03788,0.41212 -0.0091,0.893174 0.06389,1.069009 0.10817,0.260478 0.165757,0.226144 0.310882,-0.185363 0.120071,-0.340465 0.09925,-0.688851 -0.06389,-1.069008 z M 44.49893,50.363345 c 0.08774,-0.26351 -1.853278,-1.262613 -2.125773,-1.094202 -0.278657,0.172219 0.190467,0.784402 0.853586,1.113884 0.712967,0.35425 1.149933,0.34749 1.272187,-0.01968 z m 7.492279,-5.879276 c -0.398482,-1.187086 -0.835776,-1.512923 -0.835776,-0.622755 0,0.657011 0.472056,2.100891 0.828654,2.534608 0.403761,0.491082 0.408263,-0.716852 0.0071,-1.911853 z m -20.346094,-0.09345 c 1.458046,-0.60921 3.425288,-2.664695 6.048319,-6.319624 1.29797,-1.80859 2.581181,-3.120621 3.949283,-4.037983 0.487202,-0.326687 1.000832,-0.732554 1.141399,-0.901927 0.218801,-0.263639 0.199404,-0.30795 -0.134805,-0.30795 -0.618836,0 -2.464985,1.347812 -5.196625,3.793882 -1.389711,1.244429 -3.108227,2.604102 -3.818925,3.021496 -1.41649,0.831907 -2.175466,1.615345 -2.718094,2.805699 -0.458004,1.004716 -0.476039,2.2352 -0.03276,2.2352 0.03907,0 0.382061,-0.129957 0.762209,-0.288793 z m 25.423127,-14.06943 c 0.135332,-0.218975 -1.009131,-0.405301 -1.690008,-0.275143 -0.288931,0.05523 -0.477458,0.177887 -0.418944,0.272564 0.137655,0.222732 1.971503,0.224974 2.108952,0.0026 z"
       id="path2612"
       inkscape:connector-curvature="0"
       transform="matrix(0.26458333,0,0,0.26458333,0,87)" />
  </g>
</svg>
