<?xml version="1.0" encoding="UTF-8" standalone="no"?>
<!-- Created with Inkscape (http://www.inkscape.org/) -->

<svg
   xmlns:dc="http://purl.org/dc/elements/1.1/"
   xmlns:cc="http://creativecommons.org/ns#"
   xmlns:rdf="http://www.w3.org/1999/02/22-rdf-syntax-ns#"
   xmlns:svg="http://www.w3.org/2000/svg"
   xmlns="http://www.w3.org/2000/svg"
   xmlns:sodipodi="http://sodipodi.sourceforge.net/DTD/sodipodi-0.dtd"
   xmlns:inkscape="http://www.inkscape.org/namespaces/inkscape"
   width="297mm"
   height="210mm"
   viewBox="0 0 297 210"
   version="1.1"
   id="svg1549"
   sodipodi:docname="D.svg"
   inkscape:version="0.92.2 (5c3e80d, 2017-08-06)">
  <defs
     id="defs1543">
    <inkscape:path-effect
       effect="spiro"
       id="path-effect3199"
       is_visible="true" />
  </defs>
  <sodipodi:namedview
     id="base"
     pagecolor="#ffffff"
     bordercolor="#666666"
     borderopacity="1.0"
     inkscape:pageopacity="0.0"
     inkscape:pageshadow="2"
     inkscape:zoom="4.1786427"
     inkscape:cx="84.696793"
     inkscape:cy="752.26651"
     inkscape:document-units="mm"
     inkscape:current-layer="layer1"
     showgrid="false"
     inkscape:window-width="1366"
     inkscape:window-height="705"
     inkscape:window-x="-8"
     inkscape:window-y="-8"
     inkscape:window-maximized="1" />
  <metadata
     id="metadata1546">
    <rdf:RDF>
      <cc:Work
         rdf:about="">
        <dc:format>image/svg+xml</dc:format>
        <dc:type
           rdf:resource="http://purl.org/dc/dcmitype/StillImage" />
        <dc:title />
      </cc:Work>
    </rdf:RDF>
  </metadata>
  <g
     inkscape:label="Capa 1"
     inkscape:groupmode="layer"
     id="layer1"
     transform="translate(0,-87)">
    <path
       style="opacity:1;fill:#006680;fill-opacity:1;fill-rule:nonzero;stroke:none;stroke-width:0.6649999;stroke-linecap:butt;stroke-linejoin:miter;stroke-miterlimit:4;stroke-dasharray:none;stroke-dashoffset:0;stroke-opacity:1;paint-order:stroke fill markers"
       d="M 0.80980535,92.313934 C 0.64217856,92.242909 0.54021353,92.148186 0.50715061,92.032769 0.4478594,91.825802 0.46266677,88.279904 0.52528166,87.687927 l 0.0435989,-0.41213 0.71765094,0.0019 c 0.9477846,0.0024 1.886514,0.09496 2.2879109,0.225666 0.3877709,0.126278 0.7248746,0.429496 0.8956883,0.805658 0.1888407,0.415853 0.2922113,1.52861 0.2094856,2.255069 -0.1053988,0.925583 -0.4311351,1.313344 -1.3777549,1.640115 -0.6400415,0.220939 -2.0800481,0.28441 -2.4920581,0.109843 z M 2.8448869,91.014238 c 0.3417569,-0.114267 0.4878528,-0.445329 0.496587,-1.125312 0.011165,-0.868854 -0.3047457,-1.33953 -0.9804668,-1.460831 -0.3577682,-0.06422 -0.5638036,0.151383 -0.6282985,0.657485 -0.07025,0.551272 -0.00587,1.786886 0.099597,1.91148 0.1057363,0.124914 0.6621208,0.134353 1.012579,0.01716 z"
       id="path2950"
       inkscape:connector-curvature="0" />
    <path
       style="opacity:1;fill:#006680;fill-opacity:1;fill-rule:nonzero;stroke:none;stroke-width:0.6649999;stroke-linecap:butt;stroke-linejoin:miter;stroke-miterlimit:4;stroke-dasharray:none;stroke-dashoffset:0;stroke-opacity:1;paint-order:stroke fill markers"
       d="m 2.5758621,103.13466 v -8.803154 h 0.9719065 c 1.2569818,0 1.6059417,-0.07252 1.9443111,-0.404036 l 0.2595951,-0.254343 -0.04826,-0.72436 c -0.03761,-0.564474 -0.022134,-0.870248 0.070147,-1.385284 l 0.1184074,-0.66092 h 9.0693168 9.069317 v 10.517627 10.51763 h -1.032922 -1.032919 l -0.08271,-0.60996 c -0.307825,-2.26996 -0.73159,-4.14126 -1.104153,-4.8758 -0.172948,-0.34098 -0.251105,-0.42756 -0.433491,-0.48016 -0.179869,-0.0519 -0.214996,-0.0898 -0.183335,-0.19782 0.150893,-0.51492 0.114879,-0.59296 -0.185021,-0.40096 l -0.148959,0.0953 -0.008,-0.70534 c -0.0098,-0.86283 -0.277179,-2.15692 -0.777439,-3.76246 -0.461291,-1.480475 -0.616565,-2.077147 -0.899957,-3.458306 -0.132516,-0.645818 -0.286189,-1.323617 -0.341495,-1.506218 -0.09155,-0.302271 -0.115222,-0.328398 -0.264262,-0.291724 l -0.163702,0.04028 -5.44e-4,-0.644181 c -0.0011,-1.217636 -0.214997,-1.97449 -0.711493,-2.515915 -0.521909,-0.569141 -1.147309,-0.625649 -1.828632,-0.165227 -0.496364,0.335429 -0.749562,0.694143 -0.812609,1.151236 -0.09175,0.66513 0.129651,3.979282 0.364168,5.451441 0.111141,0.697485 0.12278,1.006304 0.03796,1.006304 -0.03252,0 -0.236813,-0.07982 -0.453981,-0.177391 -0.546363,-0.245475 -1.39093,-0.296714 -1.639125,-0.09945 -0.09246,0.07349 -0.143077,0.158233 -0.112489,0.188322 0.03059,0.0301 0.287847,0.04598 0.571678,0.0353 0.749342,-0.02818 0.538318,0.10853 -0.296842,0.1923 -0.769592,0.0772 -0.910222,0.15659 -0.856137,0.48335 0.03262,0.19709 0.01856,0.21885 -0.164589,0.25477 -0.443722,0.087 -1.9915858,1.50148 -2.23607,2.04337 -0.089873,0.19921 -0.1445688,0.51077 -0.1715843,0.97739 -0.055721,0.96246 -0.1370736,1.32762 -0.4418872,1.98349 -0.3398203,0.73117 -0.4253882,1.22972 -0.3249039,1.89296 0.1198481,0.79102 0.5013945,1.5014 0.7315168,1.36196 0.03228,-0.0196 0.070765,0.41675 0.085521,0.96958 0.023389,0.87679 0.045729,1.04048 0.1748164,1.28181 0.1066954,0.19946 0.1261044,0.28992 0.069561,0.32418 -0.1297163,0.0786 -2.2379981,0.1493 -4.5780651,0.15351 l -2.2026436,0.004 z"
       id="path2952"
       inkscape:connector-curvature="0" />
    <path
       style="opacity:1;fill:#006680;fill-opacity:1;fill-rule:nonzero;stroke:none;stroke-width:0.6649999;stroke-linecap:butt;stroke-linejoin:miter;stroke-miterlimit:4;stroke-dasharray:none;stroke-dashoffset:0;stroke-opacity:1;paint-order:stroke fill markers"
       d="m 13.800327,110.20685 c -1.763104,-1.70194 -2.365396,-2.40438 -2.616257,-3.0513 -0.05662,-0.14599 -0.04336,-0.17528 0.104214,-0.23029 0.317472,-0.11835 1.007755,0.21686 1.92875,0.93661 0.526704,0.41161 1.233013,0.80336 1.57702,0.87467 0.659432,0.13671 1.415471,-0.49562 1.601679,-1.33959 0.08917,-0.40419 0.05088,-1.26122 -0.06405,-1.43319 -0.144697,-0.21651 -0.402105,-0.2049 -0.640583,0.029 -0.172823,0.16945 -0.235696,0.32165 -0.363924,0.88101 -0.02246,0.098 -0.110762,0.2579 -0.196207,0.35529 -0.144054,0.1642 -0.172151,0.17147 -0.386244,0.1 -0.417213,-0.13925 -0.873199,-0.64151 -0.997062,-1.09824 -0.08686,-0.3203 -0.337456,-0.56952 -0.747091,-0.743 -0.372149,-0.1576 -0.639064,-0.4243 -0.578789,-0.5783 0.038,-0.0971 0.101038,-0.10414 0.496116,-0.0554 1.348139,0.16623 2.10036,-0.20733 2.10036,-1.04306 0,-0.4411 -0.157446,-0.67833 -0.586961,-0.88437 -0.302802,-0.14525 -0.421651,-0.16559 -0.841233,-0.14398 -1.089976,0.0561 -1.944031,0.77024 -2.504192,2.09382 -0.217187,0.51318 -0.453776,0.86289 -0.583779,0.86289 -0.155257,0 -0.259028,-0.41804 -0.259028,-1.0435 0,-0.74337 0.08149,-1.03395 0.433711,-1.54663 0.306429,-0.44601 1.395469,-1.62306 1.81974,-1.96681 0.293545,-0.23782 0.361046,-0.2643 0.602279,-0.23622 0.149426,0.0174 0.453277,0.097 0.675223,0.17675 0.525421,0.18897 1.272631,0.16968 1.560294,-0.0403 0.162806,-0.11882 0.191469,-0.19026 0.211219,-0.52641 0.02571,-0.43751 -0.06839,-1.626541 -0.260381,-3.290348 -0.319756,-2.770965 -0.35202,-3.501567 -0.160698,-3.638731 0.267041,-0.191447 0.7398,-0.0127 0.953694,0.360543 0.164987,0.287921 0.458601,1.406483 0.756644,2.882541 0.303228,1.501754 0.625873,2.801159 1.006959,4.055385 0.181824,0.59841 0.469279,1.62216 0.638789,2.27498 0.363368,1.39939 0.634601,2.23162 0.977845,3.00032 0.825432,1.84857 1.528379,4.98838 1.180233,5.27166 -0.147744,0.12022 -1.476395,0.19162 -3.670268,0.19724 l -1.648118,0.004 z"
       id="path2954"
       inkscape:connector-curvature="0" />
    <path
       style="opacity:1;fill:#006680;fill-opacity:1;fill-rule:nonzero;stroke:none;stroke-width:0.6649999;stroke-linecap:butt;stroke-linejoin:miter;stroke-miterlimit:4;stroke-dasharray:none;stroke-dashoffset:0;stroke-opacity:1;paint-order:stroke fill markers"
       d="m 10.736351,109.89293 c -0.60945,-0.62503 -1.3822519,-2.2421 -1.2738608,-2.66551 0.064622,-0.25246 0.1534626,-0.20752 0.3498449,0.17693 0.097261,0.19041 0.3955979,0.67261 0.6629789,1.07155 0.520896,0.77719 0.709347,1.17172 0.709347,1.48501 0,0.27204 -0.137019,0.25126 -0.44831,-0.068 z"
       id="path2958"
       inkscape:connector-curvature="0" />
    <path
       style="opacity:1;fill:#006680;fill-opacity:1;fill-rule:nonzero;stroke:none;stroke-width:0.6649999;stroke-linecap:butt;stroke-linejoin:miter;stroke-miterlimit:4;stroke-dasharray:none;stroke-dashoffset:0;stroke-opacity:1;paint-order:stroke fill markers"
       d="m 11.641613,111.62006 c -0.101573,-0.0113 -0.193519,-0.0292 -0.204333,-0.0397 -0.07058,-0.0692 0.243361,-0.25161 0.492522,-0.28617 0.222606,-0.0309 0.485788,0.007 0.752892,0.1079 0.266361,0.10079 0.358244,0.15974 0.29932,0.19206 -0.05661,0.0311 -1.110418,0.0515 -1.340401,0.026 z"
       id="path2960"
       inkscape:connector-curvature="0" />
    <path
       style="opacity:1;fill:#006680;fill-opacity:1;fill-rule:nonzero;stroke:none;stroke-width:0.6649999;stroke-linecap:butt;stroke-linejoin:miter;stroke-miterlimit:4;stroke-dasharray:none;stroke-dashoffset:0;stroke-opacity:1;paint-order:stroke fill markers"
       d="m 9.432966,104.88429 c -0.036921,-0.0676 -0.037631,-0.48637 -8.17e-4,-0.54016 0.023852,-0.0349 0.032671,-0.0336 0.066875,0.0103 0.021671,0.0278 0.054486,0.11664 0.072915,0.1974 0.027701,0.12136 0.026713,0.16581 -0.00566,0.25612 -0.045287,0.12616 -0.091509,0.15265 -0.1331747,0.0763 z"
       id="path2964"
       inkscape:connector-curvature="0" />
    <path
       style="opacity:1;fill:#006680;fill-opacity:1;fill-rule:nonzero;stroke:none;stroke-width:0.6649999;stroke-linecap:butt;stroke-linejoin:miter;stroke-miterlimit:4;stroke-dasharray:none;stroke-dashoffset:0;stroke-opacity:1;paint-order:stroke fill markers"
       d="m 11.209289,106.17366 c -0.123182,-0.0978 -0.0058,-0.24608 0.194874,-0.24608 0.16202,0 0.381062,0.12401 0.381062,0.21574 0,0.0596 -0.07655,0.0787 -0.318606,0.0791 -0.149037,2.6e-4 -0.210117,-0.0113 -0.25733,-0.0487 z"
       id="path2966"
       inkscape:connector-curvature="0" />
    <path
       style="opacity:1;fill:#006680;fill-opacity:1;fill-rule:nonzero;stroke:none;stroke-width:0.6649999;stroke-linecap:butt;stroke-linejoin:miter;stroke-miterlimit:4;stroke-dasharray:none;stroke-dashoffset:0;stroke-opacity:1;paint-order:stroke fill markers"
       d="m 8.6450269,108.00532 c -0.02767,-0.0664 -0.028061,-0.83226 -5.454e-4,-0.85931 0.082032,-0.0803 0.155748,0.36813 0.109094,0.66365 -0.032866,0.20815 -0.073203,0.28079 -0.1086525,0.19566 z"
       id="path2968"
       inkscape:connector-curvature="0" />
    <path
       style="opacity:1;fill:#006680;fill-opacity:1;fill-rule:nonzero;stroke:none;stroke-width:0.6649999;stroke-linecap:butt;stroke-linejoin:miter;stroke-miterlimit:4;stroke-dasharray:none;stroke-dashoffset:0;stroke-opacity:1;paint-order:stroke fill markers"
       d="m 21.559683,111.27956 c 0.0013,-0.0313 0.0078,-0.0376 0.01653,-0.0162 0.0079,0.0194 0.0069,0.0426 -0.0022,0.0515 -0.0091,0.009 -0.01557,-0.007 -0.01438,-0.0352 z"
       id="path2976"
       inkscape:connector-curvature="0" />
    <path
       style="opacity:1;fill:#006680;fill-opacity:1;fill-rule:nonzero;stroke:none;stroke-width:0.6649999;stroke-linecap:butt;stroke-linejoin:miter;stroke-miterlimit:4;stroke-dasharray:none;stroke-dashoffset:0;stroke-opacity:1;paint-order:stroke fill markers"
       d="m 21.120987,109.36958 c -0.05184,-0.18301 -0.0193,-0.50322 0.05113,-0.50322 0.08672,0 0.151267,0.42749 0.08333,0.55195 -0.04484,0.0821 -0.103398,0.0609 -0.134465,-0.0487 z"
       id="path2978"
       inkscape:connector-curvature="0" />
    <path
       style="opacity:1;fill:#006680;fill-opacity:1;fill-rule:nonzero;stroke:none;stroke-width:0.6649999;stroke-linecap:butt;stroke-linejoin:miter;stroke-miterlimit:4;stroke-dasharray:none;stroke-dashoffset:0;stroke-opacity:1;paint-order:stroke fill markers"
       d="m 21.437715,111.84433 c -0.02725,-0.0696 -0.01887,-0.85364 0.0096,-0.89778 0.02071,-0.0321 0.03261,-0.0334 0.06018,-0.006 0.04203,0.0412 0.06537,0.66647 0.03074,0.82272 -0.02513,0.11333 -0.07287,0.15201 -0.100502,0.0814 z"
       id="path2984"
       inkscape:connector-curvature="0" />
    <path
       style="opacity:1;fill:#006680;fill-opacity:1;fill-rule:nonzero;stroke:none;stroke-width:0.6649999;stroke-linecap:butt;stroke-linejoin:miter;stroke-miterlimit:4;stroke-dasharray:none;stroke-dashoffset:0;stroke-opacity:1;paint-order:stroke fill markers"
       d="m 17.605705,97.561275 c -0.02238,-0.109703 -0.02238,-0.502963 0,-0.612665 0.03954,-0.193853 0.142711,0.0276 0.142711,0.306334 0,0.278736 -0.103169,0.500184 -0.142711,0.306331 z"
       id="path2986"
       inkscape:connector-curvature="0" />
    <path
       style="opacity:1;fill:#ffffff;fill-opacity:1;fill-rule:nonzero;stroke:none;stroke-width:2.51338577;stroke-linecap:butt;stroke-linejoin:miter;stroke-miterlimit:4;stroke-dasharray:none;stroke-dashoffset:0;stroke-opacity:1;paint-order:stroke fill markers"
       d="m 81.929189,93.482834 c -0.298102,-0.0573 -0.475169,-0.212313 -0.393484,-0.344481 0.224431,-0.363137 -0.14364,-2.863408 -0.398355,-2.705986 -0.121929,0.07536 -0.221689,0.7768 -0.221689,1.558762 v 1.421749 h -2.054095 c -1.512197,0 -2.028372,-0.07718 -1.956583,-0.29254 0.05363,-0.160897 0.35187,-0.352583 0.662751,-0.425973 0.808325,-0.190821 0.992899,-1.182353 0.68836,-3.697895 C 77.737062,84.709193 75.992457,78.479797 73.729079,72.832032 71.943238,68.375858 71.625166,67.408621 70.017074,61.544063 69.283279,58.867984 68.108397,54.686188 67.406229,52.251187 65.903088,47.038552 64.967516,43.274119 63.81087,37.784644 62.752196,32.76015 61.679556,28.46068 61.162008,27.167201 c -0.803962,-2.009296 -2.999479,-3.102184 -4.073802,-2.027862 -0.362261,0.362262 -0.39289,0.807074 -0.26778,3.888822 0.0777,1.913875 0.470126,6.387416 0.87206,9.941201 0.401935,3.553786 0.799686,7.971742 0.88389,9.817681 0.152904,3.351856 0.152306,3.357179 -0.45695,4.06548 -0.564858,0.656685 -0.750688,0.715615 -2.508333,0.795436 -1.415157,0.06426 -2.35963,-0.04325 -3.71102,-0.422451 -3.442002,-0.965828 -3.512406,-0.938606 -7.168831,2.771991 -4.507783,4.574572 -5.785162,6.585023 -6.05857,9.535513 -0.1794,1.936004 0.189114,4.594901 0.708874,5.114663 0.317159,0.317158 0.415146,0.305379 0.86787,-0.104331 0.280689,-0.25402 0.998054,-1.485262 1.594144,-2.736094 2.462576,-5.167453 4.763112,-7.275968 8.669447,-7.945831 1.927517,-0.330533 3.39556,-0.07068 4.727039,0.836719 1.046802,0.713392 1.387714,1.447721 1.372783,2.956989 -0.01579,1.596186 -0.545279,2.381496 -2.153599,3.194102 -1.100471,0.556015 -1.408131,0.595635 -4.355009,0.560851 l -3.170886,-0.03743 v 0.563702 c 0,0.611215 0.888597,1.393668 2.512777,2.212621 1.271904,0.641327 1.872766,1.329927 2.596298,2.975408 0.708504,1.611306 2.422163,3.378715 3.677735,3.793091 0.851913,0.281156 0.90257,0.26465 1.543269,-0.5028 0.367366,-0.440047 0.789419,-1.360901 0.947509,-2.067317 0.350898,-1.567976 0.891648,-2.487312 1.723837,-2.930715 0.890167,-0.474293 1.719099,-0.06618 1.921542,0.946039 0.282645,1.413223 0.161507,4.429477 -0.223242,5.558657 -0.740506,2.173268 -3.17096,4.22531 -5.020242,4.238613 -1.089263,0.0078 -4.223787,-1.621804 -6.927393,-3.601552 -3.084254,-2.258482 -5.137106,-3.333245 -6.366673,-3.333245 -1.206685,0 -1.39933,0.447971 -0.757045,1.760409 0.883855,1.806053 2.647197,3.800679 8.863201,10.025715 l 6.153347,6.162288 h -4.125899 c -3.760667,0 -4.166893,-0.04099 -4.588985,-0.463086 -1.087725,-1.087724 -3.796094,-1.285137 -5.137983,-0.374507 -0.846168,0.574225 -1.030083,0.598281 -4.57418,0.598281 H 35.458642 L 35.084448,92.210639 C 34.835338,91.728913 34.669585,90.54897 34.58859,88.680784 34.405885,84.466579 34.320406,83.98513 33.706911,83.71482 33.415564,83.586451 32.938542,83.046749 32.646863,82.515481 31.2839,80.032969 30.989105,76.210151 31.95549,73.549967 c 0.310798,-0.855541 0.898417,-2.477017 1.305818,-3.603278 0.564783,-1.561342 0.801382,-2.755076 0.99607,-5.025555 0.33031,-3.852119 0.528788,-4.459407 2.066895,-6.324125 1.548914,-1.877821 5.304264,-5.052655 6.714308,-5.676384 0.916674,-0.405488 1.023008,-0.537548 1.023008,-1.270499 0,-0.58586 0.142514,-0.894245 0.50222,-1.086755 0.387239,-0.207244 4.269025,-0.893395 5.3011,-0.937031 0.09872,-0.0042 0.179484,-0.115279 0.179484,-0.246901 0,-0.139598 -0.797707,-0.239312 -1.914497,-0.239312 -1.894837,0 -2.236289,-0.152956 -1.572058,-0.704219 0.92573,-0.768288 4.048162,-0.494472 6.888192,0.604048 0.620494,0.240008 1.205405,0.359143 1.299803,0.264746 0.0944,-0.0944 -0.06343,-1.973859 -0.350732,-4.176581 -0.946741,-7.258669 -1.661732,-17.57038 -1.37051,-19.765719 0.205947,-1.552506 0.8356,-2.741417 2.017243,-3.808961 3.095883,-2.796943 6.315725,-2.557248 8.513465,0.633771 1.280387,1.859066 1.804852,3.940713 1.972267,7.828096 0.13989,3.248298 0.140443,3.250783 0.699974,3.143822 0.72049,-0.13773 0.798037,0.07207 1.899167,5.138189 1.255192,5.77493 2.05063,8.886395 3.668222,14.348767 1.922203,6.490988 2.631412,9.787092 2.959669,13.755287 0.211576,2.557646 0.347943,3.303946 0.585971,3.206843 1.154712,-0.471062 1.103576,-0.506378 0.931197,0.643142 -0.158504,1.056974 -0.140201,1.098789 0.697181,1.592856 1.893339,1.117098 3.699076,7.142892 5.274375,17.600735 0.662193,4.396064 0.644795,4.217764 0.407352,4.17465 -0.09872,-0.01793 -0.423384,-0.07947 -0.721485,-0.136767 z M 42.344514,86.759651 c 0.105833,-0.742897 -1.005592,-3.034629 -2.866503,-5.910661 -0.851647,-1.316217 -1.864419,-2.957135 -2.250606,-3.646483 -0.832783,-1.486529 -1.237389,-1.721538 -1.457059,-0.846304 -0.217386,0.866133 0.225434,2.431546 1.366767,4.831665 2.241078,4.712781 4.92124,7.580485 5.207401,5.571783 z m 38.049021,-3.048708 c -0.111869,-1.337444 -0.674435,-1.37918 -0.674435,-0.05003 0,0.581329 0.07359,1.130551 0.16353,1.220492 0.323325,0.323325 0.585594,-0.277521 0.510905,-1.170457 z M 33.157096,78.69518 c 0.178774,-0.952943 -0.05079,-2.512777 -0.369812,-2.512777 -0.116973,0 -0.212679,0.753833 -0.212679,1.675185 0,1.776474 0.320026,2.236654 0.582491,0.837592 z m 11.382627,-6.262167 c 0.189292,-0.19033 -0.965176,-1.036854 -1.414032,-1.036854 -0.426072,0 -0.978599,0.436733 -0.978599,0.77351 0,0.521258 1.925361,0.733169 2.392631,0.263344 z m -8.294018,-6.041275 c -0.200607,-0.841912 -0.314959,-1.010197 -0.576578,-0.848505 -0.261709,0.161744 -0.301827,1.86511 -0.04986,2.117077 0.312933,0.312934 0.778585,-0.630035 0.626438,-1.268572 z M 67.075442,38.767385 c 0,-1.301837 -0.271578,-1.911047 -0.542973,-1.218011 -0.228249,0.582858 -0.26225,1.855598 -0.06342,2.37375 0.259353,0.675859 0.606391,0.01443 0.606391,-1.155739 z"
       id="path3201"
       inkscape:connector-curvature="0"
       transform="matrix(0.26458333,0,0,0.26458333,0,87)" />
    <path
       style="opacity:1;fill:#ffffff;fill-opacity:1;fill-rule:nonzero;stroke:none;stroke-width:2.51338577;stroke-linecap:butt;stroke-linejoin:miter;stroke-miterlimit:4;stroke-dasharray:none;stroke-dashoffset:0;stroke-opacity:1;paint-order:stroke fill markers"
       d="m 81.662765,93.435969 c -0.181389,-0.114891 -0.255605,-0.328939 -0.164924,-0.475661 0.218046,-0.352809 -0.09803,-2.419176 -0.370039,-2.419176 -0.116677,0 -0.212141,0.646143 -0.212141,1.435873 v 1.435873 h -2.034153 c -2.105339,0 -2.509518,-0.225305 -1.376045,-0.767053 0.615709,-0.294282 0.662612,-0.424884 0.728016,-2.027189 C 78.373293,87.193399 76.553627,80.162066 73.507772,72.358137 72.439095,69.62003 71.053447,65.336065 69.869711,61.110466 68.818135,57.356646 67.374673,52.201987 66.662014,49.655662 65.949356,47.10934 64.76726,42.26327 64.035137,38.886616 62.385951,31.280353 61.615143,28.270564 60.96177,26.885948 60.086407,25.030896 58.061843,24.150622 57.104276,25.20872 c -0.389459,0.430348 -0.417734,0.797129 -0.281321,3.64951 0.08341,1.744094 0.479287,6.186413 0.879728,9.87182 0.400441,3.685407 0.795058,8.211319 0.876926,10.057584 0.148651,3.352359 0.148032,3.357796 -0.463121,4.068304 -0.574304,0.667667 -0.735828,0.716544 -2.624286,0.794098 -1.532529,0.06294 -2.413754,-0.03691 -3.696035,-0.418792 -3.239426,-0.964741 -3.669616,-0.772286 -7.68396,3.437602 -2.789657,2.925546 -4.4211,5.093501 -4.983021,6.621727 -0.774445,2.10621 -0.357884,7.626962 0.575482,7.626962 0.395509,0 0.946702,-0.822501 2.084852,-3.111058 2.112271,-4.247288 3.720899,-6.067896 6.499304,-7.355759 1.165812,-0.540384 1.732744,-0.648505 3.430754,-0.65428 1.779964,-0.0061 2.169821,0.07284 3.119834,0.631361 1.352137,0.794928 1.789607,1.59105 1.773417,3.227328 -0.01522,1.539112 -0.52277,2.332736 -2.042704,3.194102 -0.993077,0.562788 -1.250915,0.596643 -4.346248,0.570678 -3.061681,-0.02568 -3.290542,0.0034 -3.290542,0.418796 0,0.58093 0.633298,1.198042 2.069612,2.016717 1.698777,0.968276 2.427243,1.728274 3.105749,3.240188 0.698857,1.55726 2.204813,3.138019 3.505111,3.679219 0.874992,0.364181 0.920521,0.358073 1.476656,-0.198062 0.320867,-0.320867 0.803019,-1.34341 1.093738,-2.319586 0.61715,-2.07228 1.541235,-3.174952 2.561573,-3.056621 0.411459,0.04772 0.76679,0.298314 0.956014,0.674226 0.436515,0.867181 0.393046,4.691317 -0.06873,6.046554 -0.740506,2.173268 -3.17096,4.22531 -5.020242,4.238613 -1.046742,0.0075 -4.176056,-1.586572 -6.731192,-3.428931 -3.914695,-2.822663 -5.82799,-3.735948 -7.137904,-3.407181 -0.555815,0.139502 -0.622381,0.249531 -0.489526,0.80915 0.371364,1.564291 2.597286,4.207443 8.859054,10.519605 l 6.469476,6.521541 -4.222187,-2.39e-4 c -3.392223,-2.3e-4 -4.247387,-0.06595 -4.350381,-0.334353 -0.07051,-0.183736 -0.686353,-0.519458 -1.368549,-0.746046 -1.513749,-0.502787 -3.118725,-0.370574 -4.073863,0.335588 -0.626247,0.462959 -0.993535,0.505169 -4.39622,0.505169 H 35.458642 L 35.080746,92.203483 C 34.821208,91.70159 34.640654,90.355656 34.504272,87.906157 L 34.305695,84.339602 33.47637,83.551544 c -1.218968,-1.158311 -1.91116,-3.175301 -2.042343,-5.951214 -0.100012,-2.116341 -0.05002,-2.454599 0.654278,-4.427275 1.636158,-4.582711 1.884321,-5.545222 2.155076,-8.358566 0.358684,-3.726997 0.559218,-4.349192 1.959522,-6.079807 1.543126,-1.907122 5.029513,-4.907421 6.602297,-5.681773 1.132239,-0.557451 1.256389,-0.695673 1.256389,-1.398784 0,-0.429113 0.14198,-0.898038 0.315511,-1.042056 0.173531,-0.144019 1.437442,-0.430363 2.80869,-0.636322 3.189861,-0.47911 3.604566,-0.835618 0.972025,-0.835618 -1.478924,0 -1.957246,-0.07596 -1.883633,-0.29914 0.35524,-1.077001 3.428049,-1.115946 6.389088,-0.08098 0.979707,0.342437 1.870716,0.533181 1.98002,0.423877 0.109304,-0.109303 -0.0691,-2.398441 -0.396462,-5.086972 -0.815581,-6.698229 -1.146456,-11.116823 -1.181413,-15.776944 -0.03372,-4.495344 0.146877,-5.113646 1.976419,-6.766528 2.27156,-2.052217 4.507873,-2.49454 6.552862,-1.296096 2.636294,1.544971 4.004987,5.246786 4.004987,10.83203 0,1.997024 0.0059,2.016837 0.604203,2.016837 0.789946,0 0.802617,0.03775 2.393598,7.130493 0.729371,3.251611 2.017117,8.28121 2.861657,11.176887 2.432897,8.34169 3.080388,11.292277 3.36101,15.315978 0.183806,2.635526 0.30329,3.135856 0.662966,2.776179 0.14487,-0.14487 0.415626,-0.263401 0.601679,-0.263401 0.263887,0 0.303742,0.230302 0.181236,1.04724 -0.151045,1.007233 -0.125098,1.066087 0.67918,1.540622 1.807,1.066157 3.501574,6.377741 5.015054,15.719518 0.977571,6.033952 0.982934,6.103025 0.473553,6.098796 -0.242689,-0.0019 -0.589663,-0.09767 -0.771054,-0.212556 z M 42.296447,87.080006 c 0.07388,-0.192539 -0.04194,-0.880779 -0.257385,-1.529427 -0.500436,-1.506671 -5.467024,-9.487832 -5.904173,-9.487832 -0.571012,0 -0.321039,2.039803 0.488186,3.98365 1.388812,3.336076 4.246182,7.383677 5.212444,7.383677 0.179627,0 0.387045,-0.157532 0.460928,-0.350068 z m 38.14059,-2.994853 c 0,-0.878422 -0.230149,-1.475233 -0.5037,-1.306168 -0.24389,0.150733 -0.293875,1.859247 -0.0612,2.091921 0.286808,0.286808 0.564901,-0.100006 0.564901,-0.785753 z M 33.117921,78.663168 c 0.15662,-0.819302 -0.06809,-2.480765 -0.335514,-2.480765 -0.114291,0 -0.207802,0.699988 -0.207802,1.555529 0,1.561538 0.318119,2.103276 0.543316,0.925236 z M 44.540213,72.38271 c 0,-0.280374 -0.485636,-0.654244 -1.089458,-0.838727 -0.582192,-0.177876 -1.450355,0.378465 -1.206445,0.773121 0.197361,0.319336 2.295903,0.379303 2.295903,0.06561 z m -8.375925,-5.528032 c 0,-0.878422 -0.23015,-1.475233 -0.503701,-1.306169 -0.243889,0.150734 -0.293873,1.859248 -0.0612,2.091921 0.286809,0.286809 0.564901,-0.100006 0.564901,-0.785752 z M 67.035556,38.715927 c 0,-1.408628 -0.343525,-1.744045 -0.59828,-0.584157 -0.187791,0.855005 0.06669,2.214788 0.378441,2.022118 0.120912,-0.07473 0.219839,-0.72181 0.219839,-1.437961 z"
       id="path3203"
       inkscape:connector-curvature="0"
       transform="matrix(0.26458333,0,0,0.26458333,0,87)" />
    <path
       style="opacity:1;fill:#ffffff;fill-opacity:1;fill-rule:nonzero;stroke:none;stroke-width:2.51338577;stroke-linecap:butt;stroke-linejoin:miter;stroke-miterlimit:4;stroke-dasharray:none;stroke-dashoffset:0;stroke-opacity:1;paint-order:stroke fill markers"
       d="m 81.494529,93.328927 c -0.06823,-0.177794 -0.105939,-0.420098 -0.0838,-0.538452 0.02214,-0.118354 0.02749,-0.619029 0.01189,-1.11261 -0.04493,-1.423036 -0.506957,-1.041362 -0.506957,0.418796 v 1.316217 h -2.034153 c -2.038193,0 -2.606301,-0.27294 -1.468511,-0.705528 0.691273,-0.262822 0.87023,-0.690583 0.87023,-2.080121 0,-3.700706 -1.888326,-10.820008 -4.973902,-18.752445 C 71.779297,67.94137 71.558819,67.229213 68.371083,55.923903 65.915281,47.214403 65.232231,44.534633 63.8195,38.066949 61.720522,28.457525 61.038042,26.289777 59.843953,25.439511 c -1.081966,-0.770428 -2.003,-0.847793 -2.629888,-0.220905 -0.518852,0.518852 -0.532522,0.643879 -0.380772,3.482484 0.08657,1.619371 0.483552,6.046023 0.882179,9.837005 0.39863,3.790983 0.789625,8.403274 0.868883,10.249539 0.143649,3.346247 0.14218,3.359084 -0.465441,4.065483 -0.567639,0.65992 -0.744643,0.71477 -2.574802,0.797883 -1.497339,0.068 -2.439156,-0.03811 -3.955628,-0.445637 -2.637848,-0.708888 -3.242433,-0.574404 -5.142239,1.143833 -2.325424,2.103178 -5.877254,6.223875 -6.748412,7.82925 -0.768475,1.416147 -0.781455,1.491745 -0.781455,4.551126 0,3.414781 0.257947,4.386944 1.05134,3.962332 0.238131,-0.127443 1.164427,-1.632314 2.058437,-3.34416 2.044397,-3.914598 3.374476,-5.452832 5.715305,-6.609732 1.366009,-0.675119 2.129974,-0.888863 3.564861,-0.997384 1.648803,-0.124698 1.952985,-0.07612 3.130378,0.499926 1.679397,0.821652 2.164667,1.556797 2.17822,3.299832 0.01266,1.628294 -0.476715,2.420195 -2.044794,3.308843 -0.981063,0.555979 -1.28272,0.59828 -4.266439,0.59828 -3.531214,0 -3.873588,0.148206 -2.857544,1.236957 0.310254,0.332454 0.964942,0.810026 1.454864,1.061268 1.401767,0.718855 2.536431,1.843548 3.064684,3.037752 0.962524,2.175945 2.994117,4.116853 4.309202,4.116853 0.812551,0 1.227616,-0.597464 1.933953,-2.783811 0.632517,-1.957858 1.564231,-3.028775 2.536929,-2.91597 1.055202,0.122374 1.295069,0.900699 1.203437,3.90494 -0.09333,3.059764 -0.447201,3.970928 -2.152812,5.543106 -1.216462,1.121295 -2.511141,1.628043 -3.676356,1.438953 -1.222696,-0.198416 -3.439502,-1.407246 -6.694272,-3.650408 -4.137144,-2.851287 -5.992137,-3.640177 -7.024081,-2.987195 -0.293414,0.185663 -0.275912,0.368524 0.119656,1.250217 0.80523,1.794794 3.121297,4.452334 9.194782,10.550419 l 5.899082,5.922976 h -4.264033 c -2.345218,0 -4.264033,-0.08774 -4.264033,-0.194989 0,-0.335655 -1.710361,-1.028621 -2.854177,-1.15639 -0.86674,-0.09682 -1.343448,0.006 -2.291034,0.493902 -1.131108,0.582457 -1.395855,0.616217 -4.839926,0.617162 l -3.643365,0.001 L 35.088253,92.218 c -0.246304,-0.476301 -0.448054,-1.939446 -0.602217,-4.367447 -0.222984,-3.511906 -0.255058,-3.668165 -0.840782,-4.096115 -1.326913,-0.969487 -2.260019,-3.769762 -2.264369,-6.795424 -0.0025,-1.706461 0.125105,-2.325655 0.936705,-4.546931 1.331698,-3.644741 1.628959,-4.853615 1.926945,-7.83632 0.318954,-3.192592 0.551338,-3.982573 1.59367,-5.41763 1.420145,-1.955221 5.215308,-5.243092 7.476372,-6.477019 0.573216,-0.31282 0.747012,-0.57047 0.747012,-1.107429 0,-0.384872 0.144992,-0.820099 0.322204,-0.967171 0.177212,-0.147074 1.469498,-0.444879 2.871746,-0.661791 1.402248,-0.216913 2.549542,-0.486682 2.549542,-0.599489 0,-0.112807 -0.816653,-0.205105 -1.814784,-0.205105 -1.344909,0 -1.789237,-0.07745 -1.716115,-0.29914 0.350236,-1.061833 3.339288,-1.112953 6.402645,-0.109502 l 1.794841,0.587927 0.07504,-0.957007 c 0.04127,-0.526355 -0.0914,-2.316663 -0.294839,-3.978466 -0.666704,-5.446134 -0.846462,-7.498454 -1.137302,-12.984727 -0.350361,-6.609055 -0.220978,-7.495611 1.348701,-9.241471 1.194028,-1.328046 2.94262,-2.361675 4.3856,-2.592417 1.984719,-0.317369 4.404854,1.433918 5.545739,4.013076 0.718252,1.623728 1.002345,3.182024 1.169837,6.416754 0.149532,2.887863 0.173975,2.994108 0.706239,3.069564 0.730512,0.103562 0.817231,0.365937 2.31294,6.998079 0.699622,3.102203 2.089941,8.486727 3.089603,11.965607 2.352448,8.186678 3.016241,11.460813 3.32011,16.376352 0.05575,0.901876 0.09917,0.95296 0.75071,0.883121 0.680127,-0.0729 0.689362,-0.05792 0.559813,0.907941 -0.08142,0.607061 -0.02565,1.070424 0.146057,1.213463 0.152779,0.127269 0.560941,0.443206 0.907027,0.702085 1.186964,0.887867 2.423251,4.276542 3.571458,9.789411 0.705148,3.385601 1.894319,10.481066 1.899304,11.332615 0.003,0.509038 -1.142991,0.591158 -1.333179,0.09553 z M 42.228371,87.084818 c 0.309246,-0.805881 -0.669395,-2.855697 -3.464531,-7.25665 -2.368164,-3.728685 -2.616757,-4.03415 -2.88825,-3.549019 -0.671596,1.200077 2.069762,7.226766 4.533908,9.967488 1.092631,1.21527 1.586787,1.442988 1.818873,0.838181 z M 80.335276,83.49265 c -0.08895,-0.474166 -0.263985,-0.798927 -0.388956,-0.721689 -0.26008,0.160738 -0.309919,1.624898 -0.06369,1.871126 0.344142,0.344143 0.607422,-0.324418 0.452646,-1.149437 z M 33.05323,77.857588 c 0,-0.797707 -0.106361,-1.435873 -0.239313,-1.435873 -0.263394,0 -0.335639,2.456336 -0.07977,2.712203 0.289752,0.289755 0.319083,0.172432 0.319083,-1.27633 z m 11.486983,-5.498034 c 0,-0.128243 -0.296149,-0.384503 -0.658108,-0.56947 -0.929564,-0.475023 -2.182251,0.03632 -1.575472,0.643094 0.251331,0.25133 2.23358,0.185991 2.23358,-0.07362 z m -8.418321,-5.779035 c -0.04249,-0.444508 -0.184951,-0.786961 -0.316573,-0.761008 -0.324976,0.06408 -0.433815,0.698923 -0.247257,1.442229 0.219293,0.873734 0.661413,0.339563 0.56383,-0.681221 z M 67.035556,38.73005 c 0,-1.201496 -0.361622,-1.631534 -0.551064,-0.655319 -0.159494,0.821902 0.06079,2.006981 0.340888,1.833872 0.115597,-0.07144 0.210176,-0.601791 0.210176,-1.178553 z"
       id="path3205"
       inkscape:connector-curvature="0"
       transform="matrix(0.26458333,0,0,0.26458333,0,87)" />
    <path
       style="opacity:1;fill:#ffffff;fill-opacity:1;fill-rule:nonzero;stroke:none;stroke-width:2.51338577;stroke-linecap:butt;stroke-linejoin:miter;stroke-miterlimit:4;stroke-dasharray:none;stroke-dashoffset:0;stroke-opacity:1;paint-order:stroke fill markers"
       d="m 81.553828,93.492648 c -0.08775,-0.08775 -0.159543,-0.740245 -0.159543,-1.449995 0,-0.799365 -0.09107,-1.234171 -0.239312,-1.142553 -0.131621,0.08135 -0.239312,0.680001 -0.239312,1.330341 v 1.182437 h -2.034153 c -2.089822,0 -2.558065,-0.250175 -1.430134,-0.764095 0.777288,-0.354156 0.932587,-1.028884 0.745694,-3.239827 C 77.866231,85.495173 75.980621,78.867598 72.930274,70.897131 72.195576,68.977393 70.412401,63.204313 68.967659,58.068061 65.928749,47.264333 65.167799,44.287608 63.351285,36.097616 61.429341,27.432286 60.845733,25.858768 59.2778,25.114735 c -1.073908,-0.509603 -1.474711,-0.485154 -2.087182,0.127317 -0.485072,0.485073 -0.503224,0.65669 -0.348008,3.290543 0.09007,1.528328 0.486892,5.901802 0.881836,9.718831 0.394942,3.817029 0.782329,8.559801 0.860857,10.539491 l 0.142776,3.59944 -0.770523,0.648351 c -0.690016,0.580612 -0.962382,0.648754 -2.60683,0.652205 -1.074906,0.0022 -2.742729,-0.212974 -4.022369,-0.51908 -1.924323,-0.460322 -2.282487,-0.484421 -2.991402,-0.20129 -0.938497,0.374825 -5.589598,4.997512 -7.248144,7.203867 -2.046808,2.722856 -2.165453,3.06831 -2.169158,6.31585 -0.0037,3.24599 0.171579,4.188162 0.779048,4.187535 0.464467,-4.79e-4 1.127078,-0.999454 2.816927,-4.246891 2.248807,-4.321607 4.982707,-6.402278 8.790693,-6.690276 1.657663,-0.125368 1.949649,-0.07775 3.162768,0.515773 1.542655,0.75475 2.050306,1.405413 2.211368,2.834332 0.220535,1.956602 -1.037967,3.630988 -3.166038,4.212284 -0.526487,0.143815 -2.222612,0.26208 -3.769166,0.262813 -2.174942,9.57e-4 -2.811918,0.0732 -2.811918,0.318589 0,0.406412 0.790525,1.124154 2.153809,1.95551 1.617313,0.986268 2.366179,1.777398 3.053848,3.226196 0.785014,1.653891 2.581483,3.480554 3.654878,3.716312 0.684742,0.150394 0.881918,0.08581 1.330607,-0.435821 0.289711,-0.336808 0.770478,-1.344793 1.068373,-2.239969 0.64757,-1.945943 1.588361,-3.017719 2.550924,-2.906089 1.054888,0.122338 1.294957,0.900804 1.204222,3.90494 -0.08871,2.937047 -0.343782,3.668957 -1.821032,5.225316 -1.035894,1.091369 -2.385392,1.834393 -3.331666,1.834393 -1.366601,0 -3.01941,-0.820595 -7.041848,-3.496169 -4.255355,-2.830503 -6.309545,-3.781786 -7.085657,-3.281326 -1.019551,0.657436 0.427884,2.818867 5.476414,8.177842 2.31235,2.454541 5.428994,5.620473 6.925876,7.035406 l 2.721599,2.572606 h -4.323966 c -3.564426,0 -4.376651,-0.06348 -4.623889,-0.361385 -0.448792,-0.54076 -2.745758,-1.138219 -3.65149,-0.94978 -0.425579,0.08854 -1.129929,0.36593 -1.565223,0.616418 -0.686845,0.395243 -1.292594,0.455435 -4.583349,0.455435 H 35.25386 l -0.266458,-0.764363 c -0.146552,-0.4204 -0.376977,-2.320503 -0.512056,-4.222453 L 34.229748,84.489349 33.322754,83.45895 c -1.205631,-1.369672 -1.746842,-3.059762 -1.88556,-5.888219 -0.11284,-2.300826 -0.103038,-2.352381 1.127249,-5.928523 0.983983,-2.860196 1.311755,-4.212557 1.582253,-6.528227 0.491693,-4.209281 0.538325,-4.37571 1.646425,-5.876135 1.584763,-2.145848 5.176878,-5.277228 7.521456,-6.556732 0.573216,-0.31282 0.747012,-0.57047 0.747012,-1.107429 0,-0.384872 0.140455,-0.816332 0.312122,-0.958805 0.171668,-0.142472 1.410108,-0.441389 2.75209,-0.664261 1.341982,-0.222871 2.439968,-0.496407 2.439968,-0.607855 0,-0.11145 -0.762808,-0.202635 -1.695128,-0.202635 -1.797829,0 -2.083082,-0.282817 -0.918408,-0.910559 0.804884,-0.433823 3.800492,-0.211557 5.582574,0.414213 0.77743,0.272991 1.558186,0.496346 1.735013,0.496346 0.441801,0 0.416794,-0.638763 -0.265873,-6.791425 -1.014271,-9.141299 -1.325312,-15.984633 -0.818087,-17.999007 0.512358,-2.03476 3.306045,-4.407477 5.626306,-4.778501 0.724173,-0.1158 1.27629,-0.01916 2.226893,0.389776 2.853713,1.227635 4.54729,5.041449 4.562084,10.273496 0.0064,2.27526 0.15768,2.826468 0.8007,2.918127 0.599764,0.08549 0.942864,1.203883 2.555332,8.329545 0.551016,2.435001 1.848045,7.416707 2.882288,11.070461 2.064046,7.291829 2.745765,10.43377 2.97218,13.698347 0.214991,3.099863 0.242261,3.186951 0.95521,3.050661 0.565794,-0.108158 0.601877,-0.05472 0.601877,0.891437 0,0.868041 0.139909,1.143759 1.017077,2.004359 1.216895,1.193912 1.956865,2.995858 3.038673,7.399659 0.705076,2.870207 1.923988,9.604762 2.294839,12.679081 0.16233,1.345724 0.153076,1.376045 -0.419981,1.376045 -0.322284,0 -0.657764,-0.07179 -0.74551,-0.159542 z M 42.144754,86.65231 c -0.0013,-0.427771 -0.254018,-1.318232 -0.561626,-1.978803 -0.663235,-1.424255 -4.86037,-8.174198 -5.221536,-8.397411 -0.137949,-0.08526 -0.331016,-0.02524 -0.429039,0.133359 -0.754233,1.220372 2.963264,8.78888 5.169216,10.524082 0.86069,0.677019 1.045715,0.62713 1.042985,-0.281227 z m 38.292283,-2.567157 c 0,-0.664517 -0.260827,-1.21696 -0.5037,-1.066856 -0.244955,0.151389 -0.291669,1.382829 -0.0612,1.613297 0.24556,0.245558 0.564901,-0.06335 0.564901,-0.546441 z M 33.05323,77.843464 c 0,-0.905725 -0.08983,-1.39448 -0.239313,-1.302093 -0.424428,0.26231 -0.280093,2.75209 0.159542,2.75209 0.04387,0 0.07977,-0.652499 0.07977,-1.449997 z m 11.359906,-5.47805 c 0.184839,-0.299075 -0.640717,-0.729942 -1.398596,-0.729942 -0.709133,0 -1.067982,0.44396 -0.598968,0.741027 0.442975,0.280575 1.822038,0.272924 1.997564,-0.01108 z m -8.252513,-5.590138 c -0.002,-0.28838 -0.102307,-0.680247 -0.222869,-0.870816 -0.171916,-0.271739 -0.254133,-0.207321 -0.381113,0.298607 -0.18897,0.752914 0.01924,1.460196 0.366644,1.245488 0.132552,-0.08192 0.239354,-0.384898 0.237338,-0.673279 z M 67.035556,38.715927 c 0,-0.58453 -0.10769,-1.062782 -0.239312,-1.062782 -0.131622,0 -0.239312,0.544808 -0.239312,1.210685 0,0.746183 0.09182,1.153938 0.239312,1.062781 0.131622,-0.08135 0.239312,-0.626155 0.239312,-1.210684 z"
       id="path3207"
       inkscape:connector-curvature="0"
       transform="matrix(0.26458333,0,0,0.26458333,0,87)" />
    <path
       style="opacity:1;fill:#ffffff;fill-opacity:1;fill-rule:nonzero;stroke:none;stroke-width:2.51338577;stroke-linecap:butt;stroke-linejoin:miter;stroke-miterlimit:4;stroke-dasharray:none;stroke-dashoffset:0;stroke-opacity:1;paint-order:stroke fill markers"
       d="m 81.553828,93.492648 c -0.08775,-0.08775 -0.159543,-0.6864 -0.159543,-1.330339 0,-0.719595 -0.09223,-1.113799 -0.239312,-1.022897 -0.131621,0.08135 -0.239312,0.626156 -0.239312,1.210685 v 1.062781 h -2.034153 c -1.118785,0 -2.034154,-0.06449 -2.034154,-0.143298 0,-0.07881 0.323072,-0.445092 0.717937,-0.813951 0.590507,-0.551617 0.717936,-0.860427 0.717936,-1.739852 0,-3.580708 -2.145672,-11.434658 -5.506881,-20.15721 -1.524962,-3.957374 -6.432728,-21.288293 -8.132205,-28.717459 -0.541968,-2.36919 -1.367772,-5.976821 -1.83512,-8.016957 -1.556879,-6.796336 -2.16628,-8.152042 -3.970854,-8.833763 -0.80647,-0.304662 -1.773042,0.06595 -1.99488,0.764897 -0.195003,0.614404 0.0101,3.446087 0.887831,12.256829 0.393363,3.94865 0.7786,8.799113 0.856082,10.778803 l 0.140879,3.59944 -0.770523,0.648351 c -0.694448,0.584341 -0.955856,0.648352 -2.647762,0.648352 -1.062472,0 -2.775644,-0.213371 -3.947179,-0.49161 -1.705021,-0.404942 -2.216435,-0.443261 -2.900918,-0.21736 -0.966102,0.318841 -4.899581,4.148474 -7.101569,6.914083 -2.141169,2.689222 -2.429507,3.460937 -2.420547,6.478431 0.01175,3.955442 0.37229,4.994021 1.350011,3.888823 0.20377,-0.230338 1.024669,-1.641911 1.82422,-3.136827 0.799551,-1.494919 1.849788,-3.20137 2.33386,-3.792117 2.603145,-3.176795 6.980321,-4.515959 10.065544,-3.079481 1.437832,0.669457 2.006624,1.414742 2.167241,2.839731 0.220535,1.956602 -1.037967,3.630988 -3.166038,4.212284 -0.526487,0.143815 -2.162411,0.26208 -3.635387,0.262813 -1.472976,7.18e-4 -2.733848,0.09147 -2.801938,0.201646 -0.220308,0.356468 0.568389,1.212466 1.721943,1.868887 1.598616,0.909676 2.630337,1.935363 3.33483,3.315326 0.335976,0.658108 0.881664,1.551891 1.212641,1.986183 0.638697,0.838069 2.348088,1.962467 2.983486,1.962467 0.584287,0 1.287521,-1.058793 1.874233,-2.821868 0.638047,-1.917331 1.584387,-2.988916 2.541547,-2.877913 1.054888,0.122338 1.294957,0.900804 1.204222,3.90494 -0.08871,2.937047 -0.343782,3.668957 -1.821032,5.225316 -1.035894,1.091369 -2.385392,1.834393 -3.331666,1.834393 -1.322785,0 -2.951577,-0.782826 -6.535722,-3.141178 -4.832494,-3.179765 -6.550186,-4.0168 -7.497188,-3.653402 -1.530731,0.587397 1.058879,3.927105 9.860496,12.716653 l 5.093269,5.086286 h -4.205539 c -3.822876,0 -4.264538,-0.04336 -4.853957,-0.476569 -1.31896,-0.969396 -3.827766,-1.039792 -5.192331,-0.145695 -0.474026,0.310593 -1.305106,0.382952 -4.398462,0.382952 H 35.25386 l -0.273814,-0.777765 c -0.150597,-0.42777 -0.386139,-2.339276 -0.523425,-4.247791 l -0.249612,-3.470026 -0.822902,-0.854543 c -1.253793,-1.302004 -1.814787,-3.02077 -1.948701,-5.97041 -0.107873,-2.376054 -0.07117,-2.637952 0.653965,-4.666587 1.409907,-3.944338 1.6807,-5.001571 2.052248,-8.012401 0.484958,-3.92984 0.665741,-4.540386 1.750917,-5.913233 1.340348,-1.69567 4.296178,-4.340807 6.228431,-5.57375 1.151019,-0.734449 1.732456,-1.267158 1.82842,-1.675185 0.28114,-1.195379 0.465514,-1.307044 2.945148,-1.783721 1.337557,-0.257126 2.431921,-0.553275 2.431921,-0.658108 0,-0.104833 -0.708962,-0.190605 -1.575471,-0.190605 -1.15346,0 -1.549042,-0.08013 -1.476803,-0.29914 0.345219,-1.046622 3.382381,-1.128441 6.337356,-0.170723 0.951254,0.308306 1.808643,0.481465 1.905309,0.384799 0.09667,-0.09667 -0.02003,-1.920887 -0.259324,-4.053826 -1.200903,-10.704208 -1.61335,-18.379015 -1.102201,-20.509726 0.404744,-1.687161 1.959435,-3.39705 3.948779,-4.342968 1.566634,-0.744922 2.254556,-0.825792 3.494145,-0.410762 2.960468,0.991203 4.672586,4.30235 4.93262,9.539437 0.148592,2.992625 0.343444,3.828994 0.892068,3.828994 0.540326,0 0.725762,0.514583 1.681656,4.666587 1.349739,5.862708 2.390776,9.929741 3.966477,15.495908 1.673567,5.911881 2.547671,10.002305 2.748675,12.862583 0.205942,2.930583 0.261359,3.111058 0.955267,3.111058 0.527563,0 0.593721,0.10098 0.593721,0.906239 0,0.740686 0.189746,1.107111 1.038663,2.005786 1.752605,1.855334 3.050505,6.199302 4.586647,15.351123 1.011139,6.024047 1.016682,6.146692 0.277724,6.146692 -0.307119,0 -0.63019,-0.07179 -0.717936,-0.159542 z m -39.479131,-7.31148 c -0.0699,-0.521145 -0.637383,-1.826392 -1.261072,-2.900547 -1.776335,-3.059306 -4.435274,-7.098218 -4.672974,-7.098218 -0.463562,0 -0.169748,1.888223 0.582337,3.74244 0.997943,2.460361 2.619862,5.159879 3.911137,6.509688 1.174853,1.228107 1.628575,1.148308 1.440572,-0.253363 z m 38.223984,-2.689045 c -0.08361,-0.33312 -0.248215,-0.546216 -0.365796,-0.473546 -0.251974,0.155728 -0.287945,1.385821 -0.04756,1.62621 0.285215,0.285214 0.572894,-0.517001 0.413352,-1.152664 z M 33.05323,77.857588 c 0,-0.658109 -0.107691,-1.196561 -0.239313,-1.196561 -0.263937,0 -0.334606,1.978745 -0.07977,2.233579 0.285481,0.285483 0.319083,0.176278 0.319083,-1.037018 z m 11.323722,-5.420689 c 0.230629,-0.23063 -0.595919,-0.785034 -1.183481,-0.793817 -0.633751,-0.0095 -1.221162,0.601666 -0.757228,0.787818 0.454555,0.182384 1.760286,0.186422 1.940709,0.006 z m -8.212664,-5.707327 c 0,-0.635072 -0.359268,-0.985011 -0.604274,-0.588583 -0.225077,0.364183 0.09225,1.475063 0.371977,1.302184 0.127763,-0.07896 0.232297,-0.400083 0.232297,-0.713601 z M 67.035556,38.73005 c 0,-0.44514 -0.10769,-0.875902 -0.239312,-0.957249 -0.146347,-0.09045 -0.239312,0.281421 -0.239312,0.957249 0,0.675828 0.09296,1.047695 0.239312,0.957249 0.131622,-0.08135 0.239312,-0.512109 0.239312,-0.957249 z"
       id="path3209"
       inkscape:connector-curvature="0"
       transform="matrix(0.26458333,0,0,0.26458333,0,87)" />
  </g>
</svg>
