<?xml version="1.0" encoding="UTF-8" standalone="no"?>
<!-- Created with Inkscape (http://www.inkscape.org/) -->

<svg
   xmlns:dc="http://purl.org/dc/elements/1.1/"
   xmlns:cc="http://creativecommons.org/ns#"
   xmlns:rdf="http://www.w3.org/1999/02/22-rdf-syntax-ns#"
   xmlns:svg="http://www.w3.org/2000/svg"
   xmlns="http://www.w3.org/2000/svg"
   xmlns:sodipodi="http://sodipodi.sourceforge.net/DTD/sodipodi-0.dtd"
   xmlns:inkscape="http://www.inkscape.org/namespaces/inkscape"
   width="297mm"
   height="210mm"
   viewBox="0 0 297 210"
   version="1.1"
   id="svg1549"
   sodipodi:docname="E.svg"
   inkscape:version="0.92.2 (5c3e80d, 2017-08-06)">
  <defs
     id="defs1543">
    <inkscape:path-effect
       effect="spiro"
       id="path-effect3808"
       is_visible="true" />
    <inkscape:path-effect
       effect="spiro"
       id="path-effect4312"
       is_visible="true" />
    <inkscape:path-effect
       effect="spiro"
       id="path-effect4304"
       is_visible="true" />
    <inkscape:path-effect
       effect="spiro"
       id="path-effect4300"
       is_visible="true" />
    <inkscape:path-effect
       effect="spiro"
       id="path-effect4296"
       is_visible="true" />
  </defs>
  <sodipodi:namedview
     id="base"
     pagecolor="#ffffff"
     bordercolor="#666666"
     borderopacity="1.0"
     inkscape:pageopacity="0.0"
     inkscape:pageshadow="2"
     inkscape:zoom="8.6528605"
     inkscape:cx="70.203379"
     inkscape:cy="761.02583"
     inkscape:document-units="mm"
     inkscape:current-layer="layer1"
     showgrid="false"
     inkscape:window-width="1366"
     inkscape:window-height="705"
     inkscape:window-x="-8"
     inkscape:window-y="-8"
     inkscape:window-maximized="1"
     showguides="false" />
  <metadata
     id="metadata1546">
    <rdf:RDF>
      <cc:Work
         rdf:about="">
        <dc:format>image/svg+xml</dc:format>
        <dc:type
           rdf:resource="http://purl.org/dc/dcmitype/StillImage" />
        <dc:title />
      </cc:Work>
    </rdf:RDF>
  </metadata>
  <g
     inkscape:label="Capa 1"
     inkscape:groupmode="layer"
     id="layer1"
     transform="translate(0,-87)">
    <path
       style="opacity:1;fill:#2c89a0;fill-opacity:1;fill-rule:nonzero;stroke:none;stroke-width:2.51338577;stroke-linecap:butt;stroke-linejoin:miter;stroke-miterlimit:4;stroke-dasharray:none;stroke-dashoffset:0;stroke-opacity:1;paint-order:stroke fill markers"
       d=""
       id="path853"
       inkscape:connector-curvature="0"
       transform="matrix(0.26458333,0,0,0.26458333,0,87)" />
    <path
       style="opacity:1;fill:#006680;fill-opacity:1;fill-rule:nonzero;stroke:none;stroke-width:0.6649999;stroke-linecap:butt;stroke-linejoin:miter;stroke-miterlimit:4;stroke-dasharray:none;stroke-dashoffset:0;stroke-opacity:1;paint-order:stroke fill markers"
       d="m 2.718871,103.89566 c 0,-4.972756 0.034364,-9.043298 0.076353,-9.045648 1.4684385,-0.08213 2.7982528,-0.18341 2.8315124,-0.21564 0.023804,-0.02304 0.097992,-0.715287 0.1648885,-1.53829 0.066891,-0.823006 0.1473536,-1.535157 0.178799,-1.582562 0.031439,-0.0474 1.8209736,-0.09973 3.9767363,-0.116275 5.1900168,-0.03984 6.6174478,-0.01779 6.6174478,0.102166 0,0.05379 -0.244557,0.23154 -0.54346,0.394997 -0.799408,0.437157 -1.21415,0.830065 -1.978939,1.874748 -0.377338,0.515437 -0.798579,0.981551 -0.936094,1.035805 -0.915241,0.361112 -2.494583,1.180455 -3.028659,1.571235 -1.5758758,1.153058 -3.0498332,3.322639 -3.1598899,4.651174 -0.06103,0.73675 0.1037266,1.12575 0.9706883,2.29181 0.8257382,1.11063 1.0176197,1.52432 1.2904706,2.78222 0.2946112,1.35822 0.5049759,1.96156 1.048623,3.00752 0.546897,1.05222 1.1355,1.80724 2.167757,2.78066 0.471081,0.44423 0.826205,0.83705 0.789166,0.87295 -0.03704,0.0359 -2.406905,0.0898 -5.2663729,0.11988 l -5.1990275,0.0546 z"
       id="path4213"
       inkscape:connector-curvature="0" />
    <path
       style="opacity:1;fill:#006680;fill-opacity:1;fill-rule:nonzero;stroke:none;stroke-width:0.6649999;stroke-linecap:butt;stroke-linejoin:miter;stroke-miterlimit:4;stroke-dasharray:none;stroke-dashoffset:0;stroke-opacity:1;paint-order:stroke fill markers"
       d="m 15.139311,112.54521 c -0.571793,-0.0873 -0.712647,-0.142 -0.712647,-0.27695 0,-0.0779 -0.472083,-0.59865 -1.04907,-1.15724 -1.113208,-1.07771 -1.686862,-1.81927 -2.250506,-2.90922 -0.765785,-1.48083 -0.978024,-2.53246 -0.736356,-3.64856 0.208388,-0.96239 0.401737,-1.23706 0.817576,-1.16147 0.252263,0.0458 0.40931,-0.006 0.753802,-0.24752 0.475213,-0.33356 0.834666,-0.82541 0.835264,-1.14292 5.58e-4,-0.25366 0.185907,-0.43898 0.439257,-0.43898 0.107,0 0.590327,-0.15136 1.074064,-0.33634 1.016438,-0.3887 1.439458,-0.49531 1.439458,-0.3628 0,0.11762 -0.372219,0.36771 -1.224318,0.82262 -0.904453,0.48285 -1.045491,0.65493 -1.09445,1.33527 -0.05471,0.76026 0.08371,1.05241 0.662209,1.39765 0.968886,0.57822 0.962521,0.5712 0.798092,0.87931 -0.212306,0.39782 -0.483245,1.79085 -0.44608,2.29351 0.03109,0.42045 0.0422,0.43305 0.407603,0.46249 0.470342,0.0379 0.615356,-0.15357 0.843165,-1.1132 0.195868,-0.82506 0.50998,-1.37291 1.066508,-1.86009 0.434072,-0.37999 0.470276,-0.3915 1.26929,-0.4035 0.461217,-0.007 0.506583,-0.0296 0.579363,-0.28884 0.108561,-0.38682 -0.09997,-0.93656 -0.450993,-1.18897 -0.396135,-0.28484 -1.039972,-0.26012 -1.61069,0.0618 -0.588265,0.33184 -1.000513,0.40756 -1.503826,0.27625 -0.73114,-0.19078 -0.540186,-0.41974 0.987492,-1.18408 0.498776,-0.24955 0.967391,-0.5678 1.147037,-0.77898 l 0.303737,-0.35705 0.578884,0.29368 c 0.361066,0.18318 1.039191,0.72536 1.802192,1.44088 l 1.223306,1.14721 -0.127325,0.73424 c -0.11477,0.66183 -0.345574,1.5866 -0.783152,3.13786 -0.200009,0.70907 -0.203382,2.45556 -0.0056,2.91417 l 0.146527,0.3398 -0.630039,0.3229 c -0.516881,0.2649 -0.639345,0.3759 -0.681863,0.61801 -0.04053,0.23078 -0.118232,0.30889 -0.356396,0.35827 -0.328918,0.0682 -3.093651,0.0845 -3.511487,0.0208 z"
       id="path4215"
       inkscape:connector-curvature="0" />
    <path
       style="opacity:1;fill:#006680;fill-opacity:1;fill-rule:nonzero;stroke:none;stroke-width:0.6649999;stroke-linecap:butt;stroke-linejoin:miter;stroke-miterlimit:4;stroke-dasharray:none;stroke-dashoffset:0;stroke-opacity:1;paint-order:stroke fill markers"
       d="m 14.757535,99.224074 c -0.07,-0.02515 -0.127257,-0.125624 -0.127257,-0.223287 0,-0.09766 -0.09108,-0.200648 -0.20239,-0.228855 -0.266175,-0.06745 -0.437639,-0.524212 -0.359313,-0.95718 0.205724,-1.137189 0.700241,-1.87534 1.256358,-1.87534 0.235046,0 0.39342,0.09721 0.671805,0.41235 0.200342,0.226791 0.364257,0.44875 0.364257,0.493239 0,0.114583 -0.142909,0.100252 -0.274812,-0.02756 -0.151437,-0.146738 -0.459197,-0.03902 -0.625427,0.218896 -0.07491,0.116213 -0.174949,0.611699 -0.222324,1.101079 -0.08453,0.873106 -0.220437,1.180221 -0.480897,1.086655 z"
       id="path4217"
       inkscape:connector-curvature="0" />
    <path
       style="opacity:1;fill:#006680;fill-opacity:1;fill-rule:nonzero;stroke:none;stroke-width:0.6649999;stroke-linecap:butt;stroke-linejoin:miter;stroke-miterlimit:4;stroke-dasharray:none;stroke-dashoffset:0;stroke-opacity:1;paint-order:stroke fill markers"
       d="m 12.988942,99.995685 c -0.317155,-0.241734 -0.762341,-1.028741 -0.887674,-1.56925 -0.05994,-0.25848 -0.06049,-0.5738 -0.0014,-0.834667 0.09381,-0.414525 0.744644,-1.455061 0.910117,-1.455061 0.04707,0 0.07585,0.639388 0.06395,1.420862 -0.02048,1.34674 -0.0093,1.437023 0.213779,1.730649 0.239143,0.31471 0.2736,0.796222 0.06179,0.863452 -0.06052,0.0192 -0.222755,-0.051 -0.360515,-0.155985 z"
       id="path4219"
       inkscape:connector-curvature="0" />
    <path
       style="opacity:1;fill:#006680;fill-opacity:1;fill-rule:nonzero;stroke:none;stroke-width:0.6649999;stroke-linecap:butt;stroke-linejoin:miter;stroke-miterlimit:4;stroke-dasharray:none;stroke-dashoffset:0;stroke-opacity:1;paint-order:stroke fill markers"
       d="m 11.19645,101.8324 c -0.260199,-0.27466 -0.808112,-1.32733 -1.059759,-2.036052 -0.2247649,-0.633021 -0.2461966,-1.492299 -0.0465,-1.864211 0.150722,-0.280695 0.64569,-0.773169 0.706024,-0.70247 0.01947,0.02283 0.08641,0.507605 0.148739,1.077298 0.06269,0.572957 0.251763,1.471012 0.423123,2.009755 0.339283,1.06665 0.381256,1.45995 0.173636,1.62691 -0.103748,0.0834 -0.185943,0.0569 -0.345269,-0.11123 z"
       id="path4221"
       inkscape:connector-curvature="0" />
    <path
       style="opacity:1;fill:#006680;fill-opacity:1;fill-rule:nonzero;stroke:none;stroke-width:0.6649999;stroke-linecap:butt;stroke-linejoin:miter;stroke-miterlimit:4;stroke-dasharray:none;stroke-dashoffset:0;stroke-opacity:1;paint-order:stroke fill markers"
       d="m 9.0120332,102.77079 c -0.6122634,-0.63742 -0.8975094,-1.1312 -0.8918626,-1.54385 0.00634,-0.46417 0.2918347,-1.256979 0.4737374,-1.315625 0.1619506,-0.05221 0.3989323,0.502235 0.7005567,1.639025 0.3846627,1.44975 0.2979061,1.82463 -0.2824315,1.22045 z"
       id="path4223"
       inkscape:connector-curvature="0" />
    <path
       style="opacity:1;fill:#006680;fill-opacity:1;fill-rule:nonzero;stroke:none;stroke-width:0.6649999;stroke-linecap:butt;stroke-linejoin:miter;stroke-miterlimit:4;stroke-dasharray:none;stroke-dashoffset:0;stroke-opacity:1;paint-order:stroke fill markers"
       d="m 18.90602,100.32909 c -0.54294,-0.559994 -1.784118,-0.59238 -2.212217,-0.0577 -0.199382,0.24902 -0.329682,-0.04 -0.329749,-0.731311 -1.06e-4,-1.078941 0.430562,-1.44306 1.233338,-1.042761 0.556324,0.27741 1.168898,0.839116 1.406145,1.289382 0.402889,0.76462 0.358313,1.01257 -0.09752,0.54241 z"
       id="path4225"
       inkscape:connector-curvature="0" />
    <path
       style="opacity:1;fill:#006680;fill-opacity:1;fill-rule:nonzero;stroke:none;stroke-width:0.6649999;stroke-linecap:butt;stroke-linejoin:miter;stroke-miterlimit:4;stroke-dasharray:none;stroke-dashoffset:0;stroke-opacity:1;paint-order:stroke fill markers"
       d="m 24.30417,110.39396 c -0.06847,-0.0799 -0.291701,-0.16955 -0.496049,-0.19913 -0.779911,-0.11285 -1.909912,-0.37642 -2.175601,-0.50745 -0.524773,-0.2588 -0.621001,-0.73299 -0.275508,-1.35761 0.244316,-0.44169 0.508745,-1.55277 0.79666,-3.34739 l 0.203066,-1.26576 -0.721284,-0.80585 c -0.832483,-0.9301 -1.06764,-1.36969 -0.910955,-1.7029 0.05757,-0.12243 0.370646,-0.39783 0.695726,-0.61199 1.673748,-1.102658 2.4658,-2.646388 2.338509,-4.55782 -0.06009,-0.902372 -0.313978,-1.737354 -0.747473,-2.458318 -0.39618,-0.658904 -1.356433,-1.532306 -1.909824,-1.737089 -0.978044,-0.361929 -0.363688,-0.525617 2.004266,-0.534013 l 1.603459,-0.0057 v 8.7152 c 0,8.33455 -0.0429,10.52117 -0.206394,10.52117 -0.04075,0 -0.130122,-0.0654 -0.198598,-0.14536 z"
       id="path4227"
       inkscape:connector-curvature="0" />
    <path
       style="opacity:1;fill:#006680;fill-opacity:1;fill-rule:nonzero;stroke:none;stroke-width:0.6649999;stroke-linecap:butt;stroke-linejoin:miter;stroke-miterlimit:4;stroke-dasharray:none;stroke-dashoffset:0;stroke-opacity:1;paint-order:stroke fill markers"
       d="m 20.278422,99.87909 c -0.120122,-0.350425 -0.24409,-0.526332 -0.415413,-0.589446 -0.142077,-0.05234 -0.244193,-0.170116 -0.244193,-0.281633 0,-0.333239 -0.116467,-0.50375 -0.344079,-0.50375 -0.189364,0 -0.220488,-0.0557 -0.220488,-0.394592 0,-0.426876 0.05895,-0.480351 0.264717,-0.240115 0.213684,0.249482 0.669758,0.437411 1.06154,0.437411 0.674688,0 0.613194,-0.502921 -0.161981,-1.324769 l -0.520495,-0.551834 0.353807,-0.418374 c 0.819876,-0.969505 1.00476,-1.559768 0.551275,-1.759978 -0.507502,-0.224059 -1.490803,0.271535 -1.873923,0.944474 -0.104086,0.182831 -0.139853,0.167695 -0.609399,-0.257882 -0.572126,-0.518553 -0.791071,-0.647691 -1.147954,-0.677084 -0.437038,-0.03599 -0.511302,-0.0062 -0.60976,0.244743 -0.118833,0.302855 -0.450093,0.389645 -1.226735,0.321406 -0.381909,-0.03355 -0.842435,-0.412179 -0.842435,-0.412179 0,0 0.06997,0.0419 0,0 -0.338581,-0.202763 0.369044,-1.002827 1.095637,-1.559616 1.54406,-1.183215 3.674585,-1.59228 4.993824,-0.958826 0.706296,0.339141 2.321359,1.893413 2.616694,2.518203 0.330477,0.699133 0.335029,2.445844 0.009,3.44985 -0.288182,0.887434 -0.855345,1.67055 -1.550878,2.141391 -0.767349,0.51945 -0.964324,0.49817 -1.178756,-0.127395 z"
       id="path4229"
       inkscape:connector-curvature="0"
       sodipodi:nodetypes="csssscssccccccccccscscccc" />
    <path
       style="opacity:1;fill:#006680;fill-opacity:1;fill-rule:nonzero;stroke:none;stroke-width:0.6649999;stroke-linecap:butt;stroke-linejoin:miter;stroke-miterlimit:4;stroke-dasharray:none;stroke-dashoffset:0;stroke-opacity:1;paint-order:stroke fill markers"
       d="m 15.037506,95.150227 c 0,-0.123599 0.108039,-0.123599 0.305419,0 0.123489,0.07733 0.108878,0.09591 -0.07635,0.09714 -0.125983,8.12e-4 -0.229062,-0.04288 -0.229062,-0.09714 z"
       id="path4231"
       inkscape:connector-curvature="0" />
    <path
       style="opacity:1;fill:#006680;fill-opacity:1;fill-rule:nonzero;stroke:none;stroke-width:0.6649999;stroke-linecap:butt;stroke-linejoin:miter;stroke-miterlimit:4;stroke-dasharray:none;stroke-dashoffset:0;stroke-opacity:1;paint-order:stroke fill markers"
       d="M 0.98885611,92.69212 C 0.86238615,92.61 0.8305659,92.170105 0.79945532,90.073873 L 0.76206011,87.554328 H 2.4992256 c 2.0017844,0 2.2557825,0.06152 2.2557825,0.546321 0,0.174546 -0.068866,0.372738 -0.1530448,0.44043 -0.084179,0.06769 -0.5766667,0.163688 -1.0944261,0.21333 -0.5177595,0.04964 -1.0518784,0.135189 -1.1869321,0.190111 -0.4211814,0.17128 -0.047544,0.373953 0.9021064,0.489335 1.0453932,0.127012 1.2268745,0.212522 1.2268745,0.578066 0,0.389989 -0.1587929,0.482747 -1.0259383,0.599301 -0.9348106,0.125649 -1.3156197,0.268733 -1.3156197,0.494325 0,0.296424 0.2357186,0.386308 1.2500434,0.476655 1.3717665,0.122186 1.8416313,0.47453 1.284505,0.963227 -0.1887746,0.165586 -0.4096027,0.191337 -1.8579771,0.216657 -0.9796774,0.01714 -1.7051467,-0.01112 -1.79574425,-0.06996 z M 3.5333263,88.146217 c 0,-0.05565 -0.2884533,-0.09865 -0.6617464,-0.09865 -0.3732921,0 -0.6617453,0.043 -0.6617453,0.09865 0,0.05565 0.2884532,0.09865 0.6617453,0.09865 0.3732931,0 0.6617464,-0.043 0.6617464,-0.09865 z"
       id="path4233"
       inkscape:connector-curvature="0" />
    <path
       style="opacity:1;fill:#006680;fill-opacity:1;fill-rule:nonzero;stroke:none;stroke-width:0.6649999;stroke-linecap:butt;stroke-linejoin:miter;stroke-miterlimit:4;stroke-dasharray:none;stroke-dashoffset:0;stroke-opacity:1;paint-order:stroke fill markers"
       d="m 20.659297,112.48762 c 0.04072,-0.12752 1.25632,-0.96182 1.401396,-0.96182 0.159013,0 -0.09329,0.74223 -0.310186,0.9125 -0.263144,0.20656 -1.154292,0.24685 -1.09121,0.0493 z"
       id="path4235"
       inkscape:connector-curvature="0" />
    <path
       style="opacity:1;fill:#006680;fill-opacity:1;fill-rule:nonzero;stroke:none;stroke-width:0.6649999;stroke-linecap:butt;stroke-linejoin:miter;stroke-miterlimit:4;stroke-dasharray:none;stroke-dashoffset:0;stroke-opacity:1;paint-order:stroke fill markers"
       d="m 23.333232,112.50988 c -0.09401,-0.14741 0.04176,-0.65538 0.211693,-0.79204 0.113688,-0.0914 0.181592,-0.089 0.305588,0.0106 0.176073,0.14159 0.451421,0.61669 0.451421,0.77889 0,0.13355 -0.883659,0.13582 -0.968702,0.002 z"
       id="path4237"
       inkscape:connector-curvature="0" />
    <path
       style="opacity:1;fill:#006680;fill-opacity:1;fill-rule:nonzero;stroke:none;stroke-width:2.51338577;stroke-linecap:butt;stroke-linejoin:miter;stroke-miterlimit:4;stroke-dasharray:none;stroke-dashoffset:0;stroke-opacity:1;paint-order:stroke fill markers"
       d="m 50.23861,29.098537 c 0,-0.04237 0.323063,-0.428938 0.717918,-0.859048 0.394854,-0.430111 1.239584,-1.469989 1.877176,-2.31084 3.202996,-4.224087 4.490134,-5.493641 7.158531,-7.060738 0.731679,-0.4297 1.531193,-0.917892 1.776698,-1.08487 l 0.446372,-0.303596 3.539482,-0.07613 c 1.946715,-0.04187 3.508419,-0.04261 3.470452,-0.0016 -0.03797,0.04098 -0.652224,0.193343 -1.365018,0.338588 -3.180389,0.648064 -5.89109,1.775599 -8.557888,3.559712 -1.385081,0.926633 -2.461878,1.927177 -3.332927,3.096907 -0.706503,0.948761 -1.496469,2.332064 -1.754532,3.072345 l -0.194442,0.557775 -1.699808,0.52109 c -2.156723,0.661162 -2.082014,0.64141 -2.082014,0.550435 z"
       id="path4306"
       inkscape:connector-curvature="0"
       transform="matrix(0.26458333,0,0,0.26458333,0,87)" />
    <path
       style="opacity:1;fill:#006680;fill-opacity:1;fill-rule:nonzero;stroke:none;stroke-width:2.51338577;stroke-linecap:butt;stroke-linejoin:miter;stroke-miterlimit:4;stroke-dasharray:none;stroke-dashoffset:0;stroke-opacity:1;paint-order:stroke fill markers"
       d="m 75.955559,42.577605 c -1.14254,-0.234213 -2.106413,-0.739277 -2.972614,-1.557636 -0.583268,-0.551053 -0.904038,-0.620311 -0.904038,-0.19519 0,0.118462 -0.04726,0.244594 -0.105021,0.280292 -0.114018,0.07047 -14.200373,-11.149549 -14.200373,-11.310832 0,-0.05398 0.439847,-0.09814 0.977438,-0.09814 1.887895,0 2.571186,-0.301916 3.149358,-1.391564 0.318809,-0.60084 0.410452,-0.690999 0.812396,-0.799231 0.326337,-0.08787 0.722652,-0.09012 1.416982,-0.008 1.299791,0.153685 2.07178,0.575366 3.778631,2.06399 1.673437,1.459481 2.212322,1.876025 2.43139,1.879401 0.0945,0.0015 0.406583,-0.340928 0.693506,-0.760855 1.381372,-2.021708 3.705546,-3.381284 5.786363,-3.384857 1.850158,-0.0032 2.386081,1.158765 1.440567,3.123317 -0.486954,1.011777 -1.175592,1.99982 -2.592961,3.720326 -0.652213,0.791706 -1.185844,1.469611 -1.185844,1.506455 0,0.03684 0.659584,0.777246 1.465741,1.645336 2.462159,2.651314 3.210698,4.075947 2.569747,4.890784 -0.367291,0.466935 -1.421404,0.630087 -2.561268,0.396423 z"
       id="path4308"
       inkscape:connector-curvature="0"
       transform="matrix(0.26458333,0,0,0.26458333,0,87)" />
    <path
       style="opacity:1;fill:#006680;fill-opacity:1;fill-rule:nonzero;stroke:none;stroke-width:2.51338577;stroke-linecap:butt;stroke-linejoin:miter;stroke-miterlimit:4;stroke-dasharray:none;stroke-dashoffset:0;stroke-opacity:1;paint-order:stroke fill markers"
       d="m 78.245312,52.218906 c -0.155926,-0.525532 -0.329498,-1.097983 -0.385715,-1.272112 -0.05622,-0.174131 -0.102213,-0.333838 -0.102213,-0.354905 0,-0.02107 0.208848,-0.03879 0.464106,-0.03937 0.789477,-0.0018 2.383356,-0.887848 3.99624,-2.2215 2.353198,-1.945799 4.355453,-5.266636 5.099365,-8.457544 0.830832,-3.563746 0.755226,-8.714767 -0.166556,-11.347441 -0.522151,-1.491298 -2.868386,-4.226156 -6.049308,-7.051295 -2.742414,-2.435678 -4.352291,-3.366415 -6.624507,-3.829906 -0.729018,-0.148707 -0.937788,-0.324603 -0.518557,-0.436904 0.137593,-0.03686 1.110763,-0.06769 2.1626,-0.06851 1.879193,-0.0015 1.914305,0.0028 2.020228,0.244212 0.10713,0.244186 0.240447,0.321252 2.018821,1.16701 1.240086,0.589759 2.624258,1.644702 4.16067,3.171041 1.556284,1.54608 2.387363,2.657587 3.242279,4.33631 1.107185,2.174078 1.815553,4.572958 2.105962,7.131804 0.185712,1.636361 0.07114,4.878662 -0.220664,6.244575 -1.028845,4.815954 -3.72233,8.641326 -8.284646,11.766116 -0.536357,0.367359 -1.325169,0.961776 -1.752916,1.320928 -0.427746,0.35915 -0.801113,0.653002 -0.829703,0.653002 -0.02859,0 -0.179559,-0.429981 -0.335486,-0.955513 z"
       id="path4314"
       inkscape:connector-curvature="0"
       transform="matrix(0.26458333,0,0,0.26458333,0,87)" />
    <path
       style="opacity:1;fill:#ffffff;fill-opacity:1;fill-rule:nonzero;stroke:none;stroke-width:2.51338577;stroke-linecap:butt;stroke-linejoin:miter;stroke-miterlimit:4;stroke-dasharray:none;stroke-dashoffset:0;stroke-opacity:1;paint-order:stroke fill markers"
       d="m 46.472523,93.661114 c -4.321779,-4.374596 -5.842968,-6.383171 -7.961404,-10.512222 -1.890897,-3.685554 -2.433653,-5.240683 -3.706647,-10.620445 -0.428658,-1.81154 -0.933642,-3.735759 -1.122186,-4.276042 -0.691289,-1.980929 -1.640452,-3.56966 -4.487707,-7.511632 -2.438844,-3.376533 -3.00034,-4.660926 -2.998958,-6.859956 0.0012,-1.9784 0.479883,-3.696136 1.728489,-6.203178 1.845577,-3.705688 4.933582,-7.708188 8.123668,-10.529447 l 0.896391,-0.792754 h 5.257644 c 2.891704,0 5.257643,0.01854 5.257643,0.0412 0,0.02266 -0.2613,0.495299 -0.580666,1.050307 -1.479199,2.570613 -1.704365,4.183876 -0.915837,6.561743 0.81919,2.47033 2.464378,4.89918 3.735167,5.514358 0.61031,0.295447 0.791669,0.298252 1.046927,0.0162 0.499603,-0.552057 0.29038,-1.873842 -0.487046,-3.076948 -0.776933,-1.202342 -0.759164,-1.074649 -0.807341,-5.801922 l -0.04387,-4.304935 h 2.610912 2.610911 l -0.274767,0.548952 c -0.33334,0.66597 -0.813163,2.10983 -1.065759,3.207032 -0.50596,2.197736 0.02129,3.937867 1.359898,4.488182 0.375417,0.154338 0.450673,0.254685 0.615048,0.820113 0.380947,1.310411 1.408176,1.145383 1.843144,-0.296108 0.177176,-0.587163 0.257342,-1.075338 0.699717,-4.260991 0.268214,-1.931476 0.495713,-2.741334 0.899151,-3.200825 0.689286,-0.785053 1.445776,-0.934813 2.173746,-0.43033 0.423919,0.293776 0.911443,0.341832 0.991666,0.09775 0.02244,-0.06827 -0.08893,-0.315299 -0.247494,-0.548951 L 61.33467,36.355442 h 2.240755 2.240755 l 2.052128,1.623407 c 1.128671,0.892874 2.511009,1.971997 3.071863,2.398051 l 1.019736,0.774644 6e-5,0.772565 c 6.1e-5,0.794765 0.141896,1.352559 0.382888,1.505796 0.07548,0.04799 0.277801,0.08805 0.449608,0.08903 0.776359,0.0044 1.15562,0.468043 1.305237,1.595647 0.08351,0.629384 0.502815,1.295341 0.815581,1.295341 0.274829,0 0.979816,0.708099 1.255312,1.260852 0.145412,0.291755 0.405847,0.905406 0.578742,1.363669 0.208881,0.553645 0.444472,0.947449 0.70215,1.173694 0.213287,0.187269 0.362135,0.366148 0.330773,0.397509 -0.03136,0.03136 0.12809,0.649995 0.354335,1.374741 l 0.411354,1.31772 -0.236258,0.456351 c -0.179188,0.346114 -0.219012,0.576069 -0.164861,0.95194 0.195138,1.354487 0.991713,2.498789 4.426178,6.35832 l 1.885539,2.118905 -0.414993,2.62107 c -1.382055,8.72895 -2.181121,12.205562 -3.444601,14.986922 -0.888652,1.956232 -0.883378,3.094564 0.01909,4.119818 0.249608,0.283569 0.745268,0.656077 1.111758,0.83553 0.814195,0.398673 4.009982,1.210434 6.411852,1.628675 2.451615,0.426903 3.262881,0.675137 3.803929,1.16394 0.764001,0.69023 0.885841,0.574359 1.043814,-0.992668 0.09596,-0.951918 0.168004,-1.158577 0.337849,-0.969154 0.08396,0.09364 0.370366,7.248436 0.364,9.093332 l -0.0023,0.66452 h -0.92455 c -0.70435,0 -0.92455,-0.03759 -0.92455,-0.157825 0,-0.0868 -0.181869,-0.521361 -0.404153,-0.96568 -0.452712,-0.904919 -1.224412,-1.847094 -1.643341,-2.006371 -0.339905,-0.129231 -0.839402,0.101305 -1.108136,0.511446 -0.320136,0.488589 -0.679726,1.722085 -0.635923,2.181398 l 0.04168,0.437032 h -2.921164 c -1.606641,0 -2.921164,-0.02947 -2.921164,-0.0655 0,-0.03602 0.128308,-0.233716 0.285129,-0.43932 0.569843,-0.747103 1.186242,-2.513801 1.038964,-2.977836 -0.0533,-0.167938 -0.135233,-0.205992 -0.322188,-0.149641 -0.762543,0.229837 -4.509883,2.802594 -5.012144,3.441117 l -0.241285,0.306744 h -3.363752 c -1.850063,0 -3.363752,-0.02369 -3.363752,-0.05265 0,-0.02896 0.12556,-0.237677 0.279024,-0.463818 0.153463,-0.22614 0.314763,-0.6227 0.358443,-0.881244 0.147704,-0.874249 0.896228,-1.443678 3.84082,-2.921853 0.587956,-0.295151 1.069011,-0.556675 1.069011,-0.581163 0,-0.02449 -0.150601,-0.401008 -0.334669,-0.836713 -0.586664,-1.388687 -0.645182,-1.8893 -0.646475,-5.530507 -8.09e-4,-2.211951 0.05052,-3.678706 0.150898,-4.313857 0.08365,-0.5293 0.509066,-2.272391 0.94537,-3.873535 0.923382,-3.388619 1.624956,-6.152883 1.955107,-7.703307 0.284752,-1.33722 0.818987,-4.301764 0.818987,-4.544667 0,-0.176581 -5.267471,-5.163038 -7.223045,-6.837704 -1.859531,-1.592418 -3.419655,-2.691527 -4.907359,-3.457237 l -1.459006,-0.750941 -0.993067,1.069568 c -1.199752,1.292174 -2.24391,2.010346 -5.070339,3.487374 -3.691559,1.929125 -4.732184,2.656285 -4.732184,3.306718 0,0.303982 0.07312,0.376755 0.63879,0.635726 0.351335,0.160847 1.066416,0.367543 1.58907,0.459325 1.556885,0.273403 2.648144,0.02416 5.025976,-1.147942 1.989629,-0.980744 3.495394,-1.212765 5.017438,-0.773134 1.529731,0.441854 2.77592,2.277099 2.786417,4.103518 0.0059,1.029187 -0.248478,1.618358 -0.766632,1.775507 -0.200766,0.06089 -1.145117,0.140305 -2.098559,0.176479 -1.937884,0.07353 -2.353599,0.15928 -3.054673,0.630127 -0.764783,0.513635 -2.147434,1.811713 -2.713959,2.547955 -1.185267,1.540343 -1.793994,2.893478 -2.487416,5.529252 -0.773175,2.938934 -1.186767,3.717621 -2.106052,3.965158 -0.533578,0.143678 -1.837625,0.04188 -2.121367,-0.165592 -0.417451,-0.305248 -0.502015,-1.649848 -0.237302,-3.773172 0.297229,-2.384136 0.940063,-5.069445 1.516999,-6.33696 0.15539,-0.341386 0.282526,-0.740379 0.282526,-0.886652 0,-0.372389 -0.667468,-0.91043 -2.531595,-2.040701 -1.870496,-1.134133 -2.441176,-1.632022 -2.868877,-2.502949 -0.308106,-0.627396 -0.320166,-0.719532 -0.319849,-2.443298 3.47e-4,-2.14479 0.15959,-2.809967 0.864024,-3.610247 0.583959,-0.663411 1.153902,-1.039422 3.816179,-2.517661 2.922001,-1.622453 4.129192,-2.471567 4.00753,-2.818817 -0.02509,-0.07161 -0.3148,-0.12027 -0.675306,-0.113417 -0.629562,0.01197 -0.867943,0.08704 -6.173641,1.944282 -1.022495,0.357921 -2.192628,0.704192 -2.600296,0.769492 -1.218008,0.195099 -1.551294,0.54186 -1.803677,1.876614 -0.0949,0.501852 -0.302971,1.073451 -0.529285,1.453982 -0.482292,0.810936 -1.787834,2.138154 -2.742078,2.787605 -1.066521,0.725864 -1.714155,0.925731 -2.72932,0.842298 -0.998472,-0.08206 -1.390073,0.10186 -1.890787,0.888039 -1.137784,1.786448 -1.808521,6.330816 -1.347588,9.130152 0.39258,2.384219 1.347802,5.026802 2.91365,8.060491 2.22271,4.306302 3.585582,6.083046 8.4884,11.066132 3.006472,3.055694 4.042279,4.208699 4.042279,4.499646 0,0.250077 0.385548,0.508304 0.983827,0.658933 0.972327,0.244803 0.850259,0.330922 -0.469546,0.331262 -0.696012,2.32e-4 -2.227587,0.0318 -3.403499,0.07027 L 49.48191,96.70728 Z M 35.994955,59.708781 c 0.110917,-2.295325 -2.298477,-10.38263 -3.243979,-10.888647 -0.781856,-0.418437 -2.12383,2.99002 -2.030667,5.157657 0.03343,0.77792 0.106531,1.06537 0.455998,1.793192 0.739017,1.53912 2.980237,4.254229 3.911946,4.739099 0.345107,0.179596 0.446348,0.189683 0.640978,0.06386 0.182523,-0.117995 0.238412,-0.29996 0.265724,-0.865161 z m 7.541566,-3.132242 c 0.443822,-0.237528 0.606301,-0.775634 0.538062,-1.781987 -0.06494,-0.957729 -0.243744,-1.700839 -1.160789,-4.824297 -0.700851,-2.387098 -1.259868,-5.2294 -1.643526,-8.35644 -0.171569,-1.398381 -0.356868,-2.661618 -0.411777,-2.807192 -0.08781,-0.2328 -0.131288,-0.248102 -0.360958,-0.12704 -0.39118,0.206196 -1.711297,1.583904 -2.140598,2.233982 -0.580757,0.879424 -0.663036,1.303345 -0.663036,3.416115 0,1.488678 0.04798,2.096977 0.218776,2.773649 0.706591,2.799426 3.518984,8.34602 4.706092,9.281341 0.429183,0.338153 0.583956,0.370511 0.917754,0.191869 z m 29.32012,-5.74789 c -0.08931,-0.665882 -0.754368,-2.163673 -1.368281,-3.081547 -0.713349,-1.066546 -2.437603,-2.726636 -3.707819,-3.569843 -2.555956,-1.696718 -4.330633,-1.773524 -5.251597,-0.227282 -0.509151,0.854834 -0.682557,1.786128 -0.673224,3.615627 0.0081,1.591514 0.153135,2.432988 0.482978,2.802541 0.25375,0.284297 0.323265,0.262432 0.871461,-0.274112 1.884032,-1.843994 5.933343,-1.755753 8.042907,0.175266 0.803603,0.735592 1.1762,0.994504 1.431173,0.994504 0.200121,0 0.223017,-0.05779 0.172402,-0.435154 z"
       id="path3810"
       inkscape:connector-curvature="0"
       transform="matrix(0.26458333,0,0,0.26458333,0,87)" />
    <path
       style="opacity:1;fill:#ffffff;fill-opacity:1;fill-rule:nonzero;stroke:none;stroke-width:2.51338577;stroke-linecap:butt;stroke-linejoin:miter;stroke-miterlimit:4;stroke-dasharray:none;stroke-dashoffset:0;stroke-opacity:1;paint-order:stroke fill markers"
       d="m 46.637145,93.821983 c -1.561242,-1.573179 -3.168174,-3.249315 -3.570961,-3.724746 -1.999585,-2.360216 -3.328259,-4.436296 -4.971386,-7.767888 -1.471928,-2.984467 -1.954974,-4.406126 -3.231943,-9.51198 -1.503741,-6.012578 -1.74048,-6.546966 -4.787034,-10.805675 -2.674717,-3.738929 -3.199521,-4.616353 -3.651855,-6.105562 -0.2252,-0.741421 -0.24885,-1.022473 -0.199116,-2.366244 0.06115,-1.652208 0.267675,-2.605813 0.893406,-4.125185 1.64274,-3.98882 4.537036,-8.070869 8.23814,-11.618884 l 1.50253,-1.440381 h 5.300265 c 2.915146,0 5.300265,0.01537 5.300265,0.03415 0,0.01878 -0.286636,0.55184 -0.63697,1.184579 -0.773746,1.397469 -1.052638,2.116726 -1.215108,3.133745 -0.201804,1.263242 0.04159,2.650345 0.759289,4.327134 0.900845,2.10469 2.247769,3.91002 3.324133,4.455456 0.7277,0.368753 1.043837,0.263512 1.247179,-0.415183 0.192546,-0.642659 -0.108627,-1.721684 -0.768369,-2.752865 -0.685472,-1.0714 -0.743573,-1.549279 -0.744614,-6.124351 l -8.72e-4,-3.84266 h 2.587566 2.587565 l -0.399668,0.924426 c -0.549287,1.270494 -1.077264,3.419964 -1.077264,4.385697 0,1.451102 0.443412,2.359408 1.384639,2.836364 0.472304,0.239335 0.583078,0.362745 0.740619,0.8251 0.326283,0.957587 0.797487,1.21849 1.320553,0.73118 0.506645,-0.472012 0.698979,-1.20605 1.06094,-4.049064 0.338399,-2.657937 0.629392,-3.838725 1.069557,-4.340046 0.691528,-0.787607 1.427935,-0.934544 2.22458,-0.443877 0.82536,0.508353 1.174955,0.276323 0.680349,-0.451555 l -0.284191,-0.418225 h 2.253445 2.253445 l 3.03799,2.385449 3.03799,2.385448 0.0692,0.966522 c 0.07778,1.086384 0.271493,1.427842 0.810042,1.427842 0.758976,0 1.148519,0.443949 1.318274,1.502393 0.120103,0.748845 0.348199,1.122894 0.838548,1.375107 0.695468,0.357717 1.032575,0.811744 1.644137,2.214382 0.349619,0.801866 0.70959,1.443335 0.914725,1.630046 0.186033,0.169326 0.31641,0.329696 0.289728,0.35638 -0.02668,0.02668 0.13864,0.639551 0.367384,1.361931 0.410454,1.296225 0.413196,1.31799 0.209495,1.662829 -0.444661,0.752751 -0.149915,1.906148 0.871458,3.410188 0.566334,0.833963 1.950717,2.486877 3.859123,4.607683 l 1.382914,1.536829 -0.603129,3.721548 c -1.063919,6.564808 -2.046044,11.038987 -2.83102,12.897025 -0.150539,0.356325 -0.437559,1.024821 -0.637824,1.485544 -0.914495,2.103868 -0.409647,3.648447 1.474428,4.511005 0.81429,0.372794 4.030925,1.167323 6.664416,1.646155 2.235943,0.406546 2.876684,0.618893 3.488585,1.15615 0.680141,0.597173 0.775909,0.483803 0.957246,-1.133193 0.09879,-0.880896 0.170053,-1.068464 0.336226,-0.88495 0.08921,0.09852 0.367596,6.943333 0.362788,8.919979 l -0.002,0.837873 h -0.906052 -0.906052 l -0.161581,-0.489594 c -0.207401,-0.628433 -1.135466,-2.051991 -1.550695,-2.37861 -0.418991,-0.329579 -0.921907,-0.323551 -1.260567,0.01511 -0.376672,0.376672 -0.790562,1.529007 -0.806586,2.245663 l -0.01355,0.606041 -2.91811,6.93e-4 c -1.604961,3.47e-4 -2.91811,-0.0227 -2.91811,-0.0513 0,-0.02859 0.152668,-0.278203 0.339264,-0.554685 0.63866,-0.946315 1.170499,-2.630786 0.924287,-2.927454 -0.107609,-0.129661 -0.232887,-0.10462 -0.725699,0.145052 -1.197881,0.606881 -4.339589,2.841188 -4.614873,3.281988 -0.13214,0.211593 -0.307139,0.222661 -3.52053,0.222661 -1.859813,0 -3.381477,-0.03098 -3.381477,-0.06884 0,-0.03786 0.09728,-0.206879 0.216167,-0.375598 0.118893,-0.168719 0.30114,-0.601574 0.404992,-0.961901 0.260675,-0.904432 0.789345,-1.336625 3.066415,-2.506829 1.022848,-0.525649 1.859724,-0.971882 1.859724,-0.991628 0,-0.01975 -0.132311,-0.335081 -0.294025,-0.700745 -0.629012,-1.422307 -0.685471,-1.898575 -0.684953,-5.777981 5.78e-4,-4.16169 -0.0144,-4.056359 1.219428,-8.589618 1.578613,-5.800067 2.804137,-11.448212 2.570136,-11.845136 -0.0521,-0.08837 -0.848807,-0.878846 -1.770468,-1.756618 -5.566894,-5.301801 -7.789651,-7.114023 -10.392306,-8.472886 l -1.337918,-0.698537 -0.999552,1.068948 c -1.233026,1.318633 -2.210052,1.985665 -5.344418,3.648726 -3.508042,1.86133 -4.523276,2.587402 -4.437953,3.173927 0.121534,0.83544 2.978814,1.397594 4.75377,0.935278 0.366086,-0.09535 1.378126,-0.509585 2.248979,-0.920514 1.917528,-0.904826 2.856391,-1.148466 4.108637,-1.066211 1.654856,0.108701 2.786008,0.891265 3.480282,2.407761 0.538051,1.175257 0.61668,2.245758 0.233413,3.177849 -0.201974,0.491198 -0.564715,0.584133 -2.633101,0.674608 -0.940664,0.04115 -1.944329,0.145244 -2.230368,0.23133 -0.964589,0.290299 -2.993076,2.078191 -3.936313,3.469435 -0.967741,1.427388 -1.414077,2.49313 -2.116089,5.052717 -0.820929,2.99317 -1.18254,3.661157 -2.118357,3.913146 -0.645577,0.173837 -1.885373,0.03551 -2.16211,-0.241224 -0.443403,-0.443402 -0.440908,-2.442466 0.0063,-5.059001 0.303727,-1.776994 0.866804,-3.923189 1.290542,-4.918959 0.217274,-0.510586 0.314644,-0.897893 0.270226,-1.07487 -0.08291,-0.330341 -0.938863,-0.976495 -2.656838,-2.005636 -1.531249,-0.917283 -2.291126,-1.580375 -2.700714,-2.356724 -0.301912,-0.572253 -0.311389,-0.64851 -0.31037,-2.497163 0.0018,-3.337465 0.262633,-3.690008 4.448344,-6.013359 2.275882,-1.263267 3.590455,-2.102364 4.019862,-2.565892 0.233007,-0.251522 0.24327,-0.301953 0.08773,-0.431043 -0.281932,-0.233983 -1.058481,-0.05497 -3.581928,0.825695 -3.718424,1.297712 -5.018099,1.717873 -5.708813,1.845559 -1.260843,0.233079 -1.529683,0.505201 -1.808481,1.830556 -0.09953,0.473158 -0.307185,1.075664 -0.461454,1.338903 -0.769929,1.313785 -2.37637,2.816319 -3.707246,3.467456 -0.580693,0.284108 -0.795771,0.323727 -1.793033,0.330292 -1.125645,0.0074 -1.135862,0.01006 -1.534168,0.39611 -1.118524,1.084131 -2.046701,5.079296 -1.88315,8.105652 0.161721,2.992448 1.335137,6.483454 3.534949,10.516753 1.967932,3.608154 3.448038,5.47384 8.143967,10.265537 2.924529,2.984169 3.882792,4.061683 3.882792,4.365983 0,0.22374 0.633776,0.593159 1.17429,0.684478 0.243354,0.04111 0.466745,0.114044 0.496423,0.162067 0.05263,0.08516 -3.576652,0.238372 -5.660905,0.238977 L 49.4758,96.682307 Z M 35.905444,60.328424 c 0.253509,-0.666779 0.04086,-2.208711 -0.704275,-5.106849 -0.732934,-2.850668 -1.697394,-5.528167 -2.23032,-6.191736 -0.477952,-0.595119 -1.11255,0.146484 -1.763288,2.060611 -0.392165,1.153542 -0.432906,1.388969 -0.439984,2.542512 -0.0073,1.191984 0.01458,1.318098 0.351142,2.022452 0.43397,0.908214 1.420693,2.297152 2.456269,3.457509 1.292881,1.448668 2.084773,1.861696 2.330456,1.215501 z m 7.642057,-3.757762 c 0.321157,-0.171879 0.560952,-0.799551 0.557961,-1.460487 -0.0032,-0.705467 -0.334709,-2.202937 -0.913076,-4.124404 -0.954644,-3.171536 -1.445722,-5.534542 -1.911648,-9.198603 -0.398645,-3.134957 -0.395676,-3.120355 -0.634299,-3.120355 -0.237342,0 -1.73444,1.459401 -2.217833,2.161988 -0.654627,0.951467 -0.72363,1.288733 -0.716263,3.500879 0.0056,1.683643 0.04772,2.173772 0.251393,2.925722 0.362273,1.337492 0.960364,2.791272 2.053211,4.990735 1.101904,2.217693 2.120094,3.799093 2.695899,4.187128 0.443245,0.298703 0.512079,0.310033 0.834655,0.137397 z m 29.288573,-5.798026 c -0.108853,-0.685096 -1.105011,-2.724863 -1.722879,-3.527829 -1.696534,-2.204773 -5.035975,-4.420396 -6.657221,-4.416876 -0.969133,0.0021 -1.812154,0.655069 -2.206498,1.70905 -0.480388,1.283951 -0.515066,4.681483 -0.05683,5.567618 0.237512,0.459297 0.493095,0.441914 1.048245,-0.07129 1.137002,-1.051101 3.076915,-1.507805 4.946462,-1.164522 1.337272,0.245548 2.242625,0.685537 3.345698,1.625962 0.496139,0.422983 1.009843,0.769059 1.141566,0.769059 0.216956,0 0.232151,-0.04623 0.161455,-0.491167 z"
       id="path3812"
       inkscape:connector-curvature="0"
       transform="matrix(0.26458333,0,0,0.26458333,0,87)" />
    <path
       style="opacity:1;fill:#ffffff;fill-opacity:1;fill-rule:nonzero;stroke:none;stroke-width:2.51338577;stroke-linecap:butt;stroke-linejoin:miter;stroke-miterlimit:4;stroke-dasharray:none;stroke-dashoffset:0;stroke-opacity:1;paint-order:stroke fill markers"
       d="M 46.51968,93.706415 C 41.869412,89.013117 40.554674,87.256751 38.255777,82.666617 36.567049,79.294787 36.092878,77.90715 34.695506,72.247675 33.440115,67.163232 33.022667,66.200094 30.584568,62.76289 27.44123,58.331451 26.615204,56.933572 26.306237,55.522693 c -0.228836,-1.044964 -0.08781,-3.398884 0.277054,-4.624374 0.801005,-2.690396 2.76493,-6.174372 5.242663,-9.300417 0.547249,-0.690438 1.892716,-2.152445 2.989927,-3.248903 l 1.994931,-1.993561 h 5.324321 c 2.928377,0 5.324323,0.02421 5.324323,0.05381 0,0.0296 -0.285485,0.562899 -0.63441,1.185118 -1.074685,1.91643 -1.396003,3.223269 -1.195073,4.860507 0.178454,1.4541 1.064926,3.543715 2.204423,5.196323 0.685077,0.993563 1.318538,1.592097 2.007592,1.896898 0.809323,0.358002 1.132829,0.04478 1.109425,-1.074175 -0.01309,-0.626038 -0.210689,-1.142904 -0.833239,-2.179571 -0.311143,-0.518115 -0.488534,-0.984278 -0.57171,-1.502393 -0.06633,-0.413158 -0.120987,-2.480394 -0.121468,-4.593857 l -8.72e-4,-3.84266 h 2.596189 2.59619 l -0.23985,0.548952 c -0.419453,0.960011 -0.885259,2.420801 -1.086411,3.407026 -0.405349,1.987385 0.01556,3.497361 1.15399,4.139852 0.57007,0.321728 0.873896,0.705058 0.873896,1.102574 0,0.231125 0.519237,0.740506 0.754834,0.740506 0.325718,0 0.836037,-0.632337 1.025674,-1.270913 0.100535,-0.338541 0.316828,-1.582237 0.48065,-2.763771 0.471134,-3.39797 0.651326,-4.108804 1.184364,-4.672179 0.682987,-0.72186 1.35409,-0.831209 2.1693,-0.353464 0.790875,0.463484 1.125392,0.169611 0.61802,-0.542928 l -0.239008,-0.335655 h 2.271693 2.271692 l 2.387818,1.883966 c 1.3133,1.036181 2.686853,2.108551 3.052339,2.383044 0.656602,0.493131 0.664552,0.506142 0.667277,1.091929 0.0037,0.80462 0.173882,1.480651 0.417469,1.658767 0.110988,0.08115 0.366281,0.147555 0.567321,0.147555 0.556008,0 0.92745,0.417476 1.090554,1.22571 0.209348,1.03739 0.404181,1.39673 0.893842,1.648559 0.783244,0.402817 1.205185,1.011437 1.880485,2.71246 0.147397,0.371282 0.42905,0.847555 0.625893,1.058383 0.196845,0.210829 0.373588,0.479118 0.392762,0.596197 0.01918,0.117081 0.191453,0.72555 0.382842,1.352154 0.330211,1.081111 0.338757,1.158713 0.167381,1.519859 -0.422704,0.890783 -0.0847,2.077323 1.034615,3.631912 0.605333,0.840732 2.123967,2.628223 4.266785,5.022166 l 0.801462,0.89539 -0.437455,2.736703 c -1.377657,8.618557 -2.141908,11.872688 -3.601204,15.333693 -0.361268,0.856815 -0.43987,1.182688 -0.44602,1.8491 -0.0063,0.684058 0.04203,0.893181 0.313062,1.354246 0.735283,1.250833 2.339825,1.831446 8.195872,2.965722 2.461784,0.47683 2.884911,0.618713 3.535663,1.185572 0.20879,0.181874 0.427986,0.33068 0.487101,0.33068 0.19994,0 0.333167,-0.418737 0.412791,-1.297429 0.0846,-0.933624 0.200177,-1.262695 0.376063,-1.070764 0.101347,0.110592 0.372817,6.510815 0.368829,8.69558 l -0.002,1.069011 -0.895658,-0.0038 -0.895657,-0.0038 -0.479701,-1.007945 c -0.597026,-1.254472 -1.347103,-2.104782 -1.85667,-2.104782 -0.702838,0 -1.416452,1.250667 -1.445676,2.533666 l -0.01336,0.586689 h -2.927289 c -1.610008,0 -2.927288,-0.03098 -2.927288,-0.06884 0,-0.03786 0.105193,-0.216567 0.233763,-0.397127 0.448266,-0.629531 0.937663,-1.836102 1.003507,-2.474067 0.06046,-0.58575 0.04608,-0.6426 -0.162538,-0.6426 -0.458742,0 -3.867816,2.251705 -4.909869,3.242986 l -0.478527,0.455213 h -3.332683 c -1.832975,0 -3.332681,-0.02303 -3.332681,-0.05118 0,-0.02815 0.104449,-0.228208 0.23211,-0.444576 0.127662,-0.216371 0.310633,-0.657811 0.406603,-0.980979 0.245245,-0.825829 0.824133,-1.290743 3.043523,-2.444306 L 76.803867,91.565956 76.62422,91.14825 c -0.418889,-0.973984 -0.628566,-1.73379 -0.735169,-2.664023 -0.151876,-1.325281 -0.145737,-5.324797 0.01057,-6.892433 0.124872,-1.2523 0.226053,-1.683821 1.651698,-7.044246 0.868228,-3.264539 1.45329,-5.823791 1.861825,-8.14422 l 0.295032,-1.675746 -1.476052,-1.449367 c -1.977546,-1.941801 -4.674791,-4.421996 -6.137118,-5.643264 -1.722013,-1.438145 -3.007912,-2.331826 -4.576295,-3.18046 l -1.378694,-0.745994 -1.031136,1.089538 c -1.243533,1.313965 -2.157391,1.939451 -5.229261,3.579154 -3.496166,1.866182 -4.650542,2.689861 -4.542216,3.240999 0.117489,0.597765 1.99182,1.152769 3.559597,1.054025 1.110535,-0.06995 1.726136,-0.263951 3.47077,-1.093803 1.867484,-0.888285 2.304995,-1.007647 3.70063,-1.0096 1.141516,-0.0016 1.262871,0.02142 1.983672,0.37627 0.422274,0.207885 0.928627,0.561176 1.125227,0.785092 0.786565,0.895849 1.385278,2.603363 1.227355,3.500389 -0.135162,0.767738 -0.309266,1.172903 -0.563065,1.310339 -0.137926,0.07469 -1.203802,0.201499 -2.368616,0.281801 -2.426004,0.16725 -2.56063,0.216269 -4.074139,1.483417 -1.97837,1.656344 -3.086071,3.576042 -4.090202,7.088514 -0.350712,1.226794 -0.748552,2.488316 -0.88409,2.803383 -0.297861,0.692396 -0.873743,1.225499 -1.438242,1.331399 -0.48182,0.09039 -1.59297,-0.01842 -1.907586,-0.186793 -0.926408,-0.495799 -0.264595,-6.339857 1.129293,-9.972075 0.21892,-0.570467 0.361033,-1.115564 0.322496,-1.236986 -0.0848,-0.267187 -0.712965,-0.729689 -2.657034,-1.956311 -1.728865,-1.090839 -2.268171,-1.566314 -2.69294,-2.374217 -0.272005,-0.517347 -0.308476,-0.732245 -0.34836,-2.052635 -0.04863,-1.610039 0.0999,-2.76826 0.440674,-3.436232 0.361912,-0.709406 1.367535,-1.508688 3.186079,-2.532338 4.535978,-2.553281 5.543281,-3.296106 4.792705,-3.53433 -0.351743,-0.111639 -1.541448,0.22823 -4.74253,1.354826 -1.620851,0.570446 -3.389052,1.140411 -3.929336,1.266588 -1.783352,0.416483 -1.915245,0.535545 -2.256797,2.037233 -0.297947,1.309969 -1.18411,2.539929 -2.6979,3.744578 -1.369027,1.089449 -1.835188,1.281427 -3.140226,1.293232 -0.849295,0.0077 -1.174995,0.05714 -1.415935,0.215031 -0.715198,0.468661 -1.295759,1.809646 -1.775793,4.101749 -0.416732,1.98984 -0.442656,4.679801 -0.06216,6.449647 0.484294,2.252638 1.258578,4.28401 2.749894,7.214487 2.208617,4.339989 3.599039,6.142296 9.004016,11.671271 2.652649,2.713506 3.269911,3.409451 3.537383,3.98829 0.12789,0.276774 0.306252,0.395623 0.884255,0.58922 0.398228,0.133383 0.74975,0.268212 0.781159,0.299623 0.07303,0.07303 -3.347988,0.20906 -5.257566,0.20906 H 49.468291 Z M 35.937733,60.162594 c 0.421601,-1.604411 -2.125605,-10.610101 -3.184397,-11.258485 -0.317123,-0.1942 -0.560425,0.03299 -1.029683,0.961481 -0.892593,1.766125 -1.216408,4.083665 -0.755266,5.405428 0.411075,1.178257 2.503616,3.944504 3.713897,4.909606 0.72428,0.577557 1.100362,0.572155 1.255449,-0.01803 z m 7.513307,-3.601507 c 0.833177,-0.443753 0.838975,-1.605217 0.0224,-4.488303 -1.305108,-4.607989 -1.757706,-6.7946 -2.363436,-11.418344 -0.23787,-1.815733 -0.280094,-1.987627 -0.488246,-1.987627 -0.202802,0 -1.814527,1.62857 -2.227583,2.250866 -0.55711,0.839321 -0.652402,1.33758 -0.652402,3.411244 0,2.173873 0.18428,3.125518 0.982754,5.07505 1.332005,3.252189 3.202922,6.500032 4.075906,7.075625 0.386189,0.254629 0.337069,0.248478 0.650602,0.08149 z m 29.360017,-5.730958 c -0.01879,-0.419607 -0.68002,-1.985685 -1.217326,-2.883171 -0.856564,-1.430759 -3.350732,-3.622419 -5.098807,-4.480393 -2.006915,-0.985015 -3.312783,-0.745405 -4.068828,0.746576 -0.411923,0.812892 -0.552614,1.869832 -0.496904,3.733001 0.05207,1.741532 0.240823,2.50868 0.617242,2.50868 0.104725,0 0.423973,-0.205591 0.709439,-0.456869 0.66436,-0.584792 1.307588,-0.893105 2.303432,-1.104085 2.102525,-0.44544 4.19988,0.08183 5.832333,1.466245 1.189627,1.008869 1.447376,1.094219 1.419419,0.470016 z"
       id="path3814"
       inkscape:connector-curvature="0"
       transform="matrix(0.26458333,0,0,0.26458333,0,87)" />
    <path
       style="opacity:1;fill:#ffffff;fill-opacity:1;fill-rule:nonzero;stroke:none;stroke-width:2.51338577;stroke-linecap:butt;stroke-linejoin:miter;stroke-miterlimit:4;stroke-dasharray:none;stroke-dashoffset:0;stroke-opacity:1;paint-order:stroke fill markers"
       d="m 46.644139,93.866681 c -4.796625,-4.858539 -6.008438,-6.47204 -8.36482,-11.137562 -1.665938,-3.298479 -2.210096,-4.874281 -3.511929,-10.170047 -0.82882,-3.371585 -1.273934,-4.808517 -1.893647,-6.113145 -0.453657,-0.955043 -1.878736,-3.128041 -4.138501,-6.310493 -1.244894,-1.753198 -2.107188,-3.329449 -2.370836,-4.333827 -0.19638,-0.748119 -0.222387,-2.77973 -0.04818,-3.76365 0.929033,-5.247165 7.174308,-13.692989 12.706713,-17.183977 1.94658,-1.228307 6.07882,-3.371064 9.014156,-4.674255 0.921547,-0.409137 1.753642,-0.808957 1.849099,-0.888489 0.09546,-0.07953 0.303573,-0.154097 0.46248,-0.165699 0.158907,-0.0116 1.041559,-0.252331 1.96145,-0.534953 l 1.672531,-0.51386 0.581059,0.38377 c 0.923262,0.609781 1.75716,0.992385 2.43676,1.118015 0.398595,0.07369 0.746493,0.225179 0.947299,0.41251 0.39977,0.372939 7.089727,5.775648 7.715428,6.230863 0.25517,0.185643 1.768682,1.362604 3.363359,2.615467 l 2.899414,2.277933 0.06647,0.878871 c 0.06585,0.870669 0.293999,1.44096 0.576981,1.442247 0.07799,3.46e-4 0.339525,0.05555 0.581192,0.12266 0.524068,0.145529 0.847921,0.609912 0.959125,1.375324 0.112209,0.772335 0.338347,1.128085 0.960377,1.510824 0.676772,0.416422 0.994756,0.871363 1.620952,2.3191 0.264132,0.610663 0.633852,1.257465 0.8216,1.437339 0.187748,0.179874 0.341359,0.41864 0.341359,0.530593 0,0.229494 0.53347,2.029402 0.680263,2.295182 0.06001,0.10866 0.01009,0.336582 -0.134479,0.613942 -0.179687,0.344738 -0.215864,0.577377 -0.165568,1.064696 0.129842,1.258059 1.116135,2.681724 4.52029,6.524819 0.927802,1.047434 1.686911,1.998331 1.686911,2.113104 0,0.114773 -0.208714,1.494036 -0.46381,3.065029 -1.319927,8.128682 -2.049588,11.308773 -3.252438,14.175143 -0.669411,1.595196 -0.835166,2.389608 -0.664566,3.185082 0.139831,0.652009 0.712332,1.374609 1.41561,1.786758 0.716007,0.419609 3.012494,1.04243 6.209945,1.684179 3.272451,0.6568 3.580432,0.750822 4.327603,1.32115 0.345664,0.263853 0.592036,0.380163 0.660417,0.311783 0.05999,-0.05999 0.174288,-0.583402 0.253998,-1.163139 0.148281,-1.078452 0.225368,-1.291118 0.399312,-1.101592 0.103708,0.112997 0.364439,6.217033 0.361267,8.457703 l -0.0018,1.300148 -0.895658,-0.0038 -0.895657,-0.0038 -0.479701,-1.007945 c -0.597026,-1.254472 -1.347103,-2.104783 -1.85667,-2.104783 -0.715113,0 -1.419613,1.272163 -1.419613,2.563488 v 0.556867 h -2.947002 c -1.620851,0 -2.947002,-0.03445 -2.947002,-0.07656 0,-0.04211 0.160566,-0.326781 0.356815,-0.632607 0.430352,-0.670645 0.908646,-1.980636 0.912003,-2.497866 0.0019,-0.289402 -0.04667,-0.375599 -0.211559,-0.375599 -0.428048,0 -3.711156,2.157264 -4.873366,3.202191 l -0.551681,0.496008 h -3.363405 c -1.849872,0 -3.363404,-0.04395 -3.363404,-0.09766 0,-0.05371 0.105221,-0.19288 0.233822,-0.309264 0.128602,-0.116383 0.316001,-0.494286 0.416439,-0.839784 0.319121,-1.097736 1.038408,-1.675272 3.828027,-3.073634 0.587955,-0.294727 1.068771,-0.600353 1.068479,-0.679168 -3.47e-4,-0.07882 -0.15344,-0.536375 -0.340326,-1.0168 -0.456011,-1.172259 -0.583692,-2.340341 -0.583692,-5.339843 0,-3.920748 -0.02405,-3.780388 1.905544,-11.121965 0.763976,-2.90672 1.336635,-5.43375 1.728502,-7.627536 l 0.28901,-1.617962 -1.702586,-1.675746 C 74.556825,59.699188 71.334759,56.88005 69.497486,55.648207 68.976779,55.299087 68.002595,54.724 67.332633,54.370233 l -1.218115,-0.64321 -0.954095,1.034561 c -1.160173,1.258018 -2.306488,2.040456 -5.499785,3.753972 -4.343172,2.330536 -5.027133,3.003208 -3.704589,3.64344 0.281425,0.136236 0.942099,0.324484 1.468166,0.418329 1.601521,0.285696 2.636277,0.07551 4.939469,-1.003327 1.87561,-0.878555 2.64039,-1.072707 3.992518,-1.013569 0.850749,0.03721 1.175189,0.106371 1.69731,0.36182 1.593422,0.779589 2.677005,2.954257 2.303547,4.623043 -0.252377,1.127735 -0.275619,1.137232 -3.258549,1.331439 -1.436095,0.0935 -1.767136,0.152195 -2.25359,0.399586 -0.849906,0.432227 -2.36066,1.799604 -3.159274,2.859445 -1.137141,1.5091 -1.59634,2.600457 -2.721569,6.468215 -0.515667,1.772503 -0.868027,2.391506 -1.567056,2.7529 -0.441179,0.228087 -0.626876,0.257817 -1.242309,0.198895 -1.052157,-0.100736 -1.264695,-0.209751 -1.406831,-0.721594 -0.403391,-1.452647 0.335144,-6.529709 1.325912,-9.114995 0.464008,-1.210773 0.519687,-1.443696 0.399009,-1.669186 -0.137255,-0.256462 -0.846674,-0.763472 -2.56443,-1.832753 -1.672872,-1.041341 -2.257284,-1.548978 -2.696828,-2.342536 -0.341482,-0.616518 -0.342803,-0.626313 -0.340785,-2.525802 0.0022,-2.085285 0.0888,-2.550963 0.62439,-3.358331 0.473908,-0.714379 1.102631,-1.160483 3.818005,-2.709034 2.544515,-1.451109 3.990974,-2.395658 4.098749,-2.676515 0.263033,-0.685455 -0.642104,-0.492659 -5.152955,1.097587 -1.440647,0.507883 -3.078834,1.033866 -3.640415,1.168851 -1.811485,0.435422 -1.946626,0.555533 -2.289761,2.035104 -0.320173,1.38056 -1.276583,2.67619 -2.854946,3.867544 -1.336145,1.008528 -1.681419,1.146995 -2.868257,1.150279 -1.206989,0.0033 -1.651994,0.198387 -2.148884,0.941869 -0.997465,1.492474 -1.705983,5.518144 -1.439803,8.180692 0.288099,2.881801 1.416677,6.080416 3.483961,9.874241 1.883033,3.45569 3.365486,5.378157 7.097641,9.204324 3.407707,3.493547 4.644606,4.835797 4.844578,5.257206 0.232977,0.490964 0.52143,0.692368 1.252629,0.874619 0.864558,0.215488 0.760626,0.339997 -0.284065,0.340306 -0.528145,1.16e-4 -2.07839,0.03249 -3.44499,0.07186 l -2.484728,0.07157 z M 35.801757,60.464147 c 0.232605,-0.280614 0.17812,-1.603439 -0.127723,-3.100947 -0.558713,-2.735644 -1.737831,-6.528659 -2.404466,-7.734742 -0.596214,-1.078678 -0.895329,-1.023244 -1.553843,0.287966 -0.618918,1.232368 -0.898165,2.437136 -0.898165,3.874999 0,1.161934 0.01049,1.209029 0.464559,2.086504 0.828734,1.601487 2.951999,4.124282 3.869268,4.597338 0.432807,0.223209 0.456466,0.222804 0.65037,-0.01112 z m 8.005854,-4.238081 c 0.202166,-0.272316 0.23934,-0.474432 0.223188,-1.213472 -0.01945,-0.889909 -0.179824,-1.589472 -1.196804,-5.22056 -0.642894,-2.295423 -1.191717,-5.102775 -1.615196,-8.262078 -0.195881,-1.461348 -0.400458,-2.701306 -0.454615,-2.755464 -0.05424,-0.05424 -0.197325,-0.04556 -0.318585,0.01933 -0.428141,0.229135 -1.993921,1.978207 -2.312805,2.583546 -0.322819,0.61281 -0.323326,0.617397 -0.323326,2.925147 0,1.861069 0.04013,2.456746 0.20597,3.057552 0.737877,2.673145 3.4817,8.011177 4.602709,8.954443 0.455884,0.383602 0.861406,0.353446 1.189464,-0.08845 z m 28.981703,-5.453842 c -0.04771,-0.438697 -0.695549,-1.957132 -1.195583,-2.802274 -0.46368,-0.7837 -2.159274,-2.522511 -3.274122,-3.357571 -1.017214,-0.761927 -2.461261,-1.486888 -3.311676,-1.662575 -1.255527,-0.259377 -2.240839,0.349254 -2.751195,1.699422 -0.518701,1.372246 -0.440222,5.163943 0.117324,5.668516 0.209544,0.189634 0.239574,0.183321 0.63969,-0.134474 1.340633,-1.064806 1.988176,-1.322181 3.529208,-1.402731 1.896005,-0.0991 3.585792,0.434133 4.804775,1.516218 1.106163,0.981934 1.511193,1.115524 1.441579,0.475469 z M 50.746611,49.419613 c 0.111958,-0.159842 0.179906,-0.506685 0.179906,-0.91833 0,-0.673198 0.01416,-0.638011 -1.116716,-2.775889 -0.312603,-0.590968 -0.384346,-1.671616 -0.386012,-5.814485 -0.0018,-4.390945 -0.05481,-5.373946 -0.289966,-5.373946 -0.573871,0 -2.74012,3.459257 -3.282419,5.241659 -0.294339,0.967418 -0.321346,2.490966 -0.06184,3.488391 0.478796,1.84025 1.614031,3.989529 2.75941,5.224241 1.035144,1.115881 1.830848,1.452016 2.197632,0.928359 z m 6.105719,-3.811854 c 0.289405,-0.617062 0.42104,-1.238214 0.722769,-3.410533 0.501889,-3.613396 0.782661,-4.495273 1.584667,-4.977279 0.657339,-0.395061 0.979785,-0.412808 1.600771,-0.0881 0.642185,0.335789 1.02944,0.378915 1.02944,0.114643 0,-0.50555 -1.981121,-2.817621 -2.77365,-3.236993 -0.573684,-0.303569 -1.649846,-0.287429 -2.263012,0.03394 -0.73978,0.387729 -1.721078,1.535029 -2.231443,2.608926 -0.878866,1.849284 -1.475764,4.244914 -1.361786,5.465478 0.114243,1.223402 0.47996,1.807922 1.569813,2.509005 0.25648,0.164989 0.448331,0.414948 0.549391,0.715795 0.08541,0.254251 0.287886,0.579185 0.449949,0.722076 0.2723,0.240087 0.31932,0.24705 0.619604,0.09177 0.178718,-0.09242 0.405287,-0.339345 0.503487,-0.548724 z M 58.294789,31.043307 C 58.22089,30.82161 57.234314,30.358 57.01529,30.442048 c -0.254464,0.09765 -0.24998,0.468642 0.0075,0.618597 0.29941,0.17439 1.331243,0.160326 1.272022,-0.01734 z"
       id="path3816"
       inkscape:connector-curvature="0"
       transform="matrix(0.26458333,0,0,0.26458333,0,87)" />
    <path
       style="opacity:1;fill:#ffffff;fill-opacity:1;fill-rule:nonzero;stroke:none;stroke-width:2.51338577;stroke-linecap:butt;stroke-linejoin:miter;stroke-miterlimit:4;stroke-dasharray:none;stroke-dashoffset:0;stroke-opacity:1;paint-order:stroke fill markers"
       d="m 46.521847,93.737039 c -4.632518,-4.689414 -6.000838,-6.516882 -8.26607,-11.039798 -1.65833,-3.311135 -2.187256,-4.842412 -3.505121,-10.147578 -1.42174,-5.723316 -1.713932,-6.346891 -5.383797,-11.489679 -1.473493,-2.064889 -2.274711,-3.36699 -2.720889,-4.42186 -0.347648,-0.821921 -0.382173,-1.015895 -0.426591,-2.396694 -0.05286,-1.64316 0.04563,-2.380359 0.516282,-3.864614 0.699112,-2.204709 3.032897,-6.248406 5.042372,-8.736806 1.768581,-2.190092 4.227696,-4.638547 5.894003,-5.868452 1.832454,-1.352539 6.88961,-4.079347 10.538616,-5.682399 0.826317,-0.363011 1.584497,-0.732898 1.684847,-0.821972 0.100349,-0.08907 0.291458,-0.161953 0.424688,-0.161953 0.13323,0 1.012434,-0.232187 1.953787,-0.51597 l 1.711554,-0.51597 0.695192,0.452375 c 0.873426,0.568355 1.584537,0.883983 2.372192,1.052905 0.338718,0.07264 0.724031,0.234831 0.856251,0.360421 0.286379,0.272019 5.050875,4.137995 6.772262,5.495104 0.666182,0.525206 2.563395,2.010915 4.216028,3.301575 l 3.004786,2.346654 0.09428,0.858899 c 0.130627,1.190075 0.247832,1.38415 0.941044,1.55825 0.657896,0.16523 0.935795,0.451184 1.099913,1.131797 0.298586,1.238267 0.383152,1.38376 1.066882,1.835545 0.721714,0.476884 1.008246,0.890945 1.59846,2.309902 0.203966,0.490364 0.546431,1.096699 0.76103,1.347411 0.214601,0.250713 0.392818,0.551586 0.396038,0.668607 0.0032,0.117021 0.173861,0.718866 0.379201,1.337432 l 0.373347,1.124665 -0.219444,0.42774 c -0.168114,0.327686 -0.20325,0.564487 -0.150208,1.012336 0.148873,1.256998 1.054661,2.582343 4.23165,6.191719 l 1.983619,2.25359 -0.07009,0.635628 c -0.1306,1.184403 -1.220107,7.557119 -1.679441,9.823341 -0.251226,1.239475 -0.635729,2.903664 -0.854452,3.698199 -0.387439,1.407417 -0.534208,1.829645 -1.385942,3.987121 -0.554492,1.404547 -0.581428,2.41337 -0.08532,3.195644 0.759558,1.197699 2.142011,1.708665 7.606264,2.811332 2.860006,0.57714 3.345554,0.725974 3.962527,1.214625 0.241766,0.191483 0.498385,0.34815 0.570265,0.34815 0.186556,0 0.320505,-0.417182 0.413867,-1.288985 0.08888,-0.829965 0.215664,-1.147191 0.385128,-0.963639 0.114338,0.123845 0.369783,5.88694 0.367495,8.291089 l -0.0014,1.473501 h -0.911128 -0.911126 l -0.258933,-0.637969 c -0.331251,-0.81615 -1.263682,-2.146795 -1.648742,-2.352873 -0.170035,-0.091 -0.422359,-0.127619 -0.589798,-0.08559 -0.600168,0.150632 -1.227572,1.438168 -1.227572,2.51918 v 0.557256 h -2.947002 c -1.620851,0 -2.947002,-0.02421 -2.947002,-0.05381 0,-0.02959 0.181522,-0.384046 0.403384,-0.787675 0.778337,-1.416008 1.095373,-2.741149 0.655815,-2.741149 -0.41613,0 -3.311944,1.893597 -4.725026,3.089733 l -0.718825,0.608466 h -3.354973 c -1.847524,0 -3.354972,-0.04557 -3.354972,-0.101418 0,-0.05578 0.07491,-0.163591 0.166475,-0.23958 0.09156,-0.07599 0.303707,-0.497291 0.471433,-0.936225 0.412726,-1.080091 0.976364,-1.561139 3.158495,-2.695678 0.962993,-0.500681 1.750895,-0.945779 1.750895,-0.989105 0,-0.04333 -0.153833,-0.500293 -0.341853,-1.015477 -0.460308,-1.261273 -0.582696,-2.391001 -0.582696,-5.378667 0,-3.248895 0.12179,-4.27784 0.830837,-7.019276 0.320578,-1.239474 0.858173,-3.319711 1.194653,-4.622749 0.751432,-2.909945 1.13568,-4.607544 1.569528,-6.934123 l 0.334035,-1.791315 -1.820067,-1.776941 c -4.94767,-4.830441 -7.764131,-7.119317 -10.661072,-8.664015 l -1.097902,-0.585421 -0.96018,1.033129 c -1.162826,1.251173 -2.347164,2.062583 -5.3961,3.696962 -3.610515,1.935413 -4.740866,2.801048 -4.319926,3.308248 0.419314,0.505244 1.717722,0.867127 3.103738,0.865051 1.17542,-0.0018 2.036887,-0.243806 3.791991,-1.065435 0.669086,-0.313224 1.55186,-0.673074 1.96172,-0.799667 0.909819,-0.281015 2.38947,-0.305629 3.23729,-0.05385 1.487217,0.441655 2.658382,1.989748 2.870471,3.794303 0.09213,0.783841 -0.198104,1.859712 -0.552904,2.049595 -0.135395,0.07246 -1.182744,0.20169 -2.327441,0.287175 -2.436752,0.181976 -2.746953,0.292797 -4.091904,1.461856 -2.135922,1.856587 -3.036403,3.439607 -4.192471,7.370257 -0.89222,3.033557 -1.193701,3.57488 -2.131635,3.827439 -0.490779,0.132154 -1.693571,0.05052 -2.047637,-0.138967 -0.86494,-0.462902 -0.38231,-5.497058 0.89388,-9.323782 0.281116,-0.842942 0.51112,-1.659407 0.51112,-1.814369 0,-0.315836 -0.545303,-0.738793 -2.686777,-2.083965 -1.568911,-0.985515 -2.14463,-1.493186 -2.575495,-2.271075 -0.342321,-0.618033 -0.342811,-0.621728 -0.342811,-2.583586 0,-2.099721 0.07611,-2.512329 0.613558,-3.32608 0.369473,-0.559423 1.353352,-1.296834 2.835646,-2.125299 3.295385,-1.841815 5.160665,-3.069014 5.160665,-3.395288 0,-0.221936 -0.5227,-0.22525 -1.35782,-0.0086 -0.492674,0.127807 -2.091906,0.65361 -3.55385,1.168452 -1.461944,0.514843 -3.25247,1.095221 -3.978946,1.28973 -0.726475,0.194509 -1.409495,0.409004 -1.517823,0.476655 -0.315953,0.197316 -0.544584,0.67545 -0.745608,1.559288 -0.321481,1.413447 -1.596219,3.036186 -3.287044,4.184403 -1.001641,0.680202 -1.382051,0.812285 -2.341553,0.81302 -1.487862,0.0012 -1.887167,0.218626 -2.443803,1.331047 -1.103745,2.205802 -1.565188,6.433765 -1.011562,9.268418 0.457553,2.342748 1.664056,5.436904 3.265969,8.375794 2.024011,3.713282 3.223768,5.234047 8.004649,10.146396 2.670154,2.743581 3.997936,4.221548 3.997936,4.450138 0,0.236264 0.379235,0.491469 1.040119,0.699943 0.349595,0.11028 0.676699,0.236663 0.726897,0.28085 0.08848,0.07789 -3.780119,0.232955 -5.811799,0.232955 H 49.461635 Z M 35.902584,59.480108 c 0,-2.730751 -2.441286,-10.612624 -3.287093,-10.612624 -0.265894,0 -0.539311,0.349265 -0.948133,1.211149 -0.608477,1.282797 -0.877979,2.534235 -0.831449,3.86084 0.03504,0.999125 0.08161,1.207335 0.418164,1.86982 0.770843,1.517348 2.978186,4.173583 3.832718,4.612151 0.671996,0.344887 0.815793,0.178962 0.815793,-0.941336 z m 7.806141,-3.153189 c 0.288849,-0.288848 0.329533,-0.528807 0.285006,-1.680999 -0.01894,-0.490152 -0.389011,-2.019872 -1.32802,-5.489514 -0.59399,-2.194794 -0.928143,-3.919863 -1.387941,-7.16526 -0.448806,-3.167824 -0.47447,-3.293351 -0.673549,-3.294493 -0.274105,-0.0016 -2.135459,2.067416 -2.466566,2.741712 -0.32714,0.666217 -0.328171,0.675538 -0.323166,2.921939 0.004,1.798154 0.04687,2.405403 0.2121,3.004787 0.706114,2.561503 3.526314,8.05308 4.599339,8.955971 0.433208,0.364523 0.722568,0.366087 1.082797,0.0059 z M 72.7388,50.726764 c -0.08159,-0.608292 -0.741955,-2.110583 -1.292051,-2.93934 -1.376618,-2.07396 -4.539423,-4.444321 -6.439203,-4.825851 -1.600215,-0.321369 -2.672501,0.674955 -2.997933,2.785556 -0.172499,1.118743 -0.0713,3.623028 0.169723,4.19987 0.22754,0.544578 0.48364,0.544856 1.130992,0.0012 1.071068,-0.899453 2.310102,-1.257948 4.026433,-1.164989 1.800612,0.09753 2.904326,0.566318 4.546567,1.931115 0.732168,0.608475 0.935818,0.611429 0.855472,0.01241 z M 50.746611,49.419613 c 0.391696,-0.559225 0.177854,-1.715834 -0.545778,-2.951936 -0.71895,-1.228107 -0.697412,-1.043745 -0.768708,-6.579959 -0.04951,-3.844626 -0.101331,-5.143742 -0.209485,-5.251837 -0.114523,-0.114461 -0.216304,-0.07455 -0.501298,0.196545 -0.866909,0.824647 -2.589766,3.874149 -2.931844,5.18944 -0.225753,0.86802 -0.226972,2.214166 -0.0029,3.164805 0.568892,2.413212 2.541271,5.575156 3.896009,6.245739 0.625641,0.309687 0.839901,0.30711 1.063973,-0.0128 z m 5.808186,-3.470239 c 0.510385,-0.560355 0.582727,-0.840084 1.07455,-4.154977 0.404456,-2.726047 0.571957,-3.421882 0.96765,-4.019814 0.275869,-0.416867 1.089078,-0.926245 1.478725,-0.926245 0.09759,0 0.421961,0.130015 0.720824,0.288922 0.604295,0.321306 0.993431,0.371734 0.993431,0.128738 0,-0.320353 -0.942273,-1.559611 -1.832671,-2.410292 -0.762647,-0.728629 -1.004679,-0.891094 -1.479068,-0.992833 -2.077649,-0.445576 -3.883678,1.592113 -4.962926,5.599519 -0.214975,0.798238 -0.3117,1.454977 -0.32137,2.182048 -0.0123,0.924394 0.02267,1.114455 0.31425,1.708258 0.259037,0.527525 0.465778,0.759215 0.982334,1.10088 0.507,0.335343 0.687998,0.535427 0.804197,0.889 0.285211,0.867838 0.797581,1.114572 1.260074,0.606796 z m 1.707595,-14.875041 c 0.09373,-0.151663 -0.821362,-0.604669 -1.131748,-0.560258 -0.352528,0.05044 -0.391548,0.415592 -0.05867,0.549052 0.357748,0.143431 1.104357,0.150459 1.19042,0.01121 z"
       id="path3818"
       inkscape:connector-curvature="0"
       transform="matrix(0.26458333,0,0,0.26458333,0,87)" />
    <path
       style="opacity:1;fill:#ffffff;fill-opacity:1;fill-rule:nonzero;stroke:none;stroke-width:2.51338577;stroke-linecap:butt;stroke-linejoin:miter;stroke-miterlimit:4;stroke-dasharray:none;stroke-dashoffset:0;stroke-opacity:1;paint-order:stroke fill markers"
       d="M 46.522653,93.737039 C 44.906213,92.100297 43.14995,90.241085 42.619847,89.605457 41.053029,87.726742 39.705079,85.58076 38.228038,82.61355 36.608211,79.359498 36.077484,77.838052 34.80429,72.798628 c -0.942279,-3.729632 -1.453594,-5.352267 -2.076099,-6.588397 -0.41447,-0.823027 -1.692994,-2.769209 -3.80097,-5.785875 -1.503998,-2.15233 -2.293177,-3.562829 -2.554274,-4.565246 -0.235384,-0.903698 -0.232683,-3.038289 0.0053,-4.193957 0.80737,-3.920569 4.849715,-10.127702 9.20874,-14.140276 1.481743,-1.363976 2.539336,-2.152582 4.302712,-3.208365 1.874832,-1.122515 10.095852,-5.211278 10.47799,-5.211278 0.0707,0 0.919057,-0.236146 1.885246,-0.524769 l 1.756708,-0.524769 0.625347,0.424947 c 0.78749,0.535129 1.610724,0.904865 2.380012,1.068926 0.507323,0.108194 0.817161,0.309442 2.02486,1.315204 1.611931,1.342403 6.106275,4.924845 10.145152,8.086703 l 2.714512,2.125069 0.127573,0.919576 c 0.07016,0.505766 0.166452,1.008251 0.213974,1.116635 0.0478,0.109029 0.367706,0.278839 0.716103,0.38012 0.711036,0.206704 1.013417,0.569725 1.147653,1.377803 0.124325,0.748415 0.408406,1.178444 1.091113,1.651675 0.590266,0.409154 0.689237,0.549409 1.386825,1.96531 0.413158,0.838592 0.859098,1.644155 0.990979,1.79014 0.13188,0.145984 0.382279,0.787869 0.556439,1.426409 0.174163,0.638542 0.359446,1.230217 0.411743,1.314835 0.05697,0.09218 0.0023,0.363576 -0.136328,0.677003 -0.601428,1.359626 0.206931,2.780511 4.118059,7.238474 1.387602,1.58161 1.91778,2.265929 1.91778,2.475346 0,0.421853 -1.098181,7.009635 -1.573332,9.438122 -0.731535,3.738859 -1.260589,5.641559 -2.217272,7.974242 -0.674004,1.643425 -0.777693,2.711953 -0.34205,3.524846 0.682618,1.273739 2.069886,1.803097 7.715285,2.944023 3.055839,0.617581 3.111294,0.634321 3.905797,1.179031 0.38622,0.264792 0.652569,0.379167 0.721787,0.309949 0.06033,-0.06033 0.169495,-0.532539 0.242581,-1.049344 0.144242,-1.019965 0.255513,-1.313456 0.428076,-1.129103 0.120724,0.128972 0.367,5.597788 0.365564,8.117736 l -9.38e-4,1.646854 H 92.788506 91.89007 L 91.431418,95.422981 C 90.926554,94.384694 90.120586,93.398935 89.687706,93.290289 89.016424,93.121808 88.277203,94.258301 88.16727,95.62784 L 88.108,96.366227 h -2.93118 c -1.612149,0 -2.93118,-0.01537 -2.93118,-0.03416 0,-0.01879 0.228268,-0.477777 0.507263,-1.019974 0.563814,-1.095714 0.880355,-2.227221 0.679312,-2.428264 -0.06775,-0.06775 -0.226489,-0.0904 -0.352746,-0.05033 -0.387402,0.122957 -3.262484,2.056587 -4.27495,2.875111 l -0.956395,0.77319 h -3.34854 c -1.843835,0 -3.348541,-0.04557 -3.348541,-0.101418 0,-0.05578 0.07491,-0.163591 0.166475,-0.23958 0.09156,-0.07599 0.300941,-0.490053 0.465287,-0.920142 0.450657,-1.179356 0.734124,-1.425646 3.066437,-2.664278 0.858098,-0.455714 1.625503,-0.892228 1.705346,-0.97003 0.116209,-0.113241 0.0777,-0.326334 -0.193056,-1.068214 -0.475724,-1.303516 -0.587788,-2.333564 -0.587415,-5.399327 3.47e-4,-3.250082 0.105421,-4.188256 0.752675,-6.723515 0.275871,-1.080568 0.867754,-3.394831 1.315297,-5.142808 0.744583,-2.908138 1.465303,-6.206511 1.724766,-7.893387 l 0.103108,-0.670343 -2.265935,-2.161091 c -5.140333,-4.902498 -7.080531,-6.471688 -10.016794,-8.10137 l -1.246245,-0.69169 -0.959135,1.018885 c -1.177086,1.250412 -2.324347,2.04598 -5.183192,3.594282 -2.692483,1.458203 -3.867098,2.198292 -4.335294,2.731537 -0.326534,0.371901 -0.343819,0.430037 -0.195237,0.656624 0.291485,0.444516 1.395716,0.797711 2.682164,0.857907 1.461942,0.06841 2.045904,-0.07628 4.227497,-1.047465 1.983942,-0.883193 2.441369,-1.006452 3.735068,-1.006452 2.097117,0 3.47778,1.048714 4.127039,3.13479 0.119752,0.384764 0.217732,0.893522 0.217732,1.130573 0,0.67423 -0.319988,1.60621 -0.603592,1.757991 -0.137011,0.07333 -1.136375,0.201936 -2.220811,0.285803 -2.737302,0.211693 -2.964559,0.308055 -4.728829,2.005117 -1.932549,1.858932 -2.372535,2.733508 -3.989225,7.929563 -0.489929,1.57463 -0.775824,2.120193 -1.323433,2.525453 -0.271794,0.201142 -0.485398,0.240312 -1.271256,0.233128 -1.128055,-0.01031 -1.414973,-0.140612 -1.574499,-0.715029 -0.404194,-1.455406 0.165457,-5.580931 1.21788,-8.820119 0.280473,-0.863248 0.50995,-1.650288 0.50995,-1.748975 0,-0.285368 -0.751133,-0.888517 -2.378936,-1.910249 -1.840697,-1.15536 -2.505206,-1.725519 -2.913803,-2.500082 -0.303945,-0.576176 -0.312344,-0.644933 -0.312344,-2.556767 0,-3.287409 0.251289,-3.64473 4.102689,-5.833832 3.409171,-1.937741 4.759701,-2.895252 4.398501,-3.118486 -0.284442,-0.175794 -0.922023,-0.0059 -4.745207,1.264456 -2.065791,0.686415 -4.042016,1.312809 -4.391611,1.391989 -1.265757,0.286679 -1.510529,0.523586 -1.84808,1.788693 -0.386573,1.448836 -1.152561,2.576272 -2.516588,3.704093 -1.377282,1.13878 -1.866721,1.358407 -3.219667,1.444768 -1.468954,0.09377 -1.791931,0.262752 -2.308861,1.208031 -1.298663,2.374789 -1.707396,7.169068 -0.881767,10.342787 0.510014,1.960498 1.063853,3.372033 2.335283,5.951789 2.236201,4.537298 3.576943,6.314366 8.888023,11.780513 2.558961,2.633674 3.607878,3.804494 3.880249,4.3312 0.128628,0.248738 0.352662,0.403963 0.841463,0.583021 0.366391,0.134214 0.744174,0.279552 0.839518,0.322972 0.206199,0.0939 -2.453799,0.224933 -4.979591,0.245295 l -1.801452,0.01452 z M 35.832435,60.357119 c 0.127477,-0.332198 0.07298,-1.625545 -0.109841,-2.606969 -0.646408,-3.469992 -2.304966,-8.39267 -2.968744,-8.81137 -0.398255,-0.251214 -1.083915,0.805061 -1.606784,2.475289 -0.219802,0.702123 -0.270223,1.120819 -0.270895,2.249517 -7.97e-4,1.344695 0.01089,1.409771 0.384694,2.142183 0.683082,1.338376 2.598351,3.731132 3.52232,4.400451 0.509572,0.369133 0.94166,0.431274 1.04925,0.150899 z M 43.467157,56.5388 c 0.490321,-0.188154 0.669403,-1.408807 0.399794,-2.725065 -0.06899,-0.336833 -0.4582,-1.834563 -0.864902,-3.328289 -0.870823,-3.198331 -1.277798,-5.213401 -1.790159,-8.863653 -0.206951,-1.474399 -0.415928,-2.744887 -0.464393,-2.823305 -0.129022,-0.208762 -0.776018,0.321238 -1.667267,1.365775 -1.239373,1.452538 -1.272542,1.561432 -1.260506,4.138257 0.01366,2.925114 0.199026,3.635124 1.850321,7.087417 1.056631,2.209053 2.151152,4.06215 2.786753,4.718162 0.482726,0.498229 0.649319,0.569244 1.010359,0.430701 z m 29.26916,-5.830542 c -0.03472,-0.25883 -0.357431,-1.071215 -0.717143,-1.805302 -0.571033,-1.165343 -0.788589,-1.4745 -1.714518,-2.436412 -1.728232,-1.795392 -3.573443,-3.0314 -5.131269,-3.437161 -1.488308,-0.387656 -2.48589,0.26672 -2.997967,1.966549 -0.166316,0.552085 -0.206849,1.070288 -0.198872,2.542512 0.01491,2.751427 0.287182,3.280051 1.260745,2.447774 1.097244,-0.938005 2.387234,-1.307523 4.193684,-1.201283 1.717233,0.100994 2.670278,0.49433 4.237066,1.748702 0.987503,0.790597 1.154557,0.817903 1.068274,0.174621 z M 50.784883,49.329759 c 0.293005,-0.553039 0.108914,-1.501019 -0.5215,-2.685488 -0.313365,-0.588772 -0.611229,-1.20051 -0.661924,-1.359417 -0.05069,-0.158907 -0.126741,-2.551179 -0.168997,-5.316161 -0.04652,-3.044076 -0.12317,-5.108899 -0.194302,-5.234243 -0.111377,-0.196264 -0.133512,-0.194387 -0.426617,0.03617 -0.46529,0.365998 -1.730056,2.332832 -2.378579,3.698923 -0.688422,1.450137 -0.880306,2.33112 -0.78764,3.616246 0.148451,2.058807 1.568019,5.048264 3.147,6.627245 0.967058,0.967059 1.688625,1.190394 1.992559,0.616725 z m 5.769914,-3.380385 c 0.484442,-0.531872 0.58913,-0.927864 1.015878,-3.84266 0.526382,-3.595323 0.76273,-4.341773 1.534611,-4.846722 0.71076,-0.464964 1.003856,-0.484204 1.773367,-0.116411 0.515868,0.246563 0.715301,0.293714 0.816073,0.192941 0.276505,-0.276505 -1.528108,-2.511241 -2.556564,-3.165912 -1.082332,-0.688966 -2.516539,-0.323947 -3.574866,0.909839 -1.235928,1.440828 -2.33741,4.542503 -2.351559,6.621775 -0.0097,1.431612 0.356017,2.151352 1.448354,2.850076 0.292937,0.18738 0.517119,0.461587 0.671142,0.82091 0.127202,0.29675 0.28667,0.606292 0.354374,0.687871 0.190345,0.22935 0.607362,0.175757 0.86919,-0.111707 z m 1.652549,-14.881171 c 0,-0.19575 -0.732093,-0.58298 -1.03913,-0.549633 -0.385256,0.04184 -0.449102,0.403086 -0.09624,0.544557 0.365206,0.146421 1.135374,0.149865 1.135374,0.0051 z"
       id="path3820"
       inkscape:connector-curvature="0"
       transform="matrix(0.26458333,0,0,0.26458333,0,87)" />
    <path
       style="opacity:1;fill:#ffffff;fill-opacity:1;fill-rule:nonzero;stroke:none;stroke-width:2.51338577;stroke-linecap:butt;stroke-linejoin:miter;stroke-miterlimit:4;stroke-dasharray:none;stroke-dashoffset:0;stroke-opacity:1;paint-order:stroke fill markers"
       d="M 46.407083,93.62147 C 41.819898,88.975412 40.551431,87.268024 38.227281,82.611241 36.61382,79.378434 36.083294,77.866993 34.820597,72.905778 33.391955,67.292552 33.05571,66.466884 30.937805,63.371359 26.073431,56.261601 26.12709,56.373977 26.224314,53.500007 c 0.04674,-1.381523 0.113008,-1.873114 0.367442,-2.725639 0.384665,-1.288883 1.618047,-3.861584 2.659436,-5.547298 2.187282,-3.540589 5.56567,-7.341533 8.384923,-9.433676 1.662293,-1.233574 5.006247,-3.09145 8.845707,-4.914609 3.304879,-1.569315 3.746632,-1.77349 3.833861,-1.771986 0.04993,8.67e-4 0.905371,-0.238758 1.900989,-0.532487 l 1.810213,-0.534052 0.501161,0.343587 c 0.772896,0.529884 1.647696,0.940158 2.434348,1.141689 0.593921,0.152156 0.884591,0.325706 1.702865,1.016729 1.361762,1.149995 6.260863,5.058508 10.077188,8.039604 l 3.180888,2.484727 0.121044,0.966254 c 0.137164,1.094945 0.27031,1.28631 1.047966,1.506192 0.592292,0.167471 0.879648,0.571358 1.074584,1.510356 0.135245,0.651473 0.427551,1.019675 1.366469,1.721268 0.252333,0.188551 0.562089,0.686333 1.006816,1.617962 0.353295,0.740091 0.780161,1.527643 0.948591,1.750112 0.2534,0.334701 1.067822,2.657322 1.073884,3.062571 9.24e-4,0.06356 -0.08308,0.345996 -0.186742,0.627627 -0.482237,1.310198 0.384116,2.785675 4.20673,7.16444 1.370479,1.56987 1.858704,2.207416 1.858521,2.426944 -1.16e-4,0.163758 -0.25819,1.85792 -0.573454,3.764804 -1.226962,7.421301 -1.899812,10.351855 -3.038191,13.232618 -0.905426,2.291261 -0.980463,2.903269 -0.479276,3.90902 0.641238,1.286796 1.855234,1.752549 7.731583,2.966234 3.008849,0.62144 3.060558,0.637259 3.848013,1.177137 0.360416,0.247101 0.653755,0.376705 0.713423,0.31521 0.05573,-0.05744 0.172343,-0.572491 0.259132,-1.144556 0.115805,-0.763328 0.202743,-1.040118 0.326695,-1.040118 0.211409,0 0.278944,1.017997 0.404431,6.09625 l 0.09067,3.669306 -0.914299,-5.77e-4 -0.914298,-5.78e-4 -0.495837,-0.970847 c -0.521559,-1.021204 -1.267675,-1.971814 -1.640525,-2.090151 -0.675616,-0.214432 -1.452003,0.909131 -1.580724,2.287573 l -0.07232,0.77458 h -2.999425 -2.999423 l 0.251261,-0.375598 c 0.686584,-1.026343 1.317385,-2.862999 1.068709,-3.111675 -0.07427,-0.07427 -0.319401,-0.0091 -0.709372,0.18847 -0.825797,0.418462 -3.020868,1.911517 -4.016392,2.731888 l -0.828196,0.682484 h -3.36117 c -1.848644,0 -3.360013,-0.039 -3.3586,-0.08668 0.0014,-0.04767 0.104268,-0.216692 0.228567,-0.375599 0.124299,-0.158907 0.227154,-0.333492 0.228567,-0.387967 0.0014,-0.05448 0.159688,-0.428256 0.35172,-0.830623 0.302763,-0.634384 0.452461,-0.799182 1.126795,-1.240457 0.427705,-0.279884 1.349711,-0.809612 2.048902,-1.177172 0.69919,-0.367561 1.332309,-0.716979 1.406931,-0.776486 0.101372,-0.08084 0.05278,-0.347523 -0.192187,-1.054776 -0.467984,-1.351131 -0.579244,-2.396665 -0.578169,-5.433233 0.0012,-3.408901 0.09435,-4.176556 0.876988,-7.227988 1.597972,-6.230332 2.016937,-7.951568 2.408954,-9.896712 0.230583,-1.14413 0.449809,-2.369124 0.487168,-2.722207 l 0.06792,-0.641972 -2.70108,-2.551437 C 71.984771,57.42169 70.43672,56.172937 67.583368,54.551272 l -1.42965,-0.81252 -0.971605,1.020989 c -1.197783,1.258666 -2.311843,2.027215 -5.356809,3.695462 -3.545063,1.942238 -4.451009,2.592147 -4.372239,3.136567 0.127881,0.883855 3.313617,1.328973 5.066347,0.707881 0.34998,-0.124017 1.252427,-0.498799 2.00544,-0.832849 1.742857,-0.773161 2.32329,-0.923817 3.56572,-0.925509 1.255139,-0.0017 2.052648,0.272839 2.834519,0.975809 1.296599,1.165754 1.901717,3.413054 1.2555,4.662699 -0.230391,0.445529 -0.60713,0.554957 -2.265476,0.65803 -2.852056,0.177269 -3.312291,0.37045 -5.095034,2.138606 -1.7968,1.7821 -2.415737,2.949487 -3.523213,6.645202 -0.908789,3.032682 -1.332487,3.754892 -2.310522,3.938372 -0.476275,0.08935 -1.591757,-0.01777 -1.899356,-0.182388 -0.898612,-0.480922 -0.459393,-5.222703 0.867225,-9.362511 0.285778,-0.891791 0.519597,-1.688611 0.519597,-1.77071 0,-0.253467 -0.564126,-0.696913 -2.49711,-1.962924 -2.993921,-1.960873 -3.232686,-2.366452 -3.135777,-5.326599 0.07018,-2.143808 0.217593,-2.624296 1.061907,-3.461304 0.329588,-0.326739 1.14185,-0.912264 1.805027,-1.301169 4.839485,-2.838009 5.440356,-3.225343 5.670452,-3.65528 0.12274,-0.229343 0.104717,-0.235082 -0.550931,-0.17544 -0.414722,0.03773 -2.180584,0.558626 -4.549374,1.341992 -2.129354,0.704183 -4.179628,1.373281 -4.556165,1.486884 -0.831354,0.250824 -1.025549,0.48919 -1.345182,1.65116 -0.407718,1.482188 -1.23073,2.632013 -2.745544,3.83578 -1.272127,1.010913 -1.617914,1.15622 -3.015104,1.267009 -1.597069,0.126639 -1.838524,0.279882 -2.430288,1.542412 -0.658346,1.404584 -1.036935,3.265629 -1.128474,5.547299 -0.137435,3.425604 0.627013,6.228321 2.95821,10.845774 2.120719,4.200554 3.462481,5.952057 8.73404,11.401204 1.568027,1.620851 3.081075,3.259038 3.362327,3.640415 0.725523,0.983801 0.822348,1.067505 1.482382,1.281505 0.324875,0.105334 0.631836,0.228876 0.682135,0.274541 0.105048,0.09537 -3.042326,0.235269 -5.292879,0.235269 H 49.459372 Z M 35.832435,60.357119 c 0.12466,-0.324859 0.074,-1.466689 -0.112388,-2.533059 -0.590222,-3.376815 -2.373452,-8.644058 -3.009022,-8.88795 -0.286884,-0.110087 -0.588417,0.225208 -1.025851,1.140712 -0.60109,1.25802 -0.79306,2.131021 -0.801424,3.644549 -0.0069,1.24805 0.01296,1.367774 0.325937,1.964668 0.476122,0.908045 1.113906,1.821412 2.094792,2.999936 1.284892,1.543784 2.315412,2.225026 2.527956,1.671144 z m 7.722033,-3.904085 c 0.495024,-0.376094 0.570841,-1.532358 0.20185,-3.07837 -0.12895,-0.540283 -0.49211,-1.91844 -0.807021,-3.062571 C 42.162504,47.453531 41.756835,45.459135 41.277149,42.091284 41.052024,40.5107 40.816396,39.09721 40.75353,38.950193 l -0.114302,-0.267304 -0.355337,0.253023 c -0.462991,0.329679 -1.897731,2.016032 -2.156913,2.535174 -0.166127,0.332754 -0.208538,0.793921 -0.239139,2.600297 -0.02288,1.350775 0.01443,2.462657 0.09695,2.889218 0.484725,2.505533 3.627315,8.650313 4.829425,9.443092 0.367843,0.242588 0.476374,0.249821 0.740252,0.04934 z m 29.056823,-6.139547 c -0.110488,-0.350508 -0.440704,-1.118283 -0.733814,-1.706165 -0.461822,-0.926267 -0.703883,-1.239705 -1.814259,-2.34923 -1.339151,-1.338125 -2.568492,-2.248766 -3.865067,-2.863071 -0.662046,-0.313671 -0.895063,-0.363757 -1.692309,-0.363757 -1.162107,0 -1.51203,0.216923 -2.022463,1.253762 -0.274967,0.558535 -0.383455,0.983064 -0.471736,1.845969 -0.200104,1.955915 0.112877,4.238883 0.581127,4.238883 0.05723,0 0.339986,-0.180093 0.628351,-0.400207 1.165552,-0.889686 2.191619,-1.217755 3.80864,-1.217755 1.607243,0 2.920945,0.453858 4.216507,1.456718 1.50491,1.164911 1.703997,1.180204 1.365023,0.104853 z M 50.629167,49.495031 c 0.502384,-0.502385 0.357456,-1.417468 -0.488022,-3.081395 l -0.653975,-1.28704 -0.07854,-5.112489 c -0.04764,-3.100855 -0.12484,-5.195217 -0.196206,-5.322741 -0.10667,-0.190609 -0.160598,-0.16512 -0.577204,0.272824 -0.567224,0.596277 -1.646098,2.321753 -2.233638,3.572327 -0.615541,1.310174 -0.830843,2.306059 -0.751754,3.477255 0.180819,2.677622 2.294237,6.45409 4.178788,7.467077 0.440078,0.236551 0.57578,0.238955 0.800553,0.01418 z m 5.948343,-3.619622 c 0.415988,-0.445316 0.534632,-0.873273 0.884608,-3.190851 0.646541,-4.281463 0.851132,-4.921895 1.75558,-5.495479 0.658716,-0.417745 0.863566,-0.42241 1.701591,-0.03875 0.369935,0.169361 0.703417,0.258184 0.759321,0.202245 0.157876,-0.157976 -0.201343,-0.775827 -0.985145,-1.694439 -1.194864,-1.400372 -1.830882,-1.814585 -2.786276,-1.814585 -1.043037,0 -1.935821,0.606811 -2.805211,1.906659 -1.028069,1.537091 -1.864086,4.179482 -1.864086,5.891803 0,1.45854 0.322181,2.141123 1.341705,2.842574 0.366828,0.252384 0.594479,0.524132 0.752973,0.898825 0.377606,0.892691 0.7377,1.034999 1.24494,0.491997 z m 1.572052,-14.863292 c 0,-0.200861 -0.880854,-0.567773 -1.072639,-0.446798 -0.246658,0.155586 -0.213254,0.309822 0.103272,0.476844 0.313029,0.165177 0.969367,0.144834 0.969367,-0.03005 z"
       id="path3822"
       inkscape:connector-curvature="0"
       transform="matrix(0.26458333,0,0,0.26458333,0,87)" />
    <path
       style="opacity:1;fill:#ffffff;fill-opacity:1;fill-rule:nonzero;stroke:none;stroke-width:2.51338577;stroke-linecap:butt;stroke-linejoin:miter;stroke-miterlimit:4;stroke-dasharray:none;stroke-dashoffset:0;stroke-opacity:1;paint-order:stroke fill markers"
       d="M 46.25015,93.475277 C 42.168657,89.267391 41.088017,87.91094 39.352416,84.817048 37.873557,82.180826 36.683438,79.504919 35.965608,77.202025 35.805911,76.689698 35.28448,74.74645 34.806872,72.8837 c -0.977738,-3.813345 -1.472383,-5.38071 -2.087463,-6.61447 -0.396087,-0.794495 -1.505693,-2.491399 -4.204095,-6.42926 -1.207747,-1.762501 -2.003843,-3.239527 -2.196399,-4.07506 -0.18247,-0.791768 -0.149044,-3.118483 0.05934,-4.130381 0.813024,-3.948028 4.780609,-10.005095 9.321711,-14.230884 l 1.12642,-1.048207 h 5.369298 5.369298 l -0.688079,1.310042 c -1.042489,1.984811 -1.181803,2.448088 -1.187316,3.948335 -0.0042,1.135656 0.03497,1.387383 0.366936,2.359959 0.888605,2.603373 2.624313,5.062672 3.931819,5.570939 0.389408,0.151374 0.659722,0.03209 0.82354,-0.363397 0.222301,-0.536682 0.04623,-1.254906 -0.657209,-2.680875 l -0.64327,-1.303996 -0.04249,-1.560177 c -0.02337,-0.858098 -0.06251,-2.847325 -0.08698,-4.420504 l -0.04448,-2.860326 h 2.703364 2.703362 l -0.276254,0.548952 c -0.951809,1.891364 -1.47691,4.783152 -1.098119,6.047447 0.164679,0.549646 0.686808,1.192568 1.264855,1.557473 0.304522,0.192237 0.542617,0.48646 0.765038,0.945391 0.393925,0.8128 0.689461,0.912866 1.171629,0.396703 0.42878,-0.459012 0.53912,-0.872729 0.95098,-3.565727 0.588706,-3.849324 0.795497,-4.502155 1.601086,-5.054583 0.656665,-0.450306 0.953117,-0.474048 1.692492,-0.135551 0.360424,0.165008 0.701039,0.300014 0.75692,0.300014 0.160397,0 0.118455,-0.395817 -0.06808,-0.642432 -0.09332,-0.123383 -0.171331,-0.263338 -0.173353,-0.31101 -0.002,-0.04767 1.026584,-0.08668 2.285791,-0.08668 h 2.289466 l 2.82445,2.205509 c 1.553447,1.21303 2.911941,2.292153 3.018875,2.398051 0.120405,0.119239 0.242117,0.541857 0.319692,1.110068 0.0689,0.504639 0.205634,1.006329 0.303859,1.114867 0.09823,0.108538 0.410856,0.255827 0.694735,0.327308 0.614149,0.154645 0.898952,0.54543 1.098684,1.507532 0.135673,0.653535 0.126292,0.641476 1.4139,1.8176 0.252286,0.230443 0.626896,0.837078 0.999128,1.617963 0.327531,0.687109 0.741579,1.433039 0.920106,1.657622 0.178529,0.224584 0.36131,0.575488 0.406182,0.779787 0.04487,0.204297 0.223049,0.80318 0.395951,1.330848 l 0.314366,0.959396 -0.20815,0.602214 c -0.48282,1.396879 0.309664,2.760241 4.177811,7.187372 l 1.868068,2.138022 -0.06601,0.708522 c -0.105416,1.13143 -1.067595,6.804978 -1.624182,9.577093 -0.626299,3.119318 -1.138711,5.005576 -1.852299,6.818555 -0.968068,2.45953 -1.054424,3.093242 -0.557428,4.090582 0.643406,1.291149 1.838671,1.755576 7.611923,2.957662 3.032466,0.631408 3.187664,0.677824 3.927794,1.174719 0.316966,0.212799 0.613996,0.386906 0.660066,0.386906 0.103786,0 0.281,-0.676254 0.380007,-1.450135 0.0868,-0.678443 0.229164,-0.971473 0.389882,-0.802489 0.127353,0.133904 0.363786,5.304576 0.363263,7.944384 l -3.6e-4,1.820207 H 92.758286 91.82963 l -0.231579,-0.54025 c -0.302676,-0.706114 -1.211952,-2.069249 -1.52791,-2.290554 -0.35765,-0.250508 -0.812299,-0.214208 -1.095725,0.08749 -0.378323,0.402706 -0.712839,1.261701 -0.794097,2.039142 l -0.0736,0.704175 h -2.93054 c -1.611796,0 -2.930538,-0.02421 -2.930538,-0.05381 0,-0.02959 0.177976,-0.380632 0.395502,-0.780088 0.440054,-0.808094 0.936108,-2.326445 0.820944,-2.512786 -0.04092,-0.06621 -0.155119,-0.120381 -0.253775,-0.120381 -0.406582,0 -4.209777,2.555132 -4.88326,3.280763 l -0.280176,0.301868 H 74.59796 c -1.900269,0 -3.446917,-0.04551 -3.446917,-0.101419 0,-0.05578 0.06953,-0.159122 0.154512,-0.229651 0.08498,-0.07053 0.297377,-0.492371 0.471988,-0.937429 0.390587,-0.995539 0.864853,-1.441669 2.453139,-2.307603 2.514478,-1.370896 2.379995,-1.277282 2.313392,-1.610346 -0.03333,-0.166687 -0.202455,-0.745117 -0.37583,-1.285401 -0.305136,-0.950889 -0.316882,-1.0852 -0.366907,-4.195835 -0.03218,-2.001316 -0.0024,-3.631421 0.07898,-4.321407 0.07187,-0.609349 0.498436,-2.543657 0.947936,-4.298465 0.449499,-1.754808 1.048039,-4.116536 1.330088,-5.248285 0.577592,-2.31764 1.431345,-6.502448 1.425114,-6.985427 -0.0034,-0.261186 -0.422077,-0.714331 -2.346499,-2.539493 -5.216021,-4.946981 -7.596628,-6.824275 -10.591212,-8.351998 l -0.497375,-0.253741 -1.016587,1.040075 c -1.186632,1.214046 -2.444237,2.078963 -5.248692,3.609782 -3.177761,1.734589 -4.285705,2.478429 -4.4061,2.958117 -0.09423,0.375464 0.0945,0.565277 0.86289,0.867815 0.552971,0.217721 0.886065,0.258562 2.156385,0.264394 l 1.502394,0.0069 1.32904,-0.562837 c 0.730972,-0.30956 1.77109,-0.751319 2.311374,-0.981687 0.946614,-0.403619 1.032763,-0.418845 2.369159,-0.418716 1.280329,1.16e-4 1.436903,0.02467 2.038963,0.319702 1.093222,0.535714 1.827755,1.489663 2.240648,2.909964 0.341055,1.173192 0.05742,2.593379 -0.565214,2.830105 -0.14391,0.05472 -1.03852,0.159025 -1.988026,0.231801 -2.522326,0.193327 -2.9609,0.343685 -4.182873,1.434031 -2.393623,2.135788 -2.983578,3.216246 -4.583769,8.394805 -0.773484,2.503162 -1.22926,2.958689 -2.865534,2.863966 -1.315028,-0.07613 -1.403723,-0.186354 -1.459424,-1.813716 -0.07115,-2.078714 0.421068,-4.97084 1.328701,-7.807047 0.410932,-1.284098 0.492285,-1.667139 0.398021,-1.874027 -0.06517,-0.143022 -1.017513,-0.854678 -2.116327,-1.581458 -2.013151,-1.331543 -2.77511,-1.988111 -3.169856,-2.731415 -0.185778,-0.34982 -0.214812,-0.677847 -0.214812,-2.426944 0,-2.201949 0.07853,-2.614627 0.646422,-3.396801 0.456429,-0.628658 1.300515,-1.230215 3.592573,-2.560333 4.195704,-2.434834 5.224681,-3.325417 3.414232,-2.955034 -0.395507,0.08091 -2.331288,0.683369 -4.301734,1.33879 -1.970447,0.655421 -3.868663,1.257533 -4.218259,1.338025 -0.912354,0.210066 -1.282789,0.623973 -1.657297,1.851789 -0.165408,0.54229 -0.501694,1.295386 -0.747302,1.673546 -0.74325,1.14438 -2.640611,2.781589 -3.688988,3.183183 -0.176262,0.06752 -0.830309,0.162617 -1.453438,0.211329 -1.319282,0.103132 -1.589152,0.24842 -2.073439,1.116269 -0.714715,1.280779 -1.194824,3.407938 -1.315126,5.826773 -0.166522,3.348121 0.644268,6.339238 2.960378,10.921244 2.114317,4.182792 3.444343,5.932445 8.433738,11.094597 2.256971,2.335116 3.522575,3.72325 4.189587,4.595198 0.237412,0.310355 0.505958,0.476868 1.097903,0.680759 l 0.783617,0.269911 -0.808981,0.07304 c -0.44494,0.04017 -2.058357,0.0795 -3.585374,0.08739 l -2.776393,0.01436 z M 35.832435,60.326495 c 0.222862,-0.580769 -0.02926,-2.412917 -0.682547,-4.960003 -0.573376,-2.235522 -1.29396,-4.393992 -1.829053,-5.47882 -0.627965,-1.273117 -0.893686,-1.251662 -1.568445,0.126636 -0.654855,1.337642 -0.827367,2.101509 -0.833295,3.689763 -0.0047,1.2649 0.01485,1.381611 0.339066,2.022453 0.697452,1.378553 2.598425,3.777846 3.525024,4.449072 0.509572,0.369132 0.94166,0.431273 1.04925,0.150899 z m 7.693126,-3.85966 c 0.116261,-0.06222 0.26886,-0.278005 0.339109,-0.47952 0.294786,-0.845626 0.14631,-1.709555 -1.077733,-6.270969 -0.686246,-2.557305 -1.006878,-4.160817 -1.504609,-7.524687 -0.498615,-3.369851 -0.506662,-3.409278 -0.695813,-3.409278 -0.218689,0 -1.966464,1.88026 -2.34269,2.52027 l -0.318789,0.542301 1.16e-4,2.600297 2.31e-4,2.600296 0.37454,1.072944 c 0.990278,2.836848 3.189963,6.991381 4.277531,8.078949 0.400986,0.400986 0.597758,0.456898 0.948107,0.269397 z m 29.076393,-6.141809 c -0.597244,-1.825967 -1.689156,-3.404311 -3.357795,-4.853646 -2.148824,-1.866409 -3.937046,-2.681282 -5.319903,-2.424219 -0.780904,0.145164 -1.352374,0.781938 -1.685236,1.877817 -0.212858,0.700787 -0.236085,1.024198 -0.200439,2.790915 0.03375,1.672784 0.0737,2.049187 0.245227,2.310818 0.1127,0.171899 0.263913,0.312542 0.336031,0.312542 0.07212,0 0.395954,-0.201891 0.71964,-0.448649 0.777228,-0.592507 1.181645,-0.788052 2.05629,-0.994256 1.976953,-0.466083 4.225324,0.0133 5.762985,1.228753 1.51684,1.198994 1.781993,1.235725 1.4432,0.199925 z"
       id="path3824"
       inkscape:connector-curvature="0"
       transform="matrix(0.26458333,0,0,0.26458333,0,87)" />
    <path
       style="fill:#006680;stroke:none;stroke-width:0.26458332px;stroke-linecap:butt;stroke-linejoin:miter;stroke-opacity:1"
       d="m 14.292906,94.415488 c 4.932247,2.506927 5.402571,4.558556 6.506633,6.674852 l 2.928645,-1.865976 c 0.613233,-2.639862 0.212375,-5.279725 0.06115,-7.919587 l -8.898069,0.152887 -2.446205,2.996601 0.214043,0.458663 z"
       id="path3826"
       inkscape:connector-curvature="0"
       sodipodi:nodetypes="cccccccc" />
  </g>
</svg>
