<?xml version="1.0" encoding="UTF-8" standalone="no"?>
<!-- Created with Inkscape (http://www.inkscape.org/) -->

<svg
   xmlns:dc="http://purl.org/dc/elements/1.1/"
   xmlns:cc="http://creativecommons.org/ns#"
   xmlns:rdf="http://www.w3.org/1999/02/22-rdf-syntax-ns#"
   xmlns:svg="http://www.w3.org/2000/svg"
   xmlns="http://www.w3.org/2000/svg"
   xmlns:sodipodi="http://sodipodi.sourceforge.net/DTD/sodipodi-0.dtd"
   xmlns:inkscape="http://www.inkscape.org/namespaces/inkscape"
   width="297mm"
   height="210mm"
   viewBox="0 0 297 210"
   version="1.1"
   id="svg1549"
   sodipodi:docname="F.svg"
   inkscape:version="0.92.2 (5c3e80d, 2017-08-06)">
  <defs
     id="defs1543">
    <inkscape:path-effect
       effect="spiro"
       id="path-effect4395"
       is_visible="true" />
  </defs>
  <sodipodi:namedview
     id="base"
     pagecolor="#ffffff"
     bordercolor="#666666"
     borderopacity="1.0"
     inkscape:pageopacity="0.0"
     inkscape:pageshadow="2"
     inkscape:zoom="4.4785584"
     inkscape:cx="21.46479"
     inkscape:cy="748.51885"
     inkscape:document-units="mm"
     inkscape:current-layer="layer1"
     showgrid="false"
     inkscape:window-width="1366"
     inkscape:window-height="705"
     inkscape:window-x="-8"
     inkscape:window-y="-8"
     inkscape:window-maximized="1" />
  <metadata
     id="metadata1546">
    <rdf:RDF>
      <cc:Work
         rdf:about="">
        <dc:format>image/svg+xml</dc:format>
        <dc:type
           rdf:resource="http://purl.org/dc/dcmitype/StillImage" />
        <dc:title />
      </cc:Work>
    </rdf:RDF>
  </metadata>
  <g
     inkscape:label="Capa 1"
     inkscape:groupmode="layer"
     id="layer1"
     transform="translate(0,-87)">
    <path
       style="opacity:1;fill:#006680;fill-opacity:1;fill-rule:nonzero;stroke:none;stroke-width:0.66499996;stroke-linecap:butt;stroke-linejoin:miter;stroke-miterlimit:4;stroke-dasharray:none;stroke-dashoffset:0;stroke-opacity:1;paint-order:stroke fill markers"
       d="M 1.97468,103.65311 V 94.621525 H 3.4167 4.85872 v -1.7456 -1.7456 h 9.335163 9.33516 v 10.152315 c 0,9.53858 -0.0161,10.15693 -0.26564,10.22869 -0.1461,0.042 -0.37227,0.12064 -0.50259,0.17473 -0.15374,0.0638 -0.43098,-0.0901 -0.78938,-0.43815 -0.42324,-0.41105 -0.6793,-0.53651 -1.09497,-0.53651 -0.45217,0 -0.56902,-0.0695 -0.70142,-0.41742 -0.30062,-0.78986 -0.61559,-2.38752 -0.90446,-4.58773 -0.35276,-2.68675 -0.7713,-3.63886 -2.50399,-5.69613 -0.63282,-0.751372 -1.34685,-1.757495 -1.58675,-2.235825 -0.48923,-0.97553 -3.366883,-4.74562 -3.798593,-4.97667 -0.39248,-0.21005 -1.4054301,-0.18593 -1.71556,0.0409 -0.14309,0.10463 -0.30108,0.44238 -0.35109,0.75055 -0.16203,0.99842 0.0761,1.85731 0.88216,3.18258 1.02988,1.69315 1.06529,1.80659 0.66264,2.12332 -0.1816,0.14284 -0.41606,0.554653 -0.52104,0.915143 -0.10497,0.360482 -0.5243601,1.413352 -0.93198,2.339702 -0.40761,0.92635 -0.80984,1.9851 -0.89384,2.35276 -0.084,0.36767 -0.29155,1.05955 -0.46125,1.5375 -0.3694,1.04042 -0.37763,1.30008 -0.0785,2.47646 0.3777,1.48528 1.24738,2.05223 2.05876,1.34211 0.1318,-0.11536 0.31354,-0.20974 0.40386,-0.20974 0.0903,0 0.37486,0.62804 0.6323,1.39565 0.35823,1.06811 0.42375,1.42379 0.2792,1.51559 -0.10388,0.066 -2.25514,0.12099 -4.78056,0.12227 l -4.59169,0.002 z"
       id="path2306"
       inkscape:connector-curvature="0" />
    <path
       style="opacity:1;fill:#006680;fill-opacity:1;fill-rule:nonzero;stroke:none;stroke-width:0.66499996;stroke-linecap:butt;stroke-linejoin:miter;stroke-miterlimit:4;stroke-dasharray:none;stroke-dashoffset:0;stroke-opacity:1;paint-order:stroke fill markers"
       d="m 10.62888,106.92054 c -0.0907,-0.16948 -0.23927,-0.88414 -0.33015,-1.58811 -0.25652,-1.98725 0.0668,-2.68795 0.64119,-1.38949 0.40319,0.91148 0.51995,1.90965 0.30099,2.57312 -0.22601,0.68481 -0.40034,0.80002 -0.61203,0.40448 z"
       id="path2308"
       inkscape:connector-curvature="0" />
    <path
       style="opacity:1;fill:#006680;fill-opacity:1;fill-rule:nonzero;stroke:none;stroke-width:0.66499996;stroke-linecap:butt;stroke-linejoin:miter;stroke-miterlimit:4;stroke-dasharray:none;stroke-dashoffset:0;stroke-opacity:1;paint-order:stroke fill markers"
       d="m 2.03293,103.66391 v -8.991965 l 1.42304,-0.0206 1.42305,-0.0206 0.0204,-1.72662 0.0204,-1.72663 h 9.301463 9.30146 l -0.031,9.923365 c -0.019,6.08821 -0.0593,10.0089 -0.10431,10.1447 -0.0536,0.16189 -0.15384,0.24936 -0.3731,0.3256 -0.3908,0.13588 -0.54204,0.0909 -0.97491,-0.29015 -0.47696,-0.41984 -0.84476,-0.59834 -1.23293,-0.59834 -0.18185,0 -0.36872,-0.0487 -0.43275,-0.11269 -0.27074,-0.27074 -0.62795,-1.8139 -1.028,-4.44105 -0.27866,-1.82999 -0.28487,-1.86209 -0.50972,-2.638 -0.35889,-1.23846 -0.73221,-1.86228 -2.23668,-3.737442 -0.35175,-0.43842 -0.82403,-1.087323 -1.04952,-1.442023 -0.71553,-1.12555 -1.1062,-1.70666 -1.16485,-1.73273 -0.0313,-0.0139 -0.0569,-0.0611 -0.0569,-0.10486 0,-0.10234 -1.578413,-2.1956 -2.233443,-2.96195 -0.67932,-0.79477 -0.78286,-0.85447 -1.48205,-0.85447 -1.08411,0 -1.33317,0.29108 -1.32943,1.55371 0.002,0.68878 0.0178,0.75745 0.33022,1.44417 0.1804499,0.39656 0.50798,1.02839 0.72785,1.40407 0.80412,1.37397 0.84555,1.51644 0.53212,1.82988 -0.29245,0.29244 -0.38085,0.458113 -0.70427,1.319795 -0.1645,0.4383 -0.54083,1.36642 -0.83627,2.0625 -0.29544,0.69607 -0.6441,1.6182 -0.77479,2.04918 -0.13068,0.43097 -0.36255,1.15928 -0.51526,1.61845 -0.32456,0.97588 -0.35956,1.65426 -0.12727,2.4666 0.44111,1.54257 1.23882,2.12377 2.0729799,1.51033 0.1794001,-0.13194 0.3701901,-0.21599 0.4343801,-0.19136 0.21972,0.0843 0.9705,2.17216 0.92998,2.58618 l -0.0226,0.23116 -0.79691,0.0476 c -0.43829,0.0262 -2.53016,0.0518 -4.6486,0.0569 l -3.8517,0.009 z"
       id="path2332"
       inkscape:connector-curvature="0" />
    <path
       style="fill:none;stroke:#000000;stroke-width:0.26458332px;stroke-linecap:butt;stroke-linejoin:miter;stroke-opacity:1"
       d="m 22.513813,112.6147 v 0"
       id="path2336"
       inkscape:connector-curvature="0" />
    <path
       style="opacity:1;fill:#216778;fill-opacity:1;fill-rule:nonzero;stroke:none;stroke-width:0.66499996;stroke-linecap:butt;stroke-linejoin:miter;stroke-miterlimit:4;stroke-dasharray:none;stroke-dashoffset:0;stroke-opacity:1;paint-order:stroke fill markers"
       d="m 15.466453,112.37124 -2.694293,-0.021 -0.28337,-0.67205 c -0.25028,-0.59359 -0.58742,-1.76464 -0.5889,-2.04554 -10e-4,-0.22734 0.18638,-0.0163 0.31077,0.34966 0.1982,0.5831 0.67165,1.44527 0.88641,1.6142 0.21367,0.16807 0.47348,0.19262 0.6086,0.0575 0.173123,-0.17312 0.102513,-0.73708 -0.16794,-1.34139 -0.30722,-0.68647 -0.40163,-1.25958 -0.49547,-3.00743 -0.0389,-0.72469 -0.12314,-1.48983 -0.19219,-1.7456 -0.0676,-0.25046 -0.39102,-1.0872 -0.71869,-1.85944 -0.74093,-1.74619 -0.86238,-2.12205 -0.87059,-2.6943 -0.008,-0.53341 0.21904,-1.062542 0.45524,-1.062542 0.1738,0 2.0341,2.349422 2.341723,2.957422 0.11238,0.22212 0.25054,0.62469 0.30701,0.8946 0.17486,0.83574 1.1109,2.51466 1.68111,3.01531 0.29332,0.25754 0.4963,0.25585 0.72349,-0.006 0.18026,-0.20777 0.081,-0.50145 -0.50308,-1.48873 -0.26692,-0.45116 -0.55371,-1.04197 -0.63731,-1.3129 -0.0836,-0.27093 -0.23874,-0.78291 -0.34474,-1.13772 -0.15289,-0.51174 -0.27921,-0.75495 -0.61102,-1.17638 -1.073843,-1.36388 -2.487293,-3.670325 -3.583143,-5.846885 -0.52956,-1.05181 -0.65021,-1.35476 -0.64651,-1.62335 0.007,-0.53923 0.1131,-0.54619 0.60544,-0.0399 0.87738,0.90226 2.747833,3.37226 3.215813,4.24661 0.38255,0.71473 1.12832,1.777845 1.90168,2.710865 0.8654,1.04405 1.01089,1.24245 1.40711,1.91877 0.53824,0.91874 0.62582,1.29714 0.61853,2.67261 -0.006,1.22561 0.024,1.45308 0.34157,2.54903 0.10046,0.34666 0.29143,1.14079 0.42438,1.76474 0.3966,1.86123 0.64376,2.21031 1.5014,2.12056 0.36017,-0.0377 0.47203,-0.0191 0.6612,0.1099 l 0.22768,0.15527 -1.59381,-0.0175 c -0.87659,-0.01 -2.80624,-0.0269 -4.2881,-0.0384 z"
       id="path2344"
       inkscape:connector-curvature="0" />
    <path
       style="opacity:1;fill:#216778;fill-opacity:1;fill-rule:nonzero;stroke:none;stroke-width:0.66499996;stroke-linecap:butt;stroke-linejoin:miter;stroke-miterlimit:4;stroke-dasharray:none;stroke-dashoffset:0;stroke-opacity:1;paint-order:stroke fill markers"
       d="m 0.58801998,92.345665 c -0.17819,-0.1303 -0.20589,-0.46807 -0.23329,-2.845117 l -0.0271,-2.35063 1.52051002,0.024 c 1.87285,0.0295 2.0434,0.073 2.11917,0.53987 0.0265,0.16326 0.007,0.21554 -0.12841,0.35133 -0.21675,0.21675 -0.60006,0.31624 -1.43696,0.37295 -0.67422,0.0457 -1.04382,0.14373 -1.04382,0.27685 0,0.12646 0.28909,0.22389 0.81335,0.27411 0.69001,0.0661 1.02105,0.17053 1.27878,0.40338 0.32884,0.29708 0.31229,0.60413 -0.0405,0.75223 -0.12762,0.0536 -0.47808,0.10038 -0.9525,0.12723 -0.41283,0.0234 -0.79349,0.0594 -0.84591,0.08 -0.16988,0.0669 -0.21611,0.25136 -0.25462,1.015927 -0.0208,0.4133 -0.0564,0.79552 -0.0791,0.84938 -0.0773,0.18329 -0.50548002,0.26308 -0.68953002,0.1285 z"
       id="path2444"
       inkscape:connector-curvature="0" />
    <path
       style="opacity:1;fill:#ffffff;fill-opacity:1;fill-rule:nonzero;stroke:none;stroke-width:2.51338577;stroke-linecap:butt;stroke-linejoin:miter;stroke-miterlimit:4;stroke-dasharray:none;stroke-dashoffset:0;stroke-opacity:1;paint-order:stroke fill markers"
       d="M 65.161887,97.44651 C 59.144326,97.34747 51.708898,97.202267 48.638713,97.123835 L 43.05656,96.981233 43.04207,95.609569 c -0.01557,-1.47489 -1.177033,-5.265985 -2.557949,-8.349359 -0.85877,-1.917501 -1.13372,-2.001122 -2.765385,-0.841052 -1.95768,1.391861 -3.409041,1.316498 -4.984353,-0.258815 -1.811353,-1.811353 -3.182084,-5.860382 -3.185075,-9.408454 -0.0013,-1.589112 0.140673,-2.295451 0.987633,-4.912295 0.544058,-1.680972 1.292017,-4.11906 1.662129,-5.417976 0.370114,-1.298913 1.388728,-4.112319 2.263588,-6.252012 2.196852,-5.372959 4.553511,-11.271571 5.01371,-12.549094 0.211402,-0.58686 0.801991,-1.579792 1.312419,-2.206513 0.510428,-0.626722 1.022117,-1.267598 1.137086,-1.424168 0.359302,-0.489316 -0.218962,-1.850734 -2.225076,-5.238534 -2.040834,-3.446434 -3.388262,-6.108194 -4.012609,-7.926658 -0.577546,-1.682153 -0.689946,-4.613389 -0.24365,-6.354052 0.608129,-2.37185 1.43662,-2.912323 4.464303,-2.912323 2.243406,0 2.865617,0.201595 4.003699,1.297189 2.734065,2.631994 11.34919,14.236525 13.873045,18.68692 1.007357,1.776309 2.775743,4.21878 5.577408,7.703448 6.75546,8.402329 7.84768,10.958084 9.494547,22.216895 1.790042,12.237643 3.034851,17.329311 4.387322,17.945538 0.304536,0.138754 0.976006,0.253265 1.492159,0.254464 1.273445,0.0029 2.886985,0.810968 4.582687,2.294859 0.776249,0.679287 1.643127,1.293237 1.926392,1.364334 0.283265,0.07109 1.098557,-0.0715 1.811759,-0.316877 1.016602,-0.349762 1.335307,-0.385374 1.475301,-0.164852 0.09821,0.154708 0.180111,1.311197 0.181991,2.569972 l 0.0034,2.288683 -6.307833,-0.03612 C 78.941433,97.642839 71.179449,97.545551 65.161887,97.44651 Z m 15.518387,-1.404108 c 0,-0.05139 -0.338417,-0.302584 -0.752034,-0.558215 -0.601431,-0.371705 -1.117891,-0.464784 -2.578879,-0.464784 -1.190149,0 -2.053413,-0.117162 -2.476931,-0.336173 C 73.583613,94.016757 72.883497,92.224477 71.427658,85.864672 70.99192,83.961157 70.272612,81.047273 69.8292,79.389374 69.056105,76.498816 69.015467,76.159497 68.839772,71.127787 68.723147,67.78781 68.540787,65.474764 68.338064,64.764132 67.645318,62.335779 65.398133,58.597565 62.499231,55.051185 59.226035,51.04691 56.185235,46.854317 54.386252,43.865172 53.395648,42.21921 51.910034,39.917967 51.084886,38.751297 47.274978,33.364496 41.746616,26.667807 40.526936,25.9621 c -0.664933,-0.384731 -0.69296,-0.383478 -0.920209,0.04114 -0.579062,1.081986 -0.06583,2.830445 2.094873,7.136713 3.905841,7.784326 9.173793,16.452935 13.347549,21.963885 1.701867,2.247114 2.194581,3.273967 3.188905,6.645929 0.842647,2.857596 1.847396,5.127788 3.99097,9.017446 1.404485,2.54853 1.586924,3.292334 0.992793,4.047651 -1.025312,1.303471 -2.272562,0.703463 -4.233298,-2.036488 -2.259825,-3.157898 -3.672617,-6.070529 -4.787121,-9.869189 -0.299326,-1.020217 -0.787041,-2.334108 -1.083813,-2.919759 -0.881422,-1.739403 -7.150077,-9.848276 -8.44255,-10.920934 -0.496587,-0.41213 -1.020085,-0.101986 -1.570564,0.930467 -0.4014,0.752849 -0.491363,1.289087 -0.49173,2.931003 -5.36e-4,2.381378 0.05028,2.546853 3.016844,9.82459 3.204703,7.861952 3.127499,7.521727 3.800122,16.746461 0.308063,4.22496 0.645638,5.98748 1.639838,8.561788 1.005627,2.603903 1.222406,4.06206 0.718273,4.831464 -0.569478,0.869132 -1.380053,0.740812 -2.4617,-0.389708 -0.878296,-0.917979 -1.830462,-2.627545 -3.231822,-5.802566 -0.670236,-1.518536 -1.140281,-1.933107 -1.139241,-1.004788 0.0013,1.165942 1.573651,6.293173 2.7039,8.817108 l 0.623733,1.392843 8.4396,0.06128 c 21.026326,0.152681 23.957986,0.161731 23.957986,0.07396 z M 41.586028,75.785935 c 1.746124,-1.874244 1.744043,-7.067234 -0.0045,-11.26746 -1.093787,-2.627395 -2.101301,-3.58141 -2.666649,-2.525047 -0.906012,1.692899 0.144723,11.732242 1.433831,13.699669 0.455022,0.694451 0.662352,0.710008 1.237333,0.09284 z"
       id="path4397"
       inkscape:connector-curvature="0"
       transform="matrix(0.26458333,0,0,0.26458333,0,87)" />
    <path
       style="opacity:1;fill:#ffffff;fill-opacity:1;fill-rule:nonzero;stroke:none;stroke-width:2.51338577;stroke-linecap:butt;stroke-linejoin:miter;stroke-miterlimit:4;stroke-dasharray:none;stroke-dashoffset:0;stroke-opacity:1;paint-order:stroke fill markers"
       d="m 58.719819,97.346065 c -8.701047,-0.158314 -15.867121,-0.334876 -15.924608,-0.392363 -0.05749,-0.05749 0.02304,-0.308778 0.178941,-0.558421 0.237564,-0.380399 0.186794,-0.835655 -0.313535,-2.811473 -0.65226,-2.575803 -2.402259,-7.152097 -2.941027,-7.690866 -0.369493,-0.369492 -0.656646,-0.264869 -2.691756,0.980733 -2.82002,1.726009 -5.572337,-0.690854 -6.943853,-6.097531 -0.797335,-3.143188 -0.738939,-5.227901 0.23129,-8.256948 0.422138,-1.317908 1.174933,-3.768654 1.672879,-5.446103 0.964239,-3.248264 1.480525,-4.623579 4.638698,-12.356838 1.103368,-2.701762 2.285223,-5.649391 2.626345,-6.550286 0.36604,-0.966704 1.066593,-2.194181 1.7094,-2.995136 0.599049,-0.746427 1.0891,-1.466273 1.089003,-1.599657 -3.21e-4,-0.441347 -1.297444,-2.994354 -3.02898,-5.961662 -3.247764,-5.565642 -4.019943,-7.840166 -3.8251,-11.267173 0.129406,-2.276045 0.575182,-3.472311 1.567417,-4.206252 0.494359,-0.36567 1.037784,-0.483233 2.52044,-0.545264 2.624942,-0.109823 3.307954,0.06326 4.467548,1.132138 2.061433,1.900162 8.690514,10.499647 11.83857,15.357422 0.915598,1.412864 2.346677,3.623871 3.180173,4.913348 0.833496,1.289478 2.917443,4.10744 4.63099,6.262138 6.889766,8.663525 7.661447,10.510197 9.576814,22.917759 1.672145,10.832003 2.855113,15.978608 3.887499,16.912904 0.251259,0.227388 1.02938,0.464123 1.866911,0.567991 1.796441,0.222791 2.607725,0.608348 4.26391,2.026393 2.070612,1.772886 2.306813,1.852726 3.959477,1.338357 0.766421,-0.238536 1.476249,-0.382554 1.5774,-0.32004 0.101151,0.06251 0.18391,1.213 0.18391,2.556633 v 2.442969 L 81.62924,97.666371 C 77.730106,97.648508 67.420867,97.504377 58.719819,97.346065 Z m 21.178954,-1.774272 c -0.75285,-0.463691 -1.173738,-0.550414 -2.679434,-0.552079 -2.99759,-0.0033 -3.737848,-0.83108 -4.90509,-5.484888 -0.306078,-1.220337 -1.171151,-4.680524 -1.922384,-7.689305 L 69.025986,76.375011 68.832247,71.23943 C 68.613194,65.432894 68.39641,64.288791 67.037652,61.768215 65.742894,59.366361 64.449897,57.507533 61.702607,54.098488 58.68533,50.354419 56.069971,46.7328 54.532583,44.169797 51.129631,38.496681 45.884681,31.490936 42.075839,27.531168 40.21315,25.594671 39.690935,25.400516 39.472782,26.563374 c -0.224035,1.194207 0.404657,2.924281 2.669999,7.347478 3.465428,6.766426 7.547461,13.618551 11.007172,18.476701 3.973261,5.579284 3.774534,5.220122 4.994835,9.027287 0.866267,2.70263 1.648867,4.55127 3.213876,7.591728 1.137819,2.210533 2.131335,4.28335 2.207808,4.606259 0.157957,0.666954 -0.466875,1.637731 -1.20487,1.871962 -1.675027,0.531633 -5.97206,-5.652551 -7.681887,-11.055587 C 53.55358,60.870624 52.98705,59.62912 51.622993,57.730618 49.561064,54.86082 46.911436,51.519245 45.512697,50.024623 l -1.251318,-1.337093 -0.638562,0.707189 c -0.417006,0.461823 -0.73306,1.159065 -0.910922,2.009576 -0.476837,2.280166 -0.07306,3.8649 2.815433,11.049982 1.41471,3.519067 2.66956,6.734388 2.788555,7.145156 0.396734,1.36951 0.64282,3.386215 0.990261,8.115295 0.416554,5.669795 0.773508,7.723269 1.808281,10.402637 0.983709,2.547148 1.188052,3.991434 0.675418,4.773813 -0.580015,0.885214 -1.379638,0.746189 -2.513308,-0.436975 -0.862671,-0.900332 -1.490435,-2.037223 -3.422822,-6.198781 -0.537535,-1.157626 -0.899221,-1.366884 -0.899221,-0.52025 0,0.857497 1.478542,5.764675 2.414409,8.013255 l 0.854248,2.052478 10.032373,0.115099 c 5.517805,0.0633 12.845777,0.135526 16.284383,0.160496 l 6.252012,0.0454 z M 42.353875,74.308804 c 0.524644,-1.365982 0.691615,-3.752616 0.388082,-5.547114 -0.534346,-3.159067 -2.088486,-6.791368 -3.066352,-7.166612 -1.318801,-0.506071 -1.468444,4.672464 -0.307726,10.649139 0.474037,2.440875 0.707493,3.127283 1.247181,3.666971 0.367112,0.367113 0.412312,0.360294 0.880502,-0.132816 0.271438,-0.285886 0.657679,-0.947191 0.858313,-1.469568 z"
       id="path4399"
       inkscape:connector-curvature="0"
       transform="matrix(0.26458333,0,0,0.26458333,0,87)" />
    <path
       style="opacity:1;fill:#ffffff;fill-opacity:1;fill-rule:nonzero;stroke:none;stroke-width:2.51338577;stroke-linecap:butt;stroke-linejoin:miter;stroke-miterlimit:4;stroke-dasharray:none;stroke-dashoffset:0;stroke-opacity:1;paint-order:stroke fill markers"
       d="M 69.739253,97.542568 C 57.577353,97.356091 42.87099,97.029481 42.785468,96.94396 c -0.05501,-0.05501 0.0123,-0.309885 0.149572,-0.566385 0.193142,-0.360891 0.150239,-0.882831 -0.189699,-2.307805 -0.800988,-3.357637 -2.67144,-8.121265 -3.280626,-8.35503 -0.155209,-0.05956 -0.961615,0.301485 -1.792014,0.802322 -1.668396,1.006257 -2.559219,1.135685 -3.791591,0.550888 -1.642481,-0.77941 -2.947213,-2.941338 -3.797129,-6.291806 -0.712304,-2.807984 -0.715182,-5.161134 -0.0092,-7.538607 2.596037,-8.742693 2.822799,-9.376839 7.35194,-20.559929 2.075517,-5.124742 2.739448,-6.530067 3.60639,-7.633545 1.012613,-1.288895 1.050796,-1.388103 0.812341,-2.11063 -0.137619,-0.41699 -1.300252,-2.599514 -2.583629,-4.850054 -3.625999,-6.358583 -4.268038,-8.201966 -4.079677,-11.713332 0.1219,-2.272413 0.577096,-3.490048 1.582808,-4.233958 0.494359,-0.36567 1.037784,-0.483233 2.52044,-0.545264 2.636297,-0.110298 3.305813,0.06161 4.492847,1.153569 2.874336,2.64413 8.699519,10.485864 15.068979,20.285532 0.825181,1.269571 2.410006,3.463817 3.521834,4.876102 5.28536,6.713647 6.63255,8.729521 7.826441,11.711124 0.914888,2.284824 1.617694,5.088653 2.213625,8.831201 1.546926,9.714974 2.328013,14.134895 2.893846,16.375343 0.599914,2.375403 1.32454,4.205123 1.775806,4.484023 0.110397,0.06823 0.856823,0.216968 1.658721,0.330531 1.866391,0.264313 2.658392,0.650506 4.419731,2.155131 0.786818,0.672138 1.676774,1.286985 1.977676,1.366328 0.300905,0.07934 1.148421,-0.01686 1.883368,-0.213779 0.734948,-0.196918 1.418181,-0.307409 1.518298,-0.245534 0.100117,0.06188 0.18203,1.211839 0.18203,2.555472 v 2.442969 l -7.64755,-0.04989 c -4.206153,-0.02744 -9.30545,-0.07531 -11.331772,-0.10638 z m 10.592011,-1.652802 c -0.310316,-0.502103 -1.693591,-0.870387 -3.272218,-0.871198 -2.131793,-0.0011 -2.899672,-0.450227 -3.678594,-2.151623 -0.314142,-0.686172 -1.415679,-4.627326 -2.447864,-8.758117 L 69.05589,76.598297 68.840705,71.695072 C 68.722352,68.998298 68.517237,66.184892 68.384896,65.44306 67.918475,62.828585 65.804534,59.222205 61.900872,54.381326 58.744932,50.467685 56.397346,47.18441 54.021468,43.361387 51.627463,39.509195 49.107653,35.978341 45.872772,31.943121 c -2.432888,-3.034808 -5.357718,-6.14242 -5.781138,-6.14242 -0.156077,0 -0.390082,0.276316 -0.52001,0.614037 -0.362848,0.943143 0.226824,2.700077 2.289081,6.82034 3.730377,7.453065 7.893624,14.39347 12.508705,20.852835 l 2.582195,3.614091 1.148941,3.531065 c 0.842508,2.5893 1.75755,4.739641 3.430872,8.062528 2.210486,4.389584 2.271414,4.550209 1.94593,5.130097 -0.184801,0.329249 -0.599805,0.7467 -0.922228,0.927671 -0.544892,0.30584 -0.650218,0.286691 -1.493842,-0.271594 -1.939716,-1.283643 -5.398155,-7.230664 -6.742844,-11.594782 -0.85566,-2.776994 -1.470118,-4.03987 -2.963754,-6.0913 -1.614731,-2.217749 -5.056354,-6.521326 -6.141108,-7.679147 -1.052064,-1.122931 -1.286325,-1.065502 -2.091474,0.51272 -0.595249,1.166784 -0.631894,3.724989 -0.08023,5.6012 0.216294,0.735621 1.496472,4.091813 2.844842,7.458202 1.413361,3.528651 2.578123,6.791893 2.750389,7.705595 0.164345,0.871689 0.460961,3.694942 0.659149,6.273896 0.457328,5.951083 0.787096,7.868785 1.900618,11.052664 0.971138,2.776764 1.118243,4.08084 0.533249,4.727249 -1.149583,1.270275 -2.699453,-0.16178 -4.776223,-4.413157 -2.060513,-4.218096 -2.440665,-4.461279 -1.55569,-0.995173 0.498807,1.953636 1.743767,5.610991 2.454348,7.210214 l 0.470377,1.058624 11.657131,0.05984 c 6.411422,0.03291 13.647516,0.08405 16.08021,0.113628 3.176964,0.03863 4.380233,-0.01554 4.270999,-0.192281 z M 41.97818,75.039152 c 0.664844,-1.185243 1.048306,-3.581185 0.850335,-5.313049 -0.345894,-3.0259 -1.744408,-6.921776 -2.840964,-7.914145 -0.417519,-0.377849 -0.452208,-0.371469 -0.886402,0.163037 -0.423429,0.521255 -0.444697,0.781191 -0.337829,4.128854 0.179054,5.608925 1.242183,10.105046 2.33942,9.893739 0.208304,-0.04012 0.602252,-0.471413 0.87544,-0.958436 z"
       id="path4401"
       inkscape:connector-curvature="0"
       transform="matrix(0.26458333,0,0,0.26458333,0,87)" />
    <path
       style="opacity:1;fill:#ffffff;fill-opacity:1;fill-rule:nonzero;stroke:none;stroke-width:2.51338577;stroke-linecap:butt;stroke-linejoin:miter;stroke-miterlimit:4;stroke-dasharray:none;stroke-dashoffset:0;stroke-opacity:1;paint-order:stroke fill markers"
       d="M 61.366023,97.44789 C 55.594076,97.34931 49.053574,97.204459 46.831573,97.125992 l -4.040002,-0.142669 0.103298,-1.07504 c 0.07527,-0.783375 -0.08518,-1.714056 -0.591402,-3.430374 -0.687933,-2.332398 -2.263893,-6.258603 -2.678657,-6.673366 -0.137914,-0.137915 -0.812438,0.114671 -1.880088,0.704026 -2.45586,1.355666 -3.725929,1.219854 -5.294012,-0.566093 -0.98339,-1.120019 -1.895185,-3.125222 -2.472134,-5.436672 -0.377202,-1.511196 -0.453276,-2.352915 -0.37334,-4.130793 0.09079,-2.019172 0.265396,-2.755277 1.824512,-7.691609 1.832792,-5.802821 7.95813,-21.377641 8.961756,-22.786949 0.306097,-0.429826 0.798512,-1.11347 1.094256,-1.519208 0.503814,-0.691193 0.518517,-0.792123 0.233202,-1.600791 -0.167483,-0.474697 -1.225898,-2.485824 -2.352035,-4.469171 -3.722984,-6.556905 -4.357024,-8.351737 -4.188277,-11.856111 0.115287,-2.394155 0.541941,-3.556314 1.586072,-4.320283 0.501332,-0.366813 1.045236,-0.47722 2.662573,-0.540474 2.80004,-0.109509 3.408925,0.119741 5.110531,1.924155 3.099444,3.286709 8.737439,10.84863 12.723693,17.065562 2.430523,3.790627 3.102461,4.718917 7.594399,10.491745 5.370912,6.902445 6.308602,9.304079 8.122596,20.803771 1.705491,10.811843 2.918082,16.127216 3.904,17.113134 0.228953,0.228953 0.900794,0.481894 1.492983,0.562092 2.211466,0.299491 2.752001,0.565936 5.307953,2.616435 1.452787,1.165487 1.852027,1.247645 3.553905,0.731327 0.597612,-0.181306 1.175365,-0.274767 1.283895,-0.207692 0.108529,0.06707 0.197325,1.221291 0.197325,2.564924 v 2.442969 l -8.429052,-0.03586 c -4.635978,-0.01972 -13.151553,-0.116513 -18.9235,-0.21509 z m 18.813693,-1.591164 c -0.149256,-0.456787 -1.516084,-0.811218 -3.183663,-0.825555 -2.062164,-0.01773 -2.847751,-0.487019 -3.612857,-2.158228 -0.31263,-0.682874 -1.414127,-4.573789 -2.44777,-8.646475 l -1.879352,-7.404885 -0.2181,-4.800652 C 68.718021,69.380573 68.511249,66.543633 68.378483,65.716619 67.931359,62.931442 66.017703,59.616292 61.706342,54.15804 58.305433,49.852431 57.486279,48.74397 55.848542,46.231382 55.048068,45.003308 53.511047,42.642058 52.432943,40.984158 49.045811,35.77546 42.690997,27.768036 40.799414,26.325255 c -1.030405,-0.785928 -1.288705,-0.509892 -1.162,1.241786 0.08521,1.178002 0.406292,1.967147 2.482407,6.101165 3.783846,7.534496 7.894357,14.282504 13.545647,22.237171 1.116852,1.572064 1.480666,2.347456 2.357222,5.023938 0.658411,2.010397 1.897658,4.93731 3.397107,8.023448 2.576432,5.30276 2.608275,5.459924 1.282265,6.32876 -0.539624,0.353573 -0.637461,0.355154 -1.336968,0.02159 -1.945644,-0.927815 -5.306085,-6.55699 -7.063123,-11.831649 -0.497169,-1.49251 -1.086749,-3.068213 -1.310178,-3.501565 -0.569782,-1.105132 -2.27829,-3.491871 -4.559911,-6.370076 -2.549634,-3.216294 -3.88994,-4.615941 -4.340728,-4.532908 -0.718442,0.132338 -1.36975,1.915807 -1.366873,3.742897 0.0035,2.250894 0.201129,2.905343 3.069829,10.168029 1.358221,3.438606 2.569832,6.653927 2.692469,7.145156 0.317918,1.273437 0.430483,2.254886 0.934739,8.149944 0.483493,5.652326 0.712416,6.90133 1.904178,10.389198 1.091973,3.195819 0.976041,4.794259 -0.347721,4.794259 -1.342761,0 -2.342952,-1.249741 -4.363389,-5.452071 -1.881166,-3.912659 -2.115553,-3.344902 -0.637645,1.544564 0.408323,1.350881 1.089483,3.310217 1.513689,4.35408 l 0.771284,1.897932 12.580879,0.114436 c 6.919486,0.06294 14.121556,0.138297 16.004602,0.167465 2.657388,0.04116 3.403307,-0.0094 3.332521,-0.22608 z M 41.976339,74.923091 c 1.423836,-2.810749 0.98727,-7.586806 -1.065599,-11.657734 -0.744162,-1.475705 -1.331939,-1.922458 -1.794063,-1.363615 -0.400322,0.484107 -0.396698,6.447088 0.0053,8.779472 0.905263,5.251853 1.725335,6.47058 2.854326,4.241877 z"
       id="path4403"
       inkscape:connector-curvature="0"
       transform="matrix(0.26458333,0,0,0.26458333,0,87)" />
    <path
       style="opacity:1;fill:#ffffff;fill-opacity:1;fill-rule:nonzero;stroke:none;stroke-width:2.51338577;stroke-linecap:butt;stroke-linejoin:miter;stroke-miterlimit:4;stroke-dasharray:none;stroke-dashoffset:0;stroke-opacity:1;paint-order:stroke fill markers"
       d="m 60.026306,97.447613 c -5.771946,-0.09873 -12.00163,-0.242841 -13.84374,-0.320248 l -3.349292,-0.140739 -0.01863,-1.486005 c -0.02026,-1.615859 -0.854811,-4.489519 -2.263436,-7.793839 -0.922801,-2.164685 -1.024629,-2.199958 -3.061975,-1.060609 -2.166518,1.211587 -3.523249,1.022101 -5.038519,-0.703697 -2.52008,-2.870212 -3.578356,-8.638224 -2.357709,-12.850423 1.73848,-5.999129 3.432892,-10.800226 6.438227,-18.242639 2.611735,-6.467701 3.589616,-8.640514 4.33489,-9.631947 0.529302,-0.704129 0.962368,-1.495386 0.962368,-1.758352 0,-0.564471 -0.885137,-2.3687 -2.747778,-5.600963 -1.849012,-3.208613 -3.196058,-6.107873 -3.63638,-7.826618 -0.488537,-1.906946 -0.35078,-5.342127 0.263888,-6.580468 0.710306,-1.431019 1.386731,-1.769433 3.719079,-1.860651 2.836115,-0.11092 3.392282,0.107176 5.243757,2.056297 2.809742,2.957929 8.546958,10.62521 12.221281,16.332658 2.671566,4.149834 3.319352,5.059452 6.803665,9.553662 6.62962,8.551158 7.392723,10.376368 9.2702,22.17272 1.746991,10.976494 2.95433,16.321044 3.900735,17.267449 0.245664,0.245664 1.01764,0.492266 1.995236,0.637361 1.728668,0.256572 2.371078,0.583005 4.506236,2.289789 0.769162,0.614845 1.639949,1.178506 1.935082,1.252579 0.296205,0.07434 1.131822,-0.06047 1.865203,-0.300925 0.730731,-0.239584 1.378388,-0.385816 1.439242,-0.324964 0.06085,0.06086 0.110643,1.249402 0.110643,2.641221 v 2.530575 l -9.09891,-0.03586 C 74.615264,97.643263 65.798253,97.546342 60.026306,97.447613 Z M 79.960931,95.947856 C 80.481152,95.617732 79.099174,95.198253 76.937873,95.030255 73.628174,94.772994 73.628829,94.774173 70.924684,84.19572 L 69.039651,76.821583 68.829619,72.35586 C 68.714102,69.899713 68.531883,67.181602 68.424687,66.315613 68.027805,63.109336 66.516214,60.392812 61.61751,54.082235 57.495302,48.771952 56.968731,48.033027 53.954339,43.328662 52.616598,41.240937 50.682266,38.377292 49.655824,36.965008 45.669499,31.48021 40.603915,25.651939 39.996933,25.85185 c -0.167368,0.05512 -0.318212,0.531255 -0.357279,1.127733 -0.09118,1.392208 0.733926,3.414423 3.618752,8.868994 3.711787,7.018171 6.694284,11.888272 11.244679,18.361364 2.153981,3.064113 2.561009,3.791427 3.186425,5.693796 1.059584,3.223008 2.412401,6.447396 4.321406,10.299909 0.934787,1.886468 1.699612,3.567902 1.699612,3.736521 0,0.168619 -0.284322,0.62479 -0.631824,1.013712 -0.537955,0.602078 -0.728692,0.682823 -1.283835,0.54349 -1.993664,-0.500377 -5.423098,-6.021927 -7.572118,-12.191465 -0.576176,-1.654122 -1.35404,-3.509889 -1.728587,-4.123926 -1.341636,-2.1995 -6.200499,-8.381661 -7.612209,-9.685373 -0.319836,-0.29537 -0.72296,-0.473713 -0.909215,-0.402239 -1.064392,0.408446 -1.582403,3.871297 -0.948976,6.343807 0.194533,0.759334 1.471917,4.219284 2.838631,7.688778 1.366714,3.469494 2.617041,6.965337 2.778504,7.76854 0.161462,0.803203 0.40852,2.867072 0.549017,4.586375 0.662464,8.106788 0.788559,8.898757 2.033786,12.773624 0.48177,1.499159 0.875946,3.124762 0.875946,3.612451 0,0.961289 -0.442948,1.588459 -1.121873,1.588459 -1.317923,0 -2.223244,-1.109194 -4.314107,-5.28562 -1.085771,-2.168787 -1.709176,-3.130094 -1.709176,-2.635596 0,1.125679 2.838091,9.617454 3.410848,10.205503 0.02755,0.02828 6.078813,0.105208 13.447255,0.170945 7.368443,0.06574 14.401956,0.141535 15.63003,0.168441 1.228074,0.02691 2.361311,-0.03259 2.518306,-0.132217 z M 41.77033,75.155989 c 0.72651,-1.072233 0.948653,-2.097126 0.950055,-4.383236 0.0015,-2.487566 -0.580328,-4.915792 -1.734066,-7.236695 -0.703624,-1.415438 -0.918882,-1.674646 -1.390694,-1.674646 -0.516942,0 -0.573525,0.107313 -0.765263,1.45136 -0.397105,2.783628 0.492563,9.972796 1.473208,11.904596 0.497343,0.979733 0.769041,0.968363 1.46676,-0.06138 z"
       id="path4405"
       inkscape:connector-curvature="0"
       transform="matrix(0.26458333,0,0,0.26458333,0,87)" />
  </g>
</svg>
