<?xml version="1.0" encoding="UTF-8" standalone="no"?>
<!-- Created with Inkscape (http://www.inkscape.org/) -->

<svg
   xmlns:dc="http://purl.org/dc/elements/1.1/"
   xmlns:cc="http://creativecommons.org/ns#"
   xmlns:rdf="http://www.w3.org/1999/02/22-rdf-syntax-ns#"
   xmlns:svg="http://www.w3.org/2000/svg"
   xmlns="http://www.w3.org/2000/svg"
   xmlns:sodipodi="http://sodipodi.sourceforge.net/DTD/sodipodi-0.dtd"
   xmlns:inkscape="http://www.inkscape.org/namespaces/inkscape"
   width="297mm"
   height="210mm"
   viewBox="0 0 297 210"
   version="1.1"
   id="svg1549"
   sodipodi:docname="G.svg"
   inkscape:version="0.92.2 (5c3e80d, 2017-08-06)">
  <defs
     id="defs1543">
    <inkscape:path-effect
       effect="spiro"
       id="path-effect5012"
       is_visible="true" />
    <inkscape:path-effect
       effect="spiro"
       id="path-effect5008"
       is_visible="true" />
    <inkscape:path-effect
       effect="spiro"
       id="path-effect5004"
       is_visible="true" />
  </defs>
  <sodipodi:namedview
     id="base"
     pagecolor="#ffffff"
     bordercolor="#666666"
     borderopacity="1.0"
     inkscape:pageopacity="0.0"
     inkscape:pageshadow="2"
     inkscape:zoom="5.0709289"
     inkscape:cx="85.874812"
     inkscape:cy="722.79387"
     inkscape:document-units="mm"
     inkscape:current-layer="layer1"
     showgrid="false"
     inkscape:window-width="1366"
     inkscape:window-height="705"
     inkscape:window-x="-8"
     inkscape:window-y="-8"
     inkscape:window-maximized="1" />
  <metadata
     id="metadata1546">
    <rdf:RDF>
      <cc:Work
         rdf:about="">
        <dc:format>image/svg+xml</dc:format>
        <dc:type
           rdf:resource="http://purl.org/dc/dcmitype/StillImage" />
        <dc:title />
      </cc:Work>
    </rdf:RDF>
  </metadata>
  <g
     inkscape:label="Capa 1"
     inkscape:groupmode="layer"
     id="layer1"
     transform="translate(0,-87)">
    <path
       style="opacity:1;fill:#006680;fill-opacity:1;fill-rule:nonzero;stroke:none;stroke-width:0.66499996;stroke-linecap:butt;stroke-linejoin:miter;stroke-miterlimit:4;stroke-dasharray:none;stroke-dashoffset:0;stroke-opacity:1;paint-order:stroke fill markers"
       d="m 11.501029,106.119 c -0.7191,-0.66643 -0.53475,-1.10333 1.30382,-3.09003 0.56473,-0.61023 1.02678,-1.19962 1.02678,-1.30976 0,-0.11014 -0.222,-0.28249 -0.49333,-0.383 -0.80876,-0.29959 -0.93903,-0.39366 -1.15495,-0.83396 -0.18259,-0.37236 -0.26757,-0.41065 -0.74079,-0.33386 -0.33093,0.0537 -0.69758,0.002 -0.96259,-0.13461 -0.23543,-0.121752 -0.56805,-0.221352 -0.73917,-0.221352 -0.53395,0 -0.34177,-0.3071 0.39658,-0.63371 0.55475,-0.24539 0.88156,-0.29261 1.51212,-0.2185 1.71153,0.20115 5.11977,1.543412 5.82492,2.294012 l 0.31668,0.33709 -0.98614,0.0791 c -1.27833,0.10262 -1.81126,0.42925 -2.67146,1.63735 -0.57853,0.8125 -0.7833,0.99067 -1.18377,1.03001 -0.46368,0.0455 -0.48423,0.0758 -0.48423,0.71386 0,0.65369 -0.24979,1.43955 -0.45757,1.43955 -0.0579,0 -0.286,-0.16751 -0.5069,-0.37224 z"
       id="path2310"
       inkscape:connector-curvature="0" />
    <path
       style="opacity:1;fill:#006680;fill-opacity:1;fill-rule:nonzero;stroke:none;stroke-width:0.66499996;stroke-linecap:butt;stroke-linejoin:miter;stroke-miterlimit:4;stroke-dasharray:none;stroke-dashoffset:0;stroke-opacity:1;paint-order:stroke fill markers"
       d="m 6.872269,99.622878 c -0.7818,-0.26883 -1.05651,-0.56624 -0.82643,-0.89473 0.0595,-0.085 0.24093,-0.19026 0.40312,-0.23393 0.28002,-0.0754 2.5843,-0.25312 2.63425,-0.20317 0.0619,0.0619 -1.4883,1.49225 -1.61486,1.49001 -0.0789,-0.001 -0.34713,-0.0726 -0.59608,-0.15818 z"
       id="path2312"
       inkscape:connector-curvature="0" />
    <path
       style="opacity:1;fill:#006680;fill-opacity:1;fill-rule:nonzero;stroke:none;stroke-width:0.66499996;stroke-linecap:butt;stroke-linejoin:miter;stroke-miterlimit:4;stroke-dasharray:none;stroke-dashoffset:0;stroke-opacity:1;paint-order:stroke fill markers"
       d="m 8.461299,102.56133 c -0.13982,-0.21339 -0.23149,-1.11644 -0.15483,-1.52512 0.0506,-0.26948 0.0658,-0.28208 0.29483,-0.24378 0.47829,0.08 0.65894,0.18917 0.65894,0.39834 0,0.2605 0.12681,0.48586 0.31192,0.55434 0.14319,0.053 0.13931,0.0706 -0.0832,0.37771 -0.22793,0.31464 -0.62896,0.61985 -0.81521,0.62042 -0.0512,1.6e-4 -0.14684,-0.0817 -0.2125,-0.18191 z"
       id="path2314"
       inkscape:connector-curvature="0" />
    <path
       style="opacity:1;fill:#006680;fill-opacity:1;fill-rule:nonzero;stroke:none;stroke-width:0.66499996;stroke-linecap:butt;stroke-linejoin:miter;stroke-miterlimit:4;stroke-dasharray:none;stroke-dashoffset:0;stroke-opacity:1;paint-order:stroke fill markers"
       d="m 5.716349,103.54688 c -0.11712,-0.1008 -0.18623,-0.21005 -0.15359,-0.24277 0.0326,-0.0327 0.1686,0.0498 0.30213,0.18329 0.28254,0.28254 0.16521,0.32952 -0.14854,0.0595 z"
       id="path2316"
       inkscape:connector-curvature="0" />
    <path
       style="opacity:1;fill:#006680;fill-opacity:1;fill-rule:nonzero;stroke:none;stroke-width:0.66499996;stroke-linecap:butt;stroke-linejoin:miter;stroke-miterlimit:4;stroke-dasharray:none;stroke-dashoffset:0;stroke-opacity:1;paint-order:stroke fill markers"
       d="m 13.815799,110.56332 c -0.27012,-0.0679 -0.55913,-0.34188 -0.51145,-0.4849 0.0502,-0.15068 0.54822,-0.21779 1.3302,-0.17925 1.04768,0.0516 1.7699,-0.0488 2.65453,-0.36898 0.83058,-0.30066 1.26837,-0.32479 1.26837,-0.0699 0,0.11837 -0.21447,0.26004 -0.97405,0.64341 l -0.97405,0.49162 -1.26487,0.0171 c -0.69568,0.009 -1.38358,-0.0127 -1.52868,-0.0491 z"
       id="path2318"
       inkscape:connector-curvature="0" />
    <path
       style="opacity:1;fill:#006680;fill-opacity:1;fill-rule:nonzero;stroke:none;stroke-width:0.66499996;stroke-linecap:butt;stroke-linejoin:miter;stroke-miterlimit:4;stroke-dasharray:none;stroke-dashoffset:0;stroke-opacity:1;paint-order:stroke fill markers"
       d="m 11.811799,108.73666 c -0.32471,-0.0972 -0.57827,-0.36915 -0.57827,-0.62016 0,-0.2766 0.16953,-0.34283 0.43698,-0.17074 0.33992,0.21872 0.92914,0.72642 0.92914,0.80058 0,0.085 -0.49193,0.0789 -0.78785,-0.01 z"
       id="path2320"
       inkscape:connector-curvature="0" />
    <path
       style="opacity:1;fill:#006680;fill-opacity:1;fill-rule:nonzero;stroke:none;stroke-width:0.66499996;stroke-linecap:butt;stroke-linejoin:miter;stroke-miterlimit:4;stroke-dasharray:none;stroke-dashoffset:0;stroke-opacity:1;paint-order:stroke fill markers"
       d="m 14.899419,108.15824 c -0.12309,-0.32079 0.80471,-0.57483 1.04443,-0.28598 0.11834,0.14258 0.0346,0.21562 -0.38427,0.33505 -0.38622,0.11013 -0.60531,0.0938 -0.66016,-0.0491 z"
       id="path2322"
       inkscape:connector-curvature="0" />
    <path
       style="opacity:1;fill:#006680;fill-opacity:1;fill-rule:nonzero;stroke:none;stroke-width:0.66499996;stroke-linecap:butt;stroke-linejoin:miter;stroke-miterlimit:4;stroke-dasharray:none;stroke-dashoffset:0;stroke-opacity:1;paint-order:stroke fill markers"
       d="m 16.090849,106.76599 c 0,-0.21752 0.0319,-0.30358 0.11239,-0.30358 0.15136,0 0.23282,0.35171 0.11447,0.4943 -0.15604,0.18803 -0.22686,0.12849 -0.22686,-0.19072 z"
       id="path2324"
       inkscape:connector-curvature="0" />
    <path
       style="opacity:1;fill:#006680;fill-opacity:1;fill-rule:nonzero;stroke:none;stroke-width:0.66499996;stroke-linecap:butt;stroke-linejoin:miter;stroke-miterlimit:4;stroke-dasharray:none;stroke-dashoffset:0;stroke-opacity:1;paint-order:stroke fill markers"
       d="m 17.383739,107.75762 c -0.0976,-0.18235 -0.10189,-0.38447 -0.008,-0.38447 0.0811,0 0.38499,0.36755 0.38499,0.46561 0,0.12793 -0.29943,0.0635 -0.37681,-0.0811 z"
       id="path2326"
       inkscape:connector-curvature="0" />
    <path
       style="opacity:1;fill:#006680;fill-opacity:1;fill-rule:nonzero;stroke:none;stroke-width:0.66499996;stroke-linecap:butt;stroke-linejoin:miter;stroke-miterlimit:4;stroke-dasharray:none;stroke-dashoffset:0;stroke-opacity:1;paint-order:stroke fill markers"
       d="m 13.951539,107.4731 c 0.0548,-0.0219 0.12024,-0.0192 0.14546,0.006 0.0252,0.0252 -0.0196,0.0432 -0.0996,0.0399 -0.0884,-0.004 -0.10639,-0.0216 -0.0459,-0.0458 z"
       id="path2328"
       inkscape:connector-curvature="0" />
    <path
       style="opacity:1;fill:#006680;fill-opacity:1;fill-rule:nonzero;stroke:none;stroke-width:0.66499996;stroke-linecap:butt;stroke-linejoin:miter;stroke-miterlimit:4;stroke-dasharray:none;stroke-dashoffset:0;stroke-opacity:1;paint-order:stroke fill markers"
       d="m 15.749309,109.23021 c -0.71859,-0.16438 -0.8987,-0.22711 -0.9311,-0.32431 -0.0169,-0.0505 0.0381,-0.0907 0.12396,-0.0907 0.24235,0 1.37636,0.37792 1.37636,0.45868 0,0.0871 0.004,0.0874 -0.56922,-0.0436 z"
       id="path2330"
       inkscape:connector-curvature="0" />
    <path
       style="opacity:1;fill:#0088aa;fill-opacity:1;fill-rule:nonzero;stroke:none;stroke-width:0.66499996;stroke-linecap:butt;stroke-linejoin:miter;stroke-miterlimit:4;stroke-dasharray:none;stroke-dashoffset:0;stroke-opacity:1;paint-order:stroke fill markers"
       d="m 18.367709,112.96354 c 0,-0.39761 -0.19954,-0.96102 -0.42296,-1.19421 -0.11215,-0.11707 -0.18574,-0.26023 -0.16352,-0.31813 0.0222,-0.0579 0.34101,-0.25351 0.70843,-0.43469 0.7655,-0.37748 1.27425,-0.80795 1.39799,-1.18288 0.10615,-0.32165 0.31223,-0.38469 0.882841,-0.2701 0.53678,0.1078 0.70894,0.0282 0.70894,-0.32778 0,-0.37236 -0.26339,-0.63647 -1.009311,-1.01207 -0.963,-0.4849 -1.39739,-1.03037 -1.8785,-2.35884 -0.23766,-0.65622 -0.44762,-0.7891 -1.18106,-0.74745 -0.66764,0.0379 -1.31367,0.32185 -1.96483,0.86357 -0.73278,0.60963 -1.06734,0.80362 -1.40106,0.81237 -0.35583,0.009 -0.49457,-0.101 -0.43304,-0.34434 0.0466,-0.18416 1.57115,-2.5455 1.96512,-3.04366 0.39708,-0.5021 0.53067,-0.53816 2.1838,-0.5895 1.62303,-0.0504 1.8617,-0.10636 1.80129,-0.42237 -0.05,-0.26135 0.0296,-0.27784 0.40919,-0.0848 0.51177,0.26031 1.379041,0.9444 2.381201,1.87824 1.48029,1.37937 2.12074,1.81469 2.67532,1.81844 l 0.24666,0.002 v 3.55482 3.55482 l -2.51694,0.0502 c -1.38432,0.0276 -2.938281,0.0502 -3.453251,0.0502 h -0.93631 z m 5.486071,-0.87759 c 0.0716,-0.12123 0.13021,-0.35378 0.13021,-0.51677 0,-0.31803 -0.18281,-0.64821 -0.28317,-0.51144 -0.13053,0.17789 -0.52958,0.76169 -0.5818,0.85116 -0.0412,0.0705 0.0105,0.0906 0.19575,0.0759 0.21055,-0.0167 0.25567,0.008 0.276,0.15081 0.0326,0.22903 0.10665,0.21505 0.26301,-0.0496 z"
       id="path2342"
       inkscape:connector-curvature="0" />
    <path
       style="opacity:1;fill:#216778;fill-opacity:1;fill-rule:nonzero;stroke:none;stroke-width:0.66499996;stroke-linecap:butt;stroke-linejoin:miter;stroke-miterlimit:4;stroke-dasharray:none;stroke-dashoffset:0;stroke-opacity:1;paint-order:stroke fill markers"
       d="m 18.367709,112.91417 c 0,-0.33459 -0.17779,-0.84208 -0.40378,-1.15256 -0.0814,-0.11178 -0.13013,-0.24963 -0.10837,-0.30632 0.0217,-0.0567 0.31653,-0.25216 0.65505,-0.43436 0.75892,-0.40847 1.18076,-0.76245 1.38447,-1.16175 l 0.15601,-0.30581 0.60197,0.0413 c 0.647141,0.0443 0.826371,-0.0279 0.826371,-0.33328 0,-0.39556 -0.2564,-0.63843 -1.294591,-1.22626 -0.52486,-0.29718 -0.96327,-0.82528 -1.29599,-1.56113 -0.62048,-1.37229 -0.65386,-1.40286 -1.47518,-1.35137 -0.71632,0.0449 -1.18336,0.2576 -2.13667,0.97305 -0.74581,0.55971 -1.09955,0.72169 -1.43647,0.65774 -0.31846,-0.0604 -0.20082,-0.37865 0.59859,-1.61916 0.97437,-1.51199 1.25323,-1.88693 1.52439,-2.04959 0.22731,-0.13636 1.22291,-0.25312 2.29036,-0.26862 0.33394,-0.005 0.76085,-0.0488 0.9487,-0.0976 0.28968,-0.0753 0.34517,-0.12044 0.36554,-0.29747 0.0132,-0.1148 0.0677,-0.20872 0.12105,-0.20872 0.12929,0 0.97544,0.54919 1.447561,0.93952 0.20806,0.17202 0.77158,0.6672 1.25227,1.1004 1.48842,1.34135 2.10497,1.75486 2.61657,1.75486 h 0.26865 v 3.52234 3.52233 l -0.62614,0.0421 c -0.34437,0.0232 -1.89833,0.06 -3.45324,0.0818 l -2.827121,0.0397 z m 5.500491,-0.83172 c 0.18576,-0.35922 0.11691,-1.06631 -0.10382,-1.06631 -0.0522,0 -0.59714,0.74668 -0.67849,0.92973 -0.0139,0.0313 0.0777,0.0569 0.2036,0.0569 0.16224,0 0.24293,0.0442 0.27707,0.15179 0.0675,0.21277 0.16655,0.1891 0.30164,-0.0721 z"
       id="path2346"
       inkscape:connector-curvature="0" />
    <path
       style="opacity:1;fill:#216778;fill-opacity:1;fill-rule:nonzero;stroke:none;stroke-width:0.66499996;stroke-linecap:butt;stroke-linejoin:miter;stroke-miterlimit:4;stroke-dasharray:none;stroke-dashoffset:0;stroke-opacity:1;paint-order:stroke fill markers"
       d="m 3.264739,107.89171 c 2.7e-4,-5.02958 0.0516,-7.06625 0.17697,-7.02445 0.0983,0.0328 0.38051,0.86576 0.54732,1.61552 0.10235,0.46005 0.18042,0.62938 0.38409,0.83304 0.57045,0.57045 1.97121,1.36163 2.32251,1.31181 0.50086,-0.071 0.11513,-0.93818 -1.0779,-2.42312 -0.32202,-0.40081 -0.67462,-0.9131 -0.78356,-1.13843 -0.43394,-0.89758 -0.47466,-2.445692 -0.11728,-4.458852 0.0933,-0.52529 0.0905,-0.56421 -0.0465,-0.66444 -0.29476,-0.21554 -0.69234,0.0718 -1.03507,0.74806 -0.12165,0.24002 -0.25561,0.4364 -0.29769,0.4364 -0.0494,0 -0.0692,-0.49114 -0.0558,-1.38509 l 0.0207,-1.3851 1.47997,-0.0759 1.47996,-0.0759 0.0549,-0.68306 c 0.0302,-0.37568 0.0763,-1.11851 0.10252,-1.65073 l 0.0476,-0.96767 h 9.21368 9.213671 v 6.95078 c 0,4.228262 -0.0275,6.940862 -0.0702,6.925472 -0.2021,-0.0728 -1.74639,-1.44163 -2.28363,-2.02418 -0.7228,-0.78375 -1.10512,-1.0335 -2.225301,-1.45362 -1.1107,-0.41657 -1.79887,-0.75071 -2.51978,-1.22349 -1.35642,-0.889562 -3.89719,-1.882482 -5.79813,-2.265882 -1.12688,-0.22728 -2.8097,-0.33209 -4.55652,-0.28379 -0.85704,0.0237 -1.68532,0.0809 -1.84062,0.12715 -0.38721,0.11528 -0.51945,0.32467 -0.46338,0.73373 0.0414,0.30192 0.0294,0.33306 -0.15495,0.40315 -0.10988,0.0418 -0.19978,0.1294 -0.19978,0.19471 0,0.22917 0.29421,0.69189 0.64623,1.016382 0.32671,0.30115 0.37939,0.32381 0.65151,0.2803 0.25639,-0.041 0.29606,-0.0281 0.29606,0.096 0,0.23254 0.20827,0.3624 0.39459,0.24604 0.0892,-0.0557 0.18287,-0.0682 0.22149,-0.0296 0.0368,0.0368 0.15159,0.57482 0.25509,1.19559 0.10349,0.62078 0.22403,1.23736 0.26787,1.37018 0.12731,0.38575 0.38292,0.5687 0.92407,0.6614 0.45625,0.0781 0.51265,0.0711 0.92062,-0.11571 0.55564,-0.25438 1.15435,-0.85918 1.27731,-1.29028 0.16025,-0.56187 0.4052,-0.70379 0.85834,-0.49733 0.37783,0.17215 0.24694,0.45611 -0.93271,2.02353 -0.36685,0.48745 -0.69162,0.92753 -0.7217,0.97796 -0.0607,0.10176 0.21038,2.93993 0.33427,3.49971 0.18682,0.84418 0.52062,1.2104 1.22343,1.34225 0.48352,0.0907 0.73557,0.30504 0.96804,0.82317 0.39057,0.87051 0.89868,1.09341 2.71823,1.19243 0.86678,0.0472 1.3023,0.10283 1.46571,0.18734 0.31861,0.16476 0.26669,0.35662 -0.1193,0.4408 -0.16652,0.0363 -3.19723,0.0823 -6.73492,0.10229 l -6.43215,0.0362 2.6e-4,-4.65487 z"
       id="path2348"
       inkscape:connector-curvature="0" />
    <path
       style="opacity:1;fill:#216778;fill-opacity:1;fill-rule:nonzero;stroke:none;stroke-width:0.66499996;stroke-linecap:butt;stroke-linejoin:miter;stroke-miterlimit:4;stroke-dasharray:none;stroke-dashoffset:0;stroke-opacity:1;paint-order:stroke fill markers"
       d="m 5.387349,103.23417 c -0.1318,-0.1588 -0.0219,-0.24369 0.12515,-0.0967 0.071,0.071 0.0891,0.138 0.0447,0.16541 -0.041,0.0254 -0.11747,-0.006 -0.16989,-0.0687 z"
       id="path2350"
       inkscape:connector-curvature="0" />
    <path
       style="opacity:1;fill:#216778;fill-opacity:1;fill-rule:nonzero;stroke:none;stroke-width:0.66499996;stroke-linecap:butt;stroke-linejoin:miter;stroke-miterlimit:4;stroke-dasharray:none;stroke-dashoffset:0;stroke-opacity:1;paint-order:stroke fill markers"
       d="m 3.811899,99.971408 c -0.0386,-0.11683 -0.022,-0.45638 0.0245,-0.50289 0.0395,-0.0395 0.1159,0.11082 0.13788,0.27115 0.0174,0.12698 -0.0448,0.336112 -0.10005,0.336112 -0.0153,0 -0.0434,-0.047 -0.0623,-0.104372 z"
       id="path2352"
       inkscape:connector-curvature="0" />
    <path
       style="opacity:1;fill:#216778;fill-opacity:1;fill-rule:nonzero;stroke:none;stroke-width:0.66499996;stroke-linecap:butt;stroke-linejoin:miter;stroke-miterlimit:4;stroke-dasharray:none;stroke-dashoffset:0;stroke-opacity:1;paint-order:stroke fill markers"
       d="m 4.983869,102.88796 c -0.29605,-0.30774 -0.46863,-0.55006 -0.39176,-0.55006 0.0673,0 0.31975,0.18792 0.63525,0.4728 0.28796,0.26001 0.3584,0.3468 0.22241,0.27402 -0.089,-0.0476 -0.11887,-0.0374 -0.11887,0.0406 0,0.0394 -0.0112,0.0716 -0.0249,0.0716 -0.0137,0 -0.15865,-0.13904 -0.32213,-0.30898 z"
       id="path2354"
       inkscape:connector-curvature="0" />
    <path
       style="opacity:1;fill:#216778;fill-opacity:1;fill-rule:nonzero;stroke:none;stroke-width:0.66499996;stroke-linecap:butt;stroke-linejoin:miter;stroke-miterlimit:4;stroke-dasharray:none;stroke-dashoffset:0;stroke-opacity:1;paint-order:stroke fill markers"
       d="m 5.716289,103.33821 c -0.0308,-0.0499 0.004,-0.0604 0.0436,-0.0131 0.0226,0.0272 0.0248,0.0436 0.006,0.0436 -0.0168,0 -0.0389,-0.0138 -0.0493,-0.0305 z"
       id="path2356"
       inkscape:connector-curvature="0" />
    <path
       style="opacity:1;fill:#216778;fill-opacity:1;fill-rule:nonzero;stroke:none;stroke-width:0.66499996;stroke-linecap:butt;stroke-linejoin:miter;stroke-miterlimit:4;stroke-dasharray:none;stroke-dashoffset:0;stroke-opacity:1;paint-order:stroke fill markers"
       d="m 5.638719,103.30828 c -0.0515,-0.029 -0.0699,-0.11134 -0.025,-0.11134 0.0364,0 0.0965,0.0791 0.085,0.1118 -0.006,0.0179 -0.0277,0.0177 -0.06,-5.3e-4 z"
       id="path2358"
       inkscape:connector-curvature="0" />
    <path
       style="opacity:1;fill:#216778;fill-opacity:1;fill-rule:nonzero;stroke:none;stroke-width:0.66499996;stroke-linecap:butt;stroke-linejoin:miter;stroke-miterlimit:4;stroke-dasharray:none;stroke-dashoffset:0;stroke-opacity:1;paint-order:stroke fill markers"
       d="m 9.024759,99.823258 c 0,-0.0335 0.4839,-0.36123 0.50387,-0.34127 0.009,0.009 -0.012,0.0553 -0.0471,0.10268 -0.0771,0.10433 -0.06,0.16176 0.0647,0.21621 0.0897,0.0392 0.0795,0.0413 -0.21366,0.0435 -0.1693,10e-4 -0.30782,-0.008 -0.30782,-0.0211 z"
       id="path2360"
       inkscape:connector-curvature="0" />
    <path
       style="opacity:1;fill:#216778;fill-opacity:1;fill-rule:nonzero;stroke:none;stroke-width:0.66499996;stroke-linecap:butt;stroke-linejoin:miter;stroke-miterlimit:4;stroke-dasharray:none;stroke-dashoffset:0;stroke-opacity:1;paint-order:stroke fill markers"
       d="m 2.316249,92.802298 c -1.48477998,-0.50035 -1.95506998,-1.12804 -1.95547998,-2.60998 -9e-5,-0.30962 0.0328,-0.68676 0.0731,-0.83807 0.11727,-0.44043 0.39956,-0.91188 0.72746998,-1.21492 0.87314,-0.80695 2.06943,-0.90419 3.05196,-0.24808 0.53854,0.35963 0.91406,0.87275 0.83348,1.1389 -0.0962,0.31774 -0.4523,0.47701 -0.81899,0.36632 -0.10774,-0.0325 -0.34064,-0.16871 -0.51757,-0.30264 -0.42259,-0.31989 -0.82053,-0.44209 -1.15143,-0.35359 -0.33272,0.089 -0.56712,0.28352 -0.73624,0.61098 -0.12091,0.23412 -0.14716,0.36397 -0.16587,0.82024 -0.0295,0.71907 0.0664,0.95885 0.47714,1.19344 0.53227,0.30399 1.34692,0.32589 1.51746,0.0408 0.0668,-0.11173 0.10715,-0.0776 -0.51948,-0.44045 -0.30757,-0.17811 -0.44078,-0.29049 -0.50566,-0.42654 -0.0856,-0.17943 -0.0844,-0.18861 0.0398,-0.32084 0.0703,-0.0749 0.24963,-0.17142 0.39844,-0.21455 0.25871,-0.075 1.30472,-0.18365 1.78515,-0.18544 l 0.22786,-8e-4 -0.001,0.764 c -5.3e-4,0.4202 -0.0233,0.92082 -0.0505,1.1125 -0.044,0.31012 -0.0727,0.36939 -0.26132,0.53839 -0.13384,0.11995 -0.4263,0.27457 -0.79392,0.41975 -0.7497,0.29606 -1.12214,0.32998 -1.65431,0.15064 z m 0.85783,-4.70093 c 0,-0.1013 -0.40187,-0.13982 -0.5624,-0.0539 -0.18307,0.098 -0.0638,0.16721 0.25885,0.15026 0.227,-0.0119 0.30355,-0.0362 0.30355,-0.0964 z"
       id="path2442"
       inkscape:connector-curvature="0" />
    <path
       style="opacity:1;fill:#ffffff;fill-opacity:1;fill-rule:nonzero;stroke:none;stroke-width:2.51338577;stroke-linecap:butt;stroke-linejoin:miter;stroke-miterlimit:4;stroke-dasharray:none;stroke-dashoffset:0;stroke-opacity:1;paint-order:stroke fill markers"
       d="m 57.122684,97.15004 c -3.09115,-0.08774 -6.544835,-0.184737 -7.674857,-0.215542 -1.274786,-0.03475 -2.081938,-0.138517 -2.126657,-0.273404 -0.05109,-0.154094 2.067921,-0.25943 7.277343,-0.361758 7.264623,-0.142698 8.333445,-0.248438 8.712617,-0.861947 0.213091,-0.344791 -0.08235,-0.785298 -0.73133,-1.090431 -0.668846,-0.314473 -3.084435,-0.626075 -6.443129,-0.831138 -4.399902,-0.268635 -6.861262,-0.992224 -8.074158,-2.373638 -0.334033,-0.380443 -0.909403,-1.291544 -1.278598,-2.024668 -0.80023,-1.589042 -1.942559,-2.686439 -3.109128,-2.986828 -2.115796,-0.544817 -2.707913,-0.826984 -3.469753,-1.653484 -1.479199,-1.604741 -1.892561,-3.44624 -2.634226,-11.735323 l -0.434148,-4.85216 2.264202,-3.056639 c 4.500741,-6.075939 5.119428,-7.116454 4.698774,-7.902454 -0.234906,-0.438926 -1.300133,-0.97166 -1.942881,-0.97166 -0.670364,0 -1.520986,0.917119 -1.959925,2.113141 -0.717977,1.956346 -2.587749,3.865917 -4.916982,5.021644 -1.141428,0.566356 -1.341923,0.603921 -2.641714,0.494951 -1.975983,-0.165658 -3.360361,-0.866202 -3.888846,-1.96789 -0.220645,-0.459959 -0.758918,-2.801486 -1.20665,-5.249013 -0.444572,-2.430246 -0.895863,-4.582218 -1.002869,-4.782161 -0.222571,-0.415878 -0.439556,-0.449943 -0.989903,-0.155405 -0.588561,0.314988 -1.137842,0.03969 -1.325558,-0.664364 -0.161053,-0.604049 -0.203549,-0.626485 -1.097613,-0.579498 -0.511541,0.02688 -1.170548,-0.07547 -1.464461,-0.227463 -0.745998,-0.385771 -2.478362,-2.260021 -2.946963,-3.188329 -0.741341,-1.468614 -0.7386,-1.616104 0.03855,-2.074634 0.690846,-0.407608 0.70318,-0.437256 0.70318,-1.690188 0,-1.577624 0.205126,-1.976634 1.254882,-2.440991 1.514338,-0.669863 10.186134,-0.976018 16.39811,-0.57893 6.204254,0.396595 9.907085,1.101089 15.600292,2.968085 5.652499,1.853645 10.202182,3.899092 14.469727,6.505302 3.067628,1.873414 5.438665,3.028498 9.465722,4.61136 4.357681,1.712815 4.947513,2.103021 8.759432,5.79485 3.556591,3.444544 7.412672,6.84686 8.14281,7.184605 0.467372,0.216195 0.546486,0.570088 0.726859,3.251412 0.11629,1.728675 0.03867,1.758135 -1.974305,0.749391 -1.618565,-0.811098 -3.975015,-2.665523 -7.692423,-6.053611 -4.310946,-3.929045 -7.180408,-6.184448 -9.089733,-7.144541 -1.394732,-0.701335 -1.633476,-0.676728 -1.633476,0.168357 0,1.281579 -0.481868,1.402391 -6.704886,1.681018 -4.918856,0.220234 -6.173549,0.40549 -7.135138,1.053506 -0.753158,0.507553 -2.203377,2.481677 -5.093035,6.932946 -3.777924,5.819565 -4.075279,6.499947 -3.045744,6.969035 1.357992,0.618743 2.733941,0.05321 6.093747,-2.504628 3.649409,-2.778309 5.596464,-3.576995 8.720071,-3.576995 1.463182,0 1.506886,0.01453 2.223938,0.739509 0.455579,0.460614 0.972009,1.334485 1.369349,2.31713 1.971169,4.874826 3.580843,6.885338 6.82554,8.525215 1.54846,0.782594 3.132795,1.964159 3.525804,2.629473 0.197741,0.334745 0.368433,0.922827 0.379319,1.306847 0.03382,1.193089 -0.774941,1.47217 -3.028013,1.044884 -1.750542,-0.331983 -2.199063,-0.1465 -2.969518,1.228031 -0.815858,1.455532 -2.113123,2.622993 -4.159969,3.743716 -2.65832,1.455529 -3.706351,2.14934 -3.706351,2.453659 0,0.161568 0.211717,0.57625 0.470482,0.921512 0.66688,0.889799 1.264394,2.135019 1.475651,3.075263 l 0.181172,0.80633 -3.282182,-0.03096 c -1.805198,-0.01703 -5.811302,-0.102753 -8.902451,-0.190494 z m 8.13742,-9.166792 c 4.69424,-2.343318 5.428039,-2.925085 4.57864,-3.630025 -0.443942,-0.368439 -1.836433,-0.140136 -4.648355,0.762107 -3.661619,1.174881 -4.204778,1.254238 -9.490536,1.38659 -4.143968,0.103762 -4.922238,0.170428 -5.196832,0.445153 -0.429429,0.429633 -0.222967,1.030965 0.540662,1.574718 0.928282,0.660995 1.484454,0.722563 6.722725,0.744216 l 4.883578,0.02019 z m -3.601762,-3.711385 c 0,-0.504247 -4.723441,-2.084918 -5.425361,-1.815565 -0.927085,0.355756 0.15449,0.908408 3.131876,1.600297 2.448945,0.569089 2.293485,0.554498 2.293485,0.215268 z m -14.00138,-2.057976 c 0,-0.2325 -1.651251,-1.744729 -2.885858,-2.642892 -1.146354,-0.833962 -1.918739,-0.945044 -2.251238,-0.323764 -0.453233,0.846873 0.339845,2.158534 1.670552,2.762912 0.835239,0.379347 3.466544,0.534001 3.466544,0.203744 z m 11.726154,-2.210382 c 1.128686,-0.422295 1.31491,-0.720771 0.782121,-1.253561 -0.65719,-0.657191 -3.326624,-0.232804 -3.794502,0.603252 -0.590803,1.055706 1.006967,1.400631 3.012381,0.650309 z m 7.796896,-1.232151 c 0,-0.375209 -1.379435,-1.932803 -1.594185,-1.80008 -0.325485,0.20116 -0.189239,1.262975 0.213768,1.665982 0.443867,0.443868 1.380417,0.534847 1.380417,0.134098 z M 53.375836,77.454041 c 0,-0.108461 -0.177483,-0.197202 -0.394406,-0.197202 -0.216922,0 -0.394405,0.08874 -0.394405,0.197202 0,0.108462 0.177483,0.197203 0.394405,0.197203 0.216923,0 0.394406,-0.08874 0.394406,-0.197203 z m 8.243065,-1.814263 c 0.495783,-0.495783 0.189447,-2.129787 -0.399286,-2.129787 -0.2949,0 -0.575679,1.06864 -0.452832,1.723469 0.124816,0.66532 0.441913,0.816523 0.852118,0.406318 z M 46.107877,73.015397 c 0.533914,-0.91419 0.927448,-2.684025 1.075821,-4.838281 0.08951,-1.299683 0.228157,-2.039232 0.410696,-2.190725 0.151558,-0.125784 0.728509,-0.300298 1.282112,-0.387811 1.500885,-0.237258 2.272272,-0.873207 4.314176,-3.556693 2.345466,-3.082435 3.128385,-3.931821 4.405516,-4.779534 1.503346,-0.997863 3.116059,-1.466985 5.872703,-1.70831 1.336113,-0.116967 2.720508,-0.255739 3.076437,-0.308383 l 0.64714,-0.09571 -0.42947,-0.603135 c -1.321243,-1.855513 -6.744194,-4.672381 -13.417857,-6.969694 -4.79822,-1.651719 -7.503548,-2.281728 -10.322448,-2.403861 -2.215505,-0.09599 -2.454337,-0.06917 -3.744778,0.420467 -0.758089,0.287648 -1.778612,0.759555 -2.267828,1.048681 -0.489215,0.289127 -0.987607,0.541596 -1.107537,0.561043 -0.427289,0.06929 -1.844214,1.115807 -1.7397,1.284915 0.05852,0.09469 0.922292,0.155583 1.91949,0.135317 1.650149,-0.03353 1.95446,0.02192 3.386211,0.617109 1.481244,0.61576 1.677507,0.648494 3.360371,0.56047 0.982987,-0.05142 1.979726,-0.02228 2.214974,0.06474 0.235249,0.08702 0.645588,0.588159 0.911867,1.113633 0.712508,1.406068 1.555023,2.116693 3.353234,2.828313 1.742396,0.689532 2.883613,1.422611 2.883613,1.852335 0,0.371693 -1.936426,2.779674 -4.539939,5.645496 -5.466164,6.016892 -6.518904,8.0746 -5.129384,10.026001 0.597964,0.839762 2.565232,2.405262 2.933437,2.334352 0.167997,-0.03235 0.461012,-0.325183 0.651143,-0.650731 z M 34.091432,58.93311 c 0.831944,-0.527603 2.52389,-2.469568 2.520942,-2.893462 -6.86e-4,-0.09861 -0.256739,-0.324616 -0.569006,-0.502244 -0.534023,-0.303771 -0.787021,-0.808752 -1.086121,-2.167888 -0.134769,-0.612404 -1.035829,-1.101477 -2.364993,-1.283659 -0.854366,-0.117104 -0.909535,-0.09518 -1.120675,0.445252 -0.276522,0.707788 -0.128606,4.855482 0.203108,5.695325 0.304103,0.76994 0.777135,1.282177 1.184041,1.282177 0.178878,0 0.733595,-0.258976 1.232704,-0.575501 z M 29.750595,47.236332 c 1.993166,-1.654728 4.496595,-4.12525 4.496595,-4.437489 0,-0.322696 -1.751159,-0.259488 -7.04552,0.254307 -3.069006,0.297833 -4.142149,0.663749 -4.545984,1.550072 -0.542945,1.191635 0.744392,2.336302 3.703403,3.292972 1.703474,0.550745 2.003643,0.492343 3.391506,-0.659862 z"
       id="path5014"
       inkscape:connector-curvature="0"
       transform="matrix(0.26458333,0,0,0.26458333,0,87)" />
    <path
       style="opacity:1;fill:#ffffff;fill-opacity:1;fill-rule:nonzero;stroke:none;stroke-width:2.51338577;stroke-linecap:butt;stroke-linejoin:miter;stroke-miterlimit:4;stroke-dasharray:none;stroke-dashoffset:0;stroke-opacity:1;paint-order:stroke fill markers"
       d="m 56.333873,97.150432 c -8.787993,-0.248834 -8.935875,-0.256797 -9.011502,-0.485346 -0.04912,-0.148431 2.234101,-0.271038 7.499107,-0.402696 6.712206,-0.167847 7.630129,-0.228869 8.102949,-0.538674 0.607918,-0.398322 0.587553,-0.643727 -0.0953,-1.148484 -0.643042,-0.475325 -1.84733,-0.67833 -5.607838,-0.945296 C 50.104589,93.124707 48.592118,92.489243 46.8639,89.278291 45.772028,87.249645 44.889657,86.47374 43.156108,86.017884 42.431967,85.827462 41.615791,85.56139 41.342384,85.426612 40.011326,84.77046 38.983772,83.0593 38.488437,80.674013 38.203929,79.303959 37.532644,73.183139 37.288891,69.736473 l -0.134377,-1.900094 2.46233,-3.325773 c 3.6965,-4.992718 4.521621,-6.319456 4.450697,-7.15642 -0.05298,-0.625205 -0.153355,-0.733274 -1.00971,-1.087089 -1.355184,-0.559911 -1.767351,-0.283613 -2.894565,1.940386 -1.122942,2.215568 -2.668886,3.798795 -4.681159,4.794049 -1.351377,0.66838 -1.502421,0.699643 -2.838916,0.587594 -1.981326,-0.166106 -3.364867,-0.865471 -3.893892,-1.968314 -0.21908,-0.456711 -0.762917,-2.768291 -1.208527,-5.136844 -1.041944,-5.538264 -1.048241,-5.554235 -1.990906,-5.049735 -0.565257,0.302516 -1.100385,0.05745 -1.333264,-0.610591 -0.18566,-0.532585 -0.28268,-0.583549 -1.110889,-0.583549 -0.499105,0 -1.154989,-0.128001 -1.457521,-0.284446 -1.205794,-0.623541 -3.571609,-3.703755 -3.571609,-4.650119 0,-0.113301 0.310594,-0.389257 0.690209,-0.613236 0.675677,-0.398659 0.690209,-0.434083 0.690209,-1.682535 0,-1.580235 0.204839,-1.976507 1.263834,-2.444951 1.890352,-0.836192 14.028923,-1.003099 20.231241,-0.278181 4.838924,0.565566 8.80605,1.549409 14.3833,3.567045 4.181449,1.512688 7.94596,3.269277 11.39169,5.315568 3.764977,2.235879 5.606653,3.148515 9.549512,4.732219 4.648042,1.866952 5.37355,2.322036 8.449805,5.300242 3.527699,3.415264 6.960289,6.49282 8.230413,7.379143 1.138175,0.794243 1.151188,0.828971 1.321896,3.527405 0.12353,1.952644 0.0754,1.975676 -1.978162,0.946594 -1.620015,-0.811824 -3.823146,-2.549529 -8.182899,-6.45421 -4.582545,-4.104218 -6.791978,-5.82046 -8.822133,-6.852847 -1.030212,-0.52389 -1.4106,-0.424202 -1.4106,0.369674 0,1.178181 -0.380612,1.253541 -8.972715,1.776582 -3.827531,0.233 -4.43285,0.392594 -5.445065,1.435612 -1.469403,1.514121 -7.761509,11.213656 -7.978666,12.299437 -0.142661,0.713305 0.170872,1.034373 1.168131,1.196205 0.994167,0.161332 2.685865,-0.701538 5.452113,-2.780912 3.552462,-2.670365 5.526242,-3.464454 8.611217,-3.464454 1.463182,0 1.506886,0.01453 2.223938,0.739509 0.449158,0.454122 0.981094,1.348337 1.378377,2.31713 1.808073,4.409074 3.619709,6.745742 6.422107,8.283307 1.943464,1.066301 3.576684,2.227039 3.962868,2.816428 0.181099,0.276393 0.338403,0.850764 0.349563,1.276376 0.0306,1.167188 -0.398541,1.401323 -2.241805,1.223087 -2.856707,-0.276231 -3.091969,-0.197328 -3.845512,1.289719 -0.726547,1.433771 -2.209885,2.637566 -5.423006,4.401014 -1.854175,1.017622 -2.366431,1.372176 -2.366431,1.637909 0,0.09795 0.306349,0.632994 0.680771,1.188983 0.547848,0.813508 1.488457,3.033677 1.488457,3.513284 0,0.13686 -5.954926,0.08368 -13.015367,-0.116242 z m 9.241885,-9.336226 c 4.290139,-2.17304 5.178071,-2.917442 4.141608,-3.472141 -0.568288,-0.304137 -1.552798,-0.124606 -4.509379,0.822315 -3.266603,1.046215 -5.470222,1.357392 -9.662924,1.364519 -4.602009,0.0078 -5.676405,0.263354 -5.150583,1.224989 0.376535,0.688617 1.137735,1.158395 2.154927,1.329926 0.508767,0.08579 2.993958,0.166427 5.522651,0.179184 l 4.597619,0.0232 z M 61.454097,84.077565 C 61.038,83.67616 57.84183,82.595868 56.889245,82.534665 c -0.977385,-0.0628 -1.233821,0.337912 -0.423498,0.661764 1.020314,0.407775 3.900723,1.123709 4.593945,1.141836 0.593096,0.0155 0.645095,-0.01885 0.394405,-0.2607 z M 47.656962,82.205177 c 0,-0.24996 -1.873469,-1.910694 -3.054006,-2.707218 -1.197895,-0.808237 -1.812664,-0.855912 -2.076847,-0.161061 -0.380719,1.00137 0.674234,2.412956 2.131671,2.85229 0.7388,0.222706 2.999182,0.234755 2.999182,0.01599 z m 11.378324,-2.089525 c 1.295216,-0.384637 1.622142,-0.752893 1.140688,-1.284893 -0.776031,-0.857505 -3.842101,-0.16719 -3.842101,0.865035 0,0.774789 0.988756,0.928463 2.701413,0.419858 z m 8.048286,-1.284691 c 0.160549,-0.259771 -1.03341,-1.771325 -1.399149,-1.771325 -0.417036,0 -0.340859,0.854479 0.129485,1.452424 0.414492,0.526943 1.043453,0.684918 1.269664,0.318901 z m -13.904939,-1.37692 c 0,-0.108461 -0.0835,-0.197202 -0.185564,-0.197202 -0.10206,0 -0.240409,0.08874 -0.307442,0.197202 -0.06703,0.108462 0.01647,0.197203 0.185563,0.197203 0.169094,0 0.307443,-0.08874 0.307443,-0.197203 z m 8.472771,-1.959061 c 0.286756,-0.535809 0.253808,-1.250706 -0.07839,-1.700795 -0.3952,-0.535454 -0.724546,-0.15494 -0.73846,0.853189 -0.0166,1.202782 0.397049,1.632007 0.816848,0.847606 z M 46.058141,73.05129 c 0.524927,-0.849353 0.940309,-2.725483 1.110855,-5.017355 0.146467,-1.968251 0.408762,-2.412045 1.425589,-2.412045 0.711888,0 1.858295,-0.551128 2.584558,-1.24251 0.364508,-0.347004 1.336665,-1.518326 2.160348,-2.60294 3.750788,-4.938981 5.119563,-5.745946 10.694611,-6.305035 1.658585,-0.166329 3.05021,-0.337017 3.092498,-0.379306 0.195714,-0.195712 -2.015157,-2.088448 -3.426398,-2.933355 -3.235646,-1.937173 -10.014043,-4.681551 -14.662822,-5.936555 -3.84656,-1.038434 -7.22397,-1.372965 -8.972715,-0.888744 -0.433846,0.120131 -1.409998,0.531434 -2.169228,0.914008 -0.75923,0.382574 -1.784107,0.896586 -2.277506,1.14225 -0.974515,0.485213 -1.493097,0.97667 -1.213145,1.14969 0.09721,0.06008 0.922376,0.09289 1.833699,0.07292 1.443565,-0.03164 1.834726,0.03909 3.03737,0.549229 1.242835,0.527188 1.59695,0.58647 3.552988,0.594806 1.194913,0.0051 2.28326,0.07767 2.418549,0.161282 0.135289,0.08361 0.417951,0.489117 0.628139,0.901121 0.660885,1.295439 1.422903,2.017573 2.851417,2.702169 0.761154,0.364774 1.484033,0.663226 1.606398,0.663226 0.366414,0 1.859274,1.164923 1.859274,1.450847 0,0.401541 -1.656241,2.498534 -4.227608,5.35264 -4.329283,4.805319 -5.705236,6.726123 -5.940093,8.29226 -0.102206,0.68156 -0.03657,1.011986 0.330896,1.665803 0.454869,0.809329 2.622088,2.7615 3.065703,2.7615 0.127189,0 0.413668,-0.295157 0.636623,-0.655903 z M 33.520645,59.288813 c 0.626939,-0.319914 2.484857,-2.156229 2.81439,-2.781666 0.265748,-0.504376 0.252453,-0.556212 -0.222473,-0.867395 -0.599875,-0.393053 -1.076561,-1.2452 -1.076561,-1.924509 0,-0.664766 -0.775257,-1.230472 -2.089254,-1.524532 -1.492935,-0.334104 -1.558993,-0.234606 -1.558993,2.348196 0,2.58983 0.19391,3.800966 0.714523,4.462819 0.436827,0.555336 0.763215,0.621399 1.418368,0.287087 z M 29.722463,47.217059 c 2.276508,-1.882647 4.58866,-4.207676 4.433706,-4.458398 -0.105394,-0.170531 -0.646227,-0.201511 -1.950134,-0.111709 -3.472095,0.239129 -7.615002,0.698235 -8.15832,0.904084 -1.227992,0.465253 -1.732126,1.427825 -1.234644,2.357378 0.402523,0.752122 3.826774,2.318062 5.134569,2.348085 0.329395,0.0076 0.944119,-0.352457 1.774823,-1.03944 z"
       id="path5016"
       inkscape:connector-curvature="0"
       transform="matrix(0.26458333,0,0,0.26458333,0,87)" />
    <path
       style="opacity:1;fill:#ffffff;fill-opacity:1;fill-rule:nonzero;stroke:none;stroke-width:2.51338577;stroke-linecap:butt;stroke-linejoin:miter;stroke-miterlimit:4;stroke-dasharray:none;stroke-dashoffset:0;stroke-opacity:1;paint-order:stroke fill markers"
       d="M 24.322971,66.406848 C 22.48823,65.856348 18.21169,63.212146 16.681868,61.682324 15.891118,60.891573 15.72119,60.565008 15.341979,59.107354 15.10312,58.1892 14.562531,56.328721 14.140669,54.972953 l -0.767021,-2.465031 -0.09415,-7.393936 -0.09415,-7.393936 0.80193,-1.381577 c 1.051245,-1.811101 1.944358,-2.663393 2.790959,-2.663393 0.373398,0 0.782277,0.151023 0.969759,0.358187 0.301027,0.332632 0.296876,0.526091 -0.05819,2.711535 -0.651991,4.013014 -0.853458,6.676349 -0.742671,9.817877 0.165527,4.693761 0.777912,6.37812 3.710486,10.205642 3.732394,4.871426 5.306568,7.471317 5.306903,8.764828 2.56e-4,0.997696 -0.442644,1.233424 -1.641558,0.873699 z m -1.546394,-3.346465 c -0.139237,-0.413207 -3.427305,-3.794463 -4.344898,-4.468038 -1.64188,-1.205252 -1.461605,-0.504848 0.392108,1.523408 0.542221,0.593275 1.226906,1.20769 1.521522,1.365363 0.294617,0.157675 0.87039,0.621405 1.279498,1.030511 0.698935,0.698937 1.298659,0.984672 1.15177,0.548756 z M 15.118545,48.440416 c 0,-0.524715 -0.359615,-1.355564 -0.586726,-1.355564 -0.227852,0 -0.281557,2.024021 -0.05959,2.245983 0.185987,0.185987 0.646321,-0.448203 0.646321,-0.890419 z"
       id="path5018"
       inkscape:connector-curvature="0"
       transform="matrix(0.26458333,0,0,0.26458333,0,87)" />
    <path
       style="opacity:1;fill:#ffffff;fill-opacity:1;fill-rule:nonzero;stroke:none;stroke-width:2.51338577;stroke-linecap:butt;stroke-linejoin:miter;stroke-miterlimit:4;stroke-dasharray:none;stroke-dashoffset:0;stroke-opacity:1;paint-order:stroke fill markers"
       d="m 54.361848,97.12689 c -5.93568,-0.157097 -7.445014,-0.288215 -7.086143,-0.615583 0.047,-0.04288 3.413246,-0.168715 7.480548,-0.279645 4.286483,-0.11691 7.623059,-0.290712 7.937402,-0.413459 0.592562,-0.231391 0.722152,-0.81279 0.265616,-1.191681 C 62.434947,94.191373 61.349193,94.009359 56.983149,93.624694 49.484073,92.963998 48.785335,92.635658 46.49145,88.694585 45.606188,87.173639 44.481256,86.321531 42.887842,85.96494 41.21928,85.591533 40.16499,84.824083 39.436074,83.452299 38.495071,81.681379 37.955053,78.399986 37.375112,70.928957 l -0.238624,-3.074043 2.844506,-3.874378 c 4.656427,-6.342321 4.969705,-7.212407 2.81143,-7.808335 -1.135414,-0.313503 -1.646835,0.08548 -2.607984,2.03462 -1.059567,2.148722 -2.664094,3.787879 -4.686043,4.787179 -1.337421,0.66099 -1.530786,0.702966 -2.815021,0.61108 -1.949773,-0.139507 -3.400534,-0.871399 -3.933223,-1.984268 -0.21861,-0.456711 -0.71815,-2.516466 -1.110089,-4.577232 -0.95086,-4.999514 -1.205267,-5.889036 -1.636553,-5.722143 -1.165914,0.45117 -1.682637,0.286302 -1.84395,-0.588338 -0.06067,-0.328978 -0.279157,-0.414176 -1.317054,-0.513585 -1.17905,-0.11293 -1.300952,-0.174988 -2.324239,-1.183216 -1.173268,-1.156002 -2.143544,-2.542908 -2.342136,-3.347833 -0.104429,-0.423269 -0.0072,-0.599297 0.577647,-1.045349 0.675283,-0.515063 0.703222,-0.585845 0.703222,-1.78156 0,-1.486518 0.381359,-2.099882 1.517184,-2.440184 2.351271,-0.704458 14.62374,-0.794269 20.076493,-0.146921 8.721001,1.035352 18.60086,4.536903 26.670718,9.452452 2.441953,1.487453 4.807555,2.638072 8.33273,4.053004 3.01977,1.212074 5.167326,2.26611 6.080308,2.984263 0.258124,0.20304 1.901924,1.735361 3.652887,3.405159 3.810115,3.633494 5.78718,5.396129 7.167444,6.390069 1.131335,0.814685 1.144629,0.849752 1.345328,3.548849 0.117513,1.580377 0.108589,1.626921 -0.31189,1.626921 -0.641425,0 -2.625511,-1.067264 -4.212199,-2.26579 -0.768196,-0.580268 -3.215913,-2.67397 -5.439372,-4.65267 -4.438066,-3.949523 -7.27301,-6.161368 -8.94651,-6.980135 -1.219314,-0.596555 -1.505224,-0.539815 -1.505224,0.298713 0,1.140181 -0.796319,1.3036 -8.57831,1.760432 -4.228523,0.248231 -4.671672,0.371957 -5.921291,1.65321 -1.48618,1.523803 -7.607082,10.890571 -7.9129,12.109044 -0.180095,0.717552 0.336177,1.111082 1.457635,1.111082 1.161351,0 2.185359,-0.530982 4.864852,-2.522583 3.879354,-2.88343 5.271271,-3.490156 8.309862,-3.62221 1.927353,-0.08376 1.998782,-0.07146 2.620015,0.451276 0.719338,0.605282 0.937175,0.985354 2.104656,3.672075 0.980286,2.25593 2.331208,4.352135 3.497769,5.427433 0.464592,0.428247 1.730957,1.298579 2.814145,1.934072 3.170768,1.860249 3.690862,2.348852 3.945595,3.706696 0.106385,0.567085 0.04898,0.783006 -0.30131,1.133295 -0.408106,0.408107 -0.542681,0.424869 -2.364387,0.29448 -1.062407,-0.07604 -2.112313,-0.08091 -2.333125,-0.01083 -0.220813,0.07008 -0.64095,0.544884 -0.933639,1.055116 -1.001509,1.745878 -2.291036,2.82088 -5.47425,4.563551 -0.848347,0.464433 -1.774746,1.044238 -2.058664,1.288454 l -0.516215,0.444029 0.69954,1.062677 c 0.629832,0.956776 1.544364,3.050175 1.544364,3.535102 0,0.223624 -5.183616,0.204671 -14.987392,-0.0548 z m 11.421326,-9.437996 c 4.285451,-2.227468 4.95946,-2.798123 3.945709,-3.340666 -0.543386,-0.290811 -1.516415,-0.113279 -4.520896,0.824849 -3.379286,1.055157 -5.394016,1.348372 -9.36712,1.363243 -4.870482,0.01824 -5.996158,0.284185 -5.346182,1.263102 0.848978,1.27863 1.59006,1.415494 7.893394,1.457778 l 4.322034,0.02899 z m -4.215445,-3.51704 c -0.220957,-0.357517 -3.374865,-1.439411 -4.494346,-1.541708 -2.219276,-0.202797 -0.972341,0.601864 2.076984,1.340299 1.617037,0.391587 2.58473,0.472213 2.417362,0.201409 z M 47.502306,82.089545 c 0.04997,-0.257584 -2.718833,-2.575954 -3.547989,-2.970799 -0.928753,-0.442274 -1.42462,-0.225306 -1.42462,0.623351 0,1.152067 0.782756,1.9669 2.365154,2.462074 0.673265,0.210681 2.560446,0.12772 2.607455,-0.114626 z m 11.408709,-1.990182 c 0.589107,-0.171992 1.204217,-0.44394 1.366909,-0.604329 0.262561,-0.258842 0.243484,-0.334509 -0.169748,-0.673297 -1.175824,-0.963998 -4.476553,0.210765 -3.590819,1.278009 0.328559,0.395888 1.036745,0.395776 2.393658,-3.95e-4 z m 8.15517,-1.240268 c 0.155585,-0.251742 -1.019683,-1.799459 -1.366428,-1.799459 -0.471393,0 -0.350703,0.947805 0.189476,1.487982 0.492638,0.49264 0.984534,0.622817 1.176952,0.311477 z M 53.178633,77.454041 c 0,-0.108461 -0.08874,-0.197202 -0.197203,-0.197202 -0.108461,0 -0.197202,0.08874 -0.197202,0.197202 0,0.108462 0.08874,0.197203 0.197202,0.197203 0.108462,0 0.197203,-0.08874 0.197203,-0.197203 z m 8.608342,-2.317273 c 0.159606,-0.635923 -0.148553,-1.528176 -0.527787,-1.528176 -0.300572,0 -0.524594,1.434544 -0.310961,1.991262 0.155242,0.404555 0.695904,0.106046 0.838748,-0.463086 z M 46.240527,72.559171 c 0.454158,-1.061273 0.760784,-2.639903 0.932449,-4.800596 0.139953,-1.761563 0.343965,-2.025716 1.717139,-2.223342 1.334962,-0.192129 2.305749,-1.016325 4.485721,-3.808363 3.931731,-5.035642 4.991239,-5.661974 10.591461,-6.261185 1.604302,-0.171656 2.993495,-0.333902 3.087097,-0.360545 0.329297,-0.09373 -2.267273,-2.299475 -3.675527,-3.122303 -2.862701,-1.672642 -8.92343,-4.150948 -13.174888,-5.387371 -4.794745,-1.394423 -8.111098,-1.784776 -10.144424,-1.194057 -1.191109,0.346041 -4.247929,1.810697 -5.299189,2.539074 l -0.571438,0.395927 0.465052,0.172034 c 0.255778,0.09462 0.921155,0.115048 1.478615,0.0454 0.847662,-0.105909 1.316971,-0.01952 2.867222,0.527781 1.626278,0.574143 2.108645,0.65659 3.932368,0.672129 1.143289,0.0097 2.180557,0.08066 2.305041,0.157591 0.124482,0.07693 0.508574,0.633189 0.853536,1.23612 0.734408,1.283613 1.654456,2.005182 3.490353,2.737391 1.470641,0.586535 2.611505,1.359256 2.611505,1.768804 0,0.407453 -1.467961,2.256584 -4.547561,5.728377 -5.994939,6.758409 -6.625975,8.158105 -4.649817,10.313714 1.043667,1.138439 2.248058,2.017191 2.586635,1.887266 0.145107,-0.05568 0.441501,-0.516412 0.65865,-1.023844 z M 33.661005,59.183006 c 0.774788,-0.517399 1.771442,-1.484196 2.378457,-2.307205 l 0.56009,-0.759387 -0.669698,-0.631606 C 35.56152,55.137425 35.20358,54.591737 35.13443,54.272169 34.816636,52.803506 34.352031,52.419583 32.529446,52.11956 c -0.790198,-0.130077 -0.837858,-0.109697 -0.986012,0.421643 -0.275625,0.988495 -0.115736,4.784894 0.240844,5.718584 0.468628,1.227087 1.017424,1.497055 1.876727,0.923219 z M 29.44549,47.397438 c 0.634399,-0.478847 1.987689,-1.688022 3.007309,-2.687057 1.424245,-1.395489 1.78692,-1.853886 1.565014,-1.97807 -0.659453,-0.369049 -9.755357,0.580757 -10.550394,1.101686 -1.20178,0.787436 -1.087688,1.949157 0.277065,2.821155 0.916921,0.58586 3.5742,1.59784 4.221987,1.607873 0.17906,0.0028 0.844619,-0.386741 1.479019,-0.865587 z"
       id="path5020"
       inkscape:connector-curvature="0"
       transform="matrix(0.26458333,0,0,0.26458333,0,87)" />
    <path
       style="opacity:1;fill:#ffffff;fill-opacity:1;fill-rule:nonzero;stroke:none;stroke-width:2.51338577;stroke-linecap:butt;stroke-linejoin:miter;stroke-miterlimit:4;stroke-dasharray:none;stroke-dashoffset:0;stroke-opacity:1;paint-order:stroke fill markers"
       d="m 53.967443,97.13131 c -5.602674,-0.155055 -7.040866,-0.289166 -6.691738,-0.624008 0.047,-0.04508 3.368876,-0.176408 7.381947,-0.291846 4.368184,-0.125652 7.553711,-0.299679 7.937402,-0.433625 1.150907,-0.40178 0.656893,-1.247101 -0.953873,-1.632192 -0.280592,-0.06708 -2.463377,-0.302714 -4.850634,-0.523626 -7.161822,-0.662742 -8.16434,-1.105318 -10.019951,-4.423462 -0.972325,-1.738679 -2.131548,-2.730207 -3.696011,-3.161343 -3.062303,-0.843909 -4.082903,-2.206941 -4.779215,-6.382744 -0.355245,-2.130417 -0.843524,-6.926335 -0.997416,-9.79672 l -0.116301,-2.169228 1.996725,-2.662234 c 2.797333,-3.729687 4.667693,-6.555973 4.831191,-7.300383 0.181872,-0.82806 -0.334589,-1.366245 -1.455358,-1.516572 -1.061017,-0.142312 -1.37844,0.142857 -2.448554,2.199751 -1.515868,2.913689 -4.57094,5.236786 -6.886825,5.236786 -1.150439,0 -2.902696,-0.444788 -3.630231,-0.921488 -0.785753,-0.514844 -1.218397,-1.823894 -2.130385,-6.445905 -0.489216,-2.479376 -0.990342,-4.629484 -1.113613,-4.778017 -0.166459,-0.20057 -0.322906,-0.217198 -0.608001,-0.06462 -0.607224,0.324977 -1.193791,0.131758 -1.546825,-0.509533 -0.288508,-0.524076 -0.452856,-0.603086 -1.439777,-0.692165 -1.031478,-0.0931 -1.195571,-0.180841 -2.212876,-1.183216 -1.19595,-1.178398 -2.161535,-2.558134 -2.363808,-3.377677 -0.107899,-0.437169 -0.0157,-0.60615 0.577647,-1.058719 0.677087,-0.516439 0.706038,-0.589031 0.706038,-1.770337 0,-1.474691 0.428517,-2.158984 1.538893,-2.45744 3.078261,-0.827401 16.021264,-0.76977 21.792355,0.09704 7.806897,1.172578 17.021887,4.528653 24.293162,8.847504 3.06657,1.821422 5.555886,3.045918 9.268519,4.55919 5.133716,2.092508 5.17712,2.121982 10.197285,6.924503 2.137743,2.045063 4.68119,4.339485 5.652107,5.098714 1.944332,1.520416 1.910961,1.45572 2.110611,4.091953 0.130316,1.72075 0.129385,1.725514 -0.336352,1.723023 -1.314533,-0.007 -3.875712,-1.798536 -8.749537,-6.120164 -6.150463,-5.453622 -9.254823,-7.789285 -10.654806,-8.016471 -0.658005,-0.106779 -0.68434,-0.08747 -0.68434,0.501811 0,1.172672 -0.857462,1.358869 -8.317476,1.806122 -4.356355,0.261179 -5.190203,0.490476 -6.284592,1.728176 -1.55748,1.761431 -7.425144,10.828563 -7.768845,12.00497 -0.327707,1.121665 1.662213,1.444032 3.360799,0.544449 0.531346,-0.281404 1.897865,-1.204144 3.03671,-2.050534 3.732817,-2.774231 5.615235,-3.5511 8.60461,-3.5511 2.236236,0 2.444691,0.199519 4.405964,4.217091 1.955916,4.006599 2.847528,5.145045 5.170491,6.601897 4.411941,2.76696 4.765653,3.078069 4.998465,4.396427 0.103373,0.585376 0.0455,0.802859 -0.307611,1.155968 -0.413265,0.413265 -0.537603,0.427939 -2.495418,0.294494 -2.269941,-0.154719 -2.530396,-0.06029 -3.152626,1.142966 -0.749803,1.449959 -2.267558,2.68216 -5.714266,4.639166 -0.990858,0.562599 -1.904563,1.147019 -2.030453,1.298707 -0.180107,0.217015 -0.08611,0.500318 0.441022,1.329208 0.612089,0.962484 1.517568,3.066229 1.517568,3.525839 0,0.225225 -6.151086,0.205077 -15.381797,-0.05038 z m 11.95758,-9.544362 c 4.114081,-2.171667 4.839368,-2.805243 3.70501,-3.236525 -0.567721,-0.215846 -1.875501,0.03631 -4.520647,0.871657 -3.205634,1.012343 -3.979103,1.12317 -8.984177,1.287294 -3.027405,0.09927 -5.004962,0.245527 -5.275167,0.390138 -0.601837,0.322093 -0.539179,0.881223 0.165169,1.473894 0.878279,0.739022 1.572057,0.816333 7.863776,0.876308 l 3.82693,0.03648 z m -4.463884,-3.413852 c 0,-0.332533 -3.772459,-1.591789 -4.768653,-1.591789 -0.643274,0 -0.727584,0.2886 -0.171286,0.586323 0.426155,0.22807 4.050479,1.155411 4.594835,1.175662 0.189807,0.0071 0.345104,-0.06953 0.345104,-0.170196 z M 47.403796,82.062047 c 0.08524,-0.259264 -2.673027,-2.533135 -3.62128,-2.985327 -1.765548,-0.84193 -1.575374,1.80143 0.198169,2.754466 0.99847,0.536541 3.272193,0.689885 3.423111,0.230861 z m 12.212198,-2.233768 c 0.780029,-0.345043 0.856103,-0.433802 0.669942,-0.781646 -0.551875,-1.031188 -3.952063,-0.432376 -3.952063,0.696003 0,0.751639 1.677567,0.795414 3.282121,0.08564 z m 7.366816,-1.147074 c 0,-0.532212 -1.159476,-1.724189 -1.421905,-1.46176 -0.152071,0.152071 -0.140994,0.385655 0.03888,0.819905 0.375109,0.905594 1.383027,1.373364 1.383027,0.641855 z M 53.178633,77.454041 c 0,-0.108461 -0.08874,-0.197202 -0.197203,-0.197202 -0.108461,0 -0.197202,0.08874 -0.197202,0.197202 0,0.108462 0.08874,0.197203 0.197202,0.197203 0.108462,0 0.197203,-0.08874 0.197203,-0.197203 z m 8.676911,-2.655107 c 0,-0.560138 -0.471801,-1.189062 -0.758894,-1.011629 -0.241084,0.148998 -0.318214,1.735082 -0.09522,1.958079 0.217008,0.217008 0.854114,-0.488974 0.854114,-0.94645 z M 46.195465,72.595977 c 0.413524,-0.81857 0.762095,-2.609147 0.974979,-5.008371 0.06286,-0.708469 0.186893,-1.405586 0.275618,-1.549148 0.08873,-0.143563 0.58622,-0.340403 1.105541,-0.437422 1.605591,-0.299957 2.503851,-0.994073 4.374806,-3.380561 4.284258,-5.464769 5.448355,-6.176645 11.095904,-6.785439 1.574043,-0.169679 2.899796,-0.343987 2.946121,-0.387352 0.151629,-0.141944 -1.045826,-1.280659 -2.253453,-2.142911 -3.329437,-2.377235 -12.515575,-6.045994 -17.960506,-7.173066 -2.716542,-0.56231 -4.902366,-0.717309 -6.205776,-0.440057 -1.167684,0.248381 -5.110054,2.082818 -5.907104,2.748653 l -0.493006,0.411845 1.479019,0.01127 c 1.614477,0.0123 2.254177,0.138304 4.042652,0.796309 0.906422,0.333486 1.667604,0.442993 3.253842,0.468113 1.138844,0.01803 2.176358,0.09833 2.305587,0.178428 0.129231,0.0801 0.549515,0.663447 0.933969,1.296326 0.785162,1.292516 1.556476,1.874802 3.680517,2.778521 1.480817,0.630046 2.348445,1.256957 2.348445,1.696887 0,0.386573 -1.531804,2.317636 -4.446477,5.605436 -4.765395,5.375445 -5.988167,7.303776 -5.669924,8.941565 0.08125,0.418126 0.568098,1.064174 1.48164,1.966125 1.605493,1.585126 2.009995,1.647215 2.637606,0.404853 z M 34.377673,58.598216 c 0.887245,-0.719017 2.038745,-2.077921 2.038745,-2.405956 0,-0.111625 -0.262218,-0.465174 -0.582707,-0.785663 -0.338113,-0.338113 -0.681598,-0.975436 -0.818298,-1.518321 -0.207409,-0.823695 -0.332318,-0.976998 -1.044213,-1.281577 -1.201262,-0.513951 -2.016503,-0.622683 -2.280819,-0.304202 -0.24594,0.29634 -0.306188,3.978223 -0.08509,5.200303 0.382267,2.11295 1.144933,2.414293 2.772386,1.095416 z M 29.348719,47.453612 c 1.268693,-0.981265 4.701269,-4.329764 4.701269,-4.586118 0,-0.242316 -5.004754,-0.0072 -7.758701,0.364421 -2.351854,0.317401 -3.276994,0.718392 -3.568267,1.546624 -0.35826,1.018705 0.882267,2.056675 3.607913,3.018802 0.720485,0.254324 1.457301,0.464279 1.637369,0.466567 0.180068,0.0023 0.801256,-0.362345 1.380417,-0.810296 z"
       id="path5022"
       inkscape:connector-curvature="0"
       transform="matrix(0.26458333,0,0,0.26458333,0,87)" />
    <path
       style="opacity:1;fill:#ffffff;fill-opacity:1;fill-rule:nonzero;stroke:none;stroke-width:2.51338577;stroke-linecap:butt;stroke-linejoin:miter;stroke-miterlimit:4;stroke-dasharray:none;stroke-dashoffset:0;stroke-opacity:1;paint-order:stroke fill markers"
       d="m 53.574403,97.134816 c -5.250273,-0.152546 -6.64768,-0.291834 -6.298698,-0.627832 0.047,-0.04525 3.322513,-0.183219 7.278918,-0.306594 7.162611,-0.22336 7.965963,-0.285749 8.434836,-0.655054 0.324621,-0.255687 0.310949,-0.447652 -0.05817,-0.816777 -0.478244,-0.478242 -1.497252,-0.669148 -5.414195,-1.014317 -7.755942,-0.683473 -8.795405,-1.121215 -10.805173,-4.550325 -1.17439,-2.003768 -1.889726,-2.591182 -3.852609,-3.163651 -3.721318,-1.085308 -4.392489,-2.723968 -5.353098,-13.069534 -0.469548,-5.056928 -0.469755,-5.054857 0.65348,-6.539924 4.089952,-5.407461 6.073331,-8.541907 5.850099,-9.245244 -0.159197,-0.501593 -1.073608,-0.989396 -1.854668,-0.989396 -0.692891,0 -1.216962,0.607763 -2.173047,2.520065 -1.288597,2.577368 -4.54708,4.973631 -6.763241,4.973631 -1.234379,0 -2.978678,-0.470038 -3.731373,-1.005496 -0.750862,-0.534154 -1.067963,-1.498794 -1.959032,-5.959499 -0.437247,-2.18886 -0.887488,-4.272351 -1.000538,-4.629981 -0.200456,-0.634143 -0.22662,-0.647076 -1.057085,-0.52254 -0.784396,0.117627 -0.879774,0.08338 -1.209589,-0.434377 -0.493062,-0.774025 -0.639188,-0.851406 -1.614313,-0.854859 -0.765691,-0.0027 -0.972414,-0.117159 -2.024855,-1.121018 -1.243673,-1.186263 -2.286414,-2.609572 -2.48162,-3.387335 -0.09292,-0.37022 0.03497,-0.610936 0.599221,-1.127858 0.670111,-0.613902 0.717353,-0.734014 0.717353,-1.823856 0,-1.358809 0.418996,-2.055809 1.432802,-2.383467 2.63351,-0.851139 15.864979,-0.79401 22.034299,0.09514 7.390705,1.065178 17.033697,4.585106 24.210319,8.83736 2.819263,1.670453 5.89818,3.190802 9.018306,4.453179 2.923396,1.182781 4.576448,1.98363 5.736135,2.778968 0.443339,0.304051 2.351273,2.032571 4.239854,3.841155 3.014402,2.88672 5.486733,5.087498 7.351898,6.544395 0.489245,0.382154 0.585888,0.630182 0.729965,1.873424 0.09133,0.788125 0.169961,1.765733 0.174723,2.172464 0.0076,0.648048 -0.04889,0.739509 -0.456648,0.739509 -1.293459,0 -4.022969,-1.948207 -9.39379,-6.704886 -5.846934,-5.178349 -9.445656,-7.771009 -10.320505,-7.435298 -0.186647,0.07162 -0.329461,0.340846 -0.329461,0.621076 0,0.295715 -0.178446,0.611089 -0.443705,0.784178 -0.516582,0.337081 -2.779836,0.62832 -6.261181,0.805694 -5.791473,0.295076 -6.876584,0.576561 -8.112632,2.104472 -1.5728,1.944182 -5.951515,8.612917 -7.124227,10.850122 -0.581877,1.110063 -0.589194,1.156331 -0.243263,1.538581 0.90203,0.996732 2.887301,0.27997 6.416538,-2.316625 3.628758,-2.669819 5.43762,-3.402554 8.399676,-3.402554 2.209284,0 2.520448,0.277073 4.134121,3.681203 2.223407,4.690397 3.134871,5.775125 6.614101,7.871404 1.193013,0.718803 2.51,1.631194 2.92664,2.027534 0.938491,0.892765 1.205302,1.937349 0.694113,2.717519 l -0.340531,0.519718 -2.049201,-0.132483 c -1.32069,-0.08539 -2.188113,-0.05814 -2.439947,0.07664 -0.214911,0.115018 -0.688888,0.675188 -1.053278,1.244825 -0.930761,1.455012 -2.140082,2.449863 -5.062806,4.164925 -1.394631,0.818373 -2.582604,1.563858 -2.639943,1.656634 -0.05734,0.09278 0.205203,0.663415 0.583428,1.268085 0.599779,0.958876 1.466439,3.044639 1.466439,3.529237 0,0.201561 -7.579755,0.167758 -15.774837,-0.07035 z m 12.20965,-9.504606 c 3.340936,-1.761095 4.072195,-2.219532 4.253694,-2.666706 0.333696,-0.822155 -1.413648,-0.790871 -4.274972,0.07654 -4.023586,1.219753 -4.51564,1.295281 -9.670404,1.484402 -2.758528,0.101207 -5.049197,0.271704 -5.275167,0.392641 -0.601874,0.322112 -0.481947,0.905658 0.310312,1.509944 0.628551,0.479419 0.938656,0.555967 2.711534,0.669321 1.101,0.0704 3.53219,0.141909 5.402644,0.158918 l 3.400828,0.03092 z m -4.322914,-3.452633 c 0,-0.0982 -0.748287,-0.449314 -1.662859,-0.780246 -1.901003,-0.687862 -3.661609,-0.995279 -3.661609,-0.639346 0,0.286766 0.626128,0.530859 2.859437,1.11474 1.951437,0.510187 2.465031,0.573704 2.465031,0.304852 z M 47.139408,82.211079 c 0.316926,-0.12451 0.175808,-0.320768 -0.986012,-1.371293 -0.745728,-0.674293 -1.7405,-1.412873 -2.210601,-1.641293 -0.770415,-0.37434 -0.884753,-0.385287 -1.15907,-0.11097 -0.44033,0.44033 -0.180111,1.527058 0.528134,2.2056 0.843865,0.808473 2.8696,1.294303 3.827549,0.917956 z m 11.835926,-2.201328 c 0.98709,-0.304881 1.30259,-0.490143 1.30259,-0.764886 0,-0.870663 -2.019549,-0.994956 -3.319668,-0.204306 -0.695756,0.423114 -0.799932,0.855268 -0.279278,1.158522 0.4971,0.289534 0.8366,0.261544 2.296356,-0.18933 z M 66.98281,78.74272 c 0,-0.450858 -1.210518,-1.734662 -1.429324,-1.515856 -0.253581,0.253581 -0.01201,0.943868 0.495903,1.417064 0.491632,0.458024 0.933421,0.504783 0.933421,0.09879 z M 53.080032,77.454041 c 0.06703,-0.108461 0.0279,-0.197202 -0.08696,-0.197202 -0.114862,0 -0.208841,0.08874 -0.208841,0.197202 0,0.108462 0.03913,0.197203 0.08696,0.197203 0.04783,0 0.141809,-0.08874 0.208841,-0.197203 z m 8.571372,-2.156263 c 0.278915,-0.521159 0.256446,-0.855037 -0.08792,-1.30639 -0.25279,-0.33133 -0.318667,-0.343026 -0.489985,-0.08699 -0.317328,0.47424 -0.255117,1.774823 0.0849,1.774823 0.158876,0 0.380729,-0.171649 0.493006,-0.381441 z M 45.960762,73.066285 c 0.464024,-0.722631 0.880926,-2.479218 1.092839,-4.604616 0.241193,-2.419022 0.309896,-2.614655 0.970217,-2.762655 1.7443,-0.39096 2.117377,-0.565838 3.03386,-1.422109 0.543256,-0.507565 1.726485,-1.863974 2.629398,-3.014244 1.820264,-2.318934 3.479075,-3.933429 4.660827,-4.536314 1.201373,-0.612895 3.360049,-1.093391 6.127948,-1.364009 1.668245,-0.163105 2.497511,-0.320776 2.450222,-0.465868 -0.03932,-0.120626 -0.660151,-0.715062 -1.379637,-1.320968 -3.083948,-2.597117 -12.807018,-6.611327 -19.020748,-7.852796 -3.050054,-0.609384 -4.719693,-0.699885 -6.150338,-0.333371 -1.274755,0.326577 -4.862678,2.005841 -5.733755,2.683581 l -0.493006,0.383584 1.676222,0.0083 c 1.34133,0.0066 2.009219,0.125696 3.342967,0.595993 1.417362,0.499781 1.957785,0.587717 3.61191,0.587717 1.069842,0 2.114029,0.09037 2.320419,0.200829 0.206388,0.110457 0.595794,0.577155 0.865345,1.037107 0.768311,1.311025 1.6492,2.030369 3.564934,2.911166 1.791059,0.823475 2.662234,1.438106 2.662234,1.878256 0,0.394945 -1.557194,2.369669 -4.421935,5.60759 -4.479379,5.062889 -5.635394,6.774465 -5.635394,8.343663 0,1.048522 0.702899,2.117661 2.087111,3.174584 1.082439,0.826505 1.351269,0.867425 1.73836,0.264604 z M 34.579984,58.430984 c 0.424008,-0.362935 1.024635,-1.025987 1.334727,-1.473451 l 0.563804,-0.813569 -0.532918,-0.556246 c -0.293104,-0.305936 -0.685296,-0.982156 -0.871537,-1.502711 -0.186241,-0.520555 -0.57145,-1.120297 -0.856021,-1.33276 -0.667623,-0.498453 -2.308877,-0.705275 -2.551853,-0.321571 -0.247979,0.391604 -0.220956,4.373531 0.03662,5.396468 0.119049,0.472788 0.384636,1.040137 0.590193,1.260776 0.470771,0.505313 1.160681,0.307136 2.286983,-0.656936 z m -5.64657,-10.720792 c 1.010968,-0.643301 5.116574,-4.50915 5.116574,-4.817779 0,-0.481388 -8.865524,0.304326 -10.327814,0.91531 -1.497345,0.62563 -1.404071,1.86294 0.218022,2.89212 0.737169,0.467717 3.412857,1.508674 4.007206,1.558975 0.06011,0.0051 0.503817,-0.241795 0.986012,-0.548626 z"
       id="path5024"
       inkscape:connector-curvature="0"
       transform="matrix(0.26458333,0,0,0.26458333,0,87)" />
    <path
       style="opacity:1;fill:#ffffff;fill-opacity:1;fill-rule:nonzero;stroke:none;stroke-width:2.51338577;stroke-linecap:butt;stroke-linejoin:miter;stroke-miterlimit:4;stroke-dasharray:none;stroke-dashoffset:0;stroke-opacity:1;paint-order:stroke fill markers"
       d="m 53.284771,97.141253 c -5.014594,-0.148216 -6.355671,-0.290842 -6.007595,-0.638919 0.04781,-0.04781 3.147833,-0.183798 6.888941,-0.302197 3.741109,-0.118398 7.221988,-0.269469 7.735287,-0.335713 1.162925,-0.150085 1.529232,-0.514589 1.049667,-1.044501 C 62.477574,94.296715 61.289084,94.06101 57.418487,93.722688 50.023913,93.076339 48.591608,92.500998 46.915952,89.50394 45.793751,87.496787 44.856505,86.6759 42.969549,86.047487 39.287795,84.82135 38.675998,83.62823 37.806757,75.979053 37.585153,74.028967 37.35143,71.366733 37.287375,70.062977 l -0.116465,-2.370461 2.588058,-3.527399 c 2.53349,-3.453026 3.985526,-5.702267 4.240822,-6.569143 0.278346,-0.945142 -1.56815,-1.808553 -2.525825,-1.18106 -0.254312,0.166631 -0.840103,1.028986 -1.301756,1.916343 -1.059701,2.036879 -2.579943,3.584008 -4.525229,4.605267 -1.421229,0.746131 -1.498124,0.762959 -3.012246,0.659179 -2.114369,-0.144922 -3.261743,-0.716139 -3.852315,-1.917864 -0.239859,-0.488076 -0.797272,-2.662234 -1.238697,-4.831462 -0.441425,-2.169228 -0.893831,-4.283738 -1.005346,-4.698911 -0.201523,-0.75027 -0.207584,-0.754045 -0.99665,-0.620733 -0.734655,0.124119 -0.842447,0.08112 -1.44458,-0.576256 -0.548772,-0.599119 -0.780084,-0.710384 -1.476841,-0.710384 -0.735089,0 -0.95535,-0.123234 -1.998258,-1.117999 -1.23916,-1.181958 -2.286298,-2.609108 -2.479666,-3.37955 -0.08905,-0.35481 0.05086,-0.633958 0.599221,-1.195527 0.649176,-0.664817 0.715399,-0.834368 0.715399,-1.831641 0,-1.285399 0.436154,-1.991517 1.432802,-2.319652 1.074158,-0.353655 5.141802,-0.601053 9.906343,-0.602513 7.713995,-0.0024 12.226306,0.458405 17.353823,1.772063 6.797612,1.741533 12.99901,4.272633 18.934065,7.727937 3.348554,1.949482 5.186697,2.860427 8.849919,4.38584 5.533388,2.304173 5.6245,2.364393 10.278121,6.793443 1.951194,1.857036 4.491899,4.152497 5.646009,5.101024 1.15411,0.948526 2.148064,1.902075 2.208786,2.118998 0.06072,0.216923 0.171892,1.215261 0.247044,2.218529 l 0.136637,1.824123 -0.472,-0.002 c -1.354919,-0.0055 -3.771798,-1.702877 -9.148515,-6.42491 -6.014859,-5.282468 -9.062513,-7.545539 -10.278671,-7.632546 -0.469265,-0.03357 -0.5793,0.04472 -0.63586,0.452408 -0.162087,1.168321 -0.632994,1.287605 -6.641929,1.682434 -5.07293,0.333325 -6.154016,0.49723 -7.0879,1.074607 -0.765834,0.47348 -2.066277,2.203307 -4.895175,6.511478 -3.618469,5.510622 -4.146843,6.643442 -3.308046,7.092353 1.109051,0.593547 2.769784,-0.07932 5.992931,-2.428125 3.747797,-2.731081 5.587653,-3.480967 8.540719,-3.480967 2.194336,0 2.506871,0.275476 4.129822,3.640112 2.240424,4.644754 3.241439,5.826482 6.772708,7.995375 1.130092,0.6941 2.386621,1.577735 2.792285,1.963634 0.918589,0.873832 1.180939,1.925097 0.673638,2.699336 -0.339727,0.518489 -0.34852,0.520063 -2.258267,0.403715 -1.054466,-0.06424 -2.113471,-0.06548 -2.353346,-0.0027 -0.239873,0.06273 -0.786485,0.629965 -1.214691,1.260526 -1.061283,1.562809 -2.310363,2.592356 -5.162989,4.255562 -1.330697,0.775856 -2.448774,1.55563 -2.484615,1.732832 -0.03584,0.177203 0.201854,0.740417 0.528216,1.251588 0.626507,0.981281 1.410375,2.817121 1.410375,3.303134 0,0.246655 -0.750864,0.284049 -5.176566,0.257787 -2.847112,-0.0169 -7.746668,-0.106681 -10.887903,-0.199527 z m 12.323342,-9.453899 c 3.528111,-1.813122 4.673881,-2.624366 4.31585,-3.055764 -0.371433,-0.447551 -1.568734,-0.320549 -4.155666,0.440809 -3.924202,1.154928 -4.560823,1.251859 -9.574303,1.457755 -5.694211,0.233854 -6.131786,0.342718 -5.573149,1.386544 0.541499,1.011797 2.200384,1.25703 9.041081,1.336542 l 2.835047,0.03295 z m -4.146974,-3.440678 c 0,-0.186936 -2.078185,-1.039371 -3.315704,-1.360044 -1.3377,-0.346635 -2.008764,-0.388203 -2.008764,-0.124433 0,0.239725 1.310764,0.717212 3.253842,1.185313 1.721106,0.414628 2.070626,0.465126 2.070626,0.299164 z M 47.233801,82.084189 c 0.245318,-0.245318 -2.81929,-2.798797 -3.718092,-3.097973 -0.463759,-0.154368 -0.986085,0.21317 -0.985275,0.693291 0.0018,1.092982 1.209368,2.198467 2.760098,2.526867 0.673423,0.142611 1.745907,0.07518 1.943269,-0.122185 z m 11.37577,-1.977103 c 0.646442,-0.167747 1.305289,-0.43397 1.464108,-0.591608 0.253465,-0.251581 0.246527,-0.328796 -0.05675,-0.631718 -0.246461,-0.24617 -0.625337,-0.33659 -1.321594,-0.315406 -1.671697,0.05087 -3.02583,1.196572 -1.932391,1.634961 0.610351,0.244708 0.513277,0.249767 1.846632,-0.09623 z m 8.373239,-1.466337 c 0,-0.312063 -1.016644,-1.38391 -1.312635,-1.38391 -0.420622,0 -0.154408,0.779723 0.455433,1.333935 0.459342,0.417442 0.857202,0.440637 0.857202,0.04998 z m -5.331406,-3.342971 c 0.278915,-0.521159 0.256446,-0.855037 -0.08792,-1.30639 -0.25279,-0.33133 -0.318667,-0.343026 -0.489985,-0.08699 -0.223622,0.334199 -0.272554,1.443303 -0.0725,1.643354 0.226678,0.226678 0.438974,0.145085 0.650403,-0.249972 z M 46.048561,72.770481 c 0.475601,-0.946375 0.769525,-2.252761 1.016934,-4.519895 0.108538,-0.994597 0.250774,-1.947602 0.31608,-2.117786 0.107694,-0.280645 0.484091,-0.427517 2.084626,-0.813431 0.822727,-0.198372 1.999026,-1.323761 4.093084,-3.915937 3.835481,-4.747837 5.035472,-5.421544 10.761291,-6.041676 1.193075,-0.129215 2.291235,-0.301471 2.440355,-0.38279 0.35714,-0.194758 -1.623669,-1.853632 -3.572254,-2.991667 C 60.385815,50.35034 54.64836,47.99376 50.319196,46.701337 46.268041,45.491911 42.86318,44.986991 40.895554,45.303868 c -1.279235,0.206015 -6.451161,2.583972 -6.451161,2.966126 0,0.111507 0.633205,0.195276 1.476084,0.195276 1.112917,0 1.914196,0.145556 3.256777,0.591607 1.472312,0.489154 2.101829,0.591608 3.635052,0.591608 1.019899,0 1.998978,0.0555 2.175733,0.123322 0.176755,0.06783 0.672587,0.640508 1.101847,1.272624 0.957389,1.409817 1.630006,1.935833 3.647312,2.85236 1.595915,0.725075 2.455422,1.347823 2.455422,1.779052 0,0.381749 -1.524872,2.342325 -4.011042,5.157121 -5.976745,6.766763 -6.860128,8.424816 -5.519381,10.359513 0.583885,0.842545 2.333271,2.317514 2.748688,2.317514 0.14632,0 0.433275,-0.33278 0.637676,-0.73951 z M 34.377384,58.556312 c 0.524931,-0.415304 1.21243,-1.127979 1.527776,-1.583723 l 0.573355,-0.828625 -0.508186,-0.536205 c -0.279502,-0.294912 -0.732477,-1.046874 -1.006611,-1.671027 -0.531151,-1.209336 -0.895061,-1.467187 -2.363409,-1.674613 -0.529505,-0.0748 -0.812223,-0.02397 -0.933692,0.167859 -0.240216,0.379368 -0.216187,4.218636 0.03318,5.300897 0.406115,1.762571 1.1883,2.003701 2.67759,0.825437 z M 28.897257,47.715539 c 1.056505,-0.709558 4.692069,-4.082459 4.979726,-4.619952 0.219189,-0.409557 0.212799,-0.410277 -2.416546,-0.27249 -3.420797,0.179263 -6.978032,0.648363 -7.77137,1.024826 -1.509377,0.716247 -1.186023,2.126869 0.70777,3.087621 0.892334,0.452696 3.122037,1.280463 3.559498,1.321447 0.06503,0.0061 0.488439,-0.237562 0.940922,-0.541452 z"
       id="path5026"
       inkscape:connector-curvature="0"
       transform="matrix(0.26458333,0,0,0.26458333,0,87)" />
    <path
       style="opacity:1;fill:#ffffff;fill-opacity:1;fill-rule:nonzero;stroke:none;stroke-width:2.51338577;stroke-linecap:butt;stroke-linejoin:miter;stroke-miterlimit:4;stroke-dasharray:none;stroke-dashoffset:0;stroke-opacity:1;paint-order:stroke fill markers"
       d="m 52.988843,97.141243 c -4.735897,-0.147827 -6.055441,-0.295137 -5.712813,-0.637763 0.04718,-0.04718 2.96972,-0.181706 6.494536,-0.298949 7.308511,-0.243096 8.71805,-0.351896 9.208926,-0.710834 0.334203,-0.244376 0.333546,-0.273806 -0.01471,-0.658619 C 62.498555,94.319904 61.348195,94.093916 57.31988,93.726141 50.257046,93.081322 48.57986,92.451333 47.118568,89.894295 45.975694,87.894444 45.30265,87.153806 44.067131,86.536411 43.40382,86.204947 42.739218,85.93375 42.590244,85.93375 c -0.148973,0 -0.712448,-0.22377 -1.252165,-0.497264 -1.806236,-0.91529 -2.648917,-2.68859 -3.231026,-6.79923 -0.397168,-2.804655 -0.901825,-8.275842 -0.901825,-9.77705 v -1.223439 l 1.805086,-2.437157 c 2.788029,-3.764291 4.8998,-7.068927 4.8998,-7.667528 0,-0.668784 -0.545298,-1.163991 -1.441958,-1.309499 -0.858291,-0.139281 -1.33275,0.302765 -2.307767,2.150113 -0.932275,1.766364 -1.998811,2.968432 -3.510286,3.956359 -1.886751,1.233214 -2.375567,1.387087 -4.062521,1.278825 -2.016466,-0.129408 -3.221708,-0.741119 -3.802732,-1.930041 -0.238521,-0.488076 -0.846117,-2.884087 -1.350211,-5.324468 -0.504095,-2.440381 -1.008975,-4.549699 -1.121955,-4.687372 -0.134893,-0.164377 -0.437458,-0.206785 -0.881284,-0.123523 -0.599998,0.11256 -0.749339,0.04658 -1.330403,-0.587795 -0.553318,-0.604082 -0.782673,-0.714588 -1.48312,-0.714588 -0.747665,0 -0.954251,-0.120365 -2.115407,-1.232516 -1.222906,-1.171295 -2.420032,-2.88816 -2.424036,-3.476444 -0.001,-0.149546 0.308743,-0.615693 0.688358,-1.035881 0.605013,-0.669677 0.690209,-0.892372 0.690209,-1.804146 0,-1.224515 0.359506,-1.839882 1.305901,-2.235311 0.990304,-0.413775 4.727371,-0.660913 10.033244,-0.663513 7.572668,-0.0037 11.957044,0.426608 17.024725,1.670946 6.95499,1.707755 12.967455,4.209881 20.794715,8.653854 1.603025,0.910127 4.531483,2.341095 6.507683,3.179928 6.457582,2.741035 6.404209,2.70504 12.454268,8.399232 1.681732,1.582813 3.806723,3.490747 4.722202,4.239854 0.91548,0.74911 1.715489,1.539497 1.777799,1.75642 0.06231,0.216923 0.172095,1.215261 0.243965,2.218529 l 0.130672,1.824123 h -0.528668 c -1.293183,0 -3.811848,-1.772959 -9.093868,-6.401435 -7.020661,-6.151991 -10.013077,-8.255525 -10.727585,-7.541016 -0.119436,0.119435 -0.217156,0.366023 -0.217156,0.547973 0,0.889852 -0.880464,1.089101 -6.478771,1.466153 -6.076372,0.409246 -6.729901,0.567596 -8.035753,1.947067 -1.862822,1.967841 -7.769361,11.144617 -7.769361,12.070976 0,0.528487 0.516081,0.868389 1.318153,0.868164 0.859696,-1.97e-4 2.704867,-0.979911 5.18953,-2.755321 3.734953,-2.668799 5.460106,-3.357801 8.407408,-3.357801 2.221382,0 2.399811,0.172506 4.553223,4.402134 2.077513,4.080546 3.10881,5.251606 6.365217,7.227833 1.138844,0.691136 2.396046,1.578382 2.79378,1.971657 0.890215,0.880235 1.154928,1.935728 0.670784,2.674624 -0.317307,0.484272 -0.385967,0.497664 -2.437839,0.475534 -1.161237,-0.01252 -2.244699,0.03015 -2.407697,0.09483 -0.162996,0.06468 -0.605932,0.571256 -0.984305,1.125731 -1.002806,1.469539 -2.345152,2.589348 -4.933806,4.115871 -1.261556,0.743937 -2.400698,1.48149 -2.531426,1.639007 -0.191679,0.23096 -0.06533,0.624746 0.652745,2.034464 0.489736,0.961439 0.946978,2.036481 1.016095,2.38898 l 0.125666,0.640909 -5.497021,-0.03061 C 60.878159,97.32405 55.967455,97.234216 52.988843,97.141243 Z m 12.391617,-9.34921 c 3.566361,-1.857039 4.461787,-2.449155 4.461787,-2.950438 0,-0.627881 -1.745188,-0.464503 -4.831462,0.452308 -3.089397,0.917737 -4.904202,1.166011 -9.668748,1.322732 -3.424788,0.112654 -4.924239,0.331825 -4.924239,0.719767 0,0.434706 0.436081,0.975326 1.041158,1.290752 0.658483,0.343264 3.645695,0.558531 8.702985,0.627161 l 2.349049,0.03188 z m -4.194367,-3.731291 c -0.424317,-0.321198 -3.010833,-1.199589 -4.090126,-1.389024 -0.876554,-0.153849 -1.159774,0.173917 -0.414483,0.479676 0.665987,0.273222 4.177136,1.184077 4.582453,1.188768 0.225767,0.0026 0.207334,-0.06354 -0.07784,-0.27942 z M 47.262557,82.00646 c 0,-0.539134 -3.330717,-2.974798 -4.06797,-2.974798 -1.187852,0 -0.523084,1.991286 0.905214,2.711534 0.900715,0.454205 3.162756,0.642492 3.162756,0.263264 z M 58.9036,80.001931 c 1.784687,-0.444423 1.751146,-1.364675 -0.04974,-1.364675 -1.470803,0 -2.74723,0.715495 -2.353841,1.319431 0.294732,0.452474 0.734974,0.460762 2.40358,0.04524 z m 7.918541,-1.690814 c -0.306326,-0.57238 -0.97531,-1.106748 -1.206599,-0.963804 -0.267062,0.165053 0.241957,1.191748 0.726356,1.465063 0.452363,0.255239 0.730014,-0.03456 0.480243,-0.501259 z m -5.154223,-3.044196 c 0.165654,-0.309531 0.158896,-0.561394 -0.02712,-1.010475 -0.230789,-0.557176 -0.265715,-0.573643 -0.509521,-0.240221 -0.143959,0.196878 -0.261744,0.59243 -0.261744,0.879007 0,0.859645 0.430082,1.059871 0.798386,0.371689 z M 45.641694,73.343686 c 0.454674,-0.288515 1.027189,-2.173081 1.254031,-4.127926 0.367534,-3.167272 0.439336,-3.350483 1.408134,-3.592953 2.018506,-0.505192 2.623551,-0.988472 5.128296,-4.096234 3.892973,-4.830208 4.944486,-5.444702 10.478451,-6.123498 1.55855,-0.191172 2.776992,-0.431897 2.818651,-0.556876 0.09618,-0.288545 -2.042843,-1.967544 -3.789099,-2.974203 -2.737741,-1.578218 -8.969149,-4.102073 -13.042401,-5.282455 -4.876535,-1.413164 -8.402463,-1.663377 -10.686869,-0.758378 -1.870642,0.741079 -4.249992,1.953569 -4.555136,2.321246 -0.233168,0.28095 -0.108805,0.312861 1.21926,0.312861 1.084671,0 1.991251,0.157708 3.400843,0.591607 1.526746,0.469962 2.284548,0.591608 3.685465,0.591608 0.969942,0 1.934071,0.09127 2.142508,0.202821 0.208438,0.111552 0.68384,0.679401 1.05645,1.261886 0.767137,1.199228 1.726628,1.923283 3.863115,2.915201 0.81346,0.377669 1.652097,0.88226 1.86364,1.121312 0.374851,0.423602 0.375486,0.451605 0.02497,1.102478 -0.19781,0.36731 -1.524525,2.01504 -2.948255,3.661622 -5.481644,6.339669 -6.828455,8.255894 -6.828455,9.715437 0,0.863097 0.851527,2.129261 2.094203,3.113937 1.052836,0.834251 1.047453,0.831962 1.4122,0.600507 z M 34.02733,58.756994 c 0.77468,-0.520281 2.389088,-2.271625 2.389088,-2.591734 0,-0.07984 -0.187622,-0.314217 -0.416939,-0.520835 -0.229316,-0.206617 -0.675327,-0.921587 -0.991134,-1.588821 -0.483933,-1.022448 -0.698016,-1.262696 -1.361875,-1.528319 -1.054182,-0.421801 -1.706595,-0.399695 -1.955974,0.06627 -0.24011,0.448648 -0.257563,3.690871 -0.0263,4.885684 0.201937,1.043302 0.708903,1.832166 1.177448,1.832166 0.198101,0 0.73166,-0.249487 1.185686,-0.554415 z M 28.98558,47.613195 c 1.444564,-1.027048 4.867205,-4.271525 4.867205,-4.613846 0,-0.270993 -0.295935,-0.29194 -2.415731,-0.170989 -2.89286,0.165061 -6.623626,0.629481 -7.386407,0.91949 -1.834726,0.697562 -1.593779,2.164808 0.53362,3.24948 0.643043,0.327861 3.113757,1.257271 3.367031,1.266578 0.06225,0.0023 0.527681,-0.290533 1.034282,-0.650713 z"
       id="path5028"
       inkscape:connector-curvature="0"
       transform="matrix(0.26458333,0,0,0.26458333,0,87)" />
    <path
       style="opacity:1;fill:#ffffff;fill-opacity:1;fill-rule:nonzero;stroke:none;stroke-width:2.51338577;stroke-linecap:butt;stroke-linejoin:miter;stroke-miterlimit:4;stroke-dasharray:none;stroke-dashoffset:0;stroke-opacity:1;paint-order:stroke fill markers"
       d="m 52.796794,97.1464 c -4.593924,-0.144426 -5.870341,-0.293345 -5.519701,-0.643983 0.04776,-0.04776 2.837194,-0.182245 6.198732,-0.298848 3.36154,-0.116602 6.798169,-0.267815 7.636954,-0.336028 1.590397,-0.129337 2.294863,-0.425149 2.030636,-0.85268 -0.328331,-0.53125 -1.67803,-0.837414 -5.303395,-1.203012 C 49.810996,93.002163 48.678882,92.55431 46.841039,89.460763 45.850374,87.793226 44.670655,86.688852 43.405542,86.244675 40.388146,85.18528 39.507004,84.386416 38.787893,82.05821 38.187392,80.114012 37.205228,71.92328 37.205228,68.859606 v -1.234594 l 2.486833,-3.413464 c 2.760687,-3.789362 4.218053,-6.143713 4.218053,-6.814194 0,-0.472471 -0.568097,-0.938897 -1.388952,-1.140376 -0.714828,-0.175454 -1.390379,0.42768 -2.261696,2.019255 -0.400759,0.732039 -1.035517,1.707542 -1.41057,2.167783 -0.773519,0.949211 -2.747906,2.417017 -3.886279,2.889151 -1.590827,0.659788 -4.602465,0.206846 -5.660659,-0.851349 -0.666939,-0.666937 -0.959594,-1.632013 -1.974408,-6.510914 -0.438555,-2.108431 -0.878935,-3.98591 -0.978622,-4.172177 -0.13993,-0.261462 -0.354567,-0.315419 -0.941533,-0.23669 -0.639309,0.08575 -0.820792,0.02505 -1.140557,-0.381464 -0.503124,-0.639618 -1.096832,-0.94048 -1.855903,-0.94048 -0.493817,0 -0.886243,-0.253436 -1.908465,-1.232516 -1.235306,-1.183172 -2.42015,-2.889516 -2.424036,-3.490957 -0.001,-0.157528 0.27512,-0.572177 0.613641,-0.921441 0.51405,-0.530366 0.637268,-0.845419 0.747619,-1.911576 0.212212,-2.050282 0.738951,-2.388441 4.197214,-2.694553 2.894521,-0.256212 11.324738,-0.254874 14.850137,0.0024 9.28734,0.677651 19.348512,3.926895 28.495765,9.202675 2.809209,1.620242 5.960379,3.182149 8.894646,4.408716 3.373751,1.410277 5.615088,2.59129 6.803762,3.58506 0.55375,0.462954 2.491541,2.236331 4.306201,3.940835 1.814659,1.704506 4.129089,3.789923 5.143178,4.63426 1.014088,0.844338 1.889486,1.642026 1.94533,1.772643 0.05584,0.130617 0.16293,1.128955 0.237974,2.218529 l 0.136442,1.981043 H 93.92259 c -1.277289,0 -3.762985,-1.742519 -8.99435,-6.305208 -7.557118,-6.591163 -10.574826,-8.614241 -10.965159,-7.351067 -0.375818,1.216209 -0.868543,1.352476 -6.243631,1.726715 -5.195527,0.361739 -6.633481,0.583816 -7.49201,1.157072 -1.571245,1.049147 -8.626427,11.713116 -8.626427,13.038921 0,0.448858 0.848681,0.761263 1.656408,0.609732 1.007542,-0.189016 2.489302,-1.015971 5.061929,-2.825015 3.674392,-2.583787 5.245761,-3.20639 8.092515,-3.20639 2.318735,0 2.497805,0.163532 4.520499,4.128214 2.157988,4.229876 2.921773,5.109278 6.500009,7.483952 2.923677,1.940281 3.749019,2.766921 3.749019,3.754915 0,0.285211 -0.138144,0.715794 -0.306985,0.956849 -0.286707,0.409331 -0.455513,0.438284 -2.555226,0.438284 H 76.07094 l -0.550714,0.73951 c -1.234969,1.658341 -2.977579,3.152771 -5.382176,4.615655 -1.355767,0.824808 -2.494519,1.647531 -2.53056,1.828271 -0.03604,0.180742 0.294783,1.056603 0.735163,1.946361 0.440381,0.889758 0.858111,1.90615 0.92829,2.258649 l 0.127598,0.640909 -5.694223,-0.0306 C 60.572495,97.324075 55.664109,97.236543 52.796794,97.1464 Z m 11.084998,-8.570694 c 2.631323,-1.312133 5.693494,-3.116183 5.87959,-3.463908 0.140163,-0.261895 0.08811,-0.396278 -0.216677,-0.559397 -0.506788,-0.271224 -1.675799,-0.06392 -4.941927,0.876384 -2.651981,0.763492 -4.443718,0.987971 -10.109554,1.266577 -3.857084,0.189665 -4.371043,0.348003 -3.848024,1.185487 0.525876,0.842063 1.4444,1.068717 4.899863,1.209086 6.842265,0.277947 6.734827,0.284573 8.336729,-0.514229 z m -2.811585,-4.611834 c -0.411728,-0.254462 -3.134889,-1.117923 -4.01753,-1.273881 -0.578798,-0.102269 -0.739863,-0.07326 -0.674922,0.12156 0.09195,0.275837 1.701152,0.828116 3.604365,1.23702 1.203561,0.258582 1.594314,0.228165 1.088087,-0.0847 z m -13.80765,-1.958925 c 0,-0.487212 -3.407372,-2.973285 -4.075141,-2.973285 -1.374868,0 -0.241176,2.341245 1.412907,2.917865 0.74312,0.259055 2.662234,0.299007 2.662234,0.05542 z m 11.895395,-2.104332 c 1.09433,-0.372877 1.310194,-0.63655 0.816605,-0.99747 -0.736352,-0.538434 -2.406409,-0.295345 -3.294883,0.479594 -0.870982,0.759682 0.765183,1.101583 2.478278,0.517876 z m 7.824858,-1.242502 c 0,-0.09699 -0.283982,-0.474142 -0.63107,-0.838111 -0.534369,-0.560363 -0.642632,-0.607398 -0.706535,-0.306964 -0.106353,0.500011 0.482775,1.321421 0.947745,1.321421 0.214423,0 0.38986,-0.07936 0.38986,-0.176346 z m -5.31956,-3.484812 c 0.195434,-0.514028 -0.0337,-1.268905 -0.385152,-1.268905 -0.217181,0 -0.408566,0.50023 -0.408566,1.067875 0,0.837383 0.503312,0.964861 0.793718,0.20103 z M 46.380486,71.85287 c 0.163467,-0.550455 0.426456,-1.986748 0.58442,-3.191762 0.157965,-1.205012 0.341894,-2.333446 0.408733,-2.507627 0.06692,-0.174379 0.623131,-0.460141 1.237738,-0.635904 1.605373,-0.459095 2.393489,-1.079563 4.224674,-3.325998 3.406334,-4.178778 5.110724,-5.615436 7.376575,-6.217835 0.452162,-0.120212 1.87202,-0.3522 3.155241,-0.515528 3.273867,-0.416699 3.451166,-0.460555 3.257918,-0.805871 -0.390014,-0.696912 -3.315385,-2.611829 -5.854855,-3.832524 -8.80694,-4.233397 -17.370389,-6.34962 -20.978618,-5.184292 -1.392723,0.4498 -5.017059,2.282508 -5.108572,2.583238 -0.05507,0.180975 0.294318,0.246503 1.314327,0.246503 0.958135,0 1.866009,0.156462 2.92517,0.50412 1.099162,0.360787 2.152594,0.536253 3.705061,0.617134 1.193075,0.06216 2.320381,0.191173 2.505127,0.286701 0.184743,0.09553 0.645826,0.640616 1.024628,1.211306 0.825658,1.243906 1.312131,1.621637 3.485971,2.706755 1.734958,0.866039 2.548596,1.471275 2.548596,1.895808 0,0.37238 -1.70589,2.558961 -4.407545,5.649518 -4.558528,5.214725 -5.843541,7.233278 -5.561565,8.736346 0.145581,0.776007 1.528631,2.428249 2.565883,3.065296 0.54028,0.331823 0.60977,0.334554 0.938676,0.0369 0.195363,-0.1768 0.48895,-0.771827 0.652417,-1.322283 z M 33.616075,59.031077 c 0.489745,-0.257818 1.963262,-1.698312 2.595092,-2.536934 0.230947,-0.306534 0.199738,-0.421671 -0.240548,-0.887412 -0.27826,-0.294347 -0.71331,-0.970819 -0.966776,-1.503271 -0.550356,-1.156122 -1.157624,-1.638559 -2.28054,-1.811751 -0.775062,-0.119541 -0.847856,-0.09129 -1.035313,0.401758 -0.456731,1.201294 -0.13541,5.200292 0.495175,6.162686 0.344529,0.525819 0.686951,0.56762 1.43291,0.174924 z M 29.248287,47.395214 c 1.543306,-1.167865 4.604498,-4.121589 4.604498,-4.442848 0,-0.203458 -0.46022,-0.229205 -2.218528,-0.124114 -2.771534,0.165648 -6.947455,0.677733 -7.623847,0.934897 -1.729201,0.65744 -1.518102,2.157551 0.444595,3.159389 0.716719,0.365842 3.155505,1.290145 3.511466,1.330851 0.0706,0.0081 0.647416,-0.378106 1.281816,-0.858175 z"
       id="path5030"
       inkscape:connector-curvature="0"
       transform="matrix(0.26458333,0,0,0.26458333,0,87)" />
    <path
       style="opacity:1;fill:#ffffff;fill-opacity:1;fill-rule:nonzero;stroke:none;stroke-width:2.51338577;stroke-linecap:butt;stroke-linejoin:miter;stroke-miterlimit:4;stroke-dasharray:none;stroke-dashoffset:0;stroke-opacity:1;paint-order:stroke fill markers"
       d="m 89.185715,94.906465 c -0.106742,-0.425294 -0.234458,-0.493006 -0.929888,-0.493006 -0.65638,0 -0.783762,-0.05835 -0.685638,-0.314054 0.188241,-0.490547 2.123495,-3.235592 2.28109,-3.235592 0.3018,0 0.598597,1.056948 0.597894,2.129206 -5.12e-4,0.773027 -0.122908,1.325011 -0.391506,1.765544 -0.468731,0.768775 -0.70602,0.809024 -0.871952,0.147902 z"
       id="path5032"
       inkscape:connector-curvature="0"
       transform="matrix(0.26458333,0,0,0.26458333,0,87)" />
    <path
       style="opacity:1;fill:#ffffff;fill-opacity:1;fill-rule:nonzero;stroke:none;stroke-width:2.51338577;stroke-linecap:butt;stroke-linejoin:miter;stroke-miterlimit:4;stroke-dasharray:none;stroke-dashoffset:0;stroke-opacity:1;paint-order:stroke fill markers"
       d="m 52.505606,97.150949 c -4.363843,-0.14142 -5.583196,-0.293849 -5.224003,-0.653042 0.05024,-0.05024 2.706561,-0.183438 5.902928,-0.295985 9.281456,-0.326814 10.113725,-0.43338 9.79857,-1.254662 -0.180693,-0.470874 -1.26355,-0.702676 -5.26881,-1.127864 -8.217406,-0.872339 -8.900274,-1.155832 -11.037019,-4.581991 -1.017825,-1.632028 -2.109856,-2.594596 -3.435814,-3.028488 -3.489385,-1.141829 -4.405406,-2.478621 -5.13207,-7.489486 -0.422029,-2.910183 -0.90416,-8.123013 -0.90416,-9.775828 v -1.347801 l 2.218529,-3.046154 c 2.986669,-4.10085 4.518462,-6.585053 4.445471,-7.209496 -0.04044,-0.345996 -0.277326,-0.601101 -0.791498,-0.852384 -1.101311,-0.538226 -1.617327,-0.200444 -2.808702,1.838567 -1.22633,2.098838 -2.951794,3.832219 -4.68688,4.708386 -1.242262,0.627305 -1.412187,0.661348 -2.877643,0.576513 C 30.5829,63.488417 29.383548,62.897831 28.778203,61.677839 28.536026,61.189763 28.066439,59.503681 27.734676,57.930991 27.402913,56.358301 26.950291,54.29507 26.72885,53.346032 L 26.326228,51.62051 h -0.797779 c -0.634759,0 -0.953892,-0.141038 -1.561758,-0.690209 -0.573684,-0.518289 -0.940008,-0.690208 -1.470688,-0.690208 -0.598167,0 -0.90435,-0.1893 -1.993533,-1.232516 -1.2586,-1.205482 -2.420347,-2.892043 -2.424036,-3.519082 -0.001,-0.172997 0.187879,-0.483591 0.419771,-0.690209 0.567744,-0.505863 0.958796,-1.483124 0.958796,-2.396082 0,-1.626755 0.878457,-2.116148 4.375359,-2.437532 2.818455,-0.259031 14.496923,-0.117604 17.119716,0.207322 8.49302,1.052159 18.030442,4.379647 26.425139,9.219401 2.755012,1.588335 5.065109,2.732559 8.282506,4.102445 3.264787,1.390064 5.369216,2.441164 6.409082,3.201148 0.433846,0.317075 2.337586,2.020152 4.230533,3.784615 1.892947,1.764464 4.377699,4.01276 5.521671,4.996215 1.143971,0.983455 2.145415,1.896893 2.225428,2.029865 0.08002,0.132969 0.204282,1.139 0.276147,2.235624 l 0.130666,1.993861 h -0.529205 c -1.094068,0 -3.778844,-1.757621 -7.122379,-4.662751 -6.626792,-5.757888 -8.832246,-7.54615 -10.675547,-8.656129 -1.440216,-0.867253 -1.887887,-0.87551 -2.25493,-0.04159 -0.401167,0.911444 -1.074496,1.070904 -6.044348,1.431444 -4.74523,0.344244 -6.338478,0.568187 -7.31328,1.027941 -0.373982,0.176384 -1.183594,0.989044 -1.899547,1.906698 -1.647002,2.110998 -5.449014,7.919831 -6.376013,9.741476 l -0.735587,1.445498 0.465551,0.382725 c 0.256056,0.2105 0.655391,0.382656 0.887412,0.382571 0.728073,-1.97e-4 2.841998,-1.125663 5.325243,-2.835011 3.909966,-2.691436 5.383091,-3.278111 8.231247,-3.278111 1.569125,0 1.778647,0.04607 2.333693,0.513107 0.363466,0.305837 1.124561,1.52545 1.88413,3.019222 2.401296,4.722391 3.211386,5.662021 7.155584,8.299822 3.212299,2.148321 3.964485,3.242041 3.089135,4.491779 -0.286707,0.409331 -0.455513,0.438284 -2.555226,0.438284 H 76.07094 l -0.550714,0.73951 c -1.139992,1.530804 -2.983136,3.155189 -4.938616,4.352463 -1.11181,0.680723 -2.262735,1.445202 -2.55761,1.698844 l -0.536139,0.461166 0.828732,1.747779 c 0.455802,0.961277 0.885706,2.036185 0.95534,2.388684 l 0.126608,0.640909 -5.990027,-0.03067 c -3.294515,-0.01686 -8.200823,-0.102313 -10.902908,-0.189881 z m 13.169412,-9.540978 c 1.612633,-0.867691 3.254344,-1.858789 3.648247,-2.20244 l 0.716184,-0.624821 -0.473055,-0.1792 c -0.617232,-0.233815 -1.859064,-0.02679 -4.917975,0.81986 -2.953981,0.81761 -4.542404,1.032771 -8.906153,1.206392 -3.397744,0.135187 -4.833432,0.311691 -5.155566,0.633825 -0.296962,0.296962 0.711991,1.3577 1.454157,1.528795 0.75809,0.174767 6.851735,0.455086 9.124478,0.419744 l 1.577621,-0.02453 z M 61.22339,84.052647 c -0.17273,-0.17273 -3.346931,-1.209049 -4.150007,-1.354904 -0.882838,-0.160339 -0.982471,0.129481 -0.161424,0.469571 1.401556,0.580543 4.679817,1.253719 4.311431,0.885333 z M 47.152424,81.891098 c -0.01737,-0.297101 -2.446292,-2.202348 -3.300092,-2.588601 -0.664456,-0.300595 -0.780987,-0.305393 -1.043418,-0.04296 -0.23717,0.237169 -0.252234,0.409026 -0.07639,0.871525 0.307855,0.809721 0.758287,1.265287 1.6706,1.689639 0.833452,0.387672 2.770758,0.437279 2.749303,0.0704 z m 11.885989,-1.973575 c 1.095888,-0.325445 1.441312,-0.763984 0.850726,-1.080057 -0.790725,-0.423182 -2.861527,-0.05527 -3.252863,0.577922 -0.484882,0.784556 0.651334,1.022067 2.402137,0.502135 z m 7.944397,-1.236318 c 0,-0.180032 -1.110091,-1.424366 -1.2707,-1.424366 -0.265839,0 -0.07372,0.753083 0.29237,1.14603 0.391151,0.419852 0.97833,0.586905 0.97833,0.278336 z m -5.409364,-3.479396 c 0.152439,-0.607366 0.04986,-1.144968 -0.236675,-1.240361 -0.276257,-0.09197 -0.525753,0.828336 -0.363316,1.340136 0.165435,0.521239 0.456266,0.472877 0.599991,-0.09978 z M 46.140782,72.450556 c 0.197331,-0.419996 0.532846,-1.972966 0.745586,-3.451045 0.21274,-1.478076 0.424151,-2.793525 0.469801,-2.923219 0.04565,-0.129693 0.519966,-0.36557 1.054032,-0.524171 0.534066,-0.1586 1.226442,-0.422904 1.538614,-0.587344 0.687467,-0.362129 2.294127,-2.013315 4.157723,-4.27295 1.91152,-2.317742 3.210055,-3.476701 4.648326,-4.148686 1.145305,-0.535106 1.992207,-0.715971 6.327896,-1.351394 0.744583,-0.109124 1.410142,-0.25609 1.479019,-0.326591 0.207622,-0.212523 -1.589532,-1.704502 -3.261606,-2.707753 -2.901084,-1.740662 -8.998375,-4.258776 -13.204709,-5.4534 -3.223441,-0.915477 -4.695711,-1.194831 -6.97416,-1.3233 -1.801177,-0.101558 -2.234086,-0.06112 -3.326747,0.310741 -1.766718,0.60126 -5.192615,2.352923 -5.050757,2.582453 0.06505,0.105255 0.674216,0.191373 1.353701,0.191373 0.759437,0 1.87564,0.194023 2.897098,0.503586 1.124938,0.340923 2.361677,0.542365 3.828803,0.623641 2.41526,0.133801 2.116819,-0.02939 3.992391,2.183088 0.620013,0.731385 1.305579,1.225707 2.662234,1.919581 1.907475,0.975595 2.714593,1.567847 2.714593,1.991928 0,0.356359 -1.645994,2.485596 -4.320005,5.588304 -4.23158,4.90999 -5.413432,6.56266 -5.636265,7.881599 -0.172968,1.023789 0.364235,2.053549 1.695875,3.250809 1.239897,1.114774 1.700688,1.123694 2.208557,0.04275 z M 33.661005,58.986162 c 0.691588,-0.461328 1.928818,-1.647206 2.399985,-2.30037 l 0.400348,-0.55499 -0.461104,-0.490823 c -0.253608,-0.269953 -0.729605,-0.995957 -1.057773,-1.613343 -0.646709,-1.21666 -1.293065,-1.665215 -2.44543,-1.697067 -0.61808,-0.01708 -0.699512,0.04582 -0.869057,0.671359 -0.215898,0.796552 -0.05296,4.090145 0.255828,5.171112 0.312868,1.095262 0.931145,1.378491 1.777203,0.814122 z M 31.61764,45.239732 c 1.227858,-1.177508 2.178019,-2.229025 2.11147,-2.336703 -0.142962,-0.231319 -3.009651,-0.0747 -6.482609,0.354166 -3.057325,0.377542 -3.775596,0.579683 -4.16352,1.171729 -0.721085,1.100516 0.256354,2.118867 3.03808,3.16524 l 1.714744,0.645017 0.774683,-0.429263 c 0.426076,-0.236094 1.779294,-1.392678 3.007152,-2.570186 z"
       id="path5034"
       inkscape:connector-curvature="0"
       transform="matrix(0.26458333,0,0,0.26458333,0,87)" />
    <path
       style="opacity:1;fill:#ffffff;fill-opacity:1;fill-rule:nonzero;stroke:none;stroke-width:2.51338577;stroke-linecap:butt;stroke-linejoin:miter;stroke-miterlimit:4;stroke-dasharray:none;stroke-dashoffset:0;stroke-opacity:1;paint-order:stroke fill markers"
       d="M 23.148534,65.933223 C 21.271951,65.113939 17.379956,62.552505 16.515268,61.56768 15.752453,60.69888 15.628488,60.400393 14.914297,57.712767 14.608596,56.56236 14.141755,54.96502 13.876873,54.163121 13.41172,52.754925 13.390947,52.45039 13.268706,45.247385 l -0.126564,-7.457739 0.730904,-1.306979 c 1.009034,-1.80432 2.042163,-2.807587 2.891157,-2.807587 0.392269,0 0.793978,0.148437 0.991059,0.366209 0.310697,0.343316 0.307062,0.518986 -0.05814,2.810136 -0.808883,5.074626 -0.996269,8.807033 -0.600586,11.962659 0.411839,3.284488 1.208815,4.908266 4.523113,9.215508 3.643488,4.735056 4.987047,7.463014 4.108393,8.341667 -0.374844,0.374845 -0.935771,0.27959 -2.579507,-0.438036 z m -0.33909,-2.858557 c 0,-0.316695 -4.213595,-4.481727 -4.880763,-4.824512 -0.352499,-0.181109 -0.640908,-0.243321 -0.640908,-0.138247 0,0.342412 2.146067,2.730641 2.838082,3.15833 0.370866,0.229207 1.027209,0.769648 1.458542,1.200981 0.753375,0.753375 1.225047,0.985717 1.225047,0.603448 z M 15.118545,48.436857 c 0,-0.509856 -0.425058,-1.356337 -0.620444,-1.235582 -0.204213,0.126211 -0.226124,1.929313 -0.02588,2.12956 0.186731,0.186731 0.646321,-0.448965 0.646321,-0.893978 z"
       id="path5036"
       inkscape:connector-curvature="0"
       transform="matrix(0.26458333,0,0,0.26458333,0,87)" />
  </g>
</svg>
