<?xml version="1.0" encoding="UTF-8" standalone="no"?>
<!-- Created with Inkscape (http://www.inkscape.org/) -->

<svg
   xmlns:dc="http://purl.org/dc/elements/1.1/"
   xmlns:cc="http://creativecommons.org/ns#"
   xmlns:rdf="http://www.w3.org/1999/02/22-rdf-syntax-ns#"
   xmlns:svg="http://www.w3.org/2000/svg"
   xmlns="http://www.w3.org/2000/svg"
   xmlns:sodipodi="http://sodipodi.sourceforge.net/DTD/sodipodi-0.dtd"
   xmlns:inkscape="http://www.inkscape.org/namespaces/inkscape"
   width="297mm"
   height="210mm"
   viewBox="0 0 297 210"
   version="1.1"
   id="svg1549"
   sodipodi:docname="H.svg"
   inkscape:version="0.92.2 (5c3e80d, 2017-08-06)">
  <defs
     id="defs1543">
    <inkscape:path-effect
       effect="spiro"
       id="path-effect5611"
       is_visible="true" />
  </defs>
  <sodipodi:namedview
     id="base"
     pagecolor="#ffffff"
     bordercolor="#666666"
     borderopacity="1.0"
     inkscape:pageopacity="0.0"
     inkscape:pageshadow="2"
     inkscape:zoom="3.5856883"
     inkscape:cx="124.18958"
     inkscape:cy="715.34016"
     inkscape:document-units="mm"
     inkscape:current-layer="layer1"
     showgrid="false"
     inkscape:window-width="1366"
     inkscape:window-height="705"
     inkscape:window-x="-8"
     inkscape:window-y="-8"
     inkscape:window-maximized="1" />
  <metadata
     id="metadata1546">
    <rdf:RDF>
      <cc:Work
         rdf:about="">
        <dc:format>image/svg+xml</dc:format>
        <dc:type
           rdf:resource="http://purl.org/dc/dcmitype/StillImage" />
        <dc:title />
      </cc:Work>
    </rdf:RDF>
  </metadata>
  <g
     inkscape:label="Capa 1"
     inkscape:groupmode="layer"
     id="layer1"
     transform="translate(0,-87)">
    <path
       style="opacity:1;fill:#216778;fill-opacity:1;fill-rule:nonzero;stroke:none;stroke-width:0.66499996;stroke-linecap:butt;stroke-linejoin:miter;stroke-miterlimit:4;stroke-dasharray:none;stroke-dashoffset:0;stroke-opacity:1;paint-order:stroke fill markers"
       d="m 11.079614,103.34082 c -0.20732,-0.0619 -0.42935,-0.15617 -0.645684,-0.2743 -0.424714,-0.23191 -1.0918347,-0.42041 -2.0889137,-0.59024 -1.160905,-0.19774 -2.208673,-0.52573 -3.020947,-0.94567 -0.638294,-0.32999 -0.855784,-0.57127 -0.741341,-0.82245 0.115176,-0.25277 0.619376,-0.18589 3.547528,0.47064 0.700831,0.15714 1.9120717,0.42722 2.6916477,0.60019 0.779577,0.17296 1.446403,0.32094 1.481839,0.32883 0.0896,0.02 0.08285,0.0885 -0.03902,0.39627 -0.17988,0.45429 -0.350285,0.69914 -0.563637,0.80989 -0.119282,0.0619 -0.455255,0.0764 -0.621469,0.0268 z"
       id="path2362"
       inkscape:connector-curvature="0" />
    <path
       style="opacity:1;fill:#216778;fill-opacity:1;fill-rule:nonzero;stroke:none;stroke-width:0.66499996;stroke-linecap:butt;stroke-linejoin:miter;stroke-miterlimit:4;stroke-dasharray:none;stroke-dashoffset:0;stroke-opacity:1;paint-order:stroke fill markers"
       d="m 12.568612,101.07089 c -0.03937,-0.008 -0.342183,-0.0786 -0.672912,-0.15713 -0.330729,-0.0785 -1.252045,-0.29024 -2.0473697,-0.47055 -1.565423,-0.3549 -2.195025,-0.515569 -2.802046,-0.715059 -0.393493,-0.12932 -0.615484,-0.23152 -0.61778,-0.28441 -0.0084,-0.19366 2.831462,-0.30761 4.5938407,-0.18432 1.088779,0.0762 1.93081,0.23361 2.985979,0.55833 0.859652,0.264549 1.566746,0.557219 1.698797,0.703129 0.07131,0.0788 0.02558,0.14327 -0.134726,0.19002 -0.07001,0.0204 -0.418703,0.0487 -0.784603,0.0636 -0.787638,0.0321 -1.108089,0.0812 -1.345825,0.20621 -0.15871,0.0835 -0.195823,0.0909 -0.486788,0.0975 -0.173239,0.004 -0.347194,5.2e-4 -0.386567,-0.007 z"
       id="path2364"
       inkscape:connector-curvature="0" />
    <path
       style="opacity:1;fill:#216778;fill-opacity:1;fill-rule:nonzero;stroke:none;stroke-width:0.66499996;stroke-linecap:butt;stroke-linejoin:miter;stroke-miterlimit:4;stroke-dasharray:none;stroke-dashoffset:0;stroke-opacity:1;paint-order:stroke fill markers"
       d="m 6.4156343,113.08228 c -1.682197,-0.0417 -3.115228,-0.13271 -3.184514,-0.20224 -0.06929,-0.0695 -0.125979,-4.04206 -0.125979,-8.82785 0,-8.013389 0.02053,-8.721979 0.259771,-8.961179 0.191227,-0.1912 0.601358,-0.27766 1.554345,-0.32768 l 1.294577,-0.0679 v -1.72489 -1.72488 h 9.1744317 9.174433 v 7.96128 c 0,4.923419 -0.05493,7.961289 -0.143968,7.961289 -0.07918,0 -0.419455,-0.52886 -0.756166,-1.17524 -0.894871,-1.71787 -2.642516,-3.62407 -4.484584,-4.89145 -0.9592,-0.65994 -3.849995,-2.016899 -5.137269,-2.411459 -0.57435,-0.17605 -1.683243,-0.3986 -2.464208,-0.49458 -0.780968,-0.096 -1.419939,-0.23608 -1.419939,-0.31135 0,-0.0753 0.44591,-0.33902 0.990912,-0.58614 0.672002,-0.3047 1.035701,-0.56711 1.13008,-0.81535 0.155131,-0.40802 1.659523,-1.18748 3.352247,-1.73687 1.050878,-0.34107 1.654006,-0.77012 1.654006,-1.17662 0,-0.40699 -1.540933,-0.16129 -3.412503,0.54411 -0.917155,0.34568 -1.939132,0.67198 -2.271062,0.72512 -0.712134,0.114 -1.9640677,1.27123 -2.4162007,2.23342 -0.269936,0.57445 -0.270055,0.60124 -0.0036,0.79613 0.237482,0.17365 0.09781,0.20167 -1.005242,0.20167 -1.615139,0 -2.135119,0.1509 -2.899495,0.84147 -0.336529,0.30404 -0.841978,0.64894 -1.12322,0.76644 -0.565382,0.23624 -0.716745,0.592609 -0.640947,1.509079 0.04045,0.48907 0.14878,0.65436 0.655036,0.99949 0.68203,0.46496 2.512669,1.11087 3.603401,1.2714 0.850608,0.12518 0.970364,0.25596 0.651404,0.71133 -0.439296,0.62719 -0.304975,1.29916 0.398512,1.99365 0.551157,0.5441 0.64887,0.74171 0.741887,1.50029 0.05892,0.4805 0.211825,1.03343 0.339794,1.22874 0.2683077,0.40949 1.8457717,1.23604 2.8067937,1.47069 0.493718,0.12055 0.893953,0.39788 1.615456,1.11938 1.683708,1.68371 1.794769,1.58166 -1.776809,1.63268 -1.690103,0.0241 -4.4492537,0.01 -6.1314487,-0.0319 z"
       id="path2428"
       inkscape:connector-curvature="0" />
    <path
       style="opacity:1;fill:#216778;fill-opacity:1;fill-rule:nonzero;stroke:none;stroke-width:0.66499996;stroke-linecap:butt;stroke-linejoin:miter;stroke-miterlimit:4;stroke-dasharray:none;stroke-dashoffset:0;stroke-opacity:1;paint-order:stroke fill markers"
       d="m 20.695789,113.75799 c -2.085099,-0.10357 -3.812175,-0.19562 -3.837948,-0.20455 -0.02577,-0.009 -0.0045,-0.0847 0.04713,-0.16832 0.181171,-0.29314 -0.768725,-1.7425 -1.857907,-2.83482 -0.604678,-0.60641 -1.099415,-1.13057 -1.099415,-1.16479 0,-0.0342 0.552601,-0.0873 1.228003,-0.11798 1.088607,-0.0494 1.262523,-0.0984 1.532094,-0.4313 0.239921,-0.29629 0.2854,-0.51191 0.215513,-1.02179 -0.04872,-0.35544 -0.03871,-0.6456 0.02225,-0.64479 0.06096,7.9e-4 0.535508,0.47148 1.054563,1.04593 1.350915,1.4951 2.999451,2.24533 3.529753,1.60636 0.263599,-0.31762 -0.0016,-0.60231 -1.057987,-1.13555 -1.469347,-0.74172 -2.718951,-2.40714 -2.732095,-3.64122 -0.0079,-0.73774 -0.150212,-0.90113 -1.082011,-1.24182 -1.4132,-0.5167 -1.593697,-0.51733 -1.857894,-0.006 -0.231402,0.44748 -1.255035,1.50153 -1.890355,1.94653 -0.182221,0.12763 -0.472993,0.21039 -0.646155,0.18391 -0.293775,-0.0449 -0.258662,-0.16022 0.524738,-1.72307 0.461769,-0.92121 0.973778,-1.79637 1.137798,-1.94481 0.354351,-0.32068 2.624572,-0.50645 4.035258,-0.3302 0.768623,0.096 0.976839,0.19969 1.63181,0.81234 1.543653,1.4439 3.472577,4.25136 3.988763,5.80545 0.294807,0.88758 0.219234,1.06233 -0.970179,2.24344 -1.106504,1.09878 -1.688267,1.84119 -1.688267,2.15447 0,0.82773 1.757553,-0.282 3.195275,-2.01751 0.944465,-1.14008 1.132435,-1.2486 0.99794,-0.57613 -0.05436,0.27181 -0.09884,0.58588 -0.09884,0.69794 0,0.12074 -0.09469,0.16742 -0.232418,0.11457 -0.360608,-0.13838 -1.92841,1.49587 -1.86468,1.94371 0.0772,0.54248 0.499766,0.50194 1.180738,-0.11328 0.341598,-0.30861 0.647205,-0.53448 0.679124,-0.50193 0.09368,0.0955 -0.09633,1.50202 -0.199506,1.47686 -0.0517,-0.0126 -1.8,-0.10765 -3.8851,-0.21122 z"
       id="path2430"
       inkscape:connector-curvature="0" />
    <path
       style="opacity:1;fill:#216778;fill-opacity:1;fill-rule:nonzero;stroke:none;stroke-width:0.66499996;stroke-linecap:butt;stroke-linejoin:miter;stroke-miterlimit:4;stroke-dasharray:none;stroke-dashoffset:0;stroke-opacity:1;paint-order:stroke fill markers"
       d="m 10.115869,105.66613 c -0.5217237,-0.27102 -0.8275497,-0.55344 -0.7796737,-0.72 0.06411,-0.22302 0.366694,-0.45715 0.6820217,-0.52772 0.263898,-0.0591 0.316873,-0.0546 0.542951,0.0454 0.306531,0.13559 0.379545,0.29173 0.336444,0.71948 -0.04115,0.40836 -0.158557,0.68391 -0.291409,0.68391 -0.05681,0 -0.277466,-0.0905 -0.490334,-0.20105 z"
       id="path2432"
       inkscape:connector-curvature="0" />
    <path
       style="opacity:1;fill:#216778;fill-opacity:1;fill-rule:nonzero;stroke:none;stroke-width:0.66499996;stroke-linecap:butt;stroke-linejoin:miter;stroke-miterlimit:4;stroke-dasharray:none;stroke-dashoffset:0;stroke-opacity:1;paint-order:stroke fill markers"
       d="m 11.416177,108.82936 c -0.723596,-0.76756 -0.977646,-1.49183 -0.563893,-1.60761 0.492273,-0.13774 4.012803,0.17203 4.771247,0.41983 0.211688,0.0692 0.307644,0.22032 0.230899,0.36371 -0.146338,0.27344 -1.048186,0.40926 -2.416085,0.36387 -1.033375,-0.0343 -1.427538,0.005 -1.536896,0.15501 -0.03934,0.0538 -0.07152,0.21384 -0.07152,0.35564 0,0.15833 -0.02376,0.25783 -0.06156,0.25783 -0.03386,0 -0.192341,-0.13873 -0.352187,-0.30828 z"
       id="path2434"
       inkscape:connector-curvature="0" />
    <path
       style="opacity:1;fill:#216778;fill-opacity:1;fill-rule:nonzero;stroke:none;stroke-width:0.66499996;stroke-linecap:butt;stroke-linejoin:miter;stroke-miterlimit:4;stroke-dasharray:none;stroke-dashoffset:0;stroke-opacity:1;paint-order:stroke fill markers"
       d="m 14.4034,106.2475 c 0,-0.11558 0.426852,-0.48263 0.633156,-0.54444 0.264218,-0.0792 0.492418,0.0139 0.569155,0.2321 0.09105,0.25891 -0.04573,0.33109 -0.667977,0.35255 -0.362233,0.0125 -0.534334,-5.3e-4 -0.534334,-0.0402 z"
       id="path2436"
       inkscape:connector-curvature="0" />
    <path
       style="opacity:1;fill:#216778;fill-opacity:1;fill-rule:nonzero;stroke:none;stroke-width:0.66499996;stroke-linecap:butt;stroke-linejoin:miter;stroke-miterlimit:4;stroke-dasharray:none;stroke-dashoffset:0;stroke-opacity:1;paint-order:stroke fill markers"
       d="m 17.046862,107.23441 c -0.0881,-0.0617 -0.120409,-0.0648 -0.139263,-0.0134 -0.04233,0.11544 -0.131546,-0.0243 -0.17118,-0.26815 -0.02278,-0.14018 -0.01651,-0.22786 0.0163,-0.22786 0.05379,0 0.492231,0.49612 0.492231,0.55699 0,0.0553 -0.07783,0.0366 -0.198083,-0.0476 z"
       id="path2438"
       inkscape:connector-curvature="0" />
    <path
       style="opacity:1;fill:#216778;fill-opacity:1;fill-rule:nonzero;stroke:none;stroke-width:0.66499996;stroke-linecap:butt;stroke-linejoin:miter;stroke-miterlimit:4;stroke-dasharray:none;stroke-dashoffset:0;stroke-opacity:1;paint-order:stroke fill markers"
       d="m 1.0561893,92.758141 c -0.248068,-0.0883 -0.334504,-0.18843 -0.382177,-0.44255 -0.05073,-0.27041 0.01939,-3.7439 0.08252,-4.08744 0.08643,-0.47038 0.380907,-0.649 0.752864,-0.45665 0.180771,0.0935 0.245763,0.26441 0.326514,0.85875 0.06437,0.47375 0.149371,0.64924 0.351759,0.72619 0.14865,0.0565 1.10168,0.0689 1.295995,0.0169 0.19572,-0.0524 0.27918,-0.2846 0.280606,-0.7806 0.0016,-0.53188 0.06636,-0.84638 0.19367,-0.93947 0.146907,-0.10743 0.522761,-0.0864 0.632971,0.0354 0.158271,0.17488 0.202321,0.86971 0.180173,2.84192 -0.01749,1.55769 -0.03461,1.88393 -0.10745,2.04862 -0.09778,0.22106 -0.236135,0.28579 -0.503605,0.23561 -0.305517,-0.0573 -0.357611,-0.20007 -0.393716,-1.07894 -0.04242,-1.03265 -0.02567,-1.01459 -0.941568,-1.01459 -0.913606,0 -0.896537,-0.0183 -0.943064,1.009 -0.03691,0.81494 -0.08213,0.97608 -0.29681,1.0577 -0.176527,0.0671 -0.271635,0.0618 -0.528683,-0.0298 z m 2.251083,-2.65142 c 0.29206,-0.0705 -0.005,-0.13611 -0.616561,-0.13611 -0.611597,0 -0.908624,0.0656 -0.616564,0.13611 0.08846,0.0214 0.365916,0.0388 0.616564,0.0388 0.250645,0 0.528098,-0.0175 0.616561,-0.0388 z"
       id="path2440"
       inkscape:connector-curvature="0" />
    <path
       style="opacity:1;fill:#ffffff;fill-opacity:1;fill-rule:nonzero;stroke:none;stroke-width:2.51338553;stroke-linecap:butt;stroke-linejoin:miter;stroke-miterlimit:4;stroke-dasharray:none;stroke-dashoffset:0;stroke-opacity:1;paint-order:stroke fill markers"
       d="m 57.084058,99.403972 c -2.653976,-0.107831 -3.04686,-0.650413 -0.683238,-0.943567 2.837397,-0.351916 2.748847,-0.92408 -0.691817,-4.470085 -3.696272,-3.809444 -5.41201,-5.049499 -8.226839,-5.94598 -2.949403,-0.939337 -7.131749,-2.993258 -8.832336,-4.337496 -1.122312,-0.887135 -1.396247,-1.301273 -1.77386,-2.681747 -0.245617,-0.897926 -0.534664,-2.260088 -0.642327,-3.027026 -0.324606,-2.312345 -0.860803,-3.42904 -2.585608,-5.384843 -0.905185,-1.026414 -1.849409,-2.267844 -2.098276,-2.758737 -0.683446,-1.348101 -0.581723,-3.355186 0.237455,-4.685198 1.295624,-2.103571 1.029398,-2.372738 -3.181782,-3.21695 -5.50907,-1.104399 -11.995069,-3.695698 -14.004224,-5.594993 -0.85832,-0.811384 -1.049109,-1.212269 -1.217189,-2.557539 -0.271261,-2.1711 0.02991,-3.913731 0.813941,-4.709625 0.354384,-0.359745 1.383854,-1.065422 2.287713,-1.56817 0.903858,-0.502748 2.521871,-1.620738 3.595584,-2.484421 1.073713,-0.863684 2.4779,-1.803935 3.120416,-2.089447 1.514943,-0.67319 4.469409,-1.046512 8.367192,-1.057266 3.167357,-0.0087 4.01966,-0.2842 3.057096,-0.988045 -0.253515,-0.185375 -0.460937,-0.61939 -0.460937,-0.964478 0,-1.84495 4.085078,-7.080023 6.968654,-8.930409 0.763914,-0.490203 2.614577,-1.247 4.112583,-1.681771 1.498005,-0.434772 4.543378,-1.433899 6.767498,-2.220284 5.098831,-1.802799 9.126331,-2.792647 11.364624,-2.793111 1.646605,-3.4e-4 1.743041,0.03611 1.743041,0.658825 0,1.428329 -2.192784,2.839798 -7.048307,4.536911 -1.568689,0.548293 -4.49942,1.791672 -6.512735,2.763067 -3.256714,1.571315 -3.823328,1.953294 -5.135787,3.462261 -1.212085,1.393566 -1.97687,1.947946 -4.287735,3.108111 -1.546888,0.776611 -3.06289,1.595093 -3.368894,1.818848 -0.989159,0.723291 -0.379126,0.90808 6.780783,2.054012 7.258568,1.161721 11.138539,2.522972 20.409334,7.160413 6.768028,3.385508 9.264955,5.158665 14.253662,10.122055 3.805013,3.7857 6.663229,7.429171 8.761083,11.168065 0.731544,1.303795 1.707326,2.976079 2.168403,3.716191 l 0.838319,1.345655 0.22063,6.310727 0.22063,6.310727 -1.561639,1.778732 c -3.707932,4.223393 -7.723588,7.546222 -9.912027,8.201895 -0.887849,0.266005 -1.140978,0.248003 -1.495334,-0.106353 -0.896126,-0.896126 0.695588,-3.197651 6.06678,-8.772215 3.630968,-3.768451 4.147139,-4.552897 4.139741,-6.291339 -0.02223,-5.225901 -12.736116,-23.476009 -18.415854,-26.435006 -2.013139,-1.048794 -8.635011,-1.441759 -13.741543,-0.815475 -4.050717,0.496797 -4.63883,0.748431 -5.830353,2.49462 -1.350115,1.978611 -6.071211,11.309547 -6.071211,11.999348 0,0.858878 1.193101,0.967485 2.686483,0.244553 1.607156,-0.77801 6.065602,-5.121422 7.496248,-7.30283 0.969145,-1.477722 1.13337,-1.603597 2.092162,-1.603597 1.060641,0 4.12755,0.905742 6.437921,1.901294 1.813415,0.78141 2.40237,1.65317 2.632443,3.896471 0.251879,2.455917 0.975498,4.488606 2.343054,6.581788 2.126197,3.254357 4.610763,5.495938 8.397693,7.576423 3.873,2.12777 4.607102,3.142035 3.123414,4.315442 -0.635239,0.502394 -1.000876,0.579197 -2.129262,0.447256 -1.739122,-0.203353 -4.305229,-1.414939 -6.474904,-3.057123 -1.841192,-1.393562 -7.083198,-6.711013 -7.083198,-7.185145 0,-0.41787 -1.408751,-2.205401 -1.738074,-2.205401 -0.164002,0 -0.203852,0.370596 -0.09746,0.906381 0.893089,4.497739 0.856128,5.608452 -0.234187,7.037929 -0.854248,1.11998 -2.066958,1.436756 -6.436312,1.681262 -1.687263,0.09442 -3.288615,0.235121 -3.558561,0.312673 -0.384635,0.110504 0.230597,0.905969 2.843998,3.677141 1.834142,1.944873 3.914345,4.283448 4.622669,5.196832 1.619566,2.08843 3.203499,4.900239 3.203499,5.686872 0,0.654745 -0.08069,0.659516 -6.642931,0.392892 z m -12.32135,-16.64491 c 0,-1.716713 0.338019,-1.832025 5.388486,-1.838208 4.924575,-0.006 7.85623,-0.320359 9.129664,-0.978877 1.564169,-0.808863 0.852107,-1.841499 -1.599277,-2.319282 -5.018958,-0.978208 -15.740406,-1.738037 -16.767567,-1.188318 -0.78254,0.418804 -0.80946,1.62011 -0.06884,3.071848 0.585176,1.147043 3.252575,4.209019 3.666629,4.209019 0.137996,0 0.250903,-0.430283 0.250903,-0.956182 z m 14.196524,-10.34504 c 0.335861,-0.324638 0.325015,-0.480245 -0.07615,-1.092499 -0.722896,-1.103278 -2.107667,-0.983047 -3.535561,0.306968 -0.845388,0.763758 -1.038774,1.082431 -0.767741,1.265138 0.513603,0.346234 3.909852,-0.02571 4.379452,-0.479607 z M 40.537334,71.076611 c 0.539404,-0.649945 0.930169,-3.086306 0.624116,-3.891287 -0.64355,-1.692668 -3.129223,-1.984442 -4.974501,-0.583918 -1.673961,1.270498 -0.941349,2.5525 2.392595,4.186822 1.543975,0.756867 1.566258,0.76015 1.95779,0.288383 z M 44.5949,61.376813 c 0.809986,-0.637135 2.120014,-2.992187 2.120014,-3.811173 0,-0.43774 -0.865413,-0.703608 -6.065781,-1.863486 -19.921175,-4.44318 -22.490782,-4.896928 -23.277339,-4.110371 -0.620423,0.620422 0.11607,1.806886 1.715505,2.763617 3.283635,1.964169 6.669816,3.044238 15.077723,4.809247 1.661179,0.348716 3.95408,1.080763 5.298843,1.691742 2.719442,1.235545 4.050297,1.370532 5.131035,0.520424 z m 6.451012,-8.499949 c 0.587555,-0.245496 2.601927,-0.557037 4.560059,-0.705254 1.929167,-0.146025 3.624141,-0.382063 3.766607,-0.52453 0.681524,-0.681522 -1.904139,-1.912595 -7.523082,-3.581856 -5.293904,-1.572699 -7.990106,-1.862288 -17.126701,-1.83952 -7.874264,0.01962 -10.281476,0.208661 -10.402807,0.816933 -0.08023,0.402217 3.541712,1.604412 8.333459,2.766042 15.315909,3.712931 16.411825,3.89575 18.392465,3.068185 z"
       id="path5613"
       inkscape:connector-curvature="0"
       transform="matrix(0.26458333,0,0,0.26458333,0,87)" />
    <path
       style="opacity:1;fill:#ffffff;fill-opacity:1;fill-rule:nonzero;stroke:none;stroke-width:2.51338553;stroke-linecap:butt;stroke-linejoin:miter;stroke-miterlimit:4;stroke-dasharray:none;stroke-dashoffset:0;stroke-opacity:1;paint-order:stroke fill markers"
       d="m 56.805509,99.404315 c -2.428434,-0.114976 -2.630591,-0.667908 -0.347646,-0.950857 2.852128,-0.353497 2.640576,-1.038794 -1.624017,-5.260739 -3.506434,-3.471373 -4.457228,-4.067643 -9.520033,-5.970293 -2.896283,-1.08845 -6.474857,-3.065755 -7.42957,-4.105131 -0.649713,-0.707332 -1.274331,-2.649857 -1.776787,-5.525709 -0.394855,-2.259979 -0.650102,-2.746106 -2.772286,-5.279899 -0.946782,-1.130416 -1.83763,-2.36095 -1.979661,-2.734518 -0.48131,-1.265944 -0.289157,-3.077487 0.496312,-4.679029 0.555278,-1.13219 0.672362,-1.620685 0.443341,-1.849706 C 32.123998,62.87727 30.413368,62.383462 28.493764,61.951085 22.13224,60.518191 15.775679,57.897927 14.243356,56.076866 13.456937,55.142261 13.105275,53.312462 13.33664,51.358953 c 0.214879,-1.81432 0.617584,-2.38111 2.421874,-3.408681 0.843632,-0.480461 2.205758,-1.383445 3.026946,-2.006629 4.760948,-3.612994 5.201046,-3.768937 11.242604,-3.983691 4.446397,-0.158052 5.559338,-0.382637 4.625009,-0.9333 -1.230985,-0.725504 0.2527,-4.005631 3.235485,-7.153002 2.400071,-2.532502 3.947056,-3.561201 6.44058,-4.282795 1.082096,-0.313146 4.540174,-1.437854 7.684619,-2.499352 6.795055,-2.293868 8.718945,-2.769469 11.225181,-2.774958 1.792085,-0.0039 1.882484,0.0274 1.882484,0.652371 0,1.481401 -1.967466,2.724926 -7.572786,4.786333 -1.849904,0.680319 -4.697458,1.891676 -6.327901,2.691904 -2.399263,1.177569 -3.310988,1.809858 -4.782147,3.316458 -1.421608,1.455856 -2.428402,2.167959 -4.620196,3.267854 -1.541371,0.773495 -2.961976,1.598522 -3.156901,1.833393 -0.454044,0.54709 0.234471,0.73588 6.219429,1.70536 7.990173,1.294296 11.362558,2.453194 20.798275,7.147194 6.8931,3.429121 9.457194,5.248468 14.505692,10.292481 4.579965,4.575897 6.317163,6.833268 9.550674,12.410448 l 2.263682,3.904411 0.225207,6.246424 0.225206,6.246424 -1.323392,1.560568 c -3.372702,3.977164 -7.956344,7.78515 -10.168809,8.448021 -0.911167,0.272991 -1.148756,0.253628 -1.526825,-0.124442 -0.911683,-0.911682 0.384615,-2.798567 5.888989,-8.571988 3.50842,-3.679908 4.343813,-4.899835 4.343813,-6.343282 0,-2.950083 -4.992701,-11.871389 -10.496919,-18.756627 -2.658667,-3.325736 -6.460946,-7.040905 -7.926297,-7.744709 -3.012069,-1.446693 -13.087755,-1.544833 -17.343306,-0.168932 -1.205894,0.389889 -1.445056,0.624728 -2.680183,2.631743 -1.374168,2.232946 -5.138692,9.652612 -5.465871,10.772922 -0.131442,0.450075 -0.02231,0.693983 0.415251,0.928164 0.487254,0.26077 0.858399,0.188073 2.072551,-0.405958 1.761463,-0.861801 5.957257,-4.90201 7.491975,-7.214163 1.00429,-1.513029 1.109216,-1.587798 2.224368,-1.585121 1.214794,0.0029 6.167614,1.596268 7.330621,2.3583 1.091107,0.71492 1.495908,1.607516 1.784935,3.935814 0.665222,5.358801 4.79388,10.491494 11.297973,14.045482 1.984185,1.084204 3.207194,2.166089 3.207194,2.837106 0,0.710438 -1.335696,1.642787 -2.338424,1.632278 -1.215234,-0.01274 -3.440238,-0.826458 -5.356076,-1.958812 -1.890563,-1.117415 -8.759802,-7.654698 -8.759802,-8.336483 0,-0.254515 -0.45531,-0.895245 -1.011798,-1.423844 l -1.011797,-0.96109 0.186968,0.836659 c 0.102834,0.460163 0.328721,1.848502 0.501971,3.085199 0.285479,2.037832 0.264769,2.349749 -0.220998,3.328638 -0.927995,1.870037 -1.473441,2.087616 -6.192398,2.470134 -2.321226,0.188159 -4.299094,0.420792 -4.395265,0.516964 -0.09617,0.09617 1.225834,1.65977 2.93779,3.474666 4.738016,5.022924 7.811094,9.33483 7.811094,10.959923 0,0.531154 -0.154455,0.563535 -2.440256,0.511629 -1.342142,-0.03048 -3.358692,-0.0989 -4.481224,-0.152044 z M 44.762708,82.603159 c 0,-1.505942 0.299943,-1.587168 6.465869,-1.750955 4.058761,-0.107815 6.072739,-0.277459 7.100852,-0.598128 2.123338,-0.662275 2.253525,-1.7426 0.285574,-2.369782 -2.740473,-0.873383 -16.198921,-1.991952 -17.54754,-1.458426 -1.463879,0.579125 -0.754232,2.872924 1.76235,5.696466 1.500886,1.683955 1.932895,1.791424 1.932895,0.480825 z M 58.544779,72.66939 c 0.519909,-0.199507 0.58461,-1.249013 0.106476,-1.727147 -0.420761,-0.420762 -1.468234,-0.430447 -2.26337,-0.02092 -0.772981,0.39811 -1.86415,1.385633 -1.86415,1.687082 0,0.264548 3.357855,0.315482 4.021044,0.06099 z M 40.790846,70.585556 c 0.198224,-0.381445 0.319557,-1.403187 0.278887,-2.348512 -0.06997,-1.626363 -0.100882,-1.687439 -1.101459,-2.176525 -0.870456,-0.42548 -1.209254,-0.454794 -2.193429,-0.189782 -1.2581,0.338772 -2.494277,1.373625 -2.494277,2.088059 0,0.629205 1.275999,1.737179 3.067751,2.663787 1.744838,0.902346 1.956026,0.899144 2.442527,-0.03703 z m 3.859429,-9.203648 c 0.573542,-0.475995 1.705101,-2.454273 1.932472,-3.378489 0.175375,-0.712856 0.108258,-0.773193 -1.305632,-1.173775 -1.821626,-0.516096 -19.516037,-4.414784 -22.888053,-5.043023 -1.338295,-0.249338 -3.032531,-0.414962 -3.764968,-0.368053 -1.788843,0.114564 -1.942502,0.86864 -0.444939,2.183518 2.110348,1.85291 6.768028,3.573166 13.524489,4.995096 5.004736,1.053274 5.447786,1.183087 8.178551,2.396305 2.324954,1.032925 3.84254,1.156553 4.76808,0.388421 z m 6.159719,-8.487051 c 0.555179,-0.231969 2.527757,-0.550549 4.383507,-0.707959 5.192821,-0.440465 5.422144,-0.644196 2.328264,-2.068453 -6.84651,-3.151769 -16.060144,-4.447449 -27.35083,-3.846248 -3.086413,0.164343 -5.376171,0.406594 -5.557552,0.587975 -0.686059,0.68606 4.281935,2.146527 17.639347,5.185532 5.99626,1.364234 7.069588,1.470744 8.557264,0.849153 z"
       id="path5615"
       inkscape:connector-curvature="0"
       transform="matrix(0.26458333,0,0,0.26458333,0,87)" />
    <path
       style="opacity:1;fill:#ffffff;fill-opacity:1;fill-rule:nonzero;stroke:none;stroke-width:2.51338553;stroke-linecap:butt;stroke-linejoin:miter;stroke-miterlimit:4;stroke-dasharray:none;stroke-dashoffset:0;stroke-opacity:1;paint-order:stroke fill markers"
       d="m 56.387801,99.40513 c -1.100935,-0.06867 -1.586682,-0.208521 -1.51203,-0.435317 0.06049,-0.183778 0.413901,-0.367107 0.785355,-0.407394 1.411529,-0.153101 2.76702,-0.661394 2.76702,-1.037603 0,-0.546607 -2.936789,-3.8808 -5.05972,-5.744398 -2.505904,-2.199787 -3.622716,-2.862443 -6.792955,-4.030582 -3.604,-1.327968 -6.815867,-2.995012 -8.234193,-4.273768 -1.012484,-0.912851 -1.185527,-1.270222 -1.707221,-3.525792 -1.130866,-4.889356 -1.259348,-5.197883 -3.019631,-7.251048 -0.920549,-1.073713 -1.863497,-2.347669 -2.09544,-2.831013 -0.647467,-1.349247 -0.531467,-3.24589 0.298718,-4.884181 0.623791,-1.230994 0.667081,-1.475058 0.322714,-1.819425 -0.218745,-0.218744 -2.143051,-0.820121 -4.276236,-1.336393 -5.855585,-1.417162 -10.881384,-3.423898 -13.04821,-5.209979 -1.12269,-0.925415 -1.563553,-2.151932 -1.565881,-4.356402 -0.0025,-2.352942 0.503863,-3.189343 2.711249,-4.478525 1.060065,-0.619112 2.828253,-1.830533 3.929307,-2.692049 3.289097,-2.573541 5.329481,-3.177508 10.927737,-3.234682 1.61057,-0.01645 3.227338,-0.113704 3.592819,-0.216125 0.601601,-0.168588 0.621403,-0.221994 0.209165,-0.564121 -0.682467,-0.566398 -0.554791,-1.575246 0.440133,-3.477764 0.977413,-1.869032 5.044017,-6.200444 6.541501,-6.967469 1.168327,-0.598427 15.625301,-5.339892 17.94169,-5.88435 0.997019,-0.234345 2.65988,-0.427937 3.695246,-0.430205 1.832103,-0.004 1.882484,0.01488 1.882484,0.705771 0,1.439148 -2.078338,2.73213 -7.808822,4.85805 -5.169406,1.91777 -8.937977,3.969662 -10.806226,5.883717 -1.164488,1.193043 -2.438918,2.085324 -4.649339,3.255198 -1.674815,0.886401 -3.094795,1.760671 -3.155511,1.942822 -0.142172,0.426512 1.131789,0.759613 5.642855,1.475433 7.351857,1.166597 10.764354,2.238645 18.267064,5.738661 5.09138,2.375129 8.6272,4.323936 11.272179,6.212786 2.945111,2.103184 8.077041,7.058893 10.715697,10.347746 2.183405,2.721422 2.560937,3.283899 5.625155,8.380829 l 1.760465,2.928308 0.244798,6.372096 0.244798,6.372098 -1.056943,1.293975 c -3.136882,3.840362 -8.187112,8.061139 -10.460137,8.742154 -0.911167,0.272991 -1.148756,0.253628 -1.526825,-0.124442 -0.897727,-0.897727 0.433013,-2.859476 5.720252,-8.432671 3.936217,-4.149108 4.648479,-5.27859 4.412845,-6.997736 -0.465653,-3.397297 -4.687663,-10.855137 -10.011057,-17.683717 -2.555757,-3.278397 -6.838185,-7.458027 -8.448882,-8.246066 -2.115996,-1.03526 -6.8376,-1.436522 -11.796829,-1.002541 -5.112379,0.447384 -5.97688,0.698229 -7.156704,2.076586 -1.211516,1.415382 -6.711498,12.264254 -6.440127,12.703338 0.35063,0.567333 1.99172,0.3591 3.127237,-0.396808 1.654561,-1.101434 5.597358,-5.074496 6.860491,-6.91315 l 1.126104,-1.639197 1.569032,0.148315 c 0.862967,0.08157 2.69852,0.558473 4.079008,1.059777 3.1603,1.147618 4.200323,2.092136 4.447746,4.039319 0.517803,4.07505 1.849924,6.932435 4.666114,10.008765 1.584672,1.731051 4.629683,4.017128 6.844638,5.138689 1.583769,0.801955 3.145226,2.20819 3.145226,2.832561 0,0.744875 -1.324814,1.664671 -2.397685,1.664671 -1.297789,0 -3.642162,-0.93029 -5.73069,-2.274038 -2.119122,-1.363434 -7.9418,-7.002134 -8.451239,-8.184205 -0.198317,-0.460163 -0.709092,-1.150407 -1.135054,-1.533876 l -0.774477,-0.697216 0.190879,0.697216 c 0.104984,0.383469 0.338521,1.805918 0.518974,3.160997 0.30347,2.278857 0.28701,2.538818 -0.21928,3.463486 -0.977902,1.785992 -1.518495,1.996646 -6.228511,2.427082 -2.34968,0.214731 -4.320909,0.439185 -4.380509,0.498786 -0.0596,0.0596 1.277908,1.605995 2.972238,3.436436 4.82171,5.20905 7.786619,9.393014 7.786619,10.98818 0,0.536684 -0.153055,0.564221 -2.858586,0.514312 -1.572223,-0.02901 -3.588494,-0.09826 -4.480602,-0.153912 z M 44.762708,82.619619 c 0,-1.499037 0.310203,-1.588144 6.186785,-1.77719 2.970026,-0.09554 6.043526,-0.311717 6.829997,-0.480385 2.588914,-0.555224 2.956696,-1.889099 0.68589,-2.487609 -2.893034,-0.762509 -15.202808,-1.873339 -16.728462,-1.509573 -1.597101,0.3808 -1.796299,1.081594 -0.843938,2.969031 0.760537,1.507261 2.957519,4.102465 3.472962,4.102465 0.252777,0 0.396766,-0.296404 0.396766,-0.816739 z m 13.595717,-9.956727 c 1.323731,-0.354747 0.508209,-2.055313 -0.985647,-2.055313 -0.610281,0 -2.849043,1.535407 -2.849043,1.953954 0,0.300487 2.81409,0.374868 3.83469,0.101359 z M 40.831014,70.287077 c 0.521847,-1.496965 0.386701,-3.208268 -0.30419,-3.85193 -1.235396,-1.150947 -4.63143,-0.393115 -5.118738,1.142255 -0.230579,0.726489 0.653757,1.700756 2.521904,2.778362 1.848685,1.066381 2.510803,1.050705 2.901024,-0.06869 z m 3.93986,-9.029585 c 0.485609,-0.439467 1.94404,-3.237195 1.94404,-3.729273 0,-0.368247 -0.648857,-0.536631 -10.849129,-2.815468 C 20.857409,51.359738 18.141371,50.9278 17.432992,51.781345 c -0.799138,0.962902 1.245215,2.627252 5.176816,4.214549 2.488627,1.00473 4.937876,1.671804 10.160782,2.767382 1.917344,0.402188 4.67832,1.209193 6.135502,1.793343 1.457182,0.584153 2.90042,1.129206 3.207195,1.211232 0.821273,0.219595 2.128361,-0.03142 2.657587,-0.510359 z m 5.868491,-8.357088 c 0.679223,-0.228915 2.900063,-0.586749 4.935201,-0.795186 3.743953,-0.383446 4.158339,-0.487917 3.858662,-0.972805 -0.509183,-0.823873 -7.71989,-3.243057 -12.160541,-4.079847 -3.635941,-0.685151 -11.419624,-1.016141 -17.012076,-0.723412 -6.697621,0.350577 -7.127715,0.57673 -3.413458,1.794876 2.47022,0.810146 6.513571,1.834817 14.290031,3.6214 7.489592,1.720673 7.735134,1.75052 9.502181,1.154974 z"
       id="path5617"
       inkscape:connector-curvature="0"
       transform="matrix(0.26458333,0,0,0.26458333,0,87)" />
    <path
       style="opacity:1;fill:#ffffff;fill-opacity:1;fill-rule:nonzero;stroke:none;stroke-width:2.51338553;stroke-linecap:butt;stroke-linejoin:miter;stroke-miterlimit:4;stroke-dasharray:none;stroke-dashoffset:0;stroke-opacity:1;paint-order:stroke fill markers"
       d="m 86.90118,99.263165 c -0.295502,-0.791406 0.01763,-1.627555 1.225976,-3.273646 1.036981,-1.412651 3.589868,-3.907681 3.998296,-3.907681 0.140152,0 0.343043,1.011343 0.450868,2.247428 0.22493,2.578556 0.261713,2.504531 -2.142489,4.311802 -1.913092,1.438102 -3.146842,1.655362 -3.532651,0.622097 z"
       id="path5619"
       inkscape:connector-curvature="0"
       transform="matrix(0.26458333,0,0,0.26458333,0,87)" />
    <path
       style="opacity:1;fill:#ffffff;fill-opacity:1;fill-rule:nonzero;stroke:none;stroke-width:2.51338553;stroke-linecap:butt;stroke-linejoin:miter;stroke-miterlimit:4;stroke-dasharray:none;stroke-dashoffset:0;stroke-opacity:1;paint-order:stroke fill markers"
       d="m 56.109428,99.40605 c -1.731461,-0.13565 -1.598156,-0.685232 0.241003,-0.993569 1.320245,-0.221341 2.077715,-0.597297 2.077715,-1.031233 0,-0.369268 -3.575927,-4.213013 -5.515783,-5.928881 -2.056663,-1.819188 -3.505132,-2.644173 -6.554943,-3.733409 -2.763137,-0.986851 -6.573492,-2.979029 -7.947763,-4.155356 -1.214874,-1.039887 -1.491476,-1.730811 -2.421636,-6.049028 -0.475433,-2.207175 -0.75957,-2.714087 -3.566039,-6.362009 -1.196462,-1.555191 -1.324711,-1.864738 -1.324711,-3.197394 0,-0.982498 0.230527,-1.973075 0.689939,-2.964667 0.542985,-1.171978 0.617237,-1.560517 0.348608,-1.824163 -0.187732,-0.184249 -1.964685,-0.730562 -3.948783,-1.214023 -8.151356,-1.986233 -13.583476,-4.5381 -14.541625,-6.831272 -0.474944,-1.136702 -0.519597,-3.879131 -0.08353,-5.130036 0.237347,-0.680856 0.886605,-1.268676 2.676966,-2.423654 1.299992,-0.838636 3.180424,-2.143128 4.178738,-2.898871 2.79768,-2.117899 4.168407,-2.517749 9.502495,-2.771941 2.49699,-0.118993 4.622105,-0.298473 4.722478,-0.398846 0.100372,-0.100373 0.03399,-0.331003 -0.14752,-0.512511 -0.551589,-0.551589 -0.374979,-1.589316 0.576365,-3.386618 1.042432,-1.969387 4.53785,-5.771396 6.194061,-6.737356 1.206217,-0.703508 15.262397,-5.405604 18.278228,-6.114463 0.997019,-0.234345 2.65988,-0.427937 3.695246,-0.430205 1.842199,-0.004 1.882484,0.01139 1.882484,0.720646 0,1.450403 -2.010328,2.730393 -7.390492,4.705578 -5.190535,1.905568 -8.80547,3.843419 -11.059768,5.92879 -1.325341,1.226021 -3.105688,2.472473 -5.045926,3.532734 -1.648917,0.901066 -2.99803,1.738273 -2.99803,1.86046 0,0.322383 0.462217,0.431249 5.856616,1.379404 8.522079,1.497898 11.69873,2.551197 20.21927,6.704213 7.588278,3.698622 11.080107,6.186588 16.474505,11.738264 3.470625,3.571816 5.589992,6.407397 8.59242,11.496111 l 2.325849,3.942007 0.195818,6.28519 0.195814,6.285186 -2.078134,2.360295 c -3.787175,4.301375 -8.682347,7.985791 -10.290724,7.745447 -0.949653,-0.141909 -1.187356,-0.834205 -0.664642,-1.93574 0.452373,-0.953307 1.878883,-2.64212 7.077787,-8.379231 3.192336,-3.522816 3.434961,-4.154926 2.619676,-6.824996 C 87.426846,76.212788 80.356603,65.692029 74.52918,60.102472 73.222988,58.849594 71.795504,57.640303 71.356997,57.415158 68.543339,55.970523 58.860944,55.789286 54.310839,57.096087 c -1.903322,0.546637 -2.606827,1.500722 -5.913448,8.019741 -2.712731,5.348164 -2.990669,6.328411 -1.794347,6.328411 0.398635,0 1.165199,-0.208987 1.703475,-0.464416 1.351961,-0.641548 5.389682,-4.522473 7.10465,-6.828756 1.322307,-1.778233 1.493713,-1.910082 2.483152,-1.910082 1.166722,0 5.103369,1.159175 6.712686,1.976599 1.359544,0.690554 2.104109,1.693586 2.316981,3.12129 0.983002,6.592862 4.125107,10.872403 10.905688,14.85353 2.5363,1.489153 3.746048,2.531634 3.746048,3.228094 0,0.266945 -0.345122,0.757804 -0.766938,1.090798 -0.607897,0.479894 -1.033472,0.580114 -2.052247,0.483296 -1.499539,-0.142508 -4.544734,-1.500066 -6.202003,-2.764872 -1.627219,-1.241873 -7.433114,-6.995271 -7.433114,-7.365903 0,-0.168678 -0.444997,-0.79822 -0.988882,-1.398981 -0.68473,-0.756331 -0.946844,-0.920735 -0.852207,-0.534516 0.844379,3.445946 0.905637,5.836723 0.180041,7.026732 -0.922771,1.513388 -1.570527,1.747592 -6.006509,2.171719 -2.259567,0.216037 -4.172708,0.457204 -4.251432,0.535925 -0.14643,0.146432 0.453148,0.855289 4.769873,5.63921 3.415668,3.785343 5.754683,7.337342 5.754683,8.738984 0,0.541854 -0.14907,0.566496 -3.137473,0.518614 -1.72561,-0.02764 -3.741649,-0.0976 -4.480088,-0.155454 z M 44.714447,82.438747 c 0.05015,-0.448332 0.212701,-0.940054 0.361228,-1.092713 0.148524,-0.152657 3.056716,-0.416013 6.46265,-0.585233 6.896869,-0.342659 8.400728,-0.680614 8.23469,-1.85054 -0.07485,-0.527413 -0.396356,-0.709902 -1.92283,-1.091411 -2.629663,-0.657232 -10.776219,-1.406268 -14.173371,-1.303178 -3.458212,0.104948 -3.739299,0.312144 -3.010756,2.219312 0.551058,1.442551 3.170477,4.776949 3.633381,4.625123 0.178105,-0.05841 0.364859,-0.473025 0.415008,-0.92136 z M 58.44648,72.549973 c 1.165598,-0.62381 0.04033,-2.156737 -1.331808,-1.81429 -0.992912,0.247802 -2.651723,1.500125 -2.44026,1.84228 0.218279,0.353181 3.099793,0.331799 3.772068,-0.02799 z M 40.563425,70.766285 c 0.182158,-0.219489 0.402222,-1.087236 0.489031,-1.92833 0.142578,-1.38143 0.08813,-1.598967 -0.563259,-2.250354 -1.18046,-1.18046 -3.385146,-0.879338 -4.770613,0.651587 -0.530197,0.58586 -0.529824,0.602431 0.03043,1.353264 0.634458,0.850274 3.328803,2.569966 4.02931,2.571746 0.249647,5.57e-4 0.602942,-0.178426 0.785101,-0.397913 z m 4.115963,-9.36196 c 0.126938,0 1.457843,-2.408929 1.730611,-3.132388 0.244583,-0.648704 0.203096,-0.806889 -0.279324,-1.065074 -0.311614,-0.166771 -4.417727,-1.161888 -9.124698,-2.211377 -16.183135,-3.608262 -18.464651,-3.990829 -19.434701,-3.258833 -0.556855,0.420204 -0.556815,0.422181 0.02454,1.202146 1.415637,1.899278 6.487579,3.893765 14.351775,5.643686 2.692949,0.599227 5.956881,1.528945 7.256986,2.067126 2.727905,1.12922 3.429581,1.278586 4.580191,0.974987 0.45915,-0.121151 0.861731,-0.220273 0.894623,-0.220273 z m 5.828636,-8.49882 c 0.761405,-0.226113 2.985315,-0.586596 4.942024,-0.801071 1.95671,-0.214477 3.646879,-0.479525 3.755926,-0.588996 0.986051,-0.98986 -8.942949,-4.221878 -14.942255,-4.863899 -3.050374,-0.326437 -15.350516,-0.37481 -17.885445,-0.07034 -0.831491,0.09987 -1.555546,0.314389 -1.609009,0.476707 -0.111819,0.339482 2.231314,1.188211 6.049119,2.191113 5.469565,1.436802 16.515055,3.916387 18.007282,4.042427 0.163893,0.01383 0.920956,-0.159833 1.682358,-0.385943 z"
       id="path5621"
       inkscape:connector-curvature="0"
       transform="matrix(0.26458333,0,0,0.26458333,0,87)" />
    <path
       style="opacity:1;fill:#ffffff;fill-opacity:1;fill-rule:nonzero;stroke:none;stroke-width:2.51338553;stroke-linecap:butt;stroke-linejoin:miter;stroke-miterlimit:4;stroke-dasharray:none;stroke-dashoffset:0;stroke-opacity:1;paint-order:stroke fill markers"
       d="m 55.831161,99.407584 c -1.442401,-0.149826 -1.181539,-0.663884 0.532824,-1.049991 1.93152,-0.435018 2.138175,-0.594048 1.744471,-1.342445 -0.51244,-0.9741 -4.967069,-5.45432 -6.724879,-6.763508 -0.905888,-0.674693 -2.790748,-1.648442 -4.322741,-2.233197 -3.927764,-1.499213 -7.528562,-3.409265 -8.874625,-4.70757 -1.037808,-1.000985 -1.224681,-1.383364 -1.642364,-3.360597 -0.823848,-3.899931 -1.224423,-4.986111 -2.365578,-6.414389 -2.691667,-3.368909 -3.080998,-4.083483 -3.080998,-5.654839 0,-0.928619 0.20756,-1.885838 0.557773,-2.572312 0.306775,-0.601329 0.557773,-1.342911 0.557773,-1.647957 0,-0.602869 0.109173,-0.562815 -6.459077,-2.369746 -6.723637,-1.849675 -11.00388,-3.994731 -12.016719,-6.02221 -0.563071,-1.127142 -0.655118,-3.900949 -0.17514,-5.277813 0.238177,-0.683236 0.890464,-1.270893 2.719143,-2.449724 1.323189,-0.852974 3.096042,-2.085101 3.939674,-2.738059 3.02377,-2.340353 3.850826,-2.588505 9.724784,-2.917857 2.510961,-0.140789 4.636076,-0.326672 4.722477,-0.413074 0.0864,-0.0864 0.0086,-0.305601 -0.172921,-0.487109 -0.551589,-0.551589 -0.374979,-1.589316 0.576365,-3.386618 1.040821,-1.966344 4.534342,-5.767954 6.194061,-6.740308 0.619691,-0.363048 5.017176,-1.93287 9.77219,-3.488494 7.895664,-2.583101 8.88131,-2.841852 11.364625,-2.983429 2.666514,-0.152022 2.719143,-0.143087 2.719143,0.461639 0,0.339163 -0.121561,0.843798 -0.270133,1.12141 -0.409519,0.765194 -2.663859,2.077947 -5.307597,3.090736 -7.671364,2.938819 -10.538205,4.445449 -13.237966,6.957028 -0.938227,0.872829 -2.884088,2.21806 -4.372385,3.022761 -1.474982,0.797499 -2.826415,1.624267 -3.003186,1.837263 -0.381535,0.459722 0.257527,0.628781 6.393408,1.691329 7.466932,1.293045 11.154614,2.552122 19.708662,6.72908 6.895059,3.366868 9.981543,5.524309 14.907958,10.420602 4.593414,4.565327 6.468546,6.977723 9.844782,12.66551 l 2.339384,3.941056 0.18952,6.281829 0.18952,6.281829 -2.074625,2.373006 c -3.440126,3.934898 -8.447104,7.779753 -10.143604,7.78926 -0.809995,0.0045 -1.278878,-0.638747 -1.070561,-1.468753 0.217258,-0.865624 2.461003,-3.644784 6.379481,-7.901785 1.67324,-1.817791 3.280101,-3.842766 3.570801,-4.499945 0.494608,-1.118145 0.501309,-1.301184 0.104356,-2.850644 -0.851329,-3.323063 -4.314454,-9.400778 -8.720537,-15.304367 -2.747824,-3.681734 -7.804301,-8.881887 -9.340907,-9.60632 -1.687687,-0.795661 -3.767734,-1.07383 -8.17802,-1.093659 -4.43316,-0.01994 -8.061546,0.39379 -9.543066,1.088131 -1.161428,0.544328 -2.360305,2.37596 -5.119767,7.821924 -2.398625,4.733827 -2.760092,6.010269 -1.743158,6.155568 1.493005,0.213315 5.639754,-3.185117 8.596048,-7.044823 1.514242,-1.976976 1.677617,-2.105018 2.685867,-2.105018 1.260653,0 5.847541,1.423991 7.130851,2.213759 1.295531,0.797292 1.703648,1.585754 2.152945,4.159399 0.47114,2.698743 1.541389,5.10714 3.304719,7.436653 1.601118,2.115215 3.398962,3.633381 6.836199,5.77273 4.378654,2.725293 4.964383,3.514673 3.478375,4.68777 -1.118142,0.882698 -2.870634,0.633301 -5.820216,-0.828274 -2.048728,-1.015185 -2.92251,-1.706785 -6.268542,-4.961569 -2.138393,-2.080074 -3.828303,-3.841636 -3.755357,-3.914581 0.161997,-0.161997 -1.222951,-2.015995 -1.505959,-2.015995 -0.111142,0 -0.03811,0.847117 0.162292,1.882483 0.523102,2.702553 0.476394,4.238944 -0.16063,5.283692 -0.928965,1.523548 -1.602412,1.769766 -6.054785,2.213681 -2.26598,0.225925 -4.173176,0.463983 -4.23821,0.529017 -0.06503,0.06503 0.872413,1.199128 2.083213,2.52021 5.35213,5.839615 8.088151,9.549603 8.383132,11.367363 l 0.166244,1.024451 -3.452849,-0.04688 c -1.899066,-0.0258 -3.931248,-0.09658 -4.515958,-0.157309 z M 44.758439,82.105667 c 0.0025,-0.392318 0.24315,-0.731349 0.631764,-0.890576 0.345122,-0.141407 3.271601,-0.378524 6.503284,-0.526931 6.275869,-0.288201 7.929092,-0.633268 7.929092,-1.654991 0,-0.728607 -1.031033,-1.133626 -4.032967,-1.584264 -6.979385,-1.047716 -14.680726,-1.262361 -15.224757,-0.424335 -0.55025,0.847612 0.579884,3.144206 2.667927,5.421615 1.069649,1.166657 1.516166,1.066997 1.525657,-0.340518 z m 13.5324,-9.546694 c 0.911479,-0.346544 0.833993,-1.076552 -0.17434,-1.642516 -0.671135,-0.376697 -0.823873,-0.350172 -2.019955,0.350778 -1.740595,1.020058 -1.7117,1.571436 0.08235,1.571436 0.756953,0 1.707326,-0.125864 2.11194,-0.279698 z M 40.536791,70.798377 c 0.167508,-0.201836 0.387187,-1.069973 0.488169,-1.929189 0.168278,-1.431759 0.123463,-1.622358 -0.536623,-2.282446 -1.19571,-1.195712 -3.83478,-0.715603 -4.871616,0.886262 -0.381669,0.589661 -0.345726,0.688763 0.556296,1.533876 0.951827,0.891773 3.133588,2.147085 3.744751,2.154604 0.172954,0.0022 0.451514,-0.161272 0.619023,-0.363107 z m 4.249824,-9.696844 c 0.319921,-0.319922 0.883445,-1.229789 1.25227,-2.021927 0.576795,-1.238797 0.613731,-1.482628 0.264069,-1.743236 -0.4178,-0.311388 -3.342254,-1.007419 -15.205683,-3.618996 -9.25964,-2.038389 -12.348854,-2.534092 -13.24573,-2.125448 -0.919723,0.419054 -0.881343,0.772422 0.192886,1.775901 2.000426,1.868678 5.810464,3.298956 13.652224,5.125004 2.860554,0.666115 6.311775,1.651329 7.669379,2.189362 2.907207,1.152161 4.559907,1.280017 5.420585,0.41934 z m 6.282919,-8.376874 c 0.477693,-0.144639 2.468374,-0.44027 4.423733,-0.656962 1.95536,-0.216689 3.627778,-0.466563 3.716489,-0.555274 0.595735,-0.595733 -3.468514,-2.289294 -8.735093,-3.63989 -4.985899,-1.278616 -9.176829,-1.624015 -17.756779,-1.463442 -8.906611,0.166686 -9.632362,0.389332 -5.591844,1.715466 3.456305,1.134391 18.117062,4.642832 20.843863,4.988113 0.924693,0.117088 1.788602,0.009 3.099631,-0.388011 z"
       id="path5623"
       inkscape:connector-curvature="0"
       transform="matrix(0.26458333,0,0,0.26458333,0,87)" />
    <path
       style="opacity:1;fill:#ffffff;fill-opacity:1;fill-rule:nonzero;stroke:none;stroke-width:2.51338553;stroke-linecap:butt;stroke-linejoin:miter;stroke-miterlimit:4;stroke-dasharray:none;stroke-dashoffset:0;stroke-opacity:1;paint-order:stroke fill markers"
       d="m 55.692075,99.408766 c -1.326644,-0.16343 -0.960856,-0.683444 0.75212,-1.069239 0.806891,-0.181728 1.589477,-0.452817 1.73908,-0.60242 0.666227,-0.666226 -5.502645,-6.877031 -8.324449,-8.381038 -0.935126,-0.498418 -2.558426,-1.22903 -3.607338,-1.623588 -3.064471,-1.152727 -6.801344,-3.202255 -8.061848,-4.421608 -1.086565,-1.05109 -1.21865,-1.348776 -1.902605,-4.287981 -0.860522,-3.697979 -1.148502,-4.325102 -3.095973,-6.741994 -0.803373,-0.997019 -1.603129,-2.086885 -1.777235,-2.421923 -0.496806,-0.95602 -0.368968,-3.431634 0.247342,-4.789858 0.929347,-2.048098 1.03261,-1.959769 -3.631649,-3.106466 -5.533388,-1.36037 -11.23152,-3.624077 -13.117926,-5.211382 -1.184181,-0.996422 -1.663058,-2.211782 -1.663058,-4.220738 0,-2.803349 0.240912,-3.1521 3.941194,-5.705386 4.595325,-3.170888 6.073065,-4.07162 7.210439,-4.395004 0.538961,-0.15324 3.049627,-0.411373 5.579258,-0.57363 2.529632,-0.162257 4.654747,-0.350429 4.722478,-0.41816 0.06773,-0.06773 -0.02536,-0.271656 -0.206867,-0.453164 -0.995653,-0.995654 0.426864,-3.966532 3.408419,-7.118363 1.212509,-1.281754 2.731062,-2.639012 3.374562,-3.016128 1.226833,-0.718972 13.743632,-4.970787 17.551261,-5.961965 1.260321,-0.328079 3.09219,-0.576308 4.253019,-0.576308 1.936016,0 2.039123,0.03212 2.039123,0.635162 0,1.569675 -1.529768,2.579941 -7.30327,4.823115 -5.474344,2.126944 -9.101648,4.075866 -11.250264,6.044683 -0.976725,0.894991 -3.062715,2.356851 -4.635534,3.248577 -1.572818,0.891725 -2.904061,1.754494 -2.958317,1.917263 -0.133363,0.400088 0.175331,0.477629 5.788671,1.45406 8.055171,1.401183 11.300207,2.489856 19.940384,6.689777 6.510599,3.16475 10.164799,5.628255 14.387497,9.699443 5.145065,4.960459 7.479674,7.962543 11.332053,14.571941 l 1.706805,2.928308 0.196991,6.307378 0.196992,6.307375 -2.275923,2.538369 c -3.552498,3.962157 -8.279462,7.563139 -9.940716,7.572802 -0.679069,0.004 -1.241045,-0.495065 -1.241045,-1.102 0,-0.765602 1.794121,-3.10971 5.448287,-7.118461 4.199311,-4.606789 4.92629,-5.631699 4.92629,-6.945185 0,-4.262819 -7.666157,-16.517579 -14.633759,-23.392836 -2.834393,-2.79683 -3.829438,-3.388187 -6.476877,-3.849219 -2.680453,-0.466778 -11.78292,-0.191258 -13.719491,0.415275 -2.036761,0.637914 -2.993074,1.884132 -5.952779,7.757367 -3.232914,6.415385 -3.292082,7.466706 -0.339796,6.037527 1.42327,-0.688991 5.581105,-4.69224 7.279203,-7.008562 1.108986,-1.512736 1.242219,-1.603597 2.351378,-1.603597 1.308842,0 5.707972,1.376993 7.088346,2.218757 1.23354,0.752226 1.734066,1.622288 2.045404,3.555509 0.959746,5.959473 4.242212,10.258879 10.819278,14.171201 2.864742,1.704072 3.805306,2.642952 3.573387,3.566986 -0.432255,1.722247 -3.201059,1.661302 -6.676774,-0.146964 -1.846867,-0.960845 -2.985949,-1.877473 -6.112581,-4.918838 -2.1135,-2.05586 -3.843351,-3.878544 -3.844113,-4.050405 -8.36e-4,-0.171864 -0.32314,-0.688976 -0.716398,-1.149138 l -0.715015,-0.83666 0.171292,1.115546 c 0.09421,0.613551 0.236976,2.056788 0.317256,3.207195 0.124121,1.778629 0.06162,2.225023 -0.41768,2.982878 -0.953747,1.508048 -1.650826,1.7722 -5.805114,2.199795 -2.116932,0.217894 -4.033956,0.428386 -4.26005,0.467759 -0.262725,0.04575 0.44181,1.010752 1.952206,2.673933 5.19944,5.725403 7.601631,8.957525 8.24413,11.092387 l 0.367421,1.220848 -3.681906,-0.04463 c -2.025048,-0.02454 -4.097398,-0.09582 -4.605216,-0.158375 z M 44.712966,82.2145 c 0.0546,-0.462901 0.327441,-0.859985 0.697216,-1.014703 0.334134,-0.139806 3.196589,-0.382334 6.361011,-0.538948 6.210542,-0.307378 7.911942,-0.639551 7.911942,-1.544691 0,-0.323405 -0.307664,-0.700259 -0.741422,-0.908152 -0.984338,-0.471781 -5.142625,-1.080867 -10.123197,-1.482795 -4.848032,-0.391236 -7.507103,-0.27588 -8.135931,0.352947 -0.410933,0.410934 -0.389826,0.573932 0.257379,1.987613 0.758334,1.656421 2.878747,4.172856 3.378252,4.009191 0.167776,-0.05497 0.345415,-0.44218 0.39475,-0.860462 z m 13.434829,-9.625022 c 0.382663,-0.106476 0.735463,-0.39979 0.783998,-0.651808 0.118945,-0.617639 -1.15707,-1.425835 -1.885928,-1.194504 -0.820579,0.26044 -2.273452,1.542116 -2.08809,1.842039 0.179151,0.289869 2.154113,0.292516 3.19002,0.0043 z M 40.537212,70.677301 c 0.445628,-0.848532 0.63999,-2.717024 0.359396,-3.455041 -0.604041,-1.588747 -3.344911,-1.717581 -4.835213,-0.227279 -0.642152,0.642153 -0.751744,0.914743 -0.53248,1.324443 0.416191,0.777661 3.575742,2.807163 4.413189,2.834762 0.186338,0.0061 0.454137,-0.208457 0.595108,-0.476885 z m 4.147601,-9.621584 c 0.91434,-0.994177 1.749036,-2.523758 1.750171,-3.207194 5.58e-4,-0.345122 -0.04301,-0.627495 -0.09685,-0.627495 -0.05385,0 -1.399857,-0.322139 -2.991139,-0.715862 -6.138247,-1.518763 -19.801877,-4.429934 -22.763207,-4.849926 -3.162058,-0.44846 -4.055915,0.144397 -2.508857,1.664021 1.83107,1.798598 6.712329,3.614715 14.277333,5.312007 2.147426,0.481799 5.033901,1.289033 6.414389,1.793853 1.380488,0.504821 2.698227,0.9845 2.928308,1.065955 1.062332,0.376098 2.426212,0.1775 2.989856,-0.435359 z m 6.215239,-8.299865 c 0.766533,-0.221776 7.208476,-1.098562 8.155589,-1.110024 0.11504,-0.0014 0.209165,-0.134622 0.209165,-0.296068 0,-0.813505 -7.596062,-3.411528 -12.689335,-4.340037 -2.327749,-0.424351 -4.264437,-0.507398 -11.713233,-0.502273 -5.582839,0.0038 -9.181555,0.115535 -9.611251,0.298306 l -0.686884,0.292166 0.603447,0.322955 c 1.04834,0.561054 6.948039,2.154805 13.877986,3.749013 3.681301,0.846871 6.944273,1.599022 7.251048,1.671452 1.040545,0.245668 3.624755,0.197677 4.603468,-0.08549 z"
       id="path5625"
       inkscape:connector-curvature="0"
       transform="matrix(0.26458333,0,0,0.26458333,0,87)" />
    <path
       style="opacity:1;fill:#ffffff;fill-opacity:1;fill-rule:nonzero;stroke:none;stroke-width:2.51338553;stroke-linecap:butt;stroke-linejoin:miter;stroke-miterlimit:4;stroke-dasharray:none;stroke-dashoffset:0;stroke-opacity:1;paint-order:stroke fill markers"
       d="m 55.553024,99.410423 c -1.210757,-0.182007 -0.736006,-0.718808 1.013323,-1.145758 1.264898,-0.308716 1.582913,-0.497829 1.582913,-0.941303 0,-0.338175 -1.28012,-1.824445 -3.276917,-3.804631 -3.421334,-3.392871 -4.846338,-4.349965 -8.545664,-5.739634 -3.102944,-1.165637 -7.376156,-3.528742 -8.369712,-4.628489 -0.748522,-0.828525 -1.058109,-1.594693 -1.696515,-4.198547 -0.898014,-3.662711 -1.090116,-4.102688 -2.656516,-6.084333 -2.263947,-2.864108 -2.506665,-3.345012 -2.506665,-4.966511 0,-0.936475 0.231647,-2.051455 0.607939,-2.926169 0.5743,-1.334998 0.581006,-1.432888 0.121184,-1.769116 -0.267715,-0.195759 -1.513904,-0.621761 -2.769309,-0.946675 -6.775915,-1.753682 -12.206405,-3.858623 -14.10343,-5.466704 -0.519366,-0.440259 -1.115486,-1.21017 -1.324711,-1.710916 -0.469242,-1.123056 -0.497515,-4.270617 -0.04724,-5.258868 0.506567,-1.111795 8.882447,-6.838351 10.818463,-7.396542 0.538961,-0.155393 2.925162,-0.409262 5.302669,-0.564153 4.840918,-0.315379 5.273984,-0.395103 4.787705,-0.881382 -0.990216,-0.990216 0.375041,-3.888188 3.300003,-7.004778 1.150407,-1.225775 2.653937,-2.586533 3.341178,-3.023906 1.23576,-0.786459 14.752604,-5.407027 18.184054,-6.215996 0.968985,-0.228439 2.671657,-0.417199 3.783717,-0.419467 1.919327,-0.0039 2.021927,0.02811 2.021927,0.63104 0,1.60093 -1.379819,2.506454 -7.517742,4.933613 -5.495871,2.173268 -8.263945,3.650265 -10.576829,5.643616 -1.755217,1.512726 -2.848786,2.253546 -6.517161,4.414931 -0.881979,0.519657 -1.603598,1.030209 -1.603598,1.134559 0,0.257344 0.498676,0.3697 6.624968,1.492663 7.782671,1.42658 12.294959,3.017735 20.842311,7.349561 5.913202,2.996831 8.919635,5.1796 13.691567,9.94053 4.736633,4.725712 6.275969,6.689544 9.629055,12.284397 l 2.339974,3.904411 0.182738,3.346638 c 0.100508,1.84065 0.194632,4.812925 0.209165,6.605058 l 0.02643,3.258417 -3.416359,3.450099 c -3.45759,3.491735 -6.681437,5.927225 -8.265103,6.243959 -0.956441,0.191288 -1.705089,-0.23888 -1.705089,-0.979731 0,-0.778447 1.745168,-3.080521 5.309639,-7.004013 4.085952,-4.497497 5.009161,-5.845617 5.009161,-7.314646 0,-2.477661 -3.034188,-8.386914 -7.669142,-14.936095 C 78.307367,63.900002 72.293955,57.784845 70.280822,57.0875 67.374766,56.080848 56.43886,56.250991 53.824023,57.34354 c -1.32919,0.555372 -2.589146,2.407156 -5.298612,7.78749 -2.349791,4.666111 -2.742653,5.908165 -1.963335,6.207215 1.145417,0.439539 5.688693,-3.301165 8.767156,-7.218435 1.399229,-1.780487 1.537214,-1.878889 2.63632,-1.880066 1.355937,-0.0014 5.14502,1.146781 6.711319,2.033777 1.544844,0.874844 2.039045,1.701573 2.536029,4.24241 1.044522,5.340138 3.950176,9.188113 9.89996,13.110568 4.050882,2.670586 4.59726,3.188623 4.360022,4.133853 -0.430339,1.714608 -3.201302,1.650955 -6.683077,-0.153516 -1.869061,-0.968665 -2.96613,-1.852528 -6.112581,-4.924655 -2.109079,-2.059262 -3.838864,-3.882109 -3.843967,-4.050771 -0.01277,-0.421724 -1.08447,-1.676409 -1.271865,-1.489011 -0.08341,0.08341 -0.01751,0.877229 0.146415,1.764046 0.628784,3.401392 0.190335,5.298935 -1.476765,6.391261 -0.575889,0.377339 -6.320934,1.239916 -8.334801,1.251411 -0.268428,0.0014 -0.488052,0.130837 -0.488052,0.287343 0,0.156505 1.108028,1.505619 2.462286,2.998029 4.823774,5.31587 7.497094,9.010786 7.966128,11.010347 l 0.179898,0.766938 -3.840002,-0.04179 c -2.112001,-0.02298 -4.192564,-0.09479 -4.623475,-0.159565 z M 44.667078,82.310906 c 0.09312,-0.46561 0.373934,-0.956074 0.624023,-1.089917 0.250088,-0.133843 3.025862,-0.38495 6.168383,-0.558015 3.142521,-0.173063 6.169675,-0.436497 6.72701,-0.585403 1.683141,-0.449696 1.940567,-1.197633 0.646406,-1.878071 -1.568709,-0.824788 -14.276657,-2.018227 -16.719613,-1.570187 -1.244297,0.228207 -1.404054,0.339438 -1.483807,1.033101 -0.05439,0.473051 0.203829,1.277669 0.659616,2.055413 0.836099,1.426694 2.56558,3.439644 2.955263,3.439644 0.139373,0 0.329599,-0.380953 0.422719,-0.846565 z M 58.591141,72.237425 c 0.562913,-0.562912 -0.09449,-1.420681 -1.088817,-1.420681 -0.998609,0 -2.904876,1.434999 -2.37939,1.791157 0.539668,0.365771 2.994151,0.103581 3.468207,-0.370476 z M 40.580613,70.605331 c 0.164844,-0.30801 0.326133,-1.182938 0.358422,-1.944282 0.0452,-1.065776 -0.06985,-1.512856 -0.500035,-1.94318 -0.889637,-0.889916 -2.053296,-0.969262 -3.485113,-0.23764 -2.10964,1.077975 -1.772036,2.119705 1.254989,3.872462 1.656191,0.958996 1.975505,0.993009 2.371737,0.25264 z m 4.008522,-9.549614 c 0.787564,-0.711897 1.846892,-2.615832 1.846892,-3.319429 0,-0.523353 -2.027323,-1.053954 -14.22321,-3.722555 -9.127877,-1.997282 -11.196122,-2.370435 -13.138473,-2.370435 -1.400084,0 -1.642511,0.07462 -1.642511,0.505597 0,0.534831 1.013375,1.57966 2.317092,2.389011 1.639934,1.018072 5.837121,2.40884 11.348346,3.760352 3.144445,0.77111 6.909412,1.841624 8.366594,2.378921 3.150221,1.161562 4.175268,1.237269 5.12527,0.378538 z m 6.310917,-8.299728 c 0.861441,-0.249116 7.076418,-1.112691 8.007818,-1.112691 0.196314,0 0.356936,-0.133369 0.356936,-0.296376 0,-0.470798 -3.374142,-1.875199 -7.040939,-2.930614 -5.871436,-1.689976 -7.682831,-1.884011 -17.501072,-1.874693 -5.215031,0.005 -9.068249,0.122207 -9.48214,0.288554 -0.693076,0.278553 -0.690592,0.283012 0.418329,0.750806 2.75338,1.161502 20.477812,5.397716 22.731089,5.432827 0.844644,0.01316 1.974135,-0.102856 2.509979,-0.257813 z"
       id="path5627"
       inkscape:connector-curvature="0"
       transform="matrix(0.26458333,0,0,0.26458333,0,87)" />
    <path
       style="opacity:1;fill:#ffffff;fill-opacity:1;fill-rule:nonzero;stroke:none;stroke-width:2.51338553;stroke-linecap:butt;stroke-linejoin:miter;stroke-miterlimit:4;stroke-dasharray:none;stroke-dashoffset:0;stroke-opacity:1;paint-order:stroke fill markers"
       d="m 55.414044,99.412847 c -1.00376,-0.191788 -0.568186,-0.716186 0.90758,-1.092658 1.80509,-0.460481 2.028286,-0.729712 1.402805,-1.692124 -0.825928,-1.270836 -5.283008,-5.557293 -6.883395,-6.61989 -0.814491,-0.540791 -2.609441,-1.436845 -3.988774,-1.991233 -3.570955,-1.43525 -7.355096,-3.43708 -8.568039,-4.532541 -1.080994,-0.976286 -1.285036,-1.481144 -2.480957,-6.138562 -0.465389,-1.812419 -0.869212,-2.673927 -1.830155,-3.90441 -2.473673,-3.167535 -2.875838,-3.940521 -2.875838,-5.527547 0,-0.827724 0.251912,-2.108059 0.577092,-2.933044 0.722782,-1.833715 0.723496,-1.833093 -3.289654,-2.873289 -1.652536,-0.428331 -4.430666,-1.269137 -6.173622,-1.868456 -5.29678,-1.82131 -7.822372,-3.339069 -8.582143,-5.157456 -0.468169,-1.120485 -0.497889,-4.269798 -0.04958,-5.25373 0.333515,-0.731985 7.121518,-5.652289 9.404966,-6.817217 1.233782,-0.629429 3.594834,-1.008126 8.372588,-1.342907 l 2.909069,-0.203841 0.02017,-1.394433 c 0.01457,-1.007319 0.242548,-1.773221 0.821218,-2.758878 1.042713,-1.776068 4.706492,-5.601884 6.206402,-6.480889 1.306402,-0.765604 13.005263,-4.760559 17.075182,-5.830875 1.64253,-0.431956 3.374356,-0.686444 4.671349,-0.686444 h 2.061116 v 0.811868 c 0,1.421062 -1.385202,2.335778 -6.804036,4.493039 -6.778595,2.698587 -8.735773,3.754752 -11.956106,6.451949 -1.064337,0.891438 -3.037308,2.251508 -4.384377,3.022377 -1.347072,0.77087 -2.595888,1.578304 -2.775148,1.794299 -0.366085,0.441105 -0.272127,0.465538 6.537056,1.699878 7.045663,1.277209 10.642261,2.490194 18.191634,6.135296 8.306682,4.010755 11.440986,6.214271 17.104251,12.024829 3.866443,3.967007 5.573775,6.208334 8.730429,11.461027 l 2.385774,3.969941 0.192395,6.501697 0.192393,6.501697 -3.318613,3.36092 c -4.870864,4.932963 -8.500995,7.256344 -9.736055,6.231336 -1.014572,-0.842019 -0.309171,-1.982464 4.744127,-7.670003 4.331623,-4.875281 5.1594,-6.043308 5.1594,-7.280106 0,-2.769599 -3.559646,-9.510372 -8.598483,-16.282639 -2.708755,-3.640606 -8.328647,-9.420281 -9.841851,-10.121672 -2.912939,-1.350187 -13.627258,-1.365947 -16.978685,-0.02496 -1.461805,0.5849 -2.540162,2.089186 -5.136609,7.165469 -3.231686,6.318238 -3.39674,7.4791 -0.906797,6.37768 1.430822,-0.632919 5.380638,-4.296721 7.490122,-6.947746 1.295765,-1.62841 1.467762,-1.747603 2.521797,-1.747603 1.36214,0 4.606382,0.931311 6.392932,1.83519 1.699012,0.859595 2.366759,1.756045 2.74842,3.689763 1.201287,6.086441 3.943517,9.867604 10.038148,13.841248 4.580591,2.9865 5.12314,3.678195 3.868898,4.932436 -0.508962,0.508963 -0.819519,0.572775 -2.185009,0.448955 -1.574462,-0.142768 -4.082544,-1.187691 -5.959096,-2.482698 -1.258517,-0.868514 -7.995798,-7.533137 -7.995798,-7.90958 0,-0.172575 -0.33234,-0.618021 -0.738533,-0.989883 l -0.738536,-0.676107 0.188608,0.697216 c 0.103738,0.383469 0.256905,1.763957 0.340375,3.067751 0.131995,2.061758 0.07822,2.486622 -0.412863,3.261765 -0.96309,1.520174 -1.660727,1.781379 -6.024375,2.2556 -2.226961,0.242018 -4.049022,0.525255 -4.049022,0.629419 0,0.104161 1.332475,1.681596 2.961055,3.505411 4.669715,5.22952 7.622464,9.451644 7.633907,10.915683 0.002,0.264466 -0.956489,0.339442 -3.971408,0.31063 -2.185772,-0.02089 -4.263736,-0.09332 -4.617699,-0.160948 z M 44.667078,82.310906 c 0.09312,-0.46561 0.384479,-0.961715 0.64746,-1.102458 0.262979,-0.140743 2.850505,-0.387452 5.750054,-0.548244 6.173509,-0.342341 7.440764,-0.498799 8.117914,-1.002259 0.720899,-0.535986 0.170411,-1.290575 -1.239235,-1.698706 -2.957287,-0.856215 -14.723022,-1.665167 -16.596922,-1.141123 -0.937485,0.262173 -0.995091,0.955758 -0.212297,2.556059 0.613838,1.254894 2.685289,3.783296 3.099556,3.783296 0.145286,0 0.34035,-0.380953 0.43347,-0.846565 z m 13.814768,-9.923752 c 0.513076,-0.3171 0.203562,-1.216603 -0.477443,-1.387524 -1.218555,-0.305839 -3.228853,0.839481 -2.771727,1.579127 0.189417,0.30648 2.680989,0.159551 3.24917,-0.191603 z M 40.286092,70.901289 c 0.260011,-0.164496 0.443893,-0.883647 0.516166,-2.018709 0.09652,-1.515779 0.03087,-1.836858 -0.467878,-2.288216 -1.154499,-1.044807 -3.652093,-0.493364 -4.604583,1.016647 -0.378505,0.600055 0.557416,1.636277 2.479079,2.744753 1.569799,0.905511 1.526267,0.89408 2.077216,0.545525 z m 3.749002,-9.485407 c 0.676902,-0.257356 2.392723,-2.814483 2.398317,-3.574262 0.004,-0.54271 -0.913489,-0.8093 -9.340081,-2.713894 -14.889619,-3.365379 -19.188491,-4.035914 -19.566089,-3.051908 -0.244157,0.636263 0.826721,1.629679 2.934538,2.722269 2.344216,1.215131 5.027683,2.080817 11.332708,3.655929 2.760976,0.689745 6.274946,1.695758 7.808822,2.235585 3.036248,1.06857 3.382326,1.125284 4.431785,0.726281 z m 6.499449,-8.632721 c 0.488202,-0.140015 2.558106,-0.465144 4.599786,-0.722509 2.041681,-0.257362 3.817123,-0.567804 3.945427,-0.689868 0.511199,-0.486336 -5.509489,-2.723878 -10.691523,-3.973425 -2.096853,-0.505614 -3.513566,-0.58565 -12.271005,-0.693235 -5.709582,-0.07014 -10.19123,-0.01254 -10.587354,0.136085 l -0.686884,0.257713 0.603446,0.322955 c 1.057677,0.566051 6.97625,2.167288 13.877986,3.754612 8.845931,2.034468 9.429936,2.118221 11.210121,1.607672 z"
       id="path5629"
       inkscape:connector-curvature="0"
       transform="matrix(0.26458333,0,0,0.26458333,0,87)" />
  </g>
</svg>
