<?xml version="1.0" encoding="UTF-8" standalone="no"?>
<!-- Created with Inkscape (http://www.inkscape.org/) -->

<svg
   xmlns:dc="http://purl.org/dc/elements/1.1/"
   xmlns:cc="http://creativecommons.org/ns#"
   xmlns:rdf="http://www.w3.org/1999/02/22-rdf-syntax-ns#"
   xmlns:svg="http://www.w3.org/2000/svg"
   xmlns="http://www.w3.org/2000/svg"
   xmlns:sodipodi="http://sodipodi.sourceforge.net/DTD/sodipodi-0.dtd"
   xmlns:inkscape="http://www.inkscape.org/namespaces/inkscape"
   width="297mm"
   height="210mm"
   viewBox="0 0 297 210"
   version="1.1"
   id="svg1549"
   sodipodi:docname="I.svg"
   inkscape:version="0.92.2 (5c3e80d, 2017-08-06)">
  <defs
     id="defs1543">
    <inkscape:path-effect
       effect="spiro"
       id="path-effect6202"
       is_visible="true" />
  </defs>
  <sodipodi:namedview
     id="base"
     pagecolor="#ffffff"
     bordercolor="#666666"
     borderopacity="1.0"
     inkscape:pageopacity="0.0"
     inkscape:pageshadow="2"
     inkscape:zoom="3.5856883"
     inkscape:cx="57.923205"
     inkscape:cy="743.03493"
     inkscape:document-units="mm"
     inkscape:current-layer="layer1"
     showgrid="false"
     inkscape:window-width="1366"
     inkscape:window-height="705"
     inkscape:window-x="-8"
     inkscape:window-y="-8"
     inkscape:window-maximized="1" />
  <metadata
     id="metadata1546">
    <rdf:RDF>
      <cc:Work
         rdf:about="">
        <dc:format>image/svg+xml</dc:format>
        <dc:type
           rdf:resource="http://purl.org/dc/dcmitype/StillImage" />
        <dc:title />
      </cc:Work>
    </rdf:RDF>
  </metadata>
  <g
     inkscape:label="Capa 1"
     inkscape:groupmode="layer"
     id="layer1"
     transform="translate(0,-87)">
    <path
       style="opacity:1;fill:#216778;fill-opacity:1;fill-rule:nonzero;stroke:none;stroke-width:0.66499996;stroke-linecap:butt;stroke-linejoin:miter;stroke-miterlimit:4;stroke-dasharray:none;stroke-dashoffset:0;stroke-opacity:1;paint-order:stroke fill markers"
       d="m 0.99315835,104.60874 v -8.533103 h 3.53369605 3.533695 l 0.01669,0.26487 c 0.0092,0.14568 0.05588,1.66939 0.103775,3.38603 0.183518,6.577353 0.268764,8.002373 0.561782,9.391033 0.205695,0.97481 0.478549,1.62171 1.184087,2.8073 0.3157906,0.53065 0.5443166,0.96451 0.5443166,1.03338 0,0.0495 -0.08889,0.0653 -0.5484756,0.0975 -0.856517,0.0599 -2.550269,0.0854 -5.6867,0.0858 l -3.24286305,2e-4 z"
       id="path2366"
       inkscape:connector-curvature="0" />
    <path
       style="opacity:1;fill:#216778;fill-opacity:1;fill-rule:nonzero;stroke:none;stroke-width:0.66499996;stroke-linecap:butt;stroke-linejoin:miter;stroke-miterlimit:4;stroke-dasharray:none;stroke-dashoffset:0;stroke-opacity:1;paint-order:stroke fill markers"
       d="m 20.132611,113.11263 c -0.454205,-0.0479 -0.708761,-0.17587 -0.861465,-0.43304 -0.213484,-0.35953 -0.231238,-0.68571 -0.05836,-1.0723 0.451593,-1.00988 1.051435,-4.2579 1.051435,-5.69329 0,-0.39299 0.05356,-0.98708 0.117687,-1.30526 0.01746,-0.0866 0.08423,-0.31856 0.1484,-0.51542 0.104383,-0.32027 0.116734,-0.38807 0.117366,-0.64428 7.94e-4,-0.35234 -0.04187,-0.50053 -0.352854,-1.22347 -0.274198,-0.63743 -0.549592,-1.39059 -0.746252,-2.04087 -0.31192,-1.031423 -0.439076,-1.397233 -0.592119,-1.703453 -0.173146,-0.34644 -0.375803,-0.5969 -0.558339,-0.69002 -0.216919,-0.11066 -0.628827,-0.15102 -1.541402,-0.15099 -1.278302,2e-5 -2.236023,0.11291 -2.70623,0.31898 -0.270192,0.11842 -0.549624,0.15152 -1.216996,0.14419 -0.503864,-0.005 -0.580252,1.4e-4 -0.786296,0.0585 -0.283755,0.0803 -0.436301,0.16265 -0.672444,0.36283 -0.105759,0.0897 -0.212638,0.15666 -0.249894,0.15666 -0.144642,0 -0.189711,-0.18883 -0.338307,-1.41741 -0.14621,-1.20882 -0.258787,-1.85712 -0.352394,-2.02935 -0.138957,-0.25565 -0.439738,-0.4166 -0.8232716,-0.44053 -0.4538,-0.0283 -0.699762,0.0533 -1.265256,0.42006 l -0.379093,0.24583 -2.64e-4,0.30783 -2.65e-4,0.30782 H 4.5296294 0.99326135 v -0.58701 -0.58701 l 0.85187905,-1.7e-4 c 0.905391,-1.7e-4 1.239203,-0.0301 1.62501,-0.1455 0.380701,-0.1139 0.448778,-0.19818 0.553442,-0.68516 0.0981,-0.45645 0.11947,-0.78652 0.11947,-1.84537 v -1.017658 l 0.823243,0.002 c 1.823003,0.004 17.5314156,0.132 17.5424496,0.143528 0.0065,0.007 0.03861,4.45146 0.0713,9.877003 0.03269,5.42553 0.06522,10.32526 0.07229,10.88829 l 0.01286,1.02368 -1.16464,-0.004 c -0.640554,-0.002 -1.256081,-0.0135 -1.367835,-0.0253 z"
       id="path2368"
       inkscape:connector-curvature="0" />
    <path
       style="opacity:1;fill:#216778;fill-opacity:1;fill-rule:nonzero;stroke:none;stroke-width:0.66499996;stroke-linecap:butt;stroke-linejoin:miter;stroke-miterlimit:4;stroke-dasharray:none;stroke-dashoffset:0;stroke-opacity:1;paint-order:stroke fill markers"
       d="m 16.453408,101.29188 c -0.350044,-0.0914 -0.395066,-0.16239 -0.32416,-0.51131 0.0581,-0.28592 0.334894,-1.089633 0.471694,-1.369643 0.363604,-0.74425 0.895504,-0.96477 1.32257,-0.54833 0.152196,0.1484 0.378061,0.48544 0.44332,0.66152 0.08987,0.24249 -0.03114,0.29073 -0.500708,0.19961 -0.262284,-0.0509 -0.265573,-0.0508 -0.343614,0.007 -0.108998,0.0808 -0.146797,0.21027 -0.149262,0.511213 -0.0052,0.6378 -0.08816,0.97902 -0.258959,1.06543 -0.100322,0.0507 -0.437306,0.0428 -0.660881,-0.0155 z"
       id="path2370"
       inkscape:connector-curvature="0" />
    <path
       style="opacity:1;fill:#216778;fill-opacity:1;fill-rule:nonzero;stroke:none;stroke-width:0.66499996;stroke-linecap:butt;stroke-linejoin:miter;stroke-miterlimit:4;stroke-dasharray:none;stroke-dashoffset:0;stroke-opacity:1;paint-order:stroke fill markers"
       d="m 19.193113,104.22699 c -0.137348,-0.14563 -0.713534,-1.31262 -0.808242,-1.63699 -0.12234,-0.41901 -0.125642,-0.81931 -0.01193,-1.44604 0.112265,-0.61873 0.116136,-0.63467 0.15131,-0.62294 0.01569,0.005 0.109521,0.27961 0.208489,0.60973 0.09897,0.33012 0.220927,0.71618 0.271018,0.85793 0.114059,0.32274 0.350617,0.82457 0.450307,0.95527 0.04155,0.0545 0.09208,0.1453 0.112289,0.20184 0.04506,0.12607 0.04958,0.4349 0.0086,0.58959 -0.05558,0.20989 -0.177774,0.49945 -0.231159,0.54777 -0.0498,0.0451 -0.05818,0.0419 -0.150704,-0.0562 z"
       id="path2372"
       inkscape:connector-curvature="0" />
    <path
       style="opacity:1;fill:#216778;fill-opacity:1;fill-rule:nonzero;stroke:none;stroke-width:0.66499996;stroke-linecap:butt;stroke-linejoin:miter;stroke-miterlimit:4;stroke-dasharray:none;stroke-dashoffset:0;stroke-opacity:1;paint-order:stroke fill markers"
       d="m 13.516818,101.44848 c -0.11775,-0.10129 -0.128468,-0.35597 -0.02762,-0.65639 0.248436,-0.74008 0.952434,-1.714863 1.400016,-1.938523 0.275209,-0.13753 0.446614,-0.11215 0.508469,0.0753 0.195281,0.5917 -0.861934,2.300233 -1.574181,2.543973 -0.170866,0.0585 -0.214429,0.055 -0.306681,-0.0243 z"
       id="path2374"
       inkscape:connector-curvature="0" />
    <path
       style="opacity:1;fill:#216778;fill-opacity:1;fill-rule:nonzero;stroke:none;stroke-width:0.66499996;stroke-linecap:butt;stroke-linejoin:miter;stroke-miterlimit:4;stroke-dasharray:none;stroke-dashoffset:0;stroke-opacity:1;paint-order:stroke fill markers"
       d="m 11.119291,101.8292 c -0.08077,-0.0637 -0.08186,-0.0684 -0.06817,-0.29623 0.035,-0.58196 0.536199,-1.602863 1.055095,-2.149123 0.218223,-0.22973 0.518033,-0.41612 0.669345,-0.41612 0.0978,0 0.09499,0.0506 -0.02883,0.51922 -0.05562,0.21052 -0.152884,0.601823 -0.216135,0.869563 -0.06325,0.26773 -0.152506,0.5641 -0.198348,0.65859 -0.199779,0.41181 -0.680918,0.8188 -1.021699,0.86425 -0.08464,0.0113 -0.127611,2e-5 -0.191257,-0.0502 z"
       id="path2376"
       inkscape:connector-curvature="0" />
    <path
       style="opacity:1;fill:#216778;fill-opacity:1;fill-rule:nonzero;stroke:none;stroke-width:0.66499996;stroke-linecap:butt;stroke-linejoin:miter;stroke-miterlimit:4;stroke-dasharray:none;stroke-dashoffset:0;stroke-opacity:1;paint-order:stroke fill markers"
       d="m 1.6558104,92.586467 c -0.09192,-0.14019 -0.100881,-0.31179 -0.11638,-2.228258 -0.02162,-2.67187 0.01447,-2.886301 0.472511,-2.80825 0.329888,0.0562 0.473187,0.13904 0.543513,0.31416 0.0891,0.22187 0.132101,3.742128 0.05199,4.256688 -0.06966,0.44744 -0.163121,0.54643 -0.553969,0.58677 -0.283093,0.0292 -0.303088,0.0231 -0.397665,-0.12111 z"
       id="path2446"
       inkscape:connector-curvature="0" />
    <path
       style="opacity:1;fill:#216778;fill-opacity:1;fill-rule:nonzero;stroke:none;stroke-width:0.66499996;stroke-linecap:butt;stroke-linejoin:miter;stroke-miterlimit:4;stroke-dasharray:none;stroke-dashoffset:0;stroke-opacity:1;paint-order:stroke fill markers"
       d="m 14.039323,112.88609 c -1.331886,-0.0162 -2.432868,-0.0415 -2.446623,-0.0563 -0.01376,-0.0147 -0.08127,-0.1595 -0.150027,-0.32169 -0.06876,-0.16218 -0.292386,-0.59645 -0.496951,-0.96505 -1.1537626,-2.0789 -1.4287866,-3.04512 -1.5871106,-5.57587 -0.09713,-1.55263 -0.175099,-5.55184 -0.14695,-7.537853 0.02662,-1.87836 0.06638,-2.37531 0.200869,-2.51088 0.07318,-0.0738 0.1918,0.25114 0.313677,0.85922 0.270722,1.35069 0.3871196,3.05998 0.3065146,4.501223 -0.0587,1.04951 -0.03494,1.19834 0.238617,1.49511 0.283406,0.30746 0.413925,0.62404 0.472263,1.14547 0.05754,0.51427 0.204652,0.80314 0.575053,1.12918 0.360116,0.31699 0.722196,0.43601 1.32643,0.43601 0.507714,0 1.039792,0.1039 1.255782,0.24522 0.164308,0.10751 0.151918,0.25536 -0.05821,0.69454 -0.309656,0.64719 -0.465379,1.53792 -0.463466,2.65098 0.0021,1.28021 0.16855,1.79376 0.550029,1.69801 0.350179,-0.0879 0.491056,-0.60921 0.567137,-2.09871 0.0589,-1.15305 0.123852,-1.36795 0.612106,-2.02505 0.454014,-0.61102 0.635791,-0.99244 0.668766,-1.40324 0.03506,-0.43679 -0.05033,-0.68504 -0.343395,-0.99835 -0.406021,-0.43407 -0.876363,-0.58475 -2.314826,-0.7416 -0.581755,-0.0634 -0.871374,-0.18397 -0.943293,-0.3926 -0.06365,-0.18465 0.04866,-0.32224 0.33205,-0.40679 0.370763,-0.11062 1.533604,-0.23108 2.532949,-0.2624 1.72671,-0.0541 1.942605,0.0854 2.921677,1.88729 0.528317,0.97234 0.78922,1.35401 0.973442,1.42405 0.210063,0.0799 0.246374,0.27322 0.215855,1.14942 -0.04116,1.18185 -0.335455,2.73071 -0.686758,3.61439 -0.06547,0.16469 -0.213426,0.43605 -0.328792,0.60302 -0.121719,0.17617 -0.22166,0.39235 -0.238123,0.51508 -0.03933,0.29328 0.107866,0.76031 0.332325,1.05437 l 0.186804,0.24473 -0.978101,-0.0108 c -0.537957,-0.006 -2.06783,-0.024 -3.399719,-0.0402 z"
       id="path2448"
       inkscape:connector-curvature="0" />
    <path
       style="opacity:1;fill:#ffffff;fill-opacity:1;fill-rule:nonzero;stroke:none;stroke-width:2.51338553;stroke-linecap:butt;stroke-linejoin:miter;stroke-miterlimit:4;stroke-dasharray:none;stroke-dashoffset:0;stroke-opacity:1;paint-order:stroke fill markers"
       d="M 38.778968,96.387046 C 34.842455,89.041918 34.250595,87.775629 33.594956,85.295803 32.190885,79.985188 31.811127,74.746588 31.06442,50.388132 30.835448,42.918795 30.648107,35.697308 30.648107,34.340384 v -2.467135 l 1.853404,-1.084196 c 3.169456,-1.854053 6.333881,-1.590862 7.250553,0.603043 0.214421,0.51318 0.758237,3.523139 1.20848,6.688797 0.450244,3.165657 0.949272,5.886388 1.108952,6.046067 0.201178,0.201178 0.526058,0.102729 1.058023,-0.320616 1.695318,-1.349158 2.35217,-1.542548 5.927096,-1.745054 1.979064,-0.112106 3.993469,-0.385588 4.659788,-0.632626 1.860621,-0.689827 5.074189,-1.025949 9.792767,-1.02427 5.385614,0.0019 6.194719,0.197633 7.247407,1.753101 0.958745,1.416662 1.304497,2.280444 2.990801,7.471868 0.718291,2.211321 1.862616,5.388951 2.542942,7.061401 1.860274,4.573118 1.934064,5.138 1.100475,8.424387 -0.486378,1.917531 -0.789237,4.180107 -0.993828,7.424613 -0.433549,6.87542 -2.038058,15.601499 -3.647189,19.835138 -0.755425,1.987529 -0.707588,3.488674 0.151517,4.754632 l 0.697102,1.027237 -2.011037,-0.08194 -2.011034,-0.08194 -0.810661,-1.313081 c -0.445864,-0.722193 -0.872204,-1.859066 -0.94742,-2.526383 -0.117927,-1.046245 0.03687,-1.537439 1.124248,-3.567432 2.012913,-3.757845 3.161761,-8.825655 3.454818,-15.239919 l 0.168246,-3.682534 -1.038947,-0.919093 c -0.609027,-0.538772 -2.037335,-2.650141 -3.451686,-5.10239 -4.150182,-7.195734 -4.796836,-7.592129 -11.906704,-7.298741 -4.952562,0.204368 -8.319526,0.634135 -9.417889,1.202121 -0.62281,0.322069 -0.776621,0.573873 -0.708732,1.160271 0.120167,1.037934 0.875264,1.32775 5.177311,1.987122 4.265222,0.653726 5.394717,1.061333 6.837887,2.467621 2.312837,2.253729 2.000562,4.819936 -1.119964,9.203627 -1.613741,2.266974 -1.937191,3.424372 -2.298349,8.224145 -0.414446,5.507989 -0.942931,7.177515 -2.272026,7.177515 -1.093122,0 -1.477012,-1.254878 -1.592458,-5.205514 -0.130779,-4.475333 0.281028,-7.598775 1.372775,-10.412129 1.025017,-2.641395 1.03225,-3.190325 0.04731,-3.590828 -1.121179,-0.455907 -3.570285,-0.871356 -5.136701,-0.871356 -1.68653,0 -3.151629,-0.58922 -4.369234,-1.757174 -1.231125,-1.180926 -1.609661,-1.957148 -1.997531,-4.096123 -0.333165,-1.837293 -0.929763,-3.180324 -2.023724,-4.555695 -0.610554,-0.767615 -0.627023,-0.967435 -0.65508,-7.948266 -0.02331,-5.799488 -0.141997,-7.903132 -0.624301,-11.065266 -0.875082,-5.737313 -1.494614,-7.473031 -2.169274,-6.077568 -0.373046,0.771608 -0.461491,24.430061 -0.122082,32.656379 0.343377,8.322502 0.822999,12.559284 1.825826,16.128585 0.788349,2.805924 6.346372,14.136628 7.246447,14.772759 0.487288,0.344394 0.264364,0.388534 -1.952206,0.386537 l -2.50231,-0.0023 z M 73.764523,64.222544 c 0.639526,-1.530596 0.474007,-2.747634 -0.689627,-5.070781 -0.593727,-1.185348 -1.490869,-3.500173 -1.993648,-5.144055 -0.50278,-1.643882 -1.009731,-2.9298 -1.12656,-2.857597 -0.387468,0.239468 -0.881791,4.060182 -0.769043,5.944055 0.08967,1.498128 0.365439,2.388677 1.43469,4.632974 1.922336,4.03488 2.356861,4.379742 3.144188,2.495404 z M 44.511361,55.489375 c 1.583295,-1.146933 2.195952,-2.298667 3.147347,-5.916693 1.226465,-4.664079 1.123555,-5.103265 -0.877223,-3.743701 -1.948541,1.324069 -4.411539,5.494694 -4.951356,8.384197 -0.421116,2.254121 0.636395,2.75747 2.681232,1.276197 z m 8.91561,-1.388089 c 3.76746,-2.729134 6.574295,-10.650502 3.419019,-9.649056 -2.182945,0.69284 -6.118056,6.408394 -6.118056,8.886174 0,1.725952 0.985161,2.004408 2.699037,0.762882 z m 11.346757,-0.110199 c 0.562648,-0.411419 0.997842,-2.04253 1.007421,-3.775834 0.01071,-1.936475 0.283991,-2.212182 2.047769,-2.065916 0.96094,0.07969 1.584335,0.0092 1.709507,-0.193351 0.108359,-0.175328 -0.126369,-0.870592 -0.521618,-1.545031 -1.871699,-3.193815 -4.35018,-3.178645 -6.067502,0.03714 -0.950908,1.780635 -2.245488,5.767854 -2.132123,6.566802 0.149444,1.05323 2.917267,1.736129 3.956546,0.97619 z"
       id="path6204"
       inkscape:connector-curvature="0"
       transform="matrix(0.26458333,0,0,0.26458333,0,87)" />
    <path
       style="opacity:1;fill:#ffffff;fill-opacity:1;fill-rule:nonzero;stroke:none;stroke-width:2.51338553;stroke-linecap:butt;stroke-linejoin:miter;stroke-miterlimit:4;stroke-dasharray:none;stroke-dashoffset:0;stroke-opacity:1;paint-order:stroke fill markers"
       d="M 38.920064,96.665841 C 33.347177,86.377967 32.754776,84.528651 32.064184,75.263649 31.600904,69.048265 30.654638,42.166387 30.650149,35.093199 l -0.002,-3.217991 1.464154,-0.88117 c 1.920613,-1.155879 2.800485,-1.467772 4.140688,-1.467772 1.552026,0 2.929188,0.648836 3.429119,1.615596 0.234039,0.452582 0.80284,3.425052 1.264001,6.605488 0.461162,3.180437 0.979136,5.952098 1.151054,6.159246 0.255541,0.307908 0.564121,0.203604 1.691081,-0.571608 1.4606,-1.004716 2.057455,-1.136181 6.25755,-1.378309 1.388759,-0.08006 3.030883,-0.324043 3.649166,-0.542186 0.618283,-0.218143 2.016045,-0.535006 3.106136,-0.704139 2.652711,-0.411582 11.074615,-0.372763 12.330005,0.05683 1.460211,0.499687 2.570544,2.449609 4.070644,7.148707 0.712974,2.233403 2.024273,5.943217 2.914001,8.244031 2.078162,5.374078 2.119786,5.630985 1.38026,8.519089 -0.350017,1.366946 -0.766807,4.408119 -0.99196,7.237997 -0.626603,7.875562 -1.76497,14.309663 -3.477843,19.656898 -0.989171,3.087993 -0.986957,4.429323 0.0095,5.777156 l 0.596215,0.806422 -2.028794,-0.08229 -2.028796,-0.0823 -0.810661,-1.313081 c -1.331167,-2.156172 -1.299745,-3.286965 0.170737,-6.144698 1.985878,-3.859345 3.127185,-8.911112 3.448783,-15.265376 l 0.178872,-3.534214 -1.095567,-1.013657 c -0.621654,-0.575176 -2.111873,-2.770631 -3.445009,-5.075335 -1.29219,-2.233923 -2.712026,-4.50156 -3.155194,-5.039197 -1.802465,-2.186705 -4.124206,-2.626406 -11.064865,-2.095514 -6.623815,0.506658 -8.06431,0.937786 -7.719787,2.310474 0.230487,0.918331 1.05664,1.230271 4.646299,1.754349 4.297643,0.627444 5.707419,1.103643 7.118815,2.404623 2.57696,2.375357 2.361225,4.664527 -0.887055,9.412573 -1.549041,2.264251 -1.956399,3.740587 -2.317697,8.39974 -0.408414,5.266749 -0.965508,6.972162 -2.277539,6.972162 -1.121812,0 -1.485689,-1.250156 -1.595067,-5.480097 -0.118657,-4.58884 0.176673,-6.746231 1.413177,-10.323282 0.694743,-2.009806 0.813276,-2.641058 0.554476,-2.952892 -0.475677,-0.573156 -2.106153,-0.99114 -4.658532,-1.194247 -2.937781,-0.233777 -3.895349,-0.554368 -5.213907,-1.745607 -1.393862,-1.25927 -1.774201,-2.010386 -2.303564,-4.54923 -0.302768,-1.452083 -0.734445,-2.497414 -1.475227,-3.572354 l -1.047215,-1.519602 -0.17621,-8.24586 C 37.686572,41.954902 37.357479,38.68715 36.350861,35.173714 35.884763,33.546878 35.508283,33.321669 35.18533,34.476498 c -0.117964,0.421815 -0.206898,7.983125 -0.197632,16.80291 0.02121,20.187826 0.46266,26.91177 2.105239,32.065754 1.095362,3.436958 6.149888,13.641443 7.121506,14.377466 0.456907,0.346118 0.223825,0.392733 -1.992543,0.398495 l -2.509978,0.0065 -0.791854,-1.461808 z M 73.83888,63.857409 c 0.500166,-1.502785 0.385943,-2.189158 -0.765279,-4.598693 -0.594438,-1.244174 -1.492382,-3.548496 -1.995435,-5.120718 -0.503053,-1.572223 -1.007687,-2.858587 -1.121411,-2.858587 -0.335562,0 -0.91243,4.546146 -0.764813,6.0273 0.155357,1.558814 1.514976,4.977962 2.760388,6.941772 0.94342,1.487617 1.28483,1.416844 1.88655,-0.391074 z M 44.328665,55.512171 c 1.604502,-1.018705 2.513154,-2.717085 3.443003,-6.43538 1.062198,-4.247536 0.992672,-4.513777 -0.851478,-3.260645 -2.05113,1.393779 -4.658134,5.748388 -5.019408,8.384167 -0.313945,2.290478 0.334587,2.6409 2.427883,1.311858 z m 8.688022,-1.230926 c 2.055827,-1.155439 4.884795,-5.610797 5.170155,-8.142507 0.418226,-3.710485 -3.786163,-0.980188 -6.355392,4.127143 -1.116385,2.219246 -1.379722,3.693522 -0.768853,4.304391 0.460029,0.460028 0.678934,0.427651 1.95409,-0.289027 z m 11.650177,-0.210082 c 0.550307,-0.294515 1.12094,-2.370899 1.12094,-4.078803 0,-1.740277 0.338824,-2.041883 2.090728,-1.861071 1.435922,0.1482 1.534796,0.119574 1.534796,-0.444364 0,-0.759916 -1.240384,-2.656817 -2.109793,-3.226475 -1.868118,-1.224038 -3.95014,0.473343 -5.360045,4.369811 -1.504023,4.156568 -1.463716,4.670922 0.410125,5.233394 1.090477,0.32733 1.711886,0.329347 2.313249,0.0075 z"
       id="path6206"
       inkscape:connector-curvature="0"
       transform="matrix(0.26458333,0,0,0.26458333,0,87)" />
    <path
       style="opacity:1;fill:#ffffff;fill-opacity:1;fill-rule:nonzero;stroke:none;stroke-width:2.51338553;stroke-linecap:butt;stroke-linejoin:miter;stroke-miterlimit:4;stroke-dasharray:none;stroke-dashoffset:0;stroke-opacity:1;paint-order:stroke fill markers"
       d="m 37.70328,94.437094 c -1.090973,-2.032385 -2.30741,-4.346903 -2.703195,-5.143372 -1.80734,-3.637062 -2.741021,-9.012289 -3.23634,-18.6317 -0.398454,-7.738236 -1.11296,-30.124914 -1.114426,-34.916883 l -0.0012,-3.960484 1.860577,-1.040493 c 3.062871,-1.712855 6.169685,-1.543241 7.170152,0.39145 0.232262,0.449145 0.751359,3.063134 1.15355,5.808864 0.805699,5.500453 1.14572,7.083887 1.521172,7.083887 0.137283,0 0.889885,-0.39802 1.672449,-0.884488 1.307713,-0.812919 1.698477,-0.903877 4.829322,-1.124113 1.940909,-0.13653 4.246378,-0.488672 5.358686,-0.818495 2.537796,-0.752512 12.957451,-1.087274 14.76893,-0.474496 1.72431,0.583291 2.461162,1.955629 5.081052,9.46311 1.306438,3.743687 2.764234,7.908056 3.239546,9.254155 l 0.864205,2.447452 -0.623989,2.766897 c -0.343195,1.521791 -0.802075,4.875652 -1.019738,7.453018 -0.660609,7.822423 -1.87494,14.625954 -3.504401,19.634136 -0.956254,2.939064 -0.95402,4.183333 0.0099,5.537082 l 0.605052,0.849719 H 71.54571 69.45684 l -0.85841,-1.717862 c -1.128132,-2.257595 -1.089562,-3.133655 0.255767,-5.809384 2.017771,-4.013146 3.163577,-9.052965 3.503852,-15.41168 l 0.182798,-3.415846 -1.029133,-0.976103 c -0.566022,-0.536857 -2.104145,-2.795837 -3.418049,-5.019957 -3.002408,-5.082343 -3.674516,-5.935597 -5.30994,-6.741049 -1.204179,-0.59306 -1.657634,-0.646336 -5.223073,-0.613673 -4.042756,0.03704 -8.44377,0.444409 -10.233039,0.947205 -1.272155,0.357482 -1.640956,1.211304 -0.860379,1.99188 0.394433,0.394434 1.607774,0.72284 4.529174,1.225879 4.466335,0.769065 5.873603,1.285192 7.185467,2.635329 2.197405,2.261516 1.911438,4.46355 -1.192317,9.181163 -1.505272,2.287971 -1.958922,3.940086 -2.342227,8.529986 -0.166762,1.996897 -0.439076,4.130379 -0.605143,4.74107 -0.572889,2.106726 -1.780126,2.706245 -2.680331,1.331061 -0.43092,-0.658289 -0.492825,-1.437977 -0.481601,-6.065781 l 0.01288,-5.310394 1.05257,-3.154973 c 0.787883,-2.3616 0.975383,-3.247976 0.745625,-3.524819 -0.409725,-0.493687 -2.174552,-0.903653 -4.891705,-1.136331 -1.227101,-0.105082 -2.733088,-0.408691 -3.346638,-0.674691 -1.424485,-0.617571 -3.092039,-2.464042 -3.461214,-3.832575 -0.157739,-0.584738 -0.474499,-1.753406 -0.703913,-2.597038 -0.229413,-0.843632 -0.860722,-2.219889 -1.40291,-3.058347 l -0.985796,-1.524472 -9.53e-4,-6.005463 c -5.24e-4,-3.303005 -0.133047,-7.448701 -0.294496,-9.212658 -0.345813,-3.778283 -1.197521,-8.23158 -1.687151,-8.821548 -0.849201,-1.023225 -0.934326,0.513893 -0.913267,16.490926 0.02735,20.75061 0.50516,27.800381 2.243256,33.097807 1.045824,3.187497 6.053831,13.157466 6.971835,13.879567 l 0.728159,0.572771 H 42.316702 39.686867 Z M 73.705787,64.102545 c 0.635186,-1.587484 0.580605,-1.996005 -0.627748,-4.698591 -0.591998,-1.324055 -1.48084,-3.630984 -1.975203,-5.126513 -0.494365,-1.495529 -1.006306,-2.719143 -1.137645,-2.719143 -0.357861,0 -0.682848,2.362842 -0.671265,4.880513 0.0087,1.882729 0.146306,2.535909 0.881537,4.183297 1.278745,2.865196 2.3042,4.601627 2.717507,4.601627 0.200313,0 0.566081,-0.504536 0.812817,-1.12119 z M 43.699899,55.904832 c 1.082355,-0.567034 2.470918,-2.09504 2.951911,-3.248349 0.644544,-1.545465 1.891861,-6.709393 1.725396,-7.143192 -0.230471,-0.600598 -1.538056,0.188755 -2.952985,1.782636 -2.070842,2.332751 -4.059334,7.179114 -3.521117,8.581686 0.202539,0.527808 0.823323,0.537212 1.796795,0.02722 z m 8.953438,-1.404367 c 2.575824,-1.33201 6.099332,-7.358232 5.467077,-9.35029 -0.250927,-0.790601 -1.409569,-0.726571 -2.546668,0.140737 -1.944135,1.482864 -4.821933,6.379228 -4.839193,8.233535 -0.0065,0.7007 0.436497,1.380488 0.899667,1.380488 0.130327,0 0.58893,-0.182011 1.019117,-0.40447 z m 11.636316,-0.320191 c 0.811382,-0.217743 1.185251,-1.165812 1.395791,-3.539474 0.0981,-1.105946 0.301585,-2.167037 0.4522,-2.357981 0.191155,-0.242342 0.727052,-0.293906 1.774764,-0.170768 1.366215,0.160572 1.50092,0.12719 1.50092,-0.371953 0,-0.850088 -1.594196,-3.053519 -2.472435,-3.417298 -1.68979,-0.699933 -3.112083,0.365449 -4.461773,3.342129 -1.136329,2.506119 -1.755069,4.963748 -1.411372,5.605951 0.386216,0.721651 2.109257,1.207986 3.221905,0.909394 z"
       id="path6208"
       inkscape:connector-curvature="0"
       transform="matrix(0.26458333,0,0,0.26458333,0,87)" />
    <path
       style="opacity:1;fill:#ffffff;fill-opacity:1;fill-rule:nonzero;stroke:none;stroke-width:2.51338553;stroke-linecap:butt;stroke-linejoin:miter;stroke-miterlimit:4;stroke-dasharray:none;stroke-dashoffset:0;stroke-opacity:1;paint-order:stroke fill markers"
       d="M 37.716875,94.576538 C 33.959981,87.536952 33.166801,85.298924 32.464721,79.757101 31.711995,73.815519 30.883422,53.607021 30.822805,39.711587 l -0.03525,-8.081744 2.041292,-1.051789 c 1.590228,-0.819374 2.360548,-1.051558 3.486081,-1.050746 1.666529,0.0012 3.130243,0.743347 3.527656,1.788622 0.140911,0.370624 0.642591,3.162917 1.114843,6.205096 0.931294,5.999246 1.040932,6.507337 1.40418,6.507337 0.132859,0 0.878795,-0.396126 1.657636,-0.88028 1.266292,-0.787171 1.747604,-0.906712 4.550436,-1.130169 1.7239,-0.137438 4.201103,-0.512454 5.504897,-0.833367 3.236666,-0.796666 13.528522,-1.079454 15.117848,-0.41539 1.546509,0.646172 2.298906,2.073248 4.689895,8.895334 1.198316,3.419101 2.639423,7.471536 3.202462,9.005412 1.106153,3.013474 1.118097,3.285804 0.306345,6.983831 -0.237101,1.08013 -0.625899,4.154853 -0.864001,6.832718 -0.564213,6.345583 -1.594785,12.495972 -2.836279,16.926717 -1.719176,6.135547 -1.668215,5.711038 -0.877438,7.308904 l 0.697933,1.410267 h -2.027237 -2.027237 l -0.858426,-1.717862 c -0.472136,-0.944826 -0.858427,-2.120263 -0.858427,-2.612082 0,-0.491819 0.553358,-2.071887 1.229683,-3.511259 1.996785,-4.249608 2.965651,-8.6363 3.396059,-15.3762 l 0.191461,-2.998132 -1.228121,-1.324608 c -0.675466,-0.728535 -2.29118,-3.124452 -3.590479,-5.324261 -2.550038,-4.3174 -3.719755,-5.736182 -5.259671,-6.379601 -1.748975,-0.730769 -12.297164,-0.379812 -15.005615,0.49926 -1.210455,0.392876 -1.604901,0.910433 -1.22907,1.612681 0.373296,0.697511 1.287991,0.983618 5.45978,1.707772 4.255974,0.738765 6.036155,1.56201 7.139372,3.301601 1.414816,2.230935 1.044329,3.810791 -2.069346,8.824208 -1.26659,2.039374 -1.511851,2.878535 -1.878074,6.425851 -0.674274,6.531167 -0.951691,7.684067 -2.006684,8.339442 -0.70426,0.437498 -1.38672,-0.08043 -1.837497,-1.394491 -0.277483,-0.808891 -0.341113,-2.341467 -0.24782,-5.968848 0.117564,-4.571084 0.181018,-5.042257 1.000837,-7.431628 0.481423,-1.403114 0.875315,-2.857582 0.875315,-3.232152 0,-0.929866 -0.840931,-1.261649 -4.123532,-1.626912 C 45.053974,69.555372 44.196384,69.272799 42.86461,68.069621 41.494239,66.831577 41.105997,66.08482 40.540838,63.600005 40.25789,62.355976 39.700802,61.020249 39.035772,59.99132 L 37.979933,58.357731 37.819241,50.426109 C 37.658973,42.51542 37.280949,38.648697 36.355379,35.452603 c -0.431723,-1.490786 -0.772101,-1.814461 -1.075807,-1.023015 -0.286598,0.746863 -0.184384,31.76588 0.120771,36.650763 0.349343,5.59221 0.927679,9.688414 1.700107,12.041393 1.349143,4.109774 5.860917,13.165032 7.158763,14.367833 l 0.693552,0.642763 H 42.283653 39.61454 Z M 73.881446,63.528379 c 0.33161,-1.23151 0.170272,-2.11314 -0.71048,-3.882373 -0.343616,-0.690244 -1.155047,-2.760977 -1.803182,-4.601627 -0.648138,-1.840651 -1.227538,-3.398929 -1.287558,-3.462841 -0.252194,-0.268549 -0.385641,0.282809 -0.66472,2.746406 -0.350753,3.096285 -0.0318,4.714797 1.554552,7.888609 1.677595,3.356354 2.286925,3.630906 2.911388,1.311826 z M 44.366894,55.42472 c 1.736874,-1.236763 2.52724,-2.871067 3.58747,-7.418101 0.659663,-2.829112 0.666235,-2.583824 -0.06923,-2.583824 -1.01895,0 -3.39157,2.726595 -4.646986,5.340275 -1.744594,3.632114 -1.895651,5.782483 -0.37947,5.401946 0.397997,-0.09989 1.076696,-0.433025 1.508219,-0.740296 z m 8.871018,-1.367549 c 1.813664,-1.289464 3.907685,-4.403959 4.632267,-6.889698 0.493892,-1.694341 0.320514,-2.581337 -0.504567,-2.581337 -1.493123,0 -3.820564,2.435697 -5.495812,5.751438 -1.056334,2.090752 -1.29848,3.19585 -0.874041,3.98892 0.362219,0.676812 1.023033,0.597436 2.242153,-0.269323 z m 11.672755,-0.406638 c 0.207817,-0.196834 0.521565,-1.406979 0.697216,-2.689212 0.175651,-1.282232 0.425544,-2.495729 0.555321,-2.69666 0.173044,-0.267918 0.6378,-0.315121 1.743041,-0.17703 1.392012,0.17392 1.507083,0.144911 1.507083,-0.379929 0,-0.774642 -1.658175,-2.895284 -2.630547,-3.364213 -0.684412,-0.330059 -0.918652,-0.321838 -1.720155,0.06037 -1.194708,0.569717 -2.13081,2.005249 -3.1771,4.872149 -0.873949,2.394678 -1.06855,4.059576 -0.514528,4.401981 1.077335,0.66583 2.821982,0.652297 3.539669,-0.02746 z"
       id="path6210"
       inkscape:connector-curvature="0"
       transform="matrix(0.26458333,0,0,0.26458333,0,87)" />
    <path
       style="opacity:1;fill:#ffffff;fill-opacity:1;fill-rule:nonzero;stroke:none;stroke-width:2.51338553;stroke-linecap:butt;stroke-linejoin:miter;stroke-miterlimit:4;stroke-dasharray:none;stroke-dashoffset:0;stroke-opacity:1;paint-order:stroke fill markers"
       d="M 37.258495,93.739878 C 33.605816,86.956642 32.686793,83.770135 32.050401,75.681978 31.443665,67.970734 30.529954,40.30363 30.696596,34.688853 l 0.09095,-3.064565 2.041292,-1.049011 c 2.426745,-1.247093 4.339495,-1.407488 5.844203,-0.490068 1.122028,0.6841 1.286701,1.103241 1.870594,4.761184 0.841542,5.272056 1.502922,8.960153 1.629507,9.086739 0.06857,0.06857 0.931567,-0.303387 1.917766,-0.826576 1.559473,-0.827318 2.156399,-0.977011 4.581637,-1.148951 1.533701,-0.108735 3.8472,-0.452985 5.141109,-0.765002 1.847163,-0.44543 3.642341,-0.597572 8.356299,-0.7082 6.91284,-0.162231 7.553239,-0.02898 8.781603,1.827202 0.406201,0.61381 1.868219,4.294532 3.24893,8.179385 1.380711,3.884852 2.813669,7.908128 3.184351,8.940613 0.812714,2.263708 0.814822,2.355777 0.131509,5.748325 -0.298353,1.481275 -0.745952,4.88946 -0.994666,7.573742 -0.695417,7.505435 -2.162123,15.404859 -3.62471,19.522054 -0.66894,1.883067 -0.6262,3.63774 0.117936,4.841771 l 0.627207,1.014845 H 71.515881 69.389642 L 68.565047,96.3893 c -0.45353,-0.958673 -0.824698,-2.13354 -0.824818,-2.610818 -1.2e-4,-0.477276 0.493434,-1.921205 1.096788,-3.208726 2.005997,-4.28069 3.09588,-9.206079 3.510336,-15.86388 l 0.182292,-2.928308 -1.019317,-0.976103 c -0.560623,-0.536857 -2.108911,-2.779968 -3.440642,-4.984692 -4.454263,-7.374182 -4.575567,-7.44462 -12.398478,-7.199214 -7.515231,0.235754 -10.212999,0.913975 -9.432979,2.371455 0.379989,0.710017 0.587553,0.774953 5.094614,1.593864 4.598196,0.835469 6.383908,1.650219 7.510565,3.426771 0.550047,0.867334 0.808823,1.637306 0.808673,2.40616 -2.43e-4,1.246778 -1.118714,3.849924 -2.544653,5.922455 -1.411585,2.051668 -1.860637,3.631933 -2.334487,8.215318 -0.495729,4.795016 -0.736926,5.926581 -1.425437,6.687378 -0.66817,0.738318 -1.407663,0.652376 -1.985647,-0.230768 -0.429616,-0.656443 -0.49448,-1.452134 -0.49448,-6.065781 0,-5.265416 0.008,-5.335324 0.945511,-8.284041 0.520032,-1.635597 0.86837,-3.174841 0.774085,-3.420543 -0.245868,-0.640722 -1.238258,-0.945746 -4.164499,-1.280014 -3.161328,-0.361124 -4.577957,-0.85465 -5.754209,-2.004652 -1.142311,-1.116821 -1.540902,-1.892251 -2.118558,-4.121496 -0.487857,-1.882704 -1.268051,-3.608236 -2.131111,-4.713321 -0.457389,-0.585654 -0.519738,-1.201982 -0.521934,-5.1594 -0.0033,-5.875043 -0.437665,-12.861944 -0.98285,-15.807972 -0.723633,-3.910319 -1.231789,-5.014524 -1.627743,-3.537028 -0.277976,1.037263 -0.191808,29.788512 0.106265,35.456752 0.312255,5.937933 0.876724,10.225821 1.694846,12.87459 1.162868,3.764932 5.79377,13.118628 7.182335,14.507193 l 0.677862,0.677861 H 42.285576 39.623774 Z M 73.840127,63.438614 c 0.323929,-1.2046 0.411812,-0.89804 -2.226527,-7.766741 -0.810121,-2.109079 -1.557425,-3.834689 -1.660677,-3.834689 -0.301111,0 -0.533214,1.908589 -0.536524,4.41185 -0.0025,1.9556 0.12991,2.639636 0.843179,4.352983 0.465437,1.118031 1.227176,2.633442 1.692752,3.36758 0.71729,1.131049 0.903648,1.275426 1.220876,0.945857 0.205904,-0.213914 0.50602,-0.878492 0.666921,-1.47684 z M 43.69716,55.768736 c 2.32304,-1.191325 3.084785,-2.76535 4.635735,-9.579003 0.136767,-0.600845 0.07343,-0.766938 -0.292467,-0.766938 -1.425247,0 -4.35945,3.776491 -5.545228,7.137035 -0.764502,2.16663 -0.843331,2.918514 -0.35697,3.404874 0.420895,0.420895 0.335019,0.43169 1.55893,-0.195968 z M 54.230487,53.11141 c 2.425129,-2.426275 4.416735,-6.718885 3.720705,-8.019428 -0.499266,-0.932886 -1.413811,-0.576249 -3.17261,1.237194 -2.729093,2.813884 -4.662613,7.087294 -3.660212,8.089695 0.651926,0.651926 1.516859,0.288551 3.112117,-1.307461 z m 10.846644,0.05049 c 0.207029,-0.49851 0.465863,-1.749951 0.57519,-2.78098 0.109323,-1.031029 0.363068,-2.010952 0.563875,-2.177606 0.200806,-0.166654 0.970935,-0.264326 1.711395,-0.21705 1.280753,0.08177 1.342621,0.05293 1.270838,-0.592451 -0.0997,-0.896388 -1.287755,-2.426208 -2.284465,-2.941627 -1.726238,-0.892672 -3.342482,0.569951 -4.864522,4.402156 -0.414534,1.043717 -0.826932,2.516008 -0.916438,3.271759 -0.149299,1.260587 -0.10775,1.396095 0.502989,1.640459 0.36615,0.146501 1.205503,0.274321 1.865229,0.284043 1.096844,0.01617 1.23171,-0.05989 1.575909,-0.888703 z"
       id="path6212"
       inkscape:connector-curvature="0"
       transform="matrix(0.26458333,0,0,0.26458333,0,87)" />
    <path
       style="opacity:1;fill:#ffffff;fill-opacity:1;fill-rule:nonzero;stroke:none;stroke-width:2.51338553;stroke-linecap:butt;stroke-linejoin:miter;stroke-miterlimit:4;stroke-dasharray:none;stroke-dashoffset:0;stroke-opacity:1;paint-order:stroke fill markers"
       d="M 37.249748,93.739878 C 32.82298,85.500448 32.229213,82.658851 31.495103,66.199838 31.041451,56.028806 30.599374,38.816878 30.696426,35.103995 l 0.09112,-3.486081 2.060034,-1.045824 c 1.584798,-0.80456 2.389014,-1.045584 3.486081,-1.044782 1.676624,0.0012 3.114942,0.752396 3.529754,1.843436 0.152373,0.400771 0.704122,3.360986 1.226109,6.578255 0.521986,3.21727 1.001821,5.902336 1.0663,5.966815 0.06448,0.06448 0.927029,-0.30486 1.916778,-0.820753 1.513777,-0.789034 2.218309,-0.970299 4.436601,-1.141465 1.450381,-0.111914 3.829296,-0.462793 5.286478,-0.779732 3.236168,-0.70387 13.331,-1.04307 15.117056,-0.507955 1.480201,0.443479 2.429307,1.856663 3.803303,5.662982 4.280659,11.858516 5.071319,14.112504 5.229757,14.908817 0.101384,0.509559 -0.07367,2.249775 -0.406792,4.043854 -0.321623,1.732153 -0.778439,5.157351 -1.015149,7.611552 -0.704696,7.30619 -1.817339,13.486802 -3.334967,18.525377 -0.853362,2.833186 -0.891692,4.287386 -0.1495,5.672155 L 73.59771,98.13234 H 71.493676 69.389642 L 68.565047,96.3893 c -0.45353,-0.958673 -0.824698,-2.123107 -0.824818,-2.587632 -1.2e-4,-0.464524 0.548417,-2.09601 1.218974,-3.625524 1.99164,-4.542852 2.75611,-7.910966 3.264656,-14.383489 l 0.306762,-3.90428 -1.222775,-1.310393 c -0.672527,-0.720715 -2.269618,-3.051757 -3.549087,-5.18009 -2.683644,-4.464095 -4.128806,-6.116346 -5.735923,-6.557857 -2.192254,-0.602261 -12.164922,-0.181578 -14.609263,0.616272 -0.792138,0.258559 -1.027301,0.493579 -1.096613,1.095943 -0.113046,0.982453 0.35608,1.170467 5.082327,2.036864 4.52853,0.830153 6.324782,1.655521 7.444121,3.420535 1.366541,2.154813 0.936325,4.208561 -1.764163,8.421671 -1.423345,2.220603 -1.811142,3.617512 -2.298994,8.281356 -0.479743,4.586319 -0.73817,5.760782 -1.437673,6.533725 -0.663377,0.733025 -1.40404,0.644869 -1.980721,-0.235749 -0.429636,-0.656075 -0.49448,-1.45152 -0.49448,-6.065781 0,-5.239725 0.01248,-5.350827 0.933929,-8.314685 0.513661,-1.652196 0.861999,-3.191443 0.774084,-3.420543 -0.234223,-0.610379 -1.151283,-0.879181 -4.242384,-1.243502 -4.953584,-0.583832 -6.639517,-1.851733 -7.675165,-5.772088 -0.345909,-1.309406 -1.089819,-3.150756 -1.653134,-4.091887 l -1.024209,-1.71115 -0.182634,-7.251048 C 37.603668,43.429857 37.334546,40.169231 36.609311,36.739736 36.12166,34.433729 35.824269,33.739408 35.474063,34.089263 c -0.354789,0.354433 -0.430408,26.649353 -0.09836,34.202224 0.432193,9.830765 1.012423,13.341078 2.955608,17.881041 1.833283,4.283194 5.197077,10.559136 6.039393,11.267898 l 0.822293,0.691914 H 42.401335 39.60967 Z m 36.30211,-29.505367 c 0.571584,-1.254484 0.353179,-2.531592 -1.032529,-6.037655 -0.745902,-1.88725 -1.586435,-4.090233 -1.867854,-4.895518 -0.281421,-0.805285 -0.603348,-1.464154 -0.715399,-1.464154 -0.342749,0 -0.600041,2.986105 -0.452304,5.249352 0.142115,2.177105 0.778266,3.981367 2.348417,6.660624 0.803393,1.370888 1.258358,1.499823 1.719669,0.487351 z M 44.77181,55.032826 c 1.092805,-0.833523 1.912831,-2.49913 2.777272,-5.641094 1.185539,-4.309056 0.813649,-4.934601 -1.522634,-2.561175 -2.40625,2.444505 -4.8256,7.988213 -3.947769,9.045934 0.394526,0.475375 1.360529,0.17276 2.693131,-0.843665 z m 8.664076,-1.216884 c 1.259721,-0.912538 3.497939,-4.10655 4.126907,-5.889236 0.529186,-1.499868 0.540107,-3.031638 0.02303,-3.230059 -1.986165,-0.762162 -7.651222,7.368172 -6.557702,9.411433 0.39181,0.732103 1.114963,0.644362 2.407763,-0.292138 z m 11.504016,-0.284433 c 0.157998,-0.295221 0.429845,-1.518836 0.604107,-2.719143 0.17426,-1.200307 0.441269,-2.33925 0.593351,-2.530985 0.153438,-0.193444 0.881967,-0.348608 1.636796,-0.348608 1.576386,0 1.716867,-0.333307 0.779638,-1.849773 -1.252066,-2.025886 -2.928868,-2.359509 -4.369501,-0.86937 -1.346389,1.392657 -3.123439,5.716865 -3.134249,7.626761 -0.0042,0.735665 0.896759,1.184436 2.427135,1.20901 0.887077,0.01424 1.245931,-0.112812 1.462723,-0.517892 z"
       id="path6214"
       inkscape:connector-curvature="0"
       transform="matrix(0.26458333,0,0,0.26458333,0,87)" />
    <path
       style="opacity:1;fill:#ffffff;fill-opacity:1;fill-rule:nonzero;stroke:none;stroke-width:2.51338553;stroke-linecap:butt;stroke-linejoin:miter;stroke-miterlimit:4;stroke-dasharray:none;stroke-dashoffset:0;stroke-opacity:1;paint-order:stroke fill markers"
       d="M 38.576631,96.265764 C 33.796971,87.718934 32.773427,84.574469 32.058035,76.239751 31.443527,69.080398 30.544899,42.179783 30.697849,35.522325 l 0.0897,-3.904411 2.060034,-1.045824 c 1.584798,-0.80456 2.389014,-1.045584 3.486081,-1.044782 1.673291,0.0012 3.114779,0.751969 3.527339,1.837085 0.151046,0.397278 0.697934,3.289884 1.215309,6.428013 0.517375,3.138128 1.016559,5.781565 1.109298,5.874304 0.09274,0.09274 1.017334,-0.21209 2.054656,-0.677397 1.461208,-0.655448 2.602023,-0.919285 5.064649,-1.171305 1.748235,-0.17891 3.944466,-0.52013 4.880514,-0.758266 1.165181,-0.29643 3.637437,-0.4784 7.839325,-0.577012 7.088767,-0.166363 7.689065,-0.04148 8.948491,1.861646 0.73114,1.104826 6.622676,17.066556 6.970539,18.88503 0.09324,0.487402 -0.08691,2.369885 -0.400328,4.183297 -0.313415,1.813412 -0.707635,4.740351 -0.876041,6.504308 -0.726072,7.605212 -1.813512,13.8313 -3.355768,19.213293 -0.979344,3.417614 -1.024437,4.413153 -0.267129,5.897601 l 0.563443,1.104435 H 71.51466 69.421357 l -0.840673,-1.665365 c -0.462371,-0.915952 -0.840675,-2.092346 -0.840675,-2.614206 0,-0.521861 0.49393,-2.062801 1.097625,-3.424314 2.013315,-4.540637 3.004026,-9.086431 3.497429,-16.047649 l 0.171295,-2.416716 -1.229731,-1.384608 c -0.67635,-0.761535 -2.06082,-2.76399 -3.0766,-4.449898 -2.67221,-4.435115 -4.120093,-6.300367 -5.373415,-6.922373 -0.955409,-0.474154 -1.672691,-0.534098 -6.102619,-0.509999 -6.958483,0.03785 -10.458243,0.648168 -10.458243,1.823789 0,0.826059 1.068954,1.282903 4.462184,1.907028 5.451871,1.002776 7.33076,1.88085 8.365769,3.909635 1.043579,2.045582 0.681732,3.696975 -1.648954,7.525542 -1.77717,2.919317 -2.135441,4.132169 -2.679184,9.069821 -0.236478,2.147426 -0.554759,4.369384 -0.70729,4.937685 -0.522311,1.946023 -1.811889,2.490997 -2.696418,1.139505 -0.431709,-0.659619 -0.493219,-1.447326 -0.484546,-6.205224 0.0097,-5.336245 0.0286,-5.50996 0.906381,-8.344549 0.493046,-1.592171 0.896447,-3.010437 0.896447,-3.151704 0,-0.470066 -1.782642,-1.002686 -4.462184,-1.333214 -3.083634,-0.380373 -5.195555,-1.265018 -6.200568,-2.597309 -0.373193,-0.494719 -1.080867,-2.1599 -1.572608,-3.700402 -0.491741,-1.5405 -1.265136,-3.360234 -1.718655,-4.043854 C 37.933472,58.439144 37.90135,58.266831 37.896559,55.183822 37.882745,46.294869 37.02645,37.08007 36.004704,34.825109 l -0.442282,-0.976103 -0.193468,1.812762 c -0.293631,2.751264 -0.280222,24.650863 0.01964,32.071946 0.323272,8.000517 0.879518,12.446701 1.970903,15.753784 1.148259,3.479427 5.666644,12.502183 6.856804,13.692345 L 45.1688,98.13234 H 42.394638 39.62048 Z M 73.598806,64.102927 c 0.490018,-1.183006 0.246996,-2.449254 -1.176524,-6.13024 -0.682162,-1.763957 -1.460375,-3.803315 -1.729361,-4.531906 -0.268987,-0.728591 -0.595155,-1.32471 -0.724818,-1.32471 -0.358774,0 -0.642803,2.892362 -0.488782,4.977407 0.143007,1.935954 0.997025,4.308266 2.36812,6.578204 0.422962,0.700242 0.911582,1.273167 1.085825,1.273167 0.174243,0 0.473736,-0.378865 0.66554,-0.841922 z m -29.27221,-8.747822 c 1.29266,-0.878385 2.326893,-2.842941 3.187198,-6.054173 0.758908,-2.832749 0.870324,-3.878137 0.413327,-3.878137 -0.59152,0 -2.959723,2.520747 -3.975022,4.231067 -1.18705,1.999643 -2.238727,5.085323 -1.994966,5.853344 0.224877,0.708525 1.194539,0.646281 2.369463,-0.152101 z m 8.850295,-1.381252 c 2.975358,-2.19515 6.020727,-8.658701 4.376853,-9.289516 -1.652541,-0.63414 -6.546924,5.83112 -6.546924,8.648194 0,1.50913 0.709585,1.718834 2.170071,0.641322 z M 64.755076,53.66673 c 0.22085,-0.220849 0.56018,-1.444464 0.754064,-2.719143 0.193885,-1.274679 0.476768,-2.474471 0.628624,-2.666206 0.15326,-0.1935 0.881349,-0.348608 1.636392,-0.348608 1.569682,0 1.716181,-0.334415 0.797601,-1.820709 -1.946717,-3.149855 -4.579305,-2.044857 -6.404586,2.68825 -0.486593,1.261782 -0.906378,2.799184 -0.932856,3.416448 -0.04033,0.940233 0.06497,1.18078 0.649078,1.482795 0.929727,0.480716 2.374657,0.464199 2.871683,-0.03283 z"
       id="path6216"
       inkscape:connector-curvature="0"
       transform="matrix(0.26458333,0,0,0.26458333,0,87)" />
    <path
       style="opacity:1;fill:#ffffff;fill-opacity:1;fill-rule:nonzero;stroke:none;stroke-width:2.51338553;stroke-linecap:butt;stroke-linejoin:miter;stroke-miterlimit:4;stroke-dasharray:none;stroke-dashoffset:0;stroke-opacity:1;paint-order:stroke fill markers"
       d="M 38.455071,96.110413 C 36.563066,92.743888 34.339745,88.060084 33.722392,86.140222 32.539275,82.460925 31.973385,77.605062 31.496093,67.036497 31.022737,56.55508 30.604411,40.181191 30.698084,35.801211 l 0.08947,-4.183297 2.060034,-1.045824 c 1.584798,-0.80456 2.389014,-1.045584 3.486081,-1.044782 1.654008,0.0012 3.113846,0.749514 3.51365,1.801077 0.143515,0.377475 0.705373,3.285049 1.248571,6.461276 0.543199,3.176227 1.048543,5.835867 1.122988,5.910312 0.07444,0.07444 0.984071,-0.24706 2.021393,-0.714455 1.433093,-0.64572 2.622783,-0.928636 4.953791,-1.178046 1.687263,-0.180532 3.883494,-0.51755 4.880513,-0.748929 1.174284,-0.272518 3.974442,-0.473374 7.950184,-0.57027 7.090337,-0.172804 7.687888,-0.0488 8.949202,1.857175 0.976616,1.475769 7.084852,18.439011 7.084852,19.675418 0,0.514423 -0.180944,1.795497 -0.402101,2.846834 -0.221155,1.051338 -0.664684,4.35389 -0.985619,7.339004 -0.935792,8.704125 -1.848339,13.778825 -3.5064,19.499191 -0.819355,2.826804 -0.841111,3.681937 -0.133347,5.241178 l 0.538014,1.185267 -2.147736,-0.006 -2.147735,-0.006 -0.766938,-1.673129 c -0.421816,-0.920222 -0.766938,-2.10412 -0.766938,-2.630889 0,-0.526767 0.512024,-2.121297 1.137835,-3.543404 1.913504,-4.348303 2.954713,-9.19335 3.450088,-16.054268 L 72.494,71.918567 71.39956,70.731239 C 70.79762,70.078209 69.215042,67.787505 67.882726,65.640782 66.55041,63.494062 65.000644,61.256689 64.438802,60.668844 62.593491,58.73813 62.326443,58.66942 56.844839,58.714968 49.81492,58.773381 46.26575,59.403907 46.26575,60.59439 c 0,0.722505 0.818934,1.042915 4.76717,1.86517 5.607139,1.167737 7.03093,1.86075 8.091284,3.938332 1.006187,1.971451 0.682282,3.468821 -1.58601,7.331881 -1.769072,3.012855 -2.18323,4.412439 -2.764644,9.342697 -0.244196,2.070732 -0.567431,4.229941 -0.718299,4.798242 -0.516294,1.944809 -1.808507,2.491525 -2.693394,1.13953 -0.432948,-0.661488 -0.492981,-1.45101 -0.482436,-6.344667 0.0113,-5.245202 0.05671,-5.726468 0.737804,-7.820256 1.121591,-3.447938 1.152977,-3.697142 0.50904,-4.041768 -0.307395,-0.164512 -1.908637,-0.491702 -3.558316,-0.72709 -4.938352,-0.704635 -6.754093,-1.908097 -7.742402,-5.131612 -0.762152,-2.485869 -1.24299,-3.676926 -2.109328,-5.224897 -0.754577,-1.348279 -0.817353,-1.678868 -0.820854,-4.32274 -0.01251,-9.449414 -1.227304,-21.129876 -2.197552,-21.129876 -0.604054,0 -0.777345,17.65248 -0.312106,31.793059 0.275075,8.360701 0.753246,13.072977 1.655526,16.314859 1.087046,3.905741 5.719754,13.322798 7.363486,14.967994 L 45.19311,98.13234 H 42.392257 39.591405 Z M 73.7558,63.403876 c 0.100764,-0.537116 -0.0014,-1.493245 -0.242593,-2.272791 -0.757249,-2.446382 -3.339754,-9.015014 -3.544315,-9.015014 -0.24861,0 -0.555564,2.146351 -0.555564,3.884741 0,2.360352 1.598706,6.863097 3.001956,8.455001 0.560582,0.635945 1.103844,0.209631 1.340516,-1.051937 z M 43.699899,55.62705 c 1.854451,-0.968811 2.898982,-2.792333 3.926134,-6.854168 1.002307,-3.963588 0.745741,-4.228821 -1.652593,-1.708419 -1.653328,1.737478 -3.390737,4.878 -3.855096,6.96843 -0.434596,1.956441 0.01693,2.411558 1.581555,1.594157 z m 10.522616,-2.749271 c 3.688377,-3.780182 5.196205,-9.744026 1.957496,-7.742394 -1.974462,1.220285 -5.172476,6.32608 -5.172971,8.258915 -4.74e-4,1.848282 1.076976,1.675205 3.215475,-0.516521 z m 10.569491,0.562479 c 0.226322,-0.34541 0.556038,-1.569025 0.732705,-2.719144 0.176663,-1.150118 0.448998,-2.247998 0.605186,-2.439733 0.156188,-0.191734 0.837293,-0.348608 1.51357,-0.348608 1.575181,0 1.792512,-0.511004 0.816387,-1.919553 -1.272168,-1.835739 -2.681873,-2.162731 -4.003075,-0.928544 -1.565468,1.462368 -3.694786,6.801526 -3.213118,8.056735 0.398852,1.039393 2.923784,1.252046 3.548345,0.298847 z"
       id="path6218"
       inkscape:connector-curvature="0"
       transform="matrix(0.26458333,0,0,0.26458333,0,87)" />
  </g>
</svg>
