<?xml version="1.0" encoding="UTF-8" standalone="no"?>
<!-- Created with Inkscape (http://www.inkscape.org/) -->

<svg
   xmlns:dc="http://purl.org/dc/elements/1.1/"
   xmlns:cc="http://creativecommons.org/ns#"
   xmlns:rdf="http://www.w3.org/1999/02/22-rdf-syntax-ns#"
   xmlns:svg="http://www.w3.org/2000/svg"
   xmlns="http://www.w3.org/2000/svg"
   xmlns:sodipodi="http://sodipodi.sourceforge.net/DTD/sodipodi-0.dtd"
   xmlns:inkscape="http://www.inkscape.org/namespaces/inkscape"
   width="297mm"
   height="210mm"
   viewBox="0 0 297 210"
   version="1.1"
   id="svg1549"
   sodipodi:docname="K.svg"
   inkscape:version="0.92.2 (5c3e80d, 2017-08-06)">
  <defs
     id="defs1543">
    <inkscape:path-effect
       effect="spiro"
       id="path-effect7400"
       is_visible="true" />
    <inkscape:path-effect
       effect="spiro"
       id="path-effect4330"
       is_visible="true" />
  </defs>
  <sodipodi:namedview
     id="base"
     pagecolor="#ffffff"
     bordercolor="#666666"
     borderopacity="1.0"
     inkscape:pageopacity="0.0"
     inkscape:pageshadow="2"
     inkscape:zoom="4.7238281"
     inkscape:cx="39.798584"
     inkscape:cy="737.2055"
     inkscape:document-units="mm"
     inkscape:current-layer="layer1"
     showgrid="false"
     inkscape:window-width="1366"
     inkscape:window-height="705"
     inkscape:window-x="-8"
     inkscape:window-y="-8"
     inkscape:window-maximized="1" />
  <metadata
     id="metadata1546">
    <rdf:RDF>
      <cc:Work
         rdf:about="">
        <dc:format>image/svg+xml</dc:format>
        <dc:type
           rdf:resource="http://purl.org/dc/dcmitype/StillImage" />
        <dc:title />
      </cc:Work>
    </rdf:RDF>
  </metadata>
  <g
     inkscape:label="Capa 1"
     inkscape:groupmode="layer"
     id="layer1"
     transform="translate(0,-87)">
    <path
       style="opacity:1;fill:#006680;fill-opacity:1;fill-rule:nonzero;stroke:none;stroke-width:0.66500002;stroke-linecap:butt;stroke-linejoin:miter;stroke-miterlimit:4;stroke-dasharray:none;stroke-dashoffset:0;stroke-opacity:1;paint-order:stroke fill markers"
       d="M 1.0509932,92.163242 C 0.92601051,92.114048 0.77925145,91.959139 0.7248627,91.818994 0.60346077,91.506167 0.60217938,89.802967 0.72236446,88.484339 c 0.0986284,-1.082186 0.1920511,-1.232943 0.76405204,-1.232943 0.3786134,0 0.440653,0.144288 0.4427193,1.029605 l 0.00135,0.587216 0.6773486,-0.646883 c 0.8678727,-0.828829 1.0919658,-0.969938 1.5403581,-0.969938 0.8231115,0 0.759904,0.533421 -0.1757137,1.482858 l -0.6556274,0.665309 0.6645951,0.853303 c 1.0400076,1.335316 1.1738008,1.847228 0.5144582,1.968407 C 4.0068536,92.311156 3.6279915,92.072241 3.0914145,91.335576 2.8347069,90.983145 2.5393536,90.65006 2.435074,90.595384 2.1278363,90.434299 1.9304911,90.716275 1.9304911,91.316357 c 0,0.801134 -0.2889141,1.079331 -0.8795083,0.846885 z"
       id="path4316"
       inkscape:connector-curvature="0" />
    <path
       style="opacity:1;fill:#006680;fill-opacity:1;fill-rule:nonzero;stroke:none;stroke-width:0.66500002;stroke-linecap:butt;stroke-linejoin:miter;stroke-miterlimit:4;stroke-dasharray:none;stroke-dashoffset:0;stroke-opacity:1;paint-order:stroke fill markers"
       d="m 3.636422,103.09961 v -8.839286 l 0.8495179,-0.06397 C 5.7119873,94.104023 6.3197672,93.956921 6.4965051,93.709721 6.613049,93.546715 6.64687,93.183688 6.64687,92.095806 v -1.403603 h 9.33239 9.33239 v 7.086428 c 0,3.897529 -0.03664,7.071679 -0.08142,7.053659 -0.04478,-0.0181 -0.738992,-0.71849 -1.542685,-1.55657 -2.1832,-2.27661 -2.948415,-2.97603 -3.177923,-2.90467 -0.121071,0.0376 -0.21285,0.005 -0.249293,-0.0877 -0.176184,-0.449798 -5.24327,-2.436017 -5.784922,-2.267601 -0.09461,0.02937 -0.193577,-0.03763 -0.25383,-0.171995 -0.208185,-0.464221 -3.6015,-1.941218 -4.4598368,-1.941218 -0.1875709,0 -0.3349504,-0.06009 -0.3705992,-0.151096 -0.089926,-0.229592 -0.5575446,-0.427893 -1.1772828,-0.499252 -0.6867878,-0.07907 -0.9960552,0.08687 -1.272144,0.682592 -0.3506008,0.756497 -0.218268,1.21433 0.5675479,1.963573 0.8759337,0.835166 2.5932089,1.746173 3.4258269,1.817384 0.29196,0.02499 0.499256,0.08597 0.466827,0.137385 -0.15063,0.238768 0.728322,0.816648 1.128209,0.741768 0.194764,-0.0365 0.237993,-0.003 0.237993,0.18208 0,0.41023 -0.393173,0.72271 -1.053655,0.8374 -0.992312,0.17231 -1.583832,0.36304 -2.0778929,0.66999 -0.6156151,0.38248 -0.7702186,0.63534 -0.8662395,1.41672 -0.049809,0.40536 -0.1498746,0.72582 -0.2658179,0.85134 -0.1022612,0.1107 -0.8141751,0.51357 -1.5820245,0.89526 -1.2396232,0.61621 -1.4127803,0.73312 -1.54496,1.04304 -0.2992756,0.70171 0.043834,1.46806 0.8098916,1.80891 0.5572614,0.24796 1.0791727,0.23192 2.129063,-0.0654 1.0591961,-0.29998 2.7229562,-1.05029 2.8074902,-1.2661 0.08133,-0.20764 0.57174,-0.19561 0.763356,0.0188 0.08459,0.0946 0.184166,0.37889 0.221278,0.63169 0.04213,0.28697 0.178603,0.59664 0.363265,0.82428 0.269765,0.33256 0.355066,0.54546 0.538505,1.34403 0.087,0.37874 0.594968,0.91177 1.091767,1.14565 0.232137,0.10929 0.773575,0.24091 1.203193,0.2925 0.429618,0.0516 0.899432,0.16974 1.044032,0.26256 0.565733,0.36315 0.175794,0.38872 -6.4160883,0.42073 l -6.2968556,0.0306 z"
       id="path4318"
       inkscape:connector-curvature="0" />
    <path
       style="opacity:1;fill:#006680;fill-opacity:1;fill-rule:nonzero;stroke:none;stroke-width:0.66500002;stroke-linecap:butt;stroke-linejoin:miter;stroke-miterlimit:4;stroke-dasharray:none;stroke-dashoffset:0;stroke-opacity:1;paint-order:stroke fill markers"
       d="m 14.570702,100.76501 c -0.339904,-0.35445 -1.519156,-1.076388 -3.207463,-1.963594 -2.1591318,-1.134624 -3.3114925,-1.906089 -3.3114925,-2.216933 0,-0.284429 2.3228645,0.506367 4.4297645,1.508066 1.288801,0.612753 4.8576,2.051411 5.430403,2.189131 0.344066,0.0827 0.434978,0.20989 0.201204,0.28145 -0.574045,0.17574 -2.241129,0.45149 -2.7295,0.45149 -0.484398,0 -0.610759,-0.0387 -0.812916,-0.24961 z"
       id="path4320"
       inkscape:connector-curvature="0" />
    <path
       style="opacity:1;fill:#006680;fill-opacity:1;fill-rule:nonzero;stroke:none;stroke-width:0.66500002;stroke-linecap:butt;stroke-linejoin:miter;stroke-miterlimit:4;stroke-dasharray:none;stroke-dashoffset:0;stroke-opacity:1;paint-order:stroke fill markers"
       d="m 6.6134217,107.24085 c -0.1662568,-0.16288 -0.034663,-0.30762 0.3318755,-0.36504 0.2308633,-0.0362 0.5429121,-0.18645 0.741086,-0.35691 0.890056,-0.7656 3.0736698,-1.31664 3.9254878,-0.99061 0.192404,0.0736 0.191572,0.0795 -0.02721,0.19429 -0.367726,0.1928 -2.9248587,1.15214 -3.6689103,1.37644 -0.6945542,0.20937 -1.179475,0.26218 -1.3023196,0.14183 z"
       id="path4322"
       inkscape:connector-curvature="0" />
    <path
       style="opacity:1;fill:#006680;fill-opacity:1;fill-rule:nonzero;stroke:none;stroke-width:0.66500002;stroke-linecap:butt;stroke-linejoin:miter;stroke-miterlimit:4;stroke-dasharray:none;stroke-dashoffset:0;stroke-opacity:1;paint-order:stroke fill markers"
       d="m 15.996512,108.53445 c -1.008107,-0.17892 -1.998709,-0.53598 -2.331257,-0.84031 -0.749163,-0.68561 -0.352529,-2.66198 0.580252,-2.89134 0.286455,-0.0705 1.33236,0.1168 1.33236,0.23851 0,0.0443 -0.154826,0.10885 -0.344057,0.14364 -0.577912,0.10621 -0.784475,0.34432 -0.837002,0.96484 -0.04178,0.49361 -0.02303,0.56179 0.19106,0.69484 0.130563,0.0812 0.395436,0.17867 0.588606,0.21674 0.193169,0.038 0.5825,0.19724 0.865176,0.35373 0.282675,0.15648 0.611861,0.28452 0.731523,0.28452 0.277878,0 0.853404,0.28871 1.352286,0.67839 l 0.390106,0.3047 -0.891846,-0.009 c -0.490515,-0.005 -1.222759,-0.0676 -1.627207,-0.13938 z"
       id="path4324"
       inkscape:connector-curvature="0" />
    <path
       style="opacity:1;fill:#006680;fill-opacity:1;fill-rule:nonzero;stroke:none;stroke-width:0.66500002;stroke-linecap:butt;stroke-linejoin:miter;stroke-miterlimit:4;stroke-dasharray:none;stroke-dashoffset:0;stroke-opacity:1;paint-order:stroke fill markers"
       d="m 18.178456,112.19117 c 0.07257,-0.18702 0.0222,-0.52051 -0.113487,-0.75126 -0.05632,-0.0958 -0.102417,-0.21601 -0.102417,-0.26713 0,-0.14673 0.43539,-0.72162 0.878046,-1.15939 0.546406,-0.54036 0.888738,-0.73796 1.389908,-0.80225 0.633629,-0.0813 0.86758,-0.14885 1.024734,-0.29597 0.301167,-0.28194 0.124974,-0.53263 -0.492105,-0.70015 -0.739746,-0.20084 -1.639996,-0.73047 -2.537759,-1.49303 -0.484196,-0.41127 -0.938027,-0.94846 -0.997539,-1.18074 -0.0255,-0.0995 -0.0093,-0.15127 0.06005,-0.19167 0.294522,-0.17168 0.352116,-0.24755 0.352116,-0.46386 0,-0.18944 -0.03194,-0.24659 -0.255352,-0.457 -0.429012,-0.40403 -1.062953,-0.53469 -2.600821,-0.53606 -1.030812,-8e-4 -1.584864,0.0544 -2.331491,0.23269 -0.354928,0.0847 -0.648522,0.11554 -1.102042,0.11554 -0.671414,2e-5 -0.923941,-0.0581 -1.184044,-0.27252 -0.4453683,-0.36714 0.05356,-0.74544 1.560353,-1.18313 0.399154,-0.11595 0.956648,-0.2794 1.238878,-0.36324 0.440524,-0.13085 0.687788,-0.16382 1.747141,-0.23296 2.567857,-0.1676 3.306763,-0.31928 4.566816,-0.93742 l 0.537398,-0.26364 0.558764,0.57315 c 1.978436,2.02937 3.180225,3.3313 3.972438,4.30344 0.584406,0.71713 0.842705,0.98327 0.954292,0.98327 0.06592,0 0.07884,0.13475 0.07884,0.82197 0,0.69255 -0.01215,0.81738 -0.07716,0.79293 -0.397097,-0.14928 -1.869491,2.05518 -1.881235,2.81657 -0.0045,0.28923 0.126528,0.46644 0.344772,0.46644 0.357845,0 0.954252,-0.58614 1.326323,-1.30348 0.108925,-0.21 0.218129,-0.38182 0.242677,-0.38182 0.02454,0 0.04462,0.49769 0.04462,1.10598 v 1.10597 h -1.765235 c -0.970879,0 -2.604682,0.0157 -3.630669,0.0349 l -1.865436,0.0349 z"
       id="path4332"
       inkscape:connector-curvature="0" />
    <path
       style="opacity:1;fill:#006680;fill-opacity:1;fill-rule:nonzero;stroke:none;stroke-width:0.66500002;stroke-linecap:butt;stroke-linejoin:miter;stroke-miterlimit:4;stroke-dasharray:none;stroke-dashoffset:0;stroke-opacity:1;paint-order:stroke fill markers"
       d="m 14.871462,109.93445 c -0.118269,-0.0364 -0.268482,-0.0944 -0.333804,-0.12885 -0.130648,-0.0688 -0.421926,-0.41797 -0.381627,-0.45746 0.01391,-0.0137 0.204772,0.0354 0.424123,0.10883 0.41883,0.14033 1.854681,0.44424 2.102471,0.44502 0.07957,2.6e-4 0.159614,0.0242 0.177887,0.0531 0.05041,0.08 -1.722499,0.0615 -1.98905,-0.0207 z"
       id="path4334"
       inkscape:connector-curvature="0" />
    <path
       style="opacity:1;fill:#006680;fill-opacity:1;fill-rule:nonzero;stroke:none;stroke-width:0.66500002;stroke-linecap:butt;stroke-linejoin:miter;stroke-miterlimit:4;stroke-dasharray:none;stroke-dashoffset:0;stroke-opacity:1;paint-order:stroke fill markers"
       d="m 13.135514,108.46532 c -0.227511,-0.2271 -0.270239,-0.30083 -0.17434,-0.30083 0.07155,0 0.424088,0.30855 0.489641,0.42855 0.09884,0.18092 -0.07778,0.10938 -0.315301,-0.12772 z"
       id="path4336"
       inkscape:connector-curvature="0" />
    <path
       style="opacity:1;fill:#006680;fill-opacity:1;fill-rule:nonzero;stroke:none;stroke-width:0.66500002;stroke-linecap:butt;stroke-linejoin:miter;stroke-miterlimit:4;stroke-dasharray:none;stroke-dashoffset:0;stroke-opacity:1;paint-order:stroke fill markers"
       d="m 16.134778,106.6439 c 0,-0.071 0.472149,-0.4807 0.553886,-0.4807 0.07238,0 0.306244,0.21274 0.306244,0.27857 0,0.0192 -0.07165,0.0208 -0.159224,0.004 -0.115796,-0.0226 -0.224711,0.006 -0.39932,0.10665 -0.260235,0.1494 -0.301586,0.16201 -0.301586,0.0919 z"
       id="path4338"
       inkscape:connector-curvature="0" />
    <path
       style="opacity:1;fill:#ffffff;fill-opacity:1;fill-rule:nonzero;stroke:none;stroke-width:2.51338577;stroke-linecap:butt;stroke-linejoin:miter;stroke-miterlimit:4;stroke-dasharray:none;stroke-dashoffset:0;stroke-opacity:1;paint-order:stroke fill markers"
       d="m 59.368887,94.166006 c 0.0504,-0.152392 0.625565,-0.316835 1.356182,-0.387739 1.931393,-0.187441 2.251172,-0.541258 1.114139,-1.232731 -0.359058,-0.218357 -1.478384,-0.558215 -2.487389,-0.755239 -1.009006,-0.197027 -2.549018,-0.502402 -3.42225,-0.678613 -3.974516,-0.802025 -6.084773,-2.678027 -6.986897,-6.211297 -0.49408,-1.935126 -0.78508,-2.588883 -1.732373,-3.891962 -0.780758,-1.074 -1.124454,-1.877861 -1.427952,-3.3398 -0.333818,-1.607994 -0.891241,-2.432093 -1.818197,-2.688038 -0.919959,-0.254014 -1.246518,-0.153208 -2.217237,0.684434 -2.11367,1.823907 -10.805353,5.030444 -14.51188,5.353724 -4.596207,0.40088 -8.08881,-3.007099 -6.982353,-6.813176 0.429093,-1.476029 0.83445,-1.776798 5.998409,-4.450739 5.608382,-2.904065 6.063542,-3.218896 6.459091,-4.467722 0.17816,-0.562485 0.433073,-1.68953 0.566473,-2.504547 0.133401,-0.815017 0.41127,-1.862896 0.617487,-2.32862 0.956308,-2.159742 4.399099,-4.009727 9.102024,-4.890976 3.694984,-0.692377 5.153162,-1.621744 5.187937,-3.306513 l 0.01868,-0.905298 -1.16431,-0.114461 c -0.640371,-0.06295 -1.557189,-0.320746 -2.037375,-0.572872 -0.940035,-0.493574 -2.059074,-1.667362 -1.874427,-1.966129 0.172375,-0.278908 -0.514987,-0.555157 -1.783776,-0.716896 -3.573191,-0.455495 -9.971363,-3.94155 -13.248021,-7.218207 -2.676893,-2.676894 -3.065416,-4.358975 -1.643518,-7.115501 1.02923,-1.99529 1.692768,-2.416093 3.757546,-2.382969 2.178122,0.03494 3.981775,0.609845 5.008664,1.596479 0.565049,0.542899 1.042016,0.814214 1.431375,0.814214 2.942106,0 14.637489,4.922173 16.767651,7.056911 0.832702,0.83449 1.052363,0.940136 2.195436,1.055888 4.062512,0.411387 20.03571,6.874481 20.877567,8.447506 0.125007,0.233579 0.445205,0.375113 0.848627,0.375113 1.260313,0 2.934606,1.488521 11.171222,9.93172 l 6.418722,6.57971 0.114176,3.627351 c 0.09604,3.051101 0.06707,3.611886 -0.182339,3.530007 -0.163084,-0.05354 -1.379263,-1.37611 -2.702617,-2.939048 C 88.770878,67.340362 86.7055,65.080561 80.428191,58.506643 l -5.497982,-5.757767 -1.901765,0.955122 c -4.348784,2.184091 -7.927007,2.951667 -16.67549,3.577111 -5.214265,0.372776 -6.005987,0.515036 -10.690482,1.920894 -5.338104,1.60201 -6.947686,2.311644 -7.640071,3.368357 -0.474969,0.724893 -0.152154,1.352456 1.045997,2.03345 0.743716,0.422706 1.238572,0.511323 3.228001,0.578063 1.939264,0.06506 2.845093,-0.02195 5.186472,-0.498159 2.316235,-0.471097 3.599491,-0.596508 6.99261,-0.683383 6.55149,-0.167734 9.266838,0.294615 11.074364,1.885664 0.832521,0.732814 0.964359,0.960932 0.964359,1.668617 0,0.683128 -0.123488,0.918287 -0.740918,1.410936 -0.407504,0.325149 -0.74092,0.741555 -0.740924,0.925349 -2.1e-5,1.108214 3.526714,4.740971 6.68371,6.884637 2.666188,1.810396 3.942513,2.488096 6.123693,3.251543 2.348404,0.821977 2.857851,1.141758 2.857851,1.79389 0,0.849993 -1.048939,1.527858 -2.796812,1.807407 -2.538185,0.405948 -3.649699,0.801598 -4.957684,1.764717 -1.4248,1.049134 -3.387782,3.133571 -4.470578,4.747186 l -0.743389,1.10782 0.423907,1.009107 c 0.233149,0.55501 0.48554,1.271077 0.560869,1.591263 l 0.136961,0.582154 h -4.784759 c -3.733356,0 -4.765529,-0.05815 -4.697244,-0.264615 z m 4.280855,-7.345625 c 0.06832,-0.110548 -0.235657,-0.258837 -0.675508,-0.329528 -2.488157,-0.399887 -5.680113,-1.068506 -7.237536,-1.516041 -2.288377,-0.657581 -2.593691,-0.606083 -1.824262,0.307704 0.718838,0.853701 1.567301,1.308599 2.843361,1.52445 1.419535,0.240118 6.747428,0.250485 6.893945,0.01342 z m -12.796194,-5.29441 c -0.310666,-0.580485 -1.629115,-1.549275 -1.955933,-1.437213 -0.356097,0.122102 1.351406,1.851993 1.828026,1.851993 0.281873,0 0.306739,-0.08063 0.127907,-0.41478 z m 18.518508,-0.130826 c -2.012569,-1.680777 -4.948391,-3.264863 -6.050845,-3.264863 -0.240046,0 -1.453611,-0.467136 -2.696812,-1.038077 -1.2432,-0.570944 -2.945378,-1.249262 -3.782617,-1.507375 -2.2251,-0.685975 -2.468115,-0.97895 -2.349109,-2.832042 0.107317,-1.671134 0.559004,-2.834159 1.278065,-3.290837 0.262003,-0.166399 1.040133,-0.451696 1.729178,-0.633993 0.689045,-0.182297 1.290858,-0.445602 1.337364,-0.58512 0.193233,-0.5797 -4.072898,-1.327784 -5.286987,-0.927098 -2.836456,0.936114 -4.413076,6.876908 -2.655143,10.004729 0.744402,1.324483 2.888553,2.444225 6.634462,3.464724 2.844659,0.774971 5.608917,1.109617 9.302132,1.126133 l 3.17539,0.01421 -0.635078,-0.53038 z M 29.621878,76.099341 c 3.231487,-0.936448 14.289296,-5.130024 14.754959,-5.595687 0.37738,-0.37738 -1.289727,-0.84108 -3.02388,-0.84108 -4.05351,0 -9.203016,1.679439 -12.306151,4.013476 -0.687639,0.517209 -1.74159,1.050091 -2.581458,1.305193 -1.798537,0.546288 -2.157659,0.919301 -1.44256,1.498355 0.62773,0.508304 1.89419,0.403592 4.59909,-0.380257 z m 34.138704,-2.520964 c 0.593851,0.18848 0.561261,-0.409274 -0.04549,-0.834256 -0.661978,-0.463666 -0.822561,-0.425913 -1.820026,0.427878 -1.292417,1.106261 -1.168156,1.465775 0.277817,0.803786 0.699922,-0.320435 1.331852,-0.478611 1.587696,-0.397408 z M 61.911281,52.613838 c 2.906344,-0.435611 6.272447,-1.129087 6.768089,-1.394347 0.639966,-0.342499 0.129315,-0.727868 -1.810587,-1.366375 -4.019934,-1.323138 -13.283643,-5.121833 -22.053082,-9.04313 -6.364652,-2.845984 -11.961218,-4.806554 -13.720606,-4.806554 -0.929109,0 -0.964227,0.17237 -0.21623,1.061313 1.194261,1.419299 5.094546,3.872694 12.349141,7.767975 5.416577,2.908376 8.608338,4.799221 10.339387,6.125201 2.752709,2.108569 2.468812,1.980928 4.405957,1.980928 0.97321,0 2.745279,-0.146256 3.937931,-0.325011 z"
       id="path7402"
       inkscape:connector-curvature="0"
       transform="matrix(0.26458333,0,0,0.26458333,0,87)" />
    <path
       style="opacity:1;fill:#ffffff;fill-opacity:1;fill-rule:nonzero;stroke:none;stroke-width:2.51338577;stroke-linecap:butt;stroke-linejoin:miter;stroke-miterlimit:4;stroke-dasharray:none;stroke-dashoffset:0;stroke-opacity:1;paint-order:stroke fill markers"
       d="m 59.369218,94.166006 c 0.05023,-0.151304 0.661196,-0.328664 1.426781,-0.414184 1.401359,-0.156542 1.84925,-0.383894 1.588248,-0.806204 -0.280688,-0.454161 -1.57692,-0.856202 -4.833675,-1.499218 -3.641312,-0.718942 -4.983839,-1.251684 -6.366843,-2.526493 -1.298171,-1.196615 -1.662869,-1.858277 -2.329928,-4.22715 -0.402654,-1.429913 -0.864909,-2.469898 -1.599586,-3.598777 -0.659798,-1.013821 -1.156378,-2.085052 -1.37385,-2.963698 -0.187316,-0.756801 -0.445177,-1.641765 -0.573024,-1.966589 -0.539984,-1.371932 -2.134837,-1.62494 -3.479153,-0.551934 -2.761027,2.2038 -11.959355,5.482221 -15.381564,5.482221 -4.156909,0 -7.291469,-3.465439 -6.217185,-6.873461 0.189822,-0.602187 0.560232,-1.296961 0.823132,-1.543943 0.2629,-0.246981 2.57308,-1.556635 5.133733,-2.910338 2.560653,-1.353705 4.965871,-2.697836 5.344929,-2.986957 0.933639,-0.712122 1.235148,-1.369548 1.646023,-3.589072 0.192379,-1.039223 0.51674,-2.270544 0.720802,-2.736268 0.904281,-2.063809 3.937492,-3.754559 8.589023,-4.787626 4.39302,-0.975653 5.633834,-1.7394 5.689864,-3.502229 l 0.02584,-0.812932 -1.16431,-0.114461 c -0.640371,-0.06295 -1.557189,-0.320746 -2.037375,-0.572872 -0.934346,-0.490587 -2.059442,-1.666768 -1.876902,-1.962123 0.169566,-0.274364 -0.07667,-0.361769 -2.296955,-0.815343 -3.80243,-0.776786 -9.695215,-4.065219 -12.744382,-7.111925 -2.653884,-2.651742 -3.04924,-4.378883 -1.631503,-7.127342 1.027032,-1.991029 1.691457,-2.413547 3.757546,-2.389482 2.063861,0.02404 3.866937,0.588981 5.080532,1.591838 0.616458,0.509411 1.217836,0.825368 1.570969,0.825368 1.714781,0 7.840427,2.217337 12.400843,4.488808 2.62749,1.308711 3.622151,1.95203 4.583404,2.964418 0.431368,0.454315 0.756547,0.591098 1.405243,0.591098 2.923229,0 17.857098,5.813901 20.845236,8.115253 0.554055,0.426712 1.239052,0.775841 1.522215,0.775841 0.313106,0 1.13806,0.501354 2.105341,1.279491 2.347572,1.888526 15.023279,14.923249 15.186219,15.616343 0.198193,0.843054 0.211413,6.81375 0.01509,6.81375 -0.22916,0 -1.336789,-1.193295 -3.340425,-3.598777 -3.609373,-4.333263 -16.286149,-17.777922 -16.765123,-17.780653 -0.148123,-8.47e-4 -1.005479,0.363513 -1.905234,0.809682 -4.525558,2.244125 -7.369352,2.860676 -16.242716,3.521513 -2.445051,0.182094 -5.16001,0.470639 -6.033243,0.641213 -1.977993,0.386371 -7.599713,2.046882 -9.791842,2.892258 -1.58293,0.610439 -3.121422,1.7383 -3.121422,2.288292 0,0.143433 0.312871,0.57366 0.695269,0.956058 1.311925,1.311925 4.962215,1.513272 9.571828,0.527976 1.620939,-0.346473 3.161567,-0.479243 6.575561,-0.566676 6.629354,-0.16978 9.148517,0.260348 10.983192,1.875295 0.822705,0.724175 0.964359,0.965604 0.964359,1.643629 0,0.638751 -0.145445,0.927116 -0.740924,1.46899 -0.407509,0.370825 -0.740925,0.804329 -0.740925,0.963344 0,0.523472 1.817397,2.770507 3.352131,4.144588 3.090868,2.767325 6.463423,4.846271 9.772818,6.024264 2.046406,0.728427 2.540312,1.059095 2.540312,1.700729 0,0.524551 -0.649572,1.289926 -1.254552,1.478208 -0.183229,0.05702 -1.24553,0.286346 -2.360672,0.509604 -1.11514,0.223257 -2.526263,0.65865 -3.135828,0.967539 -1.281005,0.649135 -4.183503,3.468232 -5.390475,5.235582 l -0.815966,1.194809 0.55135,1.378159 c 0.303243,0.757989 0.551351,1.48099 0.551351,1.606672 0,0.156805 -1.500137,0.228509 -4.780726,0.228509 -3.730305,0 -4.761427,-0.05814 -4.69288,-0.264615 z m 3.954949,-7.342791 c 0.221284,-0.140032 0.07869,-0.22808 -0.529232,-0.326779 -1.89711,-0.308011 -5.192401,-1.014516 -7.046654,-1.51079 -1.08937,-0.291562 -2.035609,-0.475178 -2.10275,-0.408035 -0.200166,0.200166 0.689581,1.249581 1.424167,1.679739 0.375962,0.220156 1.22336,0.469634 1.883107,0.554398 1.759659,0.226079 6.020113,0.233747 6.371362,0.01147 z M 50.848944,81.641001 c 0,-0.381185 -1.60953,-1.66877 -1.945876,-1.556655 -0.143466,0.04782 0.141879,0.467024 0.660473,0.970302 0.961515,0.933118 1.285403,1.080863 1.285403,0.586353 z m 18.628958,-0.137035 c -2.130536,-1.72048 -4.434016,-2.993888 -6.033242,-3.335295 -0.582155,-0.124281 -1.96345,-0.646444 -3.069544,-1.160364 -1.106095,-0.51392 -2.679444,-1.134523 -3.49633,-1.379113 -1.991309,-0.596236 -2.431066,-1.028238 -2.431066,-2.388196 0,-1.460286 0.378252,-2.832821 0.951,-3.450828 0.285912,-0.308505 1.089402,-0.699397 1.987261,-0.966793 0.829007,-0.246888 1.507286,-0.530796 1.507286,-0.630907 0,-0.276543 -1.082135,-0.596165 -2.936333,-0.867286 -1.527651,-0.223372 -1.754814,-0.207737 -2.634336,0.181319 -1.831019,0.809947 -3.108733,3.477986 -3.108733,6.491455 0,3.478882 1.303121,4.890659 5.82155,6.306963 3.724644,1.167492 6.480299,1.564943 11.113868,1.602965 l 2.857851,0.02345 z M 29.044594,76.213161 c 2.473793,-0.620738 12.711119,-4.411896 14.780972,-5.473795 l 0.75059,-0.385076 -0.515304,-0.292936 c -0.912072,-0.518482 -5.207425,-0.353112 -7.642903,0.294251 -2.709965,0.720325 -5.164635,1.804619 -6.905714,3.050441 -0.813564,0.582145 -2.098477,1.246824 -3.007954,1.556003 -1.273433,0.432907 -1.601119,0.632529 -1.655514,1.008527 -0.138484,0.957258 1.06938,1.027091 4.195827,0.242585 z m 33.265562,-2.312084 c 0.507546,-0.230305 1.145089,-0.420828 1.41676,-0.423386 0.621342,-0.0058 0.508315,-0.42706 -0.225649,-0.840923 -0.515516,-0.290686 -0.596375,-0.264557 -1.517799,0.490481 -1.450624,1.188678 -1.311872,1.517344 0.326688,0.773828 z m 0.04466,-21.386642 c 1.496346,-0.230961 3.573509,-0.62016 4.615918,-0.864889 2.557049,-0.600324 2.481843,-0.896641 -0.486506,-1.9169 C 62.006728,48.193674 54.184479,44.995172 46.551246,41.582089 37.695277,37.62228 30.951411,35.356245 30.4478,36.171103 c -0.07474,0.120926 0.113965,0.516794 0.419336,0.879707 1.169255,1.38958 4.55329,3.505817 12.784252,7.994747 6.045011,3.296775 9.233577,5.230368 10.861265,6.586429 0.604656,0.50375 1.289897,0.997836 1.522759,1.097969 0.731815,0.314684 3.494831,0.220455 6.319404,-0.21552 z"
       id="path7404"
       inkscape:connector-curvature="0"
       transform="matrix(0.26458333,0,0,0.26458333,0,87)" />
    <path
       style="opacity:1;fill:#ffffff;fill-opacity:1;fill-rule:nonzero;stroke:none;stroke-width:2.51338577;stroke-linecap:butt;stroke-linejoin:miter;stroke-miterlimit:4;stroke-dasharray:none;stroke-dashoffset:0;stroke-opacity:1;paint-order:stroke fill markers"
       d="m 88.92663,93.021624 c -0.819636,-0.988897 0.278868,-4.21037 2.651797,-7.776663 1.219935,-1.83345 2.867566,-3.727595 3.242465,-3.727595 0.145004,0 0.283115,1.106248 0.37995,3.043336 l 0.152137,3.043337 -0.588167,1.031748 c -2.067589,3.626918 -4.778963,5.663792 -5.838182,4.385837 z"
       id="path7406"
       inkscape:connector-curvature="0"
       transform="matrix(0.26458333,0,0,0.26458333,0,87)" />
    <path
       style="opacity:1;fill:#ffffff;fill-opacity:1;fill-rule:nonzero;stroke:none;stroke-width:2.51338577;stroke-linecap:butt;stroke-linejoin:miter;stroke-miterlimit:4;stroke-dasharray:none;stroke-dashoffset:0;stroke-opacity:1;paint-order:stroke fill markers"
       d="m 59.369256,94.166006 c 0.04834,-0.145539 0.559838,-0.323175 1.136669,-0.394748 1.341789,-0.166488 1.986118,-0.37313 1.986118,-0.636962 0,-0.403935 -1.866446,-1.027986 -4.993632,-1.669636 -3.881719,-0.796464 -5.357596,-1.462443 -6.843219,-3.087951 -0.855753,-0.936331 -1.163965,-1.483121 -1.518531,-2.693978 -0.719214,-2.456154 -1.085542,-3.337695 -1.846992,-4.444649 -0.8477,-1.232338 -1.21674,-2.066106 -1.526717,-3.449285 -0.343471,-1.532639 -0.803928,-2.343631 -1.492603,-2.628889 -0.80888,-0.335051 -1.771064,-0.130293 -2.577854,0.548576 -1.771433,1.490562 -8.605198,4.23558 -12.608818,5.064765 -3.877088,0.80298 -6.762898,-0.118095 -8.345222,-2.663577 -1.062762,-1.709664 -0.96827,-3.982958 0.219285,-5.275541 0.314469,-0.342282 2.572259,-1.687005 5.01731,-2.988271 5.253634,-2.796008 5.91936,-3.199765 6.343726,-3.847431 0.176657,-0.269612 0.556365,-1.553454 0.843796,-2.85298 0.28743,-1.299527 0.663075,-2.634423 0.834766,-2.966436 0.964377,-1.8649 4.027734,-3.48924 8.658871,-4.59135 4.553309,-1.083587 5.542719,-1.71122 5.401549,-3.42648 -0.0662,-0.804311 -0.07414,-0.810837 -1.12513,-0.924435 -0.582155,-0.06292 -1.415115,-0.287842 -1.851022,-0.499818 -0.858613,-0.417532 -2.065293,-1.658172 -2.065293,-2.123416 0,-0.190375 -0.485468,-0.372982 -1.427903,-0.5371 -1.963898,-0.341998 -3.556988,-0.906826 -5.962691,-2.114065 -2.897269,-1.453917 -5.805261,-3.454507 -7.542858,-5.189204 -2.652388,-2.647961 -3.041535,-4.346339 -1.631503,-7.120464 1.033553,-2.033434 1.656511,-2.419213 3.866898,-2.394658 1.997584,0.02219 3.756984,0.564498 4.840608,1.49204 0.671479,0.574761 1.173874,0.779271 2.560525,1.042314 4.521822,0.857775 13.70332,4.91973 15.864345,7.01849 0.40077,0.389224 0.925828,0.742861 1.166793,0.785861 0.240964,0.043 1.056613,0.191901 1.812553,0.330893 4.218683,0.775675 16.34471,5.655606 19.428283,7.818609 0.677445,0.4752 1.436266,0.864 1.68627,0.864 0.250005,0 1.174503,0.579169 2.054442,1.287045 1.72918,1.391054 14.946363,14.784075 15.185576,15.3876 0.07992,0.20164 0.152008,1.874929 0.16019,3.718419 0.01149,2.590934 -0.04519,3.332492 -0.249736,3.26674 C 94.682566,74.22325 93.337484,72.76257 91.839034,71.024078 88.106436,66.693545 83.457215,61.659074 78.792382,56.896335 l -3.916315,-3.998514 -2.602189,1.19223 c -4.21409,1.930742 -7.234983,2.563432 -15.179999,3.179273 -5.757111,0.446249 -6.841348,0.629162 -10.890502,1.837248 -5.744083,1.713777 -8.061679,2.759497 -8.321998,3.754958 -0.168947,0.646055 0.528733,1.411703 1.697204,1.862549 1.493375,0.576207 5.15239,0.506481 8.306663,-0.158291 2.224473,-0.468815 2.918361,-0.513071 8.044323,-0.513071 5.211929,0 5.716245,0.03347 7.109691,0.471789 2.032788,0.639437 3.474944,1.875055 3.474944,2.977282 0,0.599427 -0.171936,0.943011 -0.787223,1.573123 l -0.787224,0.806191 0.409143,0.759734 c 0.603023,1.119746 3.350217,3.860134 5.333284,5.32007 2.654841,1.954498 4.169436,2.808998 7.02949,3.965871 1.443151,0.583747 2.719396,1.213321 2.8361,1.399054 0.327575,0.521337 -0.0049,1.421546 -0.647073,1.751911 -0.318498,0.163855 -1.388812,0.462081 -2.378475,0.662726 -3.121663,0.63288 -3.89191,1.024465 -5.990794,3.045642 -1.041177,1.002629 -2.316156,2.414971 -2.833285,3.138537 l -0.940239,1.315573 0.414943,0.938046 c 0.228219,0.515927 0.479894,1.233766 0.559279,1.595202 l 0.144334,0.657153 h -4.797547 c -3.743782,0 -4.778243,-0.05812 -4.709661,-0.264615 z m 3.652019,-7.356322 c 0.232862,-0.100065 0.352561,-0.188631 0.266,-0.196813 -0.646404,-0.06111 -5.942001,-1.178011 -7.56232,-1.59498 -1.102201,-0.283636 -2.041395,-0.478309 -2.087098,-0.432607 -0.205521,0.205522 0.878297,1.362137 1.599542,1.706976 1.251928,0.598566 6.745267,0.963729 7.783876,0.517424 z M 50.848944,81.71895 c 0,-0.24956 -0.969583,-1.197092 -1.534773,-1.49987 -0.598051,-0.32038 -0.428317,0.05687 0.413426,0.918899 0.794548,0.813691 1.121347,0.983005 1.121347,0.580971 z m 19.052344,0.156784 c 0,-0.148822 -2.733717,-2.046177 -3.810469,-2.644683 -0.64037,-0.355947 -1.750959,-0.79721 -2.467975,-0.980584 C 62.905828,78.067092 61.524533,77.5519 60.5533,77.105592 59.582066,76.659287 58.016397,76.037564 57.074039,75.723988 54.776087,74.959331 54.4474,74.630079 54.448901,73.094333 c 0.0025,-2.55829 0.595985,-3.49058 2.6654,-4.187003 0.803784,-0.270496 1.461427,-0.61386 1.461427,-0.763027 0,-0.340569 -1.905021,-0.79117 -3.607232,-0.853229 -1.005045,-0.03664 -1.440602,0.0535 -2.035738,0.421312 -1.481345,0.915523 -2.493408,3.104254 -2.663709,5.760657 -0.238471,3.719737 1.087167,5.312936 5.621012,6.755525 3.753023,1.194144 6.707261,1.62551 11.523837,1.682667 1.368065,0.01624 2.48739,2.12e-4 2.48739,-0.0355 z M 31.179405,75.530461 c 6.320464,-2.116754 13.107064,-4.813852 13.107064,-5.208947 0,-0.384116 -2.33167,-0.708226 -4.001971,-0.556288 -4.204765,0.382484 -8.193574,1.783691 -11.206334,3.936614 -0.621907,0.444415 -1.734022,1.008788 -2.471368,1.254161 -1.460021,0.485862 -1.91684,0.860639 -1.709057,1.402115 0.243411,0.634318 3.001342,0.270941 6.281666,-0.827655 z m 30.843129,-1.555836 c 0.432875,-0.189854 1.117083,-0.405258 1.520459,-0.478679 l 0.733414,-0.133489 -0.508714,-0.47394 c -0.279793,-0.260666 -0.572314,-0.473938 -0.650047,-0.473938 -0.255632,0 -2.107452,1.496638 -2.107452,1.70324 0,0.271961 0.09707,0.258231 1.01234,-0.143194 z M 60.73026,52.720886 c 3.004677,-0.395492 7.449725,-1.302531 7.837387,-1.599264 0.500035,-0.382751 0.313138,-0.502183 -2.150389,-1.374153 -4.436188,-1.570195 -13.213036,-5.1613 -19.48463,-7.972265 -8.86869,-3.974999 -16.406185,-6.536292 -16.406185,-5.574936 0,1.216071 3.359127,3.48553 12.701563,8.581301 6.170548,3.365686 8.757797,4.912729 10.796328,6.455658 0.873233,0.660935 1.778219,1.311284 2.011081,1.445222 0.53158,0.305759 2.539066,0.322192 4.694845,0.03844 z"
       id="path7408"
       inkscape:connector-curvature="0"
       transform="matrix(0.26458333,0,0,0.26458333,0,87)" />
    <path
       style="opacity:1;fill:#ffffff;fill-opacity:1;fill-rule:nonzero;stroke:none;stroke-width:2.51338577;stroke-linecap:butt;stroke-linejoin:miter;stroke-miterlimit:4;stroke-dasharray:none;stroke-dashoffset:0;stroke-opacity:1;paint-order:stroke fill markers"
       d="m 59.369544,94.166103 c 0.04849,-0.145486 0.555255,-0.331333 1.126135,-0.412993 1.520953,-0.217563 1.996364,-0.36249 1.996364,-0.608581 0,-0.413476 -1.800345,-1.013691 -4.965033,-1.655285 -3.868055,-0.784192 -5.360652,-1.459079 -6.863406,-3.10333 -0.935766,-1.023877 -1.155967,-1.454299 -1.811431,-3.540749 -0.486057,-1.547201 -1.044663,-2.817954 -1.602442,-3.645338 -0.47095,-0.698586 -1.052288,-1.936989 -1.291863,-2.752005 -0.657342,-2.236221 -0.834996,-2.623587 -1.411063,-3.076719 -0.765246,-0.601944 -1.551883,-0.514435 -2.743404,0.305187 -2.277773,1.566833 -6.990832,3.585769 -10.986086,4.706119 -2.757083,0.773142 -5.817111,0.840314 -7.287487,0.159972 -1.280149,-0.592324 -2.451105,-1.646239 -3.010508,-2.709595 -0.627158,-1.192153 -0.645023,-3.323717 -0.03654,-4.359538 0.551317,-0.938499 1.255722,-1.400783 5.809805,-3.812821 2.037542,-1.079169 4.221725,-2.306074 4.85374,-2.726454 1.282112,-0.852789 1.471538,-1.233927 2.053014,-4.130791 0.433492,-2.159622 0.87657,-3.036135 2.062418,-4.07996 1.437607,-1.265434 3.511058,-2.159512 7.119474,-3.069936 1.80468,-0.455332 3.688699,-1.023956 4.186706,-1.263605 0.984102,-0.473567 1.528997,-1.280554 1.528997,-2.264441 0,-0.678836 -0.295787,-0.879932 -1.29427,-0.879932 -1.268444,0 -3.381977,-1.37087 -3.797166,-2.462903 -0.128322,-0.337508 -0.417905,-0.517664 -0.985161,-0.61289 -3.065701,-0.514642 -6.953368,-2.207635 -10.453643,-4.552331 -2.384535,-1.597306 -4.9016,-4.037673 -5.480518,-5.31352 -0.645989,-1.423659 -0.559831,-2.779412 0.289219,-4.551083 1.025598,-2.140064 1.624127,-2.518462 3.939351,-2.490512 2.112314,0.0255 3.874459,0.571481 4.981472,1.543452 0.398849,0.350193 1.084447,0.697093 1.523553,0.770889 4.732897,0.795402 14.168871,4.855233 16.791348,7.224484 0.620056,0.560183 1.08997,0.770879 2.072021,0.929034 4.568225,0.735691 16.419623,5.418406 20.561787,8.124357 0.636444,0.415769 1.32085,0.755945 1.520904,0.755945 0.878004,0 4.890132,3.811781 14.950381,14.203829 l 2.376505,2.454884 v 3.525435 c 0,2.135292 -0.08093,3.525436 -0.205242,3.525436 -0.112884,0 -1.089316,-1.021075 -2.169851,-2.269056 C 88.02722,66.633499 79.189515,57.124783 75.790886,53.83884 l -0.930239,-0.899396 -2.581239,1.166954 c -4.362818,1.972388 -6.915851,2.490823 -16.138147,3.27712 -5.341233,0.455397 -6.62462,0.702686 -11.537253,2.223066 -3.843651,1.189545 -6.172457,2.25606 -6.501061,2.977267 -0.352253,0.773112 0.05649,1.4403 1.230576,2.008668 0.89066,0.43116 1.305936,0.485936 3.562716,0.469928 1.798018,-0.01274 3.244157,-0.163129 4.88316,-0.507769 2.096842,-0.440911 2.897527,-0.490261 8.044323,-0.495805 5.385556,-0.0058 5.805332,0.022 7.26739,0.481383 2.040923,0.641257 3.423092,1.840681 3.423092,2.970504 0,0.584087 -0.174193,0.93635 -0.759352,1.535608 -0.752377,0.770504 -0.756228,0.783695 -0.41912,1.43559 0.810443,1.567225 3.993425,4.600671 6.788329,6.46942 2.095085,1.400828 3.324878,2.041319 6.069859,3.161256 1.180225,0.481525 2.240404,1.027464 2.355954,1.213197 0.336426,0.540775 -0.01069,1.423277 -0.700034,1.779751 -0.346473,0.179168 -1.558645,0.516846 -2.693714,0.750396 -1.135068,0.23355 -2.493475,0.626834 -3.018683,0.873969 -1.123836,0.528817 -5.169972,4.527326 -5.859349,5.79038 l -0.458884,0.84075 0.503305,1.16431 c 0.88335,2.043476 1.192482,1.905234 -4.260417,1.905234 -3.729564,0 -4.761342,-0.05816 -4.692554,-0.264518 z m 3.440038,-7.333139 c 0.507305,-0.110489 0.134829,-0.236679 -1.85134,-0.627201 -1.36753,-0.268884 -3.394486,-0.719309 -4.504346,-1.000945 -1.109863,-0.281634 -2.223631,-0.512061 -2.475044,-0.512061 -0.432827,0 -0.42408,0.03475 0.164646,0.653978 0.341969,0.359687 0.892526,0.795359 1.223461,0.968159 0.980584,0.512022 5.898596,0.854358 7.442623,0.51807 z M 50.03953,80.84493 c -0.502,-0.46826 -0.977167,-0.78694 -1.055929,-0.708177 -0.07876,0.07876 0.267522,0.526325 0.769522,0.994585 0.501999,0.46826 0.977167,0.78694 1.055929,0.708178 0.07876,-0.07876 -0.267522,-0.526326 -0.769522,-0.994586 z m 19.295846,0.594626 c -1.750076,-1.465798 -5.219352,-3.309274 -6.227794,-3.309274 -0.132994,0 -1.30233,-0.461642 -2.598524,-1.025873 -1.296195,-0.564231 -3.011373,-1.242704 -3.811508,-1.507716 -1.957747,-0.648427 -2.250125,-0.972721 -2.248649,-2.494113 0.0025,-2.531317 0.626369,-3.552104 2.552172,-4.175613 0.633198,-0.205007 1.280139,-0.49379 1.437647,-0.641738 0.466823,-0.438488 -1.062992,-0.823855 -3.316173,-0.835363 l -1.971331,-0.01008 -0.906629,0.958487 c -1.324508,1.400269 -1.878129,2.99892 -1.904032,5.498141 -0.01778,1.715147 0.05311,2.161298 0.481751,3.031911 0.664108,1.348881 2.036406,2.243333 4.89557,3.190889 3.79355,1.257222 6.90964,1.725357 11.923958,1.791357 l 2.291938,0.03018 z M 29.074342,76.131471 c 3.980651,-1.038613 15.212127,-5.356581 15.212127,-5.848337 0,-0.159481 -0.313229,-0.240893 -1.973209,-0.512864 -1.135955,-0.186113 -4.559162,0.259345 -6.6507,0.865449 -2.318935,0.672002 -4.234532,1.553733 -6.258484,2.880723 -0.90838,0.595574 -2.232193,1.282788 -2.941807,1.527143 -2.075064,0.714545 -2.210075,1.594342 -0.245779,1.601607 0.482085,0.0017 1.768119,-0.229392 2.857852,-0.513721 z m 33.100162,-2.235043 c 0.543246,-0.232862 1.234579,-0.423385 1.5363,-0.423385 h 0.548583 l -0.497188,-0.529232 c -0.273454,-0.291078 -0.562745,-0.529232 -0.64287,-0.529232 -0.222771,0 -1.769205,1.266189 -1.960885,1.605533 -0.218953,0.387626 -0.160052,0.380456 1.01606,-0.123684 z M 61.082527,52.62127 c 2.703795,-0.354437 6.407939,-1.06301 7.269619,-1.39062 0.485331,-0.184523 0.521979,-0.255316 0.262725,-0.507504 C 68.449169,50.561958 67.07519,49.985235 65.561587,49.44154 61.796372,48.089053 55.025643,45.337838 49.684634,42.990106 41.863087,39.552011 39.386865,38.540234 35.924607,37.367801 c -5.202463,-1.761724 -6.416645,-1.761885 -4.655378,-6.18e-4 1.419273,1.419273 4.329166,3.2074 12.593855,7.738913 5.702341,3.126581 8.515229,4.824147 10.376068,6.261906 0.83868,0.647996 1.728826,1.260489 1.978105,1.361094 0.685806,0.276777 2.184764,0.243556 4.86527,-0.107826 z"
       id="path7410"
       inkscape:connector-curvature="0"
       transform="matrix(0.26458333,0,0,0.26458333,0,87)" />
    <path
       style="opacity:1;fill:#ffffff;fill-opacity:1;fill-rule:nonzero;stroke:none;stroke-width:2.51338577;stroke-linecap:butt;stroke-linejoin:miter;stroke-miterlimit:4;stroke-dasharray:none;stroke-dashoffset:0;stroke-opacity:1;paint-order:stroke fill markers"
       d="m 59.368898,94.168036 c 0.04814,-0.144423 0.723038,-0.366826 1.499769,-0.494229 0.776732,-0.127403 1.469285,-0.288687 1.539006,-0.358408 0.45266,-0.452661 -0.932198,-0.953947 -5.102102,-1.846843 -3.651276,-0.781845 -5.192178,-1.496344 -6.637466,-3.07772 -0.886868,-0.970374 -1.17007,-1.496879 -1.727535,-3.211696 -0.671536,-2.065698 -1.300179,-3.443343 -2.105627,-4.614391 -0.240244,-0.349293 -0.720763,-1.548533 -1.067821,-2.664975 -0.357339,-1.149518 -0.822593,-2.203272 -1.072742,-2.429654 -0.650705,-0.58888 -1.880708,-0.522157 -2.761707,0.149815 -1.748228,1.333438 -7.362563,3.743292 -11.13113,4.777841 -2.751928,0.755461 -5.819671,0.816467 -7.271715,0.144605 -2.678825,-1.23949 -4.041125,-3.751222 -3.376154,-6.224758 0.377721,-1.405037 1.362365,-2.178361 5.632699,-4.423838 2.083099,-1.09536 4.37357,-2.360264 5.089934,-2.810896 1.487204,-0.935534 1.721753,-1.363979 2.296246,-4.194482 0.426919,-2.103417 0.860675,-3.034327 1.83381,-3.935649 1.735801,-1.607709 3.225869,-2.27011 7.624151,-3.389279 1.667577,-0.424323 3.380184,-0.94764 3.805794,-1.162925 2.06425,-1.044153 2.259448,-3.155246 0.291745,-3.155246 -1.188941,0 -3.319585,-1.40302 -3.716658,-2.447403 -0.140595,-0.369795 -0.465417,-0.515992 -1.620238,-0.729246 -4.111689,-0.759278 -9.945637,-3.958135 -13.314434,-7.30054 -1.997184,-1.981537 -2.526442,-3.052113 -2.378961,-4.812132 0.09808,-1.17046 0.937037,-3.09769 1.708263,-3.924172 1.294167,-1.386889 5.627438,-1.01192 7.791692,0.674236 0.705165,0.549388 1.350169,0.816534 2.589573,1.07254 2.717132,0.561239 8.055193,2.56757 11.682645,4.390967 1.260681,0.633702 3.532971,2.083306 4.554399,2.905471 0.302329,0.24335 1.247891,0.562054 2.205445,0.74335 4.517336,0.855281 16.665358,5.714427 19.986104,7.994338 0.504038,0.346055 1.228582,0.71538 1.6101,0.820722 1.09605,0.302633 3.338759,2.370303 10.545494,9.722437 l 6.721244,6.856848 v 3.553544 c 0,1.954451 -0.07543,3.553546 -0.167616,3.553546 -0.225603,0 -1.471565,-1.326526 -3.871587,-4.121922 -2.613313,-3.043826 -8.812035,-9.737105 -12.910889,-13.940973 l -3.266562,-3.350251 -2.011081,0.94257 c -4.946556,2.318391 -6.551219,2.646383 -17.888035,3.656293 -4.01964,0.358078 -7.048387,1.012421 -11.537252,2.492551 -3.783829,1.247655 -5.504011,2.210639 -5.504011,3.081229 0,0.493994 1.002537,1.390963 1.883901,1.685528 1.193404,0.39885 5.178253,0.291913 7.760207,-0.208255 1.774853,-0.343817 3.436224,-0.473288 7.104992,-0.553691 7.002619,-0.153467 9.233283,0.252513 11.035569,2.008468 1.071328,1.043787 1.085302,1.901291 0.04967,3.047616 -0.74048,0.819621 -0.742457,0.827121 -0.39729,1.507506 0.554286,1.092599 4.462629,4.807971 6.539635,6.216746 2.157551,1.463406 3.869179,2.364895 6.178569,3.254163 1.980701,0.7627 2.606678,1.165957 2.606678,1.679234 0,1.13889 -0.589788,1.507629 -3.388379,2.11843 -2.983656,0.651192 -3.938445,1.181531 -6.186328,3.436211 -1.081817,1.085086 -2.267301,2.429254 -2.634412,2.987041 l -0.667473,1.014157 0.510901,1.257334 c 0.832863,2.049691 1.167267,1.900822 -4.269827,1.900822 -3.710787,0 -4.761139,-0.05877 -4.6932,-0.262585 z m 3.017299,-7.326116 c 0.81994,-0.150143 0.786404,-0.167021 -1.058464,-0.532705 -1.047879,-0.207707 -3.082439,-0.656381 -4.521244,-0.997054 -1.438806,-0.340673 -2.767343,-0.619404 -2.952303,-0.619404 -0.553102,0 0.99098,1.440346 1.848429,1.724243 1.284314,0.425234 5.290828,0.679955 6.683582,0.42492 z M 50.143302,80.952851 c -0.445531,-0.408296 -0.873563,-0.67885 -0.951184,-0.60123 -0.07762,0.07762 0.223397,0.475191 0.668926,0.883489 0.44553,0.408296 0.873562,0.678849 0.951184,0.60123 0.07762,-0.07762 -0.223398,-0.475191 -0.668926,-0.883489 z m 19.546293,0.881616 c 0,-0.20092 -2.647103,-2.056337 -3.685106,-2.582977 -0.57142,-0.289916 -1.952715,-0.842396 -3.069545,-1.227736 -1.116827,-0.38534 -2.840321,-1.029688 -3.829985,-1.431889 -0.989663,-0.402199 -2.264627,-0.90017 -2.833255,-1.106603 -1.585419,-0.575565 -1.823984,-0.915947 -1.823984,-2.602442 0,-1.06922 0.121903,-1.678734 0.476308,-2.381543 0.429042,-0.850816 0.629409,-1.005178 2.019117,-1.555518 0.848545,-0.336033 1.508037,-0.717079 1.465538,-0.846771 -0.118878,-0.362769 -2.431132,-0.780725 -3.906535,-0.706131 -1.175754,0.05944 -1.404488,0.147182 -2.073033,0.795161 -1.864377,1.807026 -2.660492,5.555485 -1.777181,8.367755 0.758728,2.415618 6.403226,4.639646 13.110265,5.165669 2.450843,0.192215 5.927396,0.258506 5.927396,0.113025 z M 28.85868,76.141353 c 3.042469,-0.777098 12.460194,-4.224582 14.750754,-5.399709 0.875053,-0.448929 0.712725,-0.603164 -0.913342,-0.867814 -3.387375,-0.551309 -9.191398,1.021799 -13.156544,3.56592 -0.950301,0.609732 -2.327471,1.343605 -3.060377,1.63083 -1.609339,0.630694 -1.825768,0.815662 -1.464185,1.251343 0.384079,0.462786 1.536883,0.40863 3.843694,-0.18057 z m 33.239784,-2.240276 c 0.507546,-0.230305 1.208596,-0.423839 1.557889,-0.430075 l 0.635078,-0.01135 -0.59477,-0.523238 c -0.688369,-0.605583 -0.926094,-0.53274 -2.039994,0.625088 -0.843841,0.877123 -0.80636,0.905928 0.441797,0.339563 z m 1.731155,-21.727154 c 3.532751,-0.608698 4.907359,-0.959889 4.907359,-1.253752 0,-0.11037 -0.666832,-0.460617 -1.481849,-0.778325 -7.473352,-2.913252 -12.252362,-4.838055 -15.559415,-6.266738 -2.153973,-0.93054 -5.678657,-2.452899 -7.83263,-3.38302 -6.971578,-3.01044 -12.636778,-4.856505 -13.184358,-4.296261 -0.204349,0.209076 -0.01019,0.496043 0.931918,1.377364 1.47693,1.381636 4.445023,3.21538 11.444324,7.070521 6.626317,3.649705 8.843275,4.979738 11.181059,6.707918 0.989663,0.731598 1.989912,1.382955 2.222774,1.447462 0.769854,0.213263 4.186731,-0.07654 7.370818,-0.625169 z"
       id="path7412"
       inkscape:connector-curvature="0"
       transform="matrix(0.26458333,0,0,0.26458333,0,87)" />
    <path
       style="opacity:1;fill:#ffffff;fill-opacity:1;fill-rule:nonzero;stroke:none;stroke-width:2.51338577;stroke-linecap:butt;stroke-linejoin:miter;stroke-miterlimit:4;stroke-dasharray:none;stroke-dashoffset:0;stroke-opacity:1;paint-order:stroke fill markers"
       d="m 59.366889,94.174067 c 0.04703,-0.141104 0.650358,-0.358796 1.34072,-0.483758 1.62483,-0.294111 1.944833,-0.483481 1.428337,-0.845249 -0.499396,-0.349788 -1.435427,-0.612139 -4.936221,-1.383522 -3.539138,-0.779829 -5.113965,-1.51956 -6.527371,-3.066051 -0.882579,-0.965683 -1.167583,-1.496321 -1.731179,-3.22321 -0.371068,-1.136968 -1.132825,-2.87694 -1.692794,-3.866604 -0.55997,-0.989663 -1.220568,-2.470166 -1.467994,-3.290005 -1.042074,-3.452863 -1.765593,-3.68393 -5.092694,-1.626433 -2.64351,1.634761 -9.054744,4.016507 -12.120827,4.502837 -1.985983,0.31501 -3.79746,0.179027 -5.061047,-0.379916 -3.704133,-1.638515 -4.766504,-6.204917 -1.917796,-8.243285 0.457513,-0.327368 2.720027,-1.595464 5.027811,-2.81799 2.537232,-1.344073 4.54701,-2.557517 5.083966,-3.069544 0.788491,-0.751886 0.928204,-1.036541 1.246823,-2.540313 0.698446,-3.296428 0.906329,-3.814739 1.937913,-4.831751 1.62593,-1.602962 3.511743,-2.385228 9.565885,-3.968091 1.972652,-0.515751 2.984446,-1.100965 3.400933,-1.967074 0.451398,-0.938702 0.171551,-1.574887 -0.761662,-1.731508 -1.665884,-0.279585 -2.295101,-0.608366 -3.481122,-1.818974 -1.11109,-1.134123 -1.324043,-1.256532 -2.676581,-1.538545 -5.264217,-1.09762 -13.082481,-6.186262 -14.861054,-9.672554 -1.164478,-2.282565 0.367659,-6.376199 2.614361,-6.985174 1.059062,-0.287061 3.297909,-0.12061 4.611496,0.342851 0.509304,0.179693 1.404176,0.650996 1.988604,1.047341 0.708977,0.480811 1.661411,0.861019 2.861985,1.142494 4.673777,1.095767 12.048315,4.298756 14.887936,6.466288 1.32324,1.010051 1.616225,1.141236 3.356593,1.50293 3.573836,0.742736 11.964464,3.901984 16.489982,6.208827 1.562521,0.796481 3.65067,1.858569 4.640334,2.360195 1.73197,0.877877 2.094839,1.208486 9.684941,8.823947 l 7.885554,7.911901 v 3.610485 c 0,2.793418 -0.05988,3.590896 -0.264616,3.523934 -0.145539,-0.0476 -1.730054,-1.746438 -3.521148,-3.775188 -6.67211,-7.55742 -16.256955,-17.633366 -16.621312,-17.472941 -0.128129,0.05641 -1.295179,0.58275 -2.593439,1.169634 -4.213352,1.90466 -6.600293,2.398023 -15.421713,3.187548 -6.275893,0.561697 -7.611295,0.831556 -13.336641,2.69507 -3.597832,1.171042 -5.398164,2.186746 -5.398164,3.045513 0,0.503404 1.11526,1.400826 2.070578,1.666143 1.272044,0.353281 4.818701,0.245223 7.349748,-0.223929 1.715431,-0.317971 3.614522,-0.462411 7.211901,-0.548521 7.103461,-0.170036 9.336614,0.230339 11.152442,1.999486 1.043634,1.016805 1.097849,2.010592 0.158769,2.910288 -0.349293,0.334644 -0.635078,0.820043 -0.635078,1.078664 0,1.08028 3.908347,4.924442 7.303316,7.183377 1.694492,1.127475 2.856266,1.715321 6.119101,3.096205 1.834991,0.776597 2.163815,1.103463 1.953411,1.941779 -0.184748,0.736096 -0.835172,1.044132 -3.620421,1.714614 -1.277187,0.307451 -2.729765,0.797876 -3.227952,1.089834 -1.681935,0.985679 -5.775663,5.428085 -5.775344,6.267252 6e-5,0.153667 0.190583,0.780542 0.423386,1.393054 0.712333,1.874162 1.037029,1.744193 -4.357447,1.744193 -3.650378,0 -4.760508,-0.06066 -4.695209,-0.256554 z m 2.895821,-7.361494 c 1.157974,-0.0046 0.684121,-0.176659 -2.009504,-0.729554 -1.388338,-0.28497 -3.367732,-0.720291 -4.398657,-0.967381 -1.030924,-0.24709 -1.928347,-0.395313 -1.994274,-0.329385 -0.193365,0.193364 0.788208,1.123233 1.584636,1.501164 0.709228,0.336549 4.76331,0.76876 5.671129,0.604607 0.232862,-0.04211 0.748863,-0.07786 1.14667,-0.07945 z m 7.318941,-5.08691 c -0.420915,-0.681056 -5.092059,-3.383688 -5.848257,-3.383688 -0.204262,0 -6.031242,-2.249984 -8.081304,-3.120452 -1.032702,-0.43849 -1.205408,-0.78723 -1.199722,-2.422565 0.007,-2.008015 0.541432,-3.015908 1.945952,-3.669786 0.615418,-0.286509 1.226357,-0.521857 1.35764,-0.522993 0.131282,-0.0011 0.349964,-0.13614 0.48596,-0.300005 0.372558,-0.448905 -0.99685,-0.824696 -3.088396,-0.847514 -1.441756,-0.01573 -1.828235,0.05478 -2.328619,0.424804 -1.555389,1.150194 -2.449751,3.433186 -2.449751,6.253356 0,2.18613 0.460654,3.243018 1.887069,4.329554 2.12502,1.618679 7.780698,3.082259 12.875979,3.332052 3.212011,0.157468 4.571976,0.135198 4.443449,-0.07276 z M 50.034742,80.849719 c -0.389437,-0.34796 -0.770352,-0.570368 -0.846481,-0.494241 -0.07613,0.07613 0.180216,0.42311 0.56965,0.771071 0.389436,0.34796 0.770352,0.570368 0.846481,0.494241 0.07613,-0.07613 -0.180216,-0.42311 -0.56965,-0.771071 z M 30.144251,75.77945 c 2.454123,-0.728846 10.321378,-3.629942 12.5016,-4.610039 2.191754,-0.985281 1.848634,-1.287322 -1.468009,-1.292255 -3.957481,-0.0059 -8.009164,1.285532 -12.060264,3.844033 -0.72383,0.45714 -1.911954,1.064696 -2.640276,1.350123 -1.446942,0.567051 -1.772398,0.876984 -1.39651,1.3299 0.352913,0.425236 2.373527,0.177115 5.063459,-0.621762 z m 32.209294,-1.988868 c 0.417987,-0.174647 1.015956,-0.317539 1.328818,-0.317539 0.555431,0 0.559809,-0.01 0.185683,-0.423386 -0.549426,-0.607107 -1.06028,-0.525889 -1.961268,0.311811 -0.860421,0.799985 -0.733231,0.922148 0.446767,0.429114 z M 61.645272,52.497 c 1.974308,-0.265357 5.853638,-1.022436 6.501837,-1.268881 0.793261,-0.301597 0.566902,-0.54998 -1.05075,-1.152988 -4.467393,-1.665299 -13.37306,-5.286158 -18.539093,-7.53761 -8.919771,-3.887401 -12.573763,-5.300442 -15.790042,-6.106192 -2.499185,-0.626102 -2.745356,-0.388262 -1.148326,1.109466 1.488089,1.39556 4.033966,2.97309 11.232598,6.960179 6.703908,3.713077 8.965046,5.064847 11.315682,6.764826 0.951796,0.688337 1.952044,1.345048 2.222774,1.459356 0.518668,0.218992 2.601096,0.128587 5.25532,-0.228156 z"
       id="path7414"
       inkscape:connector-curvature="0"
       transform="matrix(0.26458333,0,0,0.26458333,0,87)" />
    <path
       style="opacity:1;fill:#ffffff;fill-opacity:1;fill-rule:nonzero;stroke:none;stroke-width:2.51338577;stroke-linecap:butt;stroke-linejoin:miter;stroke-miterlimit:4;stroke-dasharray:none;stroke-dashoffset:0;stroke-opacity:1;paint-order:stroke fill markers"
       d="m 59.36843,94.169439 c 0.04789,-0.14365 0.508317,-0.337241 1.023183,-0.4302 1.661487,-0.299981 1.888737,-0.371404 1.888737,-0.593609 0,-0.362505 -1.379036,-0.82629 -4.717866,-1.586667 -3.672117,-0.836279 -5.034436,-1.399907 -6.378755,-2.639056 -1.239338,-1.142383 -1.704823,-1.909934 -2.254347,-3.717274 -0.244571,-0.804371 -0.94708,-2.415111 -1.56113,-3.579421 -0.614049,-1.16431 -1.37986,-2.914566 -1.701798,-3.889458 -0.32194,-0.974891 -0.764139,-1.951324 -0.982665,-2.16985 -0.677929,-0.677929 -1.725482,-0.508596 -3.493601,0.564724 -2.964144,1.799357 -8.455209,3.937379 -11.945468,4.651135 -4.321047,0.88365 -7.513174,-0.29934 -8.862901,-3.284559 -0.827144,-1.82941 -0.363235,-4.053437 1.071718,-5.137924 0.391074,-0.295561 2.425148,-1.463376 4.520163,-2.595147 4.862217,-2.626671 5.938785,-3.322397 6.339167,-4.096652 0.178688,-0.345544 0.569643,-1.672042 0.868789,-2.947775 0.337508,-1.439328 0.736684,-2.580815 1.051931,-3.008106 1.313612,-1.780501 3.802834,-3.010315 8.571033,-4.234564 3.355688,-0.861583 4.424759,-1.374578 4.974779,-2.387146 0.517377,-0.952474 0.300744,-1.43561 -0.762989,-1.70162 -1.827975,-0.457126 -2.53792,-0.841561 -3.471305,-1.879708 -0.901896,-1.003125 -1.089928,-1.105641 -2.881345,-1.570931 -5.691512,-1.47827 -12.831585,-6.170788 -14.567825,-9.574101 -1.18918,-2.330984 0.31521,-6.417762 2.589361,-7.034177 1.817441,-0.492622 4.773617,0.119398 6.587745,1.363867 0.456655,0.31326 1.361642,0.712328 2.01108,0.886817 2.701689,0.725882 3.62238,1.01323 5.838038,1.822056 3.138468,1.145696 8.434204,3.742184 9.742328,4.776641 1.396966,1.104714 1.669227,1.236802 3.170928,1.538388 3.460251,0.69492 11.579949,3.718109 16.512032,6.147887 7.116518,3.505935 5.842839,2.520613 14.65972,11.340802 l 7.885554,7.888511 v 3.613747 c 0,1.987559 -0.07503,3.613745 -0.166727,3.613745 -0.222241,0 -1.610988,-1.469827 -4.292419,-4.543023 -2.852428,-3.26918 -6.716314,-7.45021 -11.61508,-12.56844 -3.412247,-3.565117 -3.985962,-4.079689 -4.453043,-3.994005 -0.294886,0.0541 -1.488773,0.533716 -2.653083,1.065822 -3.892225,1.778805 -6.451694,2.301314 -15.236459,3.11048 -5.416073,0.498875 -7.68091,0.923901 -11.935781,2.23991 -3.319907,1.026828 -5.842232,2.122111 -6.460632,2.805436 -0.530522,0.58622 -0.28315,1.193352 0.769858,1.889487 0.844127,0.558045 0.951089,0.573611 3.846541,0.559758 1.953325,-0.0093 3.633938,-0.144379 4.883503,-0.392385 1.368028,-0.271517 3.337783,-0.408798 6.98586,-0.486879 7.064704,-0.151208 9.129555,0.226774 10.955098,2.005386 1.028615,1.002173 1.076893,1.896947 0.158769,2.942631 -0.349293,0.397823 -0.635078,0.877909 -0.635078,1.066855 0,0.574925 1.675087,2.556816 3.587451,4.244515 2.568366,2.266634 5.456483,4.099429 8.587666,5.449724 1.487747,0.641575 2.834024,1.273586 2.991724,1.404465 0.157701,0.130881 0.286727,0.509889 0.286727,0.84224 0,0.845131 -0.674832,1.22384 -3.422355,1.920593 -1.268211,0.321608 -2.66026,0.746774 -3.093441,0.944812 -0.876458,0.400692 -5.486632,4.927902 -5.964129,5.856799 -0.271635,0.528425 -0.262678,0.701492 0.08218,1.587695 0.212874,0.547042 0.432937,1.256591 0.489027,1.576777 l 0.101981,0.582154 h -4.804754 c -3.716037,0 -4.785028,-0.05918 -4.717695,-0.261182 z m 3.317665,-7.445283 c -0.165791,-0.160758 -8.736933,-2.026793 -8.839307,-1.924416 -0.159801,0.159798 0.642654,0.962183 1.304607,1.304493 0.329356,0.170315 0.996412,0.38828 1.482348,0.484363 0.888989,0.175781 6.216901,0.295115 6.052352,0.13556 z m 6.791807,-4.964425 c 0,-0.519791 -4.25725,-2.981493 -6.126404,-3.542517 -2.031314,-0.609696 -8.384843,-3.268635 -8.638144,-3.615047 -0.417788,-0.571358 -0.324618,-2.989755 0.155977,-4.04867 0.399352,-0.879909 1.164528,-1.391301 3.036,-2.029057 0.511852,-0.174429 0.347178,-0.612813 -0.297915,-0.793084 -0.282445,-0.07893 -1.387399,-0.153003 -2.455452,-0.164608 -1.79081,-0.01945 -1.992066,0.02111 -2.586406,0.5212 -0.354469,0.298267 -0.956341,1.175763 -1.337492,1.949991 -0.627137,1.273899 -0.699511,1.619716 -0.761495,3.638627 -0.06129,1.996148 -0.01691,2.330555 0.421555,3.177419 1.501564,2.900099 8.131775,4.841442 17.266697,5.05573 0.727694,0.01706 1.323079,-0.05042 1.323079,-0.149984 z M 50.136517,80.95927 c -0.333619,-0.287144 -0.667035,-0.461025 -0.740924,-0.386403 -0.07389,0.07462 0.147717,0.361078 0.49246,0.636566 0.817395,0.653191 1.038906,0.430162 0.248464,-0.250163 z M 27.876653,76.324923 c 2.805607,-0.579514 14.705121,-4.876389 15.876579,-5.73298 0.602031,-0.440217 0.270622,-0.573444 -1.681314,-0.675895 -4.057999,-0.21299 -9.127361,1.246743 -12.597963,3.627609 -0.520653,0.357172 -1.663794,0.959946 -2.540313,1.339498 -1.717203,0.743586 -2.233223,1.216143 -1.699517,1.556369 0.434984,0.277295 0.827688,0.260264 2.642528,-0.114601 z m 35.038775,-2.674799 c 1.192734,-0.331475 1.172022,-0.314411 0.851018,-0.701196 -0.419169,-0.505068 -0.923607,-0.385144 -1.821288,0.432992 -0.565675,0.51555 -0.694591,0.720267 -0.405732,0.644297 0.232862,-0.06124 0.852063,-0.230485 1.376002,-0.376093 z M 60.480962,52.611047 c 1.789995,-0.157744 6.820299,-1.061337 7.636923,-1.371817 0.501659,-0.19073 0.542958,-0.264179 0.285294,-0.507372 C 68.237476,50.575462 67.196913,50.112143 66.090819,49.70226 61.65277,48.057662 56.465858,45.939283 48.096938,42.353403 35.17122,36.815046 29.610004,35.024213 30.854483,36.800955 c 0.862797,1.231815 3.94105,3.196123 12.267676,7.828304 6.79591,3.780629 8.451396,4.773148 10.929935,6.552866 2.081665,1.494742 2.75655,1.764472 4.100248,1.638744 0.465724,-0.04358 1.513603,-0.137996 2.32862,-0.209822 z"
       id="path7416"
       inkscape:connector-curvature="0"
       transform="matrix(0.26458333,0,0,0.26458333,0,87)" />
    <path
       style="opacity:1;fill:#ffffff;fill-opacity:1;fill-rule:nonzero;stroke:none;stroke-width:2.51338577;stroke-linecap:butt;stroke-linejoin:miter;stroke-miterlimit:4;stroke-dasharray:none;stroke-dashoffset:0;stroke-opacity:1;paint-order:stroke fill markers"
       d="m 59.367441,94.172407 c 0.04734,-0.142018 0.690792,-0.380609 1.429896,-0.530201 0.739102,-0.149591 1.38468,-0.312842 1.434616,-0.362778 0.389328,-0.38933 -1.127876,-0.918399 -5.455613,-1.902451 -2.920225,-0.664006 -4.310591,-1.275345 -5.596724,-2.460862 -1.253517,-1.155453 -1.662802,-1.844895 -2.424286,-4.083724 -0.345969,-1.017175 -1.019755,-2.561325 -1.497302,-3.431443 -0.47755,-0.870117 -1.160091,-2.414468 -1.51676,-3.431889 -1.119056,-3.192171 -1.731669,-3.425912 -4.622858,-1.76383 -3.337355,1.918571 -9.179148,4.133212 -12.366951,4.688344 -4.016627,0.699465 -7.079073,-0.543995 -8.36964,-3.398369 -0.827159,-1.829444 -0.363177,-4.053718 1.071718,-5.137691 0.391074,-0.29543 2.330493,-1.416133 4.30982,-2.49045 4.828352,-2.620678 6.325977,-3.605781 6.623647,-4.356893 0.133111,-0.335875 0.489144,-1.61093 0.791186,-2.833456 0.664291,-2.688743 1.159176,-3.493014 2.839937,-4.615384 1.561103,-1.042463 2.693659,-1.478324 6.717545,-2.585214 3.556965,-0.978452 4.576269,-1.476227 5.044824,-2.463631 0.35707,-0.752473 0.153924,-1.555485 -0.393507,-1.555485 -0.149419,0 -0.781155,-0.151301 -1.403862,-0.336224 -0.830729,-0.246701 -1.456431,-0.645498 -2.349935,-1.497757 -1.120824,-1.069084 -1.391808,-1.211525 -3.404701,-1.789661 -4.055507,-1.164806 -8.872643,-3.893419 -11.877041,-6.727615 -1.905559,-1.797608 -2.689302,-3.143776 -2.691953,-4.623731 -0.0037,-2.046357 1.275867,-4.471901 2.665279,-5.052435 1.62862,-0.680481 4.58311,-0.174315 6.858907,1.175074 0.899712,0.533467 2.134049,1.007475 3.566,1.369409 4.305594,1.088263 11.748799,4.388882 14.412063,6.390893 1.028107,0.772842 1.621716,1.029474 3.397655,1.468888 5.719154,1.415067 12.667817,4.186336 19.480976,7.769409 l 3.281237,1.72562 7.885553,7.83246 7.885554,7.832461 v 3.680653 c 0,2.849399 -0.05976,3.66117 -0.264616,3.594392 -0.145539,-0.04744 -1.445258,-1.412863 -2.888263,-3.034264 -7.118907,-7.999 -16.682087,-18.08403 -17.148272,-18.08403 -0.143695,0 -1.326609,0.471146 -2.628695,1.046992 -4.272926,1.88969 -6.62928,2.384312 -15.174843,3.185353 -5.396701,0.505874 -7.261947,0.821859 -10.796328,1.828974 -4.950745,1.410708 -8.256016,2.967352 -8.256016,3.888239 0,0.567175 1.300054,1.458038 2.487475,1.704545 1.407101,0.292115 4.982704,0.116778 7.567929,-0.371108 2.274276,-0.4292 11.285347,-0.624766 13.43074,-0.291484 1.970445,0.306104 3.277455,0.874486 4.298525,1.869308 1.032698,1.00615 1.069029,1.851766 0.129772,3.020544 -0.617656,0.768591 -0.645229,0.871857 -0.394443,1.477306 0.372729,0.899851 3.390453,3.888802 5.643126,5.589321 1.131735,0.854335 3.00215,1.958581 4.729872,2.792396 1.571818,0.758574 3.286529,1.588403 3.810469,1.844062 0.80045,0.390586 0.963155,0.573964 1.018593,1.148012 0.08875,0.918951 -0.61698,1.333664 -3.498038,2.055589 -1.222862,0.306419 -2.615504,0.75717 -3.094761,1.00167 -1.073307,0.547561 -5.452715,4.915067 -5.821702,5.805883 -0.23297,0.562442 -0.210799,0.797433 0.165254,1.751488 0.814572,2.066587 1.11497,1.932989 -4.346401,1.932989 -3.667284,0 -4.760681,-0.06014 -4.694657,-0.258214 z m 3.318654,-7.442771 c -0.04851,-0.04402 -1.898178,-0.474555 -4.110367,-0.956736 -2.212189,-0.482181 -4.18887,-0.91355 -4.392624,-0.9586 -0.596493,-0.13188 -0.428718,0.235862 0.393848,0.863264 1.018538,0.776876 2.628067,1.092952 5.674677,1.114378 1.387468,0.0098 2.482978,-0.01827 2.434466,-0.06231 z m 6.675201,-4.983168 c 0.256648,-0.415263 -3.826234,-2.797604 -6.022482,-3.51409 -2.482468,-0.809858 -8.375117,-3.292032 -8.626478,-3.63375 -0.418491,-0.568922 -0.322832,-2.987893 0.160251,-4.052404 0.366482,-0.807572 0.5914,-0.993864 1.90411,-1.577126 2.218053,-0.985523 1.775355,-1.365477 -1.63392,-1.40235 l -1.9511,-0.0211 -0.775541,0.77554 c -1.228833,1.228834 -1.824439,2.772095 -1.940339,5.027562 -0.121946,2.373177 0.144999,3.423207 1.127448,4.4348 1.915887,1.972728 7.178151,3.554435 13.077872,3.930886 3.793087,0.24203 4.547204,0.247191 4.680179,0.03203 z m -19.359123,-0.86418 c -0.681799,-0.514282 -0.895219,-0.300335 -0.234628,0.235207 0.278465,0.225752 0.562825,0.353929 0.631916,0.284839 0.06909,-0.06909 -0.109689,-0.30311 -0.397288,-0.520046 z M 27.707675,76.3427 c 2.058236,-0.436154 3.819217,-1.001403 8.746164,-2.807388 5.325755,-1.952167 7.716684,-3.014898 7.429352,-3.302231 -0.341692,-0.341691 -3.242363,-0.431313 -5.137088,-0.15872 -2.494521,0.358884 -6.018214,1.5799 -8.062348,2.793736 -0.959754,0.569915 -2.626178,1.459994 -3.703165,1.977953 -1.835552,0.88278 -2.356927,1.394502 -1.693542,1.662184 0.453402,0.182951 0.929877,0.150367 2.420627,-0.165534 z m 35.869448,-2.869657 c 0.559419,0 0.493144,-0.388552 -0.113415,-0.664919 -0.433731,-0.197619 -0.624072,-0.145589 -1.270156,0.347204 -1.004958,0.766518 -0.961707,1.005189 0.113414,0.625863 0.480363,-0.169481 1.051933,-0.308148 1.270157,-0.308148 z M 62.09999,52.386372 c 3.093305,-0.452208 6.340578,-1.195246 6.374485,-1.458603 0.02859,-0.222073 -0.524077,-0.457333 -7.887667,-3.357627 -2.503266,-0.98596 -8.218969,-3.360628 -12.701562,-5.27704 -10.43701,-4.462061 -14.839906,-6.077977 -16.560701,-6.077977 -0.789249,0 -0.738079,0.336197 0.183452,1.205312 1.542534,1.454797 3.842363,2.85385 14.366168,8.739355 2.32862,1.302296 5.649088,3.31271 7.378818,4.467588 l 3.144964,2.099777 h 1.685464 c 0.927004,0 2.734464,-0.153353 4.016579,-0.340785 z"
       id="path7418"
       inkscape:connector-curvature="0"
       transform="matrix(0.26458333,0,0,0.26458333,0,87)" />
  </g>
</svg>
