<?xml version="1.0" encoding="UTF-8" standalone="no"?>
<!-- Created with Inkscape (http://www.inkscape.org/) -->

<svg
   xmlns:dc="http://purl.org/dc/elements/1.1/"
   xmlns:cc="http://creativecommons.org/ns#"
   xmlns:rdf="http://www.w3.org/1999/02/22-rdf-syntax-ns#"
   xmlns:svg="http://www.w3.org/2000/svg"
   xmlns="http://www.w3.org/2000/svg"
   xmlns:sodipodi="http://sodipodi.sourceforge.net/DTD/sodipodi-0.dtd"
   xmlns:inkscape="http://www.inkscape.org/namespaces/inkscape"
   width="297mm"
   height="210mm"
   viewBox="0 0 297 210"
   version="1.1"
   id="svg1549"
   sodipodi:docname="L.svg"
   inkscape:version="0.92.2 (5c3e80d, 2017-08-06)">
  <defs
     id="defs1543">
    <inkscape:path-effect
       effect="spiro"
       id="path-effect7999"
       is_visible="true" />
  </defs>
  <sodipodi:namedview
     id="base"
     pagecolor="#ffffff"
     bordercolor="#666666"
     borderopacity="1.0"
     inkscape:pageopacity="0.0"
     inkscape:pageshadow="2"
     inkscape:zoom="5.0578988"
     inkscape:cx="72.416526"
     inkscape:cy="727.54384"
     inkscape:document-units="mm"
     inkscape:current-layer="layer1"
     showgrid="false"
     inkscape:window-width="1366"
     inkscape:window-height="705"
     inkscape:window-x="-8"
     inkscape:window-y="-8"
     inkscape:window-maximized="1" />
  <metadata
     id="metadata1546">
    <rdf:RDF>
      <cc:Work
         rdf:about="">
        <dc:format>image/svg+xml</dc:format>
        <dc:type
           rdf:resource="http://purl.org/dc/dcmitype/StillImage" />
        <dc:title />
      </cc:Work>
    </rdf:RDF>
  </metadata>
  <g
     inkscape:label="Capa 1"
     inkscape:groupmode="layer"
     id="layer1"
     transform="translate(0,-87)">
    <path
       style="opacity:1;fill:#216778;fill-opacity:1;fill-rule:nonzero;stroke:none;stroke-width:0.66499996;stroke-linecap:butt;stroke-linejoin:miter;stroke-miterlimit:4;stroke-dasharray:none;stroke-dashoffset:0;stroke-opacity:1;paint-order:stroke fill markers"
       d="m 0.50185393,92.697146 c 0.0075,-0.12331 0.03019,-0.85921 0.05047,-1.63532 0.05885,-2.25183 0.109397,-2.88914 0.247092,-3.11555 0.120457,-0.19808 0.51778697,-0.2316 0.69108297,-0.0583 0.154096,0.15409 0.204081,0.52209 0.261007,1.92149 0.02249,0.55297 0.05137,1.24354 0.06416,1.53458 l 0.02326,0.52917 0.881943,0.0177 c 0.806257,0.0161 0.892543,0.0238 1.005417,0.0898 0.237987,0.13905 0.279556,0.60773 0.06783,0.7647 -0.169008,0.1253 -0.3478,0.14073 -1.83677,0.15849 l -1.46908597,0.0175 z m 0.75794697,-1.82532 c 0.02653,-0.40353 0.02677,-0.75183 7.94e-4,-1.17261 -0.0374,-0.60645 -0.07054,-0.7751 -0.113507,-0.57767 -0.03021,0.13884 -0.03799,2.1277 -0.0089,2.27322 0.04381,0.21903 0.08424,0.0451 0.121579,-0.52294 z"
       id="path2518"
       inkscape:connector-curvature="0" />
    <path
       style="opacity:1;fill:#216778;fill-opacity:1;fill-rule:nonzero;stroke:none;stroke-width:0.66499996;stroke-linecap:butt;stroke-linejoin:miter;stroke-miterlimit:4;stroke-dasharray:none;stroke-dashoffset:0;stroke-opacity:1;paint-order:stroke fill markers"
       d="m 6.4779529,112.86834 c 0,-0.0643 -0.214336,-1.03392 -0.384572,-1.7398 -0.396123,-1.6425 -0.539623,-2.56324 -0.540583,-3.46852 -7.94e-4,-0.63692 0.02852,-0.81139 0.135773,-0.81139 0.03247,0 0.187643,0.0698 0.344832,0.15506 0.606298,0.32893 1.595279,0.54854 2.962566,0.65786 0.834197,0.0667 1.0383861,0.006 1.3381911,-0.39968 0.272203,-0.36808 0.487709,-0.52117 0.800459,-0.56862 0.423016,-0.0642 0.700159,-0.49193 0.886553,-1.36827 0.0835,-0.39256 0.103979,-1.15204 0.06595,-2.4451 -0.02275,-0.77358 -0.02143,-0.77654 0.332523,-0.74446 0.483839,0.0438 0.475433,0.0913 0.515507,-2.906784 0.04038,-3.02065 0.09137,-3.79554 0.277442,-4.21619 0.121129,-0.27382 0.32009,-0.27262 0.563065,0.003 0.358799,0.40762 0.606054,1.85535 0.957487,5.606254 0.167677,1.78965 0.286819,2.70922 0.478142,3.69044 0.09386,0.48136 0.159411,0.69265 0.329639,1.06246 0.130289,0.28306 0.136009,0.37786 0.02887,0.47851 -0.114808,0.10785 -0.297047,0.16413 -1.05007,0.32426 -0.962684,0.20471 -1.28275,0.33053 -1.568998,0.61678 -0.213407,0.21341 -0.259434,0.39145 -0.156278,0.60455 0.09331,0.19275 0.285136,0.33147 0.458364,0.33147 0.08266,0 0.257966,-0.0663 0.507635,-0.19203 0.386781,-0.19476 0.62543,-0.26356 1.166256,-0.33624 0.813637,-0.10935 2.602992,-0.79244 3.969028,-1.5152 1.036175,-0.54823 1.360742,-0.68111 1.673667,-0.68521 0.269044,-0.004 0.503756,0.0764 0.659389,0.2244 0.114827,0.10923 0.136388,0.15249 0.136388,0.27361 0,0.20388 -0.126458,0.33787 -0.475247,0.50358 -0.487551,0.23164 -1.091677,0.68614 -2.361695,1.77679 -0.787776,0.67651 -1.572871,1.3358 -2.154865,1.80955 -0.619807,0.50454 -1.288386,1.34193 -1.945769,2.43707 -0.179658,0.2993 -0.353293,0.61394 -0.385858,0.6992 l -0.05921,0.15503 h -3.752289 c -2.0637611,0 -3.7522921,-0.006 -3.7522921,-0.0128 z"
       id="path2520"
       inkscape:connector-curvature="0" />
    <path
       style="opacity:1;fill:#216778;fill-opacity:1;fill-rule:nonzero;stroke:none;stroke-width:0.66499996;stroke-linecap:butt;stroke-linejoin:miter;stroke-miterlimit:4;stroke-dasharray:none;stroke-dashoffset:0;stroke-opacity:1;paint-order:stroke fill markers"
       d="m 10.587556,105.40784 c -0.139178,-0.0849 -0.400729,-0.43386 -0.477985,-0.63777 -0.2129841,-0.56214 -0.3292981,-1.58344 -0.3297711,-2.8956 -2.65e-4,-1.08369 0.04329,-1.45581 0.187838,-1.60036 0.06769,-0.0677 0.07038,-0.0674 0.2570241,0.0239 0.45684,0.22351 1.387128,1.25325 1.194186,1.32185 -0.110823,0.0394 -0.207327,0.1817 -0.246536,0.36351 -0.0602,0.27913 -0.106042,0.98901 -0.107217,1.66008 -0.0016,0.969 -0.09141,1.60225 -0.249365,1.7602 -0.08479,0.0848 -0.09571,0.085 -0.228174,0.004 z"
       id="path2522"
       inkscape:connector-curvature="0" />
    <path
       style="opacity:1;fill:#216778;fill-opacity:1;fill-rule:nonzero;stroke:none;stroke-width:0.66499996;stroke-linecap:butt;stroke-linejoin:miter;stroke-miterlimit:4;stroke-dasharray:none;stroke-dashoffset:0;stroke-opacity:1;paint-order:stroke fill markers"
       d="m 9.1767029,106.61697 c -0.265644,-0.13767 -0.53158,-0.49373 -0.812609,-1.08802 -0.450075,-0.95177 -0.575506,-1.43935 -0.604335,-2.3492 -0.02927,-0.92354 0.09114,-1.69783 0.327713,-2.1075 0.136289,-0.23601 0.341714,-0.25376 0.446892,-0.0386 0.09859,0.20165 0.126542,0.4651 0.164099,1.54638 0.05222,1.50336 0.136941,1.99706 0.519833,3.02906 0.124994,0.33689 0.236415,0.68983 0.247605,0.7843 0.03126,0.26393 -0.0661,0.3392 -0.289198,0.22359 z"
       id="path2524"
       inkscape:connector-curvature="0" />
    <path
       style="opacity:1;fill:#216778;fill-opacity:1;fill-rule:nonzero;stroke:none;stroke-width:0.66499996;stroke-linecap:butt;stroke-linejoin:miter;stroke-miterlimit:4;stroke-dasharray:none;stroke-dashoffset:0;stroke-opacity:1;paint-order:stroke fill markers"
       d="m 7.0052069,106.32385 c -0.268677,-0.17379 -0.623438,-0.58933 -0.799224,-0.93615 -0.255919,-0.50491 -0.398307,-1.20773 -0.398307,-1.966 0,-0.80388 0.136853,-1.284 0.434555,-1.52454 0.154916,-0.12517 0.303754,-0.21336 0.324712,-0.19241 0.0068,0.007 0.03757,0.43276 0.06834,0.94654 0.09053,1.51153 0.226671,2.2296 0.568772,2.99995 0.292555,0.65878 0.210238,0.93722 -0.198848,0.67261 z"
       id="path2526"
       inkscape:connector-curvature="0" />
    <path
       style="opacity:1;fill:#216778;fill-opacity:1;fill-rule:nonzero;stroke:none;stroke-width:0.66499996;stroke-linecap:butt;stroke-linejoin:miter;stroke-miterlimit:4;stroke-dasharray:none;stroke-dashoffset:0;stroke-opacity:1;paint-order:stroke fill markers"
       d="m 5.0903619,103.26206 c -0.0399,-0.0399 -0.02699,-0.74628 0.0141,-0.77168 0.06484,-0.0401 0.08045,0.0113 0.09652,0.31744 0.02021,0.38505 -0.01897,0.5459 -0.110623,0.45424 z"
       id="path2528"
       inkscape:connector-curvature="0" />
    <path
       style="opacity:1;fill:#216778;fill-opacity:1;fill-rule:nonzero;stroke:none;stroke-width:0.66499996;stroke-linecap:butt;stroke-linejoin:miter;stroke-miterlimit:4;stroke-dasharray:none;stroke-dashoffset:0;stroke-opacity:1;paint-order:stroke fill markers"
       d="m 11.440949,103.05098 c -0.03823,-0.0382 -0.028,-0.67606 0.01124,-0.7003 0.06247,-0.0386 0.112173,0.16954 0.09885,0.4139 -0.01225,0.22469 -0.05655,0.33993 -0.110082,0.2864 z"
       id="path2532"
       inkscape:connector-curvature="0" />
    <path
       style="opacity:1;fill:#216778;fill-opacity:1;fill-rule:nonzero;stroke:none;stroke-width:0.66499996;stroke-linecap:butt;stroke-linejoin:miter;stroke-miterlimit:4;stroke-dasharray:none;stroke-dashoffset:0;stroke-opacity:1;paint-order:stroke fill markers"
       d="m 15.383878,100.20703 c -0.03246,-0.0846 -0.0011,-0.537824 0.03699,-0.532054 0.06751,0.0103 0.135496,0.29649 0.101976,0.429264 -0.03341,0.13236 -0.106794,0.18663 -0.138966,0.10279 z"
       id="path2534"
       inkscape:connector-curvature="0" />
    <path
       style="opacity:1;fill:#216778;fill-opacity:1;fill-rule:nonzero;stroke:none;stroke-width:0.66499996;stroke-linecap:butt;stroke-linejoin:miter;stroke-miterlimit:4;stroke-dasharray:none;stroke-dashoffset:0;stroke-opacity:1;paint-order:stroke fill markers"
       d="m 15.897119,110.87385 c 0,-0.0645 0.410523,-0.55039 0.651317,-0.77084 0.322279,-0.29505 0.384405,-0.30124 0.19018,-0.019 -0.21477,0.31216 -0.841497,0.90037 -0.841497,0.78979 z"
       id="path2536"
       inkscape:connector-curvature="0" />
    <path
       style="opacity:1;fill:#216778;fill-opacity:1;fill-rule:nonzero;stroke:none;stroke-width:0.66499996;stroke-linecap:butt;stroke-linejoin:miter;stroke-miterlimit:4;stroke-dasharray:none;stroke-dashoffset:0;stroke-opacity:1;paint-order:stroke fill markers"
       d="m 18.542953,108.73783 c 0,-0.0323 0.370699,-0.4685 0.595963,-0.70123 0.44577,-0.46054 0.754362,-0.67172 0.513025,-0.35108 -0.35378,0.47002 -1.108988,1.18663 -1.108988,1.05231 z"
       id="path2538"
       inkscape:connector-curvature="0" />
    <path
       style="opacity:1;fill:#216778;fill-opacity:1;fill-rule:nonzero;stroke:none;stroke-width:0.66499996;stroke-linecap:butt;stroke-linejoin:miter;stroke-miterlimit:4;stroke-dasharray:none;stroke-dashoffset:0;stroke-opacity:1;paint-order:stroke fill markers"
       d="m 2.6326759,103.92513 v -9.097104 l 0.202848,-0.0206 c 0.111565,-0.0113 0.722895,-0.0483 1.358509,-0.082 0.635614,-0.0338 1.169223,-0.0702 1.185799,-0.081 0.01656,-0.0107 0.06538,-0.75772 0.10846,-1.65995 0.04308,-0.90223 0.08097,-1.64088 0.0842,-1.64145 0.05868,-0.0103 18.5672281,0.13882 18.5794651,0.14974 0.0176,0.0157 0.133705,16.607244 0.138628,19.809704 l 0.0026,1.71979 h -4.60375 c -2.532062,0 -4.60375,-0.009 -4.60375,-0.0195 0,-0.0107 0.189175,-0.30041 0.420391,-0.64382 0.492991,-0.73221 0.980948,-1.27932 1.913319,-2.14526 1.334291,-1.23923 2.531142,-2.22783 3.728757,-3.07997 0.841976,-0.59909 1.208,-1.00158 1.382152,-1.51985 0.188253,-0.56022 -0.0524,-1.08904 -0.617054,-1.35598 -0.355608,-0.16811 -0.596932,-0.21132 -1.183121,-0.21183 -0.784315,-8e-4 -1.295175,0.12467 -1.993194,0.48911 -0.980524,0.51194 -1.647904,0.65585 -2.061924,0.44464 -0.542891,-0.27697 -0.76295,-1.24495 -0.918499,-4.04024 -0.174058,-3.127974 -0.395292,-4.800314 -0.7802,-5.897744 -0.150561,-0.42927 -0.298921,-0.69644 -0.518414,-0.93359 -0.20718,-0.22385 -0.392221,-0.32887 -0.673381,-0.38219 -0.522277,-0.0991 -1.360254,0.32855 -1.634249,0.83391 -0.238691,0.44025 -0.27418,0.88527 -0.274561,3.44274 -1.74e-4,1.14749 -0.01384,2.037294 -0.03131,2.037294 -0.01707,0 -0.192506,-0.127674 -0.389893,-0.283724 -0.682673,-0.53968 -1.039061,-0.73934 -1.319744,-0.73934 -0.1672831,0 -0.4674261,0.16258 -0.5963711,0.32303 -0.120623,0.1501 -0.418512,0.30932 -0.710284,0.37964 -0.09469,0.0228 -0.364564,0.0557 -0.599721,0.073 -0.523999,0.0387 -0.756806,0.10499 -0.901231,0.256754 -0.05971,0.0627 -0.163865,0.17233 -0.231461,0.24352 -0.160731,0.1693 -0.413131,0.28826 -0.84709,0.39924 -0.472678,0.12088 -0.683567,0.22944 -0.894932,0.46071 -0.429704,0.47017 -0.573135,1.28047 -0.639778,3.61435 -0.04328,1.51583 -0.04318,2.82343 2.65e-4,3.93347 0.06595,1.683 0.144491,2.23576 0.483719,3.4043 0.126733,0.43657 0.238236,0.82154 0.247785,0.85549 0.01633,0.0581 -0.06694,0.0617 -1.397865,0.0617 h -1.415181 z"
       id="path2540"
       inkscape:connector-curvature="0" />
    <path
       style="opacity:1;fill:#216778;fill-opacity:1;fill-rule:nonzero;stroke:none;stroke-width:0.66499996;stroke-linecap:butt;stroke-linejoin:miter;stroke-miterlimit:4;stroke-dasharray:none;stroke-dashoffset:0;stroke-opacity:1;paint-order:stroke fill markers"
       d="m 13.418857,94.194876 c -0.164139,-0.0429 0.0031,-0.15208 0.232921,-0.15208 0.187947,0 0.269788,0.0266 0.269788,0.0876 0,0.0718 -0.318553,0.11264 -0.502709,0.0645 z"
       id="path2542"
       inkscape:connector-curvature="0" />
    <path
       style="opacity:1;fill:#ffffff;fill-opacity:1;fill-rule:nonzero;stroke:none;stroke-width:2.51338577;stroke-linecap:butt;stroke-linejoin:miter;stroke-miterlimit:4;stroke-dasharray:none;stroke-dashoffset:0;stroke-opacity:1;paint-order:stroke fill markers"
       d="m 20.275887,96.891057 c -1.144823,-4.067604 -1.64018,-6.188882 -1.894425,-8.112521 -0.687832,-5.204218 -0.817187,-17.677085 -0.272128,-26.239688 0.355012,-5.577063 0.928734,-7.73979 2.451375,-9.240806 0.610483,-0.601813 1.176077,-0.875334 3.042211,-1.471212 2.06999,-0.660972 2.398306,-0.832611 3.385213,-1.769749 0.601096,-0.570782 1.314342,-1.121977 1.584991,-1.224878 0.270649,-0.102902 1.469269,-0.29117 2.663599,-0.418375 2.380856,-0.25358 3.905905,-0.802921 4.939457,-1.779251 0.688469,-0.650351 1.703646,-1.198533 2.214425,-1.195761 0.676465,0.0037 2.340628,0.933391 4.34035,2.424825 1.861166,1.388098 2.015829,1.465875 2.122688,1.067471 0.06339,-0.236343 0.118013,-3.76608 0.121382,-7.84386 0.0072,-8.718825 0.160205,-10.710616 0.941176,-12.252413 0.928314,-1.83268 3.446929,-3.366722 5.527542,-3.366722 3.921771,0 6.102408,5.025435 7.249305,16.706543 0.528457,5.382316 0.600352,6.821014 0.340863,6.821014 -0.127755,0 -0.273976,-0.133454 -0.324931,-0.296566 -0.316282,-1.012386 -0.302031,-0.992653 -0.495681,-0.686445 -0.216647,0.342571 -0.252856,1.842906 -0.04939,2.046374 0.07739,0.07739 0.299162,-0.06347 0.492822,-0.313041 0.543498,-0.7004 0.678645,-0.248012 0.828984,2.774942 0.425904,8.563903 1.266014,13.264959 2.62995,14.716604 1.581064,1.682734 3.583375,1.50209 8.382669,-0.756267 1.478657,-0.695797 3.302537,-1.414239 4.053066,-1.596536 1.907134,-0.463228 5.94594,-0.449402 7.295917,0.02497 3.882674,1.364356 4.558233,4.669679 1.64984,8.072208 -0.429825,0.502853 -2.400393,2.132564 -4.379038,3.621579 -5.695417,4.286045 -8.953979,7.022179 -14.018442,11.770936 -2.822382,2.646439 -4.918511,5.055065 -6.68323,7.679576 l -1.194294,1.776171 H 55.049952 52.87775 l 0.676949,-1.334547 c 1.49123,-2.939823 4.148363,-6.769388 6.272286,-9.03987 0.686536,-0.73391 2.452145,-2.334442 3.923578,-3.556742 1.471431,-1.2223 4.321271,-3.620867 6.332976,-5.330148 4.472327,-3.799993 6.383872,-5.250042 8.642413,-6.55592 1.881323,-1.087772 2.269282,-1.609669 1.92384,-2.588022 -0.247241,-0.700235 -1.675013,-1.449046 -2.762926,-1.449046 -1.141907,0 -1.93421,0.30865 -5.84116,2.275476 -7.065747,3.557019 -11.882735,5.378629 -16.207033,6.128907 -1.06496,0.184773 -2.511302,0.625114 -3.59007,1.093002 -0.99363,0.430959 -1.993883,0.783564 -2.222789,0.783564 -1.01159,0 -2.063825,-1.489294 -1.709915,-2.420149 0.279365,-0.734784 1.654216,-1.847382 2.810987,-2.274791 0.585117,-0.21619 2.45296,-0.72057 4.150763,-1.120845 3.030957,-0.714579 3.931809,-1.123114 3.931809,-1.783072 0,-0.147488 -0.264044,-0.888656 -0.586763,-1.647036 -1.095698,-2.574852 -1.9016,-7.59636 -2.974275,-18.532441 -1.421665,-14.49413 -2.285668,-19.060291 -3.869729,-20.451116 -0.790947,-0.69446 -1.08156,-0.743901 -1.52066,-0.258703 -0.936766,1.035115 -1.126566,3.084347 -1.423719,15.371634 -0.175385,7.25214 -0.334712,10.882458 -0.496762,11.31893 -0.228516,0.615489 -0.28327,0.642559 -1.299676,0.642559 -0.815675,0 -1.104745,0.08153 -1.249754,0.352482 -0.107074,0.200072 -0.184421,2.657873 -0.178877,5.684179 0.0088,4.789309 -0.03185,5.485944 -0.399264,6.847954 -0.784899,2.909588 -1.524307,3.892146 -3.317172,4.408005 -1.025007,0.294925 -1.353151,0.527808 -2.659379,1.887365 -0.882266,0.918284 -1.721187,1.608927 -2.056625,1.693116 -0.87076,0.218547 -5.079544,-0.05591 -7.722784,-0.503613 -2.830719,-0.479452 -4.641346,-0.99942 -6.564095,-1.885045 -1.684624,-0.775943 -1.762811,-0.731927 -1.94947,1.097483 -0.284338,2.786756 0.334685,7.10343 2.181893,15.215133 0.581921,2.555409 1.117311,4.93535 1.189755,5.288757 l 0.131716,0.64256 h -1.951809 -1.951808 z m 41.202496,-7.592488 c 1.182977,-1.081177 2.399025,-2.683186 2.193074,-2.889137 -0.147363,-0.147364 -3.106477,2.825118 -3.447327,3.4629 -0.385193,0.720756 0.06135,0.516484 1.254253,-0.573763 z m 10.77568,-8.817488 c 1.796329,-1.804991 2.52142,-2.738679 2.299312,-2.960787 -0.147282,-0.147282 -4.469834,4.20582 -4.469834,4.501425 0,0.471433 0.572558,0.06503 2.170522,-1.540638 z m -36.411131,-6.71449 c 0.0342,-0.24045 -0.389726,-1.78273 -0.942049,-3.427293 -1.535938,-4.573312 -1.670559,-5.375445 -1.982982,-11.815466 -0.21789,-4.491406 -0.460017,-5.798599 -1.121039,-6.052256 -0.836534,-0.321009 -1.636049,0.928089 -2.147421,3.354958 -0.444372,2.108898 -0.443261,6.730368 0.0021,8.86893 0.918471,4.410053 4.021647,9.749306 5.563808,9.572958 0.407706,-0.04662 0.582716,-0.186572 0.627551,-0.501831 z m -8.108993,-0.49206 c 0.373519,-0.373519 0.295934,-0.764903 -0.656194,-3.310199 -1.087762,-2.907885 -1.577767,-5.606039 -1.899499,-10.459373 -0.13019,-1.963926 -0.306364,-3.683474 -0.391496,-3.821223 -0.23862,-0.386095 -1.575929,0.77638 -2.097857,1.823591 -1.301974,2.612324 -0.987881,8.340764 0.644459,11.75368 0.768204,1.606171 2.19144,3.306379 3.224757,3.852319 0.86808,0.458639 0.877152,0.459882 1.17583,0.161205 z M 41.20063,69.064063 c 0.365171,-0.76409 0.558408,-2.74789 0.781724,-8.025334 0.183904,-4.346021 0.320752,-5.058231 1.095453,-5.701176 0.264851,-0.219807 0.26858,-0.320677 0.02871,-0.776443 -0.778807,-1.479804 -4.218993,-4.576883 -5.083931,-4.576883 -0.25602,0 -0.487914,0.24679 -0.696669,0.741415 -0.679714,1.610526 -0.520769,10.480771 0.255741,14.27209 0.394371,1.925527 0.842547,2.927504 1.767289,3.951082 0.873962,0.967372 1.427957,1.001852 1.851678,0.115249 z M 19.667348,59.940466 c 0,-1.101819 -0.0641,-1.466474 -0.247138,-1.40604 -0.25728,0.08494 -0.460683,2.332963 -0.258711,2.859292 0.251856,0.65633 0.505849,-0.07337 0.505849,-1.453252 z m 24.024219,-0.120139 c 0.07525,-0.503926 0.02817,-1.077688 -0.117604,-1.433401 l -0.243071,-0.593132 -0.1551,0.790842 c -0.16858,0.859583 -0.03574,2.075961 0.226713,2.075961 0.08998,0 0.220054,-0.378121 0.289062,-0.84027 z m 8.856831,-32.86938 c -0.09594,-0.502316 -1.825436,-0.440591 -1.996045,0.07124 -0.06074,0.182221 0.196273,0.231464 0.97567,0.186931 0.581973,-0.03325 1.041142,-0.149428 1.020375,-0.258169 z"
       id="path8001"
       inkscape:connector-curvature="0"
       transform="matrix(0.26458333,0,0,0.26458333,0,87)" />
    <path
       style="opacity:1;fill:#ffffff;fill-opacity:1;fill-rule:nonzero;stroke:none;stroke-width:2.51338577;stroke-linecap:butt;stroke-linejoin:miter;stroke-miterlimit:4;stroke-dasharray:none;stroke-dashoffset:0;stroke-opacity:1;paint-order:stroke fill markers"
       d="m 19.774713,95.126613 c -1.711504,-6.206929 -1.965539,-8.898068 -1.956383,-20.725132 0.0091,-11.70042 0.423838,-16.929959 1.537819,-19.388798 0.731461,-1.614521 1.643662,-2.343408 3.841173,-3.069261 2.445036,-0.807614 3.133251,-1.164298 3.983027,-2.0643 0.927574,-0.9824 1.516417,-1.203213 3.957462,-1.484037 2.443478,-0.281103 3.793036,-0.73841 4.856346,-1.645604 0.906672,-0.773555 1.893726,-1.313394 2.396448,-1.310665 0.660915,0.0036 2.322844,0.92434 4.270667,2.366063 1.065761,0.788848 1.999943,1.372157 2.075961,1.296244 0.07602,-0.07592 0.19278,-4.156576 0.259475,-9.06814 0.13078,-9.630895 0.19142,-10.213549 1.225626,-11.776341 0.976728,-1.475934 3.449302,-2.79243 5.229108,-2.784182 4.133936,0.01916 6.24455,5.331063 7.461247,18.778161 0.35044,3.873124 0.366753,4.745053 0.08878,4.745053 -0.114398,0 -0.307209,-0.284602 -0.428469,-0.63245 -0.1943,-0.557368 -0.238373,-0.586708 -0.371241,-0.247138 -0.237537,0.607074 -0.205957,1.868141 0.04678,1.868141 0.123937,0 0.344671,-0.155697 0.490518,-0.345994 0.449962,-0.587091 0.609734,0.0018 0.75705,2.789961 0.466518,8.829817 1.268683,13.219225 2.71734,14.869153 1.428658,1.627152 3.472764,1.398589 8.566215,-0.957834 1.302616,-0.60264 2.946696,-1.249446 3.653511,-1.437344 1.770453,-0.470656 5.821113,-0.493019 7.315291,-0.04039 3.958347,1.199104 4.69442,4.860662 1.656397,8.239672 -0.485249,0.539714 -2.591178,2.267286 -4.679842,3.839047 -10.012091,7.534301 -16.885297,14.044 -20.528137,19.442457 l -0.976578,1.447226 h -2.162586 c -2.503747,0 -2.412852,0.201597 -1.025141,-2.273672 1.933538,-3.448873 4.543084,-6.963279 6.685763,-9.004055 0.746857,-0.711339 2.946624,-2.624189 4.888371,-4.250777 1.941746,-1.626589 4.833263,-4.050168 6.425594,-5.385733 2.866983,-2.404676 5.611628,-4.411423 6.948211,-5.080177 1.056073,-0.528403 1.779395,-1.293748 1.779395,-1.882775 0,-1.146057 -1.920979,-2.149015 -3.626253,-1.893293 -0.531748,0.07974 -2.615022,0.984221 -5.110723,2.218888 -7.205711,3.564789 -11.48886,5.197234 -15.992275,6.09517 -1.342467,0.267674 -2.973834,0.754969 -3.91959,1.170794 -0.891015,0.391756 -1.818346,0.712284 -2.060735,0.712284 -1.032524,0 -2.096264,-1.480984 -1.732813,-2.412498 0.264972,-0.67911 1.38536,-1.668234 2.394419,-2.113889 0.491554,-0.217099 2.35568,-0.757038 4.142503,-1.199868 3.163163,-0.783929 4.073346,-1.140191 4.278441,-1.674658 0.05494,-0.14316 -0.131102,-0.827492 -0.413417,-1.520736 -1.278211,-3.138723 -1.867012,-6.771775 -3.168225,-19.548672 -1.45039,-14.241729 -2.196149,-18.145272 -3.767752,-19.721628 -0.739602,-0.741839 -1.073112,-0.796041 -1.563554,-0.254107 -0.853883,0.943529 -1.12808,4.465683 -1.470439,18.888327 -0.103345,4.353618 -0.260367,7.535416 -0.387845,7.858995 -0.197252,0.500688 -0.299692,0.543704 -1.29483,0.543704 -0.647941,0 -1.144268,0.09896 -1.239558,0.247138 -0.08741,0.135926 -0.171435,2.693807 -0.186726,5.684179 -0.02457,4.803864 -0.07507,5.613618 -0.433696,6.953298 -0.772006,2.883919 -1.537854,3.912151 -3.294121,4.422713 -0.960158,0.279123 -1.349932,0.55474 -2.654758,1.87722 -0.868928,0.880684 -1.770319,1.610536 -2.087324,1.690101 -0.306872,0.07702 -1.634831,0.08523 -2.951021,0.01825 -4.474147,-0.22771 -8.405289,-1.047985 -11.231011,-2.343476 -0.728715,-0.334089 -1.44974,-0.559544 -1.602276,-0.50101 -0.406987,0.156175 -0.569217,2.605022 -0.341278,5.151546 0.268539,3.000108 0.655803,5.132651 2.104661,11.589726 0.694478,3.095048 1.262686,5.697413 1.262686,5.783028 0,0.08561 -0.875745,0.155664 -1.946102,0.155664 h -1.946102 z m 42.902209,-7.123802 c 0.94923,-1.165278 1.1171,-1.581773 0.505646,-1.254533 -0.549186,0.293915 -2.984555,3.01165 -2.984555,3.330595 0,0.403705 1.44407,-0.805689 2.478909,-2.076062 z m 9.453781,-7.422875 c 1.812862,-1.821365 2.667497,-2.916231 2.276367,-2.916231 -0.276,0 -3.811684,3.564957 -4.135182,4.16942 -0.436241,0.815121 0.282394,0.330627 1.858815,-1.253189 z M 35.773211,73.930987 c 0.06584,-0.20744 -0.368092,-1.887036 -0.982123,-3.801468 -1.33036,-4.147807 -1.596242,-5.739887 -1.878502,-11.248317 -0.240869,-4.700671 -0.380538,-5.610254 -0.948721,-6.178437 -0.821403,-0.821402 -1.792307,0.56235 -2.316359,3.301321 -0.341581,1.785283 -0.389649,6.407027 -0.08455,8.129562 0.614283,3.468136 3.041611,8.524823 4.677965,9.74528 0.695575,0.518787 1.376811,0.541933 1.532291,0.05206 z M 27.77135,73.217786 c 0.297213,-0.358121 0.208754,-0.750353 -0.780888,-3.462503 -1.107086,-3.034011 -1.582671,-5.798617 -1.903211,-11.063509 -0.07586,-1.245966 -0.193827,-2.474421 -0.262154,-2.729905 l -0.124229,-0.464513 -0.804089,0.582479 c -1.033796,0.748878 -1.572297,1.908985 -1.859386,4.005723 -0.385449,2.815108 0.204981,6.954902 1.30519,9.151314 0.781207,1.559569 2.001879,3.06153 3.005373,3.697929 1.050866,0.666439 1.097467,0.675703 1.423394,0.282985 z m 13.330842,-4.023242 c 0.397574,-0.768823 0.66649,-3.231031 0.807729,-7.395628 0.142215,-4.193332 0.343478,-5.598657 0.884248,-6.17428 0.220404,-0.234611 0.400736,-0.546066 0.400736,-0.692125 0,-0.803602 -3.357782,-4.175948 -4.719537,-4.740004 -0.569438,-0.235869 -0.662671,-0.224593 -0.913765,0.110518 -0.472137,0.630116 -0.595425,1.985068 -0.573654,6.304506 0.03662,7.26609 0.682428,10.522183 2.45691,12.387551 0.861415,0.905536 1.266969,0.954345 1.657333,0.199462 z M 19.664321,59.930851 c 0.0033,-1.329498 -0.26976,-1.811103 -0.467177,-0.824016 -0.163618,0.818087 -0.156611,2.245018 0.01185,2.413479 0.265601,0.265602 0.45235,-0.386305 0.455326,-1.589463 z m 23.989915,0.01708 c 0.131912,-0.812873 -0.02912,-1.857574 -0.286335,-1.857574 -0.09515,0 -0.172996,0.578303 -0.172996,1.285119 0,1.388675 0.271889,1.727531 0.459331,0.572465 z m 8.788547,-33.058079 c 0.06402,-0.194348 -0.149865,-0.243588 -0.858788,-0.197711 -0.556618,0.03602 -0.979019,0.167301 -1.029281,0.319895 -0.06402,0.194348 0.149865,0.243588 0.858787,0.19771 0.556619,-0.03602 0.97902,-0.1673 1.029282,-0.319894 z"
       id="path8003"
       inkscape:connector-curvature="0"
       transform="matrix(0.26458333,0,0,0.26458333,0,87)" />
    <path
       style="opacity:1;fill:#ffffff;fill-opacity:1;fill-rule:nonzero;stroke:none;stroke-width:2.51338577;stroke-linecap:butt;stroke-linejoin:miter;stroke-miterlimit:4;stroke-dasharray:none;stroke-dashoffset:0;stroke-opacity:1;paint-order:stroke fill markers"
       d="m 19.700218,94.913952 c -1.446329,-5.244047 -1.719471,-7.551577 -1.924893,-16.261694 -0.144458,-6.125154 0.170679,-16.401777 0.600224,-19.573345 0.32926,-2.431107 0.667346,-3.627513 1.35821,-4.806384 0.659976,-1.126163 1.642653,-1.771166 3.69009,-2.422074 2.180425,-0.693188 2.573717,-0.903281 3.843408,-2.05312 1.135505,-1.028318 1.17336,-1.041766 4.163869,-1.479419 2.562319,-0.374985 3.427735,-0.697062 4.827108,-1.796471 1.99038,-1.56373 2.652332,-1.43249 6.442394,1.277287 l 1.977106,1.413572 0.126153,-1.838283 c 0.06938,-1.011055 0.136842,-4.551859 0.149906,-7.868454 0.0348,-8.835428 0.33735,-10.635731 2.046949,-12.180251 1.606626,-1.451489 4.170176,-2.191809 5.765991,-1.665143 3.232611,1.066859 5.085768,6.597223 6.138571,18.319313 0.356755,3.972166 0.377892,5.016188 0.101552,5.016188 -0.111431,0 -0.299169,-0.244667 -0.417195,-0.543704 -0.200281,-0.507442 -0.2254,-0.517331 -0.376632,-0.148283 -0.201481,0.491669 -0.23423,1.372529 -0.05759,1.549165 0.07273,0.07273 0.300588,-0.02011 0.506347,-0.206325 0.56222,-0.508802 0.679027,-0.145068 0.829829,2.584074 0.341986,6.189076 0.952004,10.922154 1.679929,13.034414 0.541112,1.570174 1.107179,2.296056 2.150405,2.757525 1.469792,0.650159 3.188476,0.246924 7.710237,-1.808967 2.706845,-1.230711 3.821745,-1.535823 6.212435,-1.700145 3.554083,-0.244287 6.17439,0.555108 7.362991,2.246279 0.523624,0.745029 0.600791,1.024044 0.600791,2.172337 0,2.579073 -1.101699,3.961546 -6.270837,7.869011 -9.396136,7.10274 -16.422207,13.637441 -20.006322,18.607173 l -1.746686,2.421955 h -2.146022 -2.146023 l 0.195063,-0.513055 c 0.544942,-1.433305 3.564039,-6.111635 5.346657,-8.285065 1.691446,-2.06227 3.043661,-3.298364 9.771062,-8.931968 6.724976,-5.631574 8.386425,-6.918365 10.519453,-8.147313 2.133117,-1.229 2.495981,-1.964813 1.473278,-2.987517 -0.78436,-0.784357 -2.035998,-1.094719 -3.270127,-0.810872 -0.530867,0.122098 -3.155474,1.282119 -5.832462,2.577827 -6.960257,3.368881 -10.575866,4.736135 -14.886304,5.629304 -1.269588,0.263072 -3.09036,0.79714 -4.046158,1.186813 -1.93978,0.790841 -2.356342,0.846486 -2.993888,0.399933 -0.48397,-0.338986 -1.031414,-1.274201 -1.031414,-1.761992 0,-0.541905 1.552008,-2.019902 2.589891,-2.466388 0.549521,-0.236399 2.349118,-0.771034 3.999102,-1.188079 4.905402,-1.239876 4.725921,-1.069169 3.803447,-3.617545 C 57.369317,65.707529 56.760014,61.835302 55.551431,49.984227 54.03419,35.106545 53.215853,31.040436 51.491757,29.812772 c -0.97735,-0.695935 -1.542694,-0.09665 -1.963074,2.080939 -0.227045,1.17611 -0.538733,8.121931 -0.780745,17.398529 -0.101155,3.877349 -0.265324,6.952255 -0.387926,7.265863 -0.190318,0.486819 -0.311325,0.54402 -1.156575,0.546731 -0.51921,0.0016 -1.042834,0.06839 -1.16361,0.148283 -0.147881,0.09782 -0.256502,1.985366 -0.332616,5.780007 -0.122171,6.090709 -0.299842,7.269914 -1.431976,9.504075 -0.550749,1.086849 -0.904631,1.366137 -2.466627,1.946694 -0.802215,0.298163 -1.428186,0.748904 -2.372527,1.708369 -1.685623,1.712621 -2.011968,1.866865 -3.949862,1.866865 -4.396023,0 -9.347822,-0.986932 -13.012207,-2.593431 -0.901079,-0.395042 -1.074587,-0.41881 -1.232663,-0.168855 -0.249043,0.393796 -0.238907,4.93572 0.01529,6.850473 0.283527,2.135701 0.830173,4.883408 2.084347,10.476918 0.589279,2.628139 1.071416,4.874625 1.071416,4.992192 0,0.138785 -0.685326,0.213759 -1.953937,0.213759 h -1.953938 z m 41.478463,-5.381367 c 0.872261,-0.690845 2.491523,-2.728985 2.311304,-2.909204 -0.06873,-0.06873 -0.749847,0.520093 -1.513609,1.308484 -1.934175,1.996546 -2.349335,2.829639 -0.797695,1.60072 z m 10.997253,-9.046959 c 1.749987,-1.761848 2.390712,-2.55664 2.208183,-2.739169 -0.122216,-0.122219 -3.841289,3.580408 -4.120681,4.102461 -0.420461,0.785636 0.259394,0.301012 1.912498,-1.363292 z M 35.617946,74.089788 c 0.277626,-0.277625 0.08075,-1.150333 -1.027641,-4.555381 -1.087847,-3.341928 -1.409263,-5.3267 -1.677161,-10.356639 -0.304057,-5.708857 -0.51146,-6.623304 -1.502208,-6.623304 -0.532561,0 -1.136716,1.006705 -1.601805,2.669093 -0.381157,1.362386 -0.556843,6.354894 -0.292212,8.303843 0.694025,5.111336 4.669518,11.993898 6.101027,10.562388 z m -7.846731,-0.969191 c 0.165996,-0.310166 0.0052,-0.996067 -0.77622,-3.311651 -1.075283,-3.18628 -1.471729,-5.261013 -1.785871,-9.346059 -0.315243,-4.099353 -0.406147,-4.745054 -0.668032,-4.745054 -0.435011,0 -1.527818,1.170255 -1.919347,2.055372 -0.786869,1.778847 -0.832554,6.264083 -0.09285,9.115275 0.668843,2.578043 2.393223,5.184546 4.130932,6.24415 0.773059,0.471388 0.853129,0.470522 1.111384,-0.01204 z m 13.118897,-3.659001 c 0.498503,-0.498504 0.732082,-2.198039 0.937794,-6.823413 0.228686,-5.141977 0.410008,-6.421443 0.998856,-7.048241 0.375814,-0.400036 0.395253,-0.515607 0.175824,-1.045355 -0.328566,-0.793228 -2.984151,-3.446951 -4.109096,-4.106213 l -0.896406,-0.525327 -0.355912,0.439531 c -0.551144,0.680634 -0.628806,1.799563 -0.520098,7.4934 0.135582,7.101469 0.606034,9.311576 2.383211,11.195934 0.744244,0.789128 0.953123,0.852385 1.385827,0.419684 z m -21.222764,-9.39413 c 0,-0.63961 -0.07814,-1.211219 -0.173638,-1.270241 -0.314537,-0.194395 -0.595069,2.215024 -0.293062,2.517033 0.296002,0.296 0.4667,-0.160021 0.4667,-1.246792 z m 23.922978,-0.680319 c 0,-0.591656 -0.08897,-1.130726 -0.197711,-1.197932 -0.123498,-0.07633 -0.19771,0.327464 -0.19771,1.075739 0,0.666815 0.08766,1.197933 0.19771,1.197933 0.108741,0 0.197711,-0.484083 0.197711,-1.07574 z M 52.17343,27.12794 c 0.466069,-0.178848 0.172035,-0.473559 -0.472469,-0.473559 -0.725719,0 -1.218781,0.19014 -1.079107,0.416138 0.124416,0.201308 1.084061,0.236823 1.551576,0.05742 z"
       id="path8005"
       inkscape:connector-curvature="0"
       transform="matrix(0.26458333,0,0,0.26458333,0,87)" />
    <path
       style="opacity:1;fill:#ffffff;fill-opacity:1;fill-rule:nonzero;stroke:none;stroke-width:2.51338577;stroke-linecap:butt;stroke-linejoin:miter;stroke-miterlimit:4;stroke-dasharray:none;stroke-dashoffset:0;stroke-opacity:1;paint-order:stroke fill markers"
       d="m 20.184728,96.792202 c -0.798838,-2.749988 -1.506405,-5.796634 -1.790346,-7.708883 -0.965733,-6.503875 -0.841433,-26.035272 0.201017,-31.586091 0.376736,-2.006036 1.29275,-3.825236 2.289771,-4.547475 0.432183,-0.313071 1.647279,-0.85463 2.700213,-1.20346 1.933599,-0.640592 3.102873,-1.297266 3.970033,-2.229602 0.599786,-0.644865 1.183522,-0.828765 3.87571,-1.220999 2.472224,-0.360187 3.371475,-0.70127 4.908588,-1.861801 0.595856,-0.449877 1.388207,-0.867423 1.760779,-0.927883 0.865464,-0.140446 2.197139,0.512934 4.543754,2.229366 0.947657,0.693165 1.801072,1.2603 1.896477,1.2603 0.214505,0 0.433074,-5.751881 0.435076,-11.449479 0.0024,-6.808916 0.3848,-8.73911 2.024942,-10.220879 1.611812,-1.456175 4.170309,-2.191765 5.777927,-1.661204 3.216958,1.061693 4.996296,6.316742 6.125953,18.092232 0.354675,3.697099 0.384767,5.23933 0.102234,5.23933 -0.111431,0 -0.299169,-0.244667 -0.417195,-0.543704 -0.200281,-0.507442 -0.2254,-0.517331 -0.376632,-0.148283 -0.201481,0.491669 -0.23423,1.372529 -0.05759,1.549165 0.07273,0.07273 0.300588,-0.02011 0.506347,-0.206325 0.322693,-0.292034 0.399205,-0.298887 0.556721,-0.04986 0.100437,0.158787 0.183976,0.481809 0.185641,0.717826 0.0086,1.217082 0.442533,6.822171 0.709156,9.159841 0.760444,6.667344 1.893978,8.815125 4.632813,8.77809 1.333617,-0.01803 2.491748,-0.389741 5.90977,-1.896772 3.19042,-1.406679 4.287227,-1.709439 6.742949,-1.861307 4.65484,-0.287868 7.630251,1.270623 7.860349,4.117173 0.190915,2.361826 -1.15324,4.268624 -5.139828,7.291278 -11.155311,8.45802 -18.514412,15.353062 -21.836517,20.459518 l -0.951626,1.462762 -2.224244,0.0025 c -1.223334,0.0014 -2.224244,-0.05658 -2.224244,-0.128862 0,-0.212898 1.564175,-3.000493 2.528831,-4.506753 2.818354,-4.40072 4.339826,-5.97935 11.925557,-12.373571 6.857638,-5.780491 9.155887,-7.58425 11.139553,-8.742772 1.641743,-0.958829 2.283248,-1.558181 2.283248,-2.13322 0,-0.632336 -1.056909,-1.500667 -2.143999,-1.761457 -1.284001,-0.308027 -2.077979,-0.02928 -8.056209,2.828346 -6.728703,3.216358 -9.597693,4.302864 -13.958858,5.286326 -2.325634,0.524439 -3.01123,0.734422 -5.533303,1.694718 -1.153092,0.439048 -1.839778,0.243887 -2.478907,-0.704516 -0.624578,-0.926812 -0.571052,-1.280113 0.344413,-2.273274 1.004105,-1.089326 2.058063,-1.540367 5.909312,-2.528884 1.692521,-0.434428 3.323028,-0.916935 3.623351,-1.072236 0.700097,-0.362034 0.696253,-0.772623 -0.02578,-2.755182 -1.047832,-2.877046 -1.755017,-7.328341 -2.79371,-17.584604 -1.461822,-14.434324 -2.345557,-19.352801 -3.746755,-20.85279 -0.736304,-0.788215 -1.472356,-0.800835 -1.869907,-0.03206 -0.633644,1.225334 -0.829214,4.238817 -1.284816,19.79744 -0.09726,3.321478 -0.271071,6.274398 -0.386935,6.573876 -0.185805,0.480249 -0.313117,0.543704 -1.090825,0.543704 -1.48343,0 -1.500841,0.0532 -1.508897,4.610893 -0.0087,4.915883 -0.219463,7.39912 -0.77745,9.159612 -0.666719,2.103565 -1.268139,2.845411 -2.780975,3.430314 -0.965966,0.373469 -1.640853,0.837672 -2.761261,1.899263 -0.815556,0.772742 -1.677163,1.506742 -1.91468,1.631112 -0.237518,0.12437 -1.19745,0.226126 -2.133181,0.226126 -3.931824,0 -8.849165,-0.903797 -11.964458,-2.199042 -2.494512,-1.037142 -2.442357,-1.106742 -2.3146,3.088739 0.109824,3.606545 0.391274,5.349992 2.114564,13.098692 0.652494,2.933912 1.186352,5.43525 1.186352,5.558526 0,0.151998 -0.631846,0.224141 -1.963076,0.224141 h -1.963076 z m 41.470611,-7.816837 c 0.625962,-0.629259 1.329978,-1.447138 1.564482,-1.817512 l 0.426369,-0.673404 -0.604453,0.446891 c -0.565213,0.41788 -2.388563,2.390201 -2.718858,2.940992 -0.351723,0.586523 0.279298,0.16174 1.33246,-0.896967 z M 72.60748,79.964072 c 1.004131,-1.037959 1.825693,-2.000548 1.825693,-2.139088 0,-0.274533 -3.331579,2.946287 -3.99816,3.865241 -0.789219,1.088023 0.244886,0.266366 2.172467,-1.726153 z M 35.546948,73.307139 c -0.01985,-0.485519 -0.444929,-2.164843 -0.94461,-3.731832 -1.139811,-3.574425 -1.429071,-5.292992 -1.683502,-10.002118 -0.311249,-5.760742 -0.552876,-7.018725 -1.348123,-7.018725 -1.982801,0 -2.946794,8.42199 -1.52754,13.345463 0.779817,2.705228 2.480212,6.037165 3.75,7.348148 1.316943,1.35967 1.807638,1.376194 1.753775,0.05906 z m -7.773467,-0.567597 c 0,-0.303158 -0.395059,-1.743665 -0.877909,-3.20113 -0.992808,-2.996752 -1.378096,-5.027702 -1.684195,-8.877815 -0.348076,-4.378106 -0.425691,-4.942764 -0.679408,-4.942764 -0.424084,0 -1.675569,1.460545 -2.032926,2.372527 -0.504062,1.286376 -0.498663,6.857781 0.0084,8.699265 0.751001,2.727223 2.692107,5.599093 4.316041,6.385588 0.768239,0.37207 0.949966,0.288727 0.949966,-0.435671 z M 40.868314,69.40929 c 0.502159,-0.569777 0.72055,-2.146467 0.94186,-6.799808 0.241297,-5.073625 0.411109,-6.265015 1.008045,-7.072416 l 0.42811,-0.57905 -0.42092,-0.681062 c -0.547838,-0.886421 -3.367368,-3.577046 -4.199164,-4.007186 -0.626332,-0.323887 -0.658096,-0.320989 -0.991276,0.09047 -0.526552,0.650264 -0.634444,2.230562 -0.513563,7.522187 0.158548,6.940427 0.684379,9.3579 2.425391,11.150561 0.800188,0.823929 0.901572,0.852797 1.321517,0.376304 z M 19.664321,60.029707 c 0.0017,-0.510101 -0.07511,-0.975749 -0.170611,-1.034772 -0.313162,-0.193545 -0.58484,2.027544 -0.284715,2.327668 0.243557,0.243558 0.452244,-0.34901 0.455326,-1.292896 z m 23.926005,-0.654228 c 0,-0.598075 -0.08897,-1.087409 -0.197711,-1.087409 -0.108741,0 -0.19771,0.489334 -0.19771,1.087409 0,0.598074 0.08897,1.087408 0.19771,1.087408 0.108741,0 0.197711,-0.489334 0.197711,-1.087408 z M 52.040228,27.12348 c 0.243445,-0.06525 0.393891,-0.197488 0.334327,-0.293866 -0.215171,-0.348153 -1.666649,-0.13797 -1.666649,0.241341 0,0.201337 0.677451,0.228045 1.332322,0.05252 z"
       id="path8007"
       inkscape:connector-curvature="0"
       transform="matrix(0.26458333,0,0,0.26458333,0,87)" />
    <path
       style="opacity:1;fill:#ffffff;fill-opacity:1;fill-rule:nonzero;stroke:none;stroke-width:2.51338577;stroke-linecap:butt;stroke-linejoin:miter;stroke-miterlimit:4;stroke-dasharray:none;stroke-dashoffset:0;stroke-opacity:1;paint-order:stroke fill markers"
       d="m 20.155445,96.693347 c -0.836641,-2.87519 -1.499586,-5.673034 -1.771264,-7.47531 -0.494382,-3.279676 -0.755797,-10.900212 -0.623565,-18.177635 0.187935,-10.343082 0.566539,-13.912748 1.726014,-16.273715 0.756478,-1.540371 1.612648,-2.197806 3.802356,-2.919752 2.109615,-0.695542 2.808801,-1.058963 3.916974,-2.03597 1.140545,-1.005544 1.401564,-1.103541 3.946309,-1.481597 2.622525,-0.389613 3.445725,-0.686271 5.018358,-1.808478 0.700044,-0.499542 1.577749,-0.957742 1.950455,-1.018224 0.860389,-0.139621 2.066034,0.448736 4.526849,2.209113 1.378712,0.986283 1.846413,1.230221 1.962154,1.0234 0.08358,-0.149351 0.205857,-3.643899 0.271724,-7.765665 0.136224,-8.524623 0.285146,-10.508265 0.895405,-11.926849 1.12713,-2.620087 5.169101,-4.376 7.41274,-3.220244 2.980855,1.535514 4.518333,6.157021 5.619431,16.891431 0.583325,5.686747 0.5142,7.230222 -0.257821,5.75677 l -0.275102,-0.525054 -0.140422,0.748516 c -0.165505,0.882219 0.09999,1.292383 0.579144,0.894722 0.18596,-0.154333 0.382605,-0.187092 0.48376,-0.08059 0.09374,0.09869 0.270873,1.736417 0.39363,3.639381 0.573236,8.886137 1.357757,12.760607 2.883211,14.239134 0.627913,0.608597 0.828955,0.683023 2.027014,0.750391 1.553892,0.08738 2.531839,-0.199731 6.218175,-1.825555 3.624182,-1.598412 4.358865,-1.774064 7.4687,-1.78566 2.083555,-0.0078 2.89367,0.0684 3.692798,0.34719 2.412164,0.841533 3.563767,2.373424 3.372221,4.485811 -0.20542,2.265403 -1.305969,3.619877 -5.655019,6.959773 -7.370906,5.660561 -11.279118,9.000625 -15.550505,13.289887 -2.647627,2.658709 -5.290442,5.828041 -6.336546,7.598956 l -0.367815,0.62266 h -2.231043 c -1.227073,0 -2.231043,-0.04744 -2.231043,-0.105428 0,-0.568716 2.787177,-5.112269 4.660515,-7.597402 1.855657,-2.461674 3.779448,-4.283011 10.365488,-9.813452 6.169143,-5.180365 8.614846,-7.092523 10.516578,-8.222322 2.697197,-1.602375 2.955959,-2.392729 1.144849,-3.496794 -0.998812,-0.608881 -2.383276,-0.558103 -4.071805,0.149345 -0.748957,0.313792 -2.874225,1.299201 -4.722819,2.189801 -6.430536,3.098047 -9.415776,4.234386 -14.050426,5.348331 -1.746988,0.419892 -3.862337,1.035944 -4.700772,1.369007 -1.724716,0.685131 -2.226581,0.737334 -2.855247,0.297001 -0.481915,-0.337547 -1.031414,-1.273614 -1.031414,-1.757006 0,-0.492665 1.381779,-1.881277 2.35998,-2.371651 0.496235,-0.248763 2.290767,-0.813634 3.987849,-1.255268 3.748009,-0.97535 4.526252,-1.280255 4.526252,-1.773333 0,-0.202632 -0.268909,-1.163596 -0.597575,-2.135476 C 57.303922,65.372473 56.758844,61.880509 55.545966,50.280793 54.255462,37.938689 53.510078,33.219446 52.550319,31.314534 52.128336,30.47699 51.293357,29.620039 50.89927,29.620039 c -1.319803,0 -1.620792,2.351223 -1.9615,15.322569 -0.229653,8.743243 -0.366993,11.317142 -0.630337,11.813206 -0.129979,0.244842 -0.427296,0.346879 -1.01699,0.34902 -1.479454,0.0054 -1.412276,-0.248999 -1.550632,5.871596 -0.126394,5.591388 -0.298086,7.009382 -1.072156,8.854814 -0.596001,1.420902 -1.079846,1.901894 -2.618564,2.60311 -1.023368,0.466364 -1.879767,1.058248 -2.785588,1.925207 -0.71936,0.688499 -1.502262,1.35256 -1.739779,1.475692 -0.237518,0.12313 -1.278356,0.223874 -2.312973,0.223874 -3.68541,0 -8.827527,-0.945223 -11.764667,-2.162576 -0.803327,-0.332955 -1.622266,-0.605372 -1.819864,-0.605372 -0.527469,0 -0.653014,1.018897 -0.510788,4.145446 0.136858,3.008546 0.634975,5.936066 2.219575,13.044813 0.592567,2.658343 1.077394,4.949314 1.077394,5.091047 0,0.194487 -0.481524,0.257698 -1.963076,0.257698 h -1.963076 z m 41.987308,-8.251284 c 0.670247,-0.716495 1.218629,-1.407889 1.218629,-1.536433 0,-0.265147 -2.187952,1.829614 -2.812824,2.693018 -0.398656,0.550833 -0.399134,0.56074 -0.01724,0.356357 0.216049,-0.115625 0.941196,-0.796449 1.61144,-1.512942 z m 10.401606,-8.425104 c 1.053896,-1.098007 1.862746,-2.049803 1.797446,-2.115103 -0.130673,-0.130673 -3.576995,3.211092 -3.883302,3.765488 -0.443222,0.802201 0.284357,0.226523 2.085856,-1.650385 z M 35.477472,74.014158 c 0.293931,-0.354165 0.21615,-0.732071 -0.917257,-4.456586 -1.092967,-3.591619 -1.388872,-5.337465 -1.641997,-9.687817 -0.360344,-6.193072 -0.567062,-7.315291 -1.347505,-7.315291 -2.081207,0 -2.946624,9.078535 -1.331219,13.964952 0.845839,2.558562 2.390663,5.481377 3.538907,6.695628 1.090518,1.153206 1.316854,1.259657 1.699071,0.799114 z m -7.703991,-1.190152 c 0,-0.269537 -0.401087,-1.741688 -0.891304,-3.271448 -1.060574,-3.309597 -1.368759,-5.016547 -1.783897,-9.880514 -0.171699,-2.011705 -0.385339,-3.731245 -0.474757,-3.821199 -0.283482,-0.285182 -1.52735,1.01025 -2.006612,2.089793 -0.420437,0.947041 -0.461687,1.320564 -0.464132,4.202788 -0.003,3.581227 0.233238,4.815486 1.365198,7.131511 1.038341,2.124479 2.889066,4.036218 3.909511,4.038397 0.236658,5.93e-4 0.345993,-0.154124 0.345993,-0.489328 z m 13.14947,-3.537874 c 0.453465,-0.692076 0.654027,-2.263017 0.896367,-7.020981 0.247063,-4.85069 0.407881,-5.941329 0.998345,-6.770559 l 0.417776,-0.586712 -0.53,-0.764792 c -0.675955,-0.975403 -2.721973,-2.939238 -3.809355,-3.656346 -0.674335,-0.44471 -0.8952,-0.506493 -1.125973,-0.314969 -0.604331,0.50155 -0.762049,2.315104 -0.637071,7.325455 0.183378,7.351604 0.631628,9.571394 2.277617,11.279081 0.518985,0.538435 1.002397,0.978974 1.074251,0.978974 0.07185,0 0.268973,-0.211117 0.438043,-0.469151 z M 19.653452,59.919183 c 0.0076,-0.462149 -0.06725,-0.84027 -0.166436,-0.84027 -0.254196,0 -0.473749,1.473762 -0.30066,2.018196 0.138818,0.436637 0.149723,0.438747 0.298639,0.05776 0.08501,-0.217482 0.160814,-0.773543 0.168457,-1.235691 z m 23.936874,-0.543704 c 0,-0.489334 -0.08897,-0.889698 -0.197711,-0.889698 -0.108741,0 -0.19771,0.400364 -0.19771,0.889698 0,0.489333 0.08897,0.889697 0.19771,0.889697 0.108741,0 0.197711,-0.400364 0.197711,-0.889697 z m 8.386528,-32.247975 c 0.475185,-0.182345 0.37355,-0.473123 -0.165369,-0.473123 -0.605321,0 -1.103579,0.18808 -1.103579,0.416574 0,0.200958 0.799749,0.236598 1.268948,0.05655 z"
       id="path8009"
       inkscape:connector-curvature="0"
       transform="matrix(0.26458333,0,0,0.26458333,0,87)" />
    <path
       style="opacity:1;fill:#ffffff;fill-opacity:1;fill-rule:nonzero;stroke:none;stroke-width:2.51338577;stroke-linecap:butt;stroke-linejoin:miter;stroke-miterlimit:4;stroke-dasharray:none;stroke-dashoffset:0;stroke-opacity:1;paint-order:stroke fill markers"
       d="m 20.082358,96.495636 c -0.75503,-2.56669 -1.421345,-5.437032 -1.702085,-7.332218 -0.661254,-4.463915 -0.874252,-14.908871 -0.484477,-23.757767 0.315991,-7.173803 0.791788,-9.73516 2.159002,-11.622544 0.616574,-0.851154 1.619124,-1.403089 4.182592,-2.30264 1.003609,-0.352178 1.914383,-0.857765 2.731903,-1.516531 1.442402,-1.162301 1.756878,-1.298073 3.635341,-1.569504 3.110819,-0.4495 4.056712,-0.785365 5.859587,-2.080601 1.135232,-0.815582 1.959416,-1.012404 2.824716,-0.674561 0.354058,0.138236 1.646136,0.918841 2.871281,1.734675 1.225145,0.815835 2.292782,1.418323 2.372527,1.338861 0.07974,-0.07946 0.21089,-3.362446 0.291435,-7.295522 0.180368,-8.807436 0.343872,-10.958584 0.937894,-12.339424 1.144479,-2.660412 5.16085,-4.415865 7.441368,-3.252431 3.004797,1.532933 4.647652,6.633818 5.705682,17.715532 0.460693,4.825266 0.372289,6.302014 -0.301859,5.042358 -0.121376,-0.226794 -0.245445,-0.382491 -0.275707,-0.345993 -0.186991,0.22552 -0.263946,1.103444 -0.117493,1.34041 0.146568,0.23715 0.22551,0.239805 0.49443,0.01663 0.189765,-0.157492 0.389211,-0.192552 0.49003,-0.08614 0.09351,0.09869 0.316708,2.206598 0.496,4.68423 0.80137,11.07415 1.842052,13.981153 5.005128,13.981153 1.281951,0 2.581343,-0.400356 5.779309,-1.780666 3.933377,-1.697729 4.586978,-1.855784 7.710712,-1.864638 2.991673,-0.0085 3.843845,0.173774 5.270438,1.127182 2.67148,1.785381 2.420586,5.181501 -0.590212,7.98913 -0.679624,0.633763 -2.1664,1.859703 -3.303947,2.724313 -10.524693,7.999438 -17.832294,14.888669 -21.345046,20.123 l -0.889697,1.325735 -2.224244,0.0063 c -1.223334,0.0034 -2.224244,-0.04118 -2.224244,-0.09917 0,-0.519897 2.661859,-4.916314 4.391666,-7.253429 2.112709,-2.854444 3.713589,-4.364889 12.018311,-11.339381 4.699253,-3.946538 6.640354,-5.455915 8.836096,-6.870845 1.108296,-0.714184 2.16726,-1.530764 2.353254,-1.814627 0.322286,-0.491872 0.319842,-0.54112 -0.05203,-1.048501 -0.803284,-1.095994 -2.496843,-1.515192 -4.039663,-0.999917 -0.369634,0.123453 -2.526018,1.105117 -4.791965,2.181477 -7.400879,3.515537 -10.044186,4.538761 -14.528527,5.623994 -1.55737,0.376892 -3.692644,0.993045 -4.745053,1.369227 -2.285525,0.816955 -2.594779,0.833901 -3.366594,0.184463 -1.195651,-1.006073 -0.919578,-2.312713 0.733781,-3.472961 0.96341,-0.676076 1.358339,-0.816049 5.266687,-1.866661 2.074409,-0.557629 3.507674,-1.048259 3.744021,-1.281641 C 59.0813,70.762144 59.07738,70.7314 58.35749,68.427766 57.192621,64.700196 56.791161,62.212446 55.748092,52.257932 54.01698,35.737088 53.301687,31.786496 51.747725,30.163777 c -0.907673,-0.947835 -1.647961,-0.563624 -2.006102,1.041174 -0.326627,1.463583 -0.592356,6.180798 -0.807282,14.330822 -0.221516,8.400006 -0.349825,10.690669 -0.628472,11.220075 -0.124334,0.236222 -0.418822,0.345993 -0.928208,0.345993 -1.505813,0 -1.472504,-0.123249 -1.636478,6.05509 -0.216615,8.161834 -0.737446,9.796977 -3.571038,11.21123 -0.926865,0.462602 -2.100234,1.28851 -3.014072,2.121536 -0.823003,0.750224 -1.731193,1.422982 -2.018199,1.495018 -0.287008,0.07203 -1.732922,0.07834 -3.213144,0.01402 -3.919166,-0.170308 -7.136497,-0.806655 -10.461156,-2.06908 -1.436874,-0.545604 -1.890397,-0.645863 -2.075961,-0.458932 -0.358059,0.360701 -0.268689,5.414084 0.141933,8.025479 0.188085,1.196149 0.913671,4.784062 1.612415,7.973139 0.698743,3.189079 1.270442,5.924899 1.270442,6.079602 0,0.224397 -0.398114,0.281277 -1.968733,0.281277 h -1.968734 z m 41.979664,-7.986532 c 0.719346,-0.776959 1.259444,-1.46111 1.20022,-1.520337 -0.125572,-0.125571 -1.925365,1.594346 -2.50025,2.389289 -0.749922,1.036982 -0.0012,0.536583 1.30003,-0.868952 z m 10.570955,-8.597615 c 0.883436,-0.944238 1.558313,-1.764727 1.499728,-1.823313 -0.124388,-0.124387 -2.897901,2.573053 -3.500349,3.404339 -0.804842,1.110556 0.297135,0.2397 2.000621,-1.581026 z M 35.558243,73.133822 c -0.06333,-0.281454 -0.509238,-1.841237 -0.990906,-3.466182 -1.132516,-3.820634 -1.38011,-5.368352 -1.74705,-10.920838 -0.328516,-4.971066 -0.543854,-6.057469 -1.21977,-6.153873 -1.000005,-0.142631 -1.910915,2.486214 -2.146234,6.193934 -0.256553,4.042275 0.4213,7.458225 2.189292,11.03264 1.042432,2.107524 2.115425,3.610215 2.935764,4.111435 0.563888,0.344532 0.626016,0.347682 0.85117,0.04314 0.133585,-0.180685 0.191065,-0.558801 0.127734,-0.840256 z m -7.850948,-0.130156 c 0.06551,-0.170724 -0.08175,-0.949209 -0.327262,-1.729968 -1.619951,-5.151736 -1.815438,-6.131708 -2.276233,-11.410689 -0.173957,-1.992893 -0.384031,-3.744496 -0.46683,-3.89245 -0.215226,-0.384589 -1.073948,0.329079 -1.717686,1.427533 -1.086135,1.853349 -1.084806,7.58857 0.0024,10.477084 0.824467,2.190406 1.995019,3.899384 3.336419,4.871088 0.884233,0.640537 1.275475,0.710028 1.449164,0.257402 z M 40.90584,69.310434 c 0.427843,-0.65565 0.659645,-2.51019 0.908167,-7.265863 0.243404,-4.65774 0.404502,-5.708546 1.004328,-6.550924 l 0.399463,-0.560992 -0.581125,-0.843103 c -1.056615,-1.532951 -3.807979,-3.907614 -4.527491,-3.907614 -0.824668,0 -0.947063,0.876662 -0.910916,6.524448 0.03981,6.220382 0.337605,8.736812 1.255577,10.610028 0.490352,1.000614 1.713609,2.438869 2.07429,2.438869 0.04808,0 0.218047,-0.200182 0.377707,-0.444849 z M 19.653452,59.930851 c 0.02159,-0.980156 -0.321691,-0.951541 -0.470261,0.0392 -0.146533,0.97715 0.05489,1.616904 0.306656,0.973991 0.08234,-0.210263 0.155962,-0.666198 0.163605,-1.013188 z m 23.936874,-0.654228 c 0,-0.434963 -0.08897,-0.790842 -0.197711,-0.790842 -0.108741,0 -0.19771,0.355879 -0.19771,0.790842 0,0.434964 0.08897,0.790843 0.19771,0.790843 0.108741,0 0.197711,-0.355879 0.197711,-0.790843 z m 8.389575,-32.206612 c 0.268801,-0.105263 0.311392,-0.193531 0.143458,-0.297319 -0.315463,-0.194967 -1.450897,0.05981 -1.306655,0.293198 0.131768,0.213206 0.624815,0.214953 1.163197,0.0041 z"
       id="path8011"
       inkscape:connector-curvature="0"
       transform="matrix(0.26458333,0,0,0.26458333,0,87)" />
    <path
       style="opacity:1;fill:#ffffff;fill-opacity:1;fill-rule:nonzero;stroke:none;stroke-width:2.51338577;stroke-linecap:butt;stroke-linejoin:miter;stroke-miterlimit:4;stroke-dasharray:none;stroke-dashoffset:0;stroke-opacity:1;paint-order:stroke fill markers"
       d="m 20.079585,96.495636 c -0.699636,-2.361702 -1.379204,-5.240745 -1.682525,-7.12815 -0.532368,-3.312638 -0.768709,-9.955058 -0.641536,-18.030519 0.168901,-10.72522 0.501224,-13.978967 1.68643,-16.511694 0.712259,-1.522063 1.450748,-2.105693 3.742539,-2.957744 2.244086,-0.834315 2.903169,-1.177305 3.995856,-2.079463 1.257633,-1.038342 1.428352,-1.10396 3.855356,-1.481862 2.628583,-0.40929 3.583346,-0.753965 5.249884,-1.895236 1.800477,-1.232992 2.531931,-1.214957 4.596104,0.113324 0.844928,0.543704 2.000204,1.280799 2.567282,1.637989 l 1.031048,0.649435 0.140517,-1.440278 c 0.07729,-0.792153 0.22594,-4.821128 0.330345,-8.953279 0.214769,-8.500174 0.315914,-9.164854 1.620082,-10.646466 1.428024,-1.622321 4.030598,-2.590076 5.981308,-2.224121 0.425004,0.07973 1.089369,0.483524 1.702428,1.034717 2.27739,2.047571 3.605843,6.712996 4.563239,16.025757 0.41934,4.079 0.498102,6.387628 0.217922,6.387628 -0.09548,0 -0.313235,-0.200182 -0.483906,-0.444849 -0.303369,-0.4349 -0.310542,-0.426056 -0.320681,0.395422 -0.01066,0.86322 0.128522,1.017715 0.54322,0.603017 0.1489,-0.1489 0.303493,-0.167307 0.415127,-0.04943 0.09783,0.103304 0.327266,2.187292 0.509858,4.631085 0.832899,11.147434 1.875543,14.041288 5.059417,14.042371 1.216606,3.95e-4 2.419315,-0.379845 5.869817,-1.855852 3.81424,-1.631598 4.541574,-1.802141 7.659813,-1.796056 2.885902,0.0056 3.778002,0.201428 5.167268,1.134092 2.539213,1.704664 2.480103,4.786052 -0.145052,7.561768 -0.562164,0.594407 -2.663738,2.343416 -4.670166,3.886689 -10.263913,7.894638 -17.416377,14.735052 -20.588566,19.690315 l -0.663169,1.035935 h -2.253062 c -1.239182,0 -2.25306,-0.04744 -2.25306,-0.105428 0,-0.518577 2.658039,-4.910246 4.390108,-7.253429 1.845507,-2.496645 3.567392,-4.178695 8.955355,-8.748178 6.961391,-5.90389 9.169632,-7.665982 11.729226,-9.35947 1.231518,-0.814798 2.376114,-1.69053 2.543549,-1.946069 0.275351,-0.420237 0.273653,-0.511584 -0.01777,-0.956349 -0.42338,-0.646168 -1.706353,-1.287661 -2.575291,-1.287661 -1.031249,0 -2.161208,0.438749 -6.736946,2.615874 -6.89683,3.281497 -9.492948,4.2754 -14.3563,5.496188 -1.697738,0.426163 -3.81684,1.044018 -4.709113,1.373009 -2.023698,0.746161 -2.558266,0.755189 -3.22479,0.05446 -1.079183,-1.134564 -0.834684,-2.265132 0.729973,-3.37541 0.983802,-0.698104 1.845935,-1.013962 5.207546,-1.907885 3.005647,-0.799264 3.95723,-1.157799 4.106699,-1.54731 0.05795,-0.151021 -0.156946,-1.066979 -0.477556,-2.03546 C 57.250411,65.231206 56.799107,62.347844 55.44858,49.687656 53.933645,35.486264 53.244635,31.835167 51.788151,30.290844 c -0.801833,-0.850191 -1.25628,-0.818389 -1.715244,0.120033 -0.488885,0.999605 -0.716398,3.459692 -0.950796,10.280949 -0.471008,13.706877 -0.562815,15.596168 -0.777344,15.99702 -0.166038,0.310247 -0.41246,0.412956 -0.990771,0.412956 -0.608105,0 -1.283828,0.316151 -1.403552,0.656682 -0.0068,0.01942 -0.09083,2.481973 -0.186664,5.472346 -0.261807,8.169042 -0.753621,9.654578 -3.730982,11.269501 -0.902162,0.489334 -2.180198,1.379032 -2.840079,1.977106 -1.705524,1.545776 -1.761678,1.567269 -4.103943,1.570818 -3.820471,0.0058 -8.144959,-0.771498 -11.499064,-2.066854 -1.002317,-0.387096 -1.927874,-0.663335 -2.056793,-0.613864 -0.389583,0.149497 -0.504242,2.044571 -0.297093,4.910326 0.229457,3.174354 0.436736,4.36919 2.00463,11.555465 0.644572,2.954329 1.171949,5.51221 1.171949,5.684178 0,0.264155 -0.305484,0.312672 -1.968733,0.312672 h -1.968734 z m 42.07715,-8.093289 c 0.553815,-0.621367 1.006936,-1.219865 1.006936,-1.329997 0,-0.241834 -1.843014,1.533051 -2.417972,2.328587 l -0.409486,0.566585 0.406793,-0.217709 c 0.223737,-0.119741 0.859914,-0.7261 1.413729,-1.347466 z m 10.005901,-8.004048 c 1.572678,-1.696214 1.946634,-2.141462 1.798572,-2.141462 -0.221635,0 -2.438223,2.148705 -3.157797,3.061089 l -0.621015,0.787416 0.593132,-0.42535 c 0.326222,-0.233943 0.95042,-0.810704 1.387108,-1.281693 z M 35.484193,73.430121 c 0,-0.371136 -0.357852,-1.861379 -0.795227,-3.311652 -1.181285,-3.916972 -1.516987,-5.906083 -1.864225,-11.045954 -0.172875,-2.558928 -0.402986,-4.973726 -0.511358,-5.366215 -0.574773,-2.081655 -1.796829,-1.071945 -2.489142,2.056627 -0.21944,0.991651 -0.317962,2.41923 -0.317539,4.601104 5.34e-4,2.759935 0.06528,3.409903 0.507654,5.096455 1.043246,3.977369 3.794172,8.644429 5.095325,8.644429 0.294389,0 0.374512,-0.144364 0.374512,-0.674794 z m -7.781122,-0.415447 c 0.06319,-0.164669 -0.292109,-1.610428 -0.789553,-3.212797 -1.088026,-3.504751 -1.40227,-5.193091 -1.811828,-9.734411 -0.347578,-3.854059 -0.403884,-4.151922 -0.784853,-4.151922 -0.420651,0 -1.500935,1.502323 -1.803712,2.508375 -0.381503,1.267637 -0.36733,6.46877 0.02213,8.120598 0.541669,2.297408 2.239837,5.127437 3.720226,6.199825 0.880815,0.63806 1.278018,0.712235 1.447593,0.270332 z m 13.488304,-4.60373 c 0.292869,-1.321048 0.394723,-2.409287 0.623617,-6.662939 0.229704,-4.268701 0.44159,-5.591646 1.011653,-6.31636 l 0.399534,-0.507928 -0.692434,-0.937488 c -1.205449,-1.632061 -3.763006,-3.804291 -4.479125,-3.804291 -0.824892,0 -1.040453,2.439396 -0.7862,8.896975 0.248779,6.318521 0.677955,8.133098 2.335794,9.875848 0.964602,1.014008 1.264586,0.911224 1.587161,-0.543817 z M 19.653452,59.919183 c 0.0076,-0.353408 -0.06343,-0.64256 -0.157946,-0.64256 -0.224599,0 -0.435625,1.314275 -0.277281,1.726913 0.1068,0.278317 0.142343,0.270371 0.272089,-0.06083 0.08208,-0.209531 0.155495,-0.670118 0.163138,-1.023525 z m 23.936874,-0.543704 c 0,-0.380593 -0.08897,-0.691987 -0.197711,-0.691987 -0.219237,0 -0.274177,1.043892 -0.0659,1.252166 0.227553,0.227555 0.263614,0.150928 0.263614,-0.560179 z m 8.389575,-32.305468 c 0.276405,-0.108241 0.314365,-0.191693 0.137047,-0.301282 -0.306555,-0.189462 -1.211331,0.02329 -1.211331,0.28484 0,0.224646 0.522205,0.232639 1.074284,0.01644 z"
       id="path8013"
       inkscape:connector-curvature="0"
       transform="matrix(0.26458333,0,0,0.26458333,0,87)" />
    <path
       style="opacity:1;fill:#ffffff;fill-opacity:1;fill-rule:nonzero;stroke:none;stroke-width:2.51338577;stroke-linecap:butt;stroke-linejoin:miter;stroke-miterlimit:4;stroke-dasharray:none;stroke-dashoffset:0;stroke-opacity:1;paint-order:stroke fill markers"
       d="M 20.359613,97.583044 C 20.053528,96.705156 19.021074,92.678953 18.6992,91.108023 17.926465,87.336629 17.788658,84.749763 17.79868,74.203771 17.81097,61.273021 18.145839,57.33382 19.454205,54.72928 c 0.709527,-1.412442 1.723482,-2.172922 3.967369,-2.975581 1.732253,-0.619643 2.3933,-0.986 4.374516,-2.424384 0.772664,-0.560963 1.241733,-0.7161 3.064513,-1.013548 2.753997,-0.449404 3.636771,-0.753139 5.216722,-1.794907 2.277356,-1.501612 2.624046,-1.459972 5.961566,0.716032 l 2.441132,1.591578 0.121986,-1.349799 c 0.06709,-0.74239 0.183088,-4.285802 0.257765,-7.874248 0.151608,-7.28509 0.343063,-9.499678 0.926181,-10.713229 1.055369,-2.196381 4.309635,-3.804499 6.76632,-3.343622 1.090342,0.204549 2.585676,1.684673 3.388701,3.354231 1.527514,3.175835 2.849326,10.424789 3.204363,17.573062 0.12936,2.604542 0.02646,2.964541 -0.593381,2.07596 -0.305503,-0.437958 -0.310471,-0.433031 -0.320681,0.318 -0.0098,0.718472 0.01864,0.755569 0.488248,0.637702 0.321857,-0.08078 0.529509,-0.03581 0.585758,0.126851 0.04793,0.138597 0.228634,2.120358 0.401573,4.403915 0.534711,7.060587 1.178108,10.742228 2.180491,12.477146 0.595818,1.031241 1.243429,1.452767 2.451832,1.595884 1.199338,0.142045 2.755913,-0.311566 6.482718,-1.889166 3.6643,-1.55114 4.362758,-1.706109 7.664343,-1.700508 2.606968,0.0044 2.836905,0.03671 3.953628,0.555128 0.652124,0.302738 1.394784,0.745473 1.650353,0.983857 1.284541,1.198161 1.577143,3.21044 0.731072,5.02771 -0.701437,1.506614 -1.955652,2.744003 -5.840777,5.762423 -10.787501,8.380994 -17.810372,15.07366 -20.928503,19.944481 l -0.663169,1.035935 h -2.253062 c -1.568119,0 -2.25306,-0.06923 -2.25306,-0.227712 0,-0.3589 1.690036,-3.210904 3.419653,-5.770805 1.779749,-2.634096 3.84729,-4.909652 6.760482,-7.440649 5.409972,-4.700219 12.202087,-10.209971 14.616202,-11.856641 1.484033,-1.012262 2.790653,-2.013146 2.903599,-2.224187 0.292406,-0.546367 -0.244881,-1.287248 -1.271562,-1.753394 -1.529712,-0.694539 -2.419208,-0.472392 -7.151594,1.786088 -7.454062,3.55737 -10.296234,4.664488 -15.26255,5.945259 -1.65247,0.426159 -3.779741,1.043453 -4.727267,1.371765 -2.256437,0.781841 -2.652815,0.770022 -3.418404,-0.101937 -0.71713,-0.816766 -0.762991,-1.286432 -0.212578,-2.177019 0.714358,-1.155855 1.992659,-1.772175 5.927355,-2.857807 3.148961,-0.868841 4.545692,-1.379112 4.545692,-1.660694 0,-0.03849 -0.271629,-0.94838 -0.603619,-2.021976 -1.189094,-3.845322 -1.622699,-6.590064 -2.8539,-18.065405 -1.431106,-13.338537 -2.136678,-17.647474 -3.213744,-19.6264 -0.656933,-1.207003 -1.243085,-1.645182 -1.8012,-1.346489 -0.853732,0.456904 -1.115226,2.564233 -1.412613,11.383927 -0.394557,11.701539 -0.566765,15.100739 -0.785749,15.509915 -0.152749,0.285417 -0.413871,0.405785 -0.880296,0.405785 -0.364721,0 -0.853473,0.155697 -1.086117,0.345994 -0.404852,0.331159 -0.43078,0.579728 -0.604708,5.797458 -0.203189,6.095498 -0.439781,7.614125 -1.44871,9.298896 -0.521575,0.870954 -0.88378,1.194278 -2.074366,1.851685 -0.793351,0.438066 -1.978373,1.241332 -2.633384,1.785036 -2.366583,1.964425 -2.155998,1.878668 -4.603238,1.874628 -3.7571,-0.0062 -7.586578,-0.687255 -11.273711,-2.00498 C 22.429942,75.583616 21.50609,75.350458 21.396548,75.46 c -0.241465,0.241466 -0.207144,4.976715 0.05114,7.055179 0.215173,1.73157 0.81622,4.791974 2.162766,11.012345 0.441074,2.037542 0.801952,3.83918 0.801952,4.003639 0,0.247014 -0.344944,0.29902 -1.98331,0.29902 -1.408886,0 -2.008268,-0.07158 -2.069478,-0.247139 z m 41.784311,-9.18548 c 0.547854,-0.624578 0.955602,-1.176091 0.906105,-1.225586 -0.116507,-0.116507 -1.330169,1.050638 -2.117015,2.035875 -0.969595,1.214059 0.01052,0.558214 1.21091,-0.810289 z m 10.734141,-8.796273 c 0.8014,-0.910013 1.043097,-1.275805 0.665411,-1.007051 -0.580619,0.413156 -2.003261,1.855765 -2.774975,2.813918 l -0.388394,0.482227 0.619708,-0.42999 c 0.340839,-0.236498 1.186051,-1.073094 1.87825,-1.859104 z M 35.484193,73.520835 c 0,-0.321244 -0.393725,-1.944942 -0.874945,-3.608218 -1.174197,-4.058466 -1.435571,-5.619794 -1.797072,-10.734849 -0.363819,-5.147869 -0.444606,-5.730925 -0.8662,-6.251572 -0.44406,-0.548392 -0.905328,-0.315572 -1.400224,0.706746 -0.704937,1.456205 -0.98601,3.346795 -0.98601,6.632234 0,4.240107 0.390691,5.95281 2.199944,9.644078 1.539631,3.141184 3.724507,5.259813 3.724507,3.611581 z m -7.85335,-0.906497 c -0.02408,-0.32196 -0.398294,-1.74199 -0.831586,-3.155621 -0.968794,-3.160723 -1.30692,-4.995942 -1.693847,-9.193541 -0.341311,-3.702745 -0.44805,-4.349632 -0.717705,-4.349632 -0.319213,0 -1.099698,0.885322 -1.588853,1.802272 -0.438102,0.82125 -0.462411,1.064304 -0.462411,4.623321 0,4.17318 0.123406,4.79802 1.423147,7.205801 0.841183,1.558297 1.603808,2.509484 2.580138,3.218091 0.936502,0.679701 1.349618,0.631483 1.291117,-0.150691 z m 13.345856,-3.534766 c 0.32558,-0.71457 0.597667,-3.126933 0.838067,-7.430422 0.239857,-4.29374 0.415979,-5.377142 1.006343,-6.190452 l 0.403373,-0.555699 -0.847575,-1.098615 c -0.889002,-1.15231 -3.074555,-3.117326 -3.870601,-3.48003 -0.373179,-0.170031 -0.534226,-0.144637 -0.805173,0.126962 -0.306313,0.307049 -0.336982,0.938849 -0.320825,6.608938 0.02297,8.060512 0.339543,9.807397 2.131927,11.764225 0.781783,0.853511 1.161658,0.919679 1.464464,0.255093 z M 19.653452,59.930851 c 0.0076,-0.238249 -0.07507,-0.488167 -0.183815,-0.555372 -0.121985,-0.07539 -0.192388,0.241974 -0.183814,0.828601 0.01042,0.713191 0.05636,0.851978 0.183814,0.555372 0.09346,-0.217481 0.176172,-0.590351 0.183815,-0.828601 z m 23.936874,-0.555372 c 0,-0.271852 -0.08897,-0.494277 -0.197711,-0.494277 -0.108741,0 -0.19771,0.222425 -0.19771,0.494277 0,0.271852 0.08897,0.494276 0.19771,0.494276 0.108741,0 0.197711,-0.222424 0.197711,-0.494276 z m 8.485079,-32.449093 c 0.04531,-0.04086 0.03356,-0.123109 -0.0261,-0.182772 -0.180166,-0.180165 -1.149734,0.136457 -1.02683,0.335321 0.09953,0.161036 0.821142,0.05649 1.052928,-0.152549 z"
       id="path8015"
       inkscape:connector-curvature="0"
       transform="matrix(0.26458333,0,0,0.26458333,0,87)" />
    <path
       style="opacity:1;fill:#ffffff;fill-opacity:1;fill-rule:nonzero;stroke:none;stroke-width:2.51338577;stroke-linecap:butt;stroke-linejoin:miter;stroke-miterlimit:4;stroke-dasharray:none;stroke-dashoffset:0;stroke-opacity:1;paint-order:stroke fill markers"
       d="m 20.358922,97.583044 c -0.819866,-2.332781 -1.966635,-7.54538 -2.272679,-10.330376 -0.598655,-5.447773 -0.411316,-23.964873 0.289382,-28.603218 0.685863,-4.540144 1.568763,-5.648741 5.740211,-7.207584 0.761185,-0.28445 1.975513,-0.943259 2.698505,-1.464019 1.825054,-1.314558 1.840783,-1.320964 4.142528,-1.686774 2.52158,-0.400749 3.648592,-0.810103 5.403281,-1.962587 2.006018,-1.317559 2.470049,-1.239936 5.766805,0.964669 1.075046,0.718903 2.055789,1.307098 2.179431,1.307098 0.259847,0 0.404868,-2.598961 0.579181,-10.379804 0.123605,-5.517305 0.340869,-8.072473 0.77468,-9.110727 0.718883,-1.720528 3.178511,-3.427978 5.186778,-3.600611 1.59745,-0.137319 2.303727,0.08063 3.3711,1.040292 1.626857,1.462684 2.698632,4.008762 3.581319,8.507677 0.917537,4.676537 1.766291,13.938594 1.277301,13.938594 -0.07299,0 -0.295417,-0.147243 -0.494276,-0.327209 -0.343016,-0.310425 -0.361562,-0.295213 -0.361562,0.296566 0,0.664616 0.16464,0.775472 0.561823,0.37829 0.292279,-0.29228 0.615611,0.09182 0.62273,0.739761 0.0024,0.217482 0.177129,2.402415 0.38831,4.855406 0.734938,8.536689 1.538827,11.744531 3.187211,12.718258 1.466101,0.866045 2.857161,0.610117 7.808731,-1.436658 3.88725,-1.606832 5.291145,-1.899323 8.415336,-1.75327 3.034549,0.141863 4.82636,1.005465 5.726026,2.759779 0.580172,1.131315 0.501001,2.611159 -0.216511,4.04703 C 83.97403,72.755564 82.611334,74.066055 78.48624,77.26334 68.246035,85.200333 61.247206,91.9158 57.927293,96.989913 l -0.549773,0.84027 h -2.2474 c -1.563847,0 -2.247398,-0.06926 -2.247398,-0.227712 0,-0.354829 1.677305,-3.190704 3.431923,-5.802461 1.128957,-1.68046 2.288269,-3.069007 3.974325,-4.760188 3.459654,-3.47017 13.862487,-12.174079 17.222778,-14.410061 2.158248,-1.436128 3.050453,-2.227787 3.050453,-2.706689 0,-0.547575 -0.908522,-1.317122 -1.857926,-1.573725 -1.174996,-0.317576 -2.156908,-0.03138 -5.891168,1.717089 -8.704316,4.075566 -10.773454,4.883801 -16.173884,6.317756 -1.794224,0.476413 -3.922839,1.092655 -4.730255,1.369424 -1.991396,0.682622 -2.409291,0.656729 -3.157687,-0.195646 -0.337486,-0.384375 -0.613612,-0.878128 -0.613612,-1.097227 0,-0.698175 0.567338,-1.528243 1.468127,-2.148002 1.090455,-0.750253 1.396635,-0.866121 4.542823,-1.719141 3.091298,-0.838141 4.596761,-1.385668 4.724379,-1.718233 0.05259,-0.137059 -0.118931,-0.912239 -0.381164,-1.722623 -1.209125,-3.736551 -1.665445,-6.609173 -3.044942,-19.168517 -0.996234,-9.070008 -1.731186,-14.403488 -2.278664,-16.53607 -0.437638,-1.704723 -1.219882,-3.196816 -1.845594,-3.520385 -1.492387,-0.771743 -1.831765,1.046815 -2.193267,11.752611 -0.356514,10.55812 -0.565933,14.599879 -0.7769,14.994075 -0.127207,0.237689 -0.498444,0.413329 -1.022064,0.483562 -0.452265,0.06066 -0.922526,0.21052 -1.045025,0.33302 -0.273009,0.273009 -0.47893,2.80779 -0.506446,6.234071 -0.02473,3.079836 -0.287939,5.758911 -0.702196,7.147424 -0.383424,1.285169 -1.406602,2.788692 -2.178397,3.201077 -1.448586,0.774003 -2.665435,1.595449 -3.93191,2.65427 -0.750056,0.627075 -1.585359,1.195759 -1.856227,1.263742 -0.91562,0.229807 -6.050664,-0.09528 -8.249313,-0.522246 -1.196149,-0.232285 -3.256974,-0.785402 -4.579611,-1.229151 -1.363688,-0.45752 -2.552099,-0.750286 -2.745046,-0.676245 -0.309976,0.118948 -0.330547,0.442484 -0.231184,3.635954 0.119809,3.85055 0.224594,4.529326 1.934587,12.531833 0.645022,3.018601 1.172766,5.625628 1.172766,5.79339 0,0.254619 -0.327734,0.305024 -1.98331,0.305024 -1.408518,0 -2.008484,-0.07163 -2.070169,-0.247139 z m 41.811801,-9.237719 c 0.457633,-0.546591 0.75286,-0.993802 0.656063,-0.993802 -0.169473,0 -1.134234,0.971308 -1.943259,1.956447 l -0.388948,0.473617 0.422045,-0.22123 c 0.232124,-0.121677 0.796469,-0.668442 1.254099,-1.215032 z m 10.564826,-8.615957 c 0.534309,-0.619103 0.801218,-1.032597 0.593132,-0.918876 -0.3634,0.198604 -1.427502,1.278632 -2.458833,2.495639 l -0.489741,0.57791 0.691987,-0.514514 c 0.380593,-0.282985 1.129148,-1.021055 1.663455,-1.640159 z M 35.448642,73.544762 c 0.03482,-0.236678 -0.337042,-1.831166 -0.826356,-3.543304 -1.185439,-4.147926 -1.4467,-5.698809 -1.806695,-10.724835 -0.167456,-2.337927 -0.398134,-4.718145 -0.512617,-5.28937 -0.511286,-2.551135 -1.989402,-1.088545 -2.548188,2.521422 -0.260809,1.684927 -0.257375,6.138682 0.0059,7.624973 0.597488,3.373318 2.830023,8.010103 4.555993,9.462412 0.704762,0.593017 1.03943,0.57785 1.131984,-0.0513 z m -7.872872,-0.96081 c 0,-0.279992 -0.396536,-1.826312 -0.881192,-3.436271 -0.875643,-2.908763 -1.269271,-5.165908 -1.686951,-9.673347 -0.251931,-2.718726 -0.391266,-3.55879 -0.590268,-3.55879 -0.317592,0 -1.269152,1.12985 -1.665117,1.977105 -0.374753,0.801865 -0.415454,1.241028 -0.412287,4.448488 0.0039,3.982043 0.200058,4.994821 1.378323,7.11758 0.89477,1.612013 1.756418,2.663375 2.711213,3.308153 0.894311,0.603934 1.146279,0.563726 1.146279,-0.182918 z m 13.424281,-3.647013 c 0.297267,-0.852743 0.568305,-3.368185 0.81642,-7.577016 0.223885,-3.797852 0.41273,-4.988496 0.930131,-5.864386 0.288222,-0.487924 0.293149,-0.613877 0.04235,-1.082508 -0.37032,-0.691948 -2.684032,-3.000895 -3.741263,-3.733557 -1.667505,-1.15558 -1.871248,-0.279183 -1.699888,7.312033 0.128373,5.686911 0.376114,7.760074 1.100105,9.205935 0.482392,0.963369 1.724431,2.360132 2.098693,2.360132 0.130406,0 0.33446,-0.279284 0.453456,-0.620633 z M 19.653452,59.820327 c 0.0076,-0.190296 -0.07507,-0.345993 -0.183815,-0.345993 -0.10874,0 -0.191457,0.333636 -0.183814,0.741414 0.01115,0.594753 0.04751,0.663195 0.183814,0.345994 0.09346,-0.217482 0.176172,-0.551118 0.183815,-0.741415 z m 23.936874,-0.444848 c 0,-0.271852 -0.08897,-0.494277 -0.197711,-0.494277 -0.108741,0 -0.19771,0.222425 -0.19771,0.494277 0,0.271852 0.08897,0.494276 0.19771,0.494276 0.108741,0 0.197711,-0.222424 0.197711,-0.494276 z m 8.35075,-32.555565 c -0.192884,-0.192885 -0.837749,-0.02075 -0.837749,0.223624 0,0.08203 0.228656,0.10543 0.508122,0.05201 0.302286,-0.05779 0.435816,-0.169442 0.329627,-0.275631 z"
       id="path8019"
       inkscape:connector-curvature="0"
       transform="matrix(0.26458333,0,0,0.26458333,0,87)" />
  </g>
</svg>
