<?xml version="1.0" encoding="UTF-8" standalone="no"?>
<!-- Created with Inkscape (http://www.inkscape.org/) -->

<svg
   xmlns:dc="http://purl.org/dc/elements/1.1/"
   xmlns:cc="http://creativecommons.org/ns#"
   xmlns:rdf="http://www.w3.org/1999/02/22-rdf-syntax-ns#"
   xmlns:svg="http://www.w3.org/2000/svg"
   xmlns="http://www.w3.org/2000/svg"
   xmlns:sodipodi="http://sodipodi.sourceforge.net/DTD/sodipodi-0.dtd"
   xmlns:inkscape="http://www.inkscape.org/namespaces/inkscape"
   width="297mm"
   height="210mm"
   viewBox="0 0 297 210"
   version="1.1"
   id="svg1549"
   sodipodi:docname="N.svg"
   inkscape:version="0.92.2 (5c3e80d, 2017-08-06)">
  <defs
     id="defs1543">
    <inkscape:path-effect
       effect="spiro"
       id="path-effect9207"
       is_visible="true" />
  </defs>
  <sodipodi:namedview
     id="base"
     pagecolor="#ffffff"
     bordercolor="#666666"
     borderopacity="1.0"
     inkscape:pageopacity="0.0"
     inkscape:pageshadow="2"
     inkscape:zoom="3.5793566"
     inkscape:cx="84.93774"
     inkscape:cy="733.77188"
     inkscape:document-units="mm"
     inkscape:current-layer="layer1"
     showgrid="false"
     inkscape:window-width="1366"
     inkscape:window-height="705"
     inkscape:window-x="-8"
     inkscape:window-y="-8"
     inkscape:window-maximized="1" />
  <metadata
     id="metadata1546">
    <rdf:RDF>
      <cc:Work
         rdf:about="">
        <dc:format>image/svg+xml</dc:format>
        <dc:type
           rdf:resource="http://purl.org/dc/dcmitype/StillImage" />
        <dc:title />
      </cc:Work>
    </rdf:RDF>
  </metadata>
  <g
     inkscape:label="Capa 1"
     inkscape:groupmode="layer"
     id="layer1"
     transform="translate(0,-87)">
    <path
       style="opacity:1;fill:#216778;fill-opacity:1;fill-rule:nonzero;stroke:none;stroke-width:0.66499996;stroke-linecap:butt;stroke-linejoin:miter;stroke-miterlimit:4;stroke-dasharray:none;stroke-dashoffset:0;stroke-opacity:1;paint-order:stroke fill markers"
       d="m 10.190476,110.37789 c -0.3107209,-0.17083 -1.1808539,-1.16887 -1.5207639,-1.74433 -0.432514,-0.73223 -0.596805,-1.50049 -0.708602,-3.31361 -0.07829,-1.26968 -0.04473,-2.0193 0.112813,-2.51986 0.06497,-0.20641 0.310129,-0.78544 0.544812,-1.28674 0.634582,-1.35551 0.752396,-1.790282 0.546716,-2.017552 -0.08047,-0.0889 -0.0766,-0.11326 0.05325,-0.33484 0.417809,-0.71293 1.4992649,-1.2317 2.8798399,-1.38143 0.461507,-0.0501 0.716092,-0.05 1.147426,1e-4 0.667332,0.0776 0.89608,0.15439 2.654409,0.89136 1.973185,0.82703 3.766722,1.412302 6.246042,2.038232 1.724134,0.43527 1.94191,0.43767 2.273459,0.0251 0.09407,-0.11705 0.194024,-0.21282 0.22212,-0.21282 0.129487,0 -0.0021,1.61345 -0.21632,2.65196 -0.150591,0.73014 -0.289484,1.17225 -0.496107,1.57918 -0.25907,0.51023 -0.329063,0.53566 -1.630937,0.59252 -1.131292,0.0494 -1.528138,0.12556 -1.711635,0.32846 -0.287768,0.3182 -0.925094,0.44634 -1.808898,0.36371 -1.091596,-0.10205 -2.161802,-0.43131 -3.306635,-1.01731 -0.895779,-0.45852 -1.047586,-0.48489 -1.704197,-0.29599 -0.6115,0.17592 -1.064242,0.18634 -1.264156,0.0291 -0.116824,-0.0919 -0.141179,-0.15451 -0.140761,-0.3619 0.0011,-0.50983 0.485614,-1.07944 1.350937,-1.58795 0.988427,-0.58085 1.382876,-0.9435 1.382876,-1.27139 0,-0.11819 -0.03501,-0.1558 -0.1939,-0.20823 -0.106645,-0.0352 -0.289044,-0.0512 -0.405334,-0.0356 -0.265141,0.0356 -0.519062,-0.0348 -0.613857,-0.17016 -0.161163,-0.23009 -1.553398,-0.29921 -1.868479,-0.0928 -0.218853,0.1434 -0.280861,0.35775 -0.45433,1.57057 -0.280847,1.96355 -0.330771,2.96895 -0.192521,3.877 0.08987,0.59029 0.19327,0.90412 0.529934,1.60842 0.248433,0.51972 0.351978,0.86091 0.314613,1.03668 -0.05036,0.23694 -0.532812,-0.0623 -1.168542,-0.72484 -0.670876,-0.69914 -0.793902,-1.04264 -1.0621839,-2.96573 -0.326702,-2.34186 -0.317923,-2.46011 0.2497719,-3.36479 0.560118,-0.89262 0.74661,-1.31041 0.726319,-1.62715 -0.01365,-0.21314 -0.04087,-0.27235 -0.154332,-0.33577 -0.191503,-0.107042 -0.386059,-0.0452 -0.664184,0.21119 -0.4978289,0.45888 -1.1994009,1.69396 -1.3988549,2.46262 -0.26308,1.01386 0.339723,4.73415 0.933869,5.76351 0.0851,0.14744 0.3407139,0.47315 0.5680279,0.72379 0.613143,0.67607 0.667391,0.83445 0.366808,1.07089 -0.15449,0.12152 -0.260509,0.13328 -0.418513,0.0464 z"
       id="path2472"
       inkscape:connector-curvature="0" />
    <path
       style="opacity:1;fill:#216778;fill-opacity:1;fill-rule:nonzero;stroke:none;stroke-width:0.66499996;stroke-linecap:butt;stroke-linejoin:miter;stroke-miterlimit:4;stroke-dasharray:none;stroke-dashoffset:0;stroke-opacity:1;paint-order:stroke fill markers"
       d="m 6.5005601,104.71384 c -0.112122,-0.12389 -0.114067,-0.33844 -0.0063,-0.70114 0.125426,-0.42236 0.211619,-0.32995 0.210061,0.22522 -0.0013,0.50487 -0.05796,0.63697 -0.203703,0.47592 z"
       id="path2474"
       inkscape:connector-curvature="0" />
    <path
       style="opacity:1;fill:#216778;fill-opacity:1;fill-rule:nonzero;stroke:none;stroke-width:0.66499996;stroke-linecap:butt;stroke-linejoin:miter;stroke-miterlimit:4;stroke-dasharray:none;stroke-dashoffset:0;stroke-opacity:1;paint-order:stroke fill markers"
       d="m 3.3546801,103.89918 v -9.114402 h 1.439598 1.439598 l 0.07007,-1.65347 0.07008,-1.65347 5.3663349,-0.0355 c 2.951483,-0.0195 7.149333,-0.0514 9.328552,-0.0708 l 3.96222,-0.0354 -0.03362,3.15849 c -0.02991,2.80933 -0.06931,3.72464 -0.17462,4.05646 -0.01714,0.054 -0.125436,0.13592 -0.240649,0.18202 -0.263311,0.10536 -0.457155,0.32508 -0.741974,0.84105 -0.125053,0.22654 -0.252725,0.39659 -0.288816,0.38469 -0.03558,-0.0118 -0.824664,-0.22956 -1.753529,-0.48405 -2.078405,-0.56944 -4.111535,-1.24141 -5.933562,-1.96109 -1.939919,-0.76624 -2.119079,-0.81386 -3.046796,-0.8099 -0.880512,0.004 -2.270496,0.17284 -2.734249,0.3326 -0.3992619,0.13753 -0.6594819,0.30714 -1.0723509,0.69895 -0.430075,0.40814 -1.035267,0.8677 -1.497949,1.1375 -0.969296,0.56521 -2.083724,2.134552 -2.44837,3.447802 -0.164888,0.59383 -0.168344,1.31351 -0.0087,1.81977 0.274011,0.86917 1.701321,3.54464 2.659991,4.98611 1.020845,1.53496 2.073648,2.59364 2.5846829,2.59911 0.201084,0.002 0.651582,-0.26661 1.120987,-0.66877 0.594167,-0.50904 0.786614,-0.62546 1.12132,-0.67838 0.340669,-0.0538 0.5084,-0.17391 0.667337,-0.47769 0.113382,-0.2167 0.122351,-0.28877 0.09971,-0.80107 -0.02808,-0.63548 -0.120888,-0.94652 -0.55988,-1.8765 -0.39268,-0.83186 -0.409355,-0.89511 -0.2615,-0.99199 0.214326,-0.14043 0.955857,-0.29966 1.535327,-0.32967 0.557583,-0.0289 0.566777,-0.0274 0.965052,0.15798 0.709263,0.33009 2.631735,0.87801 3.8066,1.08491 0.904854,0.15935 1.609356,0.0323 2.29398,-0.41377 0.616728,-0.40182 0.914416,-0.29917 1.034764,0.35681 0.10191,0.55547 0.298777,0.82831 0.805969,1.11699 0.345239,0.19651 0.427034,0.39609 0.481076,1.17381 0.04468,0.64297 0.149584,1.00584 0.358965,1.24164 0.132935,0.1497 0.490069,0.30012 0.715804,0.30149 0.420857,0.003 0.52547,0.29777 0.527598,1.48897 l 0.0011,0.60315 H 14.184714 3.3546701 Z"
       id="path2476"
       inkscape:connector-curvature="0" />
    <path
       style="opacity:1;fill:#216778;fill-opacity:1;fill-rule:nonzero;stroke:none;stroke-width:0.66499996;stroke-linecap:butt;stroke-linejoin:miter;stroke-miterlimit:4;stroke-dasharray:none;stroke-dashoffset:0;stroke-opacity:1;paint-order:stroke fill markers"
       d="m 0.9465811,92.760848 c -0.173898,-0.1424 -0.228463,-0.79366 -0.234707,-2.80133 -0.0069,-2.22277 0.01333,-2.30541 0.564645,-2.30541 0.485248,0 0.872619,0.37114 1.873443,1.79494 0.352808,0.50192 0.663831,0.92062 0.691166,0.93045 0.02954,0.0106 0.04973,-0.45679 0.04978,-1.15271 7.1e-5,-1.00703 0.01318,-1.19679 0.09382,-1.35822 0.08474,-0.16963 0.117932,-0.18921 0.345585,-0.20388 0.508465,-0.0328 0.544216,0.1171 0.541075,2.26802 -0.0019,1.32046 -0.05869,2.29959 -0.155718,2.68619 -0.03622,0.1443 -0.279476,0.24363 -0.469547,0.19173 -0.43301,-0.11823 -0.830226,-0.58025 -1.625133,-1.89024 -0.567266,-0.93485 -0.493249,-0.97374 -0.632086,0.33208 -0.13429,1.26305 -0.286026,1.60221 -0.716799,1.60221 -0.121518,0 -0.259527,-0.0398 -0.325527,-0.0938 z m 0.494635,-2.17992 c 0.0011,-0.47447 -0.01873,-0.92299 -0.04372,-0.99671 l -0.04545,-0.13404 -0.03881,0.13404 c -0.0493,0.17027 -0.06093,1.6451 -0.01479,1.87581 0.07536,0.37679 0.141058,-0.0277 0.142772,-0.8791 z"
       id="path2478"
       inkscape:connector-curvature="0" />
    <path
       style="opacity:1;fill:#ffffff;fill-opacity:1;fill-rule:nonzero;stroke:none;stroke-width:2.51338601;stroke-linecap:butt;stroke-linejoin:miter;stroke-miterlimit:4;stroke-dasharray:none;stroke-dashoffset:0;stroke-opacity:1;paint-order:stroke fill markers"
       d="M 36.853982,92.370146 C 33.275326,89.999742 27.404479,81.53305 22.145927,71.158797 19.467271,65.874253 18.780599,63.921579 18.780599,61.58888 c 0,-3.56101 1.732216,-7.892134 4.767419,-11.920152 1.759205,-2.334641 3.082165,-3.531202 6.268084,-5.669211 1.075612,-0.721823 2.882116,-2.131001 4.014452,-3.131507 1.132336,-1.000505 2.604344,-2.083197 3.271128,-2.405982 1.632899,-0.790473 5.331301,-1.379515 9.896279,-1.576175 4.584645,-0.197506 5.082698,-0.08612 12.727323,2.846339 7.388459,2.834196 14.109664,5.059585 21.996065,7.282892 3.566823,1.005546 6.701319,1.890788 6.965545,1.967202 0.355558,0.10283 0.809682,-0.374764 1.747434,-1.837754 1.087975,-1.697349 2.562964,-3.079733 3.289907,-3.083356 0.115244,-5.87e-4 0.209535,1.646778 0.209535,3.660784 0,3.255863 -0.05002,3.642635 -0.451137,3.48871 -0.289058,-0.110922 -0.8414,0.17946 -1.537394,0.808249 -1.230908,1.112051 -1.632159,1.161678 -4.5386,0.561336 -7.587587,-1.567259 -18.416095,-4.966412 -27.417517,-8.606573 -7.732727,-3.127103 -8.594078,-3.367606 -12.013332,-3.354313 -5.773211,0.02244 -11.22712,2.123073 -13.012516,5.011904 -0.497545,0.805045 -0.541552,1.08818 -0.283975,1.827067 0.409277,1.174051 0.108456,2.203553 -2.09344,7.164402 -2.500235,5.633003 -2.630067,6.16674 -2.630067,10.81213 0,7.186929 0.728081,12.209032 2.223288,15.335642 0.949132,1.984719 4.560674,6.429968 6.017546,7.406666 l 1.004592,0.67349 0.755349,-0.561828 c 1.195378,-0.88912 1.092941,-1.521125 -0.565023,-3.486003 -2.541468,-3.011935 -2.994708,-3.721697 -3.699099,-5.792689 -2.151453,-6.325536 -3.379336,-17.206959 -2.289965,-20.293522 1.213387,-3.437937 4.25904,-8.146391 5.777348,-8.931538 1.6786,-0.868038 2.608288,0.231559 1.938159,2.292374 -0.190028,0.584381 -1.176318,2.5021 -2.191757,4.261596 -1.832649,3.175514 -1.846933,3.216685 -1.938595,5.587597 -0.153572,3.972285 1.273932,13.166523 2.46084,15.849726 0.862511,1.949848 5.215856,6.235062 6.334194,6.235062 0.714241,0 0.380765,-1.786522 -0.875269,-4.689052 -2.235904,-5.166887 -2.561295,-8.803219 -1.531442,-17.11426 0.791927,-6.390956 1.237494,-8.393825 2.008297,-9.027519 0.543999,-0.447233 1.019336,-0.503717 3.474241,-0.412843 2.323197,0.086 2.953352,0.204222 3.441043,0.645577 0.42009,0.380176 1.128267,0.574126 2.389581,0.654441 1.008415,0.06421 1.925773,0.274656 2.097089,0.481079 0.722685,0.870783 -1.33153,2.996767 -4.847464,5.016818 -1.676457,0.963195 -4.276615,3.316178 -4.814979,4.357261 -0.564621,1.091858 -0.514509,2.581411 0.105728,3.142718 0.644901,0.583627 2.472238,0.600781 4.612547,0.0433 2.409821,-0.62768 3.204316,-0.527533 5.787132,0.729464 5.993337,2.91682 10.407608,4.143859 14.942688,4.153637 2.450033,0.0053 2.961979,-0.07988 4.051008,-0.673864 2.685172,-1.464565 3.020844,-1.55205 7.032682,-1.832882 2.195694,-0.153698 4.334508,-0.351907 4.752916,-0.440459 1.997267,-0.422708 3.66603,-4.592764 4.511967,-11.274931 0.196882,-1.555188 0.472672,-2.680329 0.673392,-2.747235 0.264645,-0.08822 0.339944,3.846825 0.339944,17.765076 V 90.66616 l -1.466744,-0.343945 c -2.792779,-0.654891 -3.371159,-1.48183 -3.862434,-5.522322 -0.387042,-3.183198 -0.54904,-3.615401 -1.668283,-4.450858 -1.976884,-1.475643 -2.660311,-2.379953 -3.161789,-4.183671 -0.272348,-0.979579 -0.627742,-1.940782 -0.789768,-2.136013 -0.508262,-0.612417 -1.576356,-0.394188 -4.074078,0.832404 -3.9523,1.94091 -6.714738,1.821255 -15.550524,-0.673565 -2.141066,-0.604542 -4.823565,-1.486622 -5.961111,-1.960182 -1.956038,-0.814303 -2.214747,-0.852921 -4.767926,-0.711753 -2.850457,0.157606 -5.56918,0.828204 -5.800386,1.43072 -0.07594,0.197888 0.559053,1.929856 1.411089,3.848818 1.924301,4.333927 2.466077,7.316789 1.69545,9.334649 -0.510478,1.336668 -0.881947,1.623043 -2.891411,2.229082 -0.778291,0.234727 -2.150901,1.07773 -3.400452,2.088423 -2.379496,1.924645 -3.869276,2.783031 -4.830119,2.783031 -0.363924,0 -1.24651,-0.387374 -1.961302,-0.860833 z M 25.359084,66.597643 c 0.24658,-0.982454 0.02993,-3.063071 -0.33131,-3.181703 -0.498842,-0.163823 -1.056303,2.53267 -0.672032,3.250687 0.4093,0.764783 0.800836,0.737862 1.003342,-0.06898 z"
       id="path9209"
       inkscape:connector-curvature="0"
       transform="matrix(0.26458333,0,0,0.26458333,0,87)" />
    <path
       style="opacity:1;fill:#ffffff;fill-opacity:1;fill-rule:nonzero;stroke:none;stroke-width:2.51338601;stroke-linecap:butt;stroke-linejoin:miter;stroke-miterlimit:4;stroke-dasharray:none;stroke-dashoffset:0;stroke-opacity:1;paint-order:stroke fill markers"
       d="M 36.923375,92.442167 C 34.433544,90.863165 30.693432,86.150648 26.851666,79.751884 24.076231,75.129176 19.811392,66.73978 19.227016,64.753375 c -1.260697,-4.285342 0.290137,-9.751815 4.256713,-15.004322 2.003186,-2.652602 2.743097,-3.338263 6.087562,-5.641219 1.363917,-0.939176 3.349842,-2.464739 4.413167,-3.39014 2.37732,-2.068958 3.716561,-2.735488 6.512657,-3.2413 3.219437,-0.582395 9.68261,-0.825626 11.506494,-0.433029 0.83237,0.179171 4.478277,1.437434 8.102015,2.796141 3.623737,1.358707 8.411567,3.07512 10.639621,3.814251 5.319621,1.764722 17.942822,5.383552 18.299378,5.246081 0.153659,-0.05924 0.817111,-0.924897 1.474335,-1.923674 1.031339,-1.567316 2.509406,-2.91152 3.205277,-2.914988 0.115244,-5.87e-4 0.209535,1.70466 0.209535,3.78941 0,3.682163 -0.0162,3.785311 -0.567222,3.610425 -0.402067,-0.127612 -0.852293,0.07027 -1.546309,0.679623 -1.201126,1.054602 -1.80688,1.074359 -5.720234,0.186568 C 78.061568,50.50359 68.988927,47.603723 59.570053,43.8475 56.112727,42.468728 52.608047,41.181841 51.781874,40.987752 49.365353,40.42005 44.017778,40.757485 41.240159,41.65294 c -3.750693,1.209156 -7.141919,3.931551 -6.646715,5.335824 0.47687,1.352281 0.112504,2.76667 -1.938888,7.526347 -1.159373,2.689996 -2.259895,5.663225 -2.445606,6.607176 -0.232833,1.183466 -0.28256,3.246455 -0.16018,6.645275 0.278793,7.742825 0.926768,10.92816 2.897317,14.242716 1.069068,1.798226 4.735712,5.970973 5.70046,6.487289 0.634471,0.339558 1.490797,-0.0416 1.927754,-0.858065 0.382541,-0.714782 -0.05687,-1.53346 -2.097256,-3.907437 -0.858433,-0.998783 -1.86071,-2.44925 -2.227281,-3.223258 -1.890118,-3.99096 -3.729947,-15.470512 -3.199914,-19.965762 0.372244,-3.157036 4.10732,-9.711998 6.129978,-10.757955 1.676396,-0.866899 2.603754,0.226194 1.944805,2.292374 -0.186372,0.584381 -1.160902,2.489169 -2.165624,4.232862 -1.693201,2.938546 -1.836229,3.317779 -1.95617,5.186723 -0.234657,3.656457 1.325533,13.769769 2.514486,16.299156 1.054448,2.243241 5.565334,6.568608 6.346711,6.085689 0.532375,-0.329026 0.309615,-1.360728 -0.967344,-4.480216 -1.82964,-4.469635 -2.20622,-6.656073 -1.996935,-11.594262 0.169732,-4.004917 0.963906,-10.413655 1.606908,-12.967246 0.490431,-1.947681 1.058606,-2.213681 4.377632,-2.049453 2.06213,0.102036 2.992169,0.279518 3.830177,0.730923 0.678217,0.365331 1.611505,0.596165 2.410366,0.596165 2.771677,0 2.290401,1.707295 -1.155624,4.099483 -5.966156,4.141636 -6.945206,5.118138 -7.174931,7.15626 -0.120461,1.068709 -0.04964,1.302924 0.513198,1.697149 0.807558,0.565635 2.423285,0.579562 4.439935,0.03827 2.465264,-0.661705 3.160531,-0.540885 7.093392,1.232646 4.211771,1.899308 7.235219,2.895591 10.255684,3.379443 2.847693,0.456177 6.259393,0.275066 7.515727,-0.398974 2.959697,-1.587914 2.933955,-1.581287 7.373705,-1.897877 3.246489,-0.231503 4.568497,-0.436434 5.168231,-0.801153 1.524503,-0.927105 2.980309,-5.170644 3.753107,-10.939934 0.19988,-1.492194 0.482752,-2.592485 0.683718,-2.659474 0.268423,-0.08947 0.342788,3.773907 0.342788,17.808153 0,16.93677 -0.02688,17.914616 -0.488915,17.780531 -0.268903,-0.07804 -1.037211,-0.283705 -1.707354,-0.457032 -2.158402,-0.558265 -2.83121,-1.821777 -3.271535,-6.14385 -0.234824,-2.304942 -0.661222,-3.121572 -2.173011,-4.161711 -1.457342,-1.002678 -1.950984,-1.708922 -2.509836,-3.590785 -0.905414,-3.048853 -1.190946,-3.135852 -4.671259,-1.423301 -2.117103,1.04176 -2.618691,1.173921 -4.874367,1.284315 -2.033653,0.09953 -3.155439,-0.02101 -5.866976,-0.630418 -4.019711,-0.903417 -9.075757,-2.408296 -11.422905,-3.39991 -1.564577,-0.660999 -1.930741,-0.707775 -4.362055,-0.557256 -1.459759,0.09037 -3.314143,0.362724 -4.120852,0.605228 -1.864913,0.560604 -1.875136,0.82331 -0.180689,4.643779 2.076915,4.682819 2.513996,7.640052 1.437898,9.728575 -0.554591,1.076361 -0.834125,1.292984 -2.374089,1.839764 -1.04728,0.371846 -2.611827,1.288368 -3.911317,2.291272 -3.715768,2.867711 -4.492616,3.082545 -6.513133,1.80117 z M 25.364458,66.270827 c 0.235868,-1.257285 -0.0902,-3.113163 -0.478707,-2.724656 -0.466307,0.466307 -0.774515,2.32818 -0.503428,3.041193 0.360315,0.947698 0.769716,0.815753 0.982135,-0.316537 z"
       id="path9211"
       inkscape:connector-curvature="0"
       transform="matrix(0.26458333,0,0,0.26458333,0,87)" />
    <path
       style="opacity:1;fill:#ffffff;fill-opacity:1;fill-rule:nonzero;stroke:none;stroke-width:2.51338601;stroke-linecap:butt;stroke-linejoin:miter;stroke-miterlimit:4;stroke-dasharray:none;stroke-dashoffset:0;stroke-opacity:1;paint-order:stroke fill markers"
       d="M 36.909043,92.433079 C 34.420235,90.854725 30.460291,85.85583 26.696691,79.541368 c -2.677659,-4.4925 -6.88931,-12.833016 -7.467388,-14.787993 -0.890048,-3.010016 -0.488726,-6.285182 1.221712,-9.97032 2.105297,-4.53586 4.452674,-7.37448 8.430587,-10.194885 1.523381,-1.080102 3.739775,-2.78507 4.92532,-3.788817 1.185545,-1.003748 2.691468,-2.070225 3.346495,-2.36995 1.874852,-0.857887 4.878571,-1.33964 9.565164,-1.534112 5.1028,-0.211743 4.838663,-0.270198 13.689611,3.029569 3.303666,1.231656 8.081061,2.926703 10.616433,3.766771 5.037067,1.668977 16.971773,5.117957 17.709962,5.117957 0.253682,0 0.867242,-0.585691 1.363468,-1.301535 1.393631,-2.010425 2.028843,-2.706638 2.969054,-3.254182 l 0.866661,-0.504709 v 3.945939 c 0,3.705313 -0.03137,3.935983 -0.514377,3.782682 -0.329817,-0.10468 -0.894941,0.139174 -1.575007,0.679622 -1.304827,1.036948 -1.817237,1.047102 -5.978991,0.118482 -7.701973,-1.718554 -16.419797,-4.508337 -26.607672,-8.514696 -3.475449,-1.366712 -6.995545,-2.630024 -7.822437,-2.807361 -1.889281,-0.405178 -7.044104,-0.151034 -9.280624,0.457555 -4.569415,1.243404 -8.108866,4.113007 -7.399691,5.999285 0.374064,0.994945 -0.06818,2.491029 -2.173217,7.351899 -0.99762,2.303665 -1.994721,4.955384 -2.215779,5.892711 -0.477819,2.02604 -0.518773,5.732325 -0.117942,10.673657 0.555405,6.846867 1.662131,9.854598 5.069033,13.776026 2.664086,3.066428 3.341255,3.567473 4.346613,3.216109 0.573879,-0.200564 0.789152,-0.479975 0.848889,-1.101802 0.06398,-0.665949 -0.259411,-1.248629 -1.611833,-2.904203 -2.259167,-2.765575 -2.633659,-3.413097 -3.488743,-6.032274 -1.568398,-4.804109 -2.895401,-14.730766 -2.386891,-17.855169 0.575287,-3.5347 4.078736,-9.568998 6.189332,-10.660429 1.645042,-0.850685 2.567275,0.268445 1.903806,2.310269 -0.189888,0.584381 -1.140051,2.496913 -2.111472,4.250071 -1.03369,1.865536 -1.842783,3.69812 -1.950824,4.418585 -0.480712,3.205617 1.289458,14.70018 2.676776,17.381592 1.138781,2.201038 5.45892,6.169745 6.210468,5.705265 0.412728,-0.255082 0.03964,-1.693371 -1.301186,-5.016259 -0.688282,-1.705722 -1.381118,-4.009609 -1.57394,-5.23382 -0.442475,-2.809237 -0.194532,-8.792957 0.580819,-14.017187 1.036602,-6.984504 1.024978,-6.969477 5.26,-6.799376 2.051966,0.08242 2.945387,0.239698 3.527245,0.620946 0.428577,0.280814 1.516597,0.577433 2.417823,0.659154 1.886666,0.171077 2.334249,0.524465 1.948685,1.538577 -0.304512,0.800932 -1.754346,2.023442 -4.859138,4.097264 -3.008298,2.00937 -4.532703,3.540509 -4.961026,4.982941 -0.74731,2.516662 0.660395,3.29968 4.463068,2.482527 1.171839,-0.251816 2.494384,-0.457847 2.938989,-0.457847 0.444605,0 2.390404,0.702679 4.324003,1.561509 4.530806,2.012409 6.866628,2.786833 10.108669,3.351449 3.877328,0.675253 6.345232,0.442174 8.793395,-0.830479 1.833576,-0.953168 2.170745,-1.026126 6.425555,-1.390384 2.469742,-0.211437 4.775721,-0.53711 5.124401,-0.723719 1.336673,-0.715366 2.799489,-4.930072 3.633617,-10.469276 0.268467,-1.782813 0.601166,-3.100137 0.799671,-3.166305 0.264632,-0.08821 0.339933,3.851092 0.339933,17.783295 v 17.896605 l -0.907984,-0.167145 c -3.080719,-0.567105 -3.935129,-1.620883 -4.423231,-5.455354 -0.443792,-3.486381 -0.653651,-3.952767 -2.357466,-5.23916 -1.681145,-1.269275 -1.942519,-1.651906 -2.557462,-3.743919 -0.457429,-1.556156 -1.060956,-2.422622 -1.687449,-2.422622 -0.215829,0 -1.484984,0.534314 -2.820342,1.187364 l -2.427925,1.187364 -3.352558,-0.01014 c -3.028052,-0.0091 -3.771711,-0.122028 -7.682944,-1.166173 -2.381713,-0.635827 -5.776178,-1.678478 -7.543256,-2.317006 -3.120641,-1.127636 -3.283928,-1.155959 -5.68836,-0.986647 -2.863146,0.201612 -5.305079,0.914139 -5.430216,1.584478 -0.04693,0.251391 0.551119,1.970175 1.328996,3.819516 2.053366,4.881715 2.412487,7.286918 1.415841,9.482567 -0.30037,0.661725 -0.823128,1.297331 -1.181229,1.436213 -2.402566,0.931805 -3.360427,1.441114 -4.917497,2.614716 -4.125964,3.109838 -4.678477,3.266556 -6.791645,1.926425 z M 25.346025,65.302309 c 0,-1.317321 -0.236972,-1.960814 -0.591522,-1.606264 -0.272133,0.272132 -0.475533,2.63774 -0.27233,3.167279 0.331592,0.864114 0.863852,-0.0977 0.863852,-1.561015 z"
       id="path9213"
       inkscape:connector-curvature="0"
       transform="matrix(0.26458333,0,0,0.26458333,0,87)" />
    <path
       style="opacity:1;fill:#ffffff;fill-opacity:1;fill-rule:nonzero;stroke:none;stroke-width:2.51338601;stroke-linecap:butt;stroke-linejoin:miter;stroke-miterlimit:4;stroke-dasharray:none;stroke-dashoffset:0;stroke-opacity:1;paint-order:stroke fill markers"
       d="M 36.92514,92.442804 C 32.841983,89.85176 25.874058,79.405025 20.400273,67.667726 19.15393,64.995223 18.950006,64.30829 18.83618,62.39896 c -0.162723,-2.729528 0.251698,-4.685653 1.613493,-7.615905 2.040774,-4.391247 4.425431,-7.331952 8.058554,-9.937624 1.333967,-0.956719 3.714379,-2.778492 5.289804,-4.048384 2.344742,-1.89001 3.206399,-2.410028 4.749457,-2.866344 3.658836,-1.081996 11.442432,-1.492315 14.177759,-0.747392 0.768295,0.209233 3.848457,1.292213 6.844806,2.406622 2.996348,1.114409 7.459441,2.710299 9.917983,3.546423 4.626764,1.573511 18.550848,5.673232 19.268281,5.673232 0.223945,0 0.91545,-0.748465 1.53667,-1.663255 0.985792,-1.451641 2.081335,-2.517097 3.291558,-3.201162 0.27246,-0.154005 0.349225,0.700844 0.349225,3.888927 0,3.889064 -0.02565,4.07818 -0.531403,3.917661 -0.332747,-0.10561 -0.93329,0.106615 -1.606434,0.567694 -1.388911,0.951352 -2.573029,0.858625 -8.652669,-0.67758 C 75.236206,49.643914 68.805668,47.509799 57.857686,43.2503 51.704055,40.856124 50.560051,40.598421 46.997961,40.803985 c -1.613419,0.09311 -3.687814,0.362838 -4.609767,0.599398 -2.493502,0.639797 -5.520921,2.220914 -6.654102,3.47521 -0.932075,1.031696 -0.992051,1.21144 -0.956018,2.865098 0.0319,1.464026 -0.141204,2.192343 -1.016971,4.278765 -4.00967,9.552617 -4.086586,9.93098 -3.570566,17.564257 0.477521,7.063778 1.078228,9.597974 2.994998,12.634966 1.120497,1.77535 4.120913,5.282626 5.027208,5.876453 1.414146,0.926586 2.876451,-0.363657 2.086028,-1.840574 -0.17653,-0.329852 -1.115532,-1.583904 -2.08667,-2.786783 -1.03153,-1.277682 -2.022531,-2.868739 -2.383377,-3.826525 -1.467092,-3.894066 -2.847986,-11.975985 -2.881704,-16.865671 -0.02318,-3.361862 0.507284,-5.1071 2.653618,-8.730419 2.324417,-3.923949 4.700516,-5.671605 5.550854,-4.082735 0.528555,0.987615 0.09493,2.383484 -1.80036,5.795518 -0.991689,1.785305 -1.953866,3.811753 -2.138172,4.503218 -0.773527,2.902059 1.09435,15.292681 2.735997,18.149317 1.45133,2.525465 5.444286,5.898912 6.148577,5.194621 0.105088,-0.105089 -0.160241,-1.157384 -0.58962,-2.338434 -0.42938,-1.181053 -1.169858,-3.215994 -1.645507,-4.522095 -0.756377,-2.076963 -0.880641,-2.830134 -0.991027,-6.006666 -0.129891,-3.737853 0.356086,-9.313998 1.240155,-14.229644 0.632493,-3.516815 0.948395,-3.792233 4.340472,-3.784219 2.012529,0.0048 2.879889,0.134931 3.85417,0.578444 0.691465,0.31477 1.885814,0.643589 2.654109,0.730711 3.325038,0.377046 2.715949,1.753401 -2.281268,5.154956 -3.635044,2.474338 -5.291663,4.096992 -5.688916,5.57227 -0.390039,1.448492 -0.171296,2.063857 0.889883,2.503411 0.726801,0.301051 1.273042,0.277114 3.451741,-0.151262 1.423566,-0.279905 3.016547,-0.43942 3.53996,-0.354483 0.523415,0.08494 2.354166,0.787228 4.068334,1.560644 4.091258,1.845932 7.775113,3.006646 10.834646,3.413795 3.404042,0.452992 5.420742,0.195468 7.846639,-1.001982 1.8384,-0.907454 2.324216,-1.011713 6.499623,-1.394843 2.481991,-0.227745 4.752852,-0.564051 5.046357,-0.747349 1.312515,-0.819681 2.62372,-4.509934 3.497763,-9.844103 0.345103,-2.106138 0.732994,-3.659293 0.930306,-3.725064 0.262623,-0.08754 0.338416,3.901922 0.338416,17.812983 v 17.925788 l -0.907984,-0.190216 c -0.499392,-0.104619 -1.419923,-0.411942 -2.045625,-0.682944 -1.449892,-0.627965 -1.941134,-1.64013 -2.459073,-5.066712 -0.497634,-3.29224 -0.721183,-3.74826 -2.550073,-5.201884 -1.113116,-0.884715 -1.601207,-1.512926 -1.953594,-2.514419 -0.805106,-2.288132 -1.243335,-3.162596 -1.666219,-3.324871 -0.224515,-0.08616 -1.576199,0.388343 -3.003749,1.054441 -2.392201,1.116203 -2.80347,1.218571 -5.24965,1.306665 -3.359785,0.120996 -7.254443,-0.709223 -14.51895,-3.094984 l -5.159723,-1.694525 -2.523222,0.301177 c -1.387769,0.165647 -3.026102,0.472275 -3.640738,0.681393 -1.424046,0.484504 -1.412603,0.90606 0.122491,4.512775 1.50103,3.526679 2.059641,5.775736 1.918658,7.724819 -0.15174,2.097765 -0.926843,3.16806 -2.727404,3.766109 -0.757214,0.251506 -2.785081,1.455365 -4.506374,2.675241 -3.570054,2.530089 -4.179661,2.672106 -6.137401,1.429782 z M 25.206335,65.276508 c 0,-0.912884 -0.111058,-1.659789 -0.246795,-1.659789 -0.48556,0 -0.783332,2.247786 -0.42238,3.188413 0.333232,0.868385 0.669175,0.100977 0.669175,-1.528624 z"
       id="path9215"
       inkscape:connector-curvature="0"
       transform="matrix(0.26458333,0,0,0.26458333,0,87)" />
    <path
       style="opacity:1;fill:#ffffff;fill-opacity:1;fill-rule:nonzero;stroke:none;stroke-width:2.51338601;stroke-linecap:butt;stroke-linejoin:miter;stroke-miterlimit:4;stroke-dasharray:none;stroke-dashoffset:0;stroke-opacity:1;paint-order:stroke fill markers"
       d="M 36.633643,92.274411 C 32.390507,89.160234 24.907886,77.820078 20.253522,67.449801 c -1.119639,-2.494641 -1.29716,-3.155176 -1.405576,-5.229982 -0.148677,-2.845297 0.350787,-5.043807 1.803409,-7.938135 2.096444,-4.177131 4.235534,-6.809539 7.42496,-9.137304 1.110542,-0.810516 3.402097,-2.563426 5.092345,-3.895355 1.690248,-1.331929 3.454997,-2.616623 3.921664,-2.854876 2.407753,-1.229257 12.08814,-2.065979 15.234242,-1.316769 0.835011,0.198849 4.032619,1.295757 7.105797,2.437574 10.851704,4.031874 28.419858,9.493699 29.45638,9.157797 0.240493,-0.07794 0.751562,-0.60944 1.13571,-1.181122 1.109093,-1.650533 2.253544,-2.867958 3.114649,-3.313254 l 0.796668,-0.411972 v 4.088072 c 0,3.606493 -0.05186,4.068171 -0.440255,3.919131 -0.242141,-0.09292 -0.976081,0.145073 -1.63098,0.528869 C 90.34862,53.189688 89.55291,53.175596 85.267109,52.185667 77.8927,50.482336 70.966573,48.267795 60.268502,44.192679 51.535718,40.866181 50.341699,40.566371 46.858271,40.825463 c -4.938472,0.367317 -8.704426,1.727027 -10.920159,3.94276 -1.174096,1.174096 -1.197979,1.235345 -1.157809,2.96932 0.03553,1.533582 -0.138346,2.200413 -1.299396,4.983363 -3.543794,8.494215 -3.774913,9.699707 -3.265615,17.033133 0.525901,7.572493 1.372585,10.46007 4.120667,14.053344 1.872233,2.448055 4.14771,4.674139 4.777846,4.674139 0.796673,0 1.556899,-0.973493 1.3548,-1.734867 -0.09341,-0.351924 -1.041886,-1.739109 -2.107713,-3.082633 -2.63424,-3.320577 -3.631145,-6.162615 -4.803571,-13.694321 -0.811795,-5.215001 -0.822912,-9.626582 -0.02968,-11.77807 1.511454,-4.099524 5.021472,-8.823283 6.556195,-8.823283 0.829418,0 1.326528,0.667467 1.326528,1.78112 0,0.385183 -0.974337,2.562134 -2.165193,4.837668 l -2.165194,4.137335 0.04699,2.793798 c 0.07815,4.647028 1.490036,12.778917 2.626212,15.125945 0.698737,1.443396 4.091258,4.912299 5.289562,5.40865 1.498443,0.620676 1.539602,0.857727 -1.139972,-6.565604 -0.812171,-2.249991 -0.920776,-2.91106 -1.032715,-6.286046 -0.128913,-3.886729 0.333103,-9.161776 1.23407,-14.089954 0.639328,-3.497051 0.969569,-3.790354 4.267699,-3.790354 1.818489,0 2.892397,0.148057 3.870609,0.533633 0.744612,0.293497 1.975045,0.623659 2.734296,0.733691 3.298009,0.477954 2.704456,1.787293 -2.414788,5.326869 -4.700717,3.250197 -6.493169,5.642995 -5.435916,7.256567 0.58558,0.893708 1.714736,1.045646 4.089341,0.550252 1.137755,-0.237361 2.490696,-0.431667 3.006538,-0.431792 0.53233,-1.32e-4 2.794784,0.791298 5.232091,1.830239 5.624589,2.397568 8.865328,3.239191 12.688154,3.295131 2.844648,0.04163 3.002691,0.01098 5.218614,-1.011486 2.100405,-0.96918 2.639405,-1.088357 6.66786,-1.474354 2.410503,-0.230969 4.609762,-0.541447 4.887239,-0.689948 1.499306,-0.802404 2.704623,-4.014761 3.727592,-9.934597 1.167279,-6.754967 1.290321,-5.407571 1.290321,14.130058 V 90.760957 L 93.02579,90.570741 c -1.891022,-0.396155 -3.171042,-1.149916 -3.64349,-2.145525 -0.369835,-0.779369 -1.309638,-5.414741 -1.314379,-6.48288 -5.59e-4,-0.139226 -0.863354,-1.082133 -1.917188,-2.095349 -1.650023,-1.586419 -2.002444,-2.104451 -2.538155,-3.730894 -0.342145,-1.038779 -0.83772,-2.004092 -1.101276,-2.145142 -0.336328,-0.179996 -0.974767,-0.04659 -2.14146,0.447485 -4.026159,1.705005 -4.27467,1.770374 -6.730307,1.770374 -3.100739,0 -7.348109,-0.945809 -14.041267,-3.126729 l -5.140317,-1.674938 -2.633717,0.310612 c -3.340969,0.394023 -4.546889,0.868818 -4.546889,1.790207 0,0.37412 0.506694,1.897682 1.125987,3.385692 2.011431,4.83298 2.443271,7.751102 1.429033,9.656568 -0.4046,0.760131 -1.062794,1.249847 -3.003333,2.234577 -1.366847,0.693611 -3.472725,1.98225 -4.67973,2.863643 -2.693391,1.966804 -3.575263,2.070085 -5.515655,0.645969 z M 25.206335,65.237122 c 0,-1.195228 -0.08975,-1.64241 -0.289523,-1.442632 -0.37028,0.37028 -0.668581,2.179809 -0.452269,2.743511 0.377143,0.982816 0.741792,0.343332 0.741792,-1.300879 z"
       id="path9217"
       inkscape:connector-curvature="0"
       transform="matrix(0.26458333,0,0,0.26458333,0,87)" />
    <path
       style="opacity:1;fill:#ffffff;fill-opacity:1;fill-rule:nonzero;stroke:none;stroke-width:2.51338601;stroke-linecap:butt;stroke-linejoin:miter;stroke-miterlimit:4;stroke-dasharray:none;stroke-dashoffset:0;stroke-opacity:1;paint-order:stroke fill markers"
       d="M 36.75227,92.426904 C 32.962358,89.681506 27.08396,81.149649 21.923001,70.903827 19.227026,65.551631 18.780599,64.219844 18.780599,61.52936 c 0,-2.588124 0.546918,-4.607825 2.06777,-7.636021 2.222058,-4.424384 3.8853,-6.297234 8.967733,-10.097883 1.997566,-1.493782 4.188946,-3.185834 4.869734,-3.760115 2.842944,-2.398175 5.715542,-3.080815 13.010574,-3.091813 l 5.028837,-0.0076 6.844806,2.547414 c 8.164525,3.03857 15.272842,5.396189 22.490075,7.459293 7.474265,2.136578 6.657241,2.060208 7.736069,0.723115 2.054495,-2.546324 2.578178,-3.092971 3.340905,-3.487393 l 0.796668,-0.411972 v 4.203194 4.203195 L 93.275353,52.00754 c -0.416955,-0.10465 -1.006081,0.0467 -1.606434,0.412702 C 90.43741,53.171026 89.500806,53.15017 85.64856,52.286182 78.761993,50.74165 70.531595,48.149668 61.525711,44.689223 51.173203,40.711347 49.934905,40.425052 45.461372,40.975137 c -3.69832,0.454761 -6.745651,1.571817 -9.023377,3.307684 -1.286955,0.980797 -1.577111,1.62375 -1.601582,3.548938 -0.01797,1.413767 -0.357131,2.508741 -2.165726,6.992006 -2.683576,6.652225 -2.890078,7.874013 -2.445623,14.469764 0.606344,8.99819 1.347163,11.19171 5.424503,16.06161 2.032478,2.427554 3.250846,3.293173 4.040415,2.870608 1.284646,-0.687523 1.01929,-1.464607 -1.703495,-4.988606 -1.654933,-2.141918 -2.439321,-3.888802 -3.290299,-7.327711 -1.32667,-5.361237 -2.145971,-12.813647 -1.707537,-15.531842 0.675368,-4.187127 5.086406,-11.00924 7.11835,-11.00924 0.348068,0 0.783717,0.150865 0.968108,0.335256 0.741084,0.741084 0.335165,2.171628 -1.760093,6.202939 l -2.095349,4.031485 v 2.807569 c 0,4.80641 1.360441,12.824482 2.588097,15.253544 1.109313,2.194906 5.466741,6.171232 6.085087,5.552886 0.148265,-0.148264 -0.15655,-1.391244 -0.745191,-3.038758 -2.369956,-6.633131 -2.182302,-5.64692 -2.178423,-11.448644 0.005,-7.520354 0.991047,-14.44896 2.232994,-15.690907 0.587541,-0.587541 0.904452,-0.652812 3.169588,-0.652812 1.793024,0 2.901368,0.149978 3.854171,0.521535 0.735568,0.286844 1.966001,0.612912 2.734296,0.724596 1.491569,0.216822 2.095348,0.549086 2.095348,1.153084 0,0.682748 -1.653512,2.273548 -4.126205,3.969716 -4.426335,3.036285 -5.941378,4.678576 -5.993066,6.496417 -0.04798,1.687552 0.99509,2.058247 4.20116,1.493042 3.251951,-0.57329 3.751971,-0.502948 7.414104,1.043003 6.723842,2.83844 9.720065,3.622316 13.913466,3.640062 2.511644,0.01062 2.851535,-0.05805 4.928749,-0.995939 1.982387,-0.895071 2.709345,-1.056555 6.521857,-1.448746 2.359932,-0.242764 4.601178,-0.587594 4.980548,-0.766288 1.451865,-0.683875 2.615023,-3.750194 3.720267,-9.807352 1.209033,-6.625971 1.317256,-5.469057 1.317256,14.081594 V 90.741881 L 92.886096,90.551757 C 91.1275,90.232625 89.738619,89.377242 89.308824,88.348593 89.093232,87.832612 88.702704,86.111356 88.440984,84.523582 L 87.96513,81.636717 86.21486,79.960438 c -1.405721,-1.346298 -1.917998,-2.088755 -2.602316,-3.771628 -0.468629,-1.152441 -0.852483,-2.126779 -0.853008,-2.165193 -0.0051,-0.370019 -1.846031,0.13002 -3.581362,0.972772 -2.143634,1.041037 -2.152378,1.042612 -5.778821,1.039804 -3.301425,-0.0025 -3.97544,-0.0958 -7.406629,-1.024681 -2.076083,-0.562028 -5.521666,-1.602576 -7.656857,-2.312326 l -3.882158,-1.290458 -2.463385,0.299517 c -3.276133,0.39834 -4.550566,0.829672 -4.657205,1.576225 -0.04615,0.323097 0.431815,1.881955 1.062152,3.464134 1.426776,3.581275 1.955248,5.580226 1.955248,7.395742 0,2.2423 -0.669705,3.169123 -3.24422,4.489771 -1.212028,0.621734 -3.323748,1.910374 -4.692712,2.863643 -2.953515,2.056663 -3.89216,2.210716 -5.661317,0.929144 z M 25.206335,65.276508 c 0,-1.43092 -0.368049,-1.848866 -0.66205,-0.751805 -0.222497,0.830244 -0.221131,2.027026 0.0026,2.250726 0.39863,0.39863 0.65948,-0.19425 0.65948,-1.498921 z"
       id="path9219"
       inkscape:connector-curvature="0"
       transform="matrix(0.26458333,0,0,0.26458333,0,87)" />
    <path
       style="opacity:1;fill:#ffffff;fill-opacity:1;fill-rule:nonzero;stroke:none;stroke-width:2.51338601;stroke-linecap:butt;stroke-linejoin:miter;stroke-miterlimit:4;stroke-dasharray:none;stroke-dashoffset:0;stroke-opacity:1;paint-order:stroke fill markers"
       d="m 36.77267,92.440996 c -1.800473,-1.305388 -4.71778,-4.657736 -7.056853,-8.109203 -4.234914,-6.248916 -9.88746,-16.8215 -10.674052,-19.964864 -0.52994,-2.117736 -0.205103,-5.825152 0.714418,-8.153776 1.917503,-4.855946 4.744191,-8.496253 9.076714,-11.689311 1.462716,-1.078018 3.659361,-2.765322 4.881432,-3.749566 1.222072,-0.984244 2.710278,-2.03866 3.307124,-2.343149 1.988868,-1.014644 5.010842,-1.435213 10.535267,-1.466195 l 5.168527,-0.02899 8.102015,2.975982 c 10.877069,3.995297 25.644628,8.61828 27.530053,8.61828 0.597401,0 1.071986,-0.393212 2.258412,-1.871184 0.82614,-1.029151 1.910667,-2.109351 2.410059,-2.400445 l 0.907984,-0.529262 v 4.235241 c 0,4.066784 -0.0216,4.228388 -0.542871,4.062941 -0.309626,-0.09827 -1.025059,0.07369 -1.665149,0.400243 -1.544607,0.787999 -2.642902,0.725695 -7.305564,-0.414433 C 76.365015,50.043632 70.081321,48.013521 59.570053,43.984827 52.026082,41.09342 51.255072,40.886112 48.11548,40.904939 c -4.594784,0.02755 -7.866721,0.897435 -10.83756,2.881284 -1.961654,1.309943 -2.326284,1.928561 -2.401504,4.074307 -0.04454,1.270545 -0.420532,2.542438 -1.64328,5.558821 -3.228235,7.9637 -3.433086,9.043344 -2.990377,15.760388 0.613934,9.314957 1.662481,12.165351 6.257483,17.010504 1.685764,1.777538 2.045219,2.029214 2.793799,1.956106 0.731895,-0.07148 0.871504,-0.210661 0.942784,-0.939909 0.06732,-0.688755 -0.252855,-1.289218 -1.638667,-3.073178 -0.947285,-1.219443 -2.070395,-2.971495 -2.495799,-3.893448 -1.983241,-4.298161 -3.808143,-16.05312 -3.108657,-20.024163 0.535996,-3.0429 3.277796,-8.035343 5.470001,-9.960124 1.04895,-0.92099 2.034124,-1.129209 2.611406,-0.551927 0.745057,0.745057 0.337715,2.184815 -1.760093,6.221093 l -2.095349,4.031545 0.0013,2.738223 c 0.0021,4.465726 1.330071,12.421496 2.523865,15.120269 0.633042,1.431095 4.536856,5.446934 5.553407,5.712767 0.600547,0.157047 0.638552,0.101205 0.502347,-0.738133 -0.08104,-0.499417 -0.756264,-2.534584 -1.500486,-4.522589 l -1.353132,-3.614558 0.01912,-5.727286 c 0.01487,-4.453834 0.157252,-6.62074 0.640355,-9.745545 0.678757,-4.390336 1.093044,-5.69659 1.952612,-6.156617 0.858462,-0.459435 5.084095,-0.371838 6.502473,0.134796 0.672369,0.240165 1.965205,0.589214 2.872969,0.775664 1.976447,0.405951 2.431739,0.926148 1.737689,1.985403 -0.476423,0.727115 -1.056092,1.198874 -5.722416,4.657153 -2.816277,2.087183 -3.951797,3.532136 -3.951797,5.028675 0,1.498222 0.627791,1.779605 3.332638,1.493724 4.407035,-0.465785 5.19426,-0.364691 8.541004,1.096814 6.365091,2.779609 9.902442,3.64648 14.170306,3.472616 2.182644,-0.08892 2.909738,-0.248109 4.59931,-1.006986 1.672189,-0.751065 2.673805,-0.97373 6.006666,-1.335315 5.191523,-0.563232 5.548243,-0.664784 6.311897,-1.796848 0.882918,-1.308864 1.927503,-4.813296 2.658042,-8.917345 0.363923,-2.044474 0.760905,-3.516792 0.966721,-3.585374 0.276961,-0.09229 0.349225,3.594758 0.349225,17.818314 v 17.934681 l -1.03468,-0.194107 C 91.126861,90.25216 89.73845,89.376802 89.293222,88.311219 89.069042,87.774682 88.676496,86.053428 88.4209,84.486205 l -0.464723,-2.849492 -1.748979,-1.655376 c -1.440457,-1.363362 -1.904429,-2.041006 -2.630196,-3.841472 -0.680215,-1.687452 -1.006388,-2.186097 -1.429967,-2.186097 -0.301811,0 -1.63918,0.471453 -2.97193,1.047674 -2.40652,1.040472 -2.448153,1.047482 -6.055119,1.01958 -4.084022,-0.03159 -6.551178,-0.57792 -14.482648,-3.207054 l -4.158476,-1.378457 -2.553082,0.308712 c -2.738802,0.331171 -4.285868,0.829562 -4.527193,1.458446 -0.08266,0.215405 0.502258,2.138326 1.299812,4.273156 1.143509,3.060846 1.475091,4.324523 1.568301,5.976857 0.167334,2.966373 -0.279645,3.733844 -2.989347,5.132743 -1.152442,0.594953 -3.291201,1.883593 -4.752798,2.863643 -3.121396,2.092999 -4.019566,2.24789 -5.751873,0.991924 z M 25.202057,65.239642 c 0.0023,-0.567153 -0.113375,-1.103901 -0.257172,-1.192773 -0.322672,-0.199422 -0.712,2.198068 -0.430824,2.653018 0.31803,0.514584 0.683017,-0.260088 0.687996,-1.460245 z"
       id="path9221"
       inkscape:connector-curvature="0"
       transform="matrix(0.26458333,0,0,0.26458333,0,87)" />
    <path
       style="opacity:1;fill:#ffffff;fill-opacity:1;fill-rule:nonzero;stroke:none;stroke-width:2.51338601;stroke-linecap:butt;stroke-linejoin:miter;stroke-miterlimit:4;stroke-dasharray:none;stroke-dashoffset:0;stroke-opacity:1;paint-order:stroke fill markers"
       d="M 36.77267,92.433182 C 32.917601,89.61051 27.130426,81.283896 22.044093,71.241642 19.076313,65.382176 18.688099,64.115404 18.85118,60.82292 c 0.158424,-3.198457 1.131433,-5.962262 3.272296,-9.29486 1.998738,-3.111357 3.493946,-4.595068 8.478957,-8.413765 5.593549,-4.284857 6.449521,-4.848468 8.116245,-5.344104 2.127444,-0.63264 7.037512,-1.045219 10.827115,-0.90977 l 3.458834,0.123626 6.425736,2.384249 c 10.44248,3.874649 25.442013,8.646845 28.491913,9.06488 1.114955,0.152821 1.155973,0.127119 2.473487,-1.549866 1.21997,-1.552826 2.895718,-3.102558 3.354843,-3.102558 0.100741,0 0.183164,1.899264 0.183164,4.220587 0,3.717256 -0.05222,4.200551 -0.437836,4.052575 -0.240811,-0.09241 -1.021351,0.09781 -1.734535,0.422699 -1.688801,0.769338 -3.054334,0.641721 -8.87721,-0.829625 C 76.403335,50.009381 70.39421,48.07282 62.034431,44.927735 51.316449,40.895458 51.281138,40.886343 47.038764,41.057066 c -3.964139,0.159525 -7.00851,0.946945 -9.260337,2.395164 -2.176225,1.399597 -2.604737,2.053722 -2.829384,4.319069 -0.151906,1.531825 -0.635277,3.090059 -2.012278,6.486943 -0.99679,2.458953 -2.028419,5.287674 -2.292508,6.286046 -0.906615,3.427404 -0.354859,13.701933 0.960157,17.879561 0.81917,2.602389 2.372026,5.068548 4.777114,7.58674 2.127907,2.227976 2.928654,2.619887 3.628927,1.776113 0.532746,-0.64192 0.145153,-1.586551 -1.567385,-3.819988 -0.864796,-1.12784 -1.920259,-2.804943 -2.345473,-3.726896 -2.011482,-4.36132 -3.82754,-16.165848 -3.09463,-20.115347 0.559366,-3.014306 3.3048,-7.976003 5.460736,-9.86894 1.04895,-0.92099 2.034124,-1.129209 2.611406,-0.551927 0.746982,0.746982 0.338933,2.193451 -1.760093,6.239257 l -2.095349,4.038718 V 62.3436 c 0,3.834118 1.040593,10.852189 2.119997,14.297906 0.540333,1.724872 2.387344,4.150931 4.328156,5.685053 1.494584,1.181399 2.212622,1.410407 2.212622,0.705682 0,-0.231245 -0.658847,-2.148489 -1.464104,-4.260542 l -1.464103,-3.840098 0.02322,-6.006666 c 0.03077,-7.957527 0.932824,-14.257269 2.226772,-15.551217 0.585275,-0.585275 0.907221,-0.652812 3.11193,-0.652812 1.352514,0 2.898309,0.138438 3.435101,0.307641 0.536792,0.169203 1.84344,0.516697 2.903664,0.772208 3.546391,0.854672 3.260843,1.553697 -2.368683,5.798559 -3.887637,2.931417 -5.286282,4.521342 -5.286282,6.009243 0,1.437255 0.660267,1.741595 3.198519,1.474318 4.491732,-0.472979 5.281496,-0.366532 8.954503,1.206896 8.560689,3.667195 13.90263,4.347267 18.482863,2.353012 1.590987,-0.692722 2.789543,-0.960511 5.866976,-1.310831 5.148322,-0.58606 5.800258,-0.775178 6.478511,-1.879318 0.865535,-1.409024 1.665512,-4.073793 2.513021,-8.37101 0.428636,-2.173352 0.928304,-4.001206 1.110376,-4.061896 0.252842,-0.08428 0.33104,4.126196 0.33104,17.824336 V 90.778745 L 92.89909,90.584638 C 91.117658,90.250441 89.738703,89.37744 89.287854,88.298408 89.060729,87.754825 88.651393,86.058319 88.378221,84.528396 L 87.88154,81.74672 86.147385,79.997011 c -1.297884,-1.309523 -1.929755,-2.232582 -2.511661,-3.66912 -0.427627,-1.055678 -0.964227,-2.037196 -1.192446,-2.181152 -0.29055,-0.183273 -1.205837,0.06265 -3.053155,0.820321 -2.58644,1.060828 -2.706744,1.081893 -6.130459,1.073475 -4.008115,-0.0099 -6.330395,-0.513427 -14.305677,-3.102105 l -4.667074,-1.514873 -2.855326,0.426935 c -1.570427,0.234816 -3.149015,0.619368 -3.507968,0.854564 -0.759726,0.49779 -0.715847,0.855251 0.479086,3.902824 1.993928,5.085336 2.421452,7.992093 1.458466,9.916137 -0.376017,0.75128 -1.036008,1.271466 -2.866649,2.259409 -1.307994,0.705883 -3.435625,1.995355 -4.72807,2.865489 -2.804975,1.888443 -3.793101,2.029502 -5.493782,0.784267 z M 25.202057,65.223153 c 0.0023,-0.576221 -0.111454,-1.047675 -0.252904,-1.047675 -0.364499,0 -0.659339,1.547957 -0.431544,2.265676 0.272189,0.857589 0.678928,0.133781 0.684448,-1.218001 z"
       id="path9223"
       inkscape:connector-curvature="0"
       transform="matrix(0.26458333,0,0,0.26458333,0,87)" />
    <path
       style="opacity:1;fill:#ffffff;fill-opacity:1;fill-rule:nonzero;stroke:none;stroke-width:2.51338601;stroke-linecap:butt;stroke-linejoin:miter;stroke-miterlimit:4;stroke-dasharray:none;stroke-dashoffset:0;stroke-opacity:1;paint-order:stroke fill markers"
       d="M 36.77267,92.43818 C 32.905565,89.624437 27.237028,81.486332 22.145277,71.438177 19.29369,65.810803 18.779584,64.263176 18.784337,61.320648 c 0.0029,-1.825274 0.174867,-2.805356 0.814392,-4.642726 0.983234,-2.824853 2.999937,-6.238584 4.97974,-8.429347 1.511137,-1.672157 10.200079,-8.545284 12.266702,-9.703205 2.052804,-1.150179 4.747314,-1.547609 10.711549,-1.579915 l 5.447907,-0.02951 8.102015,2.974649 c 4.456108,1.636057 9.924968,3.561416 12.153022,4.278575 5.592359,1.800051 14.425765,4.341038 15.091041,4.341038 0.302454,0 0.894717,-0.408592 1.316136,-0.907984 1.310635,-1.553126 3.682464,-3.841472 3.981615,-3.841472 0.181874,0 0.285314,1.56744 0.285314,4.323402 v 4.323403 L 93.128933,52.26659 c -0.523935,-0.104788 -1.064189,0.009 -1.547938,0.325933 -1.044539,0.684409 -3.433927,0.425853 -8.822418,-0.954674 -6.566593,-1.682355 -11.86478,-3.39628 -21.232866,-6.868676 -4.686596,-1.737146 -9.198711,-3.315555 -10.026919,-3.507576 -1.896489,-0.439704 -7.062446,-0.213978 -9.389978,0.410292 -2.288058,0.613684 -4.325041,1.640088 -5.723083,2.883774 -1.112174,0.989379 -1.181889,1.145071 -1.404412,3.136406 -0.172857,1.546886 -0.712718,3.305566 -2.062487,6.718867 -2.698377,6.823668 -2.787928,7.281116 -2.595179,13.25679 0.327146,10.142281 1.508604,13.613972 6.324892,18.585575 1.907864,1.969387 2.700158,2.330762 3.36191,1.533401 0.52535,-0.633011 0.172248,-1.496252 -1.546965,-3.781923 -0.864073,-1.148776 -1.878519,-2.68945 -2.254325,-3.423721 C 34.806433,77.840314 33.246467,70.221 32.871793,64.280394 c -0.221497,-3.511926 0.14185,-5.40802 1.584718,-8.2697 2.48142,-4.921468 5.30937,-7.616318 6.618598,-6.30709 0.734429,0.734429 0.330783,2.178004 -1.760093,6.294682 -2.056866,4.049718 -2.095349,4.164126 -2.095349,6.229525 0,4.134638 1.311672,12.43767 2.361932,14.951295 0.932522,2.231836 4.758367,6.27358 5.938466,6.27358 0.550149,0 0.343628,-0.840263 -1.210379,-4.924615 -1.2256,-3.221207 -1.266645,-3.431463 -1.419945,-7.273849 -0.22326,-5.595896 0.68258,-14.524636 1.7272,-17.024762 0.526661,-1.260477 1.162033,-1.509602 3.829397,-1.501481 2.692806,0.0082 7.971201,1.278832 8.447194,2.033438 0.447248,0.709036 -0.48036,1.726469 -4.028858,4.418984 -4.903685,3.7208 -6.19813,5.312847 -5.755059,7.078189 0.228161,0.909063 1.46621,1.135064 4.034778,0.736537 3.240169,-0.502727 3.745173,-0.413448 8.562463,1.513744 6.377172,2.551238 8.21113,3.004772 12.295598,3.040692 3.182181,0.02798 3.463877,-0.01676 5.543013,-0.880166 1.68753,-0.700794 3.034585,-1.01002 5.866976,-1.346804 4.570724,-0.54348 5.511144,-0.782565 6.274583,-1.595208 0.868193,-0.924147 1.653147,-3.349242 2.681141,-8.283299 0.494151,-2.371778 1.048566,-4.362359 1.232029,-4.423514 0.256203,-0.0854 0.333574,4.048722 0.333574,17.823492 v 17.934681 l -1.047674,-0.18895 c -1.550751,-0.279682 -2.941233,-1.078666 -3.4791,-1.999127 -0.26167,-0.447804 -0.692686,-2.132775 -0.957815,-3.74438 L 87.967133,81.916097 86.224547,80.100128 C 84.996748,78.820624 84.189706,77.64206 83.492665,76.110609 82.351946,73.604368 82.502428,73.63524 78.98695,75.186278 77.123816,76.008297 76.859461,76.048685 73.399353,76.039926 69.1949,76.029282 66.993512,75.560443 59.135402,73.002059 l -4.765038,-1.551366 -2.64863,0.397603 c -3.528273,0.529648 -4.165014,0.78827 -4.165014,1.691692 0,0.39466 0.458415,1.937854 1.0187,3.429317 1.397223,3.719373 1.768083,5.223526 1.770737,7.18183 0.0031,2.314603 -0.588181,3.185913 -3.034573,4.471454 -1.078395,0.566681 -3.181791,1.835392 -4.674215,2.819359 -3.195845,2.107046 -4.121851,2.264346 -5.864699,0.996232 z M 25.202057,65.239642 c 0.0023,-0.413494 -0.107658,-0.820989 -0.244468,-0.90554 -0.306909,-0.189682 -0.688359,1.690262 -0.428332,2.110994 0.269618,0.436251 0.667515,-0.276662 0.6728,-1.205454 z"
       id="path9225"
       inkscape:connector-curvature="0"
       transform="matrix(0.26458333,0,0,0.26458333,0,87)" />
    <path
       style="opacity:1;fill:#ffffff;fill-opacity:1;fill-rule:nonzero;stroke:none;stroke-width:2.51338601;stroke-linecap:butt;stroke-linejoin:miter;stroke-miterlimit:4;stroke-dasharray:none;stroke-dashoffset:0;stroke-opacity:1;paint-order:stroke fill markers"
       d="M 36.77267,92.440996 C 35.272284,91.353181 32.369424,88.163297 30.451376,85.494681 26.987831,80.675787 21.122234,70.104493 19.456595,65.679296 c -1.927779,-5.121637 0.250992,-12.236991 5.452673,-17.807149 1.404213,-1.503685 10.109927,-8.30783 11.934178,-9.327423 1.907036,-1.065863 4.561707,-1.491829 10.294205,-1.651798 l 5.308216,-0.148129 7.263875,2.650869 c 9.195991,3.355973 15.285161,5.386489 21.883693,7.297416 7.765608,2.248909 6.695315,2.306949 9.387369,-0.50906 1.263615,-1.321799 2.444964,-2.40327 2.625223,-2.40327 0.236657,0 0.327743,1.204962 0.327743,4.33571 v 4.335709 l -0.66836,-0.167747 c -0.391853,-0.09835 -1.05051,0.02987 -1.592077,0.309925 -1.291009,0.667608 -3.569728,0.425349 -8.914756,-0.94776 C 76.585951,50.060875 70.998291,48.279839 63.62106,45.546612 50.739734,40.774145 52.108647,41.154381 47.8361,41.162108 c -5.019964,0.0091 -8.175746,0.884702 -11.101595,3.08032 -1.201674,0.901761 -1.489053,1.504499 -1.764946,3.701724 -0.148414,1.181974 -0.894548,3.53769 -2.069007,6.53233 -1.010286,2.576032 -2.021437,5.466405 -2.247002,6.423051 -1.000834,4.244642 -0.102948,15.234407 1.562032,19.118647 1.090085,2.543066 4.559125,6.867751 6.231318,7.768287 0.822711,0.44306 1.032529,0.463575 1.423408,0.139173 0.685628,-0.569021 0.330026,-1.503507 -1.567733,-4.119852 -2.112632,-2.912576 -2.841347,-4.514739 -3.718703,-8.175983 -1.578852,-6.588612 -2.180204,-13.324897 -1.444649,-16.18281 1.049889,-4.079228 5.154599,-10.078647 6.895654,-10.078647 2.000583,0 1.836984,1.519657 -0.719861,6.686768 -1.886016,3.811438 -2.095349,4.397714 -2.095349,5.868438 0,3.678929 1.058557,10.966225 2.104653,14.488813 0.494681,1.665772 2.600474,4.440379 4.545871,5.989674 1.308321,1.041933 2.010251,1.308269 2.010251,0.762755 0,-0.158342 -0.660035,-2.075585 -1.466744,-4.260542 l -1.466745,-3.972653 0.01972,-6.006666 c 0.02782,-8.473859 0.996276,-14.773885 2.424896,-15.774529 1.036435,-0.725948 4.859544,-0.555022 8.296874,0.370942 1.61745,0.435717 3.041371,0.980525 3.193641,1.221921 0.398862,0.63233 -0.369734,1.663323 -2.405538,3.226785 -6.177591,4.744276 -7.102483,5.672279 -7.384344,7.409191 -0.133516,0.822762 -0.05034,1.04716 0.528841,1.42665 0.609299,0.399228 1.064638,0.413024 4.013257,0.121597 l 3.325984,-0.328726 4.688191,1.857775 c 6.438859,2.551511 8.511801,3.061097 12.493667,3.071295 2.978561,0.0076 3.371927,-0.05667 5.393911,-0.881673 1.688655,-0.689001 3.168262,-1.01666 6.553968,-1.451381 2.627408,-0.337353 4.638909,-0.735757 5.039277,-0.99809 1.037251,-0.679633 1.966119,-3.079385 2.988395,-7.720599 0.516425,-2.344617 0.979156,-4.503963 1.028291,-4.798548 0.04913,-0.294585 0.246486,-0.587933 0.438559,-0.651886 0.276961,-0.09222 0.349225,3.595989 0.349225,17.823867 v 17.940143 l -1.005376,-0.16315 c -1.474959,-0.239353 -2.97933,-1.108179 -3.519363,-2.032555 -0.260555,-0.445991 -0.718763,-2.177075 -1.018244,-3.846859 l -0.544511,-3.035967 -1.693226,-1.71349 c -1.095066,-1.108165 -1.953002,-2.305665 -2.428568,-3.389768 -1.192108,-2.717527 -1.250012,-2.749854 -3.439928,-1.9203 -4.03971,1.530263 -4.182556,1.55614 -7.723338,1.399028 -3.790346,-0.168187 -6.134264,-0.705711 -13.5152,-3.099404 l -4.718144,-1.530132 -2.645162,0.397079 c -3.254971,0.488625 -4.125988,0.851477 -4.125988,1.718837 0,0.355877 0.458267,1.870373 1.018373,3.365546 1.392142,3.716255 1.768405,5.248572 1.771064,7.212601 0.0032,2.326988 -0.564157,3.140433 -3.198546,4.586271 -1.179101,0.647128 -3.280401,1.922916 -4.669557,2.835085 -2.997833,1.968482 -3.981665,2.118247 -5.705384,0.868505 z M 25.202057,65.223153 c 0.0023,-0.422562 -0.106786,-0.768295 -0.242532,-0.768295 -0.308397,0 -0.585681,1.365919 -0.383984,1.891533 0.220493,0.574597 0.621061,-0.143551 0.626516,-1.123238 z"
       id="path9227"
       inkscape:connector-curvature="0"
       transform="matrix(0.26458333,0,0,0.26458333,0,87)" />
  </g>
</svg>
