<?xml version="1.0" encoding="UTF-8" standalone="no"?>
<!-- Created with Inkscape (http://www.inkscape.org/) -->

<svg
   xmlns:dc="http://purl.org/dc/elements/1.1/"
   xmlns:cc="http://creativecommons.org/ns#"
   xmlns:rdf="http://www.w3.org/1999/02/22-rdf-syntax-ns#"
   xmlns:svg="http://www.w3.org/2000/svg"
   xmlns="http://www.w3.org/2000/svg"
   xmlns:sodipodi="http://sodipodi.sourceforge.net/DTD/sodipodi-0.dtd"
   xmlns:inkscape="http://www.inkscape.org/namespaces/inkscape"
   width="297mm"
   height="210mm"
   viewBox="0 0 297 210"
   version="1.1"
   id="svg1549"
   sodipodi:docname="O.svg"
   inkscape:version="0.92.2 (5c3e80d, 2017-08-06)">
  <defs
     id="defs1543">
    <inkscape:path-effect
       effect="spiro"
       id="path-effect9802"
       is_visible="true" />
    <inkscape:path-effect
       effect="spiro"
       id="path-effect4973"
       is_visible="true" />
  </defs>
  <sodipodi:namedview
     id="base"
     pagecolor="#ffffff"
     bordercolor="#666666"
     borderopacity="1.0"
     inkscape:pageopacity="0.0"
     inkscape:pageshadow="2"
     inkscape:zoom="5.1130208"
     inkscape:cx="51.901072"
     inkscape:cy="737.02515"
     inkscape:document-units="mm"
     inkscape:current-layer="layer1"
     showgrid="false"
     inkscape:window-width="1366"
     inkscape:window-height="705"
     inkscape:window-x="-8"
     inkscape:window-y="-8"
     inkscape:window-maximized="1" />
  <metadata
     id="metadata1546">
    <rdf:RDF>
      <cc:Work
         rdf:about="">
        <dc:format>image/svg+xml</dc:format>
        <dc:type
           rdf:resource="http://purl.org/dc/dcmitype/StillImage" />
        <dc:title />
      </cc:Work>
    </rdf:RDF>
  </metadata>
  <g
     inkscape:label="Capa 1"
     inkscape:groupmode="layer"
     id="layer1"
     transform="translate(0,-87)">
    <path
       style="opacity:1;fill:#006680;fill-opacity:1;fill-rule:nonzero;stroke:none;stroke-width:0.66500002;stroke-linecap:butt;stroke-linejoin:miter;stroke-miterlimit:4;stroke-dasharray:none;stroke-dashoffset:0;stroke-opacity:1;paint-order:stroke fill markers"
       d="m 19.069465,110.4309 c -0.348839,-0.11116 -0.918474,-0.39839 -1.297045,-0.65403 -0.702971,-0.47469 -1.058403,-0.97471 -1.643356,-2.31183 -0.87685,-2.00434 -1.202822,-2.37921 -2.85749,-3.28607 -2.016885,-1.10537 -2.76399,-1.73341 -2.664251,-2.23966 0.07909,-0.40145 0.382915,-0.38479 1.467057,0.0805 1.922053,0.82487 2.43095,0.97518 3.326657,0.98262 0.621478,0.005 0.658654,-0.001 1.020099,-0.17032 0.44989,-0.21065 0.802074,-0.56818 1.081999,-1.09837 0.240207,-0.45496 0.24854,-0.66635 0.03524,-0.89368 -0.13435,-0.14318 -0.20728,-0.17291 -0.476245,-0.19414 -0.307253,-0.0242 -0.323667,-0.0189 -0.503875,0.16856 -0.102446,0.10651 -0.203249,0.1775 -0.223986,0.15774 -0.02075,-0.0198 -0.03715,-0.19391 -0.03648,-0.38705 0.0013,-0.41894 0.141369,-0.753568 0.3722,-0.890282 0.592847,-0.351122 0.563883,-0.669944 -0.142132,-1.564606 -0.17221,-0.218222 -0.465327,-0.548276 -0.651373,-0.733451 -0.452901,-0.450785 -0.563378,-0.452828 -1.339306,-0.02481 -0.310959,0.17153 -0.869031,0.46172 -1.24016,0.644859 -1.044648,0.5155 -1.366338,0.792653 -1.883054,1.622356 -0.08198,0.131637 -0.217379,0.281966 -0.300888,0.334069 -0.146223,0.09123 -0.15469,0.09101 -0.229072,-0.006 -0.137106,-0.178542 -0.08445,-0.689803 0.201598,-1.957463 0.321843,-1.426271 0.339302,-1.456181 1.037596,-1.777314 0.642004,-0.295246 3.968438,-1.326596 4.143644,-1.284722 0.228842,0.05469 0.613772,0.425555 1.082628,1.04307 0.698462,0.919925 1.233413,1.537667 1.925402,2.223383 0.793564,0.786371 0.998709,1.07363 1.221472,1.71039 0.09483,0.271081 0.420453,1.680481 0.727105,3.147181 0.627288,3.00028 0.914542,4.26133 1.24297,5.4567 0.124939,0.45475 0.240415,0.88165 0.25661,0.9487 0.0656,0.27156 -0.270762,0.45535 -1.394898,0.7622 -0.663333,0.18106 -0.90885,0.22275 -1.418391,0.24086 -0.42179,0.0149 -0.686898,-5.6e-4 -0.840275,-0.0496 z"
       id="path4977"
       inkscape:connector-curvature="0" />
    <path
       style="opacity:1;fill:#006680;fill-opacity:1;fill-rule:nonzero;stroke:none;stroke-width:0.66500002;stroke-linecap:butt;stroke-linejoin:miter;stroke-miterlimit:4;stroke-dasharray:none;stroke-dashoffset:0;stroke-opacity:1;paint-order:stroke fill markers"
       d="m 14.559994,101.80997 c -0.479522,-0.14808 -0.821165,-0.30324 -1.438083,-0.65307 -0.62251,-0.35301 -0.941841,-0.62706 -1.001974,-0.85993 -0.03808,-0.14743 -0.03503,-0.14968 0.156119,-0.11554 0.173205,0.0309 0.209914,0.0161 0.329146,-0.13377 0.360441,-0.452839 0.636482,-0.565444 1.27883,-0.521682 0.911939,0.06213 1.220562,0.511672 1.170243,1.704572 -0.02819,0.66833 -0.06536,0.71189 -0.494281,0.57942 z"
       id="path4979"
       inkscape:connector-curvature="0" />
    <path
       style="opacity:1;fill:#006680;fill-opacity:1;fill-rule:nonzero;stroke:none;stroke-width:0.66500002;stroke-linecap:butt;stroke-linejoin:miter;stroke-miterlimit:4;stroke-dasharray:none;stroke-dashoffset:0;stroke-opacity:1;paint-order:stroke fill markers"
       d="m 19.266636,111.77045 c -1.49368,-0.0265 -2.720357,-0.0524 -2.725947,-0.0581 -0.0057,-0.005 -0.04257,-0.15966 -0.08219,-0.34266 -0.114258,-0.52781 0.0212,-0.72901 0.42577,-0.63232 0.0705,0.0169 0.293843,0.17359 0.496342,0.34834 0.247846,0.21389 0.437528,0.33171 0.580371,0.36053 0.336842,0.068 2.035612,0.0328 2.989814,-0.062 1.084594,-0.10764 1.803383,-0.24539 2.213726,-0.42428 0.173757,-0.0756 0.347991,-0.13772 0.387185,-0.13772 0.09807,0 0.139268,0.12401 0.139268,0.41922 0,0.47222 0.170244,0.55744 0.847562,0.42423 0.329845,-0.0648 0.608914,-0.0118 0.608914,0.11554 0,0.0639 -1.844637,0.0606 -5.880813,-0.0109 z"
       id="path4981"
       inkscape:connector-curvature="0" />
    <path
       style="opacity:1;fill:#006680;fill-opacity:1;fill-rule:nonzero;stroke:none;stroke-width:0.66500002;stroke-linecap:butt;stroke-linejoin:miter;stroke-miterlimit:4;stroke-dasharray:none;stroke-dashoffset:0;stroke-opacity:1;paint-order:stroke fill markers"
       d="m 4.6447562,111.42592 c -0.6423641,-0.0287 -1.4440951,-0.12039 -1.5842679,-0.18121 -0.1263027,-0.0547 -0.1386751,-0.0961 -0.1719173,-0.57408 -0.04655,-0.66934 -0.046166,-6.7455 8.61e-4,-12.654655 L 2.926565,93.34425 4.4858645,93.210799 c 0.8576172,-0.0734 1.5691063,-0.143476 1.5810853,-0.155729 0.011997,-0.01224 0.050695,-0.462596 0.086028,-1.000772 0.094225,-1.435147 0.2634017,-2.147708 0.5263702,-2.217051 0.3705448,-0.0977 4.658745,-0.148014 10.093423,-0.11841 5.78189,0.0315 7.100887,0.06376 8.141161,0.199132 l 0.522676,0.06801 -0.03649,7.070974 c -0.03693,7.156597 -0.104221,12.201657 -0.163479,12.258087 -0.01782,0.017 -0.07762,-0.008 -0.132852,-0.0556 -0.155713,-0.13418 -0.491153,-0.25056 -0.724731,-0.25142 -0.27778,-0.001 -0.462511,-0.0948 -0.587152,-0.29802 -0.05572,-0.0909 -0.202638,-0.60688 -0.326457,-1.14672 -0.349268,-1.52275 -0.590597,-2.18173 -0.798979,-2.18173 -0.01949,0 -0.08655,0.0522 -0.149047,0.11614 -0.0625,0.0638 -0.129111,0.10147 -0.148042,0.0833 -0.01891,-0.0181 -0.0035,-0.29171 0.03426,-0.60818 0.132995,-1.11437 -0.13932,-3.42583 -0.614807,-5.218598 -0.227675,-0.85842 -0.414423,-1.161777 -1.18237,-1.92063 -0.764192,-0.755151 -1.246,-1.2872 -1.553802,-1.715825 -0.351358,-0.489281 -0.517552,-0.615195 -0.824999,-0.62505 -0.201867,-0.0066 -0.28707,-0.03755 -0.369834,-0.134868 -0.136559,-0.160585 -0.09818,-0.197143 0.117594,-0.112034 0.201486,0.07948 0.343042,0.0044 0.298383,-0.158183 -0.07199,-0.262127 -1.20113,-1.253797 -1.707947,-1.500002 l -0.224488,-0.109058 -1.063379,0.413101 c -1.213801,0.471537 -1.634202,0.688473 -1.659391,0.856284 -0.02141,0.142674 -0.149799,0.176395 -0.683074,0.179412 -1.233382,0.0069 -1.67601,0.175646 -2.552856,0.972825 -1.7393907,1.581354 -2.28672,2.839578 -2.2796656,5.240606 0.00451,1.53291 0.1800247,2.23073 0.6349739,2.52453 0.1826018,0.11791 0.2231712,0.12231 0.8092185,0.0877 l 0.6169762,-0.0363 0.265486,0.2089 c 0.334309,0.26306 0.884152,0.57313 2.057719,1.16037 1.566581,0.78391 1.67722,0.90268 2.315034,2.48515 0.172032,0.42683 0.379922,0.99892 0.461978,1.27133 0.199434,0.66204 0.173897,1.1758 -0.09973,2.00663 l -0.193253,0.58676 -4.9812295,0.003 c -2.7396772,0.002 -5.1450825,-0.004 -5.3453489,-0.013 z"
       id="path4983"
       inkscape:connector-curvature="0" />
    <path
       style="opacity:1;fill:#0b2228;fill-opacity:1;fill-rule:nonzero;stroke:none;stroke-width:0.66500002;stroke-linecap:butt;stroke-linejoin:miter;stroke-miterlimit:4;stroke-dasharray:none;stroke-dashoffset:0;stroke-opacity:1;paint-order:stroke fill markers"
       d="M 2.4880527,92.422599 C 1.9047518,92.396644 1.7741558,92.373207 1.5007552,92.245354 0.91824061,91.972953 0.47509249,91.394107 0.29691602,90.67289 0.17379333,90.174504 0.2167049,89.116527 0.37978789,88.629818 0.61428374,87.929971 1.0090019,87.544429 1.7037966,87.336584 c 0.3225538,-0.09649 0.5263042,-0.117369 1.148375,-0.117683 1.0134569,-5.47e-4 1.2168658,0.05796 1.6563949,0.47623 0.5624022,0.535191 0.8066185,1.142474 0.8077435,2.008593 0.00115,0.899163 -0.2570363,1.595407 -0.8029249,2.165081 -0.3134906,0.327148 -0.8679803,0.609757 -1.1650579,0.593801 -0.103432,-0.0057 -0.4905535,-0.02356 -0.8602746,-0.04 z m 0.6185178,-1.223683 c 0.9824847,-0.424958 1.0013086,-2.251663 0.028556,-2.772255 -0.4008539,-0.21453 -0.9340489,-0.113749 -1.2080637,0.228343 -0.2871475,0.358484 -0.3963481,1.272458 -0.2197071,1.838861 0.1062904,0.340816 0.3670722,0.623647 0.6686497,0.725189 0.3000334,0.101025 0.4606804,0.09659 0.7305539,-0.02014 z"
       id="path4999"
       inkscape:connector-curvature="0" />
    <path
       style="opacity:1;fill:#164450;fill-opacity:1;fill-rule:nonzero;stroke:none;stroke-width:0.66500002;stroke-linecap:butt;stroke-linejoin:miter;stroke-miterlimit:4;stroke-dasharray:none;stroke-dashoffset:0;stroke-opacity:1;paint-order:stroke fill markers"
       d="M 2.4040242,92.423269 C 1.830082,92.395887 1.7275884,92.37554 1.4643703,92.236743 0.91012446,91.944495 0.48412984,91.391432 0.30287111,90.72878 c -0.0500772,-0.183081 -0.0831702,-0.541445 -0.0825877,-0.894375 0.003102,-1.872653 0.77714726,-2.640473 2.66361269,-2.642154 0.5026387,-5.46e-4 1.0405777,0.07947 1.2555667,0.186519 0.239989,0.119504 0.6551265,0.555196 0.8347208,0.876053 0.2535465,0.452976 0.3502314,0.859987 0.3493789,1.470769 -0.00172,1.173114 -0.524255,2.134742 -1.4023806,2.580418 -0.3549953,0.180171 -0.2953698,0.175561 -1.5171577,0.117259 z M 3.185571,91.14391 C 3.9549923,90.775627 4.0767748,89.322376 3.3954803,88.639055 3.0588867,88.301462 2.6751431,88.229182 2.2528652,88.423837 1.8175749,88.62449 1.5676819,89.268441 1.6379261,90.008476 c 0.04985,0.525185 0.1323037,0.740533 0.370321,0.967176 0.3360712,0.320017 0.7397405,0.377707 1.1773239,0.168258 z"
       id="path5001"
       inkscape:connector-curvature="0" />
    <path
       style="opacity:1;fill:#164450;fill-opacity:1;fill-rule:nonzero;stroke:none;stroke-width:0.66500002;stroke-linecap:butt;stroke-linejoin:miter;stroke-miterlimit:4;stroke-dasharray:none;stroke-dashoffset:0;stroke-opacity:1;paint-order:stroke fill markers"
       d="m 2.8459899,92.449039 c -0.013661,-0.01301 -0.2456398,-0.0283 -0.5154875,-0.03396 -0.402662,-0.0085 -0.5480238,-0.03617 -0.8107511,-0.154606 C 0.90622134,91.983898 0.42050361,91.345413 0.27319318,90.621851 0.17235002,90.126528 0.22987472,89.014327 0.37910185,88.574203 0.58647692,87.96258 0.959751,87.589417 1.6116547,87.34203 c 0.2821911,-0.107088 0.4156657,-0.12019 1.2405168,-0.121752 0.9005167,-0.0016 0.9325134,0.0022 1.2434125,0.147466 0.5192299,0.242793 0.9903369,0.881066 1.1694346,1.584396 0.1020973,0.400933 0.087027,1.228434 -0.030115,1.653602 -0.3018043,1.095413 -1.1315142,1.866969 -2.0076796,1.866969 -0.19601,0 -0.3675657,-0.01065 -0.3812352,-0.02366 z m 0.2750508,-1.278448 c 0.6024347,-0.299693 0.8850048,-1.23041 0.6063465,-1.99717 -0.2106555,-0.579648 -0.785054,-0.951945 -1.2597597,-0.816515 -0.4498121,0.128327 -0.6778105,0.423211 -0.7924038,1.024863 -0.1952497,1.02512 0.2651151,1.864072 1.0228875,1.864072 0.149414,0 0.3397305,-0.03386 0.4229295,-0.07525 z"
       id="path5003"
       inkscape:connector-curvature="0" />
    <path
       style="opacity:1;fill:#216778;fill-opacity:1;fill-rule:nonzero;stroke:none;stroke-width:0.66500002;stroke-linecap:butt;stroke-linejoin:miter;stroke-miterlimit:4;stroke-dasharray:none;stroke-dashoffset:0;stroke-opacity:1;paint-order:stroke fill markers"
       d="M 2.291988,92.422805 C 1.8847196,92.398078 1.6949142,92.359447 1.4832974,92.258236 0.90531445,91.981796 0.43619353,91.359715 0.27417754,90.654873 0.16944576,90.199241 0.22901945,89.01535 0.37887785,88.574198 0.58672076,87.962341 0.95988003,87.589365 1.6116546,87.342025 c 0.2821911,-0.107088 0.4156657,-0.12019 1.2405168,-0.121753 0.90285,-0.0016 0.9317873,0.0016 1.2468679,0.149075 0.8492771,0.397112 1.3730299,1.570164 1.2240578,2.74152 -0.076369,0.600459 -0.2250682,0.999306 -0.5424733,1.455025 -0.2669778,0.383315 -0.4733512,0.55788 -0.9068191,0.767038 -0.3122652,0.15068 -0.4508338,0.158553 -1.581817,0.08987 z m 0.7666061,-1.23358 c 0.4568691,-0.164015 0.757006,-0.714552 0.7592675,-1.3927 0.00378,-1.138275 -0.9899493,-1.845216 -1.7442434,-1.24084 -0.2528204,0.20257 -0.409986,0.652653 -0.4178411,1.196579 -0.00787,0.545009 0.084409,0.880818 0.3153676,1.147624 0.2737965,0.316291 0.697986,0.429156 1.0874494,0.289337 z"
       id="path5007"
       inkscape:connector-curvature="0" />
    <path
       style="opacity:1;fill:#ffffff;fill-opacity:1;fill-rule:nonzero;stroke:none;stroke-width:2.51338577;stroke-linecap:butt;stroke-linejoin:miter;stroke-miterlimit:4;stroke-dasharray:none;stroke-dashoffset:0;stroke-opacity:1;paint-order:stroke fill markers"
       d="m 89.813943,92.750202 c -0.05222,-0.188245 -0.153177,-0.853779 -0.224345,-1.478963 -0.07117,-0.625184 -0.236824,-1.177922 -0.368121,-1.228305 -0.131298,-0.05039 -0.840213,0.134793 -1.575366,0.411504 -2.630249,0.990021 -6.369907,1.555738 -12.432011,1.880648 -4.420936,0.236948 -7.105746,0.160863 -7.835098,-0.222041 -0.262357,-0.137735 -1.164513,-0.765808 -2.004789,-1.395715 -1.519841,-1.139341 -2.134331,-1.3449 -2.859775,-0.956656 -0.447341,0.23941 -0.621811,1.09539 -0.412463,2.023616 l 0.162712,0.721438 h -2.8153 c -1.548416,0 -2.815301,-0.03023 -2.815301,-0.06717 0,-0.03695 0.180782,-0.587011 0.401739,-1.22237 1.131214,-3.252801 1.407522,-5.765382 0.879973,-8.001915 -0.403022,-1.708597 -2.471553,-7.021434 -3.536794,-9.083935 -1.319204,-2.554226 -2.109907,-3.186496 -7.485549,-5.985679 -4.733068,-2.464586 -6.530609,-3.497682 -7.729206,-4.442186 l -0.747824,-0.589292 -2.229639,0.133301 c -1.763146,0.105411 -2.343239,0.0742 -2.7726,-0.149154 -1.99907,-1.039943 -2.664322,-3.519564 -2.656853,-9.902998 0.01015,-8.678134 1.718303,-12.869157 7.543437,-18.508173 2.468616,-2.389741 4.202595,-3.637294 5.689272,-4.093284 0.553898,-0.16989 2.371252,-0.393902 4.038564,-0.497804 l 3.031476,-0.188913 0.565352,-0.688042 c 0.710344,-0.864496 1.460528,-1.24232 6.162815,-3.103844 2.493507,-0.98712 3.9459,-1.464039 4.236457,-1.391114 1.608818,0.403788 7.023939,5.120768 6.898063,6.008735 -0.06716,0.473779 -0.279045,0.522487 -1.232194,0.283261 -0.364608,-0.09151 -0.495218,-0.04712 -0.495218,0.168295 0,0.413551 0.731357,0.826751 1.755941,0.992066 1.233715,0.199057 1.50643,0.42513 3.484592,2.888627 0.96742,1.204771 3.172291,3.666042 4.899718,5.46949 3.616238,3.775386 4.152079,4.652223 5.107614,8.35796 1.724892,6.689445 2.622741,15.206062 2.097938,19.900174 -0.169442,1.515573 -0.03227,1.739734 0.673684,1.10086 0.919529,-0.832162 1.547991,0.540439 3.20616,7.002455 0.681636,2.656383 1.329761,4.998747 1.440281,5.205256 0.336429,0.628626 1.116925,1.008171 2.46611,1.19924 0.707216,0.100154 1.568572,0.347155 1.914127,0.548891 l 0.628278,0.366792 0.05257,4.438606 0.05257,4.438603 h -2.533021 c -2.245842,0 -2.543784,-0.0388 -2.627969,-0.342264 z M 77.671814,88.583665 c 3.435415,-0.609995 7.66831,-2.135344 8.165009,-2.942307 0.138609,-0.22519 -0.142212,-1.59094 -1.005357,-4.889478 C 83.556809,75.880721 82.461354,71.085252 80.390453,61.310862 77.35595,46.988389 77.369005,47.021857 73.073912,42.553338 c -2.98035,-3.10069 -4.708516,-5.095435 -7.685328,-8.870828 -2.052035,-2.60253 -3.246212,-3.651085 -4.127425,-3.624116 -1.533808,0.04694 -14.231528,4.106222 -16.259471,5.197924 -1.86177,1.002244 -2.092482,1.498566 -3.332906,7.169933 -0.84952,3.884105 -1.046978,5.998755 -0.612842,6.563128 0.27959,0.363464 0.339427,0.370039 0.845154,0.09288 0.299344,-0.16405 0.810373,-0.669219 1.135621,-1.122596 2.741671,-3.821735 3.097895,-4.103254 9.179413,-7.254337 5.969385,-3.092982 5.871709,-3.074369 7.588309,-1.446011 1.535149,1.456235 3.582943,3.987554 4.181622,5.168991 0.78216,1.54352 0.670459,2.027162 -0.782358,3.387401 -0.906968,0.849173 -1.312218,1.389961 -1.465751,1.955984 -0.269278,0.992721 -0.277148,2.774024 -0.01299,2.937287 0.110772,0.06846 0.52078,-0.155937 0.911127,-0.498668 0.662929,-0.582057 0.786965,-0.617556 1.881248,-0.538404 1.017512,0.0736 1.244837,0.166792 1.729189,0.708877 0.737488,0.825393 0.710435,1.433513 -0.139333,3.132095 -0.961114,1.921158 -2.349759,3.387346 -3.958681,4.179737 -1.082755,0.533254 -1.569978,0.651846 -2.913266,0.709101 -3.449131,0.147015 -5.620892,-0.408564 -12.257669,-3.135754 -4.853143,-1.994258 -6.107379,-2.279228 -6.646139,-1.510041 -0.721984,1.030776 -0.328864,2.095327 1.369551,3.708678 1.503133,1.427851 2.707155,2.226299 7.508712,4.979409 6.834782,3.918916 7.798411,4.870268 10.396492,10.264018 3.909679,8.116699 4.442656,8.979285 6.643548,10.752112 1.224421,0.986276 3.743239,2.386585 5.302163,2.947678 1.181515,0.425254 4.223073,0.512648 6.119901,0.175845 z M 56.506568,56.032014 c 0.60556,-0.605558 0.654457,-4.131063 0.08372,-6.036023 -0.307264,-1.025558 -1.403493,-2.122209 -2.428322,-2.429255 -0.440172,-0.131879 -1.519696,-0.23978 -2.398942,-0.23978 -1.89289,0 -2.615342,0.303379 -3.922833,1.647316 -0.793683,0.815806 -0.933853,0.885852 -1.543721,0.771441 -0.658056,-0.123452 -0.668303,-0.115128 -0.540399,0.43902 0.07171,0.310671 0.552233,0.960905 1.067836,1.444964 1.267956,1.190384 4.989137,3.264234 7.265175,4.048954 2.164339,0.746209 2.04246,0.728394 2.41749,0.353363 z"
       id="path9804"
       inkscape:connector-curvature="0"
       transform="matrix(0.26458333,0,0,0.26458333,0,87)" />
    <path
       style="opacity:1;fill:#ffffff;fill-opacity:1;fill-rule:nonzero;stroke:none;stroke-width:2.51338577;stroke-linecap:butt;stroke-linejoin:miter;stroke-miterlimit:4;stroke-dasharray:none;stroke-dashoffset:0;stroke-opacity:1;paint-order:stroke fill markers"
       d="m 89.809064,92.750202 c -0.05491,-0.188245 -0.159951,-0.782316 -0.23343,-1.320159 -0.204141,-1.494214 -0.257934,-1.515554 -2.181309,-0.865412 -3.435097,1.161136 -8.461847,1.767926 -15.016121,1.812627 l -4.49832,0.03068 -0.880106,-0.543915 c -0.484058,-0.299152 -1.435814,-0.937229 -2.115016,-1.417949 -1.975943,-1.398516 -2.85583,-1.104398 -2.741434,0.916372 l 0.06476,1.143993 -2.807927,-3.91e-4 c -2.593795,-3.91e-4 -2.797907,-0.02646 -2.676556,-0.342619 0.07225,-0.188245 0.403949,-1.22237 0.7371,-2.298055 0.527068,-1.701804 0.606209,-2.247874 0.609405,-4.20495 0.0036,-2.180662 -0.02326,-2.323615 -0.88066,-4.693899 -1.316376,-3.639118 -2.646824,-6.691928 -3.474511,-7.972524 -1.120727,-1.73398 -2.104038,-2.406896 -7.889303,-5.398931 -3.544282,-1.83304 -5.489705,-2.969356 -6.653063,-3.88604 l -0.739498,-0.582696 -2.291978,0.135581 c -2.198589,0.130056 -2.31968,0.116786 -2.971851,-0.32567 -0.863468,-0.585811 -1.494078,-1.520982 -1.862726,-2.762356 -0.429165,-1.445116 -0.739733,-5.964519 -0.593871,-8.641983 0.422116,-7.748422 2.142679,-11.574246 7.566516,-16.824823 2.492996,-2.413359 4.224652,-3.659896 5.710875,-4.110986 0.924915,-0.280726 4.460172,-0.659964 6.255517,-0.67105 0.613082,-0.0038 0.863181,-0.133156 1.369054,-0.708185 0.786351,-0.893846 1.678906,-1.342645 6.251381,-3.143347 2.441832,-0.961627 3.864977,-1.424084 4.156922,-1.35081 0.841632,0.211236 3.436061,2.114031 5.20029,3.813975 1.421226,1.369438 1.755623,1.797762 1.701693,2.179679 -0.07055,0.499592 -0.429963,0.583331 -1.289489,0.30043 -0.271966,-0.08951 -0.440053,-0.0651 -0.440053,0.06392 0,0.454445 0.772016,0.939315 1.689342,1.061003 1.267828,0.168183 1.564696,0.399564 3.2848,2.560206 0.799156,1.003828 2.955429,3.422438 4.791719,5.374687 1.836289,1.95225 3.603402,4.008181 3.926918,4.568736 2.143631,3.714266 4.321932,17.198338 3.750688,23.217418 -0.207284,2.184106 -0.09604,2.638067 0.511694,2.088075 0.522771,-0.4731 0.776021,-0.409134 1.218495,0.307769 0.479863,0.777482 1.073633,2.704211 2.215019,7.187532 1.3478,5.294103 1.45835,5.473887 3.550236,5.773735 0.536427,0.07689 1.39337,0.316273 1.904321,0.531962 l 0.929,0.392161 v 4.474234 4.474236 h -2.529348 c -2.240487,0 -2.54075,-0.03909 -2.629177,-0.342264 z M 78.366122,88.39393 c 3.554761,-0.724415 7.014716,-1.996276 7.402674,-2.721186 C 85.90482,85.418585 85.536188,83.647865 84.418043,79.184398 83.572236,75.808063 82.072375,69.261152 81.085015,64.635707 77.918394,49.801142 77.459194,48.085338 76.109264,46.043764 75.749293,45.49936 74.113817,43.651138 72.474874,41.936602 70.835931,40.222067 68.298195,37.323086 66.835459,35.494421 63.853984,31.767079 62.523851,30.373734 61.765338,30.18336 c -0.737214,-0.185029 -2.140378,0.146485 -7.131025,1.684791 -5.425973,1.67249 -9.034092,2.989468 -10.17837,3.715148 -1.148307,0.728234 -1.553011,1.609094 -2.39355,5.209679 -0.990931,4.244819 -1.374186,6.784103 -1.156522,7.662626 0.353631,1.427307 1.123939,0.954141 3.211153,-1.97247 0.591626,-0.829554 1.559743,-1.902241 2.15137,-2.383745 0.591627,-0.481506 3.27595,-2.019453 5.965162,-3.417662 3.858596,-2.006208 5.054419,-2.543047 5.671794,-2.54623 0.735106,-0.0038 0.895402,0.112463 2.656221,1.92636 2.342934,2.413563 3.71425,4.421829 3.851627,5.640631 0.09891,0.877568 0.08856,0.89614 -1.164549,2.08911 -1.339155,1.274884 -1.728721,2.129537 -1.722091,3.778021 0.0049,1.211555 0.21117,1.331684 1.087678,0.633367 0.7042,-0.56104 0.862242,-0.604547 1.920982,-0.528834 0.998597,0.07141 1.228604,0.166385 1.711317,0.706635 0.725921,0.812447 0.707781,1.391596 -0.09611,3.068219 -0.84663,1.765773 -2.325068,3.370781 -3.883147,4.215592 l -1.232662,0.668369 -2.835897,-0.01976 C 54.732136,60.289057 53.929468,60.075113 47.236772,57.391404 42.067938,55.318749 41.06593,55.071949 40.4244,55.713478 c -1.196109,1.196109 0.189355,3.271636 3.785158,5.670443 1.078575,0.719531 3.571889,2.229595 5.540696,3.355697 4.159969,2.379384 6.249264,3.951762 7.4461,5.603842 0.967423,1.335406 1.322326,2.002442 4.195293,7.884994 1.240042,2.539053 2.412052,4.652837 2.958308,5.335474 1.4586,1.82276 4.427473,3.808553 7.109072,4.755052 1.704006,0.601445 4.191105,0.628433 6.907095,0.07495 z M 56.515651,55.883542 c 0.422774,-0.660336 0.579814,-2.821952 0.324542,-4.467228 -0.442552,-2.852312 -1.582917,-3.876421 -4.501789,-4.042849 -2.177147,-0.124134 -2.851569,0.101658 -4.294878,1.437907 -1.012594,0.937485 -1.211518,1.043708 -1.752077,0.935598 -0.731534,-0.146307 -0.789705,0.118423 -0.228328,1.0391 0.764681,1.254104 5.314972,3.970682 8.424979,5.029815 1.783208,0.607281 1.684177,0.603978 2.027551,0.06766 z"
       id="path9806"
       inkscape:connector-curvature="0"
       transform="matrix(0.26458333,0,0,0.26458333,0,87)" />
    <path
       style="opacity:1;fill:#ffffff;fill-opacity:1;fill-rule:nonzero;stroke:none;stroke-width:2.51338577;stroke-linecap:butt;stroke-linejoin:miter;stroke-miterlimit:4;stroke-dasharray:none;stroke-dashoffset:0;stroke-opacity:1;paint-order:stroke fill markers"
       d="m 89.821205,92.945781 c -0.04643,-0.08068 -0.144644,-0.586737 -0.218262,-1.12458 C 89.338,89.885536 89.357106,89.894556 87.129786,90.653813 83.914085,91.749995 78.66958,92.353922 72.084835,92.3863 l -4.40053,0.02164 -1.887391,-1.321147 c -2.163478,-1.514406 -2.833656,-1.741931 -3.373573,-1.145327 -0.289553,0.31995 -0.344446,0.618265 -0.272784,1.48241 l 0.08972,1.081853 h -2.803095 c -1.541701,0 -2.803092,-0.05691 -2.803092,-0.126455 0,-0.06955 0.268307,-0.964055 0.596237,-1.987784 0.782807,-2.443765 1.031799,-4.469602 0.773337,-6.291995 -0.287468,-2.026915 -2.934997,-8.945819 -4.17084,-10.899842 -1.160022,-1.834143 -2.011048,-2.434729 -7.574033,-5.345163 -4.16418,-2.178609 -6.963047,-3.838772 -7.439366,-4.412701 -0.208536,-0.251272 -0.624808,-0.279224 -2.609211,-0.175207 -2.141985,0.112274 -2.417972,0.0878 -2.974067,-0.263698 -1.560271,-0.986225 -2.129261,-2.539508 -2.458831,-6.712353 -0.171275,-2.168592 -0.171643,-3.600932 -0.0015,-5.867373 0.517408,-6.892592 2.319002,-10.66896 7.502463,-15.726116 3.849938,-3.756125 5.002665,-4.314231 9.549318,-4.623409 l 3.036916,-0.206513 0.679166,-0.690965 c 0.801845,-0.815778 2.817645,-1.791433 7.006965,-3.391401 2.04519,-0.781091 3.208463,-1.128261 3.519182,-1.050276 0.64176,0.161071 1.661423,0.827936 3.374494,2.206936 2.121392,1.707691 3.551789,3.276741 3.47566,3.812565 -0.05492,0.386521 -0.159254,0.430457 -0.892279,0.375736 -0.666719,-0.04977 -0.808299,-0.0052 -0.719369,0.226567 0.12545,0.326919 0.832015,0.632324 1.849566,0.799454 0.966589,0.15876 1.381236,0.497354 2.847068,2.324876 0.70608,0.880301 2.751112,3.170736 4.544517,5.089856 4.606291,4.929184 4.980399,5.548047 6.107627,10.103439 1.372118,5.545045 2.035773,10.984361 2.010117,16.4749 l -0.01895,4.055628 0.579067,-0.339625 c 0.564838,-0.331279 0.588024,-0.328616 0.943659,0.108447 0.570984,0.701718 1.107371,2.326333 2.35861,7.143793 0.638204,2.457181 1.239551,4.615553 1.336325,4.796377 0.372735,0.696461 1.023534,1.0599 2.350785,1.312798 0.757642,0.144363 1.686535,0.409108 2.064204,0.588325 l 0.686674,0.325847 v 4.476035 4.476035 h -2.530985 c -1.392042,0 -2.568972,-0.06601 -2.615399,-0.146685 z m -12.148446,-4.45732 c 2.362881,-0.412052 4.986692,-1.180531 6.684664,-1.957846 1.294114,-0.592435 1.417949,-0.699624 1.417949,-1.227367 0,-0.318033 -0.568116,-2.854064 -1.262481,-5.635625 -1.367956,-5.479917 -2.030414,-8.406559 -4.310074,-19.041288 -1.878074,-8.761318 -2.521291,-11.273332 -3.350546,-13.085217 -0.782768,-1.71031 -1.140907,-2.162139 -4.665467,-5.885955 -1.476284,-1.559744 -3.895374,-4.332077 -5.375756,-6.160742 -3.231099,-3.991264 -4.63363,-5.378425 -5.438018,-5.378425 -1.32887,0 -13.394052,3.773956 -15.928681,4.982447 -2.098797,1.000691 -2.511253,1.777132 -3.591951,6.761791 -1.112079,5.129401 -1.234971,6.676113 -0.574025,7.224648 0.426091,0.353625 0.928188,-0.09359 2.576844,-2.295193 0.829424,-1.107606 1.953728,-2.356834 2.498453,-2.776065 1.002882,-0.771835 4.243404,-2.561516 8.517423,-4.704017 3.322652,-1.665594 3.341487,-1.663166 5.674861,0.73168 2.396661,2.459801 3.724133,4.391527 3.86271,5.620982 0.101725,0.902488 0.08743,0.930665 -1.07554,2.120874 -1.452208,1.486217 -1.598969,1.767974 -1.747087,3.354136 -0.100801,1.079462 -0.06922,1.284423 0.214715,1.393378 0.218147,0.08371 0.526749,-0.05797 0.895263,-0.411033 0.517772,-0.496057 0.658724,-0.531809 1.777609,-0.450874 1.076397,0.07786 1.281479,0.162029 1.794941,0.736694 0.70499,0.78902 0.669136,1.510492 -0.159125,3.202024 -0.857754,1.751757 -2.407456,3.322839 -4.105356,4.161984 l -1.450876,0.717064 -2.595194,-0.112282 c -1.427356,-0.06176 -3.167261,-0.26066 -3.866456,-0.442013 -0.699196,-0.181351 -3.481889,-1.19836 -6.183765,-2.260018 -2.701876,-1.06166 -5.375497,-2.037162 -5.94138,-2.167783 -1.009824,-0.233095 -1.03747,-0.227508 -1.492715,0.301747 -0.609893,0.709043 -0.585098,1.227531 0.111209,2.325492 1.029269,1.62299 2.6505,2.751814 11.031245,7.680794 4.775371,2.808549 5.88855,4.160903 9.123722,11.084016 3.173447,6.791026 4.518797,8.379919 9.01568,10.64776 2.519681,1.270709 4.613244,1.520395 7.917205,0.944232 z M 56.844791,54.457321 c 0.20804,-1.469026 -0.01398,-3.738432 -0.473299,-4.83772 -0.625499,-1.497029 -2.299545,-2.297917 -4.783194,-2.28835 -1.407669,0.0054 -2.477907,0.48223 -3.747047,1.66936 -0.788657,0.737697 -1.069494,0.890352 -1.458394,0.792745 -1.178769,-0.295853 -0.581581,1.044009 0.996918,2.236701 2.74061,2.070766 8.43228,4.612651 9.017666,4.027265 0.141451,-0.141451 0.342758,-0.861452 0.44735,-1.600001 z"
       id="path9808"
       inkscape:connector-curvature="0"
       transform="matrix(0.26458333,0,0,0.26458333,0,87)" />
    <path
       style="opacity:1;fill:#ffffff;fill-opacity:1;fill-rule:nonzero;stroke:none;stroke-width:2.51338577;stroke-linecap:butt;stroke-linejoin:miter;stroke-miterlimit:4;stroke-dasharray:none;stroke-dashoffset:0;stroke-opacity:1;paint-order:stroke fill markers"
       d="m 89.824133,92.968871 c -0.06798,-0.06797 -0.180805,-0.62927 -0.250729,-1.247317 -0.182119,-1.609714 -0.27037,-1.704683 -1.293771,-1.392269 -2.401453,0.733093 -4.473694,1.212461 -6.406903,1.482098 -2.861373,0.399093 -9.137749,0.746905 -11.975283,0.663626 l -2.285178,-0.06707 -1.137456,-0.829524 c -2.613309,-1.905834 -3.37648,-2.212089 -3.988152,-1.600417 -0.366151,0.366151 -0.410735,0.573531 -0.317505,1.476847 l 0.108461,1.050883 h -2.821765 c -1.551971,0 -2.820211,-0.06601 -2.818312,-0.146684 0.002,-0.08068 0.275989,-0.982785 0.609086,-2.004686 0.489192,-1.500786 0.624746,-2.299235 0.705069,-4.153018 0.0912,-2.10492 0.05536,-2.437018 -0.43269,-4.009372 C 56.161092,77.817186 54.151593,73.431237 52.859552,72.022201 51.798291,70.864844 50.923315,70.316611 46.072815,67.76984 43.86766,66.612018 41.241236,65.125145 40.236317,64.46568 L 38.40919,63.266653 h -2.544894 -2.544893 l -0.82783,-0.912697 c -1.083906,-1.195028 -1.433717,-2.43107 -1.720939,-6.080875 -0.172698,-2.194517 -0.172494,-3.600971 8.53e-4,-5.867373 0.526251,-6.880404 2.356169,-10.709562 7.515389,-15.726179 2.387339,-2.321351 4.10535,-3.567628 5.598023,-4.060908 1.001612,-0.331 3.975135,-0.689456 5.763753,-0.694815 1.038771,-0.0031 1.189379,-0.06167 1.845064,-0.717354 0.394109,-0.39411 1.508331,-1.086149 2.487115,-1.544738 2.205187,-1.033198 7.385329,-3.022186 7.868444,-3.021202 1.292799,0.0026 7.212022,5.118113 7.071031,6.110889 -0.05597,0.394106 -0.15463,0.433216 -0.940757,0.372924 -0.871897,-0.06687 -0.875635,-0.06449 -0.518429,0.330221 0.197891,0.218667 0.797877,0.491526 1.333302,0.606354 0.535425,0.114828 1.138137,0.296889 1.339361,0.404581 0.201221,0.107691 1.198688,1.1853 2.216592,2.394688 1.017901,1.209386 2.970371,3.387028 4.33882,4.839203 4.315639,4.57968 4.811287,5.379988 5.851471,9.448164 1.443772,5.646625 2.138729,11.127885 2.130151,16.800927 l -0.0064,4.246443 0.571001,-0.334861 c 0.554727,-0.325318 0.58139,-0.322091 0.935594,0.113211 0.553227,0.679893 1.076018,2.233147 2.242627,6.663032 1.33315,5.062271 1.487123,5.499907 2.094594,5.953451 0.271984,0.203064 1.077746,0.491465 1.790581,0.640887 0.712835,0.149423 1.60493,0.40073 1.982431,0.558461 l 0.686365,0.286781 v 4.508298 4.5083 h -2.509931 c -1.380464,0 -2.56555,-0.05562 -2.633525,-0.123595 z M 79.43308,88.115719 c 2.415719,-0.585454 5.194659,-1.580921 5.848046,-2.094875 0.271835,-0.213827 0.494246,-0.545691 0.494246,-0.73748 0,-0.191787 -0.442263,-2.134578 -0.982807,-4.317309 C 83.394799,75.321818 82.511642,71.44288 80.495589,62.093178 77.705583,49.154162 77.181491,47.403158 75.461273,45.273376 75.026859,44.735533 73.510939,43.063332 72.092562,41.557373 70.674185,40.051414 68.213341,37.235075 66.62402,35.298842 c -3.064738,-3.7337 -4.207505,-4.90296 -4.981799,-5.097295 -0.776578,-0.194909 -7.793422,1.80488 -13.222457,3.768379 -4.808558,1.739093 -5.127529,2.03716 -6.034239,5.638775 -1.301786,5.170935 -1.752563,8.816332 -1.163088,9.405808 0.260049,0.260048 0.360677,0.235733 0.898992,-0.21723 0.333391,-0.280529 0.937542,-0.968144 1.342556,-1.52803 1.275538,-1.763286 2.204077,-2.799907 3.055993,-3.411707 1.011695,-0.726544 3.943298,-2.335154 7.776353,-4.266988 3.949734,-1.99064 3.86496,-1.996754 6.249623,0.450733 2.381445,2.444184 3.724317,4.393145 3.860706,5.603194 0.09956,0.883267 0.08175,0.917354 -1.175468,2.250069 -1.055574,1.118965 -1.313867,1.527194 -1.492092,2.358231 -0.244907,1.141963 -0.266718,1.602708 -0.09682,2.045446 0.163236,0.42539 0.341033,0.390967 1.046454,-0.202604 0.545198,-0.458756 0.732737,-0.502981 1.804289,-0.425471 1.044119,0.07552 1.266606,0.165691 1.753514,0.710635 0.732895,0.820253 0.716195,1.519207 -0.07469,3.12572 -0.869828,1.766871 -2.379736,3.342396 -4.038597,4.214101 -1.291501,0.678666 -1.437882,0.710148 -3.301878,0.710148 -3.606148,0 -4.899082,-0.355062 -13.345293,-3.664847 -3.379629,-1.324364 -4.216822,-1.521492 -4.810277,-1.132646 -1.481954,0.971013 -0.191425,3.159876 3.245645,5.504924 0.806763,0.55044 3.095039,1.95002 5.085056,3.110177 5.694939,3.320085 6.891177,4.227847 8.396962,6.372006 0.515529,0.734087 2.128562,3.736334 3.584515,6.671659 2.910088,5.866982 3.808005,7.130206 6.244228,8.784613 1.583293,1.075195 4.216496,2.311818 5.366216,2.520121 1.471459,0.266596 4.682175,0.04062 6.834658,-0.481044 z M 56.655799,55.541279 c 0.210911,-0.764593 0.186166,-4.110074 -0.03758,-5.081136 -0.478265,-2.075647 -1.962046,-3.016436 -4.775817,-3.0281 -2.010629,-0.0083 -2.394074,0.142186 -3.968724,1.557932 -0.779609,0.700936 -1.13435,0.894061 -1.552379,0.845137 -0.448924,-0.05254 -0.530718,0.0037 -0.476944,0.327741 0.156363,0.942347 2.368783,2.632018 5.509099,4.207409 3.598791,1.805395 5.039585,2.123592 5.302349,1.171017 z"
       id="path9810"
       inkscape:connector-curvature="0"
       transform="matrix(0.26458333,0,0,0.26458333,0,87)" />
    <path
       style="opacity:1;fill:#ffffff;fill-opacity:1;fill-rule:nonzero;stroke:none;stroke-width:2.51338577;stroke-linecap:butt;stroke-linejoin:miter;stroke-miterlimit:4;stroke-dasharray:none;stroke-dashoffset:0;stroke-opacity:1;paint-order:stroke fill markers"
       d="m 89.787622,92.901545 c -0.0649,-0.105004 -0.170353,-0.633001 -0.234345,-1.173326 -0.193261,-1.631785 -0.310593,-1.693245 -2.133275,-1.11746 -3.627863,1.14604 -7.707952,1.651769 -14.74843,1.828075 l -4.791688,0.119994 -2.048562,-1.395603 c -1.499937,-1.021848 -2.218291,-1.395604 -2.68233,-1.395604 -0.832001,0 -1.122524,0.53451 -0.973669,1.791364 l 0.112127,0.946743 h -2.849493 c -2.620875,0 -2.841604,-0.02746 -2.75116,-0.342263 0.05408,-0.188245 0.33611,-1.134359 0.626731,-2.102475 0.766523,-2.553448 0.885019,-5.33983 0.315379,-7.415932 -0.52902,-1.928052 -2.369697,-6.617794 -3.287908,-8.377047 -1.381576,-2.64704 -2.264418,-3.331708 -8.613826,-6.680235 -3.928395,-2.071744 -5.201221,-2.811941 -6.451738,-3.751935 l -0.832217,-0.625564 -2.41842,0.104444 -2.418419,0.104443 -0.905189,-0.834374 c -0.716449,-0.660398 -0.986263,-1.09686 -1.294016,-2.09325 -1.119263,-3.623752 -0.950558,-12.032947 0.321001,-16.00048 1.076046,-3.357493 2.613792,-5.784676 5.608955,-8.853195 4.606482,-4.719302 5.890067,-5.369144 11.170182,-5.655147 2.320727,-0.125704 2.341182,-0.131043 2.990761,-0.780623 0.359729,-0.359729 1.244445,-0.948313 1.966032,-1.307964 1.734812,-0.864658 7.326745,-3.059674 8.124502,-3.189133 0.523167,-0.0849 0.8871,0.07029 2.157529,0.920003 0.840513,0.56217 2.364708,1.83057 3.3871,2.818666 1.498441,1.44818 1.845865,1.888788 1.791717,2.272277 -0.0593,0.419977 -0.153136,0.469014 -0.800595,0.418377 -0.404598,-0.03164 -0.733422,0.03187 -0.733422,0.141662 0,0.265854 0.911608,0.713884 1.766952,0.868408 0.968615,0.174988 1.360503,0.495736 2.970573,2.431323 0.778225,0.935563 2.38493,2.742999 3.570457,4.016525 5.311488,5.705757 5.735808,6.32637 6.64822,9.723773 1.532288,5.705543 2.332553,11.724521 2.33311,17.547879 3.91e-4,3.68125 0.03538,4.147344 0.303287,4.036078 0.826579,-0.343291 0.975214,-0.306545 1.368433,0.338308 0.537434,0.881356 1.161969,2.840722 2.359795,7.40344 0.550667,2.097586 1.153539,4.077824 1.339715,4.40053 0.222876,0.386319 0.602564,0.667358 1.111568,0.822764 0.425187,0.129813 1.433147,0.43785 2.239911,0.684526 l 1.466843,0.448501 0.0525,4.547214 0.0525,4.547214 h -2.534589 c -1.437522,0 -2.585663,-0.08264 -2.652587,-0.190921 z M 78.049997,88.377454 c 2.963648,-0.501339 7.159297,-2.014394 7.597315,-2.739777 0.135081,-0.223702 -0.02242,-1.195947 -0.53863,-3.324845 C 83.242748,74.61751 82.343686,70.702565 80.712294,63.168863 77.928109,50.311607 77.478881,48.602805 76.359369,46.610945 76.047344,46.055786 74.7159,44.44097 73.400601,43.022466 c -2.996182,-3.23128 -5.109662,-5.650244 -7.912172,-9.055798 -1.20773,-1.467611 -2.56926,-2.938863 -3.025618,-3.269448 -0.716952,-0.519357 -0.936887,-0.583538 -1.617919,-0.472137 -2.340788,0.382897 -12.952969,3.780214 -15.303054,4.899024 -2.262514,1.077121 -2.667124,1.89253 -3.872814,7.804885 -0.759539,3.724556 -0.888175,5.895475 -0.361314,6.09765 0.495015,0.189955 0.829695,-0.115289 2.557301,-2.332388 0.883294,-1.133563 2.027431,-2.367907 2.542528,-2.742989 1.158889,-0.843877 3.516324,-2.160259 7.572044,-4.228201 4.268353,-2.176359 4.131489,-2.18499 6.663875,0.420225 2.363188,2.43115 3.626073,4.284587 3.766141,5.527263 0.09608,0.852463 0.06321,0.920202 -0.974772,2.008416 -0.590815,0.619408 -1.207114,1.387672 -1.36955,1.707253 -0.558248,1.098295 -0.658676,3.221371 -0.152382,3.221371 0.09207,0 0.428881,-0.220026 0.748475,-0.488948 0.471236,-0.396519 0.792029,-0.488947 1.696987,-0.488947 1.008295,0 1.180029,0.06412 1.780873,0.664969 0.846907,0.846906 0.861221,1.508218 0.06859,3.169021 -0.833668,1.746791 -2.406795,3.380528 -4.12401,4.2829 l -1.400847,0.736125 -2.757863,-0.10434 c -3.303167,-0.124971 -4.296707,-0.387919 -9.994288,-2.64507 -5.80875,-2.301194 -6.754348,-2.55885 -7.406042,-2.017993 -0.84605,0.70216 -0.45248,1.983892 1.079629,3.516 1.18297,1.18297 2.931542,2.350917 8.225711,5.494309 4.694644,2.787429 6.228322,3.979503 7.560593,5.876587 0.52913,0.753455 2.110449,3.6797 3.514042,6.502768 2.734059,5.499051 3.592137,6.785594 5.60995,8.411179 1.48026,1.192524 4.754342,2.821537 6.156873,3.063342 1.167598,0.201299 3.515488,0.113103 5.378425,-0.20204 z M 56.577413,55.541279 c 0.30429,-0.603614 0.329531,-3.531989 0.042,-4.872701 -0.425678,-1.984864 -1.448228,-2.860008 -3.707574,-3.173105 -2.137611,-0.296228 -3.260262,0.0117 -4.79771,1.315962 -0.793238,0.672925 -1.427339,1.05805 -1.742058,1.05805 -1.924273,0 1.661531,2.982323 5.960985,4.957768 3.052028,1.402296 3.831299,1.533393 4.244356,0.714026 z"
       id="path9812"
       inkscape:connector-curvature="0"
       transform="matrix(0.26458333,0,0,0.26458333,0,87)" />
    <path
       style="opacity:1;fill:#ffffff;fill-opacity:1;fill-rule:nonzero;stroke:none;stroke-width:2.51338577;stroke-linecap:butt;stroke-linejoin:miter;stroke-miterlimit:4;stroke-dasharray:none;stroke-dashoffset:0;stroke-opacity:1;paint-order:stroke fill markers"
       d="m 89.787622,92.901545 c -0.0649,-0.105004 -0.171163,-0.639843 -0.236146,-1.18853 -0.166823,-1.408561 -0.417033,-1.606338 -1.579387,-1.248423 -4.473739,1.377568 -10.074297,2.041136 -17.227309,2.041136 h -3.009155 l -1.492503,-1.045583 c -2.505902,-1.755528 -3.20692,-2.003747 -3.848109,-1.362559 -0.262893,0.262892 -0.30514,0.541181 -0.20784,1.369054 l 0.122124,1.039088 h -2.837605 c -1.560684,0 -2.837594,-0.06601 -2.837579,-0.146684 1.4e-5,-0.08068 0.217105,-0.850223 0.482426,-1.710106 1.131736,-3.667887 1.1458,-6.210417 0.05193,-9.389008 -1.494903,-4.343935 -3.072624,-7.77971 -4.150985,-9.039533 -0.837802,-0.978783 -2.85973,-2.281205 -6.455726,-4.15845 -3.200085,-1.670562 -6.107515,-3.336647 -7.295359,-4.18056 l -0.841249,-0.597672 -2.483595,0.05443 -2.483596,0.05443 -0.833449,-0.829072 c -0.610355,-0.60715 -0.935075,-1.158102 -1.213112,-2.058282 -1.11212,-3.600623 -0.983224,-11.722188 0.251625,-15.854585 1.123888,-3.761065 3.40077,-7.063532 7.46673,-10.829996 3.253928,-3.014246 4.635526,-3.594394 9.136222,-3.836394 2.317435,-0.124607 2.351192,-0.133289 3.155038,-0.811371 0.446896,-0.376979 1.692645,-1.099869 2.76833,-1.606422 2.318682,-1.091895 7.142819,-2.926678 7.695023,-2.926678 0.66091,0 3.363094,1.958456 5.279918,3.826714 1.462045,1.425004 1.813605,1.874968 1.760212,2.252915 -0.05916,0.418751 -0.152096,0.465489 -0.820091,0.412422 -1.218268,-0.09678 -0.776504,0.387432 0.857554,0.939955 1.428292,0.482947 1.470127,0.516854 3.409035,2.762955 1.079648,1.250704 3.239015,3.653574 4.798592,5.339711 4.039841,4.367672 4.373366,4.932628 5.463633,9.254736 1.306005,5.177355 1.978248,10.2983 2.073231,15.793255 0.03905,2.258939 0.0755,4.259292 0.08101,4.445231 0.0087,0.293398 0.07777,0.307198 0.522796,0.104432 0.4618,-0.21041 0.555103,-0.180565 0.938436,0.30018 0.509092,0.638462 1.153785,2.589468 2.354307,7.12472 0.490504,1.852995 1.047028,3.78709 1.236723,4.29799 0.379971,1.023379 0.530072,1.109686 3.563232,2.048857 l 1.466843,0.454184 0.0525,4.547214 0.0525,4.547214 h -2.534589 c -1.437522,0 -2.585663,-0.08264 -2.652587,-0.190921 z M 78.370655,88.285018 c 2.020127,-0.381911 5.476283,-1.493432 6.524611,-2.098355 0.729506,-0.420948 0.778055,-0.503457 0.719193,-1.222234 -0.03472,-0.423947 -0.710656,-3.455136 -1.502087,-6.735975 C 83.32094,74.947615 81.74344,67.994778 80.606815,62.777705 77.1114,46.733869 77.330047,47.303018 72.755253,42.339689 c -1.685515,-1.828664 -4.3509,-4.86503 -5.92308,-6.747478 -3.256161,-3.898767 -4.31693,-5.015138 -5.018965,-5.282052 -0.679674,-0.258412 -4.53435,0.746771 -10.516292,2.742332 -5.953166,1.985962 -7.035073,2.493358 -7.762583,3.640522 -1.241637,1.957859 -3.055071,11.202695 -2.387343,12.17061 0.356625,0.516951 1.016849,-0.0078 2.684775,-2.13374 2.046397,-2.608384 2.843566,-3.198935 7.912844,-5.861911 6.469015,-3.398282 6.237303,-3.361794 8.352492,-1.315285 2.692845,2.605409 4.360149,5.037185 4.360149,6.359309 0,0.552773 -0.203809,0.898289 -1.102362,1.868835 -0.606299,0.654875 -1.227887,1.491107 -1.381307,1.858293 -0.300789,0.719887 -0.441977,2.648943 -0.210867,2.881046 0.07775,0.07808 0.445922,-0.09033 0.818162,-0.374252 0.547441,-0.417556 0.888631,-0.516221 1.785093,-0.516221 0.999638,0 1.173485,0.06519 1.773261,0.664969 0.858902,0.858901 0.868618,1.600345 0.04278,3.26427 -0.804745,1.621421 -2.790599,3.610454 -4.356168,4.363142 -1.154263,0.55494 -1.188882,0.558948 -3.911582,0.452641 -3.358218,-0.131118 -3.970852,-0.296612 -10.409644,-2.81198 -3.94714,-1.541983 -5.054474,-1.898971 -5.924745,-1.910047 -0.979345,-0.01246 -1.092387,0.03195 -1.33004,0.52257 -0.225679,0.465899 -0.210913,0.64538 0.112627,1.369054 0.426083,0.953033 1.946994,2.449735 3.656779,3.598569 0.645411,0.433663 3.138732,1.966888 5.540713,3.407166 2.401981,1.440276 4.866278,3.019475 5.476215,3.509328 1.763509,1.416316 2.99376,3.250146 5.313188,7.919915 3.405327,6.856043 4.416336,8.359603 6.633507,9.865255 1.223003,0.830524 3.480216,2.019706 4.643184,2.446197 1.042267,0.382227 4.709,0.379113 6.744614,-0.0057 z M 56.352231,55.849992 c 0.341808,-0.250313 0.379467,-0.528075 0.377857,-2.787002 -0.0016,-2.228086 -0.05273,-2.612831 -0.45684,-3.436614 -0.758011,-1.545229 -2.021695,-2.150971 -4.512635,-2.163111 -1.703705,-0.0083 -2.305985,0.233672 -3.86099,1.551222 -0.625387,0.529889 -1.20174,0.854998 -1.515738,0.854998 -2.434849,0 3.837845,4.468585 8.255494,5.881106 1.374246,0.43941 1.257794,0.432653 1.712852,0.0994 z"
       id="path9814"
       inkscape:connector-curvature="0"
       transform="matrix(0.26458333,0,0,0.26458333,0,87)" />
  </g>
</svg>
