<?xml version="1.0" encoding="UTF-8" standalone="no"?>
<!-- Created with Inkscape (http://www.inkscape.org/) -->

<svg
   xmlns:dc="http://purl.org/dc/elements/1.1/"
   xmlns:cc="http://creativecommons.org/ns#"
   xmlns:rdf="http://www.w3.org/1999/02/22-rdf-syntax-ns#"
   xmlns:svg="http://www.w3.org/2000/svg"
   xmlns="http://www.w3.org/2000/svg"
   xmlns:sodipodi="http://sodipodi.sourceforge.net/DTD/sodipodi-0.dtd"
   xmlns:inkscape="http://www.inkscape.org/namespaces/inkscape"
   width="297mm"
   height="210mm"
   viewBox="0 0 297 210"
   version="1.1"
   id="svg1549"
   sodipodi:docname="P.svg"
   inkscape:version="0.92.2 (5c3e80d, 2017-08-06)">
  <defs
     id="defs1543">
    <inkscape:path-effect
       effect="spiro"
       id="path-effect10399"
       is_visible="true" />
  </defs>
  <sodipodi:namedview
     id="base"
     pagecolor="#ffffff"
     bordercolor="#666666"
     borderopacity="1.0"
     inkscape:pageopacity="0.0"
     inkscape:pageshadow="2"
     inkscape:zoom="5.8874382"
     inkscape:cx="100.99997"
     inkscape:cy="755.41298"
     inkscape:document-units="mm"
     inkscape:current-layer="layer1"
     showgrid="false"
     inkscape:window-width="1366"
     inkscape:window-height="705"
     inkscape:window-x="-8"
     inkscape:window-y="-8"
     inkscape:window-maximized="1" />
  <metadata
     id="metadata1546">
    <rdf:RDF>
      <cc:Work
         rdf:about="">
        <dc:format>image/svg+xml</dc:format>
        <dc:type
           rdf:resource="http://purl.org/dc/dcmitype/StillImage" />
        <dc:title />
      </cc:Work>
    </rdf:RDF>
  </metadata>
  <g
     inkscape:label="Capa 1"
     inkscape:groupmode="layer"
     id="layer1"
     transform="translate(0,-87)">
    <path
       style="opacity:1;fill:#216778;fill-opacity:1;fill-rule:nonzero;stroke:none;stroke-width:0.66499996;stroke-linecap:butt;stroke-linejoin:miter;stroke-miterlimit:4;stroke-dasharray:none;stroke-dashoffset:0;stroke-opacity:1;paint-order:stroke fill markers"
       d="m 12.185351,108.71178 c -0.23509,-0.36494 -0.468699,-2.56622 -0.504476,-4.75368 -0.02037,-1.24471 -0.01294,-1.39438 0.13025,-2.62155 0.206779,-1.772345 0.161139,-2.621695 -0.148776,-2.768705 -0.214034,-0.10152 -0.470148,0.0531 -0.750408,0.45308 -0.129276,0.1845 -0.297506,0.27555 -0.58388,0.31603 -0.3864475,0.0546 -0.6129515,0.27146 -0.8057245,0.771345 -0.146182,0.37907 -0.229383,0.81599 -0.201142,1.05629 0.04337,0.36898 0.211749,0.58319 0.6802015,0.86534 0.583247,0.35129 0.825365,0.97889 0.440679,1.1423 -0.118448,0.0503 -0.150003,0.05 -0.359161,-0.003 -0.4373535,-0.11149 -1.1944975,-0.52391 -1.5306435,-0.83375 -0.08508,-0.0784 -0.192214,-0.22558 -0.238069,-0.327 -0.07917,-0.1751 -0.08328,-0.22086 -0.08158,-0.90759 0.0011,-0.39776 0.02185,-0.90873 0.04639,-1.135485 0.156369,-1.4453 0.44477,-1.86045 1.539319,-2.21585 0.8271375,-0.26856 1.2678485,-0.5855 1.6101215,-1.15793 0.320921,-0.53671 0.749494,-1.129979 1.495386,-2.070047 0.712859,-0.898437 1.095303,-1.471657 1.438703,-2.156383 0.378061,-0.75383 0.51815,-1.299096 0.51815,-2.016792 v -0.407127 l 1.963724,0.02342 c 1.08005,0.01288 2.326238,0.02341 2.769306,0.02341 0.671971,0 0.80558,0.0083 0.80558,0.05004 0,0.02752 0.05732,0.229928 0.12737,0.449792 0.108062,0.339148 0.130157,0.464711 0.145733,0.828225 0.02379,0.555273 -0.02085,0.96026 -0.273593,2.481979 -0.543186,3.270393 -0.586792,4.179683 -0.312136,6.508718 0.0919,0.77932 0.112895,1.09361 0.115461,1.72861 0.0029,0.70763 -0.0037,0.79798 -0.07484,1.02394 -0.109966,0.34949 -0.296894,0.51065 -0.592296,0.51065 -0.437898,0 -0.491024,-0.15733 -0.863653,-2.55764 -0.214712,-1.383095 -0.315063,-1.891915 -0.450794,-2.285695 -0.230219,-0.66791 -0.543126,-0.93526 -1.288016,-1.10049 -0.399269,-0.0886 -0.761971,-0.0649 -1.021598,0.0666 -0.434428,0.22012 -1.364269,1.07205 -1.717167,1.57328 -0.746419,1.060155 -0.986171,2.223335 -1.185236,5.750275 -0.109355,1.93751 -0.257786,3.15645 -0.428053,3.51527 -0.06064,0.12779 -0.217202,0.25946 -0.30852,0.25946 -0.03051,0 -0.07849,-0.0357 -0.106609,-0.0794 z"
       id="path2590"
       inkscape:connector-curvature="0" />
    <path
       style="opacity:1;fill:#216778;fill-opacity:1;fill-rule:nonzero;stroke:none;stroke-width:0.66499996;stroke-linecap:butt;stroke-linejoin:miter;stroke-miterlimit:4;stroke-dasharray:none;stroke-dashoffset:0;stroke-opacity:1;paint-order:stroke fill markers"
       d="m 2.7098576,103.18199 v -9.101675 l 0.1499315,3.4e-5 c 0.211918,7.2e-5 2.863014,-0.143724 2.875227,-0.155937 0.0055,-0.0055 0.03352,-0.445011 0.06217,-0.976601 0.06912,-1.282467 0.141793,-1.801233 0.306917,-2.190912 0.08396,-0.198151 0.136181,-0.220289 0.6450654,-0.273484 0.985263,-0.102997 4.5439535,-0.14732 5.6268035,-0.07008 1.136618,0.08107 1.448953,0.248099 1.349607,0.721738 -0.119811,0.571204 -0.741854,1.536581 -1.927423,2.991263 -0.455652,0.559077 -0.917916,1.204388 -1.179486,1.646536 -0.234426,0.396263 -0.513879,0.686403 -0.7909375,0.821193 -0.109913,0.0535 -0.406561,0.15226 -0.65922,0.21953 -0.9394,0.2501 -1.409909,0.61285 -1.625682,1.25337 -0.05504,0.16339 -0.08496,0.37442 -0.108283,0.76384 -0.03681,0.61456 -0.137658,1.376845 -0.264605,2.000085 -0.236558,1.16137 -0.17364,1.65243 0.272114,2.12375 0.343114,0.36279 0.751509,0.59722 2.094055,1.20207 l 0.9524995,0.42912 0.200914,1.45311 c 0.296008,2.14089 0.425307,2.77446 0.661844,3.24304 0.123016,0.24369 0.256402,0.36421 0.565992,0.5114 0.203563,0.0968 0.264951,0.10902 0.546806,0.10902 0.285658,0 0.336354,-0.0105 0.50551,-0.10414 0.366784,-0.20318 0.705512,-0.67077 0.882891,-1.21877 0.175248,-0.54142 0.189013,-0.66771 0.206474,-1.89409 l 0.01667,-1.17088 0.09381,-0.019 c 0.0516,-0.0104 0.292249,-0.0515 0.534782,-0.0912 0.946462,-0.15493 1.613701,-0.46433 2.434042,-1.12866 0.672666,-0.54475 0.732946,-0.55077 1.203378,-0.12017 0.395332,0.36186 1.102463,0.55918 1.704041,0.47551 0.673264,-0.0936 0.946435,-0.38559 1.108276,-1.18447 0.0489,-0.24139 0.05479,-0.4864 0.04074,-1.69334 -0.02972,-2.552315 -0.0168,-5.088215 0.02918,-5.732637 0.125563,-1.759596 0.396071,-4.008414 0.571836,-4.753883 0.154977,-0.657307 0.309653,-0.781465 1.072629,-0.860996 0.339296,-0.03537 0.462145,-0.03232 0.877697,0.0218 0.265751,0.03461 0.484457,0.06499 0.486022,0.06752 0.0063,0.01016 0.134786,19.321786 0.136464,20.509796 l 0.0019,1.27882 H 13.540177 2.7098999 Z"
       id="path2592"
       inkscape:connector-curvature="0" />
    <path
       style="opacity:1;fill:#216778;fill-opacity:1;fill-rule:nonzero;stroke:none;stroke-width:0.66499996;stroke-linecap:butt;stroke-linejoin:miter;stroke-miterlimit:4;stroke-dasharray:none;stroke-dashoffset:0;stroke-opacity:1;paint-order:stroke fill markers"
       d="m 15.433376,99.807075 c -0.03744,-0.0374 -0.02727,-0.22092 0.01691,-0.30512 0.145418,-0.2771 0.716651,-0.76854 1.03437,-0.88988 0.184544,-0.0705 0.38934,-0.0438 0.453509,0.059 0.08955,0.14351 -0.195762,0.48277 -0.664009,0.78955 -0.47943,0.3141 -0.758251,0.42899 -0.840787,0.34645 z"
       id="path2594"
       inkscape:connector-curvature="0" />
    <path
       style="opacity:1;fill:#216778;fill-opacity:1;fill-rule:nonzero;stroke:none;stroke-width:0.66499996;stroke-linecap:butt;stroke-linejoin:miter;stroke-miterlimit:4;stroke-dasharray:none;stroke-dashoffset:0;stroke-opacity:1;paint-order:stroke fill markers"
       d="m 11.776247,94.752684 c 0,-0.118618 0.850519,-0.997775 0.908847,-0.939448 0.0376,0.0376 -0.187497,0.328031 -0.500933,0.646314 -0.294638,0.299196 -0.407914,0.380598 -0.407914,0.293134 z"
       id="path2596"
       inkscape:connector-curvature="0" />
    <path
       style="opacity:1;fill:#216778;fill-opacity:1;fill-rule:nonzero;stroke:none;stroke-width:0.66499996;stroke-linecap:butt;stroke-linejoin:miter;stroke-miterlimit:4;stroke-dasharray:none;stroke-dashoffset:0;stroke-opacity:1;paint-order:stroke fill markers"
       d="m 14.435773,104.31342 c -0.358172,-0.15359 -0.476986,-1.17547 -0.200846,-1.72739 0.134644,-0.26912 0.245947,-0.31014 0.410009,-0.15113 0.166164,0.16105 0.293037,0.18673 0.870755,0.1762 1.152255,-0.021 1.618564,-0.012 1.662676,0.0322 0.07032,0.0704 -0.02614,0.20594 -0.345295,0.48531 -0.494104,0.43249 -1.178912,0.89086 -1.634881,1.09428 -0.242435,0.10815 -0.617487,0.15269 -0.762418,0.0905 z"
       id="path2598"
       inkscape:connector-curvature="0" />
    <path
       style="opacity:1;fill:#216778;fill-opacity:1;fill-rule:nonzero;stroke:none;stroke-width:0.66499996;stroke-linecap:butt;stroke-linejoin:miter;stroke-miterlimit:4;stroke-dasharray:none;stroke-dashoffset:0;stroke-opacity:1;paint-order:stroke fill markers"
       d="m 15.119718,101.35636 c -0.221089,-0.25216 -0.22642,-0.6791 -0.0085,-0.6791 0.149987,0 0.228063,0.11534 0.228063,0.33689 0,0.18558 -0.07382,0.40395 -0.136549,0.40395 -0.0159,0 -0.05326,-0.0278 -0.08303,-0.0617 z"
       id="path2600"
       inkscape:connector-curvature="0" />
    <path
       style="opacity:1;fill:#216778;fill-opacity:1;fill-rule:nonzero;stroke:none;stroke-width:0.66499996;stroke-linecap:butt;stroke-linejoin:miter;stroke-miterlimit:4;stroke-dasharray:none;stroke-dashoffset:0;stroke-opacity:1;paint-order:stroke fill markers"
       d="m 15.986752,101.0922 c -0.03269,-0.0529 -0.0321,-0.51288 7.94e-4,-0.54568 0.08399,-0.084 0.185177,0.29252 0.126442,0.47049 -0.04109,0.12452 -0.08178,0.14858 -0.12714,0.0752 z"
       id="path2602"
       inkscape:connector-curvature="0" />
    <path
       style="opacity:1;fill:#216778;fill-opacity:1;fill-rule:nonzero;stroke:none;stroke-width:0.66499996;stroke-linecap:butt;stroke-linejoin:miter;stroke-miterlimit:4;stroke-dasharray:none;stroke-dashoffset:0;stroke-opacity:1;paint-order:stroke fill markers"
       d="m 10.699692,100.91681 c -0.01146,-0.0456 -0.01601,-0.18567 -0.01011,-0.31119 0.008,-0.17132 0.0235,-0.22822 0.06204,-0.22822 0.0706,0 0.114226,0.2337 0.08082,0.43298 -0.02991,0.17841 -0.10047,0.23498 -0.132736,0.10643 z"
       id="path2604"
       inkscape:connector-curvature="0" />
    <path
       style="opacity:1;fill:#216778;fill-opacity:1;fill-rule:nonzero;stroke:none;stroke-width:0.66499996;stroke-linecap:butt;stroke-linejoin:miter;stroke-miterlimit:4;stroke-dasharray:none;stroke-dashoffset:0;stroke-opacity:1;paint-order:stroke fill markers"
       d="m 10.988376,106.08652 c -0.0412,-0.0412 -0.02687,-0.74635 0.01569,-0.77267 0.06964,-0.043 0.100809,0.0667 0.100867,0.35522 7.7e-5,0.37372 -0.03493,0.49909 -0.11657,0.41745 z"
       id="path2608"
       inkscape:connector-curvature="0" />
    <path
       style="opacity:1;fill:#216778;fill-opacity:1;fill-rule:nonzero;stroke:none;stroke-width:0.66499996;stroke-linecap:butt;stroke-linejoin:miter;stroke-miterlimit:4;stroke-dasharray:none;stroke-dashoffset:0;stroke-opacity:1;paint-order:stroke fill markers"
       d="m 13.754587,106.54807 c 0.0016,-0.0411 0.01005,-0.0494 0.02132,-0.0213 0.01019,0.0254 0.0089,0.0559 -0.0028,0.0676 -0.01172,0.0117 -0.02006,-0.009 -0.01852,-0.0463 z"
       id="path2610"
       inkscape:connector-curvature="0" />
    <path
       style="opacity:1;fill:#216778;fill-opacity:1;fill-rule:nonzero;stroke:none;stroke-width:0.66499996;stroke-linecap:butt;stroke-linejoin:miter;stroke-miterlimit:4;stroke-dasharray:none;stroke-dashoffset:0;stroke-opacity:1;paint-order:stroke fill markers"
       d="m 7.9120475,102.81951 c -0.390517,-0.40023 -0.451799,-0.5844 -0.09659,-0.29028 0.267211,0.22126 0.430298,0.40712 0.408073,0.46504 -0.03211,0.0837 -0.09223,0.0499 -0.311483,-0.17476 z"
       id="path2612"
       inkscape:connector-curvature="0" />
    <path
       style="opacity:1;fill:#216778;fill-opacity:1;fill-rule:nonzero;stroke:none;stroke-width:0.66499996;stroke-linecap:butt;stroke-linejoin:miter;stroke-miterlimit:4;stroke-dasharray:none;stroke-dashoffset:0;stroke-opacity:1;paint-order:stroke fill markers"
       d="m 13.647984,107.24256 c -0.01892,-0.11102 -0.01879,-1.35999 1.35e-4,-1.49255 0.0093,-0.0654 0.02209,-0.1 0.03528,-0.0957 0.08002,0.0263 0.104846,1.25236 0.03238,1.59905 -0.01916,0.0917 -0.0512,0.0866 -0.06779,-0.0109 z"
       id="path2618"
       inkscape:connector-curvature="0" />
    <path
       style="opacity:1;fill:#216778;fill-opacity:1;fill-rule:nonzero;stroke:none;stroke-width:0.66499996;stroke-linecap:butt;stroke-linejoin:miter;stroke-miterlimit:4;stroke-dasharray:none;stroke-dashoffset:0;stroke-opacity:1;paint-order:stroke fill markers"
       d="m 13.64121,103.40739 c -0.05368,-0.1003 -0.0529,-0.85057 0.0011,-0.90441 0.09053,-0.0905 0.157869,0.57531 0.08311,0.82179 -0.0353,0.11638 -0.0554,0.13614 -0.08405,0.0826 z"
       id="path2620"
       inkscape:connector-curvature="0" />
    <path
       style="opacity:1;fill:#216778;fill-opacity:1;fill-rule:nonzero;stroke:none;stroke-width:0.66499996;stroke-linecap:butt;stroke-linejoin:miter;stroke-miterlimit:4;stroke-dasharray:none;stroke-dashoffset:0;stroke-opacity:1;paint-order:stroke fill markers"
       d="m 0.65199429,92.393845 c -0.167722,-0.08358 -0.191293,-0.138055 -0.238429,-0.551043 -0.06714,-0.588253 -0.08754,-1.281602 -0.08771,-2.980184 l -1.61e-4,-1.689492 0.75435081,7.94e-4 c 0.9371647,0.0011 1.7319334,0.03489 2.0261448,0.08655 1.0029507,0.17612 1.4114039,0.614193 1.4182989,1.521145 0.00265,0.332349 -0.027906,0.494324 -0.1362604,0.725274 -0.1436396,0.306149 -0.372409,0.524528 -0.739812,0.706204 -0.3019425,0.14931 -0.5425149,0.218274 -1.1033125,0.316281 -0.5351886,0.09353 -0.7646326,0.213262 -0.867664,0.452762 -0.028496,0.06624 -0.070287,0.254694 -0.092869,0.418783 -0.078891,0.573233 -0.2379609,0.87226 -0.5356992,1.007036 -0.14995841,0.06788 -0.23874441,0.06473 -0.39688041,-0.01408 z M 2.488576,89.228449 C 3.0061724,89.121536 3.2337935,88.819408 3.0032038,88.545366 2.8617946,88.377311 2.52439,88.267321 2.1336427,88.2619 1.714638,88.2561 1.6349005,88.33717 1.6349005,88.769103 c 0,0.303731 0.038121,0.397997 0.1857666,0.45937 0.1180783,0.04908 0.4302231,0.04907 0.6679089,-2.4e-5 z"
       id="path2856"
       inkscape:connector-curvature="0" />
    <path
       style="opacity:1;fill:#ffffff;fill-opacity:1;fill-rule:nonzero;stroke:none;stroke-width:2.51338577;stroke-linecap:butt;stroke-linejoin:miter;stroke-miterlimit:4;stroke-dasharray:none;stroke-dashoffset:0;stroke-opacity:1;paint-order:stroke fill markers"
       d="m 44.936865,86.005138 c -2.499646,-1.354157 -2.867992,-2.611123 -4.794557,-16.361256 -0.257233,-1.835904 -0.537467,-3.338008 -0.622742,-3.338008 -0.305597,0 -7.911367,-3.601129 -9.047306,-4.283659 -1.501402,-0.902116 -2.670883,-2.039953 -3.26677,-3.178374 -0.651681,-1.245015 -0.624765,-3.405162 0.0932,-7.479523 0.308108,-1.74848 0.662476,-4.3712 0.787484,-5.828266 0.310979,-3.624718 0.673304,-4.717685 2.005487,-6.049629 1.12769,-1.127487 1.950857,-1.52708 5.256035,-2.551456 1.020485,-0.31628 2.234715,-0.853985 2.698289,-1.1949 0.510616,-0.375513 1.549196,-1.678927 2.634734,-3.306584 0.98553,-1.477704 2.697938,-3.831195 3.805351,-5.229979 6.063615,-7.659006 8.09122,-11.3159 7.256293,-13.087108 -0.160699,-0.340905 0.0069,-0.370889 2.07318,-0.370889 h 2.248013 l -0.0031,0.582826 c -0.01091,2.030394 -1.899531,6.544035 -4.062967,9.710159 -0.642476,0.940246 -2.340746,3.229165 -3.773934,5.086487 -1.433181,1.857322 -3.341525,4.473723 -4.240758,5.814224 -1.649253,2.458567 -3.001865,3.917233 -4.213361,4.543723 -0.362612,0.187514 -1.419351,0.621175 -2.348308,0.963693 -2.352755,0.867489 -3.257788,1.362133 -4.123846,2.253886 -1.510189,1.554992 -2.111832,4.370119 -2.126332,9.949236 -0.0096,3.687244 0.0086,3.855558 0.491263,4.556645 0.666874,0.968588 2.031368,1.965682 4.121797,3.011974 2.943382,1.47321 4.563075,1.281903 4.322655,-0.51056 -0.145418,-1.084172 -0.800934,-1.940841 -2.233723,-2.919167 -2.571629,-1.755938 -2.992577,-2.843679 -2.247843,-5.808478 0.701961,-2.79452 1.627691,-3.846995 3.866108,-4.395433 0.69898,-0.171258 1.226727,-0.547283 2.25609,-1.60748 1.504015,-1.549073 1.987319,-1.66244 2.744469,-0.643763 0.409528,0.550983 0.443968,0.864629 0.430534,3.920834 -0.0086,1.9675 -0.179572,4.57492 -0.419212,6.395028 -0.9935,7.545842 0.02454,25.161852 1.592234,27.551806 0.185161,0.282279 0.274443,0.281717 0.796677,-0.005 1.200736,-0.659241 1.689598,-3.482466 2.384529,-13.770897 0.959121,-14.199781 1.60176,-17.507718 4.173632,-21.483423 1.538679,-2.378556 5.486908,-5.994391 7.221193,-6.613253 1.564196,-0.55817 4.124999,-0.178428 5.930471,0.87943 1.894286,1.109895 2.467152,2.814362 3.983357,11.851816 0.625795,3.730091 1.290029,7.28296 1.476075,7.895265 0.412654,1.358092 1.050267,1.857025 2.145964,1.679219 0.96024,-0.155825 1.326711,-0.464204 1.807381,-1.520879 0.552153,-1.21382 0.530672,-6.38476 -0.04843,-11.656533 -0.839796,-7.644984 -0.62028,-11.960209 1.180538,-23.207098 0.401279,-2.506155 0.840758,-5.414109 0.97662,-6.46212 0.241012,-1.859117 0.172665,-4.928629 -0.126283,-5.671276 -0.137473,-0.34151 0.06235,-0.370889 2.522588,-0.370889 2.545228,0 2.918542,0.08138 2.479192,0.540439 -0.610181,0.637555 -1.478605,5.776574 -2.379872,14.083211 -0.4252,3.918916 -0.483387,5.809018 -0.593713,19.286264 -0.121709,14.867904 -0.124666,14.947391 -0.599553,16.125286 -0.707658,1.755253 -1.563995,2.421664 -3.506395,2.728716 -2.216537,0.350387 -4.869526,-0.359534 -6.59276,-1.764178 -1.180987,-0.962648 -1.759564,-1.241773 -2.250802,-1.085859 -0.229042,0.0727 -1.29837,0.80102 -2.376284,1.618499 -3.454522,2.619878 -5.255375,3.442704 -9.201394,4.204208 -1.216139,0.234691 -2.254005,0.42671 -2.30637,0.42671 -0.05236,0 -0.09593,1.549789 -0.09682,3.443975 -0.0027,5.755952 -0.498781,8.356404 -2.035964,10.672269 -1.166344,1.757171 -2.022284,2.292891 -3.790694,2.372534 -1.20443,0.05424 -1.643061,-0.01958 -2.331307,-0.392443 z m 7.096644,-12.211151 c 0.0034,-2.687823 -0.120139,-3.517664 -0.446878,-3.002223 -0.206712,0.326097 -0.2452,4.913362 -0.04742,5.652015 0.277744,1.037309 0.491101,-0.106424 0.494301,-2.649792 z M 41.947073,71.90487 c 0.16606,-0.432746 0.166366,-2.075033 4.66e-4,-2.507359 -0.266912,-0.695562 -0.507634,-0.04517 -0.507634,1.371548 0,1.388569 0.220598,1.882602 0.507168,1.135811 z M 57.68481,65.038057 c 1.866968,-0.817367 6.249945,-4.013815 7.03408,-5.129862 0.643015,-0.915193 0.326921,-0.992154 -4.358151,-1.061107 -4.172431,-0.06141 -4.447152,-0.0905 -5.005298,-0.529991 -0.761929,-0.599956 -1.07203,-0.460156 -1.661124,0.748875 -0.372108,0.763694 -0.480107,1.348337 -0.476091,2.577289 0.0096,2.928433 0.849691,4.180565 2.630108,3.919931 0.526352,-0.07705 1.352766,-0.313364 1.836476,-0.525135 z m -5.7767,-3.306162 c 0.164317,-0.428199 0.161621,-2.169334 -0.0043,-2.788446 -0.250582,-0.934964 -0.502844,-0.212221 -0.502844,1.440699 0,1.572112 0.208478,2.126122 0.507167,1.347747 z M 31.054994,60.308683 c 0,-0.253252 -1.079817,-1.377353 -1.960417,-2.040815 -0.748852,-0.564201 -0.392708,0.287781 0.549121,1.313628 0.914874,0.996485 1.411296,1.252274 1.411296,0.727187 z m 26.787351,-6.206519 c 0.238747,-0.622166 0.131295,-1.941965 -0.17908,-2.199553 -0.53064,-0.440391 -1.063519,-0.176307 -1.135272,0.562616 -0.120463,1.24055 0.953294,2.577842 1.314352,1.636937 z m 3.095761,-1.554858 c 0,-0.938726 -0.167256,-1.500893 -0.446549,-1.500893 -0.104093,0 -0.189262,0.524544 -0.189262,1.165653 0,0.894845 0.07386,1.165653 0.317906,1.165653 0.228491,0 0.317905,-0.233558 0.317905,-0.830413 z M 40.975623,51.536 c -0.103981,-1.228749 -0.595402,-1.151795 -0.595402,0.09324 0,0.573114 0.06625,1.10827 0.147213,1.189238 0.257938,0.257938 0.516044,-0.480626 0.448189,-1.282477 z m 18.964226,-3.482521 c 1.628844,-0.820897 3.443853,-2.247994 3.867553,-3.040965 0.413915,-0.774661 0.413881,-0.779428 -0.0081,-1.094133 -0.78688,-0.586775 -2.22597,0.02617 -4.156652,1.770426 -0.930204,0.840377 -1.459686,1.703683 -1.459686,2.379963 0,0.572067 0.601863,0.566828 1.756923,-0.0153 z M 46.114475,28.196511 c 1.329107,-1.366733 2.019597,-2.317121 1.824916,-2.511804 -0.157024,-0.157022 -2.942635,2.606046 -3.293935,3.267277 -0.471432,0.887347 0.214436,0.534626 1.469019,-0.755473 z"
       id="path10401"
       inkscape:connector-curvature="0"
       transform="matrix(0.26458333,0,0,0.26458333,0,87)" />
    <path
       style="opacity:1;fill:#ffffff;fill-opacity:1;fill-rule:nonzero;stroke:none;stroke-width:2.51338577;stroke-linecap:butt;stroke-linejoin:miter;stroke-miterlimit:4;stroke-dasharray:none;stroke-dashoffset:0;stroke-opacity:1;paint-order:stroke fill markers"
       d="M 44.88423,86.005218 C 42.566826,84.828913 42.067758,83.254516 40.459631,72.04705 l -0.803163,-5.597451 -1.598541,-0.722631 c -5.255853,-2.375944 -8.438126,-4.092735 -9.471048,-5.109492 -2.102079,-2.069183 -2.277671,-3.199782 -1.371266,-8.829284 0.356595,-2.214741 0.748586,-5.123576 0.871091,-6.464077 0.284605,-3.114266 0.646537,-4.349877 1.600665,-5.464562 1.014016,-1.184649 2.09357,-1.789324 4.652648,-2.606021 3.67129,-1.171645 4.059275,-1.484913 6.75407,-5.453367 0.895328,-1.318493 2.83412,-3.941213 4.308428,-5.828267 5.245566,-6.714112 6.974154,-9.914938 6.345265,-11.749533 -0.16274,-0.474749 -0.153555,-0.476858 2.076155,-0.476858 h 2.239621 v 0.658203 c 0,1.810933 -1.709948,6.02332 -3.683464,9.074066 -0.533393,0.824538 -2.43224,3.430713 -4.219661,5.791499 -1.787423,2.360786 -3.826797,5.150683 -4.531944,6.199771 -2.069599,3.079065 -2.98542,3.78143 -6.869597,5.268452 -3.064367,1.173164 -4.255372,2.392495 -4.997603,5.116459 -0.399567,1.466398 -0.802151,7.73986 -0.61083,9.518551 0.150906,1.402953 0.204094,1.511467 1.256913,2.564285 0.739603,0.739605 1.758347,1.426488 3.113246,2.099096 2.364565,1.17383 3.604193,1.426323 4.22855,0.861288 0.978171,-0.885233 0.165483,-2.568324 -2.032278,-4.208881 -1.845896,-1.377902 -2.423155,-2.213915 -2.423155,-3.509327 0,-1.983749 1.168288,-5.126863 2.168448,-5.833908 0.264421,-0.186926 0.997369,-0.491071 1.628774,-0.675876 0.883912,-0.258711 1.482643,-0.650296 2.602639,-1.702188 1.616493,-1.5182 2.065229,-1.619754 2.798135,-0.633245 0.411157,0.553427 0.443796,0.860812 0.427585,4.026803 -0.0097,1.8852 -0.176554,4.734436 -0.37089,6.331636 -0.971556,7.984981 0.08903,25.922786 1.623429,27.457184 0.248961,0.24896 0.376354,0.253678 0.738758,0.02735 1.202231,-0.750805 1.640403,-3.368282 2.372992,-14.175357 1.003066,-14.797077 1.78845,-18.206608 5.169368,-22.441429 1.358766,-1.701945 4.354726,-4.320335 5.731983,-5.009605 1.641704,-0.821616 3.981544,-0.632581 6.198252,0.500759 2.063443,1.054981 2.662549,2.653582 3.987437,10.63975 1.717974,10.355607 1.928029,11.012101 3.523477,11.012101 0.71096,0 1.643641,-0.611453 2.025963,-1.328194 0.604735,-1.133704 0.627687,-5.897825 0.05537,-11.493993 -0.839652,-8.210238 -0.658741,-12.121272 1.068577,-23.101129 0.458443,-2.914133 0.942861,-6.204455 1.076486,-7.311825 0.221546,-1.836 0.141874,-4.641658 -0.153676,-5.411852 -0.100738,-0.26252 0.29335,-0.310446 2.552757,-0.310446 1.46954,0 2.671888,0.05242 2.671888,0.116493 0,0.06407 -0.14359,0.394164 -0.319086,0.733539 -0.626045,1.210635 -1.387382,5.975175 -2.251722,14.091524 -0.39514,3.710455 -0.469837,6.087734 -0.599335,19.074327 -0.104461,10.475788 -0.221584,15.060904 -0.398545,15.602297 -0.620215,1.897474 -1.729132,2.82562 -3.776187,3.160603 -2.264102,0.370502 -4.688959,-0.324651 -6.791963,-1.947107 -1.677757,-1.29438 -1.612029,-1.311549 -5.247019,1.370531 -2.791854,2.059972 -5.00629,2.984763 -8.750776,3.65449 l -1.960416,0.350635 v 3.533485 c 0,5.708677 -0.536652,8.427822 -2.116509,10.724064 -1.106629,1.608429 -1.950856,2.108111 -3.692065,2.185258 -1.209894,0.05361 -1.678961,-0.02259 -2.403635,-0.390428 z M 52.006962,73.6177 c 0,-2.59467 -0.228543,-3.741211 -0.462877,-2.322139 -0.180543,1.093317 -0.181749,3.877589 -0.0021,4.775985 0.247938,1.239696 0.464945,0.0944 0.464945,-2.453846 z M 42.06082,70.720901 c 0.01687,-0.880189 -0.152385,-1.447909 -0.431653,-1.447909 -0.224189,0 -0.258255,2.615541 -0.03695,2.836848 0.216824,0.216824 0.451141,-0.477693 0.468601,-1.388939 z m 14.463161,-5.359566 c 1.833894,-0.47767 5.103876,-2.548318 7.328259,-4.640468 1.861258,-1.750612 1.7138,-1.824546 -3.655913,-1.833018 -2.933509,-0.0046 -3.937276,-0.07682 -4.344708,-0.312486 -0.98002,-0.566857 -1.116083,-0.603242 -1.459381,-0.390258 -0.731962,0.454117 -0.977894,1.379544 -0.977894,3.679779 0,2.412374 0.271616,3.204768 1.230993,3.591208 0.621976,0.250535 0.536407,0.25485 1.878644,-0.09476 z m -4.493367,-4.777759 c 4.24e-4,-1.12533 -0.181003,-1.907432 -0.442452,-1.907432 -0.217774,0 -0.257692,3.037936 -0.04274,3.252884 0.258275,0.258275 0.484838,-0.369982 0.485196,-1.345452 z m -20.97562,-0.183355 c 0,-0.515785 -1.990406,-2.347562 -2.259,-2.078966 -0.1375,0.137498 1.812386,2.262321 2.076065,2.262321 0.100614,0 0.182935,-0.08251 0.182935,-0.183355 z m 26.787351,-6.298057 c 0.22854,-0.595562 0.136831,-1.692089 -0.176849,-2.114512 -0.244011,-0.328604 -0.382633,-0.364389 -0.688795,-0.177815 -0.514345,0.313438 -0.579702,0.941189 -0.194081,1.864113 0.333182,0.797415 0.839535,1.002023 1.059725,0.428214 z m 3.057235,-1.89877 c -0.09907,-1.184453 -0.597285,-1.221414 -0.597285,-0.04431 0,0.514831 0.06517,1.001226 0.144823,1.080878 0.28634,0.28634 0.518608,-0.245774 0.452462,-1.036566 z m -19.970579,0.0087 c 0.165107,-0.65784 -0.06524,-1.651417 -0.343057,-1.479718 -0.269715,0.166692 -0.267721,2.00956 0.0022,2.00956 0.114344,0 0.267741,-0.238429 0.340881,-0.529842 z M 60.476872,47.73089 c 1.55673,-0.870574 3.640289,-2.773528 3.640289,-3.324749 0,-0.200276 -0.246725,-0.457944 -0.548277,-0.572594 -1.48315,-0.563892 -5.83749,2.975318 -5.319936,4.324046 0.199857,0.520818 0.707431,0.423605 2.227924,-0.426703 z M 45.986522,28.282787 c 1.333846,-1.366209 2.141665,-2.456873 1.819722,-2.456873 -0.275202,0 -2.878506,2.602096 -3.195056,3.193576 -0.418881,0.782686 0.232679,0.433675 1.375334,-0.736703 z"
       id="path10403"
       inkscape:connector-curvature="0"
       transform="matrix(0.26458333,0,0,0.26458333,0,87)" />
    <path
       style="opacity:1;fill:#ffffff;fill-opacity:1;fill-rule:nonzero;stroke:none;stroke-width:2.51338577;stroke-linecap:butt;stroke-linejoin:miter;stroke-miterlimit:4;stroke-dasharray:none;stroke-dashoffset:0;stroke-opacity:1;paint-order:stroke fill markers"
       d="M 44.928097,86.052675 C 42.617235,84.97289 41.988532,82.965603 40.344106,71.417152 L 39.638441,66.461421 37.731008,65.600037 C 29.906345,62.066465 27.586064,60.461197 26.90199,58.108066 26.493186,56.701832 26.555506,55.653409 27.337781,50.7766 c 0.284712,-1.774932 0.620402,-4.323921 0.745979,-5.664422 0.277305,-2.960168 0.633174,-4.118889 1.618565,-5.270097 1.012763,-1.183185 2.169714,-1.823306 4.8882,-2.704559 3.478524,-1.127632 3.833569,-1.417424 6.403732,-5.226798 0.803013,-1.190187 2.711183,-3.785294 4.240378,-5.766905 3.186688,-4.129474 4.758705,-6.409282 5.772484,-8.37151 0.584819,-1.131951 0.711729,-1.613782 0.711729,-2.702196 v -1.324606 h 2.172354 2.172354 v 0.697251 c 0,1.245613 -0.617841,3.174561 -1.795969,5.607161 -1.372444,2.833821 -1.904154,3.63513 -6.390575,9.630842 -1.891738,2.528145 -3.915463,5.301938 -4.497166,6.163985 -1.449987,2.148787 -2.858985,3.361287 -4.855795,4.178611 -3.227992,1.321264 -4.381593,1.937055 -5.158207,2.753447 -1.527029,1.60524 -2.08845,4.20822 -2.159147,10.01069 -0.04889,4.012751 0.04232,4.302365 1.789951,5.683791 1.327874,1.049624 4.212024,2.468299 5.399803,2.656092 1.643881,0.259902 2.266789,-1.161879 1.166782,-2.66317 -0.213521,-0.291414 -1.081917,-1.094263 -1.929769,-1.784111 -0.847852,-0.689847 -1.720784,-1.548191 -1.939848,-1.907433 -0.737016,-1.208623 -0.407285,-3.740287 0.796849,-6.118181 0.560951,-1.107755 1.29725,-1.659251 2.763243,-2.069705 0.662969,-0.185618 1.402978,-0.679828 2.432123,-1.624274 1.640596,-1.505575 2.080534,-1.603697 2.805898,-0.625816 0.413322,0.55721 0.443229,0.852586 0.41845,4.132771 -0.01468,1.942968 -0.181578,4.93669 -0.37089,6.652714 -0.742067,6.7265 -0.170395,20.679565 1.043782,25.47605 0.394683,1.559159 0.634515,1.883618 1.177513,1.593014 1.323772,-0.708461 1.713335,-2.944112 2.527631,-14.505771 1.038735,-14.748325 1.785853,-17.922577 5.227012,-22.207847 1.43671,-1.789132 4.257382,-4.222709 5.74421,-4.9559 1.005273,-0.495723 1.28908,-0.541101 2.711456,-0.433528 1.989508,0.150467 4.007372,1.034486 4.833437,2.117515 1.099448,1.441451 1.536878,3.141205 2.890994,11.233766 0.975726,5.831202 1.339028,7.53917 1.788559,8.408467 0.660705,1.277667 2.682291,0.95167 3.395135,-0.547492 0.630188,-1.325333 0.664437,-5.21174 0.09688,-10.993813 -0.57983,-5.907122 -0.621158,-11.487121 -0.11459,-15.471398 0.192663,-1.515349 0.786799,-5.568644 1.320301,-9.007321 0.96177,-6.199079 1.211029,-9.500524 0.852063,-11.285644 l -0.159817,-0.794763 h 2.658817 c 1.462348,0 2.658766,0.02384 2.658709,0.05298 -6e-5,0.02914 -0.181594,0.53047 -0.40341,1.114063 -0.681489,1.792996 -1.650158,8.433453 -2.364869,16.211784 -0.133882,1.457067 -0.30731,9.182169 -0.385394,17.166894 l -0.141973,14.517682 -0.488622,1.091817 c -0.893785,1.997146 -2.1302,2.688105 -4.799073,2.681918 -2.075389,-0.0048 -3.585781,-0.532977 -5.379016,-1.880976 -1.826331,-1.372877 -1.735109,-1.394274 -5.42977,1.273556 -2.877415,2.077716 -4.880115,2.919462 -8.61007,3.618858 l -2.040025,0.382521 -0.104277,4.787664 c -0.09644,4.427906 -0.145815,4.915066 -0.657071,6.483158 -0.6335,1.94303 -1.692267,3.629035 -2.818267,4.487876 -0.655276,0.499804 -1.016251,0.603533 -2.28168,0.655663 -1.128997,0.04651 -1.716493,-0.03771 -2.359768,-0.338294 z M 51.990554,73.6177 c 0.0022,-1.049088 -0.06406,-2.145862 -0.14718,-2.437275 -0.338131,-1.185466 -0.594318,3.019465 -0.290528,4.768581 l 0.147239,0.847748 0.143259,-0.635811 c 0.07879,-0.349696 0.145037,-1.494155 0.14721,-2.543243 z M 41.973387,71.375794 c 0.174422,-0.79414 -0.05397,-2.162206 -0.332253,-1.990215 -0.258879,0.159996 -0.264639,2.642593 -0.0061,2.642593 0.107303,0 0.259576,-0.29357 0.338384,-0.652378 z m 16.260281,-6.723437 c 1.908274,-0.987489 4.098727,-2.533353 5.661872,-3.995741 1.693254,-1.584112 1.579914,-1.63893 -3.656516,-1.768536 -3.713583,-0.09191 -4.35852,-0.158251 -4.862627,-0.50016 -0.319654,-0.216805 -0.719999,-0.340928 -0.88965,-0.275826 -1.214907,0.466205 -1.575544,4.960667 -0.5353,6.671212 0.380686,0.625988 0.494136,0.67482 1.567747,0.67482 0.925878,0 1.468804,-0.161163 2.714474,-0.805769 z m -6.211811,-3.989304 c 0.02169,-0.964218 -0.219349,-1.998138 -0.434781,-1.864993 -0.222368,0.137431 -0.252353,2.920273 -0.03382,3.138806 0.205354,0.205354 0.45031,-0.460516 0.468601,-1.273813 z M 31.054994,60.463675 c 0,-0.5232 -1.988331,-2.413089 -2.256571,-2.144849 -0.139155,0.139154 1.80707,2.26475 2.073636,2.26475 0.100614,0 0.182935,-0.05396 0.182935,-0.119901 z m 26.915995,-7.352333 c 0,-1.267258 -0.801641,-1.883409 -1.282187,-0.985505 -0.278379,0.520159 -0.100643,1.409765 0.39054,1.954723 0.330285,0.366441 0.360035,0.36704 0.619299,0.01248 0.149791,-0.204859 0.272348,-0.64662 0.272348,-0.981701 z m 2.967117,-0.576545 c 0,-0.777938 -0.203822,-1.306479 -0.44608,-1.156754 -0.215992,0.133491 -0.260259,1.646566 -0.0542,1.852624 0.254,0.254 0.500281,-0.08857 0.50028,-0.69587 z M 40.929001,52.212066 c 0.165107,-0.65784 -0.06524,-1.651417 -0.343057,-1.479718 -0.269715,0.166692 -0.267721,2.00956 0.0022,2.00956 0.114344,0 0.267741,-0.238429 0.340881,-0.529842 z m 19.77788,-4.622112 c 1.333039,-0.786443 3.41028,-2.722517 3.41028,-3.178523 0,-0.368278 -0.442709,-0.570875 -1.247463,-0.570875 -1.111527,0 -4.016049,2.290261 -4.491949,3.541971 -0.505953,1.330756 0.302951,1.402796 2.329132,0.207427 z M 47.798014,26.016899 c 0,-0.15749 -0.715287,0.424168 -1.589527,1.292574 -0.87424,0.868405 -1.588012,1.724363 -1.586159,1.902128 0.0018,0.177765 0.71714,-0.403893 1.589527,-1.292574 0.872388,-0.888681 1.586159,-1.744639 1.586159,-1.902128 z"
       id="path10405"
       inkscape:connector-curvature="0"
       transform="matrix(0.26458333,0,0,0.26458333,0,87)" />
    <path
       style="opacity:1;fill:#ffffff;fill-opacity:1;fill-rule:nonzero;stroke:none;stroke-width:2.51338577;stroke-linecap:butt;stroke-linejoin:miter;stroke-miterlimit:4;stroke-dasharray:none;stroke-dashoffset:0;stroke-opacity:1;paint-order:stroke fill markers"
       d="m 44.803567,86.025905 c -2.193819,-1.191083 -2.816955,-3.152782 -4.311753,-13.573859 -0.409642,-2.85585 -0.789651,-5.383199 -0.844462,-5.616329 -0.06783,-0.28851 -0.626625,-0.655097 -1.74978,-1.147921 -0.907567,-0.398225 -3.159921,-1.480924 -5.005231,-2.405999 -3.981896,-1.996169 -5.409884,-3.209131 -5.960385,-5.062869 -0.447519,-1.506957 -0.42074,-2.130408 0.292567,-6.811394 0.341113,-2.23851 0.726169,-5.119106 0.855679,-6.401325 0.290619,-2.877258 0.653498,-4.032507 1.622123,-5.164128 0.984015,-1.149599 2.114668,-1.792128 4.666145,-2.651683 3.715109,-1.251564 4.138255,-1.594029 6.709556,-5.430249 0.585977,-0.87424 2.310139,-3.210845 3.831473,-5.192456 5.808197,-7.565461 7.562334,-10.793345 6.720378,-12.366552 -0.242666,-0.453426 -0.232514,-0.455634 2.094916,-0.455634 h 2.338763 v 0.825423 c 0,1.20251 -0.743969,3.436151 -1.938867,5.821119 -1.259518,2.513947 -2.31066,4.09383 -5.753319,8.64733 -1.439817,1.904402 -3.312003,4.463951 -4.160414,5.687887 -2.624588,3.786286 -3.34441,4.38111 -7.257602,5.997297 -4.747688,1.960843 -5.419912,3.287509 -5.624314,11.099853 -0.113753,4.347665 -0.103036,4.510136 0.345342,5.235628 1.176636,1.903838 6.575565,4.633794 7.833093,3.960784 1.246,-0.666839 0.58612,-2.290933 -1.690567,-4.160817 -2.069666,-1.699855 -2.523175,-2.387073 -2.523175,-3.823466 0,-1.396584 0.835545,-4.093535 1.564181,-5.048826 0.388403,-0.509223 0.974358,-0.879288 2.032426,-1.283598 1.071878,-0.409587 1.87649,-0.921354 2.883773,-1.834191 1.554526,-1.408775 2.00399,-1.497299 2.717616,-0.535243 0.413086,0.556892 0.443372,0.854453 0.420632,4.132771 -0.01348,1.942968 -0.180377,5.100331 -0.37089,7.01636 -0.663838,6.676393 -0.276236,17.756947 0.83665,23.917701 0.37808,2.092983 0.668206,2.799628 1.149443,2.799628 1.372918,0 1.934275,-2.998495 2.757574,-14.729619 0.842657,-12.006956 1.470525,-15.639024 3.320329,-19.207352 1.416051,-2.7316 5.149988,-6.509682 7.65397,-7.744458 1.005273,-0.495723 1.28908,-0.541101 2.711456,-0.433528 1.972654,0.149193 4.008114,1.03546 4.818629,2.098098 1.144512,1.500537 1.375102,2.382909 2.897473,11.087463 1.321709,7.557219 1.516631,8.336615 2.242265,8.965684 0.929711,0.805988 2.234999,0.320881 3.023065,-1.123516 0.484687,-0.888351 0.448467,-7.064963 -0.0696,-11.86897 -0.496515,-4.604172 -0.50607,-10.848903 -0.02237,-14.623651 0.194176,-1.515349 0.748035,-5.234843 1.230798,-8.265542 0.763327,-4.792034 0.879714,-5.973099 0.892816,-9.060069 l 0.01507,-3.549708 2.618903,-2.35e-4 c 2.411662,-2.18e-4 2.606706,0.02911 2.464784,0.370653 -0.751159,1.807676 -1.353654,5.244675 -2.108368,12.027423 -0.724247,6.508942 -0.776602,7.805659 -0.936979,23.207097 l -0.142348,13.669934 -0.554198,1.059685 c -1.000116,1.91232 -2.127139,2.508151 -4.732785,2.502113 -2.051073,-0.0047 -3.443544,-0.485545 -5.403613,-1.865753 -0.745346,-0.524845 -1.561234,-0.954265 -1.813081,-0.954265 -0.251846,0 -1.544581,0.775759 -2.872744,1.72391 -3.647808,2.604101 -5.653465,3.445412 -10.36248,4.346736 l -0.953716,0.182545 -0.129604,4.768057 c -0.118771,4.369544 -0.175914,4.909763 -0.683696,6.463551 -0.635868,1.945732 -1.694482,3.629732 -2.822748,4.490313 -0.675271,0.515064 -1.000116,0.603628 -2.387647,0.650954 -1.269719,0.04331 -1.767094,-0.03266 -2.375145,-0.362792 z m 7.195898,-12.514174 c -0.0071,-0.757675 -0.07951,-1.663705 -0.160974,-2.013401 -0.241477,-1.036603 -0.51091,2.181783 -0.314661,3.758647 l 0.165256,1.32784 0.161619,-0.847748 c 0.08889,-0.466261 0.155833,-1.467663 0.14876,-2.225338 z M 41.94933,70.039994 c -0.09346,-0.581528 -0.186502,-0.736769 -0.317561,-0.529843 -0.224726,0.354817 -0.253263,2.174039 -0.03749,2.389814 0.258307,0.258307 0.495654,-0.985068 0.355049,-1.859971 z m 15.388809,-4.987369 c 2.502759,-0.950974 8.020445,-5.219833 7.464911,-5.775367 -0.16903,-0.16903 -1.664474,-0.292536 -4.548642,-0.375664 -3.698219,-0.106592 -4.377787,-0.178456 -4.878011,-0.515855 -1.240584,-0.836772 -1.93174,0.400709 -1.937761,3.469459 -0.004,2.034188 0.32495,3.198347 0.977949,3.461081 0.593924,0.238963 1.911767,0.120035 2.921554,-0.263654 z m -5.307525,-4.469049 c 4.24e-4,-0.977799 -0.20762,-1.719385 -0.441829,-1.574636 -0.219046,0.135379 -0.256826,2.494693 -0.04337,2.708151 0.237333,0.237332 0.484821,-0.340849 0.485196,-1.133515 z m -20.97562,-0.190983 c 0,-0.254275 -1.921221,-2.140323 -2.180239,-2.140323 -0.23966,0 0.07965,0.446373 1.099146,1.536543 0.732616,0.783399 1.081093,0.978021 1.081093,0.60378 z m 26.913102,-7.108365 c -0.0084,-1.268664 -0.691239,-1.964389 -1.219604,-1.24265 -0.313682,0.428483 -0.194944,1.172539 0.312094,1.955712 0.319111,0.492901 0.344158,0.497674 0.621458,0.118445 0.158919,-0.217337 0.287643,-0.591514 0.286052,-0.831507 z m 2.873643,-1.307461 c -0.07534,-0.401608 -0.22754,-0.674233 -0.338216,-0.60583 -0.231272,0.142935 -0.274789,1.650637 -0.05401,1.871414 0.277432,0.277432 0.529262,-0.535134 0.39223,-1.265584 z M 40.914778,51.307648 c -0.06771,-0.269778 -0.215686,-0.433292 -0.328834,-0.363363 -0.237091,0.146529 -0.279794,1.44097 -0.05495,1.665809 0.2324,0.2324 0.522185,-0.751032 0.383789,-1.302446 z m 19.131809,-3.418193 c 2.265409,-1.143576 4.321412,-3.173385 3.822834,-3.774133 -0.585206,-0.705132 -2.180905,-0.09987 -3.914995,1.484991 -1.233286,1.127155 -1.874542,2.116704 -1.687518,2.60408 0.162106,0.422443 0.403589,0.379709 1.779679,-0.314938 z M 46.409971,27.713242 c 0.780164,-0.827015 1.361452,-1.560692 1.29175,-1.630393 -0.141273,-0.141274 -2.573657,2.181418 -2.89366,2.763167 -0.433571,0.788213 0.237218,0.313871 1.60191,-1.132774 z"
       id="path10407"
       inkscape:connector-curvature="0"
       transform="matrix(0.26458333,0,0,0.26458333,0,87)" />
    <path
       style="opacity:1;fill:#ffffff;fill-opacity:1;fill-rule:nonzero;stroke:none;stroke-width:2.51338577;stroke-linecap:butt;stroke-linejoin:miter;stroke-miterlimit:4;stroke-dasharray:none;stroke-dashoffset:0;stroke-opacity:1;paint-order:stroke fill markers"
       d="m 44.803567,86.014743 c -2.185851,-1.155036 -2.800287,-3.062417 -4.300758,-13.35076 -0.416503,-2.85585 -0.805661,-5.401574 -0.864796,-5.657165 -0.08413,-0.363635 -1.183105,-0.992194 -5.052803,-2.889952 -8.2796,-4.060443 -8.665976,-4.735248 -7.362455,-12.858516 0.233812,-1.457067 0.57453,-3.984415 0.757151,-5.61633 0.39722,-3.549584 0.761314,-4.764114 1.75937,-5.868844 1.004701,-1.112084 2.053031,-1.695544 4.704049,-2.618091 1.222473,-0.425417 2.484636,-0.908949 2.804806,-1.074514 0.87997,-0.455052 1.940891,-1.601134 3.167306,-3.421554 0.607916,-0.902356 2.569238,-3.574524 4.358493,-5.93815 3.50281,-4.627253 5.753924,-7.934394 6.409309,-9.416004 0.558011,-1.261473 0.742557,-2.550793 0.444756,-3.107241 -0.240209,-0.448833 -0.224988,-0.452115 2.096798,-0.452115 h 2.338763 v 0.825423 c 0,1.88042 -1.810563,6.175461 -3.930841,9.324793 -0.634171,0.941958 -2.579449,3.618613 -4.322843,5.948122 -1.743392,2.329509 -3.638465,4.929647 -4.211272,5.778084 -1.459649,2.162017 -2.608562,3.233626 -4.357457,4.064266 -4.433783,2.105831 -5.140187,2.458003 -5.439592,2.711856 -0.650688,0.551694 -1.425149,1.782628 -1.763714,2.803255 -0.493382,1.487333 -0.817087,5.278796 -0.735231,8.611524 0.06426,2.616131 0.112569,2.915609 0.562513,3.486861 0.701447,0.890562 2.206875,1.930723 4.188846,2.894241 2.007738,0.976046 3.346223,1.146865 3.828112,0.488551 0.632412,-0.863946 -0.172719,-2.251767 -2.346607,-4.044889 -2.013372,-1.660723 -2.289821,-2.168793 -2.177365,-4.001654 0.100194,-1.633015 0.700013,-3.546657 1.435377,-4.579381 0.282197,-0.39631 0.956626,-0.878536 1.66012,-1.187011 1.99127,-0.87315 2.162137,-0.978718 3.464023,-2.140198 1.407288,-1.255513 1.878993,-1.330812 2.564421,-0.409363 0.62954,0.846317 0.696565,3.622895 0.214362,8.880136 -0.842523,9.185659 -0.287566,23.242499 1.102386,27.922977 0.387277,1.304101 0.935271,1.443805 1.569909,0.400228 0.781436,-1.28497 1.203742,-4.434135 1.912781,-14.263737 0.866218,-12.008618 1.471722,-15.467559 3.329176,-19.017956 1.403052,-2.681834 5.123099,-6.472066 7.52887,-7.67091 2.646453,-1.318785 6.957371,-0.04576 8.218913,2.427068 0.673114,1.319411 1.199691,3.581877 2.218565,9.532179 1.522184,8.889668 1.786902,9.786488 2.954607,10.009708 0.842496,0.161053 1.867014,-0.462707 2.342609,-1.426261 0.370233,-0.750088 0.415839,-1.262806 0.395894,-4.450677 -0.0124,-1.98161 -0.171031,-5.128874 -0.352517,-6.99392 -0.869967,-8.940264 -0.724629,-11.452711 1.471195,-25.432435 0.427934,-2.724447 0.571322,-4.442585 0.588078,-7.046618 l 0.02216,-3.443689 2.596228,-2.87e-4 c 1.427925,-1.57e-4 2.596228,0.03247 2.596228,0.0725 0,0.04003 -0.187503,0.617777 -0.416675,1.283874 -0.496897,1.444254 -1.306335,6.5449 -1.920401,12.101333 -0.507059,4.588166 -0.819857,14.825995 -0.833472,27.279477 -0.0092,8.449671 -0.07252,8.992905 -1.225945,10.523474 -0.999272,1.326013 -3.234968,1.933789 -5.561518,1.511905 -1.531444,-0.277703 -2.557971,-0.748523 -4.223283,-1.937019 -0.630945,-0.450292 -1.318778,-0.81871 -1.528519,-0.81871 -0.209741,0 -1.584725,0.818977 -3.055519,1.819951 -1.470791,1.000974 -3.359364,2.145351 -4.196824,2.543059 -1.337808,0.635322 -5.529489,1.775922 -6.546029,1.781242 -0.509302,0.0027 -0.554487,0.363435 -0.663827,5.300344 -0.101221,4.570164 -0.254187,5.509517 -1.252149,7.689355 -0.595952,1.301732 -1.841425,2.782605 -2.724223,3.239119 -0.872693,0.451286 -3.286946,0.382407 -4.239537,-0.120958 z m 7.100853,-13.562697 -0.16214,-1.37759 -0.151641,1.165653 c -0.0834,0.64111 -0.09302,1.880941 -0.02136,2.755181 l 0.130286,1.589527 0.183497,-1.37759 c 0.100923,-0.757675 0.110534,-1.997506 0.02136,-2.755181 z M 41.902686,71.233409 c 0.09761,-0.84831 -0.05661,-1.762557 -0.274581,-1.627841 -0.251576,0.155483 -0.242596,2.210667 0.0097,2.210667 0.108823,0 0.228037,-0.262272 0.264921,-0.582826 z m 16.414578,-6.689922 c 2.514397,-1.266228 6.576733,-4.487303 6.386566,-5.063982 -0.117155,-0.355265 -1.86119,-0.538277 -5.461219,-0.573077 -2.313943,-0.02237 -3.030294,-0.104453 -3.745548,-0.4292 -1.49878,-0.680494 -1.976751,0.110665 -1.976751,3.272002 0,2.094318 0.209504,2.996135 0.804308,3.462178 0.584842,0.458238 2.339156,0.164762 3.992644,-0.667921 z m -6.382755,-4.750732 c -0.104099,-0.694179 -0.201397,-0.889375 -0.336738,-0.675547 -0.22836,0.360786 -0.261257,2.390979 -0.04229,2.609944 0.285206,0.285208 0.526903,-0.948303 0.379028,-1.934397 z M 30.151473,59.367728 c -1.289681,-1.289681 -1.540995,-1.038368 -0.278864,0.278864 0.532351,0.555591 1.035409,0.942668 1.117907,0.860172 0.0825,-0.0825 -0.295071,-0.595066 -0.839043,-1.139036 z m 27.741169,-6.013197 c 0.08537,-0.526099 0.0097,-0.859118 -0.272617,-1.199126 -0.833991,-1.004552 -1.371471,0.608687 -0.596734,1.791085 0.418305,0.638414 0.700916,0.445977 0.869351,-0.591959 z m 3.045464,-0.819734 c 0,-0.588502 -0.23099,-1.07775 -0.44608,-0.944817 -0.216935,0.134072 -0.258305,1.224646 -0.0542,1.42875 0.21747,0.217468 0.500281,-0.0561 0.50028,-0.483933 z M 40.865503,52.106098 c 0.142463,-0.544778 -0.05319,-1.301719 -0.297441,-1.150763 -0.244585,0.151162 -0.245148,1.574637 -6.23e-4,1.574637 0.10297,0 0.237099,-0.190744 0.298064,-0.423874 z M 60.39722,47.684421 c 1.514817,-0.807275 3.545025,-2.736759 3.465498,-3.293567 -0.04334,-0.303447 -0.243153,-0.465099 -0.630184,-0.509837 -1.583574,-0.183046 -5.351004,3.166251 -4.895816,4.352448 0.132255,0.344649 0.634791,0.210743 2.060502,-0.549044 z M 46.506817,27.608449 c 0.603176,-0.659971 1.043079,-1.253552 0.97756,-1.31907 -0.140332,-0.140332 -1.859311,1.494832 -2.49067,2.369227 -0.433172,0.599919 -0.433307,0.604553 -0.01106,0.378572 0.235116,-0.12583 0.920991,-0.768758 1.524168,-1.428729 z"
       id="path10409"
       inkscape:connector-curvature="0"
       transform="matrix(0.26458333,0,0,0.26458333,0,87)" />
  </g>
</svg>
