<?xml version="1.0" encoding="UTF-8" standalone="no"?>
<!-- Created with Inkscape (http://www.inkscape.org/) -->

<svg
   xmlns:dc="http://purl.org/dc/elements/1.1/"
   xmlns:cc="http://creativecommons.org/ns#"
   xmlns:rdf="http://www.w3.org/1999/02/22-rdf-syntax-ns#"
   xmlns:svg="http://www.w3.org/2000/svg"
   xmlns="http://www.w3.org/2000/svg"
   xmlns:sodipodi="http://sodipodi.sourceforge.net/DTD/sodipodi-0.dtd"
   xmlns:inkscape="http://www.inkscape.org/namespaces/inkscape"
   width="297mm"
   height="210mm"
   viewBox="0 0 297 210"
   version="1.1"
   id="svg1549"
   sodipodi:docname="Q.svg"
   inkscape:version="0.92.2 (5c3e80d, 2017-08-06)">
  <defs
     id="defs1543">
    <inkscape:path-effect
       effect="spiro"
       id="path-effect10988"
       is_visible="true" />
  </defs>
  <sodipodi:namedview
     id="base"
     pagecolor="#ffffff"
     bordercolor="#666666"
     borderopacity="1.0"
     inkscape:pageopacity="0.0"
     inkscape:pageshadow="2"
     inkscape:zoom="4.4039157"
     inkscape:cx="7.0637295"
     inkscape:cy="744.15806"
     inkscape:document-units="mm"
     inkscape:current-layer="layer1"
     showgrid="false"
     inkscape:window-width="1366"
     inkscape:window-height="705"
     inkscape:window-x="-8"
     inkscape:window-y="-8"
     inkscape:window-maximized="1" />
  <metadata
     id="metadata1546">
    <rdf:RDF>
      <cc:Work
         rdf:about="">
        <dc:format>image/svg+xml</dc:format>
        <dc:type
           rdf:resource="http://purl.org/dc/dcmitype/StillImage" />
        <dc:title />
      </cc:Work>
    </rdf:RDF>
  </metadata>
  <g
     inkscape:label="Capa 1"
     inkscape:groupmode="layer"
     id="layer1"
     transform="translate(0,-87)">
    <path
       style="opacity:1;fill:#216778;fill-opacity:1;fill-rule:nonzero;stroke:none;stroke-width:0.66499996;stroke-linecap:butt;stroke-linejoin:miter;stroke-miterlimit:4;stroke-dasharray:none;stroke-dashoffset:0;stroke-opacity:1;paint-order:stroke fill markers"
       d="m 3.5519807,112.41941 -0.395685,-0.0846 v -8.90159 -8.901601 l 1.45084,-0.13189 1.45084,-0.13189 0.08104,-1.58274 c 0.04457,-0.8705 0.08908,-1.62725 0.09892,-1.68165 0.0098,-0.0544 4.1428883,-0.0989 9.1845583,-0.0989 h 9.166675 v 10.815351 10.81536 h -1.101784 -1.101783 l -0.156464,-1.54333 c -0.269648,-2.65973 -0.851035,-4.89719 -1.718953,-6.6154 -0.232969,-0.4612 -0.507373,-1.27649 -0.609785,-1.81175 -0.394526,-2.062 -2.752133,-5.892721 -4.230953,-6.874611 -0.830188,-0.55121 -1.691756,-0.70469 -2.175737,-0.38757 -0.174273,0.11419 -0.642525,0.27709 -1.040561,0.362 -0.56519,0.12057 -0.846482,0.27683 -1.284256,0.71338 -0.359974,0.35897 -0.560552,0.6766 -0.560552,0.88767 0,0.180781 -0.158535,0.559541 -0.352303,0.841701 -0.193765,0.28216 -0.5278363,0.77034 -0.7423783,1.08484 -1.252609,1.83627 -1.405771,5.00238 -0.430533,8.89981 0.42632,1.70375 0.719079,3.36716 0.729774,4.14648 l 0.0041,0.29676 -2.934655,-0.0156 c -1.614059,-0.009 -3.112712,-0.0537 -3.330337,-0.10022 z"
       id="path2740"
       inkscape:connector-curvature="0" />
    <path
       style="opacity:1;fill:#216778;fill-opacity:1;fill-rule:nonzero;stroke:none;stroke-width:0.66499996;stroke-linecap:butt;stroke-linejoin:miter;stroke-miterlimit:4;stroke-dasharray:none;stroke-dashoffset:0;stroke-opacity:1;paint-order:stroke fill markers"
       d="m 16.512846,97.151049 c -0.11929,-0.0926 -0.835313,-0.87225 -0.835313,-0.90955 0,-0.0527 0.07996,0.007 0.418029,0.31346 0.445719,0.40367 0.604395,0.57134 0.604395,0.63866 0,0.0745 -0.05136,0.0628 -0.187111,-0.0426 z"
       id="path2834"
       inkscape:connector-curvature="0" />
    <path
       style="opacity:1;fill:#216778;fill-opacity:1;fill-rule:nonzero;stroke:none;stroke-width:0.66499996;stroke-linecap:butt;stroke-linejoin:miter;stroke-miterlimit:4;stroke-dasharray:none;stroke-dashoffset:0;stroke-opacity:1;paint-order:stroke fill markers"
       d="m 18.640271,102.13848 c -0.381802,-0.41997 -0.900665,-1.01658 -1.820799,-2.09364 -0.815954,-0.95511 -1.29608,-1.4797 -1.855557,-2.0274 -0.60992,-0.59709 -0.849048,-0.771071 -1.061532,-0.772331 -0.05054,-2.7e-4 -0.120677,-0.0115 -0.155856,-0.0249 -0.09906,-0.0377 -0.08626,-0.1662 0.04202,-0.422 0.117369,-0.23405 0.297304,-0.44905 0.427532,-0.51084 0.277257,-0.13157 0.604428,0.0437 1.199849,0.64287 0.922088,0.927861 1.547317,1.812741 2.687341,3.803391 0.331181,0.57829 0.915847,1.69418 0.915847,1.74797 0,0.0608 -0.06555,0.001 -0.378841,-0.34315 z"
       id="path2836"
       inkscape:connector-curvature="0" />
    <path
       style="opacity:1;fill:#216778;fill-opacity:1;fill-rule:nonzero;stroke:none;stroke-width:0.66499996;stroke-linecap:butt;stroke-linejoin:miter;stroke-miterlimit:4;stroke-dasharray:none;stroke-dashoffset:0;stroke-opacity:1;paint-order:stroke fill markers"
       d="m 12.115442,97.219749 c -0.189163,-0.0447 -0.160477,-0.12022 0.09242,-0.24322 0.159787,-0.0777 0.216691,-0.0927 0.353621,-0.0931 0.180647,-5.3e-4 0.280215,0.0451 0.328178,0.15037 0.03557,0.0781 -0.0232,0.1497 -0.15222,0.18553 -0.1042,0.0289 -0.500194,0.0292 -0.622001,5.3e-4 z"
       id="path2838"
       inkscape:connector-curvature="0" />
    <path
       style="opacity:1;fill:#216778;fill-opacity:1;fill-rule:nonzero;stroke:none;stroke-width:0.66499996;stroke-linecap:butt;stroke-linejoin:miter;stroke-miterlimit:4;stroke-dasharray:none;stroke-dashoffset:0;stroke-opacity:1;paint-order:stroke fill markers"
       d="m 9.4034317,102.47842 c 0.03297,-0.25484 0.169928,-0.80874 0.292597,-1.18333 0.240575,-0.73466 0.5934583,-1.34336 1.0626383,-1.83299 0.513162,-0.53552 1.355775,-1.09282 1.655278,-1.09478 0.129056,-7.9e-4 0.162108,0.0479 0.122809,0.181 -0.07138,0.2418 -0.24833,0.46394 -0.898186,1.12761 -0.605682,0.61856 -0.914638,0.96991 -1.282824,1.45883 -0.277755,0.36883 -0.3599793,0.49755 -0.6837473,1.0704 -0.119565,0.21155 -0.232812,0.38977 -0.251659,0.39606 -0.02761,0.009 -0.0309,-0.0147 -0.01691,-0.1228 z"
       id="path2840"
       inkscape:connector-curvature="0" />
    <path
       style="opacity:1;fill:#216778;fill-opacity:1;fill-rule:nonzero;stroke:none;stroke-width:0.66499996;stroke-linecap:butt;stroke-linejoin:miter;stroke-miterlimit:4;stroke-dasharray:none;stroke-dashoffset:0;stroke-opacity:1;paint-order:stroke fill markers"
       d="m 10.859227,111.8141 c -0.01294,-0.67047 -0.05115,-1.03634 -0.18256,-1.74781 -0.102655,-0.55582 -0.200977,-0.92584 -0.435096,-1.63741 -0.4506523,-1.3697 -0.5714843,-1.93836 -0.5722653,-2.69322 -7.94e-4,-0.76805 0.162221,-1.36072 0.6352173,-2.30941 0.347766,-0.69751 0.79062,-1.45339 1.145302,-1.95484 0.207303,-0.29308 0.530661,-0.63981 0.649105,-0.69602 0.105272,-0.0499 0.222628,-0.0509 0.263141,-0.002 0.07197,0.0867 -0.04752,0.51576 -0.329843,1.18435 -0.281336,0.66626 -0.477387,1.23826 -0.730774,2.13213 -0.349575,1.2332 -0.610311,2.48542 -0.610311,2.93109 0,0.15214 0.008,0.18389 0.05956,0.23541 0.175517,0.17552 0.510252,0.058 0.789308,-0.27713 0.136673,-0.16413 0.259379,-0.41972 0.345583,-0.71983 0.12832,-0.44674 0.266658,-0.76238 0.457335,-1.04347 0.210008,-0.30959 0.401386,-0.75973 0.639373,-1.50387 0.183724,-0.57446 0.33097,-0.88201 0.509778,-1.06475 0.300496,-0.30711 0.604039,-0.21451 0.927595,0.28297 0.222962,0.34282 0.359921,0.69975 0.323898,0.84412 -0.0301,0.12063 -0.08179,0.15337 -0.242144,0.15337 -0.186563,0 -0.250206,0.034 -0.436097,0.23268 -0.174887,0.18695 -0.367927,0.47409 -0.556088,0.82715 -0.38844,0.72886 -0.983017,1.57036 -1.744369,2.46878 -0.448458,0.52919 -0.738627,1.00632 -0.764873,1.25769 -0.01487,0.1423 0.02625,0.2249 0.140361,0.28214 0.142669,0.0716 0.267158,0.0571 0.429218,-0.0498 0.756867,-0.49943 3.045031,-2.72282 3.907292,-3.79668 0.08259,-0.10286 0.190162,-0.26838 0.239033,-0.36782 0.08721,-0.17744 0.137234,-0.22641 0.137234,-0.13435 0,0.15252 -0.205923,1.01294 -0.4479,1.87148 -0.23237,0.82445 -0.272709,1.11437 -0.225846,1.62315 0.03725,0.40438 0.117727,0.83645 0.301919,1.62092 0.406271,1.73028 0.57195,2.05597 1.045131,2.05453 0.193167,-5.3e-4 0.33505,-0.0435 0.386448,-0.11689 0.06467,-0.0923 0.04333,-0.31555 -0.08569,-0.89663 -0.612294,-2.75756 -0.706088,-3.87279 -0.363493,-4.32195 0.101259,-0.13276 0.234241,-0.18735 0.51598,-0.21183 0.312042,-0.0271 0.410755,-0.072 0.474234,-0.21545 0.03667,-0.0829 0.0439,-0.1361 0.03074,-0.22623 -0.0834,-0.57123 -0.801407,-1.73793 -2.510985,-4.08012 -0.721718,-0.98878 -0.978885,-1.39623 -1.203733,-1.90713 -0.147156,-0.33437 -0.211124,-0.58866 -0.21059,-0.83716 7.94e-4,-0.32782 0.09136,-0.66237 0.179483,-0.66237 0.08702,0 1.352733,1.37751 2.739393,2.98138 2.90127,3.35571 3.872283,4.8465 4.124714,6.33266 0.02096,0.12344 0.04873,0.39837 0.0617,0.61096 0.03574,0.58578 0.152185,1.09809 0.352475,1.55069 0.259456,0.58632 0.342762,0.86844 0.411001,1.39189 0.03928,0.30127 0.03723,0.72868 -0.0053,1.11594 l -0.01439,0.13092 H 16.14005 10.87167 Z"
       id="path2842"
       inkscape:connector-curvature="0" />
    <path
       style="opacity:1;fill:#216778;fill-opacity:1;fill-rule:nonzero;stroke:none;stroke-width:0.66499996;stroke-linecap:butt;stroke-linejoin:miter;stroke-miterlimit:4;stroke-dasharray:none;stroke-dashoffset:0;stroke-opacity:1;paint-order:stroke fill markers"
       d="m 14.373531,105.70657 c -0.03844,-0.0384 -0.01029,-0.10825 0.08936,-0.22157 0.110699,-0.1259 0.580012,-0.50992 0.623173,-0.50992 0.04591,0 -0.339256,0.48192 -0.513215,0.64213 -0.110278,0.10157 -0.163327,0.12535 -0.199316,0.0894 z"
       id="path2844"
       inkscape:connector-curvature="0" />
    <path
       style="opacity:1;fill:#216778;fill-opacity:1;fill-rule:nonzero;stroke:none;stroke-width:0.66499996;stroke-linecap:butt;stroke-linejoin:miter;stroke-miterlimit:4;stroke-dasharray:none;stroke-dashoffset:0;stroke-opacity:1;paint-order:stroke fill markers"
       d="m 11.786462,104.578 c -0.07242,-0.0724 -0.09568,-0.18783 -0.05776,-0.28665 0.01778,-0.0463 0.136842,-0.0527 0.217172,-0.0116 0.07736,0.0396 0.266436,0.22598 0.266436,0.26271 0,0.0574 -0.109046,0.10844 -0.231902,0.10844 -0.10055,0 -0.133403,-0.0124 -0.193948,-0.0729 z"
       id="path2846"
       inkscape:connector-curvature="0" />
    <path
       style="opacity:1;fill:#216778;fill-opacity:1;fill-rule:nonzero;stroke:none;stroke-width:0.66499996;stroke-linecap:butt;stroke-linejoin:miter;stroke-miterlimit:4;stroke-dasharray:none;stroke-dashoffset:0;stroke-opacity:1;paint-order:stroke fill markers"
       d="m 8.8613347,105.53518 c -0.02371,-0.0618 -0.01775,-0.64267 0.007,-0.68174 0.09231,-0.14574 0.174164,0.38995 0.09451,0.61851 -0.03348,0.0961 -0.07821,0.12393 -0.101502,0.0632 z"
       id="path2848"
       inkscape:connector-curvature="0" />
    <path
       style="opacity:1;fill:#216778;fill-opacity:1;fill-rule:nonzero;stroke:none;stroke-width:0.66499996;stroke-linecap:butt;stroke-linejoin:miter;stroke-miterlimit:4;stroke-dasharray:none;stroke-dashoffset:0;stroke-opacity:1;paint-order:stroke fill markers"
       d="m 21.303011,108.71744 c -0.05617,-0.0909 -0.03435,-0.69725 0.02582,-0.71731 0.08189,-0.0273 0.139967,0.41694 0.08025,0.61388 -0.03346,0.11036 -0.07609,0.15193 -0.106066,0.10343 z"
       id="path2850"
       inkscape:connector-curvature="0" />
    <path
       style="opacity:1;fill:#216778;fill-opacity:1;fill-rule:nonzero;stroke:none;stroke-width:0.66499996;stroke-linecap:butt;stroke-linejoin:miter;stroke-miterlimit:4;stroke-dasharray:none;stroke-dashoffset:0;stroke-opacity:1;paint-order:stroke fill markers"
       d="m 4.0329217,92.641289 c -1.388518,-0.15992 -1.630651,-0.19144 -1.911649,-0.24884 -0.888807,-0.18156 -1.29564104,-0.47535 -1.61691404,-1.16763 -0.388191,-0.83649 -0.441428,-1.49318 -0.184179,-2.27187 0.342106,-1.03556 0.97564604,-1.5831 1.97767304,-1.70923 0.577461,-0.0727 1.314127,0.0513 1.780127,0.29973 0.516763,0.27543 0.948381,0.98782 1.093661,1.80511 0.04785,0.26923 0.05317,0.78693 0.01027,1.00087 -0.01651,0.0823 -0.05681,0.23379 -0.08957,0.33665 -0.110411,0.34669 -0.143936,0.51032 -0.145616,0.71071 -0.0018,0.21548 0.02408,0.28976 0.193257,0.55458 0.139395,0.21821 0.139038,0.43836 -0.0011,0.60476 -0.144767,0.17205 -0.268756,0.1816 -1.106078,0.0852 z m -0.107593,-0.98489 c 0.213654,-0.10343 0.336158,-0.34643 0.185399,-0.36775 -0.102174,-0.0144 -0.416661,0.11697 -0.532305,0.22244 l -0.10659,0.0972 0.05887,0.0501 c 0.07874,0.067 0.253897,0.0661 0.394623,-0.002 z m -1.601721,-0.48706 c 0.05792,-0.0222 0.113334,-0.14207 0.113334,-0.24512 0,-0.17509 0.183782,-0.25926 0.486275,-0.22268 0.09601,0.0116 0.281167,0.0213 0.411464,0.0215 0.21077,2.6e-4 0.246195,-0.006 0.321149,-0.0597 0.165211,-0.11783 0.275185,-0.50979 0.240837,-0.85837 -0.06039,-0.61283 -0.375569,-1.18057 -0.753772,-1.35777 -0.130207,-0.061 -0.17268,-0.0679 -0.4197,-0.0679 -0.262224,0 -0.282819,0.004 -0.448869,0.0852 -0.346149,0.16945 -0.62693,0.55325 -0.724027,0.98968 -0.08917,0.40079 -0.01206,0.94544 0.181425,1.28169 0.186926,0.32484 0.423447,0.49802 0.591884,0.43338 z"
       id="path2852"
       inkscape:connector-curvature="0" />
    <path
       style="opacity:1;fill:#ffffff;fill-opacity:1;fill-rule:nonzero;stroke:none;stroke-width:2.51338577;stroke-linecap:butt;stroke-linejoin:miter;stroke-miterlimit:4;stroke-dasharray:none;stroke-dashoffset:0;stroke-opacity:1;paint-order:stroke fill markers"
       d="M 81.130819,93.696615 C 81.126959,91.144954 80.781271,89.4747 79.666749,86.622497 78.700268,84.149146 78.469692,83.157617 78.167068,80.173504 77.834073,76.889908 77.433961,75.504895 75.923932,72.408742 73.884879,68.227881 70.678253,63.867611 63.316028,55.264908 59.502601,50.808946 54.457171,45.206976 52.927129,43.730055 51.996723,42.831951 51.890333,42.784861 51.59517,43.14051 c -0.215136,0.259224 -0.320785,0.962756 -0.320785,2.136153 0,1.656707 0.06296,1.874943 1.185404,4.10914 0.689119,1.371671 2.484403,4.165764 4.288141,6.673852 7.662639,10.654868 9.915235,14.713694 8.981999,16.184172 -0.100955,0.159074 -0.78491,0.387099 -1.519901,0.506722 -1.7038,0.277301 -2.29251,0.844775 -2.651391,2.555755 -0.370177,1.764834 6.81e-4,5.003148 1.314903,11.48324 0.565655,2.789 0.997248,5.445726 0.959098,5.903837 l -0.06937,0.832931 h -1.239845 c -1.157111,0 -1.274629,-0.05162 -1.761169,-0.773596 C 59.80918,91.33845 58.034529,84.59276 57.530859,80.46975 c -0.284764,-2.331058 -0.187381,-2.981011 1.334942,-8.909633 0.632939,-2.464963 1.150801,-4.585235 1.150801,-4.711716 0,-0.483079 -0.389488,-0.196204 -0.85278,0.628114 -1.135639,2.020597 -10.031952,11.087351 -13.972432,14.240125 -1.854894,1.4841 -2.705287,1.795212 -3.295026,1.205473 -0.740888,-0.740889 0.129383,-2.427349 3.280466,-6.357072 2.543588,-3.172116 5.014177,-6.758311 6.23885,-9.056032 0.984874,-1.847812 2.366309,-3.388346 3.038418,-3.388346 0.988797,0 1.248162,-0.231953 1.248162,-1.116238 0,-0.936758 -1.2115,-3.191417 -2.175989,-4.049619 -1.090345,-0.970189 -2.481758,-0.445358 -3.369247,1.270855 -0.201596,0.389846 -0.784769,1.911065 -1.29594,3.380492 -0.51117,1.469424 -1.519109,3.795681 -2.239865,5.169458 -0.720755,1.373778 -1.489837,3.059777 -1.709071,3.746666 -0.581468,1.821815 -1.132901,2.817531 -1.933389,3.491098 -0.947478,0.797249 -1.7467,0.982882 -2.215093,0.51449 -0.325938,-0.32594 -0.337356,-0.606134 -0.100665,-2.47045 0.146833,-1.156548 0.771839,-4.09536 1.388903,-6.530692 1.040604,-4.1069 1.82751,-6.549792 3.980666,-12.357694 0.891591,-2.404966 0.953929,-3.143653 0.276205,-3.272908 -1.519008,-0.289706 -7.113521,8.414796 -9.024428,14.041107 -0.665977,1.960844 -0.732418,2.405164 -0.730033,4.882019 0.003,3.077184 0.258883,4.330814 2.089976,10.237837 1.441344,4.64971 2.064697,7.860997 2.233113,11.504178 l 0.133836,2.895151 h -1.930887 -1.930887 l -0.147314,-1.916495 c -0.189468,-2.464913 -1.01473,-6.933963 -2.413558,-13.070168 -1.392758,-6.109574 -1.750258,-8.01856 -2.168468,-11.579211 -0.432555,-3.682793 -0.427249,-9.690354 0.01113,-12.603813 0.748333,-4.973388 1.751161,-7.417602 5.068696,-12.354042 1.651433,-2.457306 2.315688,-3.657239 2.530791,-4.571706 0.4074,-1.731982 0.737918,-2.299394 2.224166,-3.818298 1.541025,-1.574885 2.396321,-2.037223 5.272806,-2.85026 1.186444,-0.335347 2.597808,-0.821557 3.136365,-1.080465 2.274358,-1.093385 4.072933,-0.960036 7.081814,0.525055 1.540586,0.760387 2.321037,1.345772 3.867254,2.900674 5.544543,5.575694 11.815551,16.499902 13.407353,23.355849 0.68341,2.943466 1.258334,4.590789 2.834386,8.121329 3.301887,7.396602 5.076446,14.547404 6.111545,24.627208 0.198787,1.935778 0.406657,3.800595 0.461937,4.14404 l 0.100508,0.624444 H 82.831523 81.13417 l -0.0034,-2.213939 z m 2.27e-4,-12.759356 c -0.0041,-0.774749 -0.235822,-1.602862 -0.448473,-1.602862 -0.25927,0 -0.484079,1.741872 -0.312858,2.424074 0.141921,0.56546 0.167907,0.575667 0.457465,0.179674 0.168848,-0.230912 0.305601,-0.681312 0.303896,-1.000886 z m -25.11068,-11.51297 c 0.580218,-0.704785 1.001624,-1.33474 0.936462,-1.399902 -0.154531,-0.154531 -2.128883,1.520785 -2.563314,2.175073 -0.310012,0.466903 -0.300849,0.506252 0.117888,0.506252 0.275727,0 0.868307,-0.503223 1.508964,-1.281423 z M 34.05223,68.577815 c -0.211011,-1.642718 -0.603513,-1.504904 -0.595669,0.20915 0.0067,1.468255 0.03164,1.546519 0.357901,1.124 0.235619,-0.305136 0.313633,-0.742551 0.237768,-1.33315 z M 45.914545,66.63788 c 0.445509,-0.282095 0.166435,-0.842239 -0.623009,-1.250476 -0.588546,-0.304347 -0.703722,-0.30593 -0.946826,-0.01301 -0.220571,0.265772 -0.201092,0.448989 0.09593,0.902301 0.382774,0.58419 0.915534,0.714742 1.473905,0.361183 z M 37.164107,56.562369 c 1.558728,-2.643125 3.263545,-4.800587 6.42368,-8.12923 2.944966,-3.102001 3.620576,-3.953109 3.841957,-4.839958 l 0.164453,-0.658801 -0.963577,0.129242 c -1.102355,0.147858 -3.549092,1.678595 -5.302537,3.317397 -2.416395,2.258406 -4.24677,5.545273 -5.260281,9.446066 -0.977343,3.761589 -0.770291,3.900456 1.096305,0.735284 z m 33.177294,-1.241861 c -4.529924,-8.616171 -8.42429,-14.300699 -12.433497,-18.148914 -2.313913,-2.221001 -3.416005,-2.710436 -4.427603,-1.966285 -0.727949,0.535494 -1.957121,2.689592 -1.787285,3.132179 0.0651,0.169641 0.457355,0.380338 0.871682,0.468214 1.574407,0.333923 4.591464,3.206453 10.365053,9.868534 7.222793,8.3343 8.765452,10.043351 8.846384,9.800558 0.04772,-0.143165 -0.597909,-1.562595 -1.434734,-3.154286 z M 48.643107,38.372202 c 0.202836,-0.244403 0.179599,-0.399662 -0.101951,-0.681212 -0.467869,-0.467869 -1.518292,-0.465797 -2.443905,0.0048 -0.920341,0.467937 -0.914511,0.461991 -0.73604,0.750763 0.227899,0.368747 2.965628,0.306708 3.281896,-0.07437 z m 14.552487,0.139686 c 0,-0.171115 -2.309876,-2.467607 -3.349292,-3.329885 -1.043821,-0.865932 -0.460132,0.07068 1.097544,1.761158 1.418442,1.53938 2.251748,2.119919 2.251748,1.568727 z"
       id="path10990"
       inkscape:connector-curvature="0"
       transform="matrix(0.26458333,0,0,0.26458333,0,87)" />
    <path
       style="opacity:1;fill:#ffffff;fill-opacity:1;fill-rule:nonzero;stroke:none;stroke-width:2.51338577;stroke-linecap:butt;stroke-linejoin:miter;stroke-miterlimit:4;stroke-dasharray:none;stroke-dashoffset:0;stroke-opacity:1;paint-order:stroke fill markers"
       d="m 81.134175,94.000429 c 0,-2.513679 -0.450052,-4.70999 -1.567051,-7.647404 C 78.682382,84.026387 78.482835,83.092627 77.952191,78.796203 77.340828,73.84621 74.457844,68.769851 67.316829,60.069462 61.266997,52.698538 52.532147,43.003093 51.941343,43.003093 c -0.435755,0 -0.673459,0.984428 -0.633197,2.622325 0.05712,2.323736 1.317116,4.634231 6.433138,11.796661 4.412146,6.177003 7.073689,10.35149 7.838817,12.29477 0.203828,0.51768 0.338243,1.331892 0.2987,1.80936 -0.06483,0.782835 -0.149975,0.887058 -0.866642,1.060847 -2.334136,0.566014 -2.527703,0.654665 -2.951659,1.351808 -0.995013,1.636164 -0.816049,4.409971 0.821786,12.737201 0.560842,2.851474 0.988498,5.559291 0.950348,6.017372 -0.06929,0.831946 -0.07067,0.83295 -1.236354,0.900638 -1.031022,0.05987 -1.221754,-0.0018 -1.636998,-0.529754 -0.671298,-0.853418 -1.314126,-2.695138 -2.200101,-6.303352 -0.984501,-4.00947 -1.538549,-7.701255 -1.353096,-9.016067 0.07927,-0.562 0.639783,-3.014363 1.245585,-5.449696 1.390948,-5.591626 1.409012,-5.67712 1.198958,-5.675017 -0.09605,9.08e-4 -0.395158,0.384144 -0.664693,0.851515 -0.748357,1.297645 -4.139963,4.99524 -8.277518,9.024309 -4.482247,4.364725 -7.322458,6.698585 -8.151904,6.698585 -0.69574,0 -1.132631,-0.377508 -1.132631,-0.978679 0,-0.68653 1.258925,-2.852841 2.664255,-4.584552 2.720016,-3.351729 4.942537,-6.459363 6.490852,-9.075821 1.944162,-3.285388 2.921045,-4.434883 3.768928,-4.434883 1.291578,0 1.480244,-0.952509 0.560658,-2.830549 -1.17659,-2.402912 -2.532418,-3.313438 -3.669624,-2.464391 -0.999993,0.746604 -1.373642,1.436576 -2.531014,4.673727 -0.61459,1.719 -1.624173,4.069181 -2.243517,5.222625 -0.619345,1.153444 -1.392532,2.840722 -1.718194,3.749506 -0.801452,2.236508 -1.139863,2.845413 -1.969265,3.543311 -1.43615,1.208438 -2.488432,0.978645 -2.488432,-0.543417 0,-1.144981 0.546035,-3.989835 1.481314,-7.717682 1.032867,-4.116813 1.871144,-6.787216 3.395533,-10.816757 1.375334,-3.635533 1.622257,-4.894324 0.985953,-5.026282 -1.089975,-0.226042 -4.768508,4.808121 -7.340969,10.046296 -1.917096,3.903685 -2.382032,5.640744 -2.382032,8.899555 0,2.945597 0.266608,4.365522 1.698392,9.045468 1.917349,6.267068 2.61595,9.898107 2.61595,13.596614 v 1.957726 h -1.9301 -1.930101 l -0.0013,-0.851515 c -0.0031,-1.99569 -0.984973,-7.401164 -2.738321,-15.075759 -1.647218,-7.210052 -2.04383,-10.004855 -2.189461,-15.428449 -0.247263,-9.208569 0.885795,-13.622031 5.100851,-19.868721 1.946708,-2.885011 2.628753,-4.177507 3.007544,-5.699389 0.394266,-1.58406 2.506811,-3.916313 4.444994,-4.907281 0.384237,-0.196455 1.651827,-0.625199 2.816867,-0.952764 1.16504,-0.327565 2.502346,-0.791521 2.97179,-1.031013 2.260364,-1.153151 4.152768,-1.022755 7.250504,0.499597 1.547448,0.760479 2.31356,1.334737 3.864275,2.896565 3.43512,3.45974 6.811347,8.344538 9.748011,14.103639 2.0176,3.956722 2.818701,5.996798 3.784698,9.638091 0.91504,3.44921 1.274856,4.457685 2.911763,8.160967 3.039548,6.876567 4.735684,13.632536 5.790969,23.066336 0.258452,2.310444 0.521679,4.583989 0.58495,5.052322 l 0.115039,0.851515 h -1.705714 -1.705714 z m -0.10876,-12.681528 c 0.127323,-0.678692 -0.170948,-1.984504 -0.453296,-1.984504 -0.06553,0 -0.119156,0.61309 -0.119156,1.362423 0,1.462308 0.344578,1.836759 0.572452,0.622081 z M 55.784725,69.580086 c 0.57909,-0.619094 1.052891,-1.245432 1.052891,-1.391863 0,-0.37283 -2.367773,1.69736 -2.457659,2.148778 -0.128227,0.64397 0.320626,0.402122 1.404768,-0.756915 z M 33.991159,69.479004 c 0.164191,-0.654193 -0.06396,-1.952281 -0.343133,-1.952281 -0.109278,0 -0.198687,0.562 -0.198687,1.248888 0,1.283719 0.298807,1.671633 0.54182,0.703393 z m 11.930802,-2.954503 c 0.210891,-0.254108 0.158443,-0.4216 -0.251665,-0.803673 -0.950977,-0.885971 -2.01883,-0.253793 -1.108687,0.65635 0.547757,0.547758 0.988415,0.595479 1.360352,0.147323 z M 36.941713,56.87772 c 1.490971,-2.584902 3.346717,-4.955039 6.507573,-8.311396 2.686373,-2.852526 4.078433,-4.650299 4.078433,-5.267081 0,-0.446794 -1.031971,-0.357082 -2.109449,0.183381 -3.046994,1.528369 -6.079982,4.621113 -7.639275,7.789784 -1.265308,2.571258 -2.771962,7.952762 -2.112402,7.545131 0.13353,-0.08253 0.707334,-0.955445 1.27512,-1.939819 z m 34.554078,0.765408 c -1.237523,-2.961808 -6.604268,-11.961967 -9.22566,-15.47165 -2.032037,-2.720619 -5.679925,-6.420446 -6.884714,-6.982741 -0.816235,-0.38095 -0.942073,-0.385376 -1.62999,-0.05733 -0.784808,0.374249 -1.85695,1.93842 -1.96462,2.866225 -0.05132,0.442228 0.0776,0.573635 0.732466,0.746628 1.788935,0.472569 4.912288,3.525254 11.911632,11.642118 3.90158,4.524509 7.109514,8.05752 7.316139,8.05752 0.04363,0 -0.07123,-0.360345 -0.255253,-0.80077 z M 48.436002,38.464667 c 0.546121,-0.348142 -0.0245,-1.013979 -0.93128,-1.08668 -0.842962,-0.06758 -2.365776,0.708953 -2.132013,1.08719 0.176943,0.286299 2.61402,0.285892 3.063293,-4.99e-4 z m 14.759592,0.01669 c 0,-0.266204 -3.674528,-3.687098 -3.812387,-3.549238 -0.129787,0.129786 2.37151,2.99472 2.997287,3.433031 0.532022,0.372643 0.8151,0.413 0.8151,0.116207 z"
       id="path10992"
       inkscape:connector-curvature="0"
       transform="matrix(0.26458333,0,0,0.26458333,0,87)" />
    <path
       style="opacity:1;fill:#ffffff;fill-opacity:1;fill-rule:nonzero;stroke:none;stroke-width:2.51338577;stroke-linecap:butt;stroke-linejoin:miter;stroke-miterlimit:4;stroke-dasharray:none;stroke-dashoffset:0;stroke-opacity:1;paint-order:stroke fill markers"
       d="M 81.126253,94.150756 C 81.115419,91.744282 80.658076,89.390647 79.703285,86.827728 78.636353,83.963793 78.490312,83.34921 78.082511,80.007034 77.444109,74.774938 75.878541,71.364353 71.259206,65.142481 66.584791,58.846423 52.777025,43.003093 51.964303,43.003093 c -0.441702,0 -0.576383,0.532963 -0.576383,2.280871 0,2.711509 0.884349,4.383908 6.502795,12.297491 6.174582,8.696901 8.117421,12.073208 7.984964,13.876444 -0.07462,1.015889 0.103499,0.902665 -2.396853,1.523608 -1.152636,0.286248 -1.55661,0.82606 -1.875381,2.505988 -0.315846,1.66451 0.0048,4.451884 1.276857,11.101146 0.560219,2.928278 0.98807,5.687186 0.950776,6.130907 -0.0673,0.800724 -0.07654,0.80727 -1.234798,0.874527 -1.031022,0.05987 -1.221754,-0.0018 -1.636998,-0.529754 -1.331057,-1.692162 -3.497249,-10.407665 -3.525379,-14.184066 -0.01215,-1.631636 0.186164,-2.717488 1.28247,-7.021962 0.713263,-2.800524 1.258841,-5.129862 1.212394,-5.176309 -0.04645,-0.04645 -0.577604,0.606642 -1.180349,1.451313 -1.991608,2.790989 -12.033412,12.698254 -14.723433,14.52617 -1.234842,0.839096 -2.401103,0.623656 -2.401103,-0.443548 0,-0.774622 1.326317,-2.939453 3.408874,-5.564008 2.704912,-3.408882 3.707444,-4.83326 5.78337,-8.216906 1.884074,-3.070935 2.916759,-4.314342 3.583185,-4.314342 0.719684,0 1.302952,-0.444759 1.302952,-0.993538 0,-0.82906 -1.307471,-3.22551 -2.175707,-3.987831 -0.932693,-0.818915 -1.406765,-0.865684 -2.227884,-0.219791 -0.76605,0.602575 -1.270481,1.597247 -2.496167,4.922117 -0.539989,1.464806 -1.54434,3.787285 -2.231891,5.161062 -0.687551,1.373777 -1.380514,2.906504 -1.539917,3.40606 -0.7482,2.34479 -2.024421,4.016169 -3.313729,4.339765 -1.377383,0.345701 -1.521376,-0.781521 -0.652249,-5.105983 0.982768,-4.889892 2.186324,-9.069002 4.109287,-14.268679 1.404852,-3.798711 1.696909,-5.105702 1.208374,-5.407633 -0.914693,-0.565311 -4.33501,4.056135 -7.165321,9.681604 -1.892947,3.762384 -2.376119,5.331387 -2.525659,8.201576 -0.16117,3.093406 0.139031,4.975531 1.532724,9.609478 2.084496,6.930825 2.714823,10.154627 2.717208,13.897139 l 0.0013,2.100404 H 39.045177 37.147684 L 36.995946,93.81015 C 36.749651,91.138013 36.007414,87.103385 34.58353,80.69682 32.464675,71.163334 32.086915,68.377527 32.086915,62.285421 c 0,-6.027286 0.793204,-10.214815 2.624864,-13.857343 0.41504,-0.825368 1.683734,-2.916409 2.819321,-4.646757 1.289932,-1.965531 2.200261,-3.617801 2.425954,-4.403167 0.501243,-1.744223 0.873585,-2.405654 2.08068,-3.696136 1.393173,-1.489415 2.452055,-2.075067 5.647192,-3.123382 1.474647,-0.483826 3.294267,-1.102292 4.0436,-1.374368 1.209938,-0.439316 1.51491,-0.467029 2.724848,-0.247607 2.001478,0.362969 4.762914,1.8183 6.540084,3.446753 3.47464,3.183876 7.594244,9.127418 10.801022,15.583129 1.773217,3.569749 2.321904,5.013048 3.405801,8.958832 0.874149,3.182239 1.208411,4.090773 3.515991,9.556645 1.875198,4.441707 3.295513,9.421116 4.228962,14.826113 0.369389,2.138905 1.585155,11.625293 1.593284,12.432118 9.09e-4,0.09367 -0.764647,0.170303 -1.701313,0.170303 h -1.70303 l -0.0079,-1.759798 z M 80.958245,81.514763 c 0.138845,-0.72631 -0.05211,-1.953296 -0.303984,-1.953296 -0.110712,0 -0.201298,0.562 -0.201298,1.248889 0,1.264931 0.314357,1.703173 0.505282,0.704407 z M 55.498128,69.854197 c 1.076238,-1.15084 1.434966,-1.646262 1.192039,-1.646262 -0.31283,0 -2.350328,1.937169 -2.350328,2.234593 0,0.459854 0.339152,0.287587 1.158289,-0.588331 z M 33.944455,69.513591 c 0.111172,-0.782778 -0.06632,-1.986868 -0.292888,-1.986868 -0.111226,0 -0.202228,0.562 -0.202228,1.248888 0,1.223078 0.351758,1.747379 0.495116,0.73798 z M 45.747426,66.599028 C 46.205468,66.353892 46.20517,66.34955 45.692917,65.804281 45.065411,65.136332 44.34873,65.0775 44.34873,65.693938 c 0,0.394165 0.543204,1.151573 0.825895,1.151573 0.06173,0 0.319495,-0.110917 0.572801,-0.246483 z m -8.705225,-9.914929 c 1.92557,-3.120311 2.825626,-4.270304 6.234716,-7.966032 3.087643,-3.347254 4.325209,-4.935911 4.174873,-5.359266 -0.163238,-0.459687 -1.535259,-0.170923 -2.784114,0.585962 -4.54612,2.755237 -7.181823,6.550135 -8.715478,12.548588 -0.451258,1.764968 -0.549086,2.404687 -0.36773,2.404687 0.05032,0 0.706301,-0.996272 1.457733,-2.213939 z m 34.432016,0.977444 C 70.445467,55.199398 65.41813,46.619608 63.128193,43.417996 60.20404,39.32967 56.887842,35.887078 55.190688,35.177963 c -0.986249,-0.412082 -1.579937,-0.13524 -2.612136,1.218064 -0.95006,1.245612 -0.930348,2.045273 0.05826,2.36332 1.787766,0.575148 4.995454,3.729764 11.927882,11.730535 4.21668,4.866506 6.996172,7.954015 7.160501,7.954015 0.04175,0 -0.07119,-0.35206 -0.250975,-0.782354 z M 48.303895,38.550921 c 1.004701,-0.38554 -0.125544,-1.354597 -1.318819,-1.130737 -1.018158,0.191007 -1.871067,0.811263 -1.467351,1.067093 0.353878,0.224248 2.254503,0.267664 2.78617,0.06364 z m 14.690594,-0.259544 c -0.200463,-0.366945 -0.747903,-0.906868 -2.694046,-2.657051 -1.313738,-1.181456 -0.781918,-0.264172 0.822221,1.418166 1.48736,1.559867 2.364228,2.14023 1.871825,1.238885 z"
       id="path10994"
       inkscape:connector-curvature="0"
       transform="matrix(0.26458333,0,0,0.26458333,0,87)" />
    <path
       style="opacity:1;fill:#ffffff;fill-opacity:1;fill-rule:nonzero;stroke:none;stroke-width:2.51338577;stroke-linecap:butt;stroke-linejoin:miter;stroke-miterlimit:4;stroke-dasharray:none;stroke-dashoffset:0;stroke-opacity:1;paint-order:stroke fill markers"
       d="m 81.134175,94.350803 c 0,-2.234264 -0.561434,-5.14518 -1.461138,-7.575676 -1.0245,-2.767628 -1.174936,-3.400135 -1.60769,-6.759519 -0.585517,-4.545245 -1.81914,-7.581453 -4.981794,-12.261265 -3.002584,-4.442955 -9.837193,-12.70782 -17.120784,-20.703594 -3.24427,-3.561492 -3.998567,-4.245487 -4.323511,-3.920543 -0.07579,0.07579 -0.137802,1.023378 -0.137802,2.105748 0,3.028768 0.565661,4.061432 8.035314,14.66917 4.759363,6.758821 6.461425,9.850095 6.340749,11.516028 -0.06968,0.961972 -0.08557,0.978811 -1.205966,1.278317 -1.958096,0.523439 -2.338453,0.743643 -2.737677,1.584944 -0.655673,1.381732 -0.345459,5.496441 0.909211,12.0598 0.581828,3.043623 1.026889,5.904713 0.989025,6.357978 -0.06862,0.821478 -0.07258,0.824339 -1.235832,0.891884 -1.031022,0.05987 -1.221754,-0.0018 -1.636998,-0.529754 -1.503301,-1.911138 -3.948543,-12.488545 -3.564038,-15.416998 0.08314,-0.633221 0.660515,-3.18418 1.283052,-5.668801 0.622537,-2.48462 1.101694,-4.664712 1.064795,-4.844647 -0.03741,-0.182427 -0.514376,0.309261 -1.078154,1.111431 -1.85687,2.642044 -11.891301,12.513462 -14.691866,14.453192 -0.832585,0.576664 -1.718887,0.641357 -2.122586,0.15493 -0.657543,-0.792292 0.211055,-2.474949 3.281737,-6.357415 2.270001,-2.870111 4.100685,-5.480338 5.972105,-8.515149 1.799426,-2.91806 2.552099,-3.740092 3.633099,-3.967891 1.107873,-0.233461 1.184116,-0.956581 0.28718,-2.723688 -1.227865,-2.419088 -2.324507,-3.156034 -3.569655,-2.398815 -0.877529,0.533659 -1.154671,1.048721 -2.55283,4.744389 -0.597281,1.578759 -1.573623,3.8411 -2.16965,5.027428 -0.596026,1.186329 -1.328898,2.808004 -1.628604,3.603725 -1.063403,2.823335 -2.078853,4.199206 -3.296589,4.466666 -1.489585,0.327165 -1.652603,-0.834735 -0.739185,-5.268482 0.872161,-4.233483 2.234976,-8.997529 3.878463,-13.558102 1.593263,-4.421204 1.799718,-5.16212 1.590407,-5.707574 -0.121603,-0.316892 -0.206693,-0.319223 -0.782554,-0.02143 -1.828422,0.945512 -6.707956,8.91141 -8.368875,13.662284 -0.576966,1.650349 -0.629403,2.076116 -0.627287,5.093413 0.0025,3.6057 -0.04736,3.350427 2.021128,10.342139 1.4386,4.862622 2.163295,8.86222 2.163295,11.939243 v 2.242248 h -1.890916 -1.890917 l -0.28346,-2.48255 c -0.283858,-2.486038 -1.226901,-7.358676 -2.947388,-15.228961 -1.410487,-6.452201 -1.641033,-8.25133 -1.774949,-13.85131 -0.22189,-9.278788 0.735704,-13.016533 5.017016,-19.582754 1.720626,-2.638911 2.509879,-4.150618 3.208529,-6.145494 0.476301,-1.359998 2.407516,-3.488815 3.893331,-4.291698 0.603148,-0.32592 2.016268,-0.8708 3.140268,-1.210844 1.124,-0.340045 2.605636,-0.874447 3.292524,-1.187559 2.961333,-1.349899 7.10324,-0.165312 10.415915,2.978955 4.984823,4.73141 11.268417,15.102082 13.400311,22.116366 0.389072,1.280111 1.025732,3.374838 1.4148,4.654948 0.389067,1.280111 1.350344,3.822208 2.136174,5.649102 3.188583,7.412822 4.659226,13.308831 5.884179,23.590477 0.320181,2.687438 0.582148,5.012074 0.582148,5.165857 0,0.196573 -0.505734,0.279606 -1.70303,0.279606 h -1.70303 z M 80.907105,80.69682 c 0,-0.624444 -0.102182,-1.135353 -0.227071,-1.135353 -0.124889,0 -0.227071,0.510909 -0.227071,1.135353 0,0.624445 0.102182,1.135354 0.227071,1.135354 0.124889,0 0.227071,-0.510909 0.227071,-1.135354 z M 56.005795,69.294089 c 0.440873,-0.530755 0.754944,-1.01165 0.697935,-1.068658 -0.129366,-0.129369 -2.363891,2.053674 -2.363891,2.309431 0,0.363267 0.874673,-0.288173 1.665956,-1.240773 z M 33.90348,68.775611 c 0,-0.561999 -0.102182,-1.021818 -0.22707,-1.021818 -0.124889,0 -0.227071,0.459819 -0.227071,1.021818 0,0.562 0.102182,1.021818 0.227071,1.021818 0.124888,0 0.22707,-0.459818 0.22707,-1.021818 z m 11.675567,-2.06793 c 0.197548,-0.0758 0.359178,-0.274376 0.359178,-0.441264 0,-0.342836 -0.858514,-1.010401 -1.299414,-1.010401 -0.409901,0 -0.360148,0.681564 0.08572,1.174242 0.429246,0.474312 0.38168,0.458869 0.854518,0.277423 z M 37.622729,55.775817 c 1.972697,-2.981087 2.620416,-3.780157 6.773883,-8.356715 3.301685,-3.638009 3.823643,-4.820834 1.846356,-4.184078 -2.789814,0.898419 -6.671863,4.621824 -8.331472,7.990998 -1.13785,2.309947 -2.728284,7.444945 -2.305882,7.444945 0.05571,0 0.96341,-1.302817 2.017115,-2.89515 z m 32.444704,-0.782754 c -3.314237,-6.330316 -7.288159,-12.42088 -10.200515,-15.633637 -3.832583,-4.227904 -5.393333,-5.084037 -6.707562,-3.679362 -0.651917,0.696782 -1.317295,1.908481 -1.317295,2.398884 0,0.176568 0.460193,0.496782 1.02265,0.711587 1.42854,0.545564 4.978362,3.994207 9.828866,9.548718 6.467901,7.406656 8.725224,9.904599 8.843571,9.786252 0.06147,-0.06147 -0.599903,-1.471066 -1.469715,-3.132442 z M 48.152163,38.545631 c 1.208532,-0.323874 0.03576,-1.340537 -1.248791,-1.082567 -0.817074,0.164088 -1.504013,0.677824 -1.315091,0.983508 0.16146,0.261248 1.732219,0.321936 2.563882,0.09906 z m 14.842855,-0.261515 c -0.246372,-0.460353 -3.432554,-3.345214 -3.432554,-3.107935 0,0.23177 3.224621,3.512569 3.452423,3.512569 0.108176,0 0.09924,-0.182085 -0.01987,-0.404634 z"
       id="path10996"
       inkscape:connector-curvature="0"
       transform="matrix(0.26458333,0,0,0.26458333,0,87)" />
    <path
       style="opacity:1;fill:#ffffff;fill-opacity:1;fill-rule:nonzero;stroke:none;stroke-width:2.51338577;stroke-linecap:butt;stroke-linejoin:miter;stroke-miterlimit:4;stroke-dasharray:none;stroke-dashoffset:0;stroke-opacity:1;paint-order:stroke fill markers"
       d="m 81.134175,94.464339 c 0,-2.049808 -0.554795,-4.973735 -1.389588,-7.323522 -1.031955,-2.904753 -1.286944,-3.961415 -1.683266,-6.97536 C 77.245951,73.964773 75.210542,70.0572 68.325967,61.475544 63.144183,55.016429 54.288565,44.963236 52.48991,43.497928 l -0.646867,-0.526982 -0.25002,0.640518 c -0.14587,0.373697 -0.198128,1.287889 -0.12545,2.194569 0.206418,2.575122 1.03582,4.060269 7.057743,12.637759 5.81639,8.284734 7.47921,11.220715 7.352203,12.981523 l -0.07061,0.978976 -1.43708,0.38664 c -0.790392,0.212654 -1.59813,0.520201 -1.794971,0.683437 -1.435711,1.190623 -1.316853,4.388892 0.523419,14.084289 0.443732,2.337788 0.774885,4.636878 0.735893,5.10909 -0.07057,0.854607 -0.07598,0.85889 -1.173538,0.928757 -1.884132,0.119939 -2.371242,-0.679223 -3.779734,-6.201099 -1.100938,-4.31613 -1.683554,-8.016746 -1.503428,-9.549343 0.07587,-0.645566 0.656711,-3.292549 1.290751,-5.882186 0.634038,-2.589638 1.108945,-4.752284 1.055348,-4.805882 -0.0536,-0.0536 -0.536982,0.492802 -1.074185,1.214224 -1.331209,1.787707 -11.26822,11.695873 -13.464012,13.42493 -1.841336,1.449941 -2.764592,1.743439 -3.33235,1.059332 -0.701829,-0.845652 0.04622,-2.159106 4.766418,-8.369065 1.186444,-1.560904 3.025716,-4.23004 4.087271,-5.931415 2.085871,-3.343066 2.797923,-4.171833 3.899628,-4.538836 1.234378,-0.4112 1.282277,-0.794543 0.338001,-2.705151 -0.940279,-1.902525 -1.695616,-2.641046 -2.701189,-2.641046 -1.04212,0 -1.797603,1.020131 -2.888495,3.900343 -0.535613,1.414144 -1.618029,3.950625 -2.405369,5.636625 -0.787339,1.685999 -1.762834,3.882908 -2.167767,4.882019 -1.135371,2.801357 -3.044027,4.450657 -4.020503,3.474181 -1.040916,-1.040917 1.09148,-10.061753 4.927478,-20.845086 1.057036,-2.971422 1.145412,-3.63313 0.485233,-3.63313 -1.093846,0 -4.305919,4.433082 -6.827923,9.423432 -1.79033,3.542567 -2.421146,5.484569 -2.621858,8.071535 -0.216622,2.792024 0.181808,5.214775 1.731405,10.528239 1.838077,6.302641 2.276677,8.513204 2.425586,12.225066 l 0.125255,3.122222 H 39.079466 37.152742 L 36.874869,93.128938 C 36.536704,90.296468 35.842185,86.658576 34.241317,79.334397 32.522993,71.472841 32.290358,69.75301 32.151793,63.88688 31.930198,54.505724 32.84835,50.965139 37.293624,44.058925 c 1.831974,-2.846168 2.256398,-3.660361 3.067714,-5.884948 0.468927,-1.285773 2.294732,-3.359823 3.664167,-4.162365 0.944805,-0.553693 6.524299,-2.597559 8.384233,-3.07129 2.197769,-0.55978 5.906948,0.936196 8.632643,3.481696 5.120502,4.781983 11.283045,14.917828 13.500721,22.205314 1.707835,5.612101 2.30464,7.329552 3.616647,10.407767 2.219044,5.206294 3.501441,9.399776 4.559774,14.91061 0.448254,2.334089 1.820712,12.522746 1.820712,13.516326 0,0.406776 -0.158498,0.448519 -1.70303,0.448519 h -1.70303 z m -0.22707,-13.653983 c 0,-0.562 -0.102182,-1.021818 -0.227071,-1.021818 -0.250784,0 -0.316827,1.651117 -0.07569,1.892254 0.268289,0.268291 0.302761,0.169184 0.302761,-0.870436 z M 55.926279,69.347146 c 0.397335,-0.501679 0.641073,-0.912141 0.541638,-0.912141 -0.241898,0 -2.128078,1.86032 -2.128078,2.098903 0,0.366376 0.874387,-0.287726 1.58644,-1.186762 z M 33.90348,68.76221 c 0,-0.632324 -0.08837,-0.9806 -0.22707,-0.894881 -0.390678,0.241453 -0.258235,1.9301 0.15138,1.9301 0.04163,0 0.07569,-0.465849 0.07569,-1.035219 z m 12.034745,-2.479142 c 0,-0.417408 -1.030874,-1.118425 -1.352439,-0.919688 -0.316391,0.195542 -0.300111,0.647035 0.03543,0.982575 0.38851,0.388511 1.31701,0.344176 1.31701,-0.06289 z m -8.952537,-9.597139 c 1.651965,-2.675114 3.182826,-4.630439 6.354851,-8.116864 1.5894,-1.746936 3.142537,-3.558131 3.451416,-4.024879 1.975471,-2.985138 -2.991583,-0.723675 -6.195006,2.820541 -2.396786,2.651765 -3.895416,5.873323 -4.977891,10.700822 -0.21534,0.960348 0.148356,0.593195 1.36663,-1.37962 z m 33.721292,-0.47683 c -2.436373,-4.845705 -6.970195,-12.132774 -9.487927,-15.249642 -1.813738,-2.245348 -4.983,-5.268984 -5.935427,-5.662695 -0.529863,-0.219033 -0.941476,-0.250242 -1.362425,-0.103301 -0.676219,0.236049 -2.134597,2.244879 -2.028752,2.794488 0.03771,0.195808 0.545527,0.582463 1.128483,0.859232 1.935158,0.918753 6.514197,5.724635 17.638213,18.512008 0.420732,0.483645 0.81037,0.833949 0.865864,0.778455 0.05549,-0.05549 -0.31262,-0.923337 -0.818029,-1.928545 z M 48.299571,38.392965 c 0.368154,-0.269201 0.371992,-0.322773 0.0427,-0.59606 -0.454318,-0.377051 -1.290349,-0.38369 -2.17496,-0.01727 -1.157165,0.479314 -0.813101,0.859698 0.806098,0.891192 0.506908,0.0099 1.10368,-0.115177 1.326161,-0.277858 z m 14.557154,-0.185483 c -0.137823,-0.359161 -3.067191,-3.036492 -3.067191,-2.803295 0,0.205717 3.00704,3.305132 3.108343,3.203829 0.04473,-0.04473 0.02622,-0.224975 -0.04115,-0.400534 z"
       id="path10998"
       inkscape:connector-curvature="0"
       transform="matrix(0.26458333,0,0,0.26458333,0,87)" />
  </g>
</svg>
