<?xml version="1.0" encoding="UTF-8" standalone="no"?>
<!-- Created with Inkscape (http://www.inkscape.org/) -->

<svg
   xmlns:dc="http://purl.org/dc/elements/1.1/"
   xmlns:cc="http://creativecommons.org/ns#"
   xmlns:rdf="http://www.w3.org/1999/02/22-rdf-syntax-ns#"
   xmlns:svg="http://www.w3.org/2000/svg"
   xmlns="http://www.w3.org/2000/svg"
   xmlns:sodipodi="http://sodipodi.sourceforge.net/DTD/sodipodi-0.dtd"
   xmlns:inkscape="http://www.inkscape.org/namespaces/inkscape"
   width="297mm"
   height="210mm"
   viewBox="0 0 297 210"
   version="1.1"
   id="svg1549"
   sodipodi:docname="R.svg"
   inkscape:version="0.92.2 (5c3e80d, 2017-08-06)">
  <defs
     id="defs1543" />
  <sodipodi:namedview
     id="base"
     pagecolor="#ffffff"
     bordercolor="#666666"
     borderopacity="1.0"
     inkscape:pageopacity="0.0"
     inkscape:pageshadow="2"
     inkscape:zoom="4.3479337"
     inkscape:cx="27.943047"
     inkscape:cy="733.39392"
     inkscape:document-units="mm"
     inkscape:current-layer="layer1"
     showgrid="false"
     inkscape:window-width="1366"
     inkscape:window-height="705"
     inkscape:window-x="-8"
     inkscape:window-y="-8"
     inkscape:window-maximized="1" />
  <metadata
     id="metadata1546">
    <rdf:RDF>
      <cc:Work
         rdf:about="">
        <dc:format>image/svg+xml</dc:format>
        <dc:type
           rdf:resource="http://purl.org/dc/dcmitype/StillImage" />
        <dc:title />
      </cc:Work>
    </rdf:RDF>
  </metadata>
  <g
     inkscape:label="Capa 1"
     inkscape:groupmode="layer"
     id="layer1"
     transform="translate(0,-87)">
    <path
       style="opacity:1;fill:#216778;fill-opacity:1;fill-rule:nonzero;stroke:none;stroke-width:0.66499996;stroke-linecap:butt;stroke-linejoin:miter;stroke-miterlimit:4;stroke-dasharray:none;stroke-dashoffset:0;stroke-opacity:1;paint-order:stroke fill markers"
       d="m 22.671348,106.22277 c -2.827616,-4.38814 -4.110321,-5.99416 -7.136953,-8.935864 -1.81751,-1.766512 -1.768242,-1.734072 -4.304726,-2.834662 -1.7208552,-0.74668 -2.9656162,-1.11534 -3.7884442,-1.12203 -1.029401,-0.008 -1.055156,-0.0393 -1.055156,-1.26853 v -1.10572 h 9.2326222 9.232622 v 7.827472 c 0,7.657424 -0.06881,10.242094 -0.272663,10.242094 -0.0557,0 -0.913985,-1.26124 -1.907302,-2.80276 z"
       id="path2738"
       inkscape:connector-curvature="0" />
    <path
       style="opacity:1;fill:#216778;fill-opacity:1;fill-rule:nonzero;stroke:none;stroke-width:0.66499996;stroke-linecap:butt;stroke-linejoin:miter;stroke-miterlimit:4;stroke-dasharray:none;stroke-dashoffset:0;stroke-opacity:1;paint-order:stroke fill markers"
       d="m 14.751422,112.4457 c 0,-1.05509 -0.50849,-1.79742 -2.354527,-3.43729 -0.772459,-0.68619 -1.790261,-1.5525 -2.261785,-1.92514 -0.4715222,-0.37263 -0.9595572,-0.76182 -1.0845172,-0.86486 -0.286266,-0.23604 -0.442775,-0.83189 -0.26516,-1.0095 0.258339,-0.25834 2.2419492,0.8552 3.4473912,1.93527 0.260826,0.2337 0.680574,0.5305 0.932775,0.65956 0.854967,0.43753 2.552817,0.22601 2.970305,-0.37004 0.290801,-0.41518 0.249338,-1.45338 -0.08423,-2.1091 -0.66076,-1.29892 -2.541924,-3.29013 -4.601512,-4.8707 -1.170632,-0.898364 -4.2167352,-3.831674 -4.2167352,-4.060594 0,-0.57809 3.1417282,1.22543 7.7817792,4.467164 2.340446,1.63513 3.656745,2.39204 4.159869,2.39204 0.405662,0 1.05346,0.6584 1.633387,1.66012 0.248337,0.42896 1.065744,1.74214 1.816459,2.91817 1.704205,2.66973 2.020129,3.29751 2.11319,4.19919 l 0.0742,0.71893 h -4.418515 c -2.430182,0 -4.693883,0.0377 -5.030447,0.0839 l -0.611933,0.0839 z"
       id="path2742"
       inkscape:connector-curvature="0" />
    <path
       style="opacity:1;fill:#216778;fill-opacity:1;fill-rule:nonzero;stroke:none;stroke-width:0.66499996;stroke-linecap:butt;stroke-linejoin:miter;stroke-miterlimit:4;stroke-dasharray:none;stroke-dashoffset:0;stroke-opacity:1;paint-order:stroke fill markers"
       d="m 15.407561,99.835826 c -2.448258,-1.75404 -4.024225,-2.7731 -6.0538642,-3.91459 -1.809441,-1.017642 -2.279854,-1.344492 -2.138479,-1.485862 0.382545,-0.38255 5.0420562,1.566672 6.4797592,2.710692 1.288399,1.02521 4.138422,4.097684 3.80101,4.097684 -0.06781,0 -1.0076,-0.63356 -2.088426,-1.407924 z"
       id="path2744"
       inkscape:connector-curvature="0" />
    <path
       style="opacity:1;fill:#216778;fill-opacity:1;fill-rule:nonzero;stroke:none;stroke-width:0.66499996;stroke-linecap:butt;stroke-linejoin:miter;stroke-miterlimit:4;stroke-dasharray:none;stroke-dashoffset:0;stroke-opacity:1;paint-order:stroke fill markers"
       d="m 10.443505,104.46022 c -0.198949,-0.10446 -0.401381,-0.35031 -0.4509002,-0.54762 -0.085,-0.33865 0.1408562,-2.37148 0.2788042,-2.50942 0.07963,-0.0796 1.522338,0.99743 1.522338,1.13651 0,0.0552 -0.192897,0.15713 -0.428656,0.22654 -0.422167,0.12429 -0.428914,0.13877 -0.445561,0.95645 -0.0093,0.45664 -0.03897,0.85205 -0.06595,0.87868 -0.02697,0.0266 -0.21151,-0.0369 -0.410077,-0.14114 z"
       id="path2764"
       inkscape:connector-curvature="0" />
    <path
       style="opacity:1;fill:#216778;fill-opacity:1;fill-rule:nonzero;stroke:none;stroke-width:0.66499996;stroke-linecap:butt;stroke-linejoin:miter;stroke-miterlimit:4;stroke-dasharray:none;stroke-dashoffset:0;stroke-opacity:1;paint-order:stroke fill markers"
       d="m 13.745965,106.71315 c -0.107752,-0.10775 0.272677,-1.22251 0.455835,-1.3357 0.229785,-0.14202 0.777139,0.60081 0.731684,0.99298 -0.03511,0.30288 -0.107826,0.35192 -0.572577,0.38612 -0.292799,0.0215 -0.569524,0.002 -0.614942,-0.0434 z"
       id="path2766"
       inkscape:connector-curvature="0" />
    <path
       style="opacity:1;fill:#216778;fill-opacity:1;fill-rule:nonzero;stroke:none;stroke-width:0.66499996;stroke-linecap:butt;stroke-linejoin:miter;stroke-miterlimit:4;stroke-dasharray:none;stroke-dashoffset:0;stroke-opacity:1;paint-order:stroke fill markers"
       d="m 12.189432,104.30667 c 0,-0.27582 0.444688,-0.70035 0.694851,-0.66335 0.357415,0.0529 0.463415,0.37021 0.123656,0.37021 -0.142245,0 -0.332518,0.089 -0.422826,0.19785 -0.175408,0.21135 -0.395681,0.2644 -0.395681,0.0953 z"
       id="path2768"
       inkscape:connector-curvature="0" />
    <path
       style="opacity:1;fill:#216778;fill-opacity:1;fill-rule:nonzero;stroke:none;stroke-width:0.66499996;stroke-linecap:butt;stroke-linejoin:miter;stroke-miterlimit:4;stroke-dasharray:none;stroke-dashoffset:0;stroke-opacity:1;paint-order:stroke fill markers"
       d="m 0.52917581,92.288264 c -0.07435,-0.12031 -0.170003,-1.30962 -0.212556,-2.64293 l -0.07737,-2.42419 1.70893599,0.0894 c 1.585153,0.0829 1.738043,0.12322 2.110753,0.55653 0.481026,0.55922 0.492972,0.83667 0.07546,1.75252 -0.315634,0.69237 -0.315079,0.70006 0.110001,1.52267 0.43666,0.84502 0.426516,1.34786 -0.02719,1.34786 -0.139959,0 -0.663022,-0.46972 -1.162365,-1.04383 -0.506002,-0.58176 -1.052272,-1.04383 -1.234054,-1.04383 -0.348689,0 -0.665488,0.61638 -0.665488,1.29481 0,0.50743 -0.42806399,0.91148 -0.62612799,0.591 z m 2.53835999,-3.273 c 0.400065,-0.25293 -0.04978,-0.59608 -0.781418,-0.59608 -0.655331,0 -1.068171,0.27062 -0.879227,0.57634 0.143106,0.23155 1.303798,0.24534 1.660645,0.0197 z"
       id="path2858"
       inkscape:connector-curvature="0" />
    <path
       style="opacity:1;fill:#216778;fill-opacity:1;fill-rule:nonzero;stroke:none;stroke-width:0.66499996;stroke-linecap:butt;stroke-linejoin:miter;stroke-miterlimit:4;stroke-dasharray:none;stroke-dashoffset:0;stroke-opacity:1;paint-order:stroke fill markers"
       d="m 3.1968898,103.5572 v -9.119176 h 1.313117 1.313119 l -0.100354,0.43215 c -0.0552,0.23768 -0.101105,0.69144 -0.102023,1.008352 -0.0024,0.85552 0.440597,1.51485 2.107501,3.13613 l 1.447155,1.407554 -0.11226,1.12772 c -0.161846,1.62584 -0.247619,1.82874 -0.916345,2.16761 -0.503494,0.25514 -0.580033,0.34648 -0.739092,0.8821 -0.254998,0.85867 -0.225343,1.35358 0.110738,1.84816 0.158496,0.23325 1.185699,1.17243 2.282669,2.08706 1.0969702,0.91463 2.2193092,1.91559 2.4940842,2.22436 0.717555,0.80632 1.182566,1.56246 1.045295,1.69974 -0.06884,0.0688 -2.075366,0.13349 -5.1283472,0.16524 l -5.015257,0.0522 z"
       id="path3472"
       inkscape:connector-curvature="0" />
    <path
       style="opacity:1;fill:#216778;fill-opacity:1;fill-rule:nonzero;stroke:none;stroke-width:0.66499996;stroke-linecap:butt;stroke-linejoin:miter;stroke-miterlimit:4;stroke-dasharray:none;stroke-dashoffset:0;stroke-opacity:1;paint-order:stroke fill markers"
       d="m 12.302078,106.02113 c -0.18488,-0.22277 -0.218215,-1.34503 -0.04179,-1.40697 0.07279,-0.0256 0.218268,0.17854 0.323289,0.45354 0.145584,0.3812 0.162732,0.5742 0.07218,0.81237 -0.137512,0.36168 -0.162356,0.37159 -0.353682,0.14106 z"
       id="path3474"
       inkscape:connector-curvature="0" />
  </g>
</svg>
