<?xml version="1.0" encoding="UTF-8" standalone="no"?>
<!-- Created with Inkscape (http://www.inkscape.org/) -->

<svg
   xmlns:dc="http://purl.org/dc/elements/1.1/"
   xmlns:cc="http://creativecommons.org/ns#"
   xmlns:rdf="http://www.w3.org/1999/02/22-rdf-syntax-ns#"
   xmlns:svg="http://www.w3.org/2000/svg"
   xmlns="http://www.w3.org/2000/svg"
   xmlns:sodipodi="http://sodipodi.sourceforge.net/DTD/sodipodi-0.dtd"
   xmlns:inkscape="http://www.inkscape.org/namespaces/inkscape"
   width="297mm"
   height="210mm"
   viewBox="0 0 297 210"
   version="1.1"
   id="svg1549"
   sodipodi:docname="S.svg"
   inkscape:version="0.92.2 (5c3e80d, 2017-08-06)">
  <defs
     id="defs1543">
    <inkscape:path-effect
       effect="spiro"
       id="path-effect11581"
       is_visible="true" />
  </defs>
  <sodipodi:namedview
     id="base"
     pagecolor="#ffffff"
     bordercolor="#666666"
     borderopacity="1.0"
     inkscape:pageopacity="0.0"
     inkscape:pageshadow="2"
     inkscape:zoom="4.4136914"
     inkscape:cx="3.363486"
     inkscape:cy="733.39392"
     inkscape:document-units="mm"
     inkscape:current-layer="layer1"
     showgrid="false"
     inkscape:window-width="1366"
     inkscape:window-height="705"
     inkscape:window-x="-8"
     inkscape:window-y="-8"
     inkscape:window-maximized="1" />
  <metadata
     id="metadata1546">
    <rdf:RDF>
      <cc:Work
         rdf:about="">
        <dc:format>image/svg+xml</dc:format>
        <dc:type
           rdf:resource="http://purl.org/dc/dcmitype/StillImage" />
        <dc:title />
      </cc:Work>
    </rdf:RDF>
  </metadata>
  <g
     inkscape:label="Capa 1"
     inkscape:groupmode="layer"
     id="layer1"
     transform="translate(0,-87)">
    <path
       style="opacity:1;fill:#216778;fill-opacity:1;fill-rule:nonzero;stroke:none;stroke-width:0.66499996;stroke-linecap:butt;stroke-linejoin:miter;stroke-miterlimit:4;stroke-dasharray:none;stroke-dashoffset:0;stroke-opacity:1;paint-order:stroke fill markers"
       d="m 3.3054112,112.444 c -0.467736,-0.0497 -0.47866,-0.0641 -0.559403,-0.73622 -0.07605,-0.63302 -0.125741,-17.481182 -0.05167,-17.518874 0.01812,-0.0092 0.68585,-0.05374 1.483812,-0.09892 1.323303,-0.07492 1.453156,-0.105331 1.477169,-0.345929 0.01447,-0.145085 0.06471,-0.90183 0.111615,-1.681658 l 0.085286,-1.417867 h 9.1539818 9.153983 v 8.320348 c 0,6.38523 -0.03659,8.30816 -0.157337,8.26791 -0.08654,-0.0289 -0.234506,-0.50932 -0.328822,-1.06772 -0.09432,-0.55839 -0.437533,-1.94936 -0.762703,-3.09104 -0.325168,-1.14168 -0.742318,-2.87703 -0.927003,-3.85635 -0.813011,-4.311179 -1.263464,-5.744679 -1.983015,-6.310678 -0.414268,-0.325863 -0.742058,-0.283215 -1.227936,0.159766 -0.57349,0.522857 -0.612212,0.720955 -0.680336,3.480642 l -0.06595,2.67147 -0.649716,-0.46223 c -0.357344,-0.25423 -0.778745,-0.46223 -0.936445,-0.46223 -0.157702,0 -0.545886,0.18773 -0.862632,0.41718 -0.316743,0.22945 -0.840674,0.49686 -1.164291,0.59426 -0.323617,0.0974 -0.70495,0.28062 -0.847412,0.40716 -0.363702,0.32307 -0.743011,1.20259 -0.746446,1.73081 -0.0016,0.25563 -0.183634,0.76148 -0.426881,1.18663 -0.375457,0.65623 -0.43012,0.88135 -0.477599,1.96692 -0.04397,1.00531 -0.0024,1.37736 0.230806,2.0679 0.224131,0.66353 0.291785,1.21458 0.319154,2.5995 0.02947,1.49123 0.07945,1.85574 0.329904,2.40617 0.232227,0.51037 0.258984,0.67166 0.125473,0.75637 -0.164335,0.10427 -8.6527134,0.11899 -9.6155844,0.0167 z m 5.2995196,-7.76271 c 0.09488,-0.11432 0.614148,-0.45025 1.153933,-0.7465 1.3548812,-0.7436 1.8097952,-1.22931 2.0165142,-2.15304 0.193122,-0.86295 0.01931,-2.03179 -0.365316,-2.4568 C 11.012155,98.88526 9.3657058,98.1744 8.4009528,98.02576 7.4392398,97.87757 6.4644308,97.51161 6.0624649,97.14784 5.8970156,96.99811 5.8268296,96.74123 5.8268296,96.285414 c 0,-0.541653 0.06386,-0.713036 0.3855402,-1.034717 0.369078,-0.369078 0.436279,-0.385537 1.574149,-0.385537 1.42289,0 1.768359,0.11494 2.3991472,0.798205 0.793027,0.859005 1.48767,0.587171 0.970642,-0.379836 -0.413647,-0.773655 -2.2004792,-2.528683 -2.5745072,-2.528683 -0.418896,0 -2.102567,0.809167 -2.8968226,1.392203 -0.937331,0.688065 -1.256178,1.733785 -0.909365,2.982441 0.250159,0.90067 1.3874886,1.58768 3.2274776,1.94958 1.402496,0.27586 2.0119952,0.52855 2.4339022,1.00907 0.71854,0.81837 0.433647,1.9995 -0.6006782,2.49032 -0.671388,0.3186 -2.68546,0.4244 -3.415959,0.17944 -0.4707595,-0.15786 -0.583218,-0.28679 -1.0442306,-1.1972 -0.723567,-1.42891 -1.365978,-1.55886 -1.203121,-0.24339 0.141861,1.14589 1.218303,2.43142 2.6430366,3.15644 0.878797,0.4472 1.527527,0.52246 1.78889,0.20754 z"
       id="path2736"
       inkscape:connector-curvature="0" />
    <path
       style="opacity:1;fill:#216778;fill-opacity:1;fill-rule:nonzero;stroke:none;stroke-width:0.66499996;stroke-linecap:butt;stroke-linejoin:miter;stroke-miterlimit:4;stroke-dasharray:none;stroke-dashoffset:0;stroke-opacity:1;paint-order:stroke fill markers"
       d="m 18.356819,112.79658 c -1.487112,-0.0491 -3.01544,-0.0975 -3.396287,-0.10747 -0.601972,-0.0158 -0.692446,-0.0532 -0.692446,-0.28594 0,-0.14728 -0.15227,-0.62955 -0.338378,-1.07172 -0.308695,-0.73342 -0.337606,-0.95943 -0.329544,-2.57628 0.0052,-1.03715 -0.05039,-1.88299 -0.13394,-2.03911 -0.255897,-0.47814 -0.007,-0.42582 0.589367,0.12392 0.962689,0.88737 2.619378,1.10053 3.135146,0.40337 0.429744,-0.58088 0.638355,-0.77147 0.844426,-0.77147 0.172751,0 0.188687,0.10093 0.09892,0.6265 -0.146836,0.85973 -0.107532,2.58384 0.07927,3.47756 0.168363,0.80547 0.612971,1.36145 1.021983,1.278 0.207531,-0.0423 0.233053,-0.14412 0.176633,-0.70439 -0.0743,-0.73782 -0.07841,-3.83735 -0.0071,-5.33714 0.03295,-0.69269 -0.01402,-1.12758 -0.156702,-1.45084 -0.412906,-0.9355 -0.463174,-0.96211 -2.003036,-1.0604 -1.501063,-0.0958 -1.9193,-0.26408 -1.473814,-0.59295 0.460841,-0.34021 2.19899,-0.99806 2.836503,-1.07357 0.608047,-0.072 0.645488,-0.0564 1.045893,0.43583 0.752623,0.92524 2.688108,3.7772 2.887895,4.25536 0.142809,0.34179 0.181361,0.81004 0.142057,1.72543 -0.04842,1.12773 -0.117379,1.41207 -0.673623,2.77751 -0.340826,0.83665 -0.619681,1.65275 -0.619681,1.81355 0,0.16081 -0.07419,0.2814 -0.164867,0.26797 -0.09068,-0.0134 -1.381596,-0.0646 -2.868708,-0.11372 z"
       id="path2746"
       inkscape:connector-curvature="0" />
    <path
       style="opacity:1;fill:#216778;fill-opacity:1;fill-rule:nonzero;stroke:none;stroke-width:0.66499996;stroke-linecap:butt;stroke-linejoin:miter;stroke-miterlimit:4;stroke-dasharray:none;stroke-dashoffset:0;stroke-opacity:1;paint-order:stroke fill markers"
       d="m 18.13427,112.77745 c -0.276579,-0.0502 -1.185426,-0.0956 -2.01966,-0.10094 -1.59172,-0.0101 -1.834226,-0.0711 -1.911149,-0.48042 -0.0259,-0.13782 -0.05617,-0.25058 -0.06727,-0.25058 -0.01111,0 -0.04026,-0.089 -0.06481,-0.19784 -0.02455,-0.10882 -0.135085,-0.55396 -0.245644,-0.98921 -0.110559,-0.43525 -0.221507,-1.54777 -0.246547,-2.47227 -0.03936,-1.45321 -0.01812,-1.67654 0.156816,-1.64868 0.111289,0.0177 0.321048,0.14258 0.466132,0.27748 0.461849,0.42941 1.305452,0.71872 2.026743,0.69506 0.625375,-0.0205 0.727633,-0.0713 1.234901,-0.61324 l 0.553063,-0.59088 0.07873,0.46164 c 0.04331,0.25389 0.03391,0.55573 -0.02088,0.67074 -0.0898,0.18853 -0.07367,0.84904 0.06435,2.63417 0.06159,0.79656 0.628629,1.70708 1.063117,1.70708 0.180295,0 0.203851,-0.43766 0.197456,-3.6686 -0.007,-3.51687 -0.01913,-3.6896 -0.294219,-4.17609 -0.285917,-0.50563 -0.400296,-0.56388 -1.276165,-0.64981 -0.444759,-0.0436 -1.193421,-0.16234 -1.813552,-0.28755 -0.163219,-0.0329 -0.296762,-0.11714 -0.296762,-0.18707 0,-0.26487 1.888371,-1.04334 3.002233,-1.23765 0.36667,-0.064 0.483671,-0.0131 0.791368,0.3442 0.198594,0.23061 0.488329,0.55211 0.643853,0.71446 0.155525,0.16235 0.250899,0.32706 0.211937,0.36602 -0.03896,0.039 0.02635,0.10813 0.145126,0.15371 0.11878,0.0456 0.182867,0.13643 0.142412,0.20188 -0.04045,0.0654 0.01924,0.15461 0.132655,0.19813 0.113411,0.0435 0.2062,0.15314 0.2062,0.2436 0,0.0905 0.133543,0.30857 0.296765,0.48468 0.163218,0.17612 0.308461,0.36475 0.322759,0.41918 0.01429,0.0544 0.229159,0.43834 0.477465,0.85313 0.248306,0.41478 0.48763,0.99436 0.531831,1.28794 0.125037,0.83048 -0.125817,2.56456 -0.509725,3.52354 -0.191588,0.47858 -0.360209,0.94851 -0.374716,1.0443 -0.0145,0.0958 -0.06224,0.23351 -0.106077,0.30605 -0.04384,0.0725 -0.120253,0.32105 -0.169812,0.55224 l -0.09011,0.42034 -1.367973,0.0413 c -0.752385,0.0227 -1.594265,2e-4 -1.870845,-0.05 z"
       id="path2748"
       inkscape:connector-curvature="0" />
    <path
       style="opacity:1;fill:#216778;fill-opacity:1;fill-rule:nonzero;stroke:none;stroke-width:0.66499996;stroke-linecap:butt;stroke-linejoin:miter;stroke-miterlimit:4;stroke-dasharray:none;stroke-dashoffset:0;stroke-opacity:1;paint-order:stroke fill markers"
       d="m 22.841234,112.27262 c 0,-0.14652 0.151765,-0.63618 0.337254,-1.08813 0.185489,-0.45194 0.411922,-1.1445 0.503187,-1.53901 0.09127,-0.39451 0.245565,-0.74383 0.34289,-0.77627 0.145163,-0.0484 0.160247,0.25748 0.08395,1.70266 -0.05994,1.13532 -0.149347,1.79746 -0.251484,1.86238 -0.08717,0.0554 -0.35138,0.10165 -0.587142,0.10276 -0.3428,0.002 -0.428657,-0.0513 -0.428657,-0.26439 z"
       id="path2750"
       inkscape:connector-curvature="0" />
    <path
       style="opacity:1;fill:#216778;fill-opacity:1;fill-rule:nonzero;stroke:none;stroke-width:0.66499996;stroke-linecap:butt;stroke-linejoin:miter;stroke-miterlimit:4;stroke-dasharray:none;stroke-dashoffset:0;stroke-opacity:1;paint-order:stroke fill markers"
       d="m 20.612217,101.26069 c -0.234965,-0.32718 -0.598479,-0.68345 -0.80781,-0.7917 -0.467248,-0.24162 -0.488944,-0.36165 -0.595696,-3.29567 -0.08625,-2.370568 0.02088,-3.151308 0.39029,-2.844717 0.26671,0.221351 0.667033,1.832827 1.194501,4.808387 0.533646,3.0104 0.49549,2.71858 0.355462,2.71858 -0.06024,0 -0.301781,-0.26769 -0.536747,-0.59488 z"
       id="path2752"
       inkscape:connector-curvature="0" />
    <path
       style="opacity:1;fill:#216778;fill-opacity:1;fill-rule:nonzero;stroke:none;stroke-width:0.66499996;stroke-linecap:butt;stroke-linejoin:miter;stroke-miterlimit:4;stroke-dasharray:none;stroke-dashoffset:0;stroke-opacity:1;paint-order:stroke fill markers"
       d="m 16.054949,100.38815 c -0.328403,-0.39028 -0.33497,-0.42544 -0.123176,-0.65947 0.312576,-0.34539 0.463076,-0.31293 0.968967,0.20902 0.372145,0.38395 0.41547,0.48842 0.273513,0.65947 -0.272441,0.32827 -0.740796,0.24081 -1.119304,-0.20902 z"
       id="path2754"
       inkscape:connector-curvature="0" />
    <path
       style="opacity:1;fill:#216778;fill-opacity:1;fill-rule:nonzero;stroke:none;stroke-width:0.66499996;stroke-linecap:butt;stroke-linejoin:miter;stroke-miterlimit:4;stroke-dasharray:none;stroke-dashoffset:0;stroke-opacity:1;paint-order:stroke fill markers"
       d="m 14.094831,102.15443 c -0.169934,-0.28843 -0.223374,-0.97391 -0.09468,-1.21438 0.181083,-0.33836 0.540887,-0.34724 0.941022,-0.0232 0.260903,0.21126 0.285051,0.29486 0.161936,0.56055 -0.155922,0.33648 -0.910432,0.84314 -1.008283,0.67706 z"
       id="path2756"
       inkscape:connector-curvature="0" />
    <path
       style="opacity:1;fill:#216778;fill-opacity:1;fill-rule:nonzero;stroke:none;stroke-width:0.66499996;stroke-linecap:butt;stroke-linejoin:miter;stroke-miterlimit:4;stroke-dasharray:none;stroke-dashoffset:0;stroke-opacity:1;paint-order:stroke fill markers"
       d="m 14.729718,105.81241 c -0.779473,-0.7059 -1.054664,-0.79426 -1.334874,-0.42866 -0.154659,0.20179 -0.193548,0.20594 -0.309284,0.033 -0.321009,-0.47974 -0.06969,-2.06873 0.34902,-2.20675 0.406701,-0.13406 2.041657,1.93198 2.346465,2.96515 0.146433,0.49635 -0.256061,0.35749 -1.051327,-0.36271 z"
       id="path2758"
       inkscape:connector-curvature="0" />
    <path
       style="opacity:1;fill:#216778;fill-opacity:1;fill-rule:nonzero;stroke:none;stroke-width:0.66499996;stroke-linecap:butt;stroke-linejoin:miter;stroke-miterlimit:4;stroke-dasharray:none;stroke-dashoffset:0;stroke-opacity:1;paint-order:stroke fill markers"
       d="m 16.784644,105.33425 c -0.316148,-0.40192 -0.361003,-0.84079 -0.08593,-0.84079 0.288835,0 0.602946,0.37877 0.602946,0.72706 0,0.46257 -0.20683,0.50807 -0.517016,0.11373 z"
       id="path2760"
       inkscape:connector-curvature="0" />
    <path
       style="opacity:1;fill:#216778;fill-opacity:1;fill-rule:nonzero;stroke:none;stroke-width:0.66499996;stroke-linecap:butt;stroke-linejoin:miter;stroke-miterlimit:4;stroke-dasharray:none;stroke-dashoffset:0;stroke-opacity:1;paint-order:stroke fill markers"
       d="m 13.141559,105.93553 c -0.04782,-0.0774 -0.05527,-0.17234 -0.01656,-0.21105 0.09448,-0.0945 0.351718,0.072 0.351718,0.22761 0,0.16856 -0.227703,0.15731 -0.335158,-0.0166 z"
       id="path2762"
       inkscape:connector-curvature="0" />
    <path
       style="opacity:1;fill:#216778;fill-opacity:1;fill-rule:nonzero;stroke:none;stroke-width:0.66499996;stroke-linecap:butt;stroke-linejoin:miter;stroke-miterlimit:4;stroke-dasharray:none;stroke-dashoffset:0;stroke-opacity:1;paint-order:stroke fill markers"
       d="m 1.6586312,92.621416 c -0.325014,-0.08236 -0.78107098,-0.369184 -1.02793498,-0.646488 -0.342114,-0.384305 -0.49638,-0.848545 -0.396327,-1.192713 0.07927,-0.272682 0.279606,-0.410683 0.559355,-0.385315 0.27091198,0.02455 0.49599598,0.191426 0.71555798,0.530468 0.229306,0.354087 0.416094,0.472239 0.747538,0.472861 0.404527,7.94e-4 0.760582,-0.185862 0.760582,-0.398642 0,-0.214255 -0.26977,-0.388993 -0.769694,-0.498555 -0.365464,-0.08009 -0.582989,-0.145454 -0.828043,-0.248806 -0.236479,-0.09974 -0.56932798,-0.317243 -0.71366298,-0.466365 -0.13489,-0.139361 -0.273773,-0.371769 -0.322916,-0.540374 -0.0457,-0.156779 -0.04944,-0.441032 -0.0081,-0.615702 0.0778,-0.328697 0.37035,-0.770448 0.66734998,-1.007681 0.641959,-0.512773 1.650077,-0.539496 2.411463,-0.06393 0.432745,0.270298 0.687771,0.702916 0.690973,1.172146 0.0027,0.391129 -0.15893,0.586023 -0.485908,0.586023 -0.160192,0 -0.244075,0.04833 -0.20307,0.116991 0.01482,0.02479 0.132641,0.125804 0.26184,0.224441 0.284583,0.217265 0.419309,0.364598 0.519498,0.568113 0.113218,0.229976 0.160907,0.440809 0.160907,0.711372 0,0.857922 -0.537366,1.394026 -1.652723,1.648836 -0.294394,0.06726 -0.881697,0.08526 -1.086689,0.03332 z m 1.389362,-3.371646 c 0.100571,-0.11453 0.08271,-0.287676 -0.04418,-0.428117 -0.191712,-0.212201 -0.639183,-0.318614 -1.034526,-0.246023 -0.253873,0.04662 -0.398246,0.102846 -0.398246,0.15511 0,0.05297 0.161467,0.14992 0.472482,0.283683 0.630217,0.271042 0.914609,0.337677 1.004465,0.235347 z"
       id="path2854"
       inkscape:connector-curvature="0" />
    <path
       style="opacity:1;fill:#216778;fill-opacity:1;fill-rule:nonzero;stroke:none;stroke-width:0.66499996;stroke-linecap:butt;stroke-linejoin:miter;stroke-miterlimit:4;stroke-dasharray:none;stroke-dashoffset:0;stroke-opacity:1;paint-order:stroke fill markers"
       d="m 7.6102778,93.941139 c 0.028,-0.0851 0.265342,-0.167018 0.542591,-0.187285 0.366551,-0.02679 0.480065,0.0027 0.443045,0.115239 -0.028,0.0851 -0.265343,0.167021 -0.542592,0.187286 -0.366551,0.02679 -0.480065,-0.0027 -0.443044,-0.11524 z"
       id="path3476"
       inkscape:connector-curvature="0" />
    <path
       style="opacity:1;fill:#216778;fill-opacity:1;fill-rule:nonzero;stroke:none;stroke-width:0.66499996;stroke-linecap:butt;stroke-linejoin:miter;stroke-miterlimit:4;stroke-dasharray:none;stroke-dashoffset:0;stroke-opacity:1;paint-order:stroke fill markers"
       d="m 7.4308658,103.91174 c -0.165206,-0.1652 -0.06152,-0.26889 0.268891,-0.26889 0.230479,0 0.34572,0.0576 0.34572,0.17286 0,0.17442 -0.463761,0.24688 -0.614611,0.096 z"
       id="path3478"
       inkscape:connector-curvature="0" />
    <path
       style="opacity:1;fill:#ffffff;fill-opacity:1;fill-rule:nonzero;stroke:none;stroke-width:2.51338577;stroke-linecap:butt;stroke-linejoin:miter;stroke-miterlimit:4;stroke-dasharray:none;stroke-dashoffset:0;stroke-opacity:1;paint-order:stroke fill markers"
       d="m 82.567257,97.071976 -1.612936,-0.129108 0.307342,-1.19657 c 0.169038,-0.658113 0.730185,-2.289401 1.246992,-3.625083 2.283552,-5.901802 2.915376,-8.037304 3.171826,-10.720408 0.279605,-2.925397 0.147643,-6.725925 -0.274573,-7.907698 -0.401018,-1.122444 -5.035631,-8.507396 -6.60086,-10.51804 -0.283588,-0.364289 -0.566594,-0.776837 -0.6289,-0.916772 -0.286565,-0.643602 -4.225169,-5.639848 -4.942375,-6.269566 -0.774178,-0.679737 -0.86243,-0.70154 -2.338596,-0.577784 -2.665377,0.223455 -10.097599,3.001213 -11.463532,4.284441 -1.348703,1.267039 -0.547309,1.551409 6.62313,2.350169 4.638666,0.516728 5.045625,0.711665 6.150072,2.945933 l 0.873527,1.767117 0.05664,12.586603 c 0.03115,6.92263 -0.02227,13.0454 -0.118717,13.606155 -0.23392,1.360046 -0.835063,1.466716 -1.954887,0.346891 -1.718956,-1.718953 -2.304969,-3.698464 -2.650829,-8.954289 -0.203533,-3.092992 -0.185439,-4.28859 0.104522,-6.906308 0.318181,-2.872466 0.317721,-3.202172 -0.005,-3.558724 -0.336294,-0.371603 -0.395383,-0.365782 -1.087232,0.107101 -0.402388,0.275033 -1.269501,1.147638 -1.926919,1.939123 -1.399774,1.685238 -2.181362,2.072737 -4.180708,2.072737 -3.052527,0 -5.437889,-0.892636 -8.401435,-3.143938 -2.046569,-1.554705 -2.513722,-1.711703 -2.274361,-0.764356 0.366548,1.450732 0.578042,4.144148 0.760553,9.685771 0.191918,5.827274 0.201556,5.910295 0.894348,7.703302 0.58344,1.509995 1.637824,4.804196 1.639476,5.1222 2.5e-4,0.04887 -1.117449,0.05708 -2.483784,0.01824 l -2.484247,-0.07062 0.121265,-0.609079 C 49.164599,95.34995 48.954504,94.497002 48.50438,93.373854 47.538835,90.964626 47.411215,90.056866 47.142763,83.688661 46.907422,78.105892 46.794036,77.282772 45.69588,73.1851 c -0.493868,-1.842828 -0.598657,-2.722357 -0.598657,-5.024738 0,-4.509196 0.275259,-5.945144 1.692983,-8.831804 1.218943,-2.481916 1.482304,-3.28717 1.925264,-5.886688 0.297387,-1.745224 1.605079,-4.40954 2.587752,-5.272337 0.421097,-0.369729 1.516501,-0.955694 2.434231,-1.302146 2.079491,-0.785028 4.092704,-1.7799 5.357879,-2.647711 0.533756,-0.366115 1.42887,-0.868437 1.989141,-1.116272 l 1.018675,-0.450608 1.24384,0.569448 c 0.684111,0.313197 2.009048,1.098438 2.944302,1.744979 0.935255,0.64654 1.74238,1.133611 1.793614,1.082377 0.05123,-0.05123 0.203614,-3.895805 0.338628,-8.543494 0.334915,-11.529099 0.501852,-12.515819 2.426572,-14.342704 1.788179,-1.697287 3.204134,-1.933242 4.70977,-0.784837 2.446163,1.865779 4.07799,6.863525 7.001697,21.443888 0.813169,4.055238 2.032407,9.509856 2.709412,12.121373 5.06588,19.541353 4.965397,19.044898 4.858972,24.006468 -0.0917,4.274964 -0.303968,5.208495 -2.56677,11.288211 -0.564777,1.517442 -1.084299,3.221179 -1.154494,3.786078 -0.177743,1.430381 0.173066,1.684164 2.081688,1.505935 1.353377,-0.12638 1.467253,-0.102509 1.467253,0.307597 0,0.420655 -0.155641,0.44241 -2.888739,0.403791 -1.588806,-0.02245 -3.614559,-0.09892 -4.501674,-0.169925 z M 59.785679,73.060553 c 0.209512,-1.429462 -4.221148,-8.248314 -6.925836,-10.658963 -1.537217,-1.3701 -2.15544,-1.42913 -2.927538,-0.279535 -1.35686,2.020264 -1.353479,7.972538 0.0045,7.972538 0.16312,0 0.578629,-0.316549 0.923353,-0.703443 1.018048,-1.142585 1.615193,-0.904449 5.088533,2.029272 1.859092,1.570264 3.102899,2.351041 3.535591,2.219405 0.124612,-0.03791 0.260228,-0.298584 0.301368,-0.579274 z M 50.91963,71.758561 c 0.140081,-0.365044 -0.625954,-1.210833 -1.096658,-1.210833 -0.419432,0 -0.465026,0.708575 -0.07344,1.141279 0.491629,0.543243 0.977246,0.57211 1.170094,0.06955 z m 14.375483,-1.98648 c 0.822016,-1.80413 -1.824922,-4.86752 -2.825738,-3.270322 -0.49795,0.794677 1.251017,3.819402 2.208468,3.819402 0.201901,0 0.479672,-0.247086 0.61727,-0.54908 z M 55.105461,56.750926 c 1.726645,-1.095005 2.635688,-2.672845 2.053061,-3.563528 -0.09155,-0.139958 -0.563017,-0.522291 -1.047702,-0.849629 -1.53315,-1.035432 -3.063004,-0.639628 -3.447396,0.891911 -0.180108,0.717606 0.0087,2.697747 0.338832,3.554059 0.308185,0.79932 0.803246,0.791596 2.103205,-0.03281 z m 25.151326,-0.82248 c 0.04015,-1.175499 -2.344341,-14.597334 -3.580139,-20.151929 -0.881446,-3.961875 -1.759643,-6.973843 -2.264581,-7.766878 -0.415926,-0.653236 -1.122525,-0.653236 -1.495648,0 -0.37378,0.654384 -0.360773,15.254895 0.01665,18.69993 0.295014,2.69275 0.626016,3.469628 1.794371,4.211463 0.842023,0.534632 2.233774,1.960006 4.094163,4.193066 0.903901,1.084967 1.416009,1.37555 1.435177,0.814348 z m -15.55112,-4.288825 c 0.305867,-0.305866 0.556121,-0.731265 0.556121,-0.945333 0,-0.61109 -2.994673,-3.483035 -3.631876,-3.483035 -0.616764,0 -2.032317,1.265027 -2.032317,1.816205 0,0.483897 1.485674,2.207368 2.365087,2.74364 0.982837,0.599344 2.063987,0.547522 2.742985,-0.131477 z"
       id="path11583"
       inkscape:connector-curvature="0"
       transform="matrix(0.26458333,0,0,0.26458333,0,87)" />
    <path
       style="opacity:1;fill:#ffffff;fill-opacity:1;fill-rule:nonzero;stroke:none;stroke-width:2.51338577;stroke-linecap:butt;stroke-linejoin:miter;stroke-miterlimit:4;stroke-dasharray:none;stroke-dashoffset:0;stroke-opacity:1;paint-order:stroke fill markers"
       d="m 82.299268,97.114665 c -1.347341,-0.07619 -1.419843,-0.10884 -1.286787,-0.579406 0.522568,-1.848101 1.230385,-3.888783 2.485063,-7.16457 1.682775,-4.393494 2.079636,-6.135415 2.275288,-9.986819 0.203044,-3.996909 -0.06714,-5.514346 -1.38717,-7.790649 -0.849631,-1.465137 -4.222878,-6.639382 -6.209514,-9.524814 -1.071097,-1.555685 -3.87035,-5.135448 -4.662442,-5.962465 -0.790511,-0.825364 -1.057095,-0.964819 -1.844381,-0.964819 -2.936207,0 -12.170671,3.571276 -12.682349,4.904689 -0.287761,0.749893 0.867967,1.058322 6.274812,1.674557 5.208148,0.593589 5.91056,0.874966 6.841509,2.740606 0.350387,0.702183 0.738609,1.812121 0.862716,2.466528 0.246387,1.299207 0.271278,25.017419 0.02745,26.163714 -0.21325,1.002564 -0.933908,1.00519 -1.932058,0.007 -1.687914,-1.687914 -2.278295,-3.625593 -2.651316,-8.701829 -0.202466,-2.755232 -0.196987,-4.242952 0.02472,-6.711815 0.156665,-1.744572 0.244829,-3.374688 0.195925,-3.622483 -0.196847,-0.997372 -0.913395,-0.657169 -2.783364,1.321492 -1.00744,1.065997 -2.118722,2.045298 -2.469518,2.176224 -0.940366,0.350972 -3.629898,0.28942 -5.206657,-0.119161 -1.788938,-0.46356 -2.861351,-1.013227 -4.804216,-2.462404 -2.635931,-1.966136 -3.100616,-2.101415 -2.611951,-0.760393 0.161815,0.444064 0.391696,3.648246 0.565842,7.886972 0.278647,6.782264 0.32365,7.223877 0.900459,8.836142 0.79833,2.231447 1.778486,5.452458 1.678177,5.514866 -0.04367,0.02717 -1.175028,0.01115 -2.514141,-0.03561 -2.396804,-0.08368 -2.432748,-0.09298 -2.306329,-0.596673 0.07606,-0.303034 -0.155092,-1.246839 -0.566885,-2.314654 -0.956882,-2.481277 -1.105513,-3.505984 -1.369985,-9.445088 -0.259871,-5.835775 -0.428645,-7.153098 -1.267229,-9.891038 -0.478136,-1.561092 -0.612752,-2.551973 -0.710785,-5.231947 -0.175234,-4.790401 0.110634,-6.516473 1.610057,-9.721523 1.4761,-3.155193 1.448235,-3.074662 1.840066,-5.318036 0.378979,-2.169794 1.604438,-4.779537 2.693224,-5.735503 0.423429,-0.371777 1.749645,-1.055588 2.947145,-1.51958 1.1975,-0.463995 3.016994,-1.356681 4.04332,-1.98375 1.026326,-0.627067 2.308229,-1.338369 2.848673,-1.580671 1.222518,-0.5481 1.543622,-0.439507 4.650838,1.572861 1.229221,0.796098 2.262333,1.416628 2.295804,1.378959 0.03347,-0.03767 0.178168,-3.9428 0.321551,-8.678065 0.280838,-9.274746 0.456969,-11.212643 1.140955,-12.553364 0.601009,-1.178075 2.579981,-2.917923 3.519423,-3.094164 1.478513,-0.277371 2.712046,0.477439 3.975922,2.432902 1.697889,2.626965 3.021024,7.313061 5.522414,19.558522 1.5731,7.70106 2.230962,10.495025 4.427819,18.805121 0.757677,2.866082 1.788476,7.053251 2.290664,9.304822 0.904814,4.056758 0.912379,4.129464 0.836954,8.043154 -0.08555,4.439264 -0.272916,5.296308 -2.453171,11.221362 -0.621493,1.688965 -1.190418,3.511746 -1.264279,4.050626 -0.1177,0.858705 -0.07082,1.01375 0.379358,1.254677 0.339761,0.181834 0.96275,0.224089 1.840215,0.124816 1.235045,-0.139728 1.326563,-0.118046 1.326563,0.314302 0,0.447739 -0.111689,0.462821 -3.115307,0.420732 -1.713418,-0.02401 -3.757811,-0.07999 -4.543095,-0.1244 z M 59.487595,71.976634 C 58.166932,68.451021 53.039016,61.78096 51.316913,61.348739 c -1.260023,-0.316245 -2.118015,1.506231 -2.304112,4.894203 -0.09081,1.653149 -0.03578,2.349464 0.237232,3.002022 0.429797,1.027313 0.768922,1.064399 1.553808,0.169926 1.012966,-1.154397 1.823229,-0.856234 4.942102,1.818611 0.685368,0.587792 1.751527,1.388373 2.369243,1.779071 0.981268,0.62064 1.164625,0.668853 1.45174,0.381737 0.287115,-0.287113 0.277095,-0.466167 -0.07933,-1.417675 z m -8.625494,-0.04905 c 0.356007,-0.57603 -0.820782,-1.656615 -1.29149,-1.185907 -0.16352,0.16352 -0.119686,0.413325 0.142831,0.813976 0.381299,0.581937 0.912556,0.753956 1.148659,0.371931 z m 14.461981,-2.359403 c 0.308721,-0.926624 -0.359733,-2.557168 -1.277839,-3.117001 -0.905244,-0.551992 -1.201127,-0.546221 -1.509205,0.02943 -0.351435,0.656662 0.09361,1.872968 1.088077,2.973727 0.909577,1.006792 1.390724,1.039033 1.698967,0.113846 z M 55.117022,56.69451 c 1.201738,-0.771153 2.214896,-2.056399 2.214896,-2.809714 0,-0.259291 -0.280378,-0.732942 -0.623062,-1.052561 -2.385978,-2.225384 -4.534201,-0.91728 -4.028765,2.45321 0.203067,1.35415 0.559891,2.121356 0.986633,2.121356 0.18716,0 0.839794,-0.32053 1.450298,-0.712291 z M 79.312879,49.78397 C 76.698899,34.557771 74.905874,27.499861 73.65172,27.499861 c -0.294744,0 -0.552279,0.213054 -0.687525,0.568775 -0.646053,1.699246 -0.396604,17.971364 0.317766,20.728591 0.232108,0.895858 0.503608,1.373406 0.965906,1.698957 0.728821,0.513237 3.03792,2.78959 4.712244,4.64542 1.091467,1.20979 1.126071,1.228395 1.202229,0.646411 0.04313,-0.329579 -0.339128,-3.031399 -0.849461,-6.004045 z m -15.112393,2.148198 c 0.573393,-0.305391 1.043742,-0.864422 1.054096,-1.252843 0.01171,-0.439138 -2.422903,-2.934224 -3.161712,-3.240249 -0.573312,-0.237473 -0.768684,-0.22362 -1.24466,0.08825 -0.310531,0.203467 -0.728925,0.620732 -0.929766,0.927254 -0.341102,0.520587 -0.334777,0.606478 0.09599,1.303473 0.57202,0.925545 1.303142,1.620825 2.188691,2.081392 0.812748,0.422703 1.332499,0.44683 1.997362,0.09272 z"
       id="path11585"
       inkscape:connector-curvature="0"
       transform="matrix(0.26458333,0,0,0.26458333,0,87)" />
    <path
       style="opacity:1;fill:#ffffff;fill-opacity:1;fill-rule:nonzero;stroke:none;stroke-width:2.51338577;stroke-linecap:butt;stroke-linejoin:miter;stroke-miterlimit:4;stroke-dasharray:none;stroke-dashoffset:0;stroke-opacity:1;paint-order:stroke fill markers"
       d="m 81.959974,97.115726 c -0.894743,-0.0702 -1.067236,-0.153276 -0.973672,-0.468939 0.06254,-0.210991 0.184614,-0.689488 0.271278,-1.063325 0.08666,-0.373837 0.862815,-2.56588 1.724779,-4.871206 2.087456,-5.582905 2.414534,-6.839223 2.683882,-10.308832 0.241057,-3.105214 0.111309,-5.574547 -0.364382,-6.93478 -0.507061,-1.449938 -5.929048,-9.886101 -8.575667,-13.343031 -3.897031,-5.090177 -4.063869,-5.213971 -6.442782,-4.780542 -3.191064,0.581399 -10.279178,3.389693 -11.110051,4.401773 -0.756729,0.921768 0.342922,1.269588 6.201713,1.961596 5.260025,0.621287 5.789034,0.855939 6.902641,3.061812 l 0.800661,1.585974 0.06852,12.950146 c 0.03769,7.122582 -0.01933,13.290889 -0.126674,13.707347 -0.388516,1.507095 -1.879191,0.833006 -3.094083,-1.39915 -0.926182,-1.701701 -1.208913,-3.020386 -1.517845,-7.079333 -0.221416,-2.9091 -0.217211,-4.302974 0.02148,-7.115566 0.330087,-3.889746 0.250222,-4.256174 -0.804623,-3.69164 -0.325152,0.174018 -1.217838,1.023223 -1.983746,1.887128 -0.765908,0.863903 -1.722126,1.708434 -2.124928,1.876735 -0.971566,0.405946 -3.731415,0.389044 -5.350869,-0.03277 -1.719116,-0.447768 -2.803868,-1.018415 -5.230359,-2.751479 -1.109739,-0.792606 -2.115697,-1.441102 -2.23546,-1.441102 -0.119764,0 -0.150092,0.2294 -0.0674,0.509778 0.364163,1.234689 0.584368,3.854005 0.786183,9.3516 l 0.216456,5.896446 1.007118,3.060531 c 0.553914,1.683292 1.082538,3.403922 1.174719,3.823623 l 0.167603,0.763089 -1.076712,-0.14758 c -0.592191,-0.08117 -1.732063,-0.147579 -2.533047,-0.147579 -1.330988,0 -1.4445,-0.03729 -1.318817,-0.433284 0.07563,-0.238306 -0.08363,-1.028461 -0.353924,-1.7559 -1.102517,-2.967213 -1.3018,-4.210734 -1.561066,-9.741096 -0.286503,-6.111343 -0.466619,-7.545777 -1.289979,-10.273358 -0.48047,-1.591672 -0.600751,-2.535753 -0.693214,-5.441003 -0.151715,-4.766979 0.102481,-6.249545 1.630975,-9.512467 1.169613,-2.496808 1.356595,-3.07118 1.921846,-5.903505 0.316172,-1.584259 1.327593,-3.74197 2.242461,-4.783946 0.405753,-0.462128 1.303318,-1.059211 2.124685,-1.413393 0.782181,-0.337286 1.931924,-0.833565 2.554986,-1.102841 0.623061,-0.269275 1.84722,-0.915349 2.720353,-1.435714 0.873133,-0.520367 2.060674,-1.176001 2.63898,-1.456963 1.028494,-0.499681 1.073007,-0.502261 2.037568,-0.118078 0.542357,0.21602 1.817508,0.944954 2.833667,1.619854 1.01616,0.6749 1.946305,1.227091 2.066988,1.227091 0.132364,0 0.280849,-2.449599 0.37424,-6.173971 0.188425,-7.514305 0.489702,-12.51543 0.837053,-13.89488 0.175134,-0.695531 0.619438,-1.426006 1.360598,-2.236954 1.882,-2.059208 3.312529,-2.421158 4.932132,-1.247923 2.703023,1.958059 3.954361,5.834694 7.602913,23.553728 0.968663,4.704268 2.109615,9.422915 4.766146,19.711392 2.044221,7.917064 2.380939,9.899752 2.380939,14.019612 0,4.178083 -0.122786,4.740582 -2.601412,11.917308 -0.68763,1.990998 -1.250239,3.854209 -1.250239,4.140468 0,0.711525 0.905836,1.023357 2.422338,0.833883 1.120903,-0.140046 1.202746,-0.117661 1.202746,0.328969 0,0.468778 -0.07544,0.478348 -3.455158,0.438402 -1.900337,-0.02245 -3.944478,-0.07923 -4.542538,-0.126155 z M 59.748703,73.136387 c 0.365198,-0.951689 -3.520273,-7.164554 -6.263418,-10.015202 -1.402318,-1.457272 -2.224711,-1.9531 -2.844799,-1.715149 -1.442078,0.553376 -2.289971,7.058017 -1.078009,8.26998 0.428878,0.428879 0.444978,0.425351 1.154749,-0.252943 0.395894,-0.378338 0.951956,-0.687886 1.235694,-0.687886 0.597148,0 1.798686,0.764133 3.566456,2.268133 2.772885,2.359143 3.920473,2.937931 4.229327,2.133067 z m -8.817324,-1.399178 c 0.112513,-0.337536 -0.805043,-1.24378 -1.08446,-1.07109 -0.357752,0.221103 -0.247901,0.974724 0.178189,1.222453 0.458451,0.266543 0.785158,0.211977 0.906271,-0.151363 z m 14.398322,-2.868094 c -0.0403,-1.421735 -1.510546,-3.067409 -2.426432,-2.715951 -0.840474,0.322522 -0.180565,2.574177 1.060486,3.618452 0.619934,0.521641 0.721143,0.543831 1.037494,0.227481 0.1928,-0.1928 0.340604,-0.701293 0.328452,-1.129982 z M 54.565489,56.972862 c 1.099294,-0.567477 2.468851,-2.007118 2.663782,-2.800089 0.130121,-0.529328 0.02425,-0.751339 -0.670963,-1.407011 -2.2849,-2.154937 -4.455992,-0.568082 -3.78615,2.767305 0.223011,1.110454 0.572589,1.873734 0.85816,1.873734 0.05201,0 0.472839,-0.195272 0.935171,-0.433939 z m 25.649558,-1.321961 c -2.27e-4,-0.477397 -1.594921,-9.82748 -2.405429,-14.103841 -1.419216,-7.488013 -2.906232,-12.978418 -3.71274,-13.708298 -0.434804,-0.393492 -0.491571,-0.396515 -0.843183,-0.0449 -0.575351,0.575352 -0.776072,5.525612 -0.520911,12.84693 0.284829,8.17257 0.476771,9.166889 1.966628,10.187756 0.441735,0.302681 1.777218,1.600744 2.967743,2.884588 1.190527,1.283843 2.250882,2.334261 2.356347,2.334261 0.105465,0 0.19166,-0.178422 0.191545,-0.396493 z M 64.564701,51.609184 c 0.383398,-0.32261 0.697087,-0.694441 0.697087,-0.826295 0,-0.706071 -3.013666,-3.571636 -3.756229,-3.571636 -0.347245,0 -1.907964,1.431561 -1.907964,1.75007 0,0.481006 1.650666,2.351177 2.44587,2.771125 1.13389,0.598807 1.695747,0.571338 2.521236,-0.123264 z"
       id="path11587"
       inkscape:connector-curvature="0"
       transform="matrix(0.26458333,0,0,0.26458333,0,87)" />
    <path
       style="opacity:1;fill:#ffffff;fill-opacity:1;fill-rule:nonzero;stroke:none;stroke-width:2.51338577;stroke-linecap:butt;stroke-linejoin:miter;stroke-miterlimit:4;stroke-dasharray:none;stroke-dashoffset:0;stroke-opacity:1;paint-order:stroke fill markers"
       d="m 81.74459,97.117672 c -0.467296,-0.04888 -0.849629,-0.178873 -0.849629,-0.288874 0,-0.320756 1.313442,-4.154031 2.600395,-7.589232 1.569269,-4.18878 1.939326,-5.762503 2.132086,-9.06701 0.221542,-3.797882 -0.0011,-6.073188 -0.736178,-7.523815 -2.0478,-4.041139 -9.398525,-14.560515 -11.579172,-16.570568 -1.060529,-0.977562 -1.076035,-0.983097 -2.31827,-0.827892 -3.325214,0.41546 -11.252237,3.533025 -11.857085,4.663195 -0.439447,0.821113 0.441917,1.070161 6.351619,1.794788 5.154418,0.632015 5.706368,0.880664 6.797031,3.061988 l 0.792987,1.585974 0.06373,12.968639 c 0.03505,7.132753 -0.02195,13.301059 -0.126674,13.707347 -0.395912,1.535982 -1.928597,0.772168 -3.154347,-1.571968 -0.904746,-1.730248 -1.127709,-2.736625 -1.446224,-6.527724 -0.244639,-2.911792 -0.199509,-6.046383 0.136976,-9.513585 0.07256,-0.747674 0.03506,-1.501576 -0.08333,-1.67534 -0.317974,-0.466704 -1.457484,0.314329 -2.96074,2.029329 -1.47781,1.685972 -2.211502,2.024972 -4.382608,2.024972 -2.994678,0 -4.963428,-0.74426 -8.307943,-3.1407 -1.050041,-0.752386 -1.976627,-1.326282 -2.059078,-1.275325 -0.08245,0.05096 -0.02305,0.734054 0.131993,1.517992 0.155047,0.783938 0.389897,4.285651 0.521888,7.781582 l 0.239985,6.356242 1.140696,3.441208 c 0.627383,1.892665 1.140697,3.609607 1.140697,3.815428 0,0.325219 -0.200251,0.355308 -1.529332,0.229782 -0.841133,-0.07944 -1.995963,-0.145159 -2.566289,-0.146045 -1.018476,-0.0016 -1.035214,-0.01348 -0.939125,-0.668182 0.05758,-0.392309 -0.197722,-1.520222 -0.620489,-2.741309 -0.761907,-2.200632 -0.861484,-3.047198 -1.358046,-11.54559 -0.193383,-3.309651 -0.365577,-4.489161 -1.0419,-7.136883 -0.810109,-3.171481 -0.810214,-3.172546 -0.714625,-7.250167 0.105511,-4.500836 0.1489,-4.699092 1.836382,-8.390968 0.59902,-1.310538 1.231554,-3.17359 1.493253,-4.398196 0.54103,-2.531724 1.588687,-4.914646 2.585512,-5.880805 0.397777,-0.385541 1.882502,-1.209366 3.299388,-1.830724 1.416886,-0.621357 3.247367,-1.526176 4.067736,-2.010709 2.957198,-1.746607 3.408175,-1.919288 4.305635,-1.648651 0.446065,0.134516 1.766711,0.863535 2.934769,1.620044 1.168057,0.75651 2.183977,1.315233 2.257601,1.241612 0.07362,-0.07362 0.257501,-3.773907 0.408617,-8.222853 0.38251,-11.261303 0.492393,-12.073623 1.847329,-13.656562 1.983942,-2.317791 3.533627,-2.792046 5.19375,-1.58946 2.724878,1.97389 4.079186,6.100865 7.55319,23.01677 1.055459,5.139327 1.989675,9.014691 5.052127,20.957515 1.923911,7.50279 2.185352,9.091471 2.185352,13.279589 0,4.293049 0.03663,4.117262 -2.299603,11.036162 -1.013961,3.002901 -1.54523,4.907803 -1.461647,5.240822 0.15671,0.624384 0.911103,0.820673 2.458486,0.639689 0.987736,-0.115527 1.076197,-0.08603 1.076197,0.358822 0,0.476891 -0.05927,0.48408 -3.681726,0.446608 -2.024949,-0.02096 -4.064058,-0.07808 -4.531354,-0.126962 z M 59.666146,73.188128 C 60.074606,72.1237 56.593732,66.461031 53.607188,63.331445 51.348895,60.964988 50.4958,60.799743 49.779473,62.59002 c -0.90406,2.259467 -1.038576,5.788017 -0.265623,6.967691 l 0.367489,0.560857 0.787792,-0.69169 c 0.433286,-0.38043 1.024907,-0.691691 1.314712,-0.691691 0.597034,0 1.74559,0.724314 3.466775,2.186254 1.487491,1.263445 3.42345,2.571668 3.805653,2.571668 0.161064,0 0.345508,-0.137241 0.409875,-0.304981 z m -8.830928,-1.372989 c 0.130864,-0.341027 -0.501979,-1.040843 -0.941234,-1.040843 -0.412818,0 -0.312059,0.85656 0.131124,1.114691 0.53552,0.311911 0.666667,0.299957 0.81011,-0.07385 z m 14.42657,-2.847621 c 0,-1.396183 -1.506226,-3.141409 -2.41142,-2.794053 -0.488245,0.187355 -0.357928,1.416123 0.262456,2.474729 1.097899,1.873425 2.148964,2.029607 2.148964,0.319324 z M 54.613105,56.929717 c 1.725079,-1.034168 2.871298,-2.537203 2.596104,-3.404262 -0.175451,-0.552798 -2.040576,-1.782848 -2.703333,-1.782848 -1.368706,0 -2.113089,1.63623 -1.717623,3.775505 0.21867,1.182892 0.551839,1.889853 0.889681,1.887841 0.0782,-4.64e-4 0.499028,-0.21477 0.935171,-0.476236 z m 25.602153,-1.174985 c 0,-1.398127 -2.967362,-17.290911 -4.083032,-21.868167 -1.295759,-5.316095 -2.057454,-6.914415 -2.895297,-6.075402 -0.349764,0.350253 -0.384461,1.211714 -0.377909,9.383098 0.0051,6.402338 0.09284,9.471913 0.304091,10.642487 l 0.296878,1.645049 3.207707,3.268926 c 1.76424,1.79791 3.284177,3.27517 3.377636,3.282798 0.09346,0.0076 0.169926,-0.117824 0.169926,-0.278789 z M 64.75518,51.377906 c 0.501123,-0.560973 0.503734,-0.590214 0.113284,-1.268648 -0.377337,-0.655646 -2.846379,-2.899727 -3.18688,-2.896512 -0.310606,0.0029 -1.435331,0.848274 -1.776286,1.335057 -0.403146,0.575573 -0.232106,0.932872 1.084293,2.26507 1.454883,1.472342 2.777758,1.670842 3.765589,0.565033 z"
       id="path11589"
       inkscape:connector-curvature="0"
       transform="matrix(0.26458333,0,0,0.26458333,0,87)" />
    <path
       style="opacity:1;fill:#ffffff;fill-opacity:1;fill-rule:nonzero;stroke:none;stroke-width:2.51338577;stroke-linecap:butt;stroke-linejoin:miter;stroke-miterlimit:4;stroke-dasharray:none;stroke-dashoffset:0;stroke-opacity:1;paint-order:stroke fill markers"
       d="m 81.50363,97.119052 c -0.586051,-0.08805 -0.624971,-0.153826 -0.482675,-0.815683 0.08513,-0.395949 0.959789,-2.939065 1.943691,-5.651369 0.983902,-2.712303 1.948462,-5.567057 2.143466,-6.343896 0.480253,-1.913176 0.695998,-8.422345 0.33293,-10.044703 -0.29979,-1.339598 -1.97901,-4.248211 -5.284443,-9.153298 -3.999983,-5.935764 -6.958268,-9.577883 -7.989865,-9.836798 -1.838557,-0.461448 -12.288686,3.255017 -13.025896,4.632508 -0.216653,0.40482 -0.151192,0.499471 0.547271,0.791308 0.436348,0.182317 2.81202,0.591743 5.279271,0.909835 5.753709,0.741801 6.196486,0.936069 7.374649,3.23567 l 0.849629,1.658349 v 13.110446 c 0,7.970154 -0.08663,13.338307 -0.22096,13.691614 -0.819224,2.154725 -3.789033,-1.739331 -4.308557,-5.649443 -0.425016,-3.198815 -0.528741,-7.794274 -0.242357,-10.737541 0.229814,-2.361907 0.223122,-2.857737 -0.04215,-3.12301 -0.269407,-0.269407 -0.428743,-0.223461 -1.093892,0.315426 -0.428205,0.34692 -1.323837,1.212608 -1.990293,1.923752 -1.505638,1.606597 -2.19318,1.848308 -4.871518,1.712628 -2.656098,-0.134552 -4.045395,-0.669453 -7.08328,-2.727182 -1.295426,-0.877463 -2.415577,-1.53513 -2.489224,-1.461482 -0.07365,0.07365 -0.02438,0.82876 0.109483,1.678031 0.133864,0.849269 0.352441,4.296925 0.485728,7.661455 l 0.242339,6.117329 1.123213,3.470693 c 0.617767,1.908881 1.123213,3.631596 1.123213,3.828256 0,0.307315 -0.243593,0.33697 -1.733442,0.211032 -0.953393,-0.08059 -2.111743,-0.14653 -2.574111,-0.14653 -0.772187,0 -0.831939,-0.04566 -0.733515,-0.560533 0.05893,-0.308293 -0.215415,-1.547714 -0.609664,-2.754268 C 47.518013,90.7215 47.347969,89.319689 46.912092,81.762831 46.7205,78.441169 46.530646,77.075163 45.888687,74.39938 c -0.712657,-2.970459 -0.788331,-3.601446 -0.7898,-6.585495 -0.0021,-4.221749 0.223533,-5.386727 1.686382,-8.707827 0.658657,-1.495347 1.421061,-3.703065 1.694232,-4.90604 0.568629,-2.504104 1.694819,-5.00386 2.664527,-5.914342 0.366014,-0.343661 1.780578,-1.120353 3.143476,-1.725982 1.362897,-0.605631 3.59716,-1.726342 4.965027,-2.490471 1.367868,-0.764128 2.642311,-1.387085 2.832097,-1.384349 0.553831,0.008 2.022094,0.748483 3.970148,2.002285 l 1.812542,1.166584 0.140728,-0.963862 c 0.0774,-0.530123 0.21073,-3.512747 0.296289,-6.628053 0.197443,-7.188995 0.491915,-11.280833 0.914162,-12.702692 0.326641,-1.099924 1.632181,-2.625702 3.060663,-3.576983 1.179176,-0.78526 2.779832,-0.351623 4.052503,1.097872 2.106251,2.398886 3.421885,6.724702 6.374454,20.95928 0.762498,3.676061 2.509876,11.118811 3.883063,16.539444 3.452416,13.628361 3.596309,14.390265 3.589532,19.006204 -0.0063,4.258143 0.01978,4.135332 -2.487226,11.73844 -1.689969,5.125261 -1.700085,5.053056 0.707952,5.053056 1.407187,0 1.558233,0.04393 1.558233,0.453135 0,0.436936 -0.139729,0.451921 -3.908294,0.419189 -2.149561,-0.01867 -4.195146,-0.07705 -4.545746,-0.129721 z M 59.595381,72.870048 c -0.0054,-1.523297 -3.401359,-6.856628 -6.131256,-9.629129 -1.408878,-1.430865 -1.857243,-1.755899 -2.422151,-1.755899 -0.591928,0 -0.761682,0.141396 -1.161631,0.967582 -1.110773,2.294549 -1.106113,7.415423 0.0067,7.415423 0.133392,0 0.54545,-0.254888 0.915683,-0.566419 1.143665,-0.962331 1.930728,-0.68803 4.647845,1.619835 1.523128,1.293715 3.426338,2.571668 3.829893,2.571668 0.195401,0 0.316234,-0.239104 0.31487,-0.623061 z m -8.976588,-1.59221 c -0.319076,-0.506682 -0.990178,-0.639852 -0.990178,-0.196486 0,0.54253 0.694316,1.128364 0.988569,0.834111 0.178015,-0.178014 0.178467,-0.356783 0.0016,-0.637625 z m 14.596973,-2.210177 c 0.04869,-0.661439 -0.07833,-1.129687 -0.460145,-1.696267 -0.594204,-0.88174 -1.611056,-1.367533 -2.015634,-0.962956 -0.691726,0.691727 0.929253,3.783341 1.910463,3.643735 0.405141,-0.05764 0.510602,-0.241306 0.565316,-0.984512 z M 54.878894,56.750926 c 1.066764,-0.676523 2.065788,-1.819249 2.317589,-2.650958 0.173143,-0.571898 -0.733372,-1.581629 -1.839756,-2.049228 -1.020599,-0.431345 -1.363189,-0.388865 -2.000043,0.247989 -0.477719,0.477718 -0.556121,0.766218 -0.556121,2.046385 0,1.438456 0.450836,3.061687 0.850352,3.061687 0.106575,0 0.659165,-0.295143 1.227979,-0.655875 z m 24.550033,-5.83868 C 77.535041,39.532325 75.302209,29.699554 74.24583,28.087316 c -0.47236,-0.720911 -0.726315,-0.73886 -1.099019,-0.07768 -0.626009,1.110545 -0.427146,18.671665 0.236847,20.915667 0.201859,0.682188 6.529458,7.273186 6.760609,7.042033 0.05939,-0.05939 -0.262515,-2.334178 -0.71534,-5.055093 z m -14.436719,0.186773 c 0.330119,-0.497187 0.280696,-0.576225 -1.376738,-2.201733 -0.945533,-0.927319 -1.824993,-1.686033 -1.954358,-1.686033 -0.439431,0 -1.836949,1.40419 -1.836949,1.845718 0,0.628259 1.974556,2.6542 2.808379,2.881468 0.868252,0.236648 1.885444,-0.125204 2.359666,-0.83942 z"
       id="path11591"
       inkscape:connector-curvature="0"
       transform="matrix(0.26458333,0,0,0.26458333,0,87)" />
  </g>
</svg>
