<?xml version="1.0" encoding="UTF-8" standalone="no"?>
<!-- Created with Inkscape (http://www.inkscape.org/) -->

<svg
   xmlns:dc="http://purl.org/dc/elements/1.1/"
   xmlns:cc="http://creativecommons.org/ns#"
   xmlns:rdf="http://www.w3.org/1999/02/22-rdf-syntax-ns#"
   xmlns:svg="http://www.w3.org/2000/svg"
   xmlns="http://www.w3.org/2000/svg"
   xmlns:sodipodi="http://sodipodi.sourceforge.net/DTD/sodipodi-0.dtd"
   xmlns:inkscape="http://www.inkscape.org/namespaces/inkscape"
   width="297mm"
   height="210mm"
   viewBox="0 0 297 210"
   version="1.1"
   id="svg1549"
   sodipodi:docname="T.svg"
   inkscape:version="0.92.2 (5c3e80d, 2017-08-06)">
  <defs
     id="defs1543">
    <inkscape:path-effect
       effect="spiro"
       id="path-effect12160"
       is_visible="true" />
  </defs>
  <sodipodi:namedview
     id="base"
     pagecolor="#ffffff"
     bordercolor="#666666"
     borderopacity="1.0"
     inkscape:pageopacity="0.0"
     inkscape:pageshadow="2"
     inkscape:zoom="3.839128"
     inkscape:cx="0.46216658"
     inkscape:cy="733.39392"
     inkscape:document-units="mm"
     inkscape:current-layer="layer1"
     showgrid="false"
     inkscape:window-width="1366"
     inkscape:window-height="705"
     inkscape:window-x="-8"
     inkscape:window-y="-8"
     inkscape:window-maximized="1" />
  <metadata
     id="metadata1546">
    <rdf:RDF>
      <cc:Work
         rdf:about="">
        <dc:format>image/svg+xml</dc:format>
        <dc:type
           rdf:resource="http://purl.org/dc/dcmitype/StillImage" />
        <dc:title />
      </cc:Work>
    </rdf:RDF>
  </metadata>
  <g
     inkscape:label="Capa 1"
     inkscape:groupmode="layer"
     id="layer1"
     transform="translate(0,-87)">
    <path
       style="opacity:1;fill:#216778;fill-opacity:1;fill-rule:nonzero;stroke:none;stroke-width:0.66499996;stroke-linecap:butt;stroke-linejoin:miter;stroke-miterlimit:4;stroke-dasharray:none;stroke-dashoffset:0;stroke-opacity:1;paint-order:stroke fill markers"
       d="m 12.91436,112.51008 -1.857634,-0.0558 -0.115999,-0.52813 c -0.22194,-1.0105 0.224256,-4.40533 0.819021,-6.23143 0.457975,-1.40611 0.452279,-2.83958 -0.02066,-5.20225 -0.442966,-2.212864 -0.443857,-2.154544 0.03192,-2.086974 0.553562,0.0786 0.937755,0.97444 1.251361,2.917804 0.17857,1.10657 0.39429,1.82507 0.659561,2.19679 0.831419,1.16506 2.581227,3.20465 2.749343,3.20465 0.308235,0 0.548379,-0.92747 0.472978,-1.8267 -0.06794,-0.81024 -0.278628,-1.25124 -1.27245,-2.66343 -0.155523,-0.22099 -0.472276,-0.47385 -0.703895,-0.56191 -0.231619,-0.0881 -0.51357,-0.36301 -0.62656,-0.611 -0.258022,-0.56629 -0.0016,-0.76742 0.983718,-0.77124 0.605367,-0.002 0.788953,0.10589 1.544669,0.91069 1.462278,1.55725 3.074438,3.6673 3.074438,4.02394 0,0.18716 -0.385263,1.16934 -0.856139,2.18263 -0.470877,1.0133 -1.116746,2.60494 -1.435264,3.537 l -0.579126,1.69465 -1.130813,-0.0367 c -0.621948,-0.0202 -1.966748,-0.0619 -2.988447,-0.0925 z"
       id="path2860"
       inkscape:connector-curvature="0" />
    <path
       style="opacity:1;fill:#216778;fill-opacity:1;fill-rule:nonzero;stroke:none;stroke-width:0.66499996;stroke-linecap:butt;stroke-linejoin:miter;stroke-miterlimit:4;stroke-dasharray:none;stroke-dashoffset:0;stroke-opacity:1;paint-order:stroke fill markers"
       d="m 2.3330382,103.44103 v -9.024774 l 0.54366,-0.10873 c 0.299014,-0.0598 0.921764,-0.10874 1.38389,-0.10874 0.946473,0 0.911138,0.0694 1.097884,-2.155926 0.04732,-0.56381 0.162737,-1.10182 0.256492,-1.19558 0.211198,-0.2112 17.8484688,-0.27958 18.0584048,-0.07 0.07982,0.0797 0.167008,4.997746 0.193739,10.92903 l 0.0486,10.78415 -2.687651,-0.0558 c -1.478208,-0.0307 -2.739802,-0.10819 -2.803543,-0.1722 -0.06374,-0.064 0.33152,-1.16002 0.878361,-2.4356 0.546841,-1.27557 1.177983,-2.7498 1.402538,-3.27606 0.613936,-1.43881 0.55218,-1.92249 -0.433658,-3.39644 -0.470982,-0.70418 -1.108837,-1.99553 -1.430067,-2.89521 -0.59377,-1.662984 -1.803069,-4.153754 -2.876555,-5.924784 -0.893554,-1.474166 -1.618912,-1.882536 -3.387207,-1.906936 -0.876721,-0.0121 -1.302184,0.39197 -1.466088,1.392366 -0.05767,0.35199 -0.247324,1.14885 -0.421455,1.7708 -0.174133,0.62194 -0.365455,1.46491 -0.425161,1.87325 -0.123902,0.84736 0.02564,1.65444 0.277664,1.49868 0.09714,-0.06 0.145124,0.0666 0.111919,0.29537 -0.04122,0.28398 -0.221411,0.442552 -0.619514,0.545152 -1.1173908,0.288002 -1.0993488,0.966732 0.06017,2.263602 0.740838,0.82859 0.869063,1.37006 0.607174,2.56398 -0.116219,0.52983 -0.334304,1.51134 -0.484632,2.18113 -0.160325,0.71432 -0.282398,2.13464 -0.295267,3.43544 l -0.02193,2.21764 -3.7838808,5.3e-4 -3.783877,5.3e-4 z"
       id="path2862"
       inkscape:connector-curvature="0" />
    <path
       style="opacity:1;fill:#216778;fill-opacity:1;fill-rule:nonzero;stroke:none;stroke-width:0.66499996;stroke-linecap:butt;stroke-linejoin:miter;stroke-miterlimit:4;stroke-dasharray:none;stroke-dashoffset:0;stroke-opacity:1;paint-order:stroke fill markers"
       d="m 2.3330382,103.44176 v -9.024054 l 1.060053,-0.11993 c 1.800651,-0.20372 1.836708,-0.23484 1.974392,-1.704126 0.06609,-0.70524 0.190347,-1.39589 0.276133,-1.53477 0.132268,-0.21414 1.504592,-0.26124 9.0281728,-0.30983 l 8.872199,-0.0573 0.08382,0.40525 c 0.0461,0.22289 0.133559,5.134356 0.194357,10.91439 l 0.110543,10.50914 -1.970783,-0.11356 c -1.083932,-0.0625 -2.31199,-0.11391 -2.729021,-0.11434 -0.938549,-0.001 -0.969182,0.16955 0.672629,-3.74447 1.020879,-2.43373 1.205203,-3.01962 1.114935,-3.5439 -0.05948,-0.34547 -0.58942,-1.60674 -1.177636,-2.80283 -1.057545,-2.15042 -1.917653,-4.006684 -1.934618,-4.175254 -0.02666,-0.26484 -0.500665,-1.2178 -0.605739,-1.2178 -0.06813,0 -0.12387,-0.10096 -0.12387,-0.22434 0,-0.33763 -1.280409,-2.55921 -1.475005,-2.55921 -0.09309,0 -0.128169,-0.0665 -0.07795,-0.14775 0.09809,-0.15871 -0.665107,-0.896076 -0.927465,-0.896076 -0.08699,0 -0.190074,-0.0958 -0.22909,-0.21281 -0.04609,-0.13828 -0.532886,-0.22557 -1.389911,-0.24924 -1.468621,-0.0405 -1.819828,0.15498 -1.958576,1.090426 -0.04099,0.27634 -0.191627,0.92672 -0.334753,1.44529 -0.143127,0.51856 -0.223393,1.00245 -0.178372,1.0753 0.04502,0.0729 0.0073,0.17854 -0.08388,0.23488 -0.09115,0.0563 -0.170918,0.23789 -0.177249,0.40346 -0.0063,0.16556 -0.05906,0.63765 -0.117158,1.04909 -0.0787,0.55725 -0.03385,0.8274 0.175818,1.05908 0.260184,0.2875 0.256048,0.34032 -0.05471,0.69863 -0.184893,0.213182 -0.381542,0.381992 -0.436996,0.375122 -0.1877218,-0.0233 -0.7953848,0.420222 -0.7953848,0.580472 0,0.0876 0.195718,0.41579 0.43493,0.72941 0.23921,0.31363 0.4349268,0.62181 0.4349268,0.68487 0,0.0631 0.156575,0.3137 0.347943,0.55699 0.446495,0.56762 0.446495,1.57929 0,3.52689 -0.216627,0.94493 -0.341312,2.1382 -0.345392,3.30546 -0.0035,1.00469 -0.05491,2.12028 -0.114213,2.47909 l -0.1078358,0.6524 h -3.717621 -3.717623 z"
       id="path2864"
       inkscape:connector-curvature="0" />
    <path
       style="opacity:1;fill:#216778;fill-opacity:1;fill-rule:nonzero;stroke:none;stroke-width:0.66499996;stroke-linecap:butt;stroke-linejoin:miter;stroke-miterlimit:4;stroke-dasharray:none;stroke-dashoffset:0;stroke-opacity:1;paint-order:stroke fill markers"
       d="m 16.227005,99.123346 c -0.880645,-0.45765 -1.149734,-0.92191 -2.220498,-3.83107 -0.541017,-1.4699 -0.51458,-1.787566 0.112234,-1.34853 0.454178,0.31812 3.175839,5.08027 3.175839,5.55683 0,0.14383 -0.202825,0.0722 -1.067575,-0.37723 z"
       id="path2866"
       inkscape:connector-curvature="0" />
    <path
       style="opacity:1;fill:#216778;fill-opacity:1;fill-rule:nonzero;stroke:none;stroke-width:0.66499996;stroke-linecap:butt;stroke-linejoin:miter;stroke-miterlimit:4;stroke-dasharray:none;stroke-dashoffset:0;stroke-opacity:1;paint-order:stroke fill markers"
       d="m 13.783652,98.873446 c -0.611275,-0.88846 -1.556169,-3.53992 -1.556169,-4.36675 0,-0.2948 0.164696,-0.0716 0.350139,0.47439 0.105492,0.31062 0.439032,1.13238 0.741204,1.82613 0.610952,1.40268 0.823987,1.97812 0.823987,2.22571 0,0.25076 -0.110739,0.20159 -0.359161,-0.15948 z"
       id="path2878"
       inkscape:connector-curvature="0" />
    <path
       style="opacity:1;fill:#216778;fill-opacity:1;fill-rule:nonzero;stroke:none;stroke-width:0.66499996;stroke-linecap:butt;stroke-linejoin:miter;stroke-miterlimit:4;stroke-dasharray:none;stroke-dashoffset:0;stroke-opacity:1;paint-order:stroke fill markers"
       d="m 1.9606082,92.37137 c -0.243356,-0.26344 -0.309229,-0.65583 -0.369581,-2.20149 -0.06725,-1.72238 -0.06204,-1.70943 -0.71739596,-1.78357 -0.47725599,-0.054 -0.66310199,-0.22885 -0.62212599,-0.58535 0.04184,-0.36406 0.256027,-0.40584 2.08009595,-0.40584 1.883603,0 2.044396,0.0352 2.075723,0.45444 0.01019,0.13628 -0.0091,0.28999 -0.04282,0.34158 -0.08353,0.12773 -0.524579,0.22169 -1.05023,0.22373 l -0.436097,0.002 -0.04241,0.9754 c -0.06585,1.51439 -0.176802,2.62754 -0.288549,2.895 -0.122669,0.29358 -0.361611,0.32796 -0.5866,0.0844 z"
       id="path2880"
       inkscape:connector-curvature="0" />
    <path
       style="opacity:1;fill:#ffffff;fill-opacity:1;fill-rule:nonzero;stroke:none;stroke-width:2.51338577;stroke-linecap:butt;stroke-linejoin:miter;stroke-miterlimit:4;stroke-dasharray:none;stroke-dashoffset:0;stroke-opacity:1;paint-order:stroke fill markers"
       d="m 37.50755,94.937127 c 0.02755,-4.076376 0.556883,-15.855824 0.785889,-17.48876 0.158551,-1.130564 0.807193,-4.379245 1.441425,-7.219293 1.371604,-6.141947 1.482147,-8.243075 0.539833,-10.260825 -0.334525,-0.716309 -0.900004,-1.654022 -1.25662,-2.083807 -0.356617,-0.429785 -1.429732,-1.9403 -2.384701,-3.356699 -2.300771,-3.412484 -2.279173,-4.212712 0.140992,-5.223921 1.579597,-0.659999 3.322342,-1.968846 3.485124,-2.617423 0.211353,-0.842097 0.03905,-1.565272 -0.372934,-1.565272 -0.635206,0 -1.063693,-1.262579 -1.073121,-3.162054 -0.0099,-1.986315 0.651951,-6.052386 1.051866,-6.462527 0.132706,-0.136099 0.241283,-0.509158 0.241283,-0.82902 0,-0.597282 1.790635,-8.305302 2.476058,-10.658511 0.224947,-0.772295 0.714407,-1.633171 1.184768,-2.083806 l 0.80147,-0.767857 h 4.215629 c 4.093699,0 5.908721,0.290397 5.908721,0.945376 0,0.127041 0.470772,0.419349 1.046161,0.649574 1.043266,0.417433 3.121452,2.483161 3.121452,3.102741 0,0.179572 0.322339,0.672132 0.716308,1.094578 0.795233,0.852713 3.534514,5.58816 4.635194,8.012949 0.390185,0.859571 0.80998,1.738676 0.932881,1.953569 1.497538,2.618456 4.097529,8.363585 6.070808,13.414505 1.208873,3.094301 3.256211,7.320217 4.858523,10.02849 1.251346,2.115064 3.078451,6.556594 3.273555,7.957727 0.238745,1.714512 -0.495714,3.90119 -4.369489,13.009144 -4.415211,10.380975 -5.684002,13.88185 -5.152926,14.218075 0.227357,0.143939 -0.655375,0.233126 -2.331902,0.235606 -2.467518,0.0036 -2.681827,-0.03491 -2.511231,-0.451845 0.102583,-0.250708 0.628254,-1.745188 1.168156,-3.321067 1.555707,-4.540825 2.956153,-8.076115 5.496506,-13.875388 3.172598,-7.242603 3.686055,-8.633807 3.512995,-9.518395 -0.445109,-2.275134 -11.214148,-15.473345 -14.354515,-17.592464 -1.27628,-0.861235 -1.326135,-0.871576 -3.708098,-0.76917 -2.024752,0.08705 -2.503107,0.192487 -2.963906,0.653284 -1.213489,1.213489 0.01974,3.289877 3.062578,5.156471 0.931546,0.571444 1.705178,1.411372 2.878999,3.125709 3.150956,4.601897 3.885269,6.734548 3.672689,10.666524 -0.135622,2.508523 -0.66849,4.207654 -1.408645,4.491676 -0.513958,0.197225 -1.706635,-1.020088 -5.793658,-5.91334 C 51.017783,61.813332 50.54601,60.890242 49.358003,54.368019 47.866106,46.177415 46.598328,43.385152 44.1943,42.995032 c -0.828327,-0.134419 -0.953376,-0.08078 -1.086791,0.466148 -0.08292,0.339924 0.313013,3.07954 0.879847,6.088036 0.566833,3.008496 1.171982,6.699954 1.344774,8.203238 0.425384,3.700833 0.186856,8.652144 -0.545938,11.332448 -1.972102,7.213258 -2.557261,10.0248 -3.251109,15.620772 -0.425951,3.43535 -0.500966,8.578398 -0.147335,10.101215 l 0.226831,0.976785 h -2.056376 -2.056375 l 0.0057,-0.846547 z M 65.37274,47.113238 c 0,-1.382891 -7.511212,-14.948297 -10.850771,-19.596719 -0.839071,-1.167925 -1.988975,-2.061316 -2.653168,-2.061316 -0.926586,0 -0.455188,2.054097 1.913012,8.335879 2.260303,5.995579 3.747099,8.983368 5.160736,10.370747 1.049174,1.029687 5.315086,3.433819 6.092998,3.433819 0.185456,0 0.337193,-0.217086 0.337193,-0.48241 z M 53.50519,45.798045 c 0.219617,-0.355349 -0.764971,-3.322778 -2.235588,-6.737792 -0.723755,-1.680679 -2.017732,-4.813991 -2.875504,-6.962917 -0.857772,-2.148925 -1.664846,-4.016537 -1.793498,-4.150248 -1.585329,-1.647672 1.007912,7.946117 3.677879,13.606443 1.709853,3.624888 2.757745,5.003316 3.226711,4.244514 z"
       id="path12162"
       inkscape:connector-curvature="0"
       transform="matrix(0.26458333,0,0,0.26458333,0,87)" />
    <path
       style="opacity:1;fill:#ffffff;fill-opacity:1;fill-rule:nonzero;stroke:none;stroke-width:2.51338577;stroke-linecap:butt;stroke-linejoin:miter;stroke-miterlimit:4;stroke-dasharray:none;stroke-dashoffset:0;stroke-opacity:1;paint-order:stroke fill markers"
       d="m 37.620828,89.727611 c 0.226524,-8.193923 0.575782,-12.381129 1.330346,-15.949346 0.348953,-1.650148 0.926566,-4.377536 1.283584,-6.060861 0.69013,-3.253929 0.810827,-5.348178 0.394581,-6.846481 -0.26994,-0.971666 -0.62904,-1.549292 -3.771149,-6.066052 -2.696762,-3.876573 -2.664657,-4.20345 0.580171,-5.907035 0.896294,-0.47057 1.921917,-1.147872 2.279163,-1.505117 0.807323,-0.807324 0.879435,-2.020475 0.131722,-2.216006 -0.284798,-0.07448 -0.648464,-0.469093 -0.808146,-0.876926 -0.543171,-1.387275 0.08558,-7.973301 0.840424,-8.803241 0.123784,-0.136099 0.225062,-0.504362 0.225062,-0.818364 0,-0.69334 2.245624,-10.3786 2.629594,-11.341304 0.15042,-0.377139 0.624654,-1.021817 1.053852,-1.432617 l 0.78036,-0.746909 h 4.345111 c 3.39337,0 4.490646,0.08558 5.009538,0.390714 2.079769,1.223001 2.501561,1.506631 3.362167,2.260856 0.519783,0.455532 1.110198,1.158817 1.312034,1.562855 0.201836,0.404039 0.621381,1.027651 0.932322,1.385805 0.880483,1.014174 3.215775,5.169313 5.670361,10.089156 2.04224,4.093358 3.713615,7.84464 7.052209,15.828188 0.659006,1.575879 1.785986,3.920161 2.504402,5.209516 2.997902,5.380412 4.679898,9.393141 4.679898,11.164807 0,1.447826 -0.918505,4.024705 -4.094346,11.486746 -4.905458,11.525987 -5.973958,14.452313 -5.463439,14.962833 0.206144,0.206143 -0.449234,0.284846 -2.372007,0.284846 -1.461269,0 -2.656853,-0.04695 -2.656853,-0.104339 0,-0.210358 3.347187,-9.462323 4.108602,-11.356597 0.431887,-1.074463 1.838092,-4.356458 3.124897,-7.293323 1.286805,-2.936865 2.544112,-5.990686 2.794015,-6.786273 0.443752,-1.41273 0.441775,-1.471199 -0.0847,-2.503162 -1.2914,-2.531356 -7.906714,-10.778318 -11.786629,-14.693767 -2.607845,-2.63173 -3.341801,-2.965999 -6.12085,-2.787651 -2.10577,0.13514 -3.235798,0.673075 -3.235798,1.540358 0,1.122111 1.132027,2.581396 2.912351,3.754279 2.276058,1.499474 5.125732,5.354068 6.51195,8.80835 1.445456,3.601901 0.501804,10.975429 -1.268113,9.90881 C 60.400812,73.422624 52.133945,63.269993 51.140562,61.170155 50.7752,60.397844 50.194336,58.434203 49.849754,56.80651 c -0.344583,-1.627695 -0.907783,-4.278102 -1.251556,-5.889796 -1.092857,-5.123583 -2.130645,-7.154231 -3.96579,-7.759883 -1.792082,-0.59144 -1.820367,-0.172146 -0.479902,7.114057 1.248257,6.784994 1.510667,9.361936 1.355587,13.312242 -0.101397,2.582844 -0.302201,4.022572 -0.821845,5.892486 -1.208115,4.347336 -2.429352,9.985041 -2.912014,13.442983 -0.478811,3.430357 -0.657783,10.444538 -0.306662,12.018528 l 0.188845,0.846547 H 39.554911 37.453405 Z M 65.37274,47.088512 c 0,-1.086084 -5.856651,-11.854417 -9.499194,-17.465696 -1.60302,-2.469428 -3.202092,-4.167613 -3.924374,-4.167613 -0.617344,0 -0.4648,1.741791 0.366417,4.18387 2.712089,7.967995 5.180636,13.249176 6.868138,14.693615 1.062942,0.909838 5.258297,3.238376 5.863419,3.254359 0.179077,0.0047 0.325594,-0.21961 0.325594,-0.498535 z M 53.296594,44.828489 c -0.09079,-0.662368 -1.266845,-3.856452 -2.613462,-7.097966 -1.346616,-3.241515 -2.826665,-6.810901 -3.288997,-7.93197 -1.088838,-2.640232 -1.52315,-2.363304 -0.9248,0.589674 0.849029,4.190129 3.826768,11.867303 5.606001,14.453329 1.065225,1.548253 1.434719,1.544299 1.221258,-0.01307 z"
       id="path12164"
       inkscape:connector-curvature="0"
       transform="matrix(0.26458333,0,0,0.26458333,0,87)" />
    <path
       style="opacity:1;fill:#ffffff;fill-opacity:1;fill-rule:nonzero;stroke:none;stroke-width:2.51338577;stroke-linecap:butt;stroke-linejoin:miter;stroke-miterlimit:4;stroke-dasharray:none;stroke-dashoffset:0;stroke-opacity:1;paint-order:stroke fill markers"
       d="m 37.611698,89.467135 c 0.258557,-9.273632 0.550042,-12.138952 1.85541,-18.238832 0.636801,-2.975717 1.231783,-6.206216 1.322183,-7.178883 0.210385,-2.263659 -0.319443,-4.141307 -1.66641,-5.90557 -2.180514,-2.856047 -4.225811,-6.189963 -4.225811,-6.888244 0,-0.853866 0.367833,-1.193385 2.654027,-2.449749 1.743897,-0.958345 2.815965,-1.987667 2.815965,-2.703686 0,-0.209726 -0.351643,-0.709802 -0.781428,-1.111282 -0.748516,-0.699219 -0.781427,-0.822278 -0.781427,-2.9219 0,-2.327116 0.311291,-4.53474 0.910233,-6.455229 0.201056,-0.644678 0.91411,-3.575031 1.584565,-6.511896 1.336786,-5.85567 1.533715,-6.38984 2.725348,-7.392534 0.786206,-0.661549 0.916301,-0.682216 4.294385,-0.682216 3.912911,0 5.84567,0.313648 6.519247,1.057943 0.251317,0.277701 0.598091,0.504912 0.77061,0.504912 0.502533,0 2.710375,2.067435 3.161215,2.960178 0.226846,0.449197 0.623441,1.05115 0.881322,1.337673 0.748462,0.831593 2.990954,4.842633 5.461002,9.767843 2.142568,4.272218 3.201303,6.632805 6.892657,15.368073 0.817284,1.934033 2.408838,5.216029 3.536787,7.293323 2.365626,4.356672 3.896856,8.129034 3.896856,9.60035 0,1.586943 -0.825291,3.921596 -4.290047,12.136045 -4.09978,9.719996 -5.166756,12.544734 -5.194724,13.75261 l -0.02258,0.975958 -2.539639,7.82e-4 c -1.396802,5.21e-4 -2.539639,-0.04897 -2.539639,-0.109832 0,-0.06086 0.541675,-1.672555 1.203718,-3.581543 1.562949,-4.506706 3.274187,-8.798636 5.97946,-14.996997 2.818249,-6.457216 3.310624,-7.909239 2.97834,-8.78321 -0.677698,-1.782486 -5.738936,-8.398316 -9.95188,-13.008668 -4.324372,-4.732293 -5.254086,-5.289178 -8.349897,-5.001451 -2.120198,0.19705 -2.73731,0.47155 -2.948085,1.311339 -0.302356,1.204686 0.576366,2.280583 3.795021,4.64659 1.364483,1.003022 4.596228,5.660199 5.515739,7.948581 0.514763,1.281082 0.598592,1.949573 0.595276,4.747007 -0.0029,2.477935 -0.108295,3.490228 -0.440918,4.236395 -0.870502,1.952784 -1.200457,1.754322 -5.527541,-3.324729 -3.932368,-4.615684 -6.3386,-7.896468 -6.908265,-9.419035 -0.277926,-0.742822 -0.986938,-3.674585 -1.575583,-6.515024 -1.648114,-7.952783 -2.607428,-10.194431 -4.597911,-10.74403 -0.521058,-0.143871 -1.046288,-0.200453 -1.167179,-0.125738 -0.40208,0.248499 -0.22833,2.037704 0.669093,6.890047 1.285805,6.952313 1.539539,9.408412 1.392052,13.474828 -0.116592,3.214615 -0.261792,4.084206 -1.444839,8.65304 -1.531103,5.912997 -2.276996,10.151149 -2.681782,15.237836 -0.267664,3.363568 -0.181289,7.110771 0.185967,8.067824 0.129202,0.336696 -0.176132,0.39764 -1.992206,0.39764 h -2.144794 z m 27.09933,-43.986074 c -0.923838,-2.202604 -4.81559,-9.287079 -7.612881,-13.858353 -2.282959,-3.730765 -4.42869,-6.322039 -5.054386,-6.103887 -0.77853,0.271437 -0.318632,2.578482 1.467169,7.359943 2.343159,6.273781 4.052701,9.788136 5.426023,11.154432 1.246619,1.240241 5.861753,3.719724 6.232869,3.348609 0.144259,-0.14426 -0.03695,-0.894994 -0.458794,-1.900744 z m -11.320175,-0.05868 c 0,-0.335727 -0.219678,-1.244136 -0.488174,-2.018688 -0.762474,-2.199572 -6.039029,-14.924356 -6.301342,-15.196129 -0.481794,-0.499168 -0.51054,0.102486 -0.100213,2.09746 0.632739,3.076325 2.319166,7.938958 3.899803,11.244668 1.964401,4.108306 2.989926,5.436614 2.989926,3.872689 z"
       id="path12166"
       inkscape:connector-curvature="0"
       transform="matrix(0.26458333,0,0,0.26458333,0,87)" />
  </g>
</svg>
