<?xml version="1.0" encoding="UTF-8" standalone="no"?>
<!-- Created with Inkscape (http://www.inkscape.org/) -->

<svg
   xmlns:dc="http://purl.org/dc/elements/1.1/"
   xmlns:cc="http://creativecommons.org/ns#"
   xmlns:rdf="http://www.w3.org/1999/02/22-rdf-syntax-ns#"
   xmlns:svg="http://www.w3.org/2000/svg"
   xmlns="http://www.w3.org/2000/svg"
   xmlns:sodipodi="http://sodipodi.sourceforge.net/DTD/sodipodi-0.dtd"
   xmlns:inkscape="http://www.inkscape.org/namespaces/inkscape"
   width="297mm"
   height="210mm"
   viewBox="0 0 297 210"
   version="1.1"
   id="svg1549"
   sodipodi:docname="U.svg"
   inkscape:version="0.92.2 (5c3e80d, 2017-08-06)">
  <defs
     id="defs1543">
    <inkscape:path-effect
       effect="spiro"
       id="path-effect12755"
       is_visible="true" />
  </defs>
  <sodipodi:namedview
     id="base"
     pagecolor="#ffffff"
     bordercolor="#666666"
     borderopacity="1.0"
     inkscape:pageopacity="0.0"
     inkscape:pageshadow="2"
     inkscape:zoom="7.1658553"
     inkscape:cx="61.1951"
     inkscape:cy="724.22374"
     inkscape:document-units="mm"
     inkscape:current-layer="layer1"
     showgrid="false"
     inkscape:window-width="1366"
     inkscape:window-height="705"
     inkscape:window-x="-8"
     inkscape:window-y="-8"
     inkscape:window-maximized="1" />
  <metadata
     id="metadata1546">
    <rdf:RDF>
      <cc:Work
         rdf:about="">
        <dc:format>image/svg+xml</dc:format>
        <dc:type
           rdf:resource="http://purl.org/dc/dcmitype/StillImage" />
        <dc:title />
      </cc:Work>
    </rdf:RDF>
  </metadata>
  <g
     inkscape:label="Capa 1"
     inkscape:groupmode="layer"
     id="layer1"
     transform="translate(0,-87)">
    <path
       style="opacity:1;fill:#216778;fill-opacity:1;fill-rule:nonzero;stroke:none;stroke-width:0.66499996;stroke-linecap:butt;stroke-linejoin:miter;stroke-miterlimit:4;stroke-dasharray:none;stroke-dashoffset:0;stroke-opacity:1;paint-order:stroke fill markers"
       d="m 19.004437,92.947888 c -0.0291,-0.0178 -0.116811,-0.1 -0.194906,-0.18259 -0.145872,-0.1543 -0.437885,-0.52499 -0.424277,-0.5386 0.01434,-0.0143 0.08156,0.032 0.297373,0.20502 0.289118,0.23179 0.47948,0.42934 0.465169,0.48273 -0.0058,0.0217 -0.01069,0.0455 -0.01082,0.0527 -5.3e-4,0.0247 -0.07941,0.0132 -0.132533,-0.0193 z"
       id="path2622"
       inkscape:connector-curvature="0" />
    <path
       style="opacity:1;fill:#216778;fill-opacity:1;fill-rule:nonzero;stroke:none;stroke-width:0.66499996;stroke-linecap:butt;stroke-linejoin:miter;stroke-miterlimit:4;stroke-dasharray:none;stroke-dashoffset:0;stroke-opacity:1;paint-order:stroke fill markers"
       d="m 19.493953,95.013585 c -0.06333,-0.0965 -0.04458,-0.600397 0.02209,-0.593897 0.03256,0.003 0.09395,0.13595 0.11539,0.24955 0.04453,0.236 -0.0512,0.475787 -0.13748,0.344347 z"
       id="path2624"
       inkscape:connector-curvature="0" />
    <path
       style="opacity:1;fill:#216778;fill-opacity:1;fill-rule:nonzero;stroke:none;stroke-width:0.66499996;stroke-linecap:butt;stroke-linejoin:miter;stroke-miterlimit:4;stroke-dasharray:none;stroke-dashoffset:0;stroke-opacity:1;paint-order:stroke fill markers"
       d="m 12.381966,99.789945 c -0.05614,-0.0562 -0.07685,-0.16881 -0.06498,-0.35371 0.03392,-0.52874 0.231065,-0.74227 0.759547,-0.82264 0.246917,-0.0375 0.581374,-0.0384 0.66648,-0.002 0.16919,0.073 0.06103,0.26752 -0.347742,0.62545 -0.54611,0.47819 -0.896583,0.66932 -1.013304,0.55259 z"
       id="path2626"
       inkscape:connector-curvature="0" />
    <path
       style="opacity:1;fill:#216778;fill-opacity:1;fill-rule:nonzero;stroke:none;stroke-width:0.66499996;stroke-linecap:butt;stroke-linejoin:miter;stroke-miterlimit:4;stroke-dasharray:none;stroke-dashoffset:0;stroke-opacity:1;paint-order:stroke fill markers"
       d="m 15.974984,99.929965 c -0.02666,-0.008 -0.0981,-0.0422 -0.15875,-0.0763 -0.153331,-0.086 -0.921657,-0.67006 -0.921657,-0.7006 0,-0.0348 0.559636,-0.20856 0.740812,-0.22999 0.355864,-0.0421 0.765783,0.0661 0.969751,0.25609 0.04388,0.0409 0.07979,0.0838 0.07979,0.0955 0,0.0251 -0.0548,0.0495 -0.143439,0.0638 -0.146524,0.0237 -0.286647,0.18335 -0.351242,0.40025 -0.05169,0.17356 -0.10758,0.22321 -0.21526,0.1912 z"
       id="path2628"
       inkscape:connector-curvature="0" />
    <path
       style="opacity:1;fill:#216778;fill-opacity:1;fill-rule:nonzero;stroke:none;stroke-width:0.66499996;stroke-linecap:butt;stroke-linejoin:miter;stroke-miterlimit:4;stroke-dasharray:none;stroke-dashoffset:0;stroke-opacity:1;paint-order:stroke fill markers"
       d="m 20.552286,101.09899 c -0.06333,-0.0965 -0.04459,-0.60039 0.02209,-0.59389 0.03256,0.003 0.09395,0.13595 0.11539,0.24954 0.04453,0.23601 -0.0512,0.47579 -0.13748,0.34435 z"
       id="path2630"
       inkscape:connector-curvature="0" />
    <path
       style="opacity:1;fill:#216778;fill-opacity:1;fill-rule:nonzero;stroke:none;stroke-width:0.66499996;stroke-linecap:butt;stroke-linejoin:miter;stroke-miterlimit:4;stroke-dasharray:none;stroke-dashoffset:0;stroke-opacity:1;paint-order:stroke fill markers"
       d="m 13.858206,104.05638 c -0.213479,-0.1127 -0.545171,-0.60883 -0.665448,-0.99535 -0.04843,-0.15563 -0.06424,-0.37104 -0.03173,-0.43216 0.06014,-0.11305 0.187603,-0.0418 0.517213,0.28924 0.375163,0.37676 0.695986,0.83032 0.695986,0.98394 0,0.0704 -0.06432,0.12948 -0.177477,0.16308 -0.12687,0.0377 -0.256963,0.0343 -0.338545,-0.009 z"
       id="path2632"
       inkscape:connector-curvature="0" />
    <path
       style="opacity:1;fill:#216778;fill-opacity:1;fill-rule:nonzero;stroke:none;stroke-width:0.66499996;stroke-linecap:butt;stroke-linejoin:miter;stroke-miterlimit:4;stroke-dasharray:none;stroke-dashoffset:0;stroke-opacity:1;paint-order:stroke fill markers"
       d="m 12.583669,101.26812 c -0.07319,-0.081 -0.144129,-0.22574 -0.200681,-0.4094 -0.04465,-0.14503 -0.0451,-0.15249 -0.009,-0.15249 0.03849,0 0.259961,0.21659 0.323162,0.31604 0.106301,0.16726 0.108172,0.31896 0.0039,0.31896 -0.03777,0 -0.06873,-0.0193 -0.117356,-0.0731 z"
       id="path2634"
       inkscape:connector-curvature="0" />
    <path
       style="opacity:1;fill:#216778;fill-opacity:1;fill-rule:nonzero;stroke:none;stroke-width:0.66499996;stroke-linecap:butt;stroke-linejoin:miter;stroke-miterlimit:4;stroke-dasharray:none;stroke-dashoffset:0;stroke-opacity:1;paint-order:stroke fill markers"
       d="m 14.954063,103.21537 c -0.02193,-0.028 -0.02133,-0.0286 0.0067,-0.007 0.01699,0.0133 0.03087,0.0272 0.03087,0.0309 0,0.0145 -0.0145,0.005 -0.03753,-0.0242 z"
       id="path2636"
       inkscape:connector-curvature="0" />
    <path
       style="opacity:1;fill:#216778;fill-opacity:1;fill-rule:nonzero;stroke:none;stroke-width:0.66499996;stroke-linecap:butt;stroke-linejoin:miter;stroke-miterlimit:4;stroke-dasharray:none;stroke-dashoffset:0;stroke-opacity:1;paint-order:stroke fill markers"
       d="m 15.035687,103.53121 c -0.0291,-0.0178 -0.116811,-0.1 -0.194906,-0.18258 -0.145872,-0.1543 -0.437885,-0.525 -0.424277,-0.5386 0.01434,-0.0143 0.08156,0.032 0.297373,0.20501 0.289118,0.23179 0.47948,0.42935 0.465169,0.48274 -0.0058,0.0217 -0.01069,0.0455 -0.01082,0.0527 -5.3e-4,0.0247 -0.0794,0.0132 -0.132533,-0.0193 z"
       id="path2638"
       inkscape:connector-curvature="0" />
    <path
       style="opacity:1;fill:#216778;fill-opacity:1;fill-rule:nonzero;stroke:none;stroke-width:0.66499996;stroke-linecap:butt;stroke-linejoin:miter;stroke-miterlimit:4;stroke-dasharray:none;stroke-dashoffset:0;stroke-opacity:1;paint-order:stroke fill markers"
       d="m 10.237233,106.93032 c -0.02921,-0.0323 -0.03309,-0.0671 -0.03309,-0.2966 0,-0.19539 0.0061,-0.26731 0.02439,-0.28938 0.03416,-0.0411 0.06259,-0.0129 0.110008,0.10937 0.09273,0.23907 0.01492,0.60512 -0.101309,0.47661 z"
       id="path2640"
       inkscape:connector-curvature="0" />
    <path
       style="opacity:1;fill:#216778;fill-opacity:1;fill-rule:nonzero;stroke:none;stroke-width:0.66499996;stroke-linecap:butt;stroke-linejoin:miter;stroke-miterlimit:4;stroke-dasharray:none;stroke-dashoffset:0;stroke-opacity:1;paint-order:stroke fill markers"
       d="m 11.243835,100.20367 c -0.1103,-0.11695 -0.174898,-0.377255 -0.132506,-0.533945 0.02663,-0.0984 0.111133,-0.19273 0.195328,-0.21796 0.05874,-0.0176 0.07765,-0.0152 0.14772,0.0187 0.09223,0.0447 0.179131,0.15212 0.207322,0.25641 0.04466,0.16521 -0.03159,0.386125 -0.16786,0.486345 -0.09972,0.0733 -0.174516,0.0705 -0.250004,-0.01 z"
       id="path2642"
       inkscape:connector-curvature="0" />
    <path
       style="opacity:1;fill:#216778;fill-opacity:1;fill-rule:nonzero;stroke:none;stroke-width:0.66499996;stroke-linecap:butt;stroke-linejoin:miter;stroke-miterlimit:4;stroke-dasharray:none;stroke-dashoffset:0;stroke-opacity:1;paint-order:stroke fill markers"
       d="m 10.766399,98.728245 c -0.02921,-0.0323 -0.03309,-0.0671 -0.03309,-0.2966 0,-0.1954 0.0061,-0.26731 0.0244,-0.28939 0.03416,-0.0411 0.06259,-0.0129 0.110008,0.10938 0.09273,0.23907 0.01492,0.60511 -0.101308,0.47661 z"
       id="path2644"
       inkscape:connector-curvature="0" />
    <path
       style="opacity:1;fill:#216778;fill-opacity:1;fill-rule:nonzero;stroke:none;stroke-width:0.66499996;stroke-linecap:butt;stroke-linejoin:miter;stroke-miterlimit:4;stroke-dasharray:none;stroke-dashoffset:0;stroke-opacity:1;paint-order:stroke fill markers"
       d="m 2.1623899,92.450758 c -0.470601,-0.0539 -0.89975,-0.21648 -1.161708,-0.44001 -0.36185796,-0.30879 -0.50977596,-0.63693 -0.57667786,-1.2793 -0.06088,-0.58457 -0.05649,-2.80902 0.0062,-3.15055 0.05344,-0.29106 0.1246689,-0.36823 0.3399729,-0.36834 0.158404,-8e-5 0.37526896,0.0406 0.47588496,0.0893 0.250074,0.12106 0.321604,0.4409 0.37646,1.6833 0.06016,1.36257 0.150289,1.92826 0.343683,2.15713 0.117912,0.13955 0.483053,0.23806 0.709311,0.19137 0.187833,-0.0388 0.292817,-0.13486 0.40251,-0.36843 0.152879,-0.32553 0.213726,-0.75629 0.273455,-1.93597 0.0402,-0.79398 0.05907,-1.0166 0.105966,-1.25027 0.04338,-0.21616 0.10554,-0.34263 0.198689,-0.40427 0.06824,-0.0452 0.08297,-0.0476 0.286184,-0.0476 0.203242,0 0.217937,0.002 0.286226,0.0476 0.153636,0.10167 0.223874,0.37755 0.268544,1.05479 0.06285,0.95287 0.08168,2.19136 0.03834,2.52236 -0.05729,0.43758 -0.177411,0.69195 -0.455861,0.96533 -0.25228,0.24769 -0.641551,0.42702 -1.098574,0.5061 -0.202853,0.0351 -0.627443,0.0493 -0.818629,0.0274 z"
       id="path2646"
       inkscape:connector-curvature="0" />
    <path
       style="opacity:1;fill:#216778;fill-opacity:1;fill-rule:nonzero;stroke:none;stroke-width:0.66499996;stroke-linecap:butt;stroke-linejoin:miter;stroke-miterlimit:4;stroke-dasharray:none;stroke-dashoffset:0;stroke-opacity:1;paint-order:stroke fill markers"
       d="m 11.987142,112.66232 c 0.04583,-0.14353 0.02484,-0.78064 -0.03654,-1.10856 -0.03241,-0.17319 -0.112381,-0.48159 -0.177707,-0.68532 -0.318659,-0.99382 -0.653399,-2.78479 -0.654857,-3.5037 -0.0011,-0.48001 0.06278,-0.63233 0.534276,-1.2765 0.604194,-0.82547 0.665604,-1.10109 0.300992,-1.35092 -0.191217,-0.13103 -0.312509,-0.10135 -0.578657,0.14158 -0.154215,0.14075 -0.398295,0.27236 -0.507761,0.27377 -0.111096,0.001 -0.240993,-0.081 -0.314209,-0.19951 -0.0545,-0.0882 -0.08451,-0.23452 -0.119941,-0.58485 -0.07548,-0.74639 -0.18334,-1.34143 -0.4939371,-2.72501 -0.273304,-1.21745 -0.36718,-1.794135 -0.422283,-2.594035 -0.05089,-0.73881 0.231402,-1.92151 0.458637,-1.92151 0.09054,0 0.1534061,0.17966 0.1560701,0.44605 0.0062,0.61903 0.166952,1.52986 0.459869,2.605465 0.262665,0.96453 0.356211,1.48141 0.376693,2.0814 0.0096,0.28134 0.0332,0.55312 0.05244,0.60396 0.05322,0.14063 0.169466,0.17541 0.501031,0.14993 0.490122,-0.0377 0.563967,0.0331 0.814107,0.78069 0.177324,0.52993 0.273831,0.72268 0.471255,0.94121 0.265295,0.29365 0.570418,0.39988 1.296379,0.45135 0.792009,0.0562 1.276506,0.20999 1.58138,0.50211 0.27082,0.25949 0.251338,0.35705 -0.312036,1.56255 -0.707756,1.51445 -0.916578,2.24131 -0.917226,3.19264 -2.65e-4,0.4965 0.0071,0.56303 0.08081,0.72319 0.205213,0.44588 0.676592,0.68689 0.860184,0.43981 0.114819,-0.15452 0.168444,-0.45138 0.222832,-1.23356 0.07323,-1.05318 0.200065,-1.55534 0.573702,-2.27142 0.119313,-0.22866 0.23772,-0.39164 0.414043,-0.56991 0.289955,-0.29314 0.409377,-0.34097 0.776113,-0.31083 0.215556,0.0177 0.258734,0.0109 0.339693,-0.0534 0.242073,-0.19231 0.105358,-0.70579 -0.358214,-1.3454 -0.353546,-0.4878 -0.505404,-0.83766 -0.564935,-1.30152 -0.03865,-0.30113 -0.158097,-0.5853 -0.338656,-0.80565 -0.06954,-0.0849 -0.402926,-0.3606 -0.740847,-0.61275 -1.441291,-1.07542 -2.129404,-1.84066 -2.129404,-2.36806 0,-0.18504 0.0831,-0.34642 0.214636,-0.41681 0.180676,-0.0967 1.26602,0.32072 2.968445,1.14163 0.481523,0.2322 0.637193,0.32492 0.742394,0.44219 0.24938,0.27802 0.628139,0.81554 0.966915,1.37223 0.637585,1.04771 1.143312,1.76858 1.664403,2.37248 0.159052,0.18433 0.34031,0.43793 0.402794,0.56356 0.113274,0.22774 0.11361,0.23003 0.11361,0.77611 0,0.30123 -0.02164,0.84932 -0.04809,1.21797 -0.0386,0.53792 -0.04007,0.81651 -0.0075,1.41076 0.04706,0.85798 0.09221,1.22729 0.280339,2.29341 0.07532,0.42686 0.13494,0.77812 0.132477,0.78057 -0.0024,0.002 -2.042017,0.016 -4.532344,0.03 l -4.527873,0.0255 z"
       id="path2648"
       inkscape:connector-curvature="0" />
    <path
       style="opacity:1;fill:#216778;fill-opacity:1;fill-rule:nonzero;stroke:none;stroke-width:0.66499996;stroke-linecap:butt;stroke-linejoin:miter;stroke-miterlimit:4;stroke-dasharray:none;stroke-dashoffset:0;stroke-opacity:1;paint-order:stroke fill markers"
       d="m 19.999236,103.71881 c -0.01294,-0.0129 -0.02352,-0.0683 -0.02352,-0.12315 0,-0.15546 -0.312319,-0.71862 -0.827235,-1.49165 -0.793316,-1.19098 -0.982189,-1.65409 -1.130263,-2.771395 -0.125236,-0.94498 -0.174398,-1.27867 -0.35342,-2.39889 -0.215276,-1.34706 -0.27405,-1.89826 -0.276484,-2.592917 -0.0024,-0.6498 0.02334,-0.7763 0.212502,-1.04966 0.232225,-0.33559 0.64039,-0.36713 0.854774,-0.066 0.281958,0.39597 1.374717,6.436497 1.60978,8.898512 0.06143,0.6434 0.08173,1.37951 0.04197,1.52171 -0.02674,0.0956 -0.062,0.11959 -0.108101,0.0735 z"
       id="path2650"
       inkscape:connector-curvature="0" />
    <path
       style="opacity:1;fill:#216778;fill-opacity:1;fill-rule:nonzero;stroke:none;stroke-width:0.66499996;stroke-linecap:butt;stroke-linejoin:miter;stroke-miterlimit:4;stroke-dasharray:none;stroke-dashoffset:0;stroke-opacity:1;paint-order:stroke fill markers"
       d="m 2.5132169,103.17789 v -9.101662 h 0.149929 c 0.172027,1e-5 2.862675,-0.14334 2.872359,-0.15303 0.0092,-0.009 0.152837,-2.97502 0.152768,-3.15426 l -5.6e-5,-0.14993 h 9.2427771 9.242777 v 10.830272 10.83027 h -0.897845 c -0.986227,0 -1.204955,-0.0274 -1.365274,-0.17125 -0.100817,-0.0905 -0.105077,-0.1075 -0.13793,-0.55194 -0.01865,-0.25224 -0.136628,-1.82386 -0.262186,-3.4925 -0.125556,-1.66864 -0.292066,-3.89761 -0.37002,-4.95327 -0.229841,-3.112495 -0.335658,-4.088635 -0.493892,-4.556065 -0.09545,-0.28197 -0.250029,-1.07683 -0.476415,-2.44983 -0.30286,-1.836827 -0.564216,-2.942427 -0.813249,-3.440277 -0.04387,-0.0877 -0.160917,-0.23536 -0.26011,-0.32815 -0.321982,-0.30117 -0.726233,-0.4345 -1.220163,-0.40241 -0.399139,0.0259 -0.643892,0.12805 -0.915172,0.38182 -0.745895,0.69774 -0.849072,1.91368 -0.385107,4.538447 0.07103,0.40183 0.116277,0.75383 0.10346,0.80489 -0.03909,0.15575 -0.195172,0.19193 -0.827965,0.19193 -0.707298,0 -1.053571,-0.0455 -1.326603,-0.17435 -0.489275,-0.23088 -1.552879,-0.2673 -2.077183,-0.0711 -0.251277,0.094 -0.464066,0.2865 -0.78455,0.70969 -0.144611,0.19095 -0.274558,0.34719 -0.288774,0.34719 -0.01421,0 -0.109062,-0.41959 -0.210773,-0.93242 -0.101708,-0.51284 -0.21722,-1.03698 -0.25669,-1.16477 -0.08422,-0.27267 -0.225309,-0.44845 -0.423635,-0.52781 -0.193051,-0.0772 -0.7506201,-0.13052 -0.9502011,-0.0908 -0.08731,0.0174 -0.170611,0.0323 -0.185108,0.0331 -0.0145,7.9e-4 -0.0912,0.0601 -0.170444,0.13171 -0.265703,0.24005 -0.423535,0.67181 -0.532723,1.45732 -0.03155,0.22699 -0.04621,0.73361 -0.04543,1.56987 0.0013,1.436375 0.03234,1.735985 0.281437,2.719785 0.193951,0.76601 0.337905,1.47087 0.477949,2.34022 0.311647,1.93462 1.0804951,5.82467 1.4637151,7.40579 0.08635,0.35626 0.156996,0.65392 0.156996,0.66146 0,0.008 -1.9050001,0.0137 -4.2333341,0.0137 h -4.233333 z"
       id="path2652"
       inkscape:connector-curvature="0" />
    <path
       style="opacity:1;fill:#ffffff;fill-opacity:1;fill-rule:nonzero;stroke:none;stroke-width:2.51338577;stroke-linecap:butt;stroke-linejoin:miter;stroke-miterlimit:4;stroke-dasharray:none;stroke-dashoffset:0;stroke-opacity:1;paint-order:stroke fill markers"
       d="M 41.062053,93.472783 C 39.416191,86.454023 36.928794,73.976954 35.614189,66.145669 34.907143,61.933702 34.512763,59.954671 33.71124,56.596515 32.650311,52.151517 32.582897,51.409158 32.653627,44.950012 c 0.05435,-4.962998 0.0893,-5.637582 0.347382,-6.704412 0.487621,-2.015658 0.838158,-2.789015 1.622365,-3.579283 0.64149,-0.646444 0.792291,-0.728375 1.503866,-0.817053 0.845121,-0.105322 3.043919,0.128349 3.525438,0.374654 0.653262,0.334156 1.194963,1.017438 1.464993,1.84789 0.151666,0.466433 0.598468,2.386607 0.992893,4.267052 0.394425,1.880446 0.765321,3.505174 0.824214,3.610507 0.07632,0.136513 0.406669,-0.184115 1.150239,-1.116405 2.200326,-2.758778 2.960882,-3.125262 6.462366,-3.113973 2.038339,0.0066 3.163441,0.178503 4.243732,0.64851 1.03242,0.449179 2.579747,0.659031 4.897759,0.664246 2.163726,0.0049 3.020503,-0.113406 3.231684,-0.446122 0.19868,-0.313019 0.12571,-1.255651 -0.289816,-3.743903 -1.375808,-8.238604 -1.301753,-12.374183 0.270981,-15.132876 0.549107,-0.963172 1.719987,-2.098442 2.616801,-2.537213 1.006984,-0.492671 3.055037,-0.616562 4.295905,-0.259867 1.583086,0.455066 2.871304,1.547519 3.499297,2.967523 0.820325,1.854899 1.738477,5.90034 2.970193,13.086872 0.938428,5.47532 1.252053,7.070372 1.752802,8.9145 0.701763,2.584411 0.950964,5.298479 2.929366,31.904075 0.72769,9.785991 1.361136,18.012504 1.407658,18.281139 0.04652,0.268635 0.183202,0.598324 0.303732,0.732641 0.207598,0.231345 0.120047,0.244214 -1.66141,0.244214 H 79.135511 L 78.760949,92.773867 C 77.940921,87.806665 77.785815,84.552899 78.026223,77.360949 l 0.126907,-3.796488 -0.441229,-0.87846 c -0.242678,-0.483154 -1.200584,-1.820429 -2.128683,-2.971722 -1.619692,-2.009205 -3.533652,-4.777502 -5.981966,-8.652142 -2.7185,-4.302235 -3.331552,-4.986572 -5.416615,-6.046459 -3.924542,-1.994939 -9.029032,-4.16885 -10.76963,-4.586593 -1.158936,-0.278146 -1.523318,-0.16923 -1.868671,0.558545 -0.935174,1.970733 1.170611,4.719005 7.234537,9.44184 1.458305,1.135787 2.880973,2.289471 3.161485,2.563742 0.708457,0.692698 1.198142,1.76964 1.510351,3.321658 0.383828,1.908038 0.706003,2.656413 1.979567,4.598313 1.735567,2.646348 2.196175,3.894371 1.794868,4.863214 -0.212191,0.512274 -0.498491,0.610861 -1.686855,0.580871 -1.098083,-0.02771 -1.522278,0.11353 -2.330846,0.776091 -0.837407,0.686193 -1.578911,1.709973 -2.308883,3.187827 -1.138631,2.305207 -1.609115,4.267077 -1.907322,7.953334 -0.37624,4.650839 -0.725282,5.441935 -2.159405,4.894238 -0.817939,-0.312373 -1.68685,-1.295463 -1.961025,-2.21871 -0.244734,-0.824108 -0.273081,-2.855385 -0.06368,-4.563123 0.293277,-2.391767 1.03132,-4.672521 2.753459,-8.508931 2.55964,-5.702111 2.648588,-5.984967 2.137869,-6.798421 -0.154999,-0.246875 -0.613706,-0.668954 -1.019351,-0.937952 -1.302261,-0.863579 -1.990421,-1.029263 -6.687243,-1.610051 -1.677133,-0.207386 -2.384838,-0.483278 -3.236626,-1.261764 -0.895,-0.817981 -1.287261,-1.52535 -2.049423,-3.695757 -0.698213,-1.988301 -0.831832,-2.26341 -1.321701,-2.721238 -0.338871,-0.316708 -0.491721,-0.350342 -1.657654,-0.364772 -0.7064,-0.0087 -1.422153,-0.05963 -1.590565,-0.113079 -0.402979,-0.1279 -0.541949,-0.714648 -0.652757,-2.75602 -0.124316,-2.290242 -0.377029,-3.694296 -1.399882,-7.777648 -1.085701,-4.334253 -1.427792,-6.084908 -1.621684,-8.298994 -0.225722,-2.577567 -0.262682,-2.819915 -0.473299,-3.103416 -0.450493,-0.60639 -1.111781,0.444685 -1.634373,2.597732 -0.277441,1.143035 -0.321389,1.681506 -0.318914,3.907419 0.0035,3.143527 0.147103,4.140499 1.527708,10.605852 1.259821,5.899718 1.389867,6.602468 1.749957,9.456455 0.157496,1.248277 0.341869,2.415604 0.409718,2.594062 0.161534,0.424866 0.932009,1.067247 1.280062,1.067247 0.395481,0 1.187846,-0.434565 2.136273,-1.171619 1.049307,-0.81545 1.532258,-0.850346 2.280244,-0.16476 0.456722,0.418621 0.519685,0.553615 0.508503,1.090248 -0.016,0.767672 -0.544158,1.773847 -1.960523,3.734898 -1.423104,1.970382 -1.891477,2.977561 -1.97209,4.240739 -0.157959,2.475135 0.944172,8.508818 2.689095,14.721617 0.266905,0.950315 0.52649,2.221971 0.576856,2.825901 l 0.09157,1.098055 H 43.392279 41.430197 Z M 39.183295,74.971445 c 0.125466,-0.418771 0.118808,-0.680194 -0.03082,-1.209949 -0.327821,-1.160677 -0.670292,-0.890364 -0.674325,0.532242 -0.0019,0.680679 0.180441,1.211894 0.416054,1.211894 0.07097,0 0.20106,-0.240384 0.289086,-0.534187 z M 54.027841,64.323181 c 0.298195,-0.23456 0.359359,-0.372599 0.28911,-0.65249 -0.313493,-1.24906 -3.585019,-4.847694 -4.312618,-4.743822 -0.236583,0.03377 -0.302501,0.154919 -0.336335,0.618116 -0.08144,1.114934 0.871068,3.137048 2.074799,4.404665 0.579206,0.609945 0.694998,0.671029 1.272024,0.671029 0.436591,0 0.752909,-0.09289 1.01302,-0.297498 z M 76.080799,60.503934 C 75.932861,56.667786 75.353399,52.036985 73.976598,43.688077 72.314235,33.607532 70.56342,25.119884 69.85356,23.700317 c -0.47401,-0.94792 -1.724655,-1.244095 -2.644121,-0.626176 -0.571217,0.383882 -1.311066,1.570774 -1.430826,2.29538 -0.154766,0.93641 -0.09229,4.243819 0.117512,6.220738 0.112477,1.059864 0.491638,3.785603 0.842579,6.057196 0.350942,2.271595 0.852847,5.643284 1.115347,7.492645 0.262501,1.849362 0.636487,3.990453 0.831082,4.757982 0.478218,1.886203 1.483175,3.867219 3.69694,7.287568 2.08308,3.218438 3.075107,5.029075 3.075107,5.612656 0,0.530644 0.302235,0.624716 0.526611,0.163907 0.131745,-0.27057 0.156846,-0.906654 0.09701,-2.458279 z m -18.663493,1.927668 c 0.02716,-0.08148 -0.125138,-0.355554 -0.338443,-0.609052 -0.472491,-0.561524 -2.420426,-2.12697 -2.521227,-2.02617 -0.109634,0.109634 1.008298,1.506242 1.793899,2.241078 0.65935,0.616745 0.955111,0.726124 1.065771,0.394144 z m -9.172614,-8.346874 c 0.138839,-0.167289 0.136139,-0.300083 -0.01348,-0.662866 -0.22207,-0.538453 -1.201476,-1.639846 -1.458221,-1.639846 -0.345942,0 0.232915,1.561655 0.814702,2.197923 0.33837,0.370058 0.425334,0.383928 0.656999,0.104789 z m 29.836041,-0.795564 c 0.363421,-0.363421 0.08396,-2.204901 -0.334619,-2.204901 -0.151211,0 -0.195674,0.24839 -0.195674,1.093146 0,1.267109 0.121086,1.520962 0.530293,1.111755 z M 43.844286,49.49016 c 0.44225,-0.592347 0.386339,-1.490172 -0.126107,-2.025052 -1.121698,-1.1708 -2.29768,0.406004 -1.521962,2.040708 0.405848,0.855263 1.002063,0.849599 1.648069,-0.01566 z m 16.958071,-0.637636 c 0.142313,-0.07616 0.335294,-0.374454 0.428848,-0.662866 0.258326,-0.796387 0.628282,-1.237093 1.245961,-1.484239 0.308003,-0.123238 0.560003,-0.28418 0.560003,-0.357647 0,-0.07347 -0.208405,-0.292538 -0.463122,-0.48682 -1.202828,-0.917441 -3.02291,-1.082724 -5.014242,-0.455346 -0.671588,0.211586 -1.221068,0.439634 -1.221068,0.506773 0,0.228249 2.422758,2.10647 3.545261,2.74843 0.668371,0.382242 0.592104,0.36632 0.918359,0.191715 z M 48.733224,47.778409 c 0.979645,-0.637059 2.805942,-2.251802 3.215912,-2.84339 0.466768,-0.673547 0.376504,-0.956641 -0.366615,-1.149803 -0.655285,-0.17033 -2.837761,0.121779 -3.580964,0.479289 -0.952956,0.458408 -1.422786,1.356742 -1.457464,2.786732 -0.0223,0.919799 0.102761,1.345947 0.416418,1.418898 0.300808,0.06996 1.052417,-0.223321 1.772713,-0.691726 z m -7.553918,-3.706568 c 0.139033,-0.518801 0.09957,-1.062699 -0.114248,-1.574428 -0.337601,-0.807991 -0.495549,-0.584164 -0.495549,0.702236 0,1.068661 0.02604,1.186181 0.262826,1.186181 0.154593,0 0.297476,-0.129301 0.346971,-0.313989 z M 74.227508,29.942334 c 0.06952,-0.250609 0.05391,-0.684893 -0.03887,-1.081948 -0.279376,-1.195499 -0.679419,-0.997598 -0.683028,0.337894 -0.0011,0.435051 0.03716,0.893418 0.0852,1.018593 0.135005,0.351819 0.507509,0.1912 0.636702,-0.274539 z m -1.840443,-7.57587 c 0,-0.386311 -2.696091,-2.822544 -2.899026,-2.619609 -0.08989,0.08989 0.777327,1.182488 1.695722,2.136427 0.717368,0.745132 1.203304,0.940257 1.203304,0.483182 z"
       id="path12757"
       inkscape:connector-curvature="0"
       transform="matrix(0.26458333,0,0,0.26458333,0,87)" />
    <path
       style="opacity:1;fill:#ffffff;fill-opacity:1;fill-rule:nonzero;stroke:none;stroke-width:2.51338577;stroke-linecap:butt;stroke-linejoin:miter;stroke-miterlimit:4;stroke-dasharray:none;stroke-dashoffset:0;stroke-opacity:1;paint-order:stroke fill markers"
       d="M 40.990045,93.193681 C 39.492554,86.89872 37.091943,74.877971 35.687958,66.644164 34.928834,62.19221 34.542469,60.238179 33.728856,56.736065 32.642137,52.058392 32.684896,52.51279 32.684896,45.641786 v -6.210005 l 0.380763,-1.498886 c 0.459336,-1.808195 0.86305,-2.634742 1.670055,-3.419207 0.542556,-0.527404 0.702108,-0.601751 1.461772,-0.681151 0.95874,-0.100209 2.985509,0.15186 3.544252,0.440797 0.604483,0.312591 1.225696,1.135375 1.445484,1.914516 0.113573,0.402609 0.49506,2.082171 0.847748,3.732358 0.75616,3.537984 0.884252,4.04697 1.018463,4.04697 0.05544,0 0.508306,-0.508316 1.006364,-1.129592 1.760745,-2.196346 2.62401,-2.793849 4.409386,-3.051924 2.120932,-0.306579 4.409206,-0.102398 6.334496,0.56522 1.50867,0.523151 3.283341,0.732219 5.632667,0.663567 1.502642,-0.04391 1.930087,-0.102989 2.246853,-0.310542 0.383362,-0.251189 0.389387,-0.275665 0.301242,-1.224065 -0.04947,-0.532263 -0.272802,-2.079575 -0.496295,-3.43847 -1.18339,-7.195312 -1.09933,-11.533098 0.273404,-14.108609 0.556412,-1.043937 1.806405,-2.296061 2.755914,-2.760612 1.091783,-0.53416 3.086681,-0.622565 4.482368,-0.198638 1.159475,0.35218 2.222826,1.142597 2.910629,2.16355 0.911531,1.353048 1.837647,5.020599 3.119428,12.353385 0.99876,5.713685 1.482765,8.230691 1.934113,10.058078 0.864901,3.501769 0.881448,3.678511 2.99836,32.026882 0.727902,9.747615 1.360134,17.974128 1.404959,18.281139 0.04483,0.307012 0.17397,0.699498 0.286989,0.872192 l 0.205491,0.313989 h -1.867813 -1.867812 l -0.431961,-2.686351 c -0.783008,-4.869492 -0.912091,-7.776895 -0.668475,-15.056371 0.15533,-4.64141 0.454671,-3.853168 -3.278203,-8.632357 -1.085022,-1.389152 -3.063287,-4.320228 -5.745382,-8.512592 -1.57535,-2.462416 -2.676231,-3.821824 -3.592149,-4.435716 -0.812774,-0.54476 -5.258479,-2.670117 -7.97751,-3.813806 -2.070442,-0.870877 -3.813116,-1.470551 -4.629033,-1.592907 -0.555208,-0.08326 -0.632862,-0.05566 -0.969717,0.344672 -0.505514,0.60077 -0.600175,1.247235 -0.311755,2.129033 0.622554,1.903347 2.711377,4.077836 7.510809,7.818844 1.288754,1.004543 2.598001,2.07373 2.909442,2.375973 0.739785,0.717936 1.158173,1.661875 1.578083,3.560363 0.38467,1.73916 0.820221,2.696918 2.121173,4.664359 1.156311,1.748697 1.625789,2.785956 1.693487,3.741558 0.04513,0.637118 0.004,0.820877 -0.242224,1.081517 -0.308128,0.326199 -0.439967,0.351827 -1.628579,0.316592 -1.681703,-0.04985 -3.186535,1.256591 -4.534028,3.936287 -1.141519,2.270085 -1.532267,3.933988 -1.945535,8.284577 -0.316896,3.336041 -0.557065,4.333537 -1.118494,4.645441 -0.638669,0.354813 -1.638231,-0.137443 -2.455885,-1.209461 -0.611561,-0.80181 -0.742563,-1.361037 -0.742511,-3.16966 1.09e-4,-3.732186 0.646745,-6.002981 3.556056,-12.48781 1.430451,-3.188466 1.818191,-4.297609 1.68621,-4.823462 -0.212174,-0.845368 -1.944457,-1.979627 -3.604143,-2.359909 -0.479707,-0.109915 -1.751364,-0.299279 -2.825904,-0.420809 -3.225973,-0.364857 -3.990821,-0.637255 -5.066765,-1.804517 -0.704425,-0.764213 -0.939976,-1.229937 -1.771068,-3.501718 -0.365025,-0.997787 -0.814375,-2.016288 -0.998556,-2.263336 -0.395069,-0.529917 -1.228178,-0.804485 -2.084762,-0.687076 -0.841701,0.115366 -1.576592,-0.0399 -1.75351,-0.370471 -0.0831,-0.155263 -0.236125,-1.337956 -0.340068,-2.628206 -0.207798,-2.57941 -0.489845,-4.15266 -1.310196,-7.308226 -1.122021,-4.315973 -1.58817,-6.805614 -1.80833,-9.658062 -0.07232,-0.937022 -0.202141,-1.835679 -0.288486,-1.997017 -0.40181,-0.750789 -1.060327,0.190342 -1.631692,2.331958 -0.329928,1.236652 -0.365694,1.617861 -0.370635,3.95042 -0.0064,3.040099 0.149279,4.210403 1.253369,9.419671 1.291315,6.092627 1.701631,8.275815 2.006413,10.675627 0.327693,2.580213 0.532647,3.153738 1.267651,3.547278 0.497826,0.266549 0.503257,0.266373 1.129092,-0.03659 0.345874,-0.167435 0.991795,-0.586251 1.435381,-0.930703 1.066478,-0.828138 1.562731,-0.846177 2.324415,-0.08449 0.378926,0.378926 0.541375,0.662078 0.540422,0.941967 -0.0021,0.62935 -0.581399,1.721302 -2.039077,3.843863 -1.946932,2.834974 -2.166615,3.575964 -1.876425,6.329169 0.344899,3.272256 1.141829,7.21864 2.379352,11.782507 0.384244,1.417055 0.73941,3.065498 0.789257,3.663206 l 0.09063,1.086741 H 43.392135 41.429909 Z M 39.217153,74.413994 c -0.01035,-0.685926 -0.224163,-1.280723 -0.460389,-1.280723 -0.300114,0 -0.339438,1.798775 -0.04958,2.267779 0.190679,0.308526 0.519898,-0.328688 0.509966,-0.987056 z m 14.933259,-10.194431 0.292325,-0.292325 -0.290486,-0.595247 c -0.683105,-1.399771 -3.480996,-4.43289 -4.089107,-4.43289 -0.630305,0 -0.489774,1.443523 0.290975,2.988884 0.536295,1.061506 1.450892,2.264728 1.925473,2.533107 0.49582,0.28039 1.49672,0.172571 1.87082,-0.201529 z m 21.89364,-1.63383 c 0.121042,-0.665421 -0.09521,-4.800975 -0.37972,-7.261534 -1.034097,-8.943445 -4.29433,-27.043943 -5.594848,-31.062048 -0.595795,-1.840782 -2.479068,-2.016712 -3.634853,-0.339556 -0.666342,0.966926 -0.79749,1.845856 -0.700414,4.694008 0.09046,2.654161 0.215445,3.732313 1.140483,9.838323 0.337205,2.225833 0.774518,5.17733 0.971806,6.558882 0.850758,5.957604 1.214801,6.930401 4.552239,12.164498 2.026177,3.17765 3.058435,5.04699 3.058435,5.538595 0,0.734101 0.447679,0.634041 0.586872,-0.131168 z m -18.690213,-0.0932 c 0.03383,-0.09594 -0.06101,-0.349376 -0.210749,-0.563189 -0.310894,-0.44392 -2.482227,-2.236188 -2.584835,-2.13358 -0.0976,0.0976 1.255636,1.765935 1.917213,2.363631 0.600118,0.542171 0.780539,0.610598 0.878371,0.333138 z m -9.14037,-9.065789 c -0.08165,-0.234221 -0.434748,-0.715802 -0.784661,-1.070179 -0.560277,-0.567421 -0.641901,-0.609975 -0.68391,-0.356535 -0.06623,0.399584 0.439977,1.525766 0.886554,1.972344 0.347047,0.347047 0.383104,0.355279 0.550911,0.125789 0.135486,-0.185285 0.143121,-0.350093 0.03111,-0.671419 z m 29.907069,-0.271447 c 0.302008,-0.564303 -0.07001,-2.224083 -0.446359,-1.991484 -0.139036,0.08593 -0.170019,1.730728 -0.03903,2.072074 0.117187,0.305382 0.29459,0.275929 0.485392,-0.08059 z M 43.547665,49.820824 c 0.50999,-0.401158 0.717182,-1.236588 0.459582,-1.85311 -0.217181,-0.519788 -0.70388,-0.930421 -1.10277,-0.930421 -0.139917,0 -0.408534,0.154141 -0.596927,0.342534 -0.526634,0.526632 -0.435298,1.80627 0.177235,2.483112 0.291167,0.321735 0.616719,0.308835 1.06288,-0.04211 z m 17.21638,-0.941504 c 0.09296,-0.05907 0.295204,-0.392686 0.44944,-0.741359 0.397803,-0.899303 0.786323,-1.344304 1.265582,-1.449567 0.824299,-0.181046 0.669228,-0.556369 -0.479763,-1.161178 -0.634696,-0.334094 -0.855473,-0.371998 -2.1718,-0.372878 -1.167367,-8.37e-4 -1.670986,0.06642 -2.477025,0.330509 -0.556458,0.182319 -1.011742,0.383003 -1.011742,0.445965 0,0.233513 3.86541,3.065978 4.173268,3.058054 0.04566,-0.0011 0.159082,-0.05047 0.25204,-0.109546 z m -12.67846,-0.715591 c 0.710183,-0.362308 1.855096,-1.26091 2.925787,-2.296344 1.688192,-1.632602 1.641317,-2.066694 -0.221859,-2.054518 -3.054489,0.01996 -4.216267,0.967529 -4.218546,3.44073 -4.18e-4,0.471631 0.07314,0.918196 0.166682,1.011742 0.243454,0.243453 0.745779,0.205587 1.347936,-0.10161 z m -6.962783,-4.047826 c 0.07945,-0.14846 0.144461,-0.464465 0.144461,-0.702236 0,-0.557506 -0.370505,-1.446428 -0.555279,-1.33223 -0.155903,0.09635 -0.199828,2.060972 -0.04944,2.211359 0.160409,0.160409 0.310641,0.10267 0.460259,-0.176893 z M 74.201224,29.443386 c 0,-0.658041 -0.222955,-1.384986 -0.424776,-1.384986 -0.275948,0 -0.372417,1.646703 -0.123694,2.111445 0.247367,0.462209 0.54847,0.06339 0.54847,-0.726459 z m -1.814159,-6.988729 c 0,-0.296545 -0.661975,-1.033752 -1.665461,-1.854735 -0.546793,-0.447349 -1.032488,-0.775043 -1.079321,-0.72821 -0.207036,0.207035 2.111211,2.744211 2.507415,2.744211 0.130552,0 0.237367,-0.07257 0.237367,-0.161266 z"
       id="path12759"
       inkscape:connector-curvature="0"
       transform="matrix(0.26458333,0,0,0.26458333,0,87)" />
    <path
       style="opacity:1;fill:#ffffff;fill-opacity:1;fill-rule:nonzero;stroke:none;stroke-width:2.51338577;stroke-linecap:butt;stroke-linejoin:miter;stroke-miterlimit:4;stroke-dasharray:none;stroke-dashoffset:0;stroke-opacity:1;paint-order:stroke fill markers"
       d="M 41.352674,94.798514 C 41.19426,94.268178 40.123996,89.491278 39.468376,86.388342 38.077513,79.805631 36.847317,73.356146 35.209871,64.062476 34.865033,62.105278 34.237563,58.996787 33.815493,57.154718 32.624078,51.954945 32.68444,52.579265 32.688871,45.502235 l 0.004,-6.349556 0.36605,-1.338146 c 0.458506,-1.676127 0.928403,-2.611728 1.669251,-3.323601 0.484311,-0.46537 0.706989,-0.572654 1.361154,-0.655791 0.957315,-0.121663 3.040805,0.121907 3.624438,0.423715 1.133573,0.586194 1.348324,1.108619 2.327195,5.661352 0.437314,2.033951 0.840891,3.783325 0.896838,3.887498 0.0728,0.135547 0.296173,-0.04167 0.785551,-0.623213 2.170477,-2.579256 2.946656,-3.131853 4.800575,-3.417745 1.46732,-0.226273 4.132442,-0.07761 5.372702,0.299701 2.925317,0.889931 2.778807,0.867035 5.657619,0.884164 2.43831,0.01451 2.768952,-0.01121 3.122752,-0.242835 0.387679,-0.253811 0.393784,-0.277853 0.30121,-1.186181 -0.05197,-0.509917 -0.247023,-1.869087 -0.433455,-3.020381 -0.696414,-4.300623 -0.81553,-5.520364 -0.824505,-8.442816 -0.0071,-2.29936 0.04103,-3.073135 0.245061,-3.942806 0.527182,-2.247136 1.875031,-4.12127 3.558514,-4.947985 0.735488,-0.361178 0.9139,-0.389101 2.467423,-0.386176 1.416551,0.0027 1.798188,0.05257 2.476558,0.323841 0.97555,0.390108 2.148878,1.430345 2.647154,2.346886 0.850189,1.563862 1.812007,5.560293 3.034097,12.606919 0.875637,5.048962 1.453797,8.027132 1.896392,9.768548 0.78153,3.074969 0.80026,3.28306 3.341156,37.120482 1.01889,13.5687 1.001128,13.374109 1.256309,13.763564 l 0.216916,0.331055 h -1.887152 c -1.037934,0 -1.887151,-0.04012 -1.887151,-0.08916 0,-0.04904 -0.123519,-0.818312 -0.274488,-1.709496 -0.873763,-5.157939 -1.050148,-8.189923 -0.837091,-14.389223 0.121322,-3.530083 0.124339,-4.966636 0.0113,-5.384768 -0.196889,-0.728359 -1.008795,-1.982322 -2.379116,-3.674472 -1.265122,-1.562242 -2.732849,-3.620049 -4.188678,-5.872683 -3.020911,-4.674312 -4.250594,-6.464827 -4.983734,-7.256706 -0.754929,-0.815414 -1.011434,-0.973922 -3.74322,-2.313135 -4.424224,-2.168903 -8.323285,-3.76134 -9.853713,-4.02441 -0.654621,-0.112525 -1.180696,0.285969 -1.386494,1.050249 -0.48554,1.803155 1.541982,4.394508 6.563071,8.388186 3.918073,3.11636 4.03725,3.219295 4.463767,3.855388 0.440348,0.656719 0.811271,1.721656 1.174981,3.373433 0.295309,1.341136 0.663852,2.126322 1.901364,4.050884 1.542367,2.398667 2.010491,3.640139 1.755574,4.65581 -0.126586,0.504357 -0.468991,0.634406 -1.789961,0.679843 -0.91372,0.03143 -1.274424,0.107219 -1.667999,0.350461 -1.856914,1.147636 -3.624686,4.280246 -4.308063,7.634172 -0.140748,0.690776 -0.388272,2.58832 -0.550051,4.216765 -0.161779,1.628445 -0.388064,3.277069 -0.502854,3.663609 -0.386477,1.301412 -1.301106,1.44926 -2.490238,0.402544 -1.050518,-0.924704 -1.246662,-1.437684 -1.309889,-3.425772 -0.120739,-3.796555 0.544829,-6.25533 3.440126,-12.708679 1.393943,-3.106972 1.87938,-4.490392 1.752731,-4.995008 -0.117105,-0.466585 -1.199427,-1.421668 -2.054372,-1.812859 -0.971637,-0.444585 -2.155543,-0.699762 -4.490064,-0.967779 -2.721553,-0.31245 -3.632304,-0.602915 -4.565945,-1.45621 -0.902373,-0.824718 -1.295717,-1.51941 -2.102716,-3.713653 -1.099054,-2.988344 -1.13547,-3.023397 -3.173211,-3.054551 -1.041984,-0.01593 -1.445392,-0.07498 -1.605402,-0.234986 -0.155763,-0.155763 -0.269437,-0.854487 -0.419221,-2.576837 -0.254307,-2.924261 -0.415465,-3.79954 -1.532996,-8.326024 -0.990187,-4.010684 -1.38443,-6.165772 -1.601283,-8.753259 -0.19068,-2.275179 -0.553721,-2.862447 -1.144332,-1.851111 -0.753971,1.291066 -1.097221,3.229622 -1.096554,6.192965 6.42e-4,2.850073 0.164702,4.150007 1.071544,8.490368 1.273275,6.094197 1.860232,9.195775 2.152349,11.373381 0.34756,2.590902 0.603468,3.315373 1.286089,3.640893 0.454795,0.216875 0.499957,0.211972 1.159972,-0.125961 0.377714,-0.193394 1.027783,-0.608084 1.444598,-0.921536 1.015975,-0.764029 1.516773,-0.770265 2.258912,-0.02813 0.393576,0.39357 0.541791,0.658751 0.541791,0.969345 0,0.559314 -0.838032,2.153175 -1.954631,3.717537 -1.300268,1.821679 -1.907855,3.066806 -2.019484,4.138519 -0.204898,1.967154 0.803052,7.874177 2.314015,13.561138 0.483442,1.819579 0.879056,3.626963 0.924014,4.221408 l 0.07862,1.039506 h -1.964449 c -1.750079,0 -1.972408,-0.02665 -2.037395,-0.244214 z M 39.141047,74.212711 c -0.05289,-0.774585 -0.271113,-1.24054 -0.482155,-1.029499 -0.135871,0.135872 -0.112785,1.957205 0.02769,2.184498 0.08585,0.138902 0.156984,0.119386 0.310384,-0.08515 0.136681,-0.182245 0.181808,-0.517323 0.144082,-1.069848 z m 14.603448,-9.78712 c 0.644077,-0.269112 0.694453,-0.410293 0.391103,-1.096066 -0.462125,-1.044708 -2.658895,-3.569717 -3.63455,-4.177618 -0.429308,-0.267489 -0.482394,-0.272311 -0.691864,-0.06284 -0.643394,0.643396 1.084565,4.377979 2.438788,5.270872 0.470234,0.310044 0.869678,0.327568 1.496523,0.06565 z M 75.963619,62.854214 C 76.120421,62.229466 75.902872,57.427497 75.607412,54.991682 74.494569,45.817231 71.327711,28.195176 70.134314,24.536519 69.82323,23.582813 69.58618,23.248353 69.01022,22.950513 c -0.774884,-0.400708 -1.559464,-0.161009 -2.324315,0.710107 -0.858371,0.977629 -0.92028,1.262637 -0.909823,4.188454 0.01094,3.060696 0.0481,3.404299 1.245097,11.512931 1.155883,7.830114 1.410484,9.388681 1.749067,10.707094 0.401737,1.564325 1.666249,4.021321 3.754401,7.294945 1.936565,3.035982 2.932533,4.858285 2.932533,5.365602 0,0.591293 0.366663,0.68148 0.506439,0.124568 z M 57.263868,62.200785 c -0.117111,-0.466604 -2.59974,-2.58286 -2.59974,-2.216083 0,0.223213 1.708836,2.148982 2.139074,2.410625 0.49944,0.303728 0.577455,0.270781 0.460666,-0.194542 z m -9.019071,-8.442158 c 0,-0.612372 -1.221004,-2.058079 -1.501391,-1.777694 -0.09948,0.09949 0.204405,0.892732 0.601745,1.570741 0.425811,0.726591 0.899646,0.835592 0.899646,0.206953 z m 29.858937,-0.57193 c 0.207055,-0.386887 0.178232,-1.053715 -0.07137,-1.651092 -0.283325,-0.678094 -0.476847,-0.400374 -0.479789,0.688537 -0.0032,1.169101 0.226223,1.569698 0.551157,0.962555 z M 43.368253,49.963721 c 0.390918,-0.209214 0.690023,-0.874472 0.690023,-1.534725 0,-0.450418 -0.08886,-0.664731 -0.407917,-0.983785 -0.588691,-0.588692 -1.12382,-0.53079 -1.481178,0.160265 -0.34896,0.674814 -0.208693,1.678121 0.315604,2.257463 0.252447,0.278951 0.498178,0.306982 0.883468,0.100782 z m 17.883799,-1.947597 c 0.34706,-0.809717 0.616143,-1.099272 1.261802,-1.357799 0.287824,-0.115247 0.523315,-0.266902 0.523315,-0.337011 0,-0.230137 -1.258473,-0.931396 -1.983692,-1.105372 -0.918545,-0.220356 -2.577892,-0.09192 -3.664313,0.283634 -0.458428,0.158466 -0.887421,0.342036 -0.953317,0.407931 -0.133045,0.133045 3.064349,2.599365 3.736033,2.881802 0.527755,0.221917 0.709375,0.09192 1.080172,-0.773185 z M 48.867119,47.634217 c 0.539052,-0.366685 1.49872,-1.169131 2.132595,-1.783214 0.889576,-0.861798 1.152502,-1.203433 1.152502,-1.497511 0,-0.49755 -0.357501,-0.587081 -1.932549,-0.483981 -1.522644,0.09967 -2.136593,0.282235 -2.744707,0.816167 -0.756019,0.663793 -1.189045,2.676098 -0.751712,3.493262 0.23289,0.435158 0.983892,0.244341 2.143871,-0.544723 z m -7.724673,-3.632151 c 0.158023,-0.411488 0.106788,-0.969769 -0.150048,-1.634993 -0.127153,-0.329334 -0.186257,-0.372112 -0.289214,-0.209326 -0.14789,0.233831 -0.181401,1.99429 -0.04064,2.135049 0.181155,0.181155 0.334319,0.08837 0.479902,-0.29073 z M 74.201224,29.448059 c 0,-0.567441 -0.246151,-1.389659 -0.416027,-1.389659 -0.284229,0 -0.375012,1.412085 -0.131751,2.049288 0.144652,0.378904 0.157036,0.383233 0.348876,0.121963 0.109397,-0.148987 0.198902,-0.500704 0.198902,-0.781592 z m -1.885782,-6.968697 c 0.04642,-0.07511 -0.05977,-0.332996 -0.235977,-0.573084 -0.368573,-0.502192 -2.341006,-2.130742 -2.449393,-2.022355 -0.10049,0.100489 1.447535,1.971595 1.975589,2.387906 0.478635,0.37735 0.585515,0.4086 0.709781,0.207533 z"
       id="path12761"
       inkscape:connector-curvature="0"
       transform="matrix(0.26458333,0,0,0.26458333,0,87)" />
    <path
       style="opacity:1;fill:#ffffff;fill-opacity:1;fill-rule:nonzero;stroke:none;stroke-width:2.51338577;stroke-linecap:butt;stroke-linejoin:miter;stroke-miterlimit:4;stroke-dasharray:none;stroke-dashoffset:0;stroke-opacity:1;paint-order:stroke fill markers"
       d="m 41.276914,94.519413 c -1.068621,-3.9758 -3.804164,-17.571829 -5.733145,-28.494528 -0.820155,-4.644066 -1.089166,-5.977487 -2.141427,-10.614551 -0.746176,-3.28822 -0.814537,-4.257803 -0.752691,-10.675627 0.05491,-5.697834 0.05667,-5.726929 0.425875,-7.010983 0.468666,-1.629991 0.936115,-2.553655 1.63619,-3.233053 0.759764,-0.737328 1.759324,-0.886749 3.760252,-0.562112 2.319255,0.376285 2.424696,0.573331 3.853986,7.202295 0.284233,1.318255 0.571433,2.480015 0.638223,2.581687 0.09232,0.140539 0.224471,0.06775 0.551169,-0.303566 2.564956,-2.915289 2.960688,-3.225664 4.539164,-3.560091 1.122163,-0.237751 3.366405,-0.266891 4.655909,-0.06045 0.498893,0.07987 1.503658,0.336288 2.232811,0.569822 1.040727,0.333325 1.748235,0.45394 3.291056,0.561053 2.129717,0.147861 4.224545,0.0049 4.609472,-0.31455 0.268675,-0.222982 0.239042,-0.556604 -0.432719,-4.871506 -1.128435,-7.248237 -1.015971,-11.232369 0.391798,-13.879944 0.577587,-1.086259 1.748514,-2.247271 2.731191,-2.708061 0.714293,-0.334942 0.9348,-0.366963 2.526966,-0.366963 1.593088,0 1.812406,0.03189 2.52866,0.367739 0.944308,0.442777 1.841866,1.223543 2.382811,2.072759 0.919012,1.442735 1.826921,5.12682 3.25035,13.189178 1.099883,6.229769 1.238981,6.945634 1.748985,9.001019 0.812919,3.276179 1.016216,5.422838 2.927343,30.910477 0.765433,10.208132 1.429954,18.874229 1.476714,19.257994 0.04676,0.383764 0.168518,0.870447 0.270568,1.081518 l 0.18555,0.383764 H 80.96506 79.098145 l -0.07594,-0.45354 c -1.066594,-6.370491 -1.111901,-6.927898 -1.052049,-12.943326 0.08903,-8.9476 0.119951,-8.060194 -0.311237,-8.931243 -0.20897,-0.422141 -1.046919,-1.615299 -1.862111,-2.651463 -1.854248,-2.356873 -3.457802,-4.643982 -5.577041,-7.954389 -2.188264,-3.418227 -3.485611,-5.217809 -4.251321,-5.897109 -0.385752,-0.34222 -1.653289,-1.058794 -3.280158,-1.854362 -4.823337,-2.3587 -8.908864,-3.970787 -10.063207,-3.970787 -0.544146,0 -0.649937,0.05325 -0.90115,0.45354 -0.445811,0.710381 -0.326153,1.922988 0.294024,2.979616 0.777328,1.324377 3.637189,4.076882 7.079218,6.813471 3.799504,3.020802 3.804966,3.02839 4.56884,6.348032 0.325985,1.416668 0.571343,1.942602 1.893276,4.058308 1.346936,2.155725 1.796095,3.174055 1.800634,4.082392 0.005,1.003128 -0.378491,1.303518 -1.564637,1.225548 -0.209972,-0.0138 -0.731219,0.04745 -1.158325,0.136116 -1.495632,0.310492 -3.144164,2.318186 -4.29612,5.232106 -0.643034,1.62658 -0.982096,3.372055 -1.349562,6.947482 -0.163956,1.595282 -0.390755,3.212508 -0.503996,3.593834 -0.383516,1.29144 -1.301939,1.43657 -2.487424,0.393065 -1.17596,-1.035122 -1.267001,-1.341404 -1.259128,-4.235948 0.0061,-2.243837 0.04669,-2.671686 0.380334,-4.009015 0.489282,-1.96119 1.070808,-3.495379 2.9158,-7.692501 2.150683,-4.892526 2.199786,-5.181127 1.049139,-6.166038 -1.169648,-1.001175 -2.4919,-1.408839 -5.884483,-1.814249 -2.639727,-0.315445 -3.496007,-0.595784 -4.431617,-1.450878 -0.900276,-0.822803 -1.292373,-1.516533 -2.141152,-3.78832 -1.055617,-2.825389 -1.10189,-2.867614 -3.236609,-2.95354 -0.926803,-0.0373 -1.355346,-0.113329 -1.509871,-0.267853 C 41.725,60.114399 41.611482,59.435735 41.463497,57.768011 41.205866,54.864627 41.036778,53.939079 39.936509,49.409655 38.938915,45.30291 38.569954,43.315873 38.342901,40.827288 38.18207,39.064515 38.113429,38.70685 37.880022,38.41539 c -0.261855,-0.326984 -0.779932,0.365603 -1.15016,1.537583 -0.556031,1.76015 -0.665961,2.851284 -0.587199,5.828364 0.08035,3.037043 0.157752,3.533969 1.684621,10.815178 0.498947,2.379339 1.069019,5.393634 1.266828,6.698433 0.556543,3.671104 0.608259,3.94192 0.8501,4.45156 0.124648,0.262677 0.423111,0.572465 0.663879,0.689074 0.551292,0.266998 0.951047,0.118393 2.369132,-0.880701 1.278728,-0.900912 1.723215,-0.929369 2.492978,-0.159606 0.37756,0.37756 0.541752,0.663087 0.541675,0.941967 -1.68e-4,0.601328 -0.658657,1.853823 -2.13637,4.063517 -1.613295,2.412437 -1.832336,2.991576 -1.807691,4.779482 0.03328,2.414129 0.96131,7.561925 2.200216,12.204586 0.769785,2.884684 1.046202,4.212085 1.046202,5.024039 v 0.633862 H 43.365902 41.417571 Z M 39.089297,75.145342 c 0.204814,-0.533738 -9.63e-4,-1.877819 -0.302908,-1.978466 -0.124196,-0.0414 -0.170589,0.224615 -0.170589,0.978137 0,0.569251 0.04187,1.076867 0.09303,1.128034 0.152818,0.15282 0.290557,0.106586 0.380463,-0.127705 z m 14.909396,-10.82106 c 0.611509,-0.32727 0.05782,-1.464046 -1.683525,-3.456461 -0.764461,-0.87468 -2.022498,-1.96872 -2.263833,-1.96872 -0.06716,0 -0.191465,0.12959 -0.276231,0.287977 -0.497417,0.929434 1.475832,4.781924 2.716536,5.30365 0.314272,0.132155 1.114189,0.04381 1.507053,-0.166446 z m 21.972219,-4.098826 c -0.131137,-4.050475 -0.660014,-8.200001 -2.258953,-17.72356 -1.801472,-10.729885 -3.32425,-17.896748 -4.032172,-18.977172 -0.322963,-0.492905 -1.111879,-0.816869 -1.714112,-0.70389 -0.594974,0.111618 -1.371318,0.789151 -1.748846,1.52626 -0.689383,1.345993 -0.581547,5.468205 0.299697,11.456369 2.037126,13.842547 2.05073,13.919141 2.80801,15.810356 0.521336,1.301975 1.443895,2.953947 3.133332,5.610674 1.760504,2.768483 2.700076,4.430293 2.879878,5.0936 0.275908,1.017866 0.237435,0.959139 0.490658,0.748981 0.202554,-0.168104 0.218665,-0.489363 0.142508,-2.841618 z m -18.655321,2.114757 c 0,-0.205547 -1.477642,-1.661581 -2.197923,-2.165782 -0.593076,-0.415156 -0.573048,-0.264591 0.06976,0.524457 1.21408,1.490281 2.128162,2.195257 2.128163,1.641325 z m -9.120297,-8.397668 c 0.04471,-0.116508 0.0074,-0.390189 -0.08289,-0.608181 -0.193205,-0.46644 -1.216463,-1.505968 -1.350479,-1.371953 -0.140169,0.14017 0.347891,1.311179 0.74139,1.778826 0.38831,0.461478 0.571668,0.514822 0.691975,0.201308 z m 29.963672,-1.054722 c 0.14332,-0.57022 -0.117539,-1.710966 -0.372121,-1.627302 -0.195555,0.06427 -0.29338,1.081116 -0.168199,1.748383 0.109004,0.581046 0.379057,0.52053 0.54032,-0.121081 z M 43.368253,49.963721 c 0.965004,-0.516455 0.869229,-2.365825 -0.144261,-2.785627 -0.376295,-0.155866 -0.464491,-0.145458 -0.72035,0.08501 -0.419334,0.377717 -0.571694,0.875991 -0.472007,1.543642 0.0955,0.639644 0.532452,1.300665 0.859763,1.300665 0.114605,0 0.329189,-0.06466 0.476855,-0.143687 z M 61.19944,48.083923 c 0.416115,-0.885854 0.780672,-1.277617 1.369823,-1.472054 0.257348,-0.08493 0.467906,-0.213735 0.467906,-0.286226 0,-0.25496 -1.299563,-0.952224 -2.074666,-1.113134 -0.448124,-0.09303 -1.180732,-0.125844 -1.710445,-0.07661 -1.030758,0.0958 -2.773771,0.587384 -2.773771,0.78229 0,0.171948 1.149133,1.126682 2.541684,2.11171 1.447392,1.023818 1.720742,1.030595 2.179469,0.05403 z m -13.01182,-0.06401 c 0.869256,-0.435191 3.165181,-2.345166 3.668157,-3.051529 0.669733,-0.940555 0.305605,-1.209446 -1.487315,-1.098305 -2.044629,0.126744 -2.871422,0.496456 -3.391939,1.516753 -0.347158,0.680485 -0.513206,2.306422 -0.280038,2.742104 0.216592,0.404707 0.507493,0.383438 1.491135,-0.109023 z m -7.032251,-4.131602 c 0.118188,-0.429698 0.03452,-1.065442 -0.198718,-1.50993 -0.112033,-0.213504 -0.161103,-0.226649 -0.260454,-0.06977 -0.144608,0.228337 -0.169672,1.848174 -0.03075,1.9871 0.174786,0.174786 0.375756,0.0077 0.489919,-0.407395 z m 32.995867,-14.70072 c -0.04068,-0.415108 -0.166565,-0.847349 -0.279752,-0.960535 -0.181356,-0.181357 -0.217075,-0.130549 -0.300818,0.427883 -0.08733,0.582357 -0.0019,1.38605 0.179843,1.6923 0.04107,0.06919 0.164671,0.0064 0.274676,-0.139551 0.141654,-0.187932 0.178432,-0.485562 0.126051,-1.020097 z m -1.836098,-6.707736 c 0.157889,-0.25547 -2.3404,-2.661497 -2.547997,-2.453899 -0.149807,0.149805 2.05993,2.589967 2.345394,2.589967 0.06518,0 0.15635,-0.06123 0.202603,-0.136068 z"
       id="path12763"
       inkscape:connector-curvature="0"
       transform="matrix(0.26458333,0,0,0.26458333,0,87)" />
    <path
       style="opacity:1;fill:#ffffff;fill-opacity:1;fill-rule:nonzero;stroke:none;stroke-width:2.51338577;stroke-linecap:butt;stroke-linejoin:miter;stroke-miterlimit:4;stroke-dasharray:none;stroke-dashoffset:0;stroke-opacity:1;paint-order:stroke fill markers"
       d="m 41.276914,94.519413 c -1.068621,-3.9758 -3.804164,-17.571829 -5.733145,-28.494528 -0.820155,-4.644066 -1.089166,-5.977487 -2.141427,-10.614551 -0.746176,-3.28822 -0.814537,-4.257803 -0.752691,-10.675627 0.05491,-5.697834 0.05667,-5.726929 0.425875,-7.010983 0.468666,-1.629991 0.936115,-2.553655 1.63619,-3.233053 0.759764,-0.737328 1.759324,-0.886749 3.760252,-0.562112 2.319255,0.376285 2.424696,0.573331 3.853986,7.202295 0.284233,1.318255 0.571433,2.480015 0.638223,2.581687 0.09232,0.140539 0.224471,0.06775 0.551169,-0.303566 2.564956,-2.915289 2.960688,-3.225664 4.539164,-3.560091 1.122163,-0.237751 3.366405,-0.266891 4.655909,-0.06045 0.498893,0.07987 1.503658,0.336288 2.232811,0.569822 1.040727,0.333325 1.748235,0.45394 3.291056,0.561053 2.129717,0.147861 4.224545,0.0049 4.609472,-0.31455 0.268675,-0.222982 0.239042,-0.556604 -0.432719,-4.871506 -1.128435,-7.248237 -1.015971,-11.232369 0.391798,-13.879944 0.577587,-1.086259 1.748514,-2.247271 2.731191,-2.708061 0.714293,-0.334942 0.9348,-0.366963 2.526966,-0.366963 1.593088,0 1.812406,0.03189 2.52866,0.367739 0.944308,0.442777 1.841866,1.223543 2.382811,2.072759 0.919012,1.442735 1.826921,5.12682 3.25035,13.189178 1.099883,6.229769 1.238981,6.945634 1.748985,9.001019 0.812919,3.276179 1.016216,5.422838 2.927343,30.910477 0.765433,10.208132 1.429954,18.874229 1.476714,19.257994 0.04676,0.383764 0.168518,0.870447 0.270568,1.081518 l 0.18555,0.383764 H 80.96506 79.098145 l -0.07594,-0.45354 c -1.066594,-6.370491 -1.111901,-6.927898 -1.052049,-12.943326 0.08903,-8.9476 0.119951,-8.060194 -0.311237,-8.931243 -0.20897,-0.422141 -1.046919,-1.615299 -1.862111,-2.651463 -1.854248,-2.356873 -3.457802,-4.643982 -5.577041,-7.954389 -2.188264,-3.418227 -3.485611,-5.217809 -4.251321,-5.897109 -0.385752,-0.34222 -1.653289,-1.058794 -3.280158,-1.854362 -4.823337,-2.3587 -8.908864,-3.970787 -10.063207,-3.970787 -0.544146,0 -0.649937,0.05325 -0.90115,0.45354 -0.445811,0.710381 -0.326153,1.922988 0.294024,2.979616 0.777328,1.324377 3.637189,4.076882 7.079218,6.813471 3.799504,3.020802 3.804966,3.02839 4.56884,6.348032 0.325985,1.416668 0.571343,1.942602 1.893276,4.058308 1.346936,2.155725 1.796095,3.174055 1.800634,4.082392 0.005,1.003128 -0.378491,1.303518 -1.564637,1.225548 -0.209972,-0.0138 -0.731219,0.04745 -1.158325,0.136116 -1.495632,0.310492 -3.144164,2.318186 -4.29612,5.232106 -0.643034,1.62658 -0.982096,3.372055 -1.349562,6.947482 -0.163956,1.595282 -0.390755,3.212508 -0.503996,3.593834 -0.383516,1.29144 -1.301939,1.43657 -2.487424,0.393065 -1.17596,-1.035122 -1.267001,-1.341404 -1.259128,-4.235948 0.0061,-2.243837 0.04669,-2.671686 0.380334,-4.009015 0.489282,-1.96119 1.070808,-3.495379 2.9158,-7.692501 2.150683,-4.892526 2.199786,-5.181127 1.049139,-6.166038 -1.169648,-1.001175 -2.4919,-1.408839 -5.884483,-1.814249 -2.639727,-0.315445 -3.496007,-0.595784 -4.431617,-1.450878 -0.900276,-0.822803 -1.292373,-1.516533 -2.141152,-3.78832 -1.055617,-2.825389 -1.10189,-2.867614 -3.236609,-2.95354 -0.926803,-0.0373 -1.355346,-0.113329 -1.509871,-0.267853 C 41.725,60.114399 41.611482,59.435735 41.463497,57.768011 41.205866,54.864627 41.036778,53.939079 39.936509,49.409655 38.938915,45.30291 38.569954,43.315873 38.342901,40.827288 38.18207,39.064515 38.113429,38.70685 37.880022,38.41539 c -0.261855,-0.326984 -0.779932,0.365603 -1.15016,1.537583 -0.556031,1.76015 -0.665961,2.851284 -0.587199,5.828364 0.08035,3.037043 0.157752,3.533969 1.684621,10.815178 0.498947,2.379339 1.069019,5.393634 1.266828,6.698433 0.556543,3.671104 0.608259,3.94192 0.8501,4.45156 0.124648,0.262677 0.423111,0.572465 0.663879,0.689074 0.551292,0.266998 0.951047,0.118393 2.369132,-0.880701 1.278728,-0.900912 1.723215,-0.929369 2.492978,-0.159606 0.37756,0.37756 0.541752,0.663087 0.541675,0.941967 -1.68e-4,0.601328 -0.658657,1.853823 -2.13637,4.063517 -1.613295,2.412437 -1.832336,2.991576 -1.807691,4.779482 0.03328,2.414129 0.96131,7.561925 2.200216,12.204586 0.769785,2.884684 1.046202,4.212085 1.046202,5.024039 v 0.633862 H 43.365902 41.417571 Z M 39.089297,75.145342 c 0.204814,-0.533738 -9.63e-4,-1.877819 -0.302908,-1.978466 -0.124196,-0.0414 -0.170589,0.224615 -0.170589,0.978137 0,0.569251 0.04187,1.076867 0.09303,1.128034 0.152818,0.15282 0.290557,0.106586 0.380463,-0.127705 z m 14.909396,-10.82106 c 0.611509,-0.32727 0.05782,-1.464046 -1.683525,-3.456461 -0.764461,-0.87468 -2.022498,-1.96872 -2.263833,-1.96872 -0.06716,0 -0.191465,0.12959 -0.276231,0.287977 -0.497417,0.929434 1.475832,4.781924 2.716536,5.30365 0.314272,0.132155 1.114189,0.04381 1.507053,-0.166446 z m 21.972219,-4.098826 c -0.131137,-4.050475 -0.660014,-8.200001 -2.258953,-17.72356 -1.801472,-10.729885 -3.32425,-17.896748 -4.032172,-18.977172 -0.322963,-0.492905 -1.111879,-0.816869 -1.714112,-0.70389 -0.594974,0.111618 -1.371318,0.789151 -1.748846,1.52626 -0.689383,1.345993 -0.581547,5.468205 0.299697,11.456369 2.037126,13.842547 2.05073,13.919141 2.80801,15.810356 0.521336,1.301975 1.443895,2.953947 3.133332,5.610674 1.760504,2.768483 2.700076,4.430293 2.879878,5.0936 0.275908,1.017866 0.237435,0.959139 0.490658,0.748981 0.202554,-0.168104 0.218665,-0.489363 0.142508,-2.841618 z m -18.655321,2.114757 c 0,-0.205547 -1.477642,-1.661581 -2.197923,-2.165782 -0.593076,-0.415156 -0.573048,-0.264591 0.06976,0.524457 1.21408,1.490281 2.128162,2.195257 2.128163,1.641325 z m -9.120297,-8.397668 c 0.04471,-0.116508 0.0074,-0.390189 -0.08289,-0.608181 -0.193205,-0.46644 -1.216463,-1.505968 -1.350479,-1.371953 -0.140169,0.14017 0.347891,1.311179 0.74139,1.778826 0.38831,0.461478 0.571668,0.514822 0.691975,0.201308 z m 29.963672,-1.054722 c 0.14332,-0.57022 -0.117539,-1.710966 -0.372121,-1.627302 -0.195555,0.06427 -0.29338,1.081116 -0.168199,1.748383 0.109004,0.581046 0.379057,0.52053 0.54032,-0.121081 z M 43.368253,49.963721 c 0.965004,-0.516455 0.869229,-2.365825 -0.144261,-2.785627 -0.376295,-0.155866 -0.464491,-0.145458 -0.72035,0.08501 -0.419334,0.377717 -0.571694,0.875991 -0.472007,1.543642 0.0955,0.639644 0.532452,1.300665 0.859763,1.300665 0.114605,0 0.329189,-0.06466 0.476855,-0.143687 z M 61.19944,48.083923 c 0.416115,-0.885854 0.780672,-1.277617 1.369823,-1.472054 0.257348,-0.08493 0.467906,-0.213735 0.467906,-0.286226 0,-0.25496 -1.299563,-0.952224 -2.074666,-1.113134 -0.448124,-0.09303 -1.180732,-0.125844 -1.710445,-0.07661 -1.030758,0.0958 -2.773771,0.587384 -2.773771,0.78229 0,0.171948 1.149133,1.126682 2.541684,2.11171 1.447392,1.023818 1.720742,1.030595 2.179469,0.05403 z m -13.01182,-0.06401 c 0.869256,-0.435191 3.165181,-2.345166 3.668157,-3.051529 0.669733,-0.940555 0.305605,-1.209446 -1.487315,-1.098305 -2.044629,0.126744 -2.871422,0.496456 -3.391939,1.516753 -0.347158,0.680485 -0.513206,2.306422 -0.280038,2.742104 0.216592,0.404707 0.507493,0.383438 1.491135,-0.109023 z m -7.032251,-4.131602 c 0.118188,-0.429698 0.03452,-1.065442 -0.198718,-1.50993 -0.112033,-0.213504 -0.161103,-0.226649 -0.260454,-0.06977 -0.144608,0.228337 -0.169672,1.848174 -0.03075,1.9871 0.174786,0.174786 0.375756,0.0077 0.489919,-0.407395 z m 32.995867,-14.70072 c -0.04068,-0.415108 -0.166565,-0.847349 -0.279752,-0.960535 -0.181356,-0.181357 -0.217075,-0.130549 -0.300818,0.427883 -0.08733,0.582357 -0.0019,1.38605 0.179843,1.6923 0.04107,0.06919 0.164671,0.0064 0.274676,-0.139551 0.141654,-0.187932 0.178432,-0.485562 0.126051,-1.020097 z m -1.836098,-6.707736 c 0.157889,-0.25547 -2.3404,-2.661497 -2.547997,-2.453899 -0.149807,0.149805 2.05993,2.589967 2.345394,2.589967 0.06518,0 0.15635,-0.06123 0.202603,-0.136068 z"
       id="path12765"
       inkscape:connector-curvature="0"
       transform="matrix(0.26458333,0,0,0.26458333,0,87)" />
    <path
       style="opacity:1;fill:#ffffff;fill-opacity:1;fill-rule:nonzero;stroke:none;stroke-width:2.51338577;stroke-linecap:butt;stroke-linejoin:miter;stroke-miterlimit:4;stroke-dasharray:none;stroke-dashoffset:0;stroke-opacity:1;paint-order:stroke fill markers"
       d="M 41.360145,94.938065 C 41.325418,94.8805 40.916573,93.137861 40.451599,91.065534 38.961963,84.426414 37.165258,75.287343 35.472127,65.737085 35.043499,63.319369 34.290393,59.520102 33.798558,57.294268 33.306723,55.068435 32.834495,52.650719 32.749162,51.921567 32.649858,51.073028 32.612725,48.486143 32.646,44.734707 l 0.05199,-5.861129 0.385406,-1.255956 c 0.483974,-1.57717 1.141816,-2.791099 1.802159,-3.325559 0.435301,-0.352319 0.662499,-0.42356 1.52792,-0.479098 1.161902,-0.07457 2.874711,0.153663 3.472276,0.462676 0.506067,0.261698 1.058473,1.081906 1.325314,1.967818 0.112056,0.372026 0.487614,1.963764 0.834573,3.537198 0.812194,3.683238 0.874,3.907615 1.076053,3.906419 0.09298,-5.58e-4 0.483049,-0.38364 0.866813,-0.851312 1.182699,-1.441288 2.342989,-2.438946 3.235199,-2.781737 0.647136,-0.248633 1.193849,-0.325405 2.695705,-0.378548 2.063655,-0.07302 3.159527,0.08196 5.302926,0.749971 1.061937,0.330961 1.469372,0.376791 3.889862,0.437544 2.852259,0.07159 3.700857,-0.03784 3.846266,-0.495981 0.04273,-0.134638 -0.112368,-1.530504 -0.344667,-3.101927 -0.232299,-1.571422 -0.526797,-3.579305 -0.654438,-4.461963 -0.337999,-2.337292 -0.339348,-7.546974 -0.0023,-8.791693 0.594086,-2.19382 1.895012,-4.010948 3.458877,-4.831342 0.72352,-0.379555 0.850701,-0.399335 2.575267,-0.400541 1.677498,-0.0012 1.874269,0.02691 2.612119,0.372736 1.059219,0.496456 2.136725,1.52738 2.641473,2.527279 0.835194,1.65451 1.636943,5.122338 3.196165,13.824457 0.534339,2.982173 1.218017,6.49885 1.519289,7.814839 0.918187,4.010757 0.981306,4.670453 2.939392,30.721492 1.438114,19.133164 1.509444,19.973188 1.743594,20.533585 l 0.195874,0.468793 h -1.865725 -1.865726 l -0.08005,-0.383764 C 78.853686,93.825101 78.2493,89.867727 78.084537,88.483846 77.96251,87.458912 77.919852,84.974477 77.942588,80.216745 l 0.03251,-6.801819 -0.349138,-0.68899 C 77.43393,72.346992 76.828437,71.451548 76.280416,70.736062 73.717032,67.389351 72.744245,66.014746 70.536061,62.61895 67.680446,58.227526 66.421304,56.520432 65.643902,55.986366 63.712842,54.659748 55.46567,50.983467 53.388197,50.523231 c -1.029351,-0.228039 -1.426205,-0.11744 -1.707786,0.475946 -0.333382,0.70255 -0.279001,1.439382 0.176216,2.387672 0.784653,1.634559 2.794367,3.613252 7.749052,7.629447 3.100572,2.513277 3.337289,2.836988 3.927431,5.370753 0.42067,1.806137 0.791392,2.645327 2.064562,4.673474 1.217165,1.938931 1.668362,2.948652 1.737629,3.888587 0.08531,1.157641 -0.153038,1.376715 -1.585215,1.457021 -0.618601,0.03469 -1.307362,0.132503 -1.530579,0.217369 -1.460367,0.555231 -3.147703,2.949207 -4.108156,5.828615 -0.493653,1.479959 -0.74271,2.904407 -1.119275,6.401593 -0.158268,1.469847 -0.382917,2.992875 -0.49922,3.384508 -0.426768,1.437088 -1.426737,1.498669 -2.727095,0.167943 -1.050719,-1.075256 -1.164997,-1.564147 -1.06034,-4.536231 0.112089,-3.183122 0.607019,-4.961846 2.741429,-9.852383 1.754745,-4.020622 2.254659,-5.306315 2.338501,-6.014238 0.07932,-0.669699 0.06464,-0.706018 -0.503562,-1.24654 -1.11278,-1.058561 -2.745826,-1.62104 -5.664287,-1.950982 -1.884108,-0.213004 -3.371808,-0.526277 -3.970244,-0.836035 -0.694345,-0.3594 -1.729703,-1.475758 -2.135384,-2.302441 -0.188325,-0.383764 -0.642909,-1.475736 -1.010184,-2.426603 -0.367274,-0.950868 -0.839638,-1.921203 -1.049696,-2.156298 -0.369201,-0.413209 -0.431347,-0.430191 -1.865504,-0.509775 -1.068045,-0.05927 -1.544166,-0.142914 -1.699889,-0.298637 -0.157613,-0.157613 -0.290388,-0.944573 -0.48931,-2.900156 -0.277228,-2.725362 -0.5688,-4.298725 -1.440694,-7.774172 -0.946826,-3.774134 -1.407511,-6.33106 -1.694037,-9.402359 -0.116283,-1.246458 -0.315233,-1.840263 -0.598303,-1.785749 -0.353599,0.0681 -0.823887,1.037941 -1.170442,2.413728 -0.282179,1.120219 -0.315299,1.580216 -0.306454,4.256295 0.01149,3.477567 0.03,3.609274 1.523949,10.845145 0.573885,2.779586 1.169392,5.856679 1.32335,6.837984 0.80242,5.1145 0.807592,5.134093 1.469608,5.567864 0.506571,0.331917 1.031859,0.172555 2.348117,-0.712377 1.438654,-0.967218 1.842513,-1.002228 2.617816,-0.226924 0.37756,0.37756 0.541752,0.663087 0.541675,0.941967 -1.68e-4,0.599892 -0.650122,1.858223 -2.057385,3.98315 -1.595195,2.408697 -1.850165,3.065082 -1.849168,4.76042 0.0014,2.428193 0.803953,6.90342 2.236975,12.474351 0.500943,1.947435 0.887618,3.772518 0.933496,4.406047 l 0.07832,1.081518 H 43.3887 c -1.080978,0 -1.993828,-0.0471 -2.028555,-0.104663 z M 39.086046,75.052093 c 0.12112,-0.451959 0.106172,-0.800993 -0.05992,-1.39908 -0.08047,-0.289788 -0.205721,-0.490174 -0.278323,-0.445303 -0.148652,0.09187 -0.183168,1.921141 -0.03897,2.065337 0.169106,0.169108 0.291965,0.09714 0.377213,-0.220954 z M 53.935323,64.26389 c 0.444596,-0.311408 0.388898,-0.620346 -0.295981,-1.641677 -1.23101,-1.83576 -3.333412,-3.892222 -3.729136,-3.647651 -0.103858,0.06419 -0.140399,0.388944 -0.102585,0.911711 0.07725,1.067909 1.009984,2.973889 1.914671,3.912487 0.594264,0.61654 0.717778,0.682368 1.280298,0.682368 0.34242,0 0.762151,-0.09776 0.932733,-0.217238 z m 22.08006,-2.589346 c 0,-3.977242 -0.861917,-10.785891 -2.727415,-21.54501 -1.450124,-8.363484 -2.874903,-15.027114 -3.490294,-16.323953 -0.183894,-0.387529 -0.41712,-0.602923 -0.869518,-0.80304 -0.590062,-0.261013 -0.64609,-0.262823 -1.230175,-0.03976 -0.776548,0.296566 -1.397444,1.041682 -1.683961,2.02086 -0.330883,1.130806 -0.181642,5.9439 0.285733,9.214988 0.474697,3.322338 1.721734,11.64324 1.97639,13.18754 0.592012,3.590099 1.321626,5.273564 4.419209,10.196584 1.752815,2.785771 2.668522,4.494787 2.836237,5.293373 0.08393,0.399662 0.09679,0.406308 0.28584,0.147766 0.130481,-0.178442 0.197954,-0.638372 0.197954,-1.349348 z m -18.699792,0.678492 c 0,-0.186612 -1.839433,-1.98745 -2.259889,-2.212471 -0.527616,-0.282371 -0.226308,0.178414 0.830031,1.269356 1.031232,1.065011 1.429858,1.32794 1.429858,0.943115 z m -9.130494,-8.383919 c 0.107539,-0.280244 -0.149919,-0.842298 -0.643161,-1.404069 -0.632656,-0.720555 -0.898419,-0.681108 -0.600696,0.08916 0.260198,0.67318 0.831273,1.50017 1.035938,1.50017 0.07525,0 0.168818,-0.08337 0.207919,-0.185261 z m 29.923524,-1.00086 c 0.1398,-0.367703 0.05693,-1.06876 -0.181099,-1.532006 -0.141279,-0.274951 -0.142216,-0.274951 -0.249638,0 -0.221536,0.567033 -0.101818,1.880823 0.171387,1.880823 0.0697,0 0.186408,-0.156968 0.25935,-0.348817 z M 43.277456,49.948521 c 0.786394,-0.358305 0.990697,-1.753763 0.355717,-2.429668 -0.599238,-0.63786 -1.234986,-0.464159 -1.525751,0.416869 -0.191634,0.580655 0.01023,1.487021 0.423158,1.899946 0.319328,0.319328 0.300094,0.316421 0.746876,0.112853 z m 17.736228,-1.634663 c 0.153506,-0.246498 0.405526,-0.650266 0.560045,-0.897259 0.154518,-0.246995 0.515605,-0.564149 0.802417,-0.704788 0.28681,-0.140638 0.521473,-0.340797 0.521473,-0.444796 0,-0.103997 -0.413743,-0.392772 -0.919427,-0.641721 -0.843337,-0.415173 -1.025236,-0.451622 -2.197924,-0.44043 -1.239419,0.01183 -3.034507,0.416141 -3.226445,0.726702 -0.122725,0.198573 2.799469,2.481809 3.568925,2.788556 0.454741,0.181283 0.568105,0.132135 0.890936,-0.386264 z M 48.000913,48.079337 c 1.78715,-0.897634 4.327599,-3.311906 4.102432,-3.898676 -0.120768,-0.314719 -1.010989,-0.404938 -2.358523,-0.239024 -2.257464,0.27795 -3.054126,1.098675 -3.087967,3.181238 -0.01277,0.785553 0.03425,1.07203 0.192435,1.172586 0.29904,0.190095 0.368999,0.176966 1.151623,-0.216124 z m -6.873201,-4.60859 c 0,-0.330993 -0.06971,-0.778588 -0.15492,-0.994654 -0.143945,-0.36502 -0.163022,-0.373078 -0.269293,-0.113748 -0.137523,0.335593 -0.168221,1.4928 -0.04792,1.806308 0.158407,0.412802 0.47213,-0.05094 0.47213,-0.697906 z M 74.136488,29.825004 c 0.09313,-0.496412 -0.145536,-1.627053 -0.34345,-1.627053 -0.14902,0 -0.324885,1.127818 -0.22471,1.441054 0.04108,0.128455 0.104122,0.327751 0.140089,0.44288 0.113198,0.36234 0.337112,0.227973 0.428071,-0.256881 z M 72.182753,22.21307 c -0.04963,-0.156385 -0.510652,-0.669639 -1.024483,-1.140565 -1.802642,-1.652119 -1.857745,-1.257692 -0.07784,0.557171 0.991541,1.011018 1.287811,1.167816 1.102323,0.583394 z"
       id="path12767"
       inkscape:connector-curvature="0"
       transform="matrix(0.26458333,0,0,0.26458333,0,87)" />
    <path
       style="opacity:1;fill:#ffffff;fill-opacity:1;fill-rule:nonzero;stroke:none;stroke-width:2.51338577;stroke-linecap:butt;stroke-linejoin:miter;stroke-miterlimit:4;stroke-dasharray:none;stroke-dashoffset:0;stroke-opacity:1;paint-order:stroke fill markers"
       d="M 41.334689,94.86829 C 40.83157,93.483238 37.67511,78.049689 36.104584,69.295627 c -1.304815,-7.272994 -1.490248,-8.231516 -2.375745,-12.28046 -0.453215,-2.072328 -0.893384,-4.364448 -0.978153,-5.0936 -0.0968,-0.832657 -0.137534,-3.505642 -0.109515,-7.18686 0.05025,-6.602355 0.07068,-6.759456 1.16013,-8.920769 0.788352,-1.563981 1.270288,-1.921199 2.703939,-2.004191 1.199981,-0.06947 2.763375,0.146763 3.384872,0.468151 0.523755,0.270844 1.056159,1.075225 1.333023,2.013992 0.124499,0.422141 0.552376,2.228274 0.950839,4.01363 0.398462,1.785356 0.769259,3.290884 0.823994,3.345619 0.05473,0.05473 0.763501,-0.608447 1.575036,-1.473736 0.948867,-1.011718 1.71114,-1.692652 2.135655,-1.907771 0.99626,-0.504843 2.292441,-0.67654 4.45653,-0.590329 1.575355,0.06276 2.134015,0.14807 3.319709,0.506946 0.784081,0.23732 1.851643,0.493094 2.372361,0.568388 1.255951,0.181605 4.857536,0.178692 5.517045,-0.0045 0.512275,-0.142266 0.523315,-0.159529 0.523315,-0.818239 0,-0.370099 -0.254588,-2.392376 -0.565753,-4.493951 -0.701696,-4.739196 -0.875696,-8.532792 -0.492092,-10.728798 0.436234,-2.497309 1.789545,-4.590131 3.576178,-5.530364 0.729022,-0.383655 0.840529,-0.40054 2.645042,-0.40054 1.799029,0 1.917788,0.01782 2.635106,0.395505 1.03882,0.546957 2.065043,1.547638 2.528325,2.465394 0.898976,1.780862 1.700488,5.236117 3.281019,14.144218 0.661807,3.730042 1.062397,5.754163 1.661064,8.393107 0.701386,3.091737 0.860446,4.822072 2.732387,29.724296 1.322184,17.58888 1.524601,19.988973 1.73806,20.608543 l 0.183766,0.533385 h -1.858208 c -1.649087,0 -1.86636,-0.02748 -1.93066,-0.244214 -0.0916,-0.308757 -0.721888,-4.420464 -0.94659,-6.175117 -0.116962,-0.913329 -0.161596,-3.496273 -0.143481,-8.303266 l 0.02629,-6.977534 -0.411497,-0.716063 c -0.226325,-0.393834 -1.305024,-1.900981 -2.397111,-3.349216 -1.092086,-1.448235 -3.250438,-4.548487 -4.796338,-6.88945 -4.117606,-6.235314 -4.052843,-6.165572 -7.191422,-7.744262 -4.446883,-2.236759 -9.473272,-4.257097 -10.591213,-4.257097 -1.080235,0 -1.407191,1.579041 -0.650145,3.139891 0.56506,1.165022 3.750829,4.315778 6.990075,6.91325 3.85439,3.090742 3.943009,3.204818 4.623912,5.952194 0.464995,1.876207 0.742658,2.516319 1.911404,4.406465 1.415376,2.289005 1.795699,3.117181 1.872542,4.077579 0.102395,1.279748 -0.108303,1.468055 -1.784859,1.595184 -1.128202,0.08555 -1.40899,0.158993 -1.931825,0.505303 -1.624375,1.075933 -3.340135,4.215339 -3.988631,7.29818 -0.109586,0.520955 -0.361118,2.348765 -0.558962,4.061801 -0.197844,1.713036 -0.414591,3.358848 -0.481662,3.65736 -0.375157,1.6697 -1.438218,1.825743 -2.816586,0.413437 -1.050715,-1.076588 -1.164983,-1.565541 -1.06034,-4.537225 0.116476,-3.307717 0.56648,-4.871154 3.044114,-10.576095 1.556378,-3.583679 2.077973,-4.984489 2.077973,-5.580666 0,-0.50588 -0.869651,-1.370551 -1.861654,-1.850992 -0.99857,-0.483623 -2.058801,-0.734771 -4.451685,-1.054518 -3.355934,-0.448433 -3.93857,-0.65405 -5.011086,-1.768457 -0.742365,-0.771358 -1.084958,-1.412476 -1.97927,-3.70394 -0.705443,-1.807535 -0.967062,-2.276284 -1.403778,-2.515187 -0.161824,-0.08853 -0.907565,-0.199175 -1.657203,-0.245888 -0.955396,-0.05954 -1.427724,-0.149682 -1.579499,-0.301456 -0.156424,-0.156425 -0.290982,-0.92906 -0.48479,-2.783673 -0.311103,-2.977053 -0.429296,-3.609843 -1.541092,-8.250772 -0.921663,-3.847265 -1.295047,-5.86049 -1.523636,-8.215214 -0.270413,-2.78555 -0.54847,-3.23178 -1.208745,-1.939816 -0.722802,1.414312 -0.918772,2.629198 -0.922878,5.721228 -0.0046,3.480488 0.0528,3.901876 1.511745,11.094279 0.638328,3.146868 1.355441,6.976569 1.593583,8.510446 0.454783,2.929252 0.682405,3.63878 1.271663,3.963949 0.493888,0.272543 0.864361,0.148789 2.233566,-0.746102 1.481123,-0.968038 1.885893,-1.003341 2.657456,-0.231779 0.37756,0.37756 0.541752,0.663087 0.541675,0.941967 -1.68e-4,0.58877 -0.645244,1.851089 -1.951708,3.819174 -1.576184,2.374395 -1.855039,3.011717 -1.928688,4.407999 -0.118755,2.251467 0.698765,7.040389 2.219014,12.998681 0.487713,1.91149 0.879565,3.774792 0.924922,4.398114 l 0.0787,1.081518 h -1.97803 c -1.455596,0 -1.994766,-0.04607 -2.041395,-0.174438 z M 39.160092,74.467218 c -0.01989,-0.610417 -0.175846,-1.09484 -0.373703,-1.160791 -0.186631,-0.06221 -0.248887,1.414135 -0.07837,1.858494 0.08608,0.224321 0.104659,0.223305 0.279101,-0.01526 0.102785,-0.140568 0.180623,-0.447667 0.172972,-0.682444 z M 53.946501,64.25606 c 0.248292,-0.17391 0.300928,-0.30636 0.231567,-0.582715 -0.294272,-1.172472 -3.392162,-4.634693 -4.146982,-4.634693 -0.26998,0 -0.284732,0.05804 -0.213743,0.840932 0.09864,1.087865 1.004928,2.946867 1.902933,3.903361 0.597373,0.636281 0.710875,0.698183 1.280192,0.698183 0.348854,0 0.766594,-0.09938 0.946033,-0.225068 z M 75.917928,60.637961 C 75.873019,56.921714 75.250111,51.8711 73.698359,42.641446 71.904179,31.969854 70.367931,24.714516 69.680287,23.665037 c -0.84295,-1.286505 -2.469822,-0.976879 -3.365584,0.640537 l -0.416745,0.752486 0.0019,2.930565 c 9.77e-4,1.61181 0.08303,3.589941 0.182186,4.395846 0.348454,2.832017 2.275088,15.573501 2.536175,16.772586 0.505414,2.321201 1.192844,3.737939 4.051101,8.349 1.898334,3.062472 2.691987,4.530404 2.854344,5.279369 0.0766,0.353353 0.140408,0.42778 0.261627,0.305161 0.110022,-0.111291 0.151637,-0.880791 0.132641,-2.452626 z m -18.602337,1.735384 c 0,-0.181059 -1.433273,-1.608785 -2.070653,-2.062639 -0.750485,-0.534394 -0.490191,-0.09184 0.640259,1.088566 1.011021,1.0557 1.430394,1.341287 1.430394,0.974073 z m -9.156488,-8.437134 c 0.09844,-0.25652 -0.176012,-0.829855 -0.689172,-1.439712 -0.652231,-0.775132 -0.839274,-0.440516 -0.325281,0.581921 0.496906,0.988441 0.84981,1.286847 1.014453,0.857791 z m 29.923833,-1.316543 c 0.07998,-1.099711 -0.267644,-1.725829 -0.463386,-0.834619 -0.122623,0.558297 0.05093,1.561559 0.258352,1.493429 0.08853,-0.02908 0.180797,-0.325544 0.205034,-0.65881 z M 43.518813,49.712665 c 0.368411,-0.329176 0.44411,-0.501309 0.455741,-1.036316 0.01779,-0.818139 -0.386069,-1.411163 -1.003002,-1.472819 -0.562849,-0.05625 -0.914561,0.448149 -0.901784,1.293271 0.0095,0.628434 0.157864,1.015983 0.53228,1.390399 0.301125,0.301125 0.40696,0.280975 0.916765,-0.174535 z m 17.772281,-1.856948 c 0.387774,-0.661157 1.003949,-1.239781 1.508552,-1.416615 0.287316,-0.100687 -0.281636,-0.606599 -1.057588,-0.940404 -0.63924,-0.274995 -0.884115,-0.300831 -2.257747,-0.238206 -1.561,0.07117 -2.866967,0.393974 -2.865953,0.708401 8.38e-4,0.247619 2.46821,2.168456 3.419375,2.661926 0.516874,0.268158 0.712397,0.147243 1.253361,-0.775102 z m -13.182849,0.153958 c 0.750452,-0.378358 1.919499,-1.29195 2.957104,-2.310937 1.530522,-1.503056 1.452915,-1.813059 -0.445446,-1.779355 -2.820523,0.05008 -3.902947,0.938681 -3.956027,3.247653 -0.02965,1.28961 0.242691,1.44849 1.444369,0.842639 z M 41.057012,43.30183 c -0.0013,-1.212803 -0.298878,-1.433593 -0.446705,-0.331461 -0.0921,0.68667 0.04945,1.316151 0.278338,1.237749 0.107908,-0.03696 0.168956,-0.365576 0.168367,-0.906288 z M 74.065265,29.932886 c 0.209349,-0.550628 -0.09064,-1.973501 -0.359418,-1.704727 -0.125678,0.125678 -0.131563,1.699384 -0.0071,1.900758 0.147449,0.238576 0.215031,0.202431 0.366526,-0.196031 z m -1.817751,-7.612583 c 0,-0.187245 -1.676701,-1.853806 -2.084849,-2.07224 -0.51082,-0.273382 -0.308788,0.05965 0.700994,1.155524 0.913295,0.991163 1.383855,1.302879 1.383855,0.916716 z"
       id="path12769"
       inkscape:connector-curvature="0"
       transform="matrix(0.26458333,0,0,0.26458333,0,87)" />
    <path
       style="opacity:1;fill:#ffffff;fill-opacity:1;fill-rule:nonzero;stroke:none;stroke-width:2.51338577;stroke-linecap:butt;stroke-linejoin:miter;stroke-miterlimit:4;stroke-dasharray:none;stroke-dashoffset:0;stroke-opacity:1;paint-order:stroke fill markers"
       d="M 41.33439,94.86829 C 40.784892,93.362659 38.036707,79.922693 36.03399,68.94675 34.778339,62.065117 34.333155,59.824252 33.206144,54.712581 l -0.507669,-2.302587 -0.0068,-6.768208 c -0.0067,-6.653742 -0.0014,-6.787146 0.31398,-7.887974 0.415331,-1.449864 1.221801,-2.929116 1.893162,-3.472493 0.474915,-0.384381 0.649506,-0.435954 1.625956,-0.480297 1.383439,-0.06283 2.928723,0.193733 3.518841,0.584221 0.771338,0.510405 1.150323,1.527657 2.056793,5.520746 0.459952,2.026132 0.869758,3.717358 0.910681,3.75828 0.04092,0.04092 0.745856,-0.633281 1.566519,-1.498231 0.931152,-0.981402 1.736306,-1.696378 2.141645,-1.901779 0.985849,-0.499568 2.288359,-0.670918 4.445927,-0.584879 1.562693,0.06231 2.150488,0.151136 3.359389,0.507634 0.805905,0.237656 2.053358,0.50246 2.772118,0.588454 1.662297,0.198879 5.076033,0.104388 5.381289,-0.148952 0.318479,-0.264313 0.284488,-0.749881 -0.36203,-5.17193 -0.550254,-3.763608 -0.582076,-4.157057 -0.592542,-7.326411 -0.01237,-3.745994 0.07802,-4.309381 0.978144,-6.096793 0.574331,-1.140468 1.801189,-2.42307 2.783637,-2.910114 0.632085,-0.313353 0.854646,-0.342915 2.5758,-0.342142 1.796887,8.08e-4 1.918642,0.01908 2.635106,0.395506 1.038003,0.545357 2.064743,1.546197 2.528325,2.464547 0.868237,1.719967 1.589054,4.77852 3.140804,13.32698 0.585164,3.223621 1.308811,6.96009 1.608103,8.303266 0.865675,3.885011 0.971305,4.909592 2.294732,22.258334 1.937315,25.396142 2.168413,28.220514 2.361605,28.862441 l 0.196382,0.652528 h -1.867618 c -1.822758,0 -1.869319,-0.0075 -1.938481,-0.313989 -0.145058,-0.642737 -0.631673,-3.72271 -0.865386,-5.477364 -0.205722,-1.544517 -0.237516,-2.857358 -0.213906,-8.832826 0.02675,-6.76841 0.0178,-7.038138 -0.25087,-7.564775 -0.153232,-0.300359 -1.166003,-1.726198 -2.250602,-3.168533 -1.084599,-1.442334 -3.136465,-4.380764 -4.559701,-6.529844 -3.13094,-4.7277 -4.174317,-6.168069 -4.984872,-6.881547 -1.429391,-1.258202 -10.062082,-5.183422 -12.653877,-5.753626 -0.692575,-0.152368 -0.839813,-0.1459 -1.13884,0.05003 -0.787219,0.515807 -0.768339,2.068433 0.04,3.289441 1.063438,1.606336 3.356279,3.79493 7.452876,7.114019 3.119045,2.52707 3.357626,2.856702 3.987664,5.509502 0.390177,1.642849 0.720722,2.402257 1.881311,4.32219 1.503103,2.486545 1.787457,3.107202 1.864454,4.069529 0.101064,1.263093 -0.112804,1.462247 -1.713028,1.595174 -1.698884,0.141122 -2.313089,0.486228 -3.374962,1.896313 -0.812379,1.078776 -1.72333,2.899365 -2.188617,4.374083 -0.422759,1.339923 -0.648825,2.683061 -1.060625,6.301545 -0.161596,1.419928 -0.353685,2.80898 -0.426866,3.086784 -0.200796,0.76224 -0.635108,1.239287 -1.128268,1.239287 -0.562055,0 -0.905431,-0.193405 -1.688157,-0.950847 -1.010947,-0.978291 -1.136353,-1.506323 -1.047065,-4.408744 0.108934,-3.541087 0.47626,-4.797075 3.355363,-11.472941 1.295685,-3.004344 1.771524,-4.3007 1.771524,-4.82627 0,-0.40312 -1.031023,-1.419519 -1.843398,-1.817254 C 57.012391,69.416317 55.935,69.149443 53.8966,68.879572 50.28483,68.401397 49.583888,68.162223 48.503079,67.0392 47.787955,66.296148 47.341947,65.483331 46.639964,63.643824 45.998312,61.96241 45.506929,61.030623 45.16552,60.847907 c -0.158752,-0.08496 -0.916136,-0.203081 -1.683077,-0.262488 -0.930487,-0.07208 -1.463772,-0.177349 -1.602828,-0.316405 -0.14462,-0.14462 -0.29185,-0.973302 -0.48112,-2.707974 -0.345046,-3.162376 -0.38865,-3.399926 -1.457824,-7.942059 -1.090004,-4.630626 -1.263916,-5.54457 -1.597962,-8.397664 -0.365975,-3.125802 -0.57345,-3.44419 -1.271844,-1.951756 -0.672531,1.437167 -0.822296,2.473767 -0.825004,5.710278 -0.0029,3.453992 0.06162,3.932186 1.468341,10.884879 0.578371,2.85858 1.27078,6.542478 1.538688,8.186439 0.532298,3.266336 0.806963,4.117092 1.402269,4.343426 0.498756,0.189627 0.885971,0.04672 2.257891,-0.833335 1.396625,-0.895897 1.800981,-0.922143 2.557151,-0.165973 0.39974,0.39974 0.541785,0.656895 0.541785,0.980834 0,0.56613 -0.589937,1.725151 -1.834264,3.603692 -1.453533,2.194378 -1.963067,3.330527 -2.04095,4.55088 -0.133911,2.098244 0.649645,6.706394 2.19858,12.93002 0.468005,1.880445 0.898556,3.905674 0.956779,4.500509 l 0.105861,1.081518 h -1.999969 c -1.472988,0 -2.016744,-0.04596 -2.063633,-0.174438 z M 39.102014,74.817956 c 0.10521,-0.479018 -0.16143,-1.58984 -0.353176,-1.471335 -0.146319,0.09043 -0.183037,1.447687 -0.04864,1.79792 0.116445,0.30345 0.295379,0.158017 0.401816,-0.326585 z M 54.075063,64.153147 c 0.210166,-0.210167 0.205411,-0.272456 -0.06273,-0.821901 -0.447576,-0.917138 -1.46403,-2.192274 -2.631684,-3.301431 -1.282729,-1.218468 -1.54027,-1.246473 -1.510338,-0.164238 0.02726,0.985488 1.036226,3.057384 1.943464,3.990864 0.624096,0.642148 0.656458,0.656457 1.336732,0.591092 0.383434,-0.03684 0.799482,-0.169317 0.924552,-0.294386 z m 21.836335,-1.660616 c 0.09488,-0.867367 -0.135441,-5.367442 -0.385015,-7.522376 -0.825435,-7.127179 -3.543832,-22.802541 -4.896902,-28.237486 -0.832895,-3.345537 -1.207587,-3.923465 -2.465376,-3.802608 -0.529673,0.0509 -0.784385,0.168104 -1.169862,0.538327 -0.83877,0.805582 -1.042284,1.367859 -1.125144,3.108586 -0.144604,3.03791 0.158502,5.827887 1.843801,16.971552 1.174742,7.767719 1.198805,7.834614 5.093829,14.16041 1.677511,2.724399 2.539566,4.31694 2.702703,4.992921 0.136665,0.566286 0.328018,0.466637 0.401966,-0.209326 z m -18.595807,-0.08368 c 0,-0.150144 -1.801069,-1.953759 -2.128148,-2.131155 -0.506998,-0.274981 -0.220054,0.164033 0.780701,1.194442 0.936885,0.964647 1.347447,1.25006 1.347447,0.936713 z M 48.087867,53.47145 c -0.170127,-0.481801 -1.04516,-1.507599 -1.175947,-1.378555 -0.155546,0.153471 0.321073,1.285264 0.724617,1.720694 0.415281,0.448096 0.663833,0.259678 0.45133,-0.342139 z m 29.987361,-1.290352 c -0.06722,-0.699583 -0.172389,-0.937548 -0.340187,-0.769749 -0.134573,0.134573 -0.134413,1.364006 2.79e-4,1.696399 0.109184,0.269561 0.11805,0.270191 0.259384,0.01839 0.08048,-0.143393 0.116745,-0.568659 0.08058,-0.945035 z M 43.510808,49.69949 c 0.344677,-0.344676 0.407918,-0.518739 0.407918,-1.122748 0,-0.572889 -0.06802,-0.782847 -0.342534,-1.057364 -0.420359,-0.42036 -0.819797,-0.43616 -1.208165,-0.04779 -0.418299,0.418299 -0.327335,1.773319 0.153396,2.285033 0.41723,0.444122 0.49248,0.439778 0.989385,-0.05713 z m 17.737605,-1.788811 c 0.287954,-0.485351 0.715288,-0.962361 1.083946,-1.209954 l 0.608586,-0.408732 -0.405427,-0.324586 c -0.736364,-0.589536 -1.629878,-0.791091 -3.115219,-0.702715 -1.339667,0.07971 -2.802461,0.419395 -2.802461,0.65078 0,0.396223 3.290492,2.796429 3.833682,2.796429 0.243146,0 0.437421,-0.195332 0.796893,-0.801222 z m -13.162828,0.1135 c 1.121069,-0.571928 3.474139,-2.640188 3.879767,-3.41017 0.324185,-0.615383 0.123586,-0.690576 -1.652214,-0.619314 -2.122614,0.08518 -2.878021,0.460259 -3.38875,1.682604 -0.214079,0.512363 -0.302286,2.342244 -0.121614,2.522916 0.17361,0.173612 0.753399,0.09405 1.282811,-0.176036 z m -7.025252,-4.20746 c 0.105663,-0.481085 -0.01657,-1.333763 -0.208172,-1.45218 -0.06885,-0.04255 -0.167628,0.205631 -0.219498,0.551521 -0.160181,1.068165 0.2166,1.861653 0.42767,0.900659 z m 33.02925,-14.266028 c 0,-0.665177 -0.161682,-1.35274 -0.3181,-1.35274 -0.147134,0 -0.177845,1.85781 -0.0331,2.002552 0.174058,0.174058 0.351203,-0.153705 0.351203,-0.649812 z m -1.842069,-7.205452 c 0,-0.163953 -1.775037,-1.931369 -2.13105,-2.121902 -0.233456,-0.124941 -0.245611,-0.10901 -0.110065,0.144259 0.08381,0.156591 0.545016,0.695126 1.024913,1.196744 0.806035,0.842519 1.216202,1.105879 1.216202,0.780899 z"
       id="path12771"
       inkscape:connector-curvature="0"
       transform="matrix(0.26458333,0,0,0.26458333,0,87)" />
  </g>
</svg>
