<?xml version="1.0" encoding="UTF-8" standalone="no"?>
<!-- Created with Inkscape (http://www.inkscape.org/) -->

<svg
   xmlns:dc="http://purl.org/dc/elements/1.1/"
   xmlns:cc="http://creativecommons.org/ns#"
   xmlns:rdf="http://www.w3.org/1999/02/22-rdf-syntax-ns#"
   xmlns:svg="http://www.w3.org/2000/svg"
   xmlns="http://www.w3.org/2000/svg"
   xmlns:sodipodi="http://sodipodi.sourceforge.net/DTD/sodipodi-0.dtd"
   xmlns:inkscape="http://www.inkscape.org/namespaces/inkscape"
   width="297mm"
   height="210mm"
   viewBox="0 0 297 210"
   version="1.1"
   id="svg1549"
   sodipodi:docname="V.svg"
   inkscape:version="0.92.2 (5c3e80d, 2017-08-06)">
  <defs
     id="defs1543">
    <inkscape:path-effect
       effect="spiro"
       id="path-effect13963"
       is_visible="true" />
    <inkscape:path-effect
       effect="spiro"
       id="path-effect13352"
       is_visible="true" />
  </defs>
  <sodipodi:namedview
     id="base"
     pagecolor="#ffffff"
     bordercolor="#666666"
     borderopacity="1.0"
     inkscape:pageopacity="0.0"
     inkscape:pageshadow="2"
     inkscape:zoom="5.1014263"
     inkscape:cx="48.900886"
     inkscape:cy="724.05555"
     inkscape:document-units="mm"
     inkscape:current-layer="layer1"
     showgrid="false"
     inkscape:window-width="1366"
     inkscape:window-height="705"
     inkscape:window-x="-8"
     inkscape:window-y="-8"
     inkscape:window-maximized="1"
     showguides="true"
     inkscape:guide-bbox="true" />
  <metadata
     id="metadata1546">
    <rdf:RDF>
      <cc:Work
         rdf:about="">
        <dc:format>image/svg+xml</dc:format>
        <dc:type
           rdf:resource="http://purl.org/dc/dcmitype/StillImage" />
        <dc:title />
      </cc:Work>
    </rdf:RDF>
  </metadata>
  <g
     inkscape:label="Capa 1"
     inkscape:groupmode="layer"
     id="layer1"
     transform="translate(0,-87)">
    <path
       style="opacity:1;fill:#216778;fill-opacity:1;fill-rule:nonzero;stroke:none;stroke-width:0.66499996;stroke-linecap:butt;stroke-linejoin:miter;stroke-miterlimit:4;stroke-dasharray:none;stroke-dashoffset:0;stroke-opacity:1;paint-order:stroke fill markers"
       d="M 2.2789478,92.605288 C 2.0729458,92.50332 1.9880172,92.38602 1.7461034,91.869344 1.1634274,90.624866 0.5468662,88.734148 0.4849801,88.002038 c -0.024183,-0.286099 0.00661,-0.354201 0.2070074,-0.457833 0.4404201,-0.22775 0.8863833,0.300279 1.3885122,1.644029 0.2040387,0.546034 0.4442539,1.055552 0.5373767,1.139825 0.068363,0.06187 0.072416,0.06066 0.1467855,-0.04378 0.1114002,-0.156448 0.3009186,-0.579575 0.5383187,-1.201875 0.421693,-1.105397 0.7644077,-1.5875 1.1285141,-1.5875 0.2968043,0 0.4515644,0.159076 0.4515644,0.464154 0,0.972378 -1.2701429,3.942836 -1.9564113,4.575415 -0.1398588,0.128919 -0.178644,0.146262 -0.3270356,0.146236 -0.100875,-1.6e-5 -0.229407,-0.03024 -0.3206644,-0.07542 z"
       id="path2654"
       inkscape:connector-curvature="0" />
    <path
       style="opacity:1;fill:#216778;fill-opacity:1;fill-rule:nonzero;stroke:none;stroke-width:0.66499996;stroke-linecap:butt;stroke-linejoin:miter;stroke-miterlimit:4;stroke-dasharray:none;stroke-dashoffset:0;stroke-opacity:1;paint-order:stroke fill markers"
       d="m 19.22883,105.33663 c -0.251744,-0.31529 -0.638976,-0.81124 -0.860522,-1.1021 -0.523777,-0.68765 -0.81243,-0.97575 -1.076712,-1.07463 -0.18792,-0.0703 -0.255405,-0.0743 -1.086151,-0.0648 -0.859677,0.01 -0.891829,0.008 -1.090996,-0.0726 -0.426652,-0.17214 -1.169202,-0.84248 -1.662467,-1.5008 -1.026859,-1.37048 -2.015763,-3.738073 -2.171976,-5.20006 -0.04088,-0.38258 -0.02825,-0.571813 0.05928,-0.888199 0.264573,-0.956323 0.673142,-0.593563 1.309968,1.163106 0.467243,1.28887 1.066019,2.68317 1.698895,3.956003 0.860785,1.73119 1.207891,2.20152 1.65654,2.24463 0.245187,0.0236 0.372372,-0.0364 0.457928,-0.21596 0.156953,-0.32936 0.192278,-0.76881 0.339285,-4.220783 0.109546,-2.572271 0.219943,-3.936416 0.321729,-3.975476 0.147579,-0.05663 0.495043,0.187936 0.607795,0.427805 0.242758,0.516443 0.519496,1.937673 0.886565,4.553091 0.537805,3.831903 0.79262,5.341163 1.038894,6.153363 0.09651,0.31827 0.107606,0.39066 0.0599,0.39066 -0.01664,0 -0.236212,-0.25797 -0.487955,-0.57327 z"
       id="path2656"
       inkscape:connector-curvature="0" />
    <path
       style="opacity:1;fill:#216778;fill-opacity:1;fill-rule:nonzero;stroke:none;stroke-width:0.66499996;stroke-linecap:butt;stroke-linejoin:miter;stroke-miterlimit:4;stroke-dasharray:none;stroke-dashoffset:0;stroke-opacity:1;paint-order:stroke fill markers"
       d="m 14.716502,112.939 -3.17844,-0.009 -0.02207,-0.38567 c -0.02729,-0.47695 -0.172328,-1.43454 -0.467841,-3.08882 -0.302446,-1.69309 -0.367618,-2.16482 -0.366996,-2.65635 5.29e-4,-0.49326 0.05649,-0.75686 0.246264,-1.16182 0.175167,-0.37379 0.356613,-0.62282 0.495813,-0.68048 0.143817,-0.0596 0.170892,-0.0266 0.22915,0.27916 0.05688,0.29854 0.15816,0.45779 0.497237,0.78191 0.288406,0.27568 0.603528,0.5036 0.968039,0.70015 0.361662,0.19502 0.628081,0.28281 0.983136,0.32398 0.409176,0.0474 0.660173,0.16586 0.899504,0.42436 0.221414,0.23915 0.33524,0.50472 0.341998,0.79792 0.0038,0.16641 -0.0082,0.2089 -0.07467,0.26269 -0.199046,0.16118 -0.609269,0.0208 -0.983199,-0.33633 -0.369425,-0.35288 -1.137547,-0.85635 -2.016736,-1.32189 -0.547204,-0.28975 -0.862153,-0.40711 -0.956736,-0.35649 -0.10418,0.0558 -0.171707,0.24699 -0.171707,0.48627 0,0.17707 0.01744,0.23473 0.114652,0.37938 0.157927,0.23494 0.446656,0.45694 0.935201,0.71904 0.955051,0.51239 1.228638,0.76306 1.198534,1.09811 -0.01635,0.1819 -0.152657,0.43887 -0.484323,0.91303 -0.250399,0.35798 -0.417531,0.67656 -0.445555,0.84932 -0.01643,0.10134 -0.0034,0.14599 0.06657,0.22729 0.07477,0.0869 0.111303,0.10072 0.259377,0.0979 0.407974,-0.008 0.877416,-0.30851 1.291254,-0.82737 0.477416,-0.59859 0.801875,-0.81402 1.101402,-0.73132 0.217262,0.06 0.311089,0.26258 0.37397,0.80749 0.144002,1.24783 0.661929,2.21717 1.095994,2.05122 0.378164,-0.14457 0.419843,-0.89926 0.103952,-1.8822 -0.06054,-0.18838 -0.119573,-0.44421 -0.13118,-0.56851 -0.03759,-0.40256 0.102333,-0.76069 0.368228,-0.9425 0.120566,-0.0824 0.152612,-0.0868 0.643954,-0.0868 0.586719,0 0.634084,-0.0169 0.634084,-0.2267 0,-0.30195 -0.35098,-0.77434 -1.168971,-1.57335 -0.91576,-0.8945 -1.295448,-1.0992 -2.376445,-1.28122 -1.137984,-0.19161 -1.675694,-0.42187 -1.675694,-0.71758 0,-0.21717 0.288592,-0.36302 1.005298,-0.50805 0.600292,-0.12147 0.986827,-0.25141 1.174861,-0.39494 0.271063,-0.20691 0.367485,-0.23408 0.836091,-0.23564 0.401264,-10e-4 0.434353,0.004 0.634743,0.10443 0.303104,0.15173 0.832226,0.69203 1.606471,1.64041 0.704569,0.86304 1.353877,1.63534 2.046506,2.43417 0.867952,1.00104 1.015757,1.2515 1.160158,1.96593 0.05634,0.27876 0.249481,2.27378 0.249481,2.57702 v 0.0784 l -1.931458,-0.009 c -1.062302,-0.005 -3.361755,-0.0128 -5.109897,-0.0178 z"
       id="path2658"
       inkscape:connector-curvature="0" />
    <path
       style="opacity:1;fill:#216778;fill-opacity:1;fill-rule:nonzero;stroke:none;stroke-width:0.66499996;stroke-linecap:butt;stroke-linejoin:miter;stroke-miterlimit:4;stroke-dasharray:none;stroke-dashoffset:0;stroke-opacity:1;paint-order:stroke fill markers"
       d="m 12.003554,103.77766 c -0.07761,-0.0286 -0.184192,-0.0999 -0.236844,-0.15846 -0.14905,-0.16571 -0.256244,-0.55957 -0.256678,-0.94311 -2.64e-4,-0.29649 0.007,-0.33124 0.08783,-0.41787 0.0792,-0.0848 0.107982,-0.093 0.282223,-0.0803 0.297463,0.0218 0.695018,0.24325 1.186479,0.66097 0.303287,0.25778 0.542994,0.5588 0.552673,0.69403 0.0065,0.0901 -0.0123,0.10709 -0.204568,0.18578 -0.185619,0.076 -0.276792,0.0881 -0.740834,0.0988 -0.403402,0.009 -0.562702,-1.9e-4 -0.670277,-0.0399 z"
       id="path2660"
       inkscape:connector-curvature="0" />
    <path
       style="opacity:1;fill:#216778;fill-opacity:1;fill-rule:nonzero;stroke:none;stroke-width:0.66499996;stroke-linecap:butt;stroke-linejoin:miter;stroke-miterlimit:4;stroke-dasharray:none;stroke-dashoffset:0;stroke-opacity:1;paint-order:stroke fill markers"
       d="m 12.68265,104.33519 c -0.165571,-0.0482 0.0034,-0.15413 0.244626,-0.15337 0.33945,0.001 0.342603,0.14438 0.0036,0.16177 -0.102548,0.005 -0.214231,0.002 -0.248188,-0.008 z"
       id="path2662"
       inkscape:connector-curvature="0" />
    <path
       style="opacity:1;fill:#216778;fill-opacity:1;fill-rule:nonzero;stroke:none;stroke-width:0.66499996;stroke-linecap:butt;stroke-linejoin:miter;stroke-miterlimit:4;stroke-dasharray:none;stroke-dashoffset:0;stroke-opacity:1;paint-order:stroke fill markers"
       d="m 10.175577,109.23835 c -0.03979,-0.0398 -0.02841,-0.7179 0.01204,-0.7179 0.06885,0 0.11158,0.19511 0.0952,0.43468 -0.01574,0.23017 -0.05544,0.33502 -0.10724,0.28322 z"
       id="path2664"
       inkscape:connector-curvature="0" />
    <path
       style="opacity:1;fill:#216778;fill-opacity:1;fill-rule:nonzero;stroke:none;stroke-width:0.66499996;stroke-linecap:butt;stroke-linejoin:miter;stroke-miterlimit:4;stroke-dasharray:none;stroke-dashoffset:0;stroke-opacity:1;paint-order:stroke fill markers"
       d="m 15.953252,110.30891 c -0.03125,-0.12451 -0.0034,-0.45842 0.03943,-0.4725 0.0869,-0.0286 0.160247,0.33918 0.09932,0.49796 -0.03181,0.0829 -0.115409,0.0675 -0.13875,-0.0255 z"
       id="path2666"
       inkscape:connector-curvature="0" />
    <path
       style="opacity:1;fill:#216778;fill-opacity:1;fill-rule:nonzero;stroke:none;stroke-width:0.66499996;stroke-linecap:butt;stroke-linejoin:miter;stroke-miterlimit:4;stroke-dasharray:none;stroke-dashoffset:0;stroke-opacity:1;paint-order:stroke fill markers"
       d="m 16.007581,99.877397 c 0,-0.4688 0.0099,-0.60228 0.0441,-0.5909 0.0634,0.0211 0.0634,1.160673 0,1.181803 -0.03414,0.0114 -0.0441,-0.1221 -0.0441,-0.590903 z"
       id="path2668"
       inkscape:connector-curvature="0" />
    <path
       style="opacity:1;fill:#216778;fill-opacity:1;fill-rule:nonzero;stroke:none;stroke-width:0.66499996;stroke-linecap:butt;stroke-linejoin:miter;stroke-miterlimit:4;stroke-dasharray:none;stroke-dashoffset:0;stroke-opacity:1;paint-order:stroke fill markers"
       d="m 16.254525,95.326567 c 0,-0.412316 0.01011,-0.531693 0.0441,-0.520422 0.06317,0.02096 0.105124,0.471924 0.07194,0.773321 -0.01643,0.149294 -0.04591,0.258892 -0.07194,0.267523 -0.03398,0.01127 -0.0441,-0.108106 -0.0441,-0.520422 z"
       id="path2670"
       inkscape:connector-curvature="0" />
    <path
       style="opacity:1;fill:#216778;fill-opacity:1;fill-rule:nonzero;stroke:none;stroke-width:0.66499996;stroke-linecap:butt;stroke-linejoin:miter;stroke-miterlimit:4;stroke-dasharray:none;stroke-dashoffset:0;stroke-opacity:1;paint-order:stroke fill markers"
       d="m 18.88108,96.975434 c -0.01064,-0.02768 -0.0146,-0.167907 -0.0088,-0.311613 0.0081,-0.201805 0.0223,-0.261281 0.06242,-0.261281 0.06766,0 0.111467,0.251026 0.07801,0.447019 -0.02553,0.149524 -0.09647,0.21739 -0.131588,0.125875 z"
       id="path2672"
       inkscape:connector-curvature="0" />
    <path
       style="opacity:1;fill:#216778;fill-opacity:1;fill-rule:nonzero;stroke:none;stroke-width:0.66499996;stroke-linecap:butt;stroke-linejoin:miter;stroke-miterlimit:4;stroke-dasharray:none;stroke-dashoffset:0;stroke-opacity:1;paint-order:stroke fill markers"
       d="m 23.997997,112.55727 c -0.942726,-0.0826 -1.183889,-0.14214 -1.238888,-0.30581 -0.01474,-0.0439 -0.0285,-0.38138 -0.03058,-0.75004 -0.0031,-0.55315 -0.01765,-0.7343 -0.08318,-1.03668 -0.184787,-0.8527 -0.545975,-1.74249 -1.0112,-2.49109 -0.437803,-0.70449 -0.679516,-1.32083 -0.859094,-2.19062 -0.122116,-0.59146 -0.25591,-1.07941 -0.3615,-1.31838 -0.146921,-0.33252 -0.444876,-2.22987 -0.736989,-4.693083 -0.267425,-2.25504 -0.458415,-3.563379 -0.65182,-4.465196 -0.175948,-0.820396 -0.304908,-1.112956 -0.618251,-1.402537 -0.362767,-0.335259 -0.854048,-0.506101 -1.34983,-0.469403 -0.350745,0.02596 -0.742122,0.160978 -0.894355,0.308528 -0.226534,0.219564 -0.26638,0.484471 -0.331073,2.200968 -0.02048,0.54328 -0.06132,1.31322 -0.09076,1.71097 -0.06298,0.85083 -0.251812,2.682623 -0.279379,2.710193 -0.03752,0.0375 -0.0881,-0.0567 -0.460774,-0.858103 -0.599197,-1.28853 -0.921936,-2.09978 -1.606944,-4.03931 -0.199917,-0.566039 -0.564751,-1.307923 -0.698567,-1.420521 -0.350086,-0.294577 -1.083389,-0.347779 -1.606269,-0.116539 -0.549312,0.242933 -0.725408,0.681382 -0.725408,1.806139 0,0.891926 0.103304,1.667851 0.35165,2.641261 0.171701,0.673 0.281413,0.96078 0.695356,1.823973 0.272003,0.56721 0.331259,0.71966 0.322239,0.82903 l -0.01106,0.13403 -0.258574,0.0258 c -0.539801,0.0538 -0.867733,0.37849 -1.015479,1.00533 -0.0446,0.18924 -0.05053,0.31951 -0.02851,0.62693 0.07063,0.9862 0.01162,1.32096 -0.375534,2.1303 -0.3983117,0.83267 -0.4845287,1.28553 -0.4202827,2.20757 0.100172,1.43764 0.254675,2.41997 0.5966757,3.79366 0.132839,0.53357 0.273177,1.11698 0.311857,1.29646 l 0.07033,0.32632 H 6.7782986 2.9547968 v -9.11931 -9.119299 h 0.8034947 c 1.0335101,0 1.5548531,-0.06534 1.9128925,-0.239723 0.313989,-0.152932 0.4198466,-0.698776 0.4478046,-2.309099 l 0.02006,-1.155345 0.356971,-3.2e-5 c 0.378081,-3.4e-5 6.3686714,0.04685 13.6014314,0.106455 2.394955,0.01974 4.361849,0.04327 4.370877,0.0523 0.01532,0.01529 0.141766,17.943883 0.145383,20.611073 0.0013,0.94628 -0.0079,1.20728 -0.04246,1.20375 -0.02426,-0.002 -0.282224,-0.0254 -0.573265,-0.0509 z"
       id="path2674"
       inkscape:connector-curvature="0" />
    <path
       style="opacity:1;fill:#216778;fill-opacity:1;fill-rule:nonzero;stroke:none;stroke-width:0.66499996;stroke-linecap:butt;stroke-linejoin:miter;stroke-miterlimit:4;stroke-dasharray:none;stroke-dashoffset:0;stroke-opacity:1;paint-order:stroke fill markers"
       d="m 11.624317,94.281024 c -0.165571,-0.04818 0.0034,-0.154128 0.244625,-0.153361 0.33945,0.0011 0.342604,0.144373 0.0036,0.161764 -0.102547,0.0053 -0.21423,0.0016 -0.248187,-0.0084 z"
       id="path2676"
       inkscape:connector-curvature="0" />
    <path
       style="opacity:1;fill:#ffffff;fill-opacity:1;fill-rule:nonzero;stroke:none;stroke-width:2.51338577;stroke-linecap:butt;stroke-linejoin:miter;stroke-miterlimit:4;stroke-dasharray:none;stroke-dashoffset:0;stroke-opacity:1;paint-order:stroke fill markers"
       d="m 39.958896,95.755979 c -0.401019,-1.259034 -2.171137,-9.188031 -2.553616,-11.438567 -0.684457,-4.0274 -1.07577,-8.592738 -0.929068,-10.839185 0.127387,-1.950686 0.400366,-2.846093 2.158464,-7.080052 0.787881,-1.897425 0.811444,-2.054175 0.82632,-5.49709 0.01409,-3.260144 0.06358,-3.641388 0.618045,-4.760371 0.710251,-1.433393 1.746431,-2.193832 3.308522,-2.428082 1.095027,-0.164208 1.127174,-0.192973 0.988824,-0.884723 -0.07865,-0.393248 -0.746233,-2.018506 -1.483518,-3.611681 -1.380297,-2.982639 -2.190119,-5.451443 -2.97289,-9.063075 -0.344586,-1.589889 -0.450837,-3.131429 -0.454337,-6.591773 -0.0044,-4.308017 0.02213,-4.563171 0.573526,-5.525399 0.784853,-1.369619 2.120434,-2.082856 4.175638,-2.229905 1.293344,-0.09254 1.866583,-0.01339 2.75755,0.380723 1.047331,0.463285 1.199929,0.654475 2.215979,2.7764 0.600155,1.253369 1.810393,4.256385 2.689417,6.673368 2.577373,7.086804 6.15536,15.22048 6.528244,14.840367 0.292443,-0.298115 1.160184,-9.622699 1.437836,-15.450716 0.424891,-8.918638 0.498528,-9.228168 2.394908,-10.067028 1.382155,-0.611393 3.909871,-0.670152 5.210406,-0.121121 1.069371,0.451442 2.799765,1.97045 3.261238,2.862842 0.967863,1.871638 1.84294,6.881534 3.53964,20.264713 1.390791,10.970239 2.199411,16.11315 2.821494,17.944979 0.227868,0.670994 0.839235,2.922866 1.358596,5.004157 0.955334,3.828424 1.308487,4.674651 4.377538,10.489469 1.96833,3.729325 2.682004,6.303578 2.942741,10.614624 0.147004,2.430543 0.322272,3.71465 0.525147,3.847494 0.167477,0.109665 -0.683303,0.170893 -1.890621,0.136064 l -2.195126,-0.06333 -0.295861,-3.173816 c -0.602012,-6.457994 -0.938681,-7.357815 -4.20539,-11.23986 -1.238557,-1.471859 -4.134121,-4.928295 -6.434586,-7.68097 -7.136817,-8.539723 -7.710385,-9.033171 -10.49982,-9.033171 -1.455872,0 -1.885233,0.111855 -3.187053,0.830276 -0.889961,0.491131 -2.587905,1.092791 -4.156838,1.472958 -3.418153,0.828252 -4.061512,1.157357 -4.061512,2.077639 0,0.953202 1.010128,1.5526 3.662874,2.173498 1.140925,0.267043 3.053422,0.711619 4.249992,0.987941 2.885334,0.666311 4.315329,1.557961 7.48104,4.664675 2.787844,2.735891 4.137273,4.573221 4.137273,5.633149 0,0.653735 -0.0034,0.654922 -2.186708,0.759306 -1.723346,0.0824 -2.297709,0.205 -2.710533,0.578602 -1.369528,1.239407 -1.509279,2.704565 -0.591326,6.199599 0.636089,2.421869 0.778787,4.604505 0.353044,5.400014 -0.192126,0.358988 -0.514986,0.47223 -1.346358,0.47223 -0.971261,0 -1.148074,-0.08878 -1.580226,-0.793454 -0.825789,-1.346543 -1.440603,-3.266148 -1.865494,-5.824547 -0.454761,-2.738254 -0.946947,-3.636415 -1.991931,-3.634955 -0.980263,0.0015 -1.975814,0.719216 -3.719319,2.681839 -2.334013,2.627341 -4.948818,3.890762 -5.837147,2.820392 -0.476286,-0.573889 -0.09293,-1.6066 1.503651,-4.05063 1.859167,-2.845995 2.090717,-3.99292 1.020919,-5.056844 -0.386002,-0.383883 -1.894479,-1.405361 -3.352171,-2.26995 -3.30276,-1.958941 -4.3091,-2.997416 -4.303894,-4.441327 0.0052,-1.435769 0.256282,-1.753927 1.230501,-1.559084 1.698361,0.339674 7.129489,3.584357 10.803228,6.454103 1.590055,1.242073 2.987229,1.599235 3.502014,0.895226 0.482434,-0.659768 0.407662,-1.325613 -0.310755,-2.767287 -0.808868,-1.623188 -1.880939,-2.343874 -4.216176,-2.83427 -2.183903,-0.458619 -3.439217,-0.994474 -5.317063,-2.269696 -2.04869,-1.391238 -3.427993,-2.977311 -3.769863,-4.334999 -0.156796,-0.622696 -0.44007,-1.191646 -0.629497,-1.264336 -0.786228,-0.301706 -2.400771,2.189162 -3.024454,4.666028 -0.447776,1.778282 -0.158693,4.8407 1.212213,12.841643 0.678718,3.961167 1.3273,7.998628 1.441293,8.972135 l 0.207259,1.770013 h -1.67251 c -1.123408,0 -1.704424,-0.100192 -1.769713,-0.305174 z m 20.953716,-7.632038 c 0.17736,-0.462193 -0.08231,-1.828377 -0.347516,-1.828377 -0.312516,0 -0.532508,0.955204 -0.369538,1.604527 0.168059,0.669598 0.505573,0.774961 0.717054,0.22385 z M 38.850724,82.755537 c 0,-0.738522 -0.109863,-1.342768 -0.24414,-1.342768 -0.134277,0 -0.24414,0.604246 -0.24414,1.342768 0,0.738523 0.109863,1.342769 0.24414,1.342769 0.134277,0 0.24414,-0.604246 0.24414,-1.342769 z M 74.647469,70.975795 C 73.568415,67.278762 72.960329,63.907166 71.201962,51.87186 68.4336,32.923552 67.6631,29.377155 66.090896,28.347007 c -0.97903,-0.641485 -1.420024,-0.589834 -1.634386,0.191425 -0.288444,1.051257 -0.651277,6.289195 -1.07514,15.520956 -0.478004,10.410915 -0.757217,13.762546 -1.221258,14.659906 -0.843217,1.630599 -2.727665,1.054818 -4.432395,-1.35429 -2.101285,-2.969515 -6.580865,-12.597045 -10.184211,-21.887942 -2.12214,-5.471744 -3.317353,-6.713525 -4.376262,-4.546772 -1.05862,2.166163 -0.767004,5.412066 0.959086,10.67532 2.068494,6.307328 5.580194,12.52943 8.922832,15.80966 3.423084,3.359175 3.374178,3.338528 8.262418,3.488357 4.892253,0.149955 4.671907,0.03298 8.001895,4.247721 4.104851,5.195474 4.987745,6.251691 5.225804,6.251691 0.12809,0 0.176776,-0.19226 0.10819,-0.427244 z M 49.776091,65.238511 c -0.126976,-0.381356 -0.772884,-0.516007 -1.545297,-0.322142 -0.983658,0.246881 -0.663493,0.627317 0.527934,0.627317 0.786612,0 1.088793,-0.09064 1.017363,-0.305175 z m 0.923252,-2.001694 c 1.022183,-0.427096 1.058937,-0.820273 0.175263,-1.874869 -1.739416,-2.075857 -4.283617,-3.832784 -5.855565,-4.043626 -1.366696,-0.183312 -1.622648,0.239147 -1.471947,2.42952 0.14157,2.057661 0.522367,3.009989 1.392899,3.483472 0.85776,0.466534 4.647277,0.470154 5.75935,0.0055 z m 10.12022,-14.599808 c -0.0026,-1.548234 -0.07815,-2.143148 -0.240402,-1.892083 -0.40175,0.621663 -0.275757,4.150375 0.14819,4.150375 0.05277,0 0.09427,-1.016232 0.09221,-2.258292 z M 72.053729,36.708501 c 0,-0.596247 -0.257526,-1.194004 -0.5144,-1.194004 -0.11991,0 -0.214526,0.576781 -0.210256,1.281734 0.0072,1.180117 0.03618,1.244162 0.36621,0.807827 0.197145,-0.260649 0.358446,-0.663649 0.358446,-0.895557 z M 61.936878,30.524212 c -0.0926,-0.617462 -0.271166,-1.059117 -0.396827,-0.981455 -0.270614,0.16725 -0.310873,3.609445 -0.04537,3.878996 0.310658,0.31539 0.620015,-1.711729 0.442193,-2.897541 z M 45.381462,27.548148 c 0.925229,-0.247952 0.61134,-0.578541 -0.549315,-0.578541 -1.025237,0 -1.323796,0.181731 -0.935868,0.569659 0.200218,0.200218 0.758749,0.203559 1.485183,0.0089 z"
       id="path13354"
       inkscape:connector-curvature="0"
       transform="matrix(0.26458333,0,0,0.26458333,0,87)" />
    <path
       style="opacity:1;fill:#ffffff;fill-opacity:1;fill-rule:nonzero;stroke:none;stroke-width:2.51338577;stroke-linecap:butt;stroke-linejoin:miter;stroke-miterlimit:4;stroke-dasharray:none;stroke-dashoffset:0;stroke-opacity:1;paint-order:stroke fill markers"
       d="m 39.947098,95.755979 c -0.306402,-0.857851 -1.921314,-8.029871 -2.432535,-10.803184 -0.75922,-4.118677 -1.196821,-8.875222 -1.049842,-11.411365 0.119164,-2.056208 0.365094,-2.888896 2.037615,-6.899116 0.909151,-2.179879 0.916607,-2.225255 0.942768,-5.737283 0.02419,-3.247726 0.07634,-3.640791 0.631519,-4.760371 0.687503,-1.386421 1.752402,-2.202485 3.191301,-2.445585 0.54333,-0.09179 1.044779,-0.315194 1.114331,-0.496443 0.06955,-0.18125 -0.533064,-1.799401 -1.339147,-3.595888 -1.500357,-3.343795 -2.353874,-5.883574 -3.135946,-9.331522 -0.341269,-1.504564 -0.443364,-2.991889 -0.44455,-6.476198 -0.0018,-5.381524 0.224718,-6.196526 2.013937,-7.245078 1.519142,-0.890277 3.947733,-1.051934 5.498409,-0.365996 0.984747,0.435601 1.233353,0.709657 1.964897,2.166051 0.46063,0.917043 1.743904,4.084336 2.85172,7.038427 3.166306,8.443237 6.186706,15.278328 6.573702,14.876125 0.120521,-0.125258 0.391204,-1.930616 0.601518,-4.011907 0.35863,-3.549024 0.529322,-5.927199 1.108396,-15.442746 0.131001,-2.152657 0.3741,-4.141321 0.552119,-4.516585 0.794758,-1.675359 4.668591,-2.417061 7.037601,-1.347453 1.185443,0.535229 2.523304,1.741287 3.040041,2.740545 0.990047,1.914539 1.879343,6.943672 3.542079,20.031078 1.351575,10.638254 2.275595,16.548423 2.834284,18.128501 0.201562,0.570056 0.748169,2.550803 1.214681,4.401656 1.110587,4.406173 1.711776,5.951028 3.739613,9.609553 2.46272,4.443114 3.428403,7.535241 3.719706,11.910538 0.12578,1.889212 0.336266,3.627191 0.467745,3.862176 0.219874,0.392972 0.06263,0.427244 -1.960277,0.427244 h -2.199325 v -0.91702 c 0,-1.918468 -0.758237,-7.322884 -1.224322,-8.7265 C 80.2576,84.666348 79.760395,83.995386 73.734421,76.830056 63.858719,65.087117 63.75493,64.98975 60.970473,64.855736 c -1.573716,-0.07574 -1.869547,-0.01035 -3.198919,0.707002 -0.805661,0.434752 -2.836534,1.164024 -4.513051,1.6206 -3.076841,0.837939 -3.90977,1.268794 -3.90977,2.022444 0,1.029823 1.498556,1.697249 6.034275,2.687544 4.01044,0.875612 5.265325,1.448075 7.660585,3.494672 3.359458,2.870444 5.836319,5.950225 5.836319,7.257005 0,0.640051 -0.02695,0.650259 -2.102886,0.796762 -2.389515,0.16863 -3.13847,0.530592 -3.654791,1.766317 -0.481812,1.153143 -0.431981,2.060837 0.267421,4.871079 0.639448,2.569356 0.777856,4.719145 0.354733,5.509762 -0.19175,0.358288 -0.514908,0.47223 -1.339307,0.47223 -0.987218,0 -1.140899,-0.08371 -1.680683,-0.915524 -0.725427,-1.117889 -1.453815,-3.45717 -1.858418,-5.968477 -0.693596,-4.305043 -2.241407,-4.485064 -5.636508,-0.655574 -2.294245,2.587786 -4.943469,3.851705 -5.831227,2.782022 -0.453142,-0.546004 -0.127089,-1.46916 1.341977,-3.799547 2.721388,-4.316947 2.622062,-4.660603 -2.184404,-7.557763 -3.224316,-1.943497 -4.287139,-3.027758 -4.287139,-4.37361 0,-1.305493 0.202163,-1.728243 0.826462,-1.728243 1.2299,0 6.396016,2.901298 10.042142,5.639682 2.402428,1.804317 3.350422,2.272211 4.181224,2.063691 1.61722,-0.405895 0.313364,-4.012766 -1.856141,-5.134662 -0.357389,-0.184814 -1.567935,-0.564534 -2.690104,-0.843827 -3.935526,-0.979496 -7.602046,-3.708664 -8.577854,-6.384909 -0.289473,-0.793908 -0.626451,-1.443469 -0.74884,-1.443469 -0.475236,0 -1.484313,1.300215 -2.228831,2.871894 -0.743722,1.569997 -0.777778,1.772201 -0.749861,4.452298 0.02256,2.166174 0.336984,4.648243 1.376244,10.864219 0.740849,4.431136 1.403877,8.523529 1.473396,9.094205 l 0.126399,1.037594 h -1.693409 c -1.133834,0 -1.729428,-0.100842 -1.802409,-0.305174 z m 20.905128,-7.690402 c 0.03876,-0.572493 -0.02378,-1.082763 -0.187048,-1.525874 -0.21451,-0.582227 -0.601962,0.659258 -0.425351,1.36293 0.171588,0.683667 0.569968,0.789663 0.612399,0.162944 z m -22.001502,-5.31004 c 0,-0.588396 -0.109863,-1.13771 -0.24414,-1.220698 -0.151694,-0.09375 -0.24414,0.368477 -0.24414,1.220698 0,0.852221 0.09245,1.314451 0.24414,1.220699 0.134277,-0.08299 0.24414,-0.632302 0.24414,-1.220699 z M 74.625589,70.975795 c -0.75322,-1.93959 -1.997756,-9.056222 -4.169994,-23.84531 -1.311988,-8.932291 -2.134971,-13.572291 -2.807131,-15.826646 -0.834675,-2.799414 -2.721685,-4.313368 -3.188236,-2.55793 -0.270184,1.016601 -0.657964,6.678593 -1.073868,15.679689 -0.382672,8.281865 -0.739314,13.18621 -1.015343,13.962457 -0.651785,1.832945 -2.586978,1.673314 -4.174137,-0.344318 -1.960917,-2.492759 -6.040885,-10.908761 -9.48522,-19.565753 -2.301796,-5.785331 -3.040045,-7.373023 -3.765781,-8.098759 -0.721851,-0.721851 -1.144958,-0.58754 -1.756713,0.557652 -1.518183,2.842007 0.03575,9.975375 3.822069,17.545308 2.018911,4.036382 3.852994,6.682012 6.33322,9.135548 3.051611,3.018773 3.296834,3.117918 8.108763,3.278421 3.847691,0.128341 3.943921,0.144774 4.836381,0.825907 0.500816,0.382228 1.965276,2.030171 3.254353,3.662096 1.28908,1.631926 2.894695,3.653779 3.568034,4.493009 1.192015,1.485688 1.849139,1.962654 1.513603,1.098629 z m -24.92151,-5.658671 c 0.07701,-0.124611 -0.07196,-0.293842 -0.331039,-0.376073 -0.596429,-0.189299 -1.774282,0.09465 -1.59512,0.384537 0.178185,0.288312 1.747003,0.281415 1.926159,-0.0085 z m 0.862378,-2.04551 c 0.476576,-0.163088 0.888769,-0.485682 0.936121,-0.732637 0.114444,-0.596853 -3.160069,-3.785435 -4.622635,-4.501329 -2.480939,-1.214363 -3.391622,-0.914813 -3.389203,1.114808 0.0026,2.161235 0.689419,3.740609 1.829687,4.207312 0.738108,0.302103 4.279522,0.242592 5.24603,-0.08815 z M 60.80614,48.759078 c -0.01141,-1.420591 -0.08745,-1.972649 -0.226979,-1.647943 -0.338195,0.78702 -0.217341,3.784166 0.152587,3.784166 0.05035,0 0.08383,-0.9613 0.07439,-2.136223 z M 71.894364,37.169801 c 0.168696,-0.645096 -0.04819,-1.655304 -0.355382,-1.655304 -0.119719,0 -0.217673,0.494383 -0.217673,1.098629 0,1.155242 0.33215,1.477898 0.573055,0.556675 z M 61.92638,30.698349 c -0.08682,-0.578961 -0.260668,-0.989114 -0.386329,-0.911452 -0.268434,0.165903 -0.311515,3.121779 -0.04932,3.383976 0.306627,0.306626 0.601468,-1.366755 0.435648,-2.472524 z M 45.300459,27.553836 c 0.671906,-0.257835 0.418321,-0.584229 -0.453903,-0.584229 -0.821587,0 -1.255152,0.264785 -0.94364,0.576296 0.197213,0.197214 0.893979,0.201168 1.397543,0.0079 z"
       id="path13356"
       inkscape:connector-curvature="0"
       transform="matrix(0.26458333,0,0,0.26458333,0,87)" />
    <path
       style="opacity:1;fill:#ffffff;fill-opacity:1;fill-rule:nonzero;stroke:none;stroke-width:2.51338577;stroke-linecap:butt;stroke-linejoin:miter;stroke-miterlimit:4;stroke-dasharray:none;stroke-dashoffset:0;stroke-opacity:1;paint-order:stroke fill markers"
       d="m 39.944573,95.755979 c -0.217298,-0.59461 -1.807152,-7.420804 -2.288669,-9.826625 -0.665936,-3.327239 -1.246532,-8.57127 -1.243384,-11.230428 0.0031,-2.586099 0.292762,-3.790011 1.70369,-7.080053 l 1.046989,-2.441397 0.161767,-4.035115 c 0.146489,-3.65401 0.218201,-4.137341 0.759287,-5.117486 0.701917,-1.271482 1.894134,-2.147707 3.20812,-2.357821 0.517136,-0.0827 0.999387,-0.246044 1.07167,-0.362999 0.07228,-0.116956 -0.579416,-1.887799 -1.448219,-3.935203 -2.900017,-6.834123 -3.444956,-9.311236 -3.450625,-15.685403 -0.0038,-4.230235 0.04067,-4.724638 0.504593,-5.615214 1.046152,-2.008241 4.574993,-2.955266 7.005629,-1.88008 1.011909,0.447616 1.226314,0.695382 2.085656,2.41019 0.526792,1.051208 1.564968,3.559231 2.307057,5.573384 2.484038,6.742092 5.373792,13.616258 6.559683,15.604216 l 0.42455,0.711692 0.133892,-0.589622 c 0.260368,-1.146593 0.850557,-7.483935 1.112154,-11.94212 0.46451,-7.916283 0.7134,-10.893459 0.96629,-11.55861 0.538416,-1.416139 3.409665,-2.355289 5.728839,-1.87383 0.725925,0.150701 1.826902,0.60985 2.446615,1.020329 2.628467,1.741025 3.132818,3.786805 5.618007,22.78805 1.589027,12.149372 2.103613,15.292972 3.037264,18.55462 0.384369,1.342769 1.006857,3.649889 1.383305,5.126935 0.531319,2.084697 1.144261,3.586796 2.739624,6.713843 3.347937,6.562232 4.06166,8.806813 4.347316,13.671825 0.09067,1.544184 0.264894,2.999867 0.387167,3.234852 0.203642,0.391361 0.04203,0.427244 -1.924254,0.427244 H 82.18202 L 81.745612,92.040401 C 81.244577,87.424187 80.929043,86.180415 79.813161,84.423014 78.854663,82.913481 67.614082,69.494333 65.462864,67.29145 c -2.589996,-2.652202 -4.648714,-3.1196 -7.56924,-1.71848 -0.8728,0.418724 -2.885615,1.125233 -4.472922,1.570019 -3.1619,0.88601 -4.071969,1.344333 -4.071969,2.0507 0,1.026772 1.425347,1.607966 7.415256,3.023617 3.423015,0.808994 4.708535,1.581469 7.989529,4.800947 2.782212,2.730052 4.126394,4.566346 4.126394,5.637094 0,0.654969 -0.01274,0.659712 -2.249445,0.83674 -2.061836,0.163188 -2.30508,0.237592 -2.916471,0.892087 -1.007768,1.078822 -1.083932,2.28987 -0.345575,5.494814 0.662358,2.875056 0.797194,4.922863 0.375968,5.709935 -0.191037,0.356957 -0.514759,0.47223 -1.326146,0.47223 -0.910912,0 -1.15135,-0.10945 -1.588219,-0.722976 -0.674641,-0.947445 -1.335277,-2.90141 -1.832731,-5.420666 -0.561261,-2.842399 -0.826081,-3.586867 -1.38168,-3.884215 -0.968101,-0.51811 -1.895878,-0.003 -4.200346,2.332258 -2.306177,2.336949 -3.767522,3.301084 -5.003474,3.301084 -1.587729,0 -1.58275,-1.248226 0.0148,-3.711259 1.321267,-2.037067 2.142835,-3.69002 2.142835,-4.311278 0,-0.856865 -1.302386,-2.049468 -3.979899,-3.64442 -3.155014,-1.879393 -4.320852,-3.073871 -4.320852,-4.427001 0,-1.308318 0.202277,-1.728243 0.832489,-1.728243 1.215208,0 7.080974,3.27843 10.074385,5.630668 1.70876,1.342749 3.167545,2.181803 3.793302,2.181803 0.737277,0 1.193138,-0.990394 0.916694,-1.991591 -0.603498,-2.185691 -2.022619,-3.374602 -4.753135,-3.982086 -3.781418,-0.841286 -7.915223,-3.73992 -8.809274,-6.177084 -0.654509,-1.784181 -0.91602,-1.965035 -1.668048,-1.153582 -0.874712,0.943829 -1.798036,2.926141 -2.093168,4.49388 -0.341727,1.815257 -0.01533,4.946837 1.439941,13.815328 0.661023,4.028306 1.26743,7.79111 1.347571,8.361786 l 0.145712,1.037594 h -1.719525 c -1.153381,0 -1.756245,-0.100478 -1.831051,-0.305174 z M 60.8233,87.408602 c 0,-0.462045 -0.109862,-0.907981 -0.244139,-0.990969 -0.147444,-0.09112 -0.24414,0.241606 -0.24414,0.84008 0,0.545033 0.109863,0.990968 0.24414,0.990968 0.134277,0 0.244139,-0.378035 0.244139,-0.840079 z M 38.850724,82.755537 c 0,-0.604246 -0.109863,-1.098629 -0.24414,-1.098629 -0.134277,0 -0.24414,0.494383 -0.24414,1.098629 0,0.604246 0.109863,1.098629 0.24414,1.098629 0.134277,0 0.24414,-0.494383 0.24414,-1.098629 z M 74.114371,69.144747 C 73.375665,66.232726 72.64533,61.94737 70.962585,50.651161 68.256555,32.485648 67.636362,29.70835 65.99813,28.419717 c -0.851913,-0.670116 -1.337846,-0.511554 -1.546039,0.504482 -0.222499,1.085855 -0.625408,6.933396 -0.941918,13.670351 -0.625835,13.321033 -0.870722,15.808649 -1.639911,16.658594 -0.808298,0.893159 -2.602843,0.271074 -3.802191,-1.318039 -1.950565,-2.584461 -5.873714,-10.730635 -9.445507,-19.613001 -1.2419,-3.088367 -2.454773,-5.999734 -2.695274,-6.469703 -0.58736,-1.147775 -1.534871,-2.003266 -2.014778,-1.819109 -0.47102,0.180747 -1.052943,1.578508 -1.275754,3.064321 -0.56657,3.77816 3.140458,14.195901 7.244258,20.358306 1.594148,2.393825 5.07169,5.963653 6.538399,6.711912 0.94504,0.482122 1.598559,0.574373 5.025976,0.709468 3.849944,0.151745 3.960547,0.17119 4.855333,0.853678 0.503605,0.384117 2.18404,2.305485 3.734301,4.269706 2.369569,3.002306 4.415699,5.402356 4.605708,5.402356 0.02558,0 -0.211283,-1.016231 -0.526362,-2.258292 z M 49.592872,65.313955 c 0,-0.382818 -0.431374,-0.526273 -1.087401,-0.361622 -0.904328,0.226972 -0.760813,0.591353 0.232912,0.591353 0.469969,0 0.854489,-0.103379 0.854489,-0.229731 z m 1.342597,-2.311173 c 0.522945,-0.342648 0.577208,-0.483119 0.350361,-0.906987 -0.511517,-0.955778 -1.995206,-2.409867 -3.450549,-3.381706 -2.845381,-1.900074 -4.352428,-1.783158 -4.340078,0.336698 0.01303,2.236117 0.806738,3.986152 1.969303,4.342067 1.049991,0.321451 4.792256,0.05463 5.470963,-0.390072 z m 9.866848,-14.243704 c -0.01721,-1.552684 -0.06193,-1.760703 -0.249245,-1.159663 -0.205763,0.660227 -0.0717,3.051746 0.171069,3.051746 0.05454,0 0.08972,-0.851437 0.07818,-1.892083 z M 71.851593,37.162441 c 0.129309,-0.718038 -0.01922,-1.403804 -0.304044,-1.403804 -0.124433,0 -0.22624,0.439452 -0.22624,0.976559 0,1.044242 0.366056,1.33917 0.530284,0.427245 z m -9.965774,-6.467567 c -0.07672,-0.435225 -0.237316,-0.730864 -0.356869,-0.656976 -0.262267,0.162089 -0.29276,2.634292 -0.03567,2.891387 0.27164,0.271638 0.552491,-1.327047 0.392536,-2.234411 z M 45.137322,27.548148 c 0.83455,-0.223651 0.656187,-0.578541 -0.290766,-0.578541 -0.86163,0 -1.357406,0.349281 -0.809384,0.570223 0.429633,0.173211 0.483339,0.173617 1.10015,0.0083 z"
       id="path13358"
       inkscape:connector-curvature="0"
       transform="matrix(0.26458333,0,0,0.26458333,0,87)" />
    <path
       style="opacity:1;fill:#ffffff;fill-opacity:1;fill-rule:nonzero;stroke:none;stroke-width:2.51338577;stroke-linecap:butt;stroke-linejoin:miter;stroke-miterlimit:4;stroke-dasharray:none;stroke-dashoffset:0;stroke-opacity:1;paint-order:stroke fill markers"
       d="M 39.846001,95.500037 C 39.441547,94.436242 37.405415,84.946421 36.980591,82.145188 36.712483,80.377326 36.550466,77.845775 36.543098,75.309275 l -0.0117,-4.028306 0.825407,-1.953117 c 1.884609,-4.459457 1.810371,-4.147471 1.9752,-8.300752 0.206215,-5.196111 0.735542,-6.292841 3.485422,-7.221563 0.705267,-0.238192 1.316477,-0.598919 1.358245,-0.801618 0.04177,-0.202699 -0.582999,-1.94293 -1.388372,-3.867178 -2.747049,-6.563429 -3.30562,-9.144945 -3.317264,-15.331222 -0.0082,-4.330841 0.03627,-4.848906 0.491912,-5.737284 1.046456,-2.040292 4.635038,-2.969547 7.11677,-1.842871 0.873133,0.396391 1.158862,0.729817 1.919109,2.239467 0.491281,0.975553 1.768408,4.086913 2.838059,6.914133 3.44606,9.108354 6.184417,15.185169 6.544921,14.524134 0.288608,-0.529202 0.928913,-7.400573 1.340793,-14.388601 0.540964,-9.178076 0.593438,-9.463672 1.882891,-10.247835 2.898322,-1.762576 7.228729,-0.740404 8.892788,2.099101 1.21888,2.079861 1.86126,5.575961 3.986924,21.69849 1.565612,11.874715 1.963169,14.247988 3.052894,18.224714 0.491265,1.792772 1.161004,4.248349 1.488305,5.456841 0.378954,1.399201 1.312654,3.611413 2.570723,6.090798 3.27983,6.463846 3.96073,8.607423 4.269296,13.440381 0.0943,1.477046 0.263488,2.932729 0.375966,3.234852 0.202348,0.543523 0.181869,0.549314 -1.942867,0.549314 h -2.147372 l -0.426986,-3.93534 C 81.23899,87.654201 80.699756,85.627253 79.583059,84.077522 77.356204,80.987136 66.513658,68.304874 64.614458,66.569112 c -2.195309,-2.00639 -4.290642,-2.249648 -7.127402,-0.827453 -0.783463,0.392784 -2.687902,1.064368 -4.232085,1.492409 -3.234564,0.896605 -3.96918,1.285132 -3.86016,2.041579 0.122568,0.850449 1.744578,1.557382 5.76787,2.513853 5.140476,1.222064 6.073015,1.734423 9.703139,5.331124 2.926193,2.899252 4.014094,4.418148 4.014094,5.604357 0,0.570977 -0.08926,0.606765 -1.892083,0.758625 -2.339572,0.197072 -3.164786,0.50118 -3.583171,1.320471 -0.630408,1.234481 -0.633608,2.085786 -0.0189,5.026078 0.675705,3.232044 0.775041,5.1814 0.297328,5.834713 -0.488387,0.667908 -2.310187,0.456424 -2.895571,-0.336134 -0.607225,-0.822133 -1.304115,-2.880265 -1.777327,-5.249004 -0.567593,-2.841169 -1.047327,-4.001624 -1.724547,-4.171597 -0.831048,-0.208578 -1.466593,0.211374 -3.908607,2.58272 -1.208491,1.173519 -2.659798,2.368149 -3.225125,2.65473 -1.694117,0.858795 -3.000438,0.610801 -3.000438,-0.569613 0,-0.277604 0.707703,-1.694427 1.572673,-3.148496 1.806599,-3.037009 2.05869,-3.821593 1.50125,-4.672354 -0.394607,-0.602247 -2.008733,-1.762582 -4.694297,-3.374551 -2.1377,-1.283123 -3.262421,-2.595894 -3.262421,-3.807889 0,-1.331865 0.203214,-1.728243 0.886029,-1.728243 1.18898,0 6.912008,3.214031 10.244868,5.75348 2.142224,1.632252 3.33786,2.172304 4.011343,1.811868 1.066787,-0.570928 0.282577,-3.286189 -1.297089,-4.49106 -0.450758,-0.34381 -1.794997,-0.8803 -3.041592,-1.213912 -2.83131,-0.757707 -4.784806,-1.799454 -6.748418,-3.598746 -1.133441,-1.038595 -1.69899,-1.785206 -2.09921,-2.771284 -0.301291,-0.742334 -0.680687,-1.3497 -0.8431,-1.3497 -0.508139,0 -1.296408,1.034828 -2.104796,2.763144 l -0.778546,1.664516 0.128557,3.340349 c 0.09099,2.364161 0.484321,5.480778 1.345922,10.664541 0.66955,4.028306 1.291453,7.846041 1.382006,8.483856 l 0.164643,1.159664 h -1.72998 c -1.580192,0 -1.748451,-0.04858 -1.943316,-0.561116 z M 60.8233,87.394192 c 0,-0.469969 -0.109862,-0.854489 -0.244139,-0.854489 -0.134277,0 -0.24414,0.38452 -0.24414,0.854489 0,0.469969 0.109863,0.854489 0.24414,0.854489 0.134277,0 0.244139,-0.38452 0.244139,-0.854489 z M 38.850724,82.755537 c 0,-0.469969 -0.109863,-0.854489 -0.24414,-0.854489 -0.134277,0 -0.24414,0.38452 -0.24414,0.854489 0,0.469969 0.109863,0.854489 0.24414,0.854489 0.134277,0 0.24414,-0.38452 0.24414,-0.854489 z m 35.32089,-13.237928 c -0.634651,-2.285946 -1.498872,-7.325332 -3.214525,-18.744378 -2.816252,-18.74439 -3.413154,-21.35909 -5.133287,-22.486165 -0.805929,-0.528065 -1.239194,-0.166511 -1.429428,1.19284 -0.210177,1.501869 -0.591184,7.330644 -0.881196,13.480854 -0.603584,12.800056 -0.869579,15.437856 -1.642916,16.292384 -0.884731,0.977616 -2.670022,0.2353 -4.078984,-1.696029 -1.86737,-2.55969 -5.840118,-10.886507 -9.164096,-19.207802 -2.249208,-5.6307 -3.084922,-7.359557 -3.847505,-7.959406 -0.588567,-0.462966 -0.664374,-0.469924 -1.074647,-0.09863 -1.794009,1.623557 -1.139279,7.418187 1.610819,14.256394 2.278197,5.664808 4.812549,9.755826 8.08407,13.049518 2.755215,2.773884 3.385919,3.045126 7.452761,3.20514 4.264409,0.16779 4.695745,0.245697 5.60738,1.012787 0.422584,0.355582 2.09029,2.301276 3.706009,4.323766 3.284564,4.111477 4.119502,5.066815 4.284262,4.902057 0.06208,-0.06208 -0.06334,-0.747578 -0.278717,-1.523327 z M 49.457915,65.320398 c 0.0759,-0.122807 0.0041,-0.267909 -0.159482,-0.322448 -0.439548,-0.146515 -1.414539,0.08098 -1.414539,0.330058 0,0.285646 1.396953,0.278893 1.574021,-0.0076 z m 1.188435,-2.200944 c 1.051989,-0.399965 0.818243,-1.090856 -0.954132,-2.820146 -1.773302,-1.730199 -3.663721,-2.812234 -4.91324,-2.812234 -1.171006,0 -1.468052,0.757883 -1.111921,2.83696 0.3297,1.924776 0.795484,2.687639 1.837745,3.00986 0.921399,0.284857 4.18647,0.148681 5.141548,-0.21444 z M 60.757334,48.276243 c -0.05285,-0.506532 -0.09698,-0.151928 -0.09806,0.78801 -9.77e-4,0.939938 0.04216,1.354375 0.09609,0.920968 0.05393,-0.433404 0.05482,-1.202444 0.002,-1.708978 z M 71.809589,36.613126 c 0,-0.469969 -0.109863,-0.854489 -0.24414,-0.854489 -0.134277,0 -0.24414,0.38452 -0.24414,0.854489 0,0.469969 0.109863,0.854489 0.24414,0.854489 0.134277,0 0.24414,-0.38452 0.24414,-0.854489 z M 61.796122,31.425157 c -0.0027,-0.996431 -0.07242,-1.297533 -0.240402,-1.037594 -0.404091,0.625287 -0.283017,2.441397 0.16276,2.441397 0.04476,0 0.0797,-0.631711 0.07764,-1.403803 z M 45.320427,27.466931 c 0.448641,-0.184476 0.453552,-0.214949 0.06049,-0.375379 -0.235285,-0.09603 -0.723938,-0.100277 -1.085896,-0.0094 -0.516133,0.129541 -0.58185,0.213416 -0.304629,0.3888 0.419736,0.265546 0.676406,0.264776 1.330036,-0.004 z"
       id="path13360"
       inkscape:connector-curvature="0"
       transform="matrix(0.26458333,0,0,0.26458333,0,87)" />
    <path
       style="opacity:1;fill:#ffffff;fill-opacity:1;fill-rule:nonzero;stroke:none;stroke-width:2.51338577;stroke-linecap:butt;stroke-linejoin:miter;stroke-miterlimit:4;stroke-dasharray:none;stroke-dashoffset:0;stroke-opacity:1;paint-order:stroke fill markers"
       d="m 39.963376,95.839704 c -0.196709,-0.31828 -1.712606,-6.770491 -2.299682,-9.78828 -0.912166,-4.68887 -1.095428,-6.436056 -1.113937,-10.620079 l -0.01836,-4.150376 1.311124,-3.173816 1.311123,-3.173817 0.170591,-3.906236 c 0.144506,-3.308923 0.250966,-4.061367 0.696218,-4.920751 0.652038,-1.258504 1.439085,-1.891416 2.994461,-2.408028 0.663787,-0.220476 1.206885,-0.548458 1.206885,-0.728848 0,-0.180392 -0.607164,-1.77012 -1.349253,-3.532729 -2.894495,-6.874999 -3.393863,-9.186035 -3.403963,-15.753295 -0.0073,-4.738269 0.0099,-4.910741 0.579433,-5.826983 1.222268,-1.96621 4.775924,-2.746596 7.095799,-1.558244 1.252772,0.641731 1.81108,1.603523 3.578428,6.164529 4.456894,11.501931 6.772921,16.936772 7.376468,17.309786 0.157425,0.09729 0.319678,-0.06566 0.391431,-0.393124 0.331375,-1.512304 0.921935,-8.581964 1.36214,-16.306313 0.379169,-6.653346 0.609202,-7.450725 2.360529,-8.182476 3.003209,-1.254822 6.743989,-0.153491 8.258905,2.431522 1.248712,2.130761 1.877298,5.477157 3.900609,20.765548 1.628075,12.301938 2.118542,15.309793 3.045455,18.67669 0.38815,1.409907 0.994955,3.662096 1.348455,5.004865 0.453643,1.723168 1.388974,3.985593 3.179368,7.690402 2.909328,6.020193 3.665013,8.417242 3.908064,12.396476 0.08795,1.439965 0.251047,2.975172 0.362431,3.411572 l 0.202518,0.793454 h -2.152802 -2.1528 L 81.946178,94.29114 C 81.625244,90.886274 81.107968,87.595295 80.706017,86.401103 80.152906,84.757808 79.001289,83.20544 73.383172,76.529974 64.332375,65.775784 63.409463,64.93223 60.701231,64.938483 c -1.128245,0.0026 -1.837625,0.179022 -3.087183,0.767765 -0.892289,0.420412 -2.650095,1.053356 -3.906236,1.406543 -2.795964,0.786135 -4.04356,1.310696 -4.221754,1.775062 -0.411194,1.071551 1.083291,1.801317 6.151128,3.003629 4.594445,1.090001 5.725614,1.730351 9.243619,5.23276 2.914587,2.901664 3.999107,4.420912 3.999107,5.602138 0,0.563333 -0.102368,0.610356 -1.647943,0.757004 -2.579769,0.244772 -2.936455,0.357887 -3.594462,1.139881 -0.782915,0.930443 -0.822068,2.600205 -0.133953,5.712972 0.557489,2.521866 0.631243,4.710884 0.179536,5.328631 -0.488387,0.667908 -2.310187,0.456424 -2.895571,-0.336134 -0.630693,-0.853906 -1.36665,-3.060904 -1.924029,-5.769811 -0.52738,-2.563111 -0.764287,-3.136158 -1.447756,-3.501938 -0.770108,-0.412149 -1.590853,0.08676 -4.114287,2.500956 -1.301193,1.244866 -2.76693,2.453587 -3.257192,2.686045 -1.606189,0.761576 -2.89278,0.460547 -2.89278,-0.676839 0,-0.282455 0.668605,-1.64442 1.485789,-3.026586 0.817184,-1.382167 1.593779,-2.822814 1.725768,-3.201436 0.398584,-1.143379 -0.257404,-1.998594 -2.785238,-3.631129 -4.990665,-3.223089 -5.411834,-3.674267 -5.26756,-5.642861 0.07205,-0.983167 0.148658,-1.106514 0.728908,-1.17366 1.198414,-0.138683 5.927167,2.478084 10.796403,5.974444 1.858605,1.334573 2.320031,1.560309 3.062184,1.498066 0.869129,-0.07289 0.87375,-0.0794 0.859868,-1.210833 -0.01761,-1.435076 -0.961816,-2.94185 -2.244608,-3.581962 -0.503389,-0.251191 -1.683142,-0.645718 -2.621674,-0.876728 -3.60882,-0.888281 -7.571201,-3.745546 -8.640159,-6.230407 -0.285582,-0.663853 -0.635665,-1.278961 -0.777963,-1.366905 -0.42306,-0.261466 -1.157928,0.594749 -2.062733,2.403349 -0.778618,1.556364 -0.850758,1.883037 -0.850758,3.852515 0,2.584339 0.371309,5.50438 1.82829,14.378017 0.605763,3.689349 1.101387,6.847907 1.101387,7.019017 0,0.367367 -3.302471,0.451339 -3.526003,0.08966 z M 60.8233,87.530671 c 0,-0.394905 -0.109862,-0.78591 -0.244139,-0.868898 -0.145293,-0.08979 -0.24414,0.200915 -0.24414,0.71801 0,0.477894 0.109863,0.868898 0.24414,0.868898 0.134277,0 0.244139,-0.323104 0.244139,-0.71801 z M 38.850724,82.619058 c 0,-0.394905 -0.109863,-0.71801 -0.24414,-0.71801 -0.134277,0 -0.24414,0.391005 -0.24414,0.868898 0,0.517096 0.09885,0.807805 0.24414,0.718011 0.134277,-0.08299 0.24414,-0.473993 0.24414,-0.868899 z M 74.016627,68.937186 C 73.352291,66.138095 72.302636,59.926191 70.823613,50.040812 68.13728,32.086073 67.46532,29.222105 65.728258,28.323836 c -0.566189,-0.292787 -0.756181,-0.303704 -0.96234,-0.0553 -0.41025,0.49432 -0.81583,5.717577 -1.377798,17.743967 -0.437899,9.371285 -0.789162,12.435439 -1.517858,13.240638 -0.883957,0.976762 -2.664539,0.23748 -4.084932,-1.696029 -1.865721,-2.53971 -5.854519,-10.913598 -9.51124,-19.96743 -2.678631,-6.632139 -3.471818,-7.931988 -4.45989,-7.308728 -1.266106,0.798639 -1.366794,5.319744 -0.206258,9.261335 1.39559,4.739913 3.803103,10.076556 6.137031,13.603724 0.646928,0.977674 2.201663,2.837785 3.454965,4.133576 3.000611,3.10234 3.441766,3.288821 8.426553,3.562033 3.275835,0.179548 3.93033,0.282641 4.505411,0.709685 0.737424,0.547593 1.826522,1.807818 5.637916,6.523785 1.388035,1.717459 2.570912,3.075443 2.628614,3.01774 0.0577,-0.0577 -0.114111,-1.027745 -0.381805,-2.155649 z m -24.545824,-3.63764 c 0.08997,-0.145576 -0.205718,-0.24414 -0.73242,-0.24414 -0.526702,0 -0.82239,0.09856 -0.732419,0.24414 0.08299,0.134277 0.412576,0.24414 0.732419,0.24414 0.319843,0 0.649432,-0.109863 0.73242,-0.24414 z m 1.281733,-2.223203 c 0.302123,-0.113361 0.549315,-0.397354 0.549315,-0.631096 0,-0.632524 -3.36596,-3.799513 -4.69703,-4.419374 -2.401063,-1.11814 -3.296268,-0.559226 -2.99293,1.868614 0.231973,1.856646 0.922077,3.159862 1.77254,3.34732 0.367628,0.08103 0.778278,0.187504 0.912555,0.236603 0.382253,0.139775 3.844021,-0.172614 4.45555,-0.402067 z m 9.999295,-14.436488 c -0.0584,-0.303688 -0.108393,-0.112709 -0.111103,0.424398 -0.0027,0.537108 0.04507,0.785581 0.106176,0.552161 0.06111,-0.233419 0.06332,-0.672871 0.0049,-0.976559 z M 71.809589,36.598718 c 0,-0.517096 -0.09885,-0.807806 -0.24414,-0.718011 -0.134277,0.08299 -0.24414,0.473992 -0.24414,0.868898 0,0.394906 0.109863,0.71801 0.24414,0.71801 0.134277,0 0.24414,-0.391004 0.24414,-0.868897 z m -10.068155,-5.661841 -0.09086,-0.671384 -0.195966,0.671384 c -0.107781,0.369262 -0.107781,0.973508 0,1.342769 l 0.195966,0.671384 0.09086,-0.671384 c 0.04997,-0.369261 0.04997,-0.973507 0,-1.342769 z M 45.354803,27.457886 c 0.198358,0 0.292751,-0.109863 0.209764,-0.24414 -0.184639,-0.298752 -1.26446,-0.32422 -1.443793,-0.03405 -0.189061,0.305907 0.142687,0.558585 0.535484,0.407854 0.185842,-0.07131 0.500187,-0.129662 0.698545,-0.129662 z"
       id="path13362"
       inkscape:connector-curvature="0"
       transform="matrix(0.26458333,0,0,0.26458333,0,87)" />
    <path
       style="opacity:1;fill:#ffffff;fill-opacity:1;fill-rule:nonzero;stroke:none;stroke-width:2.51338577;stroke-linecap:butt;stroke-linejoin:miter;stroke-miterlimit:4;stroke-dasharray:none;stroke-dashoffset:0;stroke-opacity:1;paint-order:stroke fill markers"
       d="m 39.962018,95.837507 c -0.227151,-0.367538 -1.76903,-6.988713 -2.421026,-10.396433 -0.836806,-4.373648 -1.205815,-8.381549 -1.072306,-11.646603 0.108617,-2.656318 0.159504,-2.869772 1.384929,-5.809388 l 1.272168,-3.051747 0.121981,-3.295886 c 0.06709,-1.812738 0.239742,-3.833819 0.383674,-4.49129 0.346665,-1.583547 1.552008,-2.918974 3.027989,-3.354778 0.611646,-0.180598 1.221681,-0.460418 1.355634,-0.621822 0.169249,-0.203932 -0.106387,-1.135598 -0.903497,-3.053873 -3.132472,-7.538406 -3.63967,-9.824375 -3.645892,-16.432238 -0.0042,-4.455512 0.03848,-4.957569 0.487652,-5.737284 1.146025,-1.989366 4.856861,-2.838965 7.197802,-1.647943 1.373261,0.698688 1.837325,1.610969 5.122849,10.070765 2.772415,7.138607 5.258462,12.904548 5.734151,13.299336 0.242543,0.201293 0.35248,0.12437 0.465431,-0.325663 0.244835,-0.975499 0.842974,-7.944987 1.249626,-14.560582 0.46374,-7.544318 0.6376,-8.561873 1.601468,-9.372915 1.373511,-1.155733 4.619371,-1.388251 6.453417,-0.462293 3.611286,1.823237 3.935364,2.976553 6.708315,23.873243 1.610173,12.134097 1.97555,14.226184 3.452004,19.765559 1.459397,5.475375 1.896175,6.638933 4.30031,11.455849 2.297872,4.604017 3.191651,7.314378 3.509379,10.642113 0.134953,1.413452 0.331029,3.201624 0.435723,3.973716 l 0.190351,1.403803 H 84.26586 82.157571 L 81.635566,91.833495 C 80.8274,85.288255 81.046259,85.677214 72.390375,75.402859 66.790562,68.755996 64.247229,66.044101 63.020558,65.41205 c -1.407551,-0.725251 -3.423272,-0.56854 -5.737284,0.446041 -1.074215,0.47099 -3.041156,1.162027 -4.37098,1.535637 -5.280336,1.48349 -4.652676,2.651753 2.351087,4.376075 5.020548,1.236058 6.064512,1.817276 9.617424,5.354439 2.915966,2.903039 3.999107,4.420858 3.999107,5.604003 0,0.553094 -0.115129,0.614981 -1.403804,0.754597 -2.777648,0.300934 -3.186436,0.410387 -3.742205,1.001979 -0.800444,0.852033 -0.885173,2.809259 -0.244731,5.653358 0.564849,2.508409 0.666792,5.178192 0.214977,5.630007 -0.459148,0.459148 -2.252194,0.364459 -2.711616,-0.143198 -0.688979,-0.761313 -1.38172,-2.626868 -1.985696,-5.347483 -0.724208,-3.262203 -0.957174,-3.881251 -1.587602,-4.218647 -0.739944,-0.396007 -1.694648,0.196589 -4.271324,2.651257 -2.314361,2.204773 -3.510126,2.956523 -4.702771,2.956523 -1.580901,0 -1.666275,-0.95932 -0.293661,-3.299761 1.185022,-2.020579 2.048721,-3.702389 2.271894,-4.423878 0.249829,-0.807666 -0.85465,-1.912037 -3.881428,-3.881048 -1.477496,-0.961156 -3.048127,-2.119802 -3.490291,-2.574764 -0.738863,-0.760251 -0.798147,-0.936215 -0.73242,-2.173945 0.06902,-1.299738 0.09708,-1.349167 0.803935,-1.416388 0.966153,-0.09188 4.28987,1.617833 7.887317,4.057221 5.315087,3.604103 5.880287,3.875609 6.59017,3.165726 0.450029,-0.450028 0.352715,-1.200242 -0.3346,-2.579502 -0.759275,-1.523669 -1.554297,-2.05271 -4.138431,-2.753897 -4.014052,-1.089185 -7.522664,-3.596451 -8.927665,-6.379742 -0.394686,-0.781867 -0.825202,-1.421577 -0.956704,-1.421577 -0.398359,0 -1.659875,1.920945 -2.187341,3.330723 -0.865994,2.314576 -0.718511,4.452008 1.084139,15.712177 0.591154,3.692613 1.149062,7.235691 1.239796,7.873506 l 0.16497,1.159664 h -1.72229 c -0.94726,0 -1.78449,-0.100642 -1.860512,-0.223646 z M 60.8233,87.394192 c 0,-0.335692 -0.109862,-0.610349 -0.244139,-0.610349 -0.134277,0 -0.24414,0.274657 -0.24414,0.610349 0,0.335693 0.109863,0.61035 0.24414,0.61035 0.134277,0 0.244139,-0.274657 0.244139,-0.61035 z M 38.850724,82.755537 c 0,-0.335692 -0.109863,-0.610349 -0.24414,-0.610349 -0.134277,0 -0.24414,0.274657 -0.24414,0.610349 0,0.335692 0.109863,0.61035 0.24414,0.61035 0.134277,0 0.24414,-0.274658 0.24414,-0.61035 z M 74.089791,69.388887 C 73.245834,65.831819 72.663653,62.372594 70.463749,47.843554 68.329435,33.747694 67.544587,30.148913 66.315556,28.822767 65.660795,28.116269 64.857136,27.99392 64.637132,28.567243 64.36766,29.269478 64.009265,34.137853 63.505637,43.937319 62.715796,59.305781 62.587733,59.95531 60.416915,59.603036 59.294834,59.420947 58.388249,58.558945 57.02872,56.381463 55.654369,54.180243 51.758282,46.116874 50.013217,41.862131 49.26973,40.049393 48.093066,37.17298 47.398408,35.470101 c -2.10867,-5.169179 -3.138104,-6.317414 -4.064197,-4.533224 -1.43586,2.766298 -0.0706,9.354074 3.472641,16.756537 1.963584,4.102272 3.73575,6.775639 6.257632,9.439833 2.899662,3.063295 3.35552,3.278013 7.574777,3.56788 4.75279,0.326523 4.959928,0.369096 5.926983,1.21818 0.467339,0.41033 2.351427,2.602168 4.186859,4.870753 1.835436,2.268586 3.418506,4.1247 3.517937,4.1247 0.09943,0 0.01787,-0.686643 -0.181249,-1.525873 z M 49.348733,65.299546 c 0,-0.134277 -0.274658,-0.24414 -0.61035,-0.24414 -0.335692,0 -0.610349,0.109863 -0.610349,0.24414 0,0.134277 0.274657,0.24414 0.610349,0.24414 0.335692,0 0.61035,-0.109863 0.61035,-0.24414 z M 50.533,63.078404 c 0.440795,-0.153662 0.768851,-0.438827 0.768851,-0.668328 0,-0.62303 -3.354978,-3.695257 -4.739227,-4.339818 -2.112602,-0.983707 -2.957518,-0.715366 -2.940162,0.933786 0.01768,1.680357 0.330472,2.8107 0.996963,3.602777 0.610341,0.725349 0.665924,0.739607 2.883531,0.739607 1.243656,0 2.607176,-0.12061 3.030044,-0.268024 z M 60.745935,48.896407 c -0.07793,-0.194758 -0.135786,-0.136909 -0.147499,0.147502 -0.0106,0.257362 0.0471,0.401559 0.128227,0.320433 0.08113,-0.08113 0.0898,-0.291698 0.01926,-0.467935 z M 71.809589,36.735196 c 0,-0.40283 -0.109863,-0.732419 -0.24414,-0.732419 -0.271554,0 -0.336959,1.046499 -0.08138,1.302078 0.275822,0.275822 0.325519,0.18885 0.32552,-0.569659 z M 61.784383,31.547227 c -0.01311,-1.085054 -0.05198,-1.190346 -0.25338,-0.686173 -0.213268,0.53389 -0.09217,1.967906 0.166186,1.967906 0.05647,0 0.09571,-0.57678 0.08719,-1.281733 z M 45.442497,27.213746 c 0,-0.134277 -0.268174,-0.244139 -0.595941,-0.244139 -0.327768,0 -0.66384,0.109862 -0.746828,0.244139 -0.08803,0.142437 0.160225,0.24414 0.595941,0.24414 0.410755,0 0.746828,-0.109863 0.746828,-0.24414 z"
       id="path13364"
       inkscape:connector-curvature="0"
       transform="matrix(0.26458333,0,0,0.26458333,0,87)" />
    <path
       style="opacity:1;fill:#ffffff;fill-opacity:1;fill-rule:nonzero;stroke:none;stroke-width:2.51338577;stroke-linecap:butt;stroke-linejoin:miter;stroke-miterlimit:4;stroke-dasharray:none;stroke-dashoffset:0;stroke-opacity:1;paint-order:stroke fill markers"
       d="M 39.809224,95.403306 C 39.40528,94.340854 37.457266,85.431309 36.990492,82.511398 36.702794,80.711702 36.556271,78.376303 36.54629,75.431345 l -0.01489,-4.394515 1.271429,-2.999572 1.271429,-2.999569 0.153044,-3.470134 c 0.08417,-1.908572 0.304087,-4.021047 0.488695,-4.694387 0.41221,-1.503496 1.489553,-2.603304 3.163037,-3.22899 0.960005,-0.358929 1.203482,-0.557808 1.140086,-0.931254 -0.04434,-0.261169 -0.778823,-2.23266 -1.632191,-4.38109 -2.430056,-6.117883 -3.049049,-9.216815 -3.04656,-15.252329 0.0016,-3.854353 0.250996,-4.975252 1.334372,-5.997007 1.507142,-1.421418 4.769615,-1.805184 6.598808,-0.77622 1.22189,0.687342 2.032558,2.27272 4.646114,9.08615 3.170465,8.26527 5.791174,14.282174 6.22071,14.282174 0.114747,0 0.266597,-0.19226 0.337445,-0.427244 0.208731,-0.692305 0.832318,-8.009395 1.253586,-14.70942 0.433191,-6.889637 0.631494,-8.161145 1.400461,-8.979675 1.230018,-1.309292 4.712254,-1.592319 6.756961,-0.549187 3.585426,1.829148 3.766551,2.524795 7.089537,27.228994 1.216858,9.046529 1.689205,11.610761 3.080582,16.723572 1.395725,5.12878 1.641349,5.779232 4.240871,11.230428 2.907333,6.096672 3.224327,7.148214 3.653893,12.120852 0.140905,1.631086 0.323761,3.1417 0.406349,3.356922 0.130983,0.341334 -0.133799,0.391309 -2.073218,0.391309 -1.787723,0 -2.223378,-0.06993 -2.223378,-0.356871 0,-1.212278 -1.03628,-8.102722 -1.363589,-9.066789 -0.679563,-2.001604 -1.784705,-3.489765 -8.503236,-11.450288 -4.684814,-5.550849 -8.183093,-9.220101 -9.292324,-9.746463 -1.310801,-0.622017 -3.317778,-0.493778 -5.269357,0.336695 -0.93321,0.397115 -2.767391,1.045375 -4.075958,1.440576 -3.068351,0.926671 -3.551723,1.12224 -3.945014,1.596125 -0.750022,0.903722 0.768698,1.685252 5.730275,2.948785 4.637524,1.181009 5.905926,1.848592 8.873545,4.670306 3.134053,2.979964 4.662112,4.980082 4.662112,6.102358 0,0.456666 -0.02747,0.831135 -0.06104,0.832153 -1.076075,0.03267 -4.218073,0.538142 -4.593299,0.738957 -0.63386,0.339232 -1.20502,1.649559 -1.20502,2.764499 0,0.459501 0.219726,1.903341 0.48828,3.208534 0.549077,2.668562 0.63758,5.246187 0.195311,5.688456 -0.161132,0.161132 -0.757404,0.292967 -1.325049,0.292967 -0.818942,0 -1.134519,-0.130229 -1.528119,-0.63061 -0.693917,-0.882172 -1.351553,-2.746509 -1.960509,-5.557856 -0.674939,-3.115968 -1.036873,-3.821263 -1.960945,-3.821263 -0.789614,0 -1.424426,0.467281 -4.242292,3.122723 -1.968013,1.854576 -3.057884,2.492491 -4.258392,2.492491 -0.816436,0 -1.277736,-0.392635 -1.276415,-1.086422 5.13e-4,-0.275268 0.714204,-1.76391 1.585955,-3.308093 1.017251,-1.801918 1.585344,-3.082765 1.585955,-3.575771 0.0012,-0.94457 -0.770845,-1.665417 -4.100803,-3.829002 -1.302371,-0.846194 -2.73008,-1.901873 -3.172687,-2.345951 -0.745107,-0.747586 -0.799381,-0.909216 -0.732419,-2.181155 0.06869,-1.304682 0.106878,-1.3777 0.759762,-1.452538 1.031612,-0.118252 4.331551,1.623163 9.066665,4.784582 4.200339,2.804375 5.012025,3.132103 5.56552,2.247135 0.333218,-0.532774 -0.184854,-2.256044 -0.952513,-3.168355 -0.76966,-0.914689 -1.887925,-1.492336 -3.991174,-2.06167 -3.644854,-0.986632 -7.214966,-3.604908 -8.566729,-6.282738 -0.394686,-0.781867 -0.827256,-1.421577 -0.961268,-1.421577 -0.384462,0 -1.868276,2.47649 -2.330466,3.889551 -0.684651,2.093203 -0.380418,5.210753 1.839883,18.853697 0.407698,2.505162 0.74127,4.729885 0.74127,4.943829 0,0.318981 -0.308677,0.388993 -1.715021,0.388993 -1.637735,0 -1.726292,-0.02965 -1.965134,-0.657847 z M 60.8233,87.530671 c 0,-0.260629 -0.109862,-0.54177 -0.244139,-0.624758 -0.138467,-0.08558 -0.24414,0.119536 -0.24414,0.47387 0,0.343617 0.109863,0.624759 0.24414,0.624759 0.134277,0 0.244139,-0.213242 0.244139,-0.473871 z M 38.850724,82.619058 c 0,-0.260629 -0.109863,-0.47387 -0.24414,-0.47387 -0.134277,0 -0.24414,0.281142 -0.24414,0.624758 0,0.354335 0.105674,0.559447 0.24414,0.473871 0.134277,-0.08299 0.24414,-0.36413 0.24414,-0.624759 z M 73.540569,66.84672 C 73.13527,64.854421 71.968875,57.786145 70.948579,51.139441 68.138989,32.836435 67.600998,30.284847 66.251418,28.86169 c -0.725947,-0.765522 -1.427102,-0.871101 -1.621347,-0.24414 -0.253414,0.817939 -0.632734,6.10396 -1.125606,15.685978 -0.469515,9.127877 -0.791835,13.120888 -1.13785,14.096004 -0.305294,0.860358 -0.883564,1.2848 -1.75044,1.2848 -0.723909,0 -1.069095,-0.211884 -2.13058,-1.307808 -1.024525,-1.057765 -1.776348,-2.329735 -3.932271,-6.652808 -1.466058,-2.93975 -3.577447,-7.542258 -4.691976,-10.227795 -1.114529,-2.685537 -2.414989,-5.816629 -2.889912,-6.957983 -1.962543,-4.71646 -3.180412,-5.543499 -3.971238,-2.696814 -0.57164,2.057696 -0.03076,5.773319 1.476915,10.14573 2.383013,6.910998 5.816577,12.669786 9.695038,16.260557 2.096599,1.941079 2.711631,2.168283 6.605498,2.440167 4.545767,0.317406 4.812944,0.375096 5.816094,1.255876 0.482467,0.42361 2.210459,2.403258 3.839982,4.39922 1.629525,1.99596 3.127566,3.829332 3.328982,4.074158 0.201415,0.244826 0.399635,0.356737 0.440489,0.248695 0.04085,-0.108044 -0.257328,-1.826507 -0.662627,-3.818807 z M 49.226663,65.299546 c 0.08591,-0.139013 -0.124338,-0.24414 -0.48828,-0.24414 -0.363942,0 -0.574194,0.105127 -0.488279,0.24414 0.08299,0.134277 0.302713,0.24414 0.488279,0.24414 0.185566,0 0.405292,-0.109863 0.48828,-0.24414 z m 1.737797,-2.487655 c 0.371011,-0.371012 0.360417,-0.45638 -0.144669,-1.165706 -0.744699,-1.045834 -3.326762,-3.161402 -4.520248,-3.703588 -1.943157,-0.88275 -2.646518,-0.464383 -2.601197,1.547226 0.03812,1.692001 0.421762,2.764187 1.21251,3.38867 0.589624,0.465647 0.898779,0.507312 3.153493,0.424993 1.901839,-0.06944 2.59554,-0.187023 2.900111,-0.491595 z M 71.809589,36.598718 c 0,-0.354336 -0.105674,-0.559448 -0.24414,-0.473871 -0.134277,0.08299 -0.24414,0.364128 -0.24414,0.624758 0,0.260629 0.109863,0.473871 0.24414,0.473871 0.134277,0 0.24414,-0.281141 0.24414,-0.624758 z M 61.728016,31.058947 c -0.05819,-0.302123 -0.105802,-0.05493 -0.105802,0.549315 0,0.604245 0.04761,0.851437 0.105802,0.549314 0.05819,-0.302123 0.05819,-0.796506 0,-1.098629 z M 45.255151,27.172884 c -0.21073,-0.21073 -0.430232,-0.215035 -0.842283,-0.01652 -0.523356,0.252136 -0.506007,0.269485 0.285003,0.285003 0.642029,0.0126 0.774523,-0.05124 0.55728,-0.268479 z"
       id="path13366"
       inkscape:connector-curvature="0"
       transform="matrix(0.26458333,0,0,0.26458333,0,87)" />
    <path
       style="opacity:1;fill:#ffffff;fill-opacity:1;fill-rule:nonzero;stroke:none;stroke-width:2.51338577;stroke-linecap:butt;stroke-linejoin:miter;stroke-miterlimit:4;stroke-dasharray:none;stroke-dashoffset:0;stroke-opacity:1;paint-order:stroke fill markers"
       d="m 39.661656,95.020494 c -0.529342,-1.906132 -2.049642,-8.842543 -2.45968,-11.222352 -0.543307,-3.153291 -0.876296,-7.683614 -0.762208,-10.36988 0.09588,-2.257637 0.105567,-2.295721 1.375628,-5.410021 l 1.279065,-3.136377 0.129259,-3.23439 c 0.156671,-3.920302 0.344489,-4.965525 1.108834,-6.170772 0.502678,-0.792641 0.816202,-1.030712 2.161977,-1.64167 1.897679,-0.861512 1.89945,-0.442624 -0.02213,-5.234105 -1.674463,-4.175293 -2.458725,-6.891768 -2.853668,-9.884338 -0.353488,-2.678459 -0.398131,-8.10096 -0.07883,-9.575482 0.515476,-2.380482 3.0552,-3.772169 6.123953,-3.355731 2.592306,0.351784 2.725827,0.560594 6.437068,10.066758 3.443845,8.821244 5.640277,13.8379 6.058618,13.8379 0.08126,0 0.200076,-0.136384 0.26404,-0.303076 0.209128,-0.544977 0.688972,-5.967251 1.197922,-13.536612 0.542227,-8.064282 0.69894,-9.331467 1.245993,-10.075193 0.582821,-0.792351 2.239156,-1.35916 3.992162,-1.366143 1.827367,-0.0073 3.250318,0.468291 4.434818,1.482181 2.188929,1.873641 2.668458,3.949158 5.125526,22.1845 1.601366,11.884686 2.092687,14.881591 3.049663,18.601961 1.728387,6.71933 2.101998,7.757399 4.871712,13.535912 2.701723,5.636659 3.238163,7.44571 3.649597,12.307629 0.118606,1.401569 0.264355,2.746781 0.323887,2.98936 0.107308,0.437244 0.0896,0.441053 -2.050873,0.441053 H 82.10487 L 81.990812,95.020494 C 80.783187,85.161957 81.049724,85.781905 74.806143,78.309481 66.953215,68.910964 63.809122,65.634065 62.216883,65.188447 c -1.208934,-0.338343 -2.787373,-0.155071 -4.341899,0.504137 -0.655578,0.278003 -2.42691,0.897569 -3.936292,1.376817 -3.614778,1.147734 -4.410531,1.533465 -4.410531,2.137949 0,0.2735 0.189366,0.592131 0.455572,0.766556 0.675845,0.442831 3.027993,1.20829 6.013207,1.956877 4.531451,1.136325 5.60201,1.791955 9.507145,5.822332 2.615361,2.699239 3.509117,4.019329 3.394547,5.013786 -0.06756,0.586367 0.1401,0.520337 -3.171856,1.008583 -1.467491,0.216335 -1.988338,0.548746 -2.406005,1.535545 -0.382597,0.903941 -0.333056,2.004545 0.223078,4.955892 0.518408,2.751139 0.622718,4.678488 0.28714,5.305524 -0.168287,0.314446 -0.417807,0.379161 -1.461915,0.379161 h -1.258993 l -0.491994,-0.839524 c -0.693116,-1.182713 -1.040119,-2.226499 -1.694414,-5.096816 -0.641148,-2.812629 -0.96979,-3.589408 -1.649684,-3.899188 -0.669746,-0.305158 -1.686253,0.3519 -4.291974,2.774279 -2.313322,2.150554 -3.267719,2.754261 -4.427291,2.800503 -1.538876,0.06136 -1.769543,-0.877337 -0.695053,-2.828536 1.650362,-2.996944 2.452585,-4.702889 2.452585,-5.215475 0,-0.777198 -1.118047,-1.791538 -4.362545,-3.957895 -3.252616,-2.171775 -3.764109,-2.755359 -3.729007,-4.254573 0.02764,-1.180403 0.282542,-1.635809 0.911686,-1.628789 1.131975,0.01262 5.154473,2.191542 9.293639,5.034198 2.954756,2.029236 4.365399,2.71921 4.935551,2.414073 0.789221,-0.42238 0.325529,-2.540656 -0.823256,-3.760867 -0.661187,-0.702298 -1.702574,-1.208106 -3.552874,-1.725653 -2.137846,-0.597976 -3.103873,-1.041436 -4.962168,-2.277902 -1.875304,-1.247785 -3.018634,-2.459628 -3.866066,-4.097737 -0.334276,-0.646164 -0.750265,-1.201662 -0.92442,-1.234439 -0.385879,-0.07262 -1.388059,1.430271 -2.10337,3.154261 -0.890721,2.146749 -0.692056,4.963085 1.162512,16.480129 0.535976,3.328469 1.028691,6.570209 1.094922,7.203867 l 0.120419,1.152107 h -1.766306 -1.766306 z m 21.039851,-7.63512 c 0,-0.394201 -0.05667,-0.472599 -0.222052,-0.307212 -0.122128,0.122129 -0.169003,0.360297 -0.104165,0.529264 0.179446,0.46763 0.326217,0.367724 0.326217,-0.222052 z M 38.746863,82.708443 c 0,-0.284501 -0.08485,-0.449188 -0.196024,-0.380478 -0.107813,0.06663 -0.196024,0.292365 -0.196024,0.501628 0,0.209263 0.08821,0.380478 0.196024,0.380478 0.107813,0 0.196024,-0.225733 0.196024,-0.501628 z M 74.226129,70.419531 c -5.89e-4,-0.134767 -0.22344,-1.292968 -0.495301,-2.573782 -0.648456,-3.05504 -1.331046,-7.176995 -3.136409,-18.93981 -2.599867,-16.939403 -3.132387,-19.186756 -4.847441,-20.457306 -1.291203,-0.956552 -1.403105,-0.12793 -2.299408,17.026893 -0.581398,11.12771 -0.801148,13.050892 -1.580262,13.830005 -0.583178,0.583178 -1.7233,0.503242 -2.677118,-0.1877 -1.95095,-1.413262 -5.492017,-8.296766 -10.481166,-20.374416 -1.173239,-2.840157 -2.360868,-5.618792 -2.639175,-6.174744 -1.209322,-2.415762 -2.070784,-2.902499 -2.743102,-1.549886 -0.302205,0.607996 -0.36349,1.175676 -0.354466,3.283396 0.01259,2.940374 0.457413,4.960555 1.984874,9.014398 2.322052,6.162661 4.963838,10.516808 8.575502,14.133994 2.865685,2.870066 2.977569,2.915883 8.065593,3.302906 1.932583,0.147002 3.734315,0.354383 4.003847,0.460844 0.666712,0.263342 2.367583,2.090143 5.397363,5.796971 1.397876,1.710251 2.629353,3.231884 2.736615,3.381407 0.242646,0.33825 0.49139,0.351868 0.490054,0.02683 z M 49.103544,65.3962 c 0.210517,-0.133447 0.200968,-0.188957 -0.04901,-0.284881 -0.170759,-0.06553 -0.450183,-0.06553 -0.620942,0 -0.249974,0.09592 -0.259523,0.151434 -0.04901,0.284881 0.143806,0.09116 0.30557,0.165742 0.359477,0.165742 0.05391,0 0.215671,-0.07458 0.359477,-0.165742 z m 1.577995,-2.434386 c 0.26613,-0.129914 0.523576,-0.357831 0.572102,-0.506478 0.05038,-0.154329 -0.662688,-1.001441 -1.662237,-1.974706 -1.821842,-1.773939 -3.730312,-2.949652 -4.788003,-2.949652 -0.733222,0 -1.155948,0.648107 -1.155948,1.772252 0,1.90986 0.928919,3.738486 2.024314,3.98497 0.737562,0.165963 4.503844,-0.07941 5.009772,-0.326386 z M 71.729952,36.970199 c 0.05327,-0.203692 0.0208,-0.490376 -0.07215,-0.637077 -0.114898,-0.181346 -0.169957,-0.0628 -0.171997,0.370348 -0.0034,0.71321 0.09834,0.824311 0.244145,0.266729 z M 61.621444,31.316551 c -0.0497,-0.190725 -0.09363,-0.08214 -0.09763,0.241299 -0.004,0.323439 0.03667,0.479486 0.09037,0.346772 0.05369,-0.132714 0.05696,-0.397346 0.0073,-0.588071 z M 45.118033,27.414075 c 0.233468,-0.08959 0.259782,-0.166528 0.09235,-0.270009 -0.284366,-0.175748 -0.974854,-0.01841 -0.974854,0.222139 0,0.202983 0.419056,0.225714 0.882509,0.04787 z"
       id="path13965"
       inkscape:connector-curvature="0"
       transform="matrix(0.26458333,0,0,0.26458333,0,87)" />
    <path
       style="opacity:1;fill:#ffffff;fill-opacity:1;fill-rule:nonzero;stroke:none;stroke-width:2.51338577;stroke-linecap:butt;stroke-linejoin:miter;stroke-miterlimit:4;stroke-dasharray:none;stroke-dashoffset:0;stroke-opacity:1;paint-order:stroke fill markers"
       d="m 39.558041,94.628447 c -0.636454,-2.370338 -1.938183,-8.3392 -2.368213,-10.85905 -0.562756,-3.297578 -0.856698,-7.334429 -0.74726,-10.262494 l 0.09524,-2.548307 1.228117,-2.842343 1.228118,-2.842342 0.239737,-4.055811 c 0.222229,-3.759596 0.278738,-4.135522 0.773729,-5.147247 0.593998,-1.214088 1.317819,-1.844584 2.715395,-2.365291 1.589087,-0.592058 1.599232,-0.482373 -0.541623,-5.856294 -2.203729,-5.53175 -2.861127,-8.887643 -2.864987,-14.625217 -0.0024,-3.615782 0.224051,-4.870409 1.048758,-5.809699 1.15113,-1.311065 3.304735,-1.970551 5.348666,-1.637893 1.506276,0.245153 2.2343,0.715792 2.950249,1.907222 0.333292,0.55464 2.122734,4.810474 3.976537,9.457409 3.361232,8.425617 5.170203,12.548944 5.505423,12.548944 0.09728,0 0.222849,-0.154369 0.279039,-0.343041 0.23523,-0.78985 0.703878,-6.223261 1.297661,-15.044812 0.437432,-6.498768 0.612597,-7.803404 1.144864,-8.527028 0.943115,-1.282176 4.382251,-1.791861 6.569302,-0.973581 1.274689,0.476922 2.738959,1.712716 3.275488,2.764397 1.026021,2.011168 1.822245,6.422204 3.798951,21.045935 1.600703,11.842055 2.029531,14.358416 3.255919,19.105765 1.472312,5.699308 2.448147,8.279259 5.229594,13.826202 1.828126,3.645766 2.620577,6.501636 2.991613,10.781298 0.112164,1.293756 0.256122,2.638968 0.319902,2.98936 l 0.115968,0.637077 H 84.260262 82.09629 L 81.968424,94.82447 c -0.07033,-0.619925 -0.299963,-2.362084 -0.510302,-3.871466 -0.763083,-5.47583 -0.875489,-5.681305 -7.345703,-13.427617 -6.388352,-7.648311 -9.769085,-11.267532 -11.293324,-12.089998 -0.945514,-0.510192 -3.061551,-0.44869 -4.567883,0.132765 -0.646878,0.249699 -2.717373,0.97334 -4.6011,1.608094 -1.883728,0.634751 -3.585665,1.29953 -3.782084,1.477286 -0.568428,0.514421 -0.339395,1.054317 0.657703,1.550394 0.87097,0.433326 1.831429,0.725911 6.683551,2.036007 3.284671,0.886876 4.211785,1.489988 7.817382,5.085404 3.070722,3.062051 3.907835,4.211245 3.907835,5.364703 0,0.638418 0.01292,0.63316 -2.430681,0.988927 -2.17204,0.31623 -2.797841,0.650815 -3.176238,1.698179 -0.360554,0.997975 -0.325538,1.778451 0.215436,4.801878 0.539369,3.014457 0.623885,4.927699 0.240819,5.451574 -0.20223,0.276563 -0.492586,0.330611 -1.517628,0.282495 l -1.267554,-0.0595 -0.642873,-1.274153 c -0.374572,-0.742391 -0.961207,-2.554706 -1.405634,-4.342476 -0.827241,-3.327697 -1.00066,-3.775928 -1.581056,-4.086547 -0.748648,-0.400665 -1.575985,0.157167 -5.144409,3.468622 -1.528678,1.418593 -2.610981,2.029591 -3.669957,2.07182 -1.416482,0.05648 -1.757365,-0.842286 -0.917789,-2.419841 1.860827,-3.496473 2.675321,-5.198781 2.675321,-5.591467 0,-0.752272 -1.039593,-1.711277 -4.134975,-3.814437 -3.51011,-2.384949 -3.991845,-2.924416 -3.956577,-4.430734 0.02895,-1.236284 0.280475,-1.633443 1.034496,-1.633443 0.861708,0 4.821394,2.12726 8.522288,4.578427 4.003819,2.651798 4.398896,2.87047 5.186102,2.87047 0.472724,0 0.619601,-0.101726 0.719063,-0.498016 0.222379,-0.886022 -0.316239,-2.250845 -1.280822,-3.245527 -0.813276,-0.838654 -1.106662,-0.988696 -3.214819,-1.644105 -1.275928,-0.396675 -2.880212,-1.013299 -3.565075,-1.370274 -2.446033,-1.274961 -4.668441,-3.298216 -5.388333,-4.905483 -0.193157,-0.431252 -0.485162,-0.960515 -0.648899,-1.176141 -0.295815,-0.38956 -0.300798,-0.389141 -0.785374,0.06609 -0.268218,0.251977 -0.826643,1.125393 -1.240945,1.940926 -0.71602,1.409453 -0.756588,1.589122 -0.820247,3.632788 -0.08457,2.714939 0.106747,4.388917 1.54645,13.531149 0.641762,4.075246 1.16684,7.669829 1.16684,7.987962 v 0.578426 h -1.742738 -1.742738 z m 21.143466,-7.243073 c 0,-0.364043 -0.0632,-0.466064 -0.202449,-0.326814 -0.111348,0.111347 -0.146016,0.349516 -0.07704,0.529263 0.181574,0.47318 0.279488,0.402255 0.279489,-0.202449 z M 38.746863,82.680807 c 0,-0.394201 -0.05666,-0.472599 -0.222053,-0.307212 -0.122128,0.122129 -0.169002,0.360298 -0.104163,0.529264 0.179446,0.46763 0.326216,0.367725 0.326216,-0.222052 z M 73.761558,68.086646 C 72.965311,64.169998 72.549466,61.690037 70.989038,51.552258 68.15239,33.123147 67.598067,30.453429 66.310431,29.019272 c -0.856214,-0.953643 -1.322017,-0.976536 -1.621859,-0.07971 -0.284416,0.850691 -0.704244,6.520507 -1.24619,16.829998 -0.575085,10.939868 -0.785269,12.746164 -1.575074,13.535969 -0.583178,0.583178 -1.7233,0.503242 -2.677118,-0.1877 -1.923677,-1.393505 -5.667955,-8.635885 -10.366996,-20.052391 -2.307242,-5.605537 -3.077635,-7.289827 -3.718935,-8.130615 -1.845791,-2.419956 -2.907274,2.352066 -1.664698,7.483851 1.005094,4.150998 3.708309,10.439396 6.003444,13.965606 2.145897,3.296923 5.429675,6.805085 7.034183,7.514834 1.002383,0.443403 2.702121,0.708145 5.596484,0.87168 3.995473,0.225746 3.885821,0.153631 8.188242,5.385221 2.897768,3.523581 3.799794,4.543288 3.916089,4.426993 0.04162,-0.04162 -0.145777,-1.164986 -0.416445,-2.496364 z M 49.038102,65.371923 c 0.06992,-0.113126 -0.111713,-0.194754 -0.429484,-0.193023 -0.427548,0.0023 -0.484907,0.04548 -0.256598,0.193023 0.376617,0.243388 0.53566,0.243388 0.686082,0 z m 1.403837,-2.379449 c 1.106038,-0.335198 0.991672,-0.688417 -0.778179,-2.403378 -1.999497,-1.937488 -3.571083,-2.922289 -4.698664,-2.94432 -1.082621,-0.02115 -1.376592,0.496818 -1.238011,2.181343 0.152924,1.858862 0.992163,3.249126 2.076628,3.440097 0.73489,0.129408 3.930229,-0.05917 4.638226,-0.273742 z M 71.618648,36.413165 c -0.0497,-0.190725 -0.09363,-0.08214 -0.09763,0.241299 -0.004,0.323439 0.03667,0.479486 0.09037,0.346772 0.0537,-0.132715 0.05696,-0.397346 0.0073,-0.588071 z m -26.59903,-9.069823 c 0.228309,-0.147544 0.17095,-0.190691 -0.256598,-0.193022 -0.317771,-0.0017 -0.4994,0.0799 -0.429484,0.193022 0.150422,0.243389 0.309464,0.243389 0.686082,0 z"
       id="path13967"
       inkscape:connector-curvature="0"
       transform="matrix(0.26458333,0,0,0.26458333,0,87)" />
    <path
       style="opacity:1;fill:#ffffff;fill-opacity:1;fill-rule:nonzero;stroke:none;stroke-width:2.51338577;stroke-linecap:butt;stroke-linejoin:miter;stroke-miterlimit:4;stroke-dasharray:none;stroke-dashoffset:0;stroke-opacity:1;paint-order:stroke fill markers"
       d="M 39.713063,95.314529 C 39.252628,93.610086 37.974155,87.928924 37.496404,85.464343 36.69499,81.330079 36.512939,79.424838 36.503682,75.075091 l -0.0088,-4.116495 1.253306,-2.940355 1.253306,-2.940354 0.158763,-2.940354 c 0.228557,-4.232971 0.331422,-4.975669 0.844306,-6.095954 0.522846,-1.142047 1.345715,-1.849222 2.760745,-2.372589 1.269868,-0.469679 1.312049,-0.8195 0.387639,-3.214876 -3.332074,-8.63423 -3.832813,-10.850868 -3.851211,-17.048303 -0.01124,-3.785316 0.226106,-5.056865 1.130818,-6.058274 1.462949,-1.619309 4.630978,-2.174206 6.663218,-1.167097 1.328378,0.658299 1.78642,1.500677 4.401024,8.093871 3.943372,9.943924 6.309384,15.415723 6.665776,15.415723 0.353866,0 0.704452,-3.407616 1.457246,-14.164111 0.670194,-9.576269 0.702105,-9.722467 2.309663,-10.581348 0.717888,-0.38355 1.122022,-0.443575 2.986495,-0.443575 2.0178,0 2.222825,0.03688 3.192911,0.574316 0.570158,0.315873 1.374198,0.940509 1.786753,1.38808 1.718984,1.864877 2.157787,4.06417 5.115875,25.640884 1.219139,8.892574 1.705905,11.580938 2.935328,16.211545 1.307874,4.926097 1.859247,6.417625 4.310299,11.659857 2.844596,6.083935 3.19183,7.181903 3.638958,11.506544 0.159403,1.54175 0.343632,3.178074 0.4094,3.63628 l 0.119576,0.8331 h -2.178518 c -1.198185,0 -2.178516,-0.04073 -2.178516,-0.09051 0,-0.573034 -0.857431,-6.637675 -1.095772,-7.750431 C 80.382036,85.354813 79.595123,84.1106 74.835446,78.407493 68.205422,70.463307 64.244463,66.183319 62.86419,65.472034 c -1.028584,-0.530052 -2.937713,-0.453222 -4.724992,0.190151 -0.800896,0.288301 -2.837326,0.987018 -4.525399,1.552703 -3.287761,1.10175 -4.145174,1.529566 -4.048622,2.020101 0.153233,0.778504 1.652251,1.402451 6.301808,2.623045 1.599627,0.419932 3.307941,0.940243 3.796254,1.156247 1.539812,0.681132 3.213991,2.03133 5.762094,4.64704 2.748067,2.82098 3.569119,4.003004 3.47328,5.00029 -0.06878,0.715717 0.04086,0.674641 -3.083509,1.155243 -1.694028,0.260582 -2.220228,0.662917 -2.573882,1.967997 -0.241703,0.891949 -0.150285,1.893096 0.489818,5.364176 0.361274,1.959074 0.385628,4.026396 0.0528,4.481573 -0.202271,0.276622 -0.49267,0.330621 -1.519183,0.282495 l -1.26911,-0.0595 -0.63798,-1.274153 c -0.35495,-0.708896 -0.99225,-2.665557 -1.436543,-4.410532 -0.921037,-3.617386 -1.117392,-4.018484 -1.967225,-4.018484 -0.751186,0 -1.30426,0.390281 -3.951131,2.788148 -2.308287,2.091135 -3.302981,2.706629 -4.447939,2.752287 -0.907839,0.0362 -1.378846,-0.31193 -1.378846,-1.019136 0,-0.290023 0.705685,-1.911332 1.568189,-3.602912 0.862504,-1.69158 1.568189,-3.255098 1.568189,-3.474484 0,-0.605195 -1.42703,-1.868508 -4.380433,-3.877882 -3.217321,-2.188935 -3.747343,-2.796406 -3.726035,-4.270494 0.01749,-1.209726 0.292296,-1.645014 1.038545,-1.645014 0.884668,0 4.619244,2.011161 8.725301,4.698792 2.140822,1.40128 4.188355,2.603305 4.550076,2.671162 1.310906,0.245928 1.596377,-0.70001 0.733697,-2.431184 -0.758798,-1.522706 -1.548634,-2.058011 -4.375833,-2.965683 -4.214658,-1.353113 -7.217661,-3.508318 -8.728308,-6.264163 -0.42287,-0.771434 -0.863139,-1.373322 -0.978375,-1.337532 -0.115236,0.03579 -0.547067,0.567308 -0.959624,1.181148 -2.054791,3.057311 -2.039214,4.79305 0.168597,18.785758 0.589361,3.735265 1.071565,7.065216 1.071565,7.399891 V 96.14763 H 41.694777 39.93812 Z m 20.985443,-7.938956 c -0.0022,-0.39232 -0.05061,-0.463861 -0.177888,-0.262805 -0.09619,0.151942 -0.129505,0.394521 -0.07404,0.539065 0.159066,0.414515 0.255186,0.309112 0.251926,-0.27626 z M 38.746863,82.778819 c 0,-0.31666 -0.05797,-0.373286 -0.218149,-0.213103 -0.119981,0.11998 -0.158881,0.314044 -0.08644,0.431252 0.202765,0.328081 0.304592,0.255152 0.304592,-0.218149 z M 73.832676,68.594582 C 73.171245,65.379979 72.343702,60.440125 70.895585,51.062199 68.414571,34.995298 67.686356,31.296758 66.658616,29.543051 c -0.571002,-0.97434 -1.28057,-1.40702 -1.715485,-1.046071 -0.478522,0.397136 -0.691987,2.814472 -1.395461,15.802405 -0.672389,12.414036 -0.872146,14.197931 -1.680362,15.006146 -0.583178,0.583178 -1.7233,0.503242 -2.677118,-0.1877 -1.982378,-1.436028 -5.418466,-8.124852 -10.733972,-20.895178 -1.256527,-3.018764 -2.565848,-5.959679 -2.909603,-6.535367 -0.969462,-1.623564 -1.671801,-1.799597 -2.193961,-0.549891 -0.671681,1.607558 -0.549366,4.795226 0.309875,8.075712 1.035629,3.953921 3.833566,10.230606 6.024666,13.515293 1.530588,2.294511 4.146913,5.250247 5.665501,6.400475 1.439132,1.090044 2.113655,1.261572 6.087499,1.548022 1.588261,0.114487 3.25744,0.3015 3.709284,0.415581 1.01453,0.25615 2.345034,1.609105 6.201607,6.30625 1.490632,1.815528 2.7484,3.2628 2.795037,3.216162 0.04664,-0.04664 -0.09441,-0.955778 -0.313447,-2.020308 z M 48.989096,65.2421 c -0.134766,-0.05438 -0.355292,-0.05438 -0.490059,0 -0.134766,0.05438 -0.0245,0.09887 0.24503,0.09887 0.269532,0 0.379796,-0.04449 0.245029,-0.09887 z m 1.372166,-2.232768 c 0.960412,-0.266719 0.950546,-0.669842 -0.04405,-1.799757 -1.762368,-2.002156 -4.765708,-3.853993 -5.821433,-3.589451 -1.252602,0.313875 -0.905267,4.121436 0.47501,5.207161 0.422003,0.331947 0.796081,0.388219 2.574561,0.387284 1.14445,-5.88e-4 2.411608,-0.09296 2.815907,-0.205237 z M 71.616711,36.519698 c -0.06257,-0.156375 -0.109024,-0.109926 -0.118429,0.118431 -0.0085,0.206641 0.03782,0.322417 0.102955,0.257281 0.06514,-0.06514 0.0721,-0.234208 0.01547,-0.375712 z M 45.019618,27.343342 c 0.237769,-0.153657 0.209635,-0.190594 -0.147018,-0.193022 -0.242579,-0.0017 -0.441053,0.08521 -0.441053,0.193022 0,0.245603 0.208029,0.245603 0.588071,0 z"
       id="path13969"
       inkscape:connector-curvature="0"
       transform="matrix(0.26458333,0,0,0.26458333,0,87)" />
    <path
       style="opacity:1;fill:#ffffff;fill-opacity:1;fill-rule:nonzero;stroke:none;stroke-width:2.51338577;stroke-linecap:butt;stroke-linejoin:miter;stroke-miterlimit:4;stroke-dasharray:none;stroke-dashoffset:0;stroke-opacity:1;paint-order:stroke fill markers"
       d="M 39.74089,95.412541 C 38.681262,91.463155 37.168555,84.255757 36.768385,81.249835 36.632032,80.225612 36.514198,77.491082 36.506531,75.173103 l -0.01394,-4.214507 1.24853,-2.935479 1.248529,-2.935481 0.166614,-3.04324 c 0.220968,-4.036032 0.326177,-4.818021 0.794774,-5.907302 0.496843,-1.154944 0.966423,-1.596097 2.540675,-2.386868 0.883969,-0.444031 1.271526,-0.754515 1.314015,-1.052696 0.03314,-0.232605 -0.552934,-1.996818 -1.302396,-3.920472 -2.303807,-5.913216 -2.873564,-8.249366 -3.154362,-12.933706 -0.191063,-3.187367 -0.0018,-6.52412 0.42662,-7.519892 0.390988,-0.908851 1.203377,-1.646071 2.401686,-2.179464 1.32424,-0.589447 3.540325,-0.605638 4.820641,-0.03522 1.484425,0.661355 1.70926,1.085413 5.122652,9.661765 3.884863,9.760954 5.623726,13.723469 6.022244,13.723469 0.099,0 0.226534,-0.154368 0.283419,-0.343041 0.165226,-0.54801 0.655904,-6.240545 1.203884,-13.966682 0.279105,-3.935174 0.59513,-7.55181 0.702277,-8.036968 0.263473,-1.193003 0.615226,-1.678137 1.597127,-2.202744 0.717888,-0.38355 1.122022,-0.443575 2.986495,-0.443575 2.0178,0 2.222825,0.03688 3.192911,0.574316 2.082364,1.153651 3.001419,2.663957 3.779325,6.210658 0.573785,2.616056 1.046498,5.699139 2.626438,17.129906 1.556575,11.261714 2.123045,14.665464 3.066599,18.42622 1.441378,5.74496 2.287735,8.105302 4.765895,13.291249 2.651421,5.548521 3.120921,7.092421 3.647927,11.995796 0.208577,1.940634 0.380638,3.594583 0.382359,3.675443 0.0018,0.08086 -0.967186,0.147018 -2.153129,0.147018 -1.185943,0 -2.156259,-0.04245 -2.156259,-0.09433 0,-0.627471 -1.049834,-7.548508 -1.276395,-8.414625 -0.67111,-2.565608 -2.01948,-4.444718 -9.30888,-12.973013 -4.373903,-5.117282 -7.617264,-8.474857 -8.654664,-8.959429 -1.4886,-0.695332 -2.774093,-0.489979 -7.821848,1.249511 -4.718227,1.625933 -5.478133,1.960073 -5.478133,2.408801 0,0.740553 1.221642,1.26494 5.987608,2.570169 3.853393,1.055307 4.963592,1.518944 6.510862,2.71904 1.589471,1.232827 5.56864,5.332538 6.296697,6.48744 0.58293,0.924693 0.813216,2.116893 0.452021,2.340122 -0.08753,0.0541 -1.020534,0.236971 -2.073334,0.406385 -2.229955,0.358835 -2.923341,0.664637 -3.220603,1.420379 -0.446397,1.134886 -0.437137,1.975077 0.05295,4.804766 0.548672,3.167943 0.636704,5.184203 0.249471,5.713777 -0.202271,0.276622 -0.49267,0.330621 -1.519183,0.282495 l -1.26911,-0.0595 -0.635014,-1.274153 c -0.349257,-0.700785 -0.980426,-2.597313 -1.402598,-4.214508 -0.917191,-3.513447 -1.117735,-3.991176 -1.741127,-4.147638 -0.740844,-0.18594 -1.518801,0.309402 -4.01555,2.556781 -2.485448,2.237206 -3.550944,2.906922 -4.671571,2.936306 -0.874506,0.02293 -1.353804,-0.341677 -1.353804,-1.029851 0,-0.285177 0.705685,-1.915825 1.568189,-3.623659 0.862504,-1.707834 1.568189,-3.245645 1.568189,-3.417354 0,-0.500839 -2.09592,-2.375485 -4.315457,-3.85986 -2.604932,-1.742119 -3.446816,-2.500065 -3.729996,-3.35811 -0.236131,-0.715484 -0.108643,-1.946359 0.246052,-2.375581 0.661535,-0.800533 3.60285,0.588714 9.661625,4.563399 3.037811,1.992868 4.20789,2.640469 4.770768,2.640469 1.562806,0 0.530983,-3.282082 -1.37415,-4.370977 -0.466571,-0.266673 -1.822691,-0.804964 -3.0136,-1.196205 -3.813947,-1.252967 -6.998752,-3.545266 -8.289069,-5.966149 -0.885405,-1.661189 -1.048424,-1.749832 -1.68446,-0.915946 -0.289481,0.379529 -0.804897,1.284982 -1.14537,2.012116 -0.519031,1.108474 -0.631784,1.612284 -0.697917,3.118457 -0.10029,2.284138 0.109684,4.111685 1.543773,13.436491 0.641836,4.173382 1.166974,7.856176 1.166974,8.183986 v 0.596021 H 41.69477 39.938113 Z m 20.894416,-8.13498 c -0.05438,-0.134766 -0.09887,-0.0245 -0.09887,0.24503 0,0.269532 0.04449,0.379795 0.09887,0.245029 0.05438,-0.134766 0.05438,-0.355293 0,-0.490059 z M 38.746863,82.778819 c 0,-0.31666 -0.05797,-0.373286 -0.218149,-0.213103 -0.119981,0.11998 -0.158881,0.314044 -0.08644,0.431252 0.202765,0.328081 0.304592,0.255152 0.304592,-0.218149 z M 74.116839,70.125495 C 73.366196,66.626535 72.36922,60.730221 70.694657,49.886058 67.972464,32.257637 67.329165,29.489646 65.736195,28.550778 c -1.22828,-0.723927 -1.305756,-0.16018 -2.191264,15.94463 -0.684122,12.442168 -0.859702,13.992203 -1.677623,14.810123 -0.500234,0.500235 -1.660412,0.496985 -2.486947,-0.007 -1.923717,-1.172923 -5.412198,-7.865075 -10.757759,-20.637219 -1.117344,-2.66967 -2.306226,-5.404199 -2.64196,-6.076732 -0.652313,-1.306703 -1.46262,-2.300925 -1.875285,-2.300925 -0.459873,0 -0.8822,0.944612 -1.061792,2.37489 -0.45874,3.653423 1.008644,9.174076 4.140761,15.578546 1.916231,3.918258 4.084558,6.974664 6.911987,9.742925 2.114221,2.069978 2.783296,2.318771 7.193265,2.674795 4.393975,0.354732 4.239181,0.313516 5.445936,1.450041 0.591436,0.557017 2.442483,2.666707 4.113435,4.688201 1.670953,2.021493 3.106359,3.675443 3.189791,3.675443 0.08343,0 0.118576,-0.154369 0.0781,-0.343042 z M 50.193281,63.045454 c 0.928239,-0.202677 1.050469,-0.642817 0.411251,-1.480874 -0.716322,-0.939146 -2.813414,-2.676571 -3.982495,-3.299468 -1.351302,-0.719987 -1.87302,-0.797318 -2.41542,-0.358027 -0.402648,0.326105 -0.457895,0.531104 -0.435475,1.615885 0.02902,1.404304 0.40852,2.478509 1.130768,3.200758 0.467965,0.467965 0.595048,0.490804 2.608099,0.468743 1.16389,-0.01276 2.371363,-0.07891 2.683272,-0.147017 z M 44.966529,27.224911 c -0.06514,-0.06514 -0.234208,-0.0721 -0.375712,-0.01548 -0.156375,0.06258 -0.109926,0.109025 0.118431,0.118431 0.206641,0.0085 0.322417,-0.03782 0.257281,-0.102955 z"
       id="path13971"
       inkscape:connector-curvature="0"
       transform="matrix(0.26458333,0,0,0.26458333,0,87)" />
  </g>
</svg>
