<?xml version="1.0" encoding="UTF-8" standalone="no"?>
<!-- Created with Inkscape (http://www.inkscape.org/) -->

<svg
   xmlns:dc="http://purl.org/dc/elements/1.1/"
   xmlns:cc="http://creativecommons.org/ns#"
   xmlns:rdf="http://www.w3.org/1999/02/22-rdf-syntax-ns#"
   xmlns:svg="http://www.w3.org/2000/svg"
   xmlns="http://www.w3.org/2000/svg"
   xmlns:sodipodi="http://sodipodi.sourceforge.net/DTD/sodipodi-0.dtd"
   xmlns:inkscape="http://www.inkscape.org/namespaces/inkscape"
   width="297mm"
   height="210mm"
   viewBox="0 0 297 210"
   version="1.1"
   id="svg1549"
   sodipodi:docname="W.svg"
   inkscape:version="0.92.2 (5c3e80d, 2017-08-06)">
  <defs
     id="defs1543">
    <inkscape:path-effect
       effect="spiro"
       id="path-effect14556"
       is_visible="true" />
  </defs>
  <sodipodi:namedview
     id="base"
     pagecolor="#ffffff"
     bordercolor="#666666"
     borderopacity="1.0"
     inkscape:pageopacity="0.0"
     inkscape:pageshadow="2"
     inkscape:zoom="10.131519"
     inkscape:cx="73.51071"
     inkscape:cy="755.1318"
     inkscape:document-units="mm"
     inkscape:current-layer="layer1"
     showgrid="false"
     inkscape:window-width="1366"
     inkscape:window-height="705"
     inkscape:window-x="-8"
     inkscape:window-y="-8"
     inkscape:window-maximized="1" />
  <metadata
     id="metadata1546">
    <rdf:RDF>
      <cc:Work
         rdf:about="">
        <dc:format>image/svg+xml</dc:format>
        <dc:type
           rdf:resource="http://purl.org/dc/dcmitype/StillImage" />
        <dc:title />
      </cc:Work>
    </rdf:RDF>
  </metadata>
  <g
     inkscape:label="Capa 1"
     inkscape:groupmode="layer"
     id="layer1"
     transform="translate(0,-87)">
    <path
       style="opacity:1;fill:#216778;fill-opacity:1;fill-rule:nonzero;stroke:none;stroke-width:0.66499996;stroke-linecap:butt;stroke-linejoin:miter;stroke-miterlimit:4;stroke-dasharray:none;stroke-dashoffset:0;stroke-opacity:1;paint-order:stroke fill markers"
       d="m 1.9154429,92.496228 c -0.134945,-0.0534 -0.349308,-0.2787 -0.42278,-0.44429 -0.305753,-0.68907 -1.27229401,-4.08078 -1.28358901,-4.50426 -0.0044,-0.16652 -2.65e-4,-0.17409 0.118869,-0.2178 0.191064,-0.0701 0.69765901,-0.0634 0.84573301,0.0111 0.252351,0.12702 0.392734,0.46384 0.727736,1.74604 0.09503,0.36372 0.181909,0.66138 0.193069,0.66146 0.01116,8e-5 0.142542,-0.40757 0.291963,-0.90589 0.311539,-1.039 0.407691,-1.27532 0.58067,-1.4272 0.122568,-0.10761 0.127619,-0.10868 0.448223,-0.0947 0.618045,0.027 0.795422,0.20186 1.062918,1.04764 0.376182,1.18942 0.508418,1.1675 0.824675,-0.13669 0.144936,-0.59768 0.238628,-0.78438 0.443357,-0.88349 0.138499,-0.067 0.20407,-0.0753 0.504431,-0.0632 0.242657,0.01 0.3716702,0.0312 0.4341892,0.0721 0.08512,0.0558 0.08761,0.0671 0.05777,0.26356 -0.08108,0.53382 -0.4834792,1.99761 -0.8942892,3.25312 -0.39787,1.21596 -0.507992,1.42449 -0.813975,1.54134 -0.204039,0.0779 -0.356399,0.025 -0.545206,-0.18954 -0.289875,-0.32931 -0.456753,-0.78142 -0.761172,-2.06215 -0.114099,-0.48005 -0.217122,-0.87295 -0.228938,-0.87313 -0.01183,-1.7e-4 -0.119872,0.38967 -0.240128,0.86633 -0.325305,1.28942 -0.529866,1.83174 -0.806577,2.1384 -0.124005,0.13742 -0.303197,0.24323 -0.403527,0.23827 -0.02487,-0.001 -0.08492,-0.0179 -0.133424,-0.0372 z"
       id="path2678"
       inkscape:connector-curvature="0" />
    <path
       style="opacity:1;fill:#216778;fill-opacity:1;fill-rule:nonzero;stroke:none;stroke-width:0.66499996;stroke-linecap:butt;stroke-linejoin:miter;stroke-miterlimit:4;stroke-dasharray:none;stroke-dashoffset:0;stroke-opacity:1;paint-order:stroke fill markers"
       d="m 13.529287,112.92804 c 0.09624,-0.17984 0.0021,-0.57929 -0.284457,-1.20775 -0.629838,-1.38102 -1.515403,-4.90143 -1.573858,-6.25659 -0.0231,-0.53523 0.0145,-0.71294 0.226116,-1.069 0.162639,-0.27366 0.586097,-0.73566 0.812908,-0.88689 0.142825,-0.0952 0.188548,-0.10852 0.308764,-0.0897 0.343929,0.0537 0.780825,0.46204 1.003191,0.93761 0.0763,0.16319 0.120796,0.33676 0.157742,0.61536 0.07271,0.54823 0.20261,0.835 0.599276,1.32292 0.08676,0.10671 0.169069,0.24014 0.182917,0.2965 0.025,0.10174 0.02424,0.10232 -0.106598,0.0811 -0.198583,-0.0322 -0.583141,-0.28996 -1.125154,-0.75408 -0.570531,-0.48854 -1.041709,-0.83477 -1.241927,-0.91259 -0.192154,-0.0747 -0.318276,-0.0266 -0.391819,0.14944 -0.151114,0.36166 0.226216,1.06476 0.875935,1.63218 0.613592,0.53587 1.240893,0.90947 1.744861,1.03917 0.280191,0.0721 0.790535,0.0721 1.038018,-7e-5 0.105387,-0.0307 0.339291,-0.13491 0.51979,-0.23154 0.361937,-0.19375 0.5167,-0.21955 0.711801,-0.11866 0.169061,0.0874 0.615624,0.54588 0.707895,0.72675 0.106291,0.20834 0.101142,0.50274 -0.01783,1.01987 -0.316492,1.37564 -0.364646,2.03333 -0.190365,2.60012 0.109696,0.35675 0.316788,0.5396 0.611135,0.5396 0.261268,0 0.31969,-0.17943 0.350329,-1.07597 0.03686,-1.07858 0.247579,-1.53458 0.709139,-1.53458 0.07174,0 0.180618,-0.0238 0.24194,-0.0529 0.40594,-0.19263 0.226949,-0.84103 -0.545348,-1.97557 -0.602959,-0.88576 -1.106559,-1.23943 -2.130732,-1.49635 -0.519293,-0.13027 -0.743916,-0.24416 -0.9896,-0.50173 -0.326723,-0.34254 -0.437515,-0.72199 -0.316865,-1.08523 0.07356,-0.22147 0.178038,-0.30262 0.343683,-0.26696 0.06385,0.0138 0.385964,0.14885 0.715809,0.30022 0.622208,0.28555 1.324809,0.54212 1.78153,0.65056 0.324159,0.077 0.547198,0.17855 0.906216,0.41272 1.153872,0.75262 2.676491,2.25398 3.141888,3.09802 0.230356,0.41778 0.29542,0.97 0.316428,2.68567 l 0.01712,1.39803 -1.987979,0.0211 c -1.093388,0.0116 -3.151272,0.0292 -4.573077,0.0391 -2.54186,0.0177 -2.584492,0.0169 -2.548818,-0.0498 z"
       id="path2680"
       inkscape:connector-curvature="0" />
    <path
       style="opacity:1;fill:#216778;fill-opacity:1;fill-rule:nonzero;stroke:none;stroke-width:0.66499996;stroke-linecap:butt;stroke-linejoin:miter;stroke-miterlimit:4;stroke-dasharray:none;stroke-dashoffset:0;stroke-opacity:1;paint-order:stroke fill markers"
       d="m 23.79612,112.62826 c 0,-0.0194 -0.03199,-0.57545 -0.07109,-1.23569 -0.139017,-2.34748 -0.243676,-2.9049 -0.712221,-3.79334 -0.117674,-0.22313 -0.314495,-0.59718 -0.437375,-0.83122 -0.818645,-1.5592 -1.034103,-2.89376 -1.090308,-6.7535 -0.03562,-2.44593 -0.116393,-4.045652 -0.231339,-4.581622 -0.02101,-0.0979 -0.06979,-0.21821 -0.108431,-0.26733 -0.166611,-0.21181 -0.903497,-0.28124 -1.394767,-0.13142 -0.910061,0.27755 -1.1639,1.26507 -1.280197,4.980372 -0.05876,1.87713 -0.06446,1.98821 -0.108305,2.10945 -0.04952,0.13693 -0.107254,0.13191 -0.14637,-0.0127 -0.06804,-0.2516 -0.106836,-1.46056 -0.08539,-2.66117 0.02373,-1.32886 -0.01334,-2.421452 -0.104264,-3.073422 -0.09606,-0.68871 -0.198747,-1.02158 -0.502021,-1.62734 -0.0073,-0.0145 1.948638,-0.0265 4.346499,-0.0265 h 4.359746 v 8.887192 8.88719 l -0.220486,0.0213 c -0.670493,0.0649 -2.213681,0.1414 -2.213681,0.10969 z"
       id="path2682"
       inkscape:connector-curvature="0" />
    <path
       style="opacity:1;fill:#216778;fill-opacity:1;fill-rule:nonzero;stroke:none;stroke-width:0.66499996;stroke-linecap:butt;stroke-linejoin:miter;stroke-miterlimit:4;stroke-dasharray:none;stroke-dashoffset:0;stroke-opacity:1;paint-order:stroke fill markers"
       d="m 20.30167,104.86334 c -0.341471,-0.32528 -0.500547,-0.39996 -0.940554,-0.44159 -1.035063,-0.0979 -2.348391,-0.70017 -2.70801,-1.24179 -0.34512,-0.51979 -0.485884,-2.05546 -0.489025,-5.33503 -0.0016,-1.591572 0.02437,-2.225172 0.103873,-2.541952 0.04645,-0.18505 0.292545,-0.0526 0.440293,0.23706 0.245743,0.48169 0.424294,1.59201 0.614598,3.821832 0.220636,2.58521 0.311076,3.21317 0.509088,3.53468 0.111503,0.18105 0.232873,0.2404 0.485658,0.23747 0.183738,-0.002 0.237935,-0.0173 0.315016,-0.0882 0.24892,-0.22895 0.28172,-0.40578 0.683379,-3.68396 0.253807,-2.071482 0.481618,-3.032212 0.762667,-3.216362 0.08202,-0.0537 0.101907,-0.0547 0.183549,-0.009 0.264607,0.14851 0.292402,0.89489 0.181729,4.879842 -0.03649,1.31389 -0.0019,2.87737 0.07247,3.27605 0.02088,0.11189 0.07663,0.28652 0.123907,0.38806 0.04727,0.10154 0.08611,0.24415 0.0863,0.31691 5.3e-4,0.20634 -0.101219,0.17422 -0.424939,-0.13416 z"
       id="path2684"
       inkscape:connector-curvature="0" />
    <path
       style="opacity:1;fill:#216778;fill-opacity:1;fill-rule:nonzero;stroke:none;stroke-width:0.66499996;stroke-linecap:butt;stroke-linejoin:miter;stroke-miterlimit:4;stroke-dasharray:none;stroke-dashoffset:0;stroke-opacity:1;paint-order:stroke fill markers"
       d="m 14.459427,103.01801 c -0.908529,-0.74283 -0.997916,-0.96982 -1.210559,-3.07405 -0.163748,-1.62038 -0.159949,-2.35812 0.01572,-3.050602 0.136935,-0.53981 0.241311,-0.63319 0.394904,-0.35332 0.257204,0.46866 0.644901,2.418812 1.048422,5.273632 0.188987,1.33703 0.208714,1.51695 0.166341,1.51695 -0.01786,0 -0.204539,-0.14068 -0.414822,-0.31261 z"
       id="path2686"
       inkscape:connector-curvature="0" />
    <path
       style="opacity:1;fill:#216778;fill-opacity:1;fill-rule:nonzero;stroke:none;stroke-width:0.66499996;stroke-linecap:butt;stroke-linejoin:miter;stroke-miterlimit:4;stroke-dasharray:none;stroke-dashoffset:0;stroke-opacity:1;paint-order:stroke fill markers"
       d="m 4.6755629,103.40466 v -9.246262 h 1.44639 1.4463902 l 2.64e-4,-0.097 c 1.78e-4,-0.0534 0.03178,-0.73202 0.07023,-1.50813 0.03845,-0.77611 0.07006,-1.47858 0.07024,-1.56104 l 2.65e-4,-0.14993 h 9.2604169 9.260417 v 1.94028 1.94028 l -4.289069,0.156689 -4.028032,0.470068 -0.539088,-0.751857 c -0.360024,-0.37145 -1.107464,-0.57327 -1.556491,-0.42027 -0.34385,0.11716 -0.617503,0.52543 -0.722815,1.07839 -0.04473,0.23485 -0.05199,0.42721 -0.03514,0.931 0.01167,0.34925 0.03193,0.70459 0.04501,0.78963 0.04265,0.27732 -0.06226,0.14934 -0.150704,-0.18384 -0.211627,-0.79722 -0.570945,-1.31618 -0.992301,-1.4332 -0.441749,-0.12269 -1.058479,0.0368 -1.413373,0.36552 -0.44505,0.41222 -0.53757,1.4131 -0.35901,3.883842 0.125095,1.73096 0.117665,2.30957 -0.03407,2.65258 -0.04555,0.10296 -0.20307,0.29876 -0.418518,0.5202 -0.581078,0.59725 -0.834938,0.99659 -1.015328,1.59718 -0.07808,0.25996 -0.09589,0.39962 -0.110262,0.86475 -0.01045,0.33826 -7.94e-4,0.66863 0.0249,0.84666 0.117615,0.81658 1.162201,4.96172 1.499767,5.9514 0.116885,0.34268 0.11448,0.38379 -0.02588,0.44243 -0.28911,0.1208 -0.613198,0.13283 -4.0387509,0.14994 l -3.3954882,0.017 z"
       id="path2688"
       inkscape:connector-curvature="0"
       sodipodi:nodetypes="cccccsccccccccccccccccsccsccccccc" />
    <path
       style="opacity:1;fill:#216778;fill-opacity:1;fill-rule:nonzero;stroke:none;stroke-width:0.66499996;stroke-linecap:butt;stroke-linejoin:miter;stroke-miterlimit:4;stroke-dasharray:none;stroke-dashoffset:0;stroke-opacity:1;paint-order:stroke fill markers"
       d="m 15.3284,101.54745 c -0.0059,-0.0171 -0.04675,-0.27805 -0.09072,-0.57979 -0.0952,-0.65338 -0.11365,-1.20263 -0.04279,-1.27366 0.03831,-0.0384 0.04639,-0.0382 0.116327,0.003 0.04134,0.0244 0.08919,0.0734 0.106338,0.10885 0.06514,0.13468 0.05258,1.27315 -0.01868,1.6916 -0.01392,0.0817 -0.05051,0.10758 -0.07048,0.0499 z"
       id="path2692"
       inkscape:connector-curvature="0" />
    <path
       style="opacity:1;fill:#216778;fill-opacity:1;fill-rule:nonzero;stroke:none;stroke-width:0.66499996;stroke-linecap:butt;stroke-linejoin:miter;stroke-miterlimit:4;stroke-dasharray:none;stroke-dashoffset:0;stroke-opacity:1;paint-order:stroke fill markers"
       d="m 12.711565,101.4816 c -0.0075,-0.0122 -0.01998,-0.18335 -0.02764,-0.38029 -0.01492,-0.38388 0.01021,-0.76714 0.05089,-0.77636 0.0498,-0.0113 0.09034,0.35973 0.07839,0.71753 -0.0064,0.19201 -0.01955,0.37437 -0.02923,0.40522 -0.0182,0.0582 -0.04863,0.0724 -0.07242,0.0339 z"
       id="path2694"
       inkscape:connector-curvature="0" />
    <path
       style="opacity:1;fill:#216778;fill-opacity:1;fill-rule:nonzero;stroke:none;stroke-width:0.66499996;stroke-linecap:butt;stroke-linejoin:miter;stroke-miterlimit:4;stroke-dasharray:none;stroke-dashoffset:0;stroke-opacity:1;paint-order:stroke fill markers"
       d="m 11.325868,103.88972 c 0,-0.14616 0.892829,-1.07746 0.964367,-1.00592 0.02408,0.0241 -0.138986,0.25455 -0.346922,0.4903 -0.183991,0.2086 -0.414202,0.42245 -0.548867,0.50985 -0.05953,0.0386 -0.06858,0.0394 -0.06858,0.006 z"
       id="path2696"
       inkscape:connector-curvature="0" />
    <path
       style="opacity:1;fill:#216778;fill-opacity:1;fill-rule:nonzero;stroke:none;stroke-width:0.66499996;stroke-linecap:butt;stroke-linejoin:miter;stroke-miterlimit:4;stroke-dasharray:none;stroke-dashoffset:0;stroke-opacity:1;paint-order:stroke fill markers"
       d="m 21.150493,101.3401 c -0.02669,-0.0702 -0.02904,-0.56245 -0.0031,-0.65445 0.04811,-0.17083 0.132141,0.0397 0.132903,0.33296 5.29e-4,0.1816 -0.04771,0.38545 -0.09109,0.38545 -0.0079,0 -0.02529,-0.0288 -0.03868,-0.064 z"
       id="path2698"
       inkscape:connector-curvature="0" />
    <path
       style="opacity:1;fill:#216778;fill-opacity:1;fill-rule:nonzero;stroke:none;stroke-width:0.66499996;stroke-linecap:butt;stroke-linejoin:miter;stroke-miterlimit:4;stroke-dasharray:none;stroke-dashoffset:0;stroke-opacity:1;paint-order:stroke fill markers"
       d="m 15.301863,95.836848 c -0.03662,-0.16566 -0.0087,-0.54239 0.04023,-0.54239 0.09189,0 0.162682,0.44746 0.08867,0.56043 -0.05646,0.0862 -0.107437,0.0791 -0.128897,-0.018 z"
       id="path2700"
       inkscape:connector-curvature="0" />
    <path
       style="opacity:1;fill:#216778;fill-opacity:1;fill-rule:nonzero;stroke:none;stroke-width:0.66499996;stroke-linecap:butt;stroke-linejoin:miter;stroke-miterlimit:4;stroke-dasharray:none;stroke-dashoffset:0;stroke-opacity:1;paint-order:stroke fill markers"
       d="m 20.873961,103.55771 c -0.02238,-0.027 -0.03395,-0.10955 -0.03407,-0.24314 -2.65e-4,-0.35124 0.06014,-0.4368 0.141803,-0.20066 0.0534,0.15442 0.05602,0.31565 0.0067,0.41105 -0.04341,0.084 -0.06645,0.0906 -0.114419,0.0328 z"
       id="path2702"
       inkscape:connector-curvature="0" />
    <path
       style="opacity:1;fill:#216778;fill-opacity:1;fill-rule:nonzero;stroke:none;stroke-width:0.66499996;stroke-linecap:butt;stroke-linejoin:miter;stroke-miterlimit:4;stroke-dasharray:none;stroke-dashoffset:0;stroke-opacity:1;paint-order:stroke fill markers"
       d="m 11.597963,109.34213 c -0.03352,-0.0864 -0.01815,-0.49641 0.02006,-0.5346 0.08058,-0.0806 0.18515,0.31905 0.127904,0.48881 -0.04168,0.1236 -0.10963,0.14463 -0.147955,0.0458 z"
       id="path2704"
       inkscape:connector-curvature="0" />
    <path
       style="opacity:1;fill:#216778;fill-opacity:1;fill-rule:nonzero;stroke:none;stroke-width:0.66499996;stroke-linecap:butt;stroke-linejoin:miter;stroke-miterlimit:4;stroke-dasharray:none;stroke-dashoffset:0;stroke-opacity:1;paint-order:stroke fill markers"
       d="m 23.287101,111.80995 c -0.02058,-0.21785 -0.02061,-0.97774 -6.6e-5,-1.14885 0.01958,-0.16309 0.06353,-0.15866 0.09122,0.009 0.02679,0.16237 0.02689,1.04033 1.33e-4,1.18048 -0.0325,0.17022 -0.07307,0.15207 -0.09129,-0.0408 z"
       id="path2706"
       inkscape:connector-curvature="0" />
    <path
       style="opacity:1;fill:#ffffff;fill-opacity:1;fill-rule:nonzero;stroke:none;stroke-width:2.51338577;stroke-linecap:butt;stroke-linejoin:miter;stroke-miterlimit:4;stroke-dasharray:none;stroke-dashoffset:0;stroke-opacity:1;paint-order:stroke fill markers"
       d="M 45.317375,92.489187 C 43.5615,86.413492 40.674192,74.535281 40.327922,71.962873 c -0.638208,-4.74119 0.404341,-8.140798 3.576681,-11.663053 0.968222,-1.075023 1.923029,-2.239409 2.121792,-2.587531 0.273321,-0.478703 0.328883,-1.858905 0.228001,-5.663743 -0.07336,-2.766937 -0.136247,-7.613648 -0.139744,-10.770467 -0.0056,-5.080252 0.05563,-5.877017 0.53322,-6.935142 0.657715,-1.45721 2.292194,-2.505269 4.272878,-2.739852 2.442436,-0.289271 4.055326,1.091119 5.152556,4.409808 0.934142,2.825414 1.141422,2.683557 1.032738,-0.706779 -0.07244,-2.259609 -0.0074,-3.078525 0.251668,-3.167538 0.229908,-0.079 0.349361,0.174601 0.349361,0.741707 0,0.854223 0.355872,1.137011 0.709929,0.564133 0.101168,-0.163693 0.10116,-0.73889 -1.8e-5,-1.278216 -0.154117,-0.821512 -0.250389,-0.925461 -0.593434,-0.640759 -0.641382,0.532299 -0.796429,0.08915 -0.414646,-1.185129 0.466921,-1.558443 1.055707,-2.41133 2.002726,-2.901052 1.475844,-0.763189 4.006866,-0.319816 5.817925,1.019158 0.866301,0.640483 1.997454,2.97586 2.559152,5.283622 0.170356,0.699916 0.406197,6.029838 0.531774,12.018012 0.214432,10.225215 0.324442,11.738523 0.853321,11.738523 0.382257,0 0.511833,-1.314589 0.68871,-6.987216 0.392486,-12.587332 1.173802,-17.298031 3.168194,-19.101675 1.831176,-1.656034 6.412574,-1.68161 7.036985,-0.03928 0.687193,1.807451 1.458176,21.376867 0.842194,21.376867 -0.18539,0 -0.402852,-0.25154 -0.483249,-0.558978 -0.273215,-1.044773 -0.63996,-0.564269 -0.63996,0.838466 0,1.402734 0.366745,1.88324 0.63996,0.838466 0.232489,-0.889045 0.757243,-0.647804 0.759938,0.349361 0.006,2.20509 0.595864,8.953246 0.983397,11.249418 0.614948,3.643641 1.316392,5.603228 3.801689,10.620569 2.499405,5.04583 2.857637,6.365368 3.300601,12.157756 0.158697,2.075204 0.354099,4.622044 0.434225,5.659646 l 0.145684,1.886548 h -2.098116 -2.098116 l -0.0066,-2.445526 c -0.01227,-4.53292 -0.473099,-8.89346 -1.086403,-10.279936 -1.333398,-3.014366 -7.099674,-8.909254 -11.903201,-12.168693 -0.773784,-0.52505 -3.081323,-1.52515 -5.17054,-2.240934 -2.075203,-0.710986 -4.753905,-1.714979 -5.95267,-2.231097 -2.375872,-1.022911 -2.907651,-0.966918 -3.37938,0.35582 -0.432039,1.211449 0.04722,2.66476 1.311355,3.976562 1.016146,1.05446 1.553596,1.334351 4.014256,2.090511 1.587416,0.487814 3.437298,1.279982 4.19233,1.79527 2.462057,1.680283 6.242348,7.465203 6.242348,9.552573 0,1.029331 -0.340764,1.403108 -1.53875,1.687812 -1.90981,0.453876 -2.466498,1.728126 -2.79509,6.397926 -0.09673,1.374612 -0.297535,2.726638 -0.446243,3.004503 -0.353626,0.660756 -1.120755,0.64092 -2.001335,-0.05174 -1.48966,-1.171764 -1.665307,-4.766016 -0.490628,-10.039635 0.804928,-3.613654 0.752982,-4.483551 -0.354794,-5.941386 -0.505511,-0.665256 -1.375944,-1.456756 -1.934295,-1.758892 l -1.015183,-0.549338 -2.048418,0.899389 c -3.694034,1.621923 -6.33352,1.178662 -10.442888,-1.753724 -3.292528,-2.349499 -5.488622,-5.506407 -5.049002,-7.257993 0.362567,-1.444579 1.648245,-0.865219 5.997466,2.702619 2.330342,1.911671 4.424104,3.195212 4.723604,2.895712 0.183219,-0.183219 -0.14298,-0.832055 -1.469403,-2.92275 -0.525109,-0.827672 -1.094031,-2.210878 -1.264511,-3.074375 -0.510591,-2.586201 -0.850708,-3.405324 -1.892989,-4.559005 -1.063424,-1.177089 -2.228153,-1.901795 -3.056511,-1.901795 -0.658245,0 -3.480418,2.879921 -4.241152,4.327935 -0.754734,1.436594 -0.755199,3.257672 -0.002,7.724921 1.056791,6.267639 3.432588,14.682025 5.81003,20.577444 l 0.591724,1.467316 h -2.322706 -2.322707 l -1.034279,-3.578822 z m 43.13345,-0.753252 c 0,-1.58377 -0.112777,-2.655143 -0.279489,-2.655143 -0.166712,0 -0.279489,1.071373 -0.279489,2.655143 0,1.58377 0.112777,2.655142 0.279489,2.655142 0.166712,0 0.279489,-1.071372 0.279489,-2.655142 z m -43.980549,-7.54682 c 0.210906,-0.549612 -0.1123,-1.81605 -0.463472,-1.81605 -0.15079,0 -0.274163,0.503079 -0.274163,1.117954 0,1.106096 0.426266,1.509513 0.737635,0.698096 z M 77.952334,66.515776 C 77.44424,65.003865 77.411023,64.004623 77.411023,50.23187 c 0,-15.379006 -0.05407,-16.090435 -1.206684,-15.877843 -0.670845,0.123733 -1.625115,2.249192 -2.127912,4.739536 -0.237347,1.175573 -0.874131,5.577519 -1.415079,9.782103 C 71.143462,60.673681 71.062964,60.942677 69.093586,60.797832 67.003775,60.64413 66.811468,59.91782 65.666995,47.856216 64.559391,36.183178 63.914518,32.742818 62.603166,31.510867 c -1.318636,-1.238794 -1.393847,-0.798719 -1.494214,8.742851 -0.124391,11.82541 0.375042,18.116015 1.635405,20.598721 1.066068,2.09998 5.486327,4.289262 10.193313,5.048579 1.898567,0.306272 2.320119,0.49052 3.577036,1.563404 1.801623,1.537839 2.187636,1.283121 1.437628,-0.948646 z M 43.683958,63.482273 c 0.817369,-0.572507 2.910503,-3.215042 2.70745,-3.418093 -0.180832,-0.180832 -2.449,1.972201 -3.259498,3.09404 -0.622172,0.861172 -0.400538,0.991271 0.552048,0.324053 z m 35.82323,-1.64526 c 0,-0.900443 -0.285453,-1.572853 -0.588262,-1.385708 -0.285381,0.176374 -0.342089,1.893016 -0.07148,2.163631 0.31293,0.312927 0.659739,-0.09601 0.659739,-0.777923 z M 56.30963,61.061678 c 0,-2.069384 -2.431441,-16.901906 -3.527537,-21.519037 -1.36525,-5.750901 -2.752232,-5.262423 -3.101756,1.092401 -0.278974,5.072127 0.776709,14.425363 1.870056,16.568499 0.515544,1.010553 4.017775,4.487364 4.520169,4.487364 0.131487,0 0.239068,-0.283153 0.239068,-0.629227 z m 2.05652,-7.126583 c 0.350692,-2.121684 0.205841,-5.313778 -0.262376,-5.781995 -1.003908,-1.003908 -1.176856,0.176514 -0.639625,4.365623 0.17383,1.35545 0.408913,2.464454 0.522409,2.464454 0.113495,0 0.284311,-0.471637 0.379592,-1.048082 z m -9.882202,-1.311077 c 0,-1.143819 -0.12577,-2.1574 -0.279489,-2.252404 -0.177495,-0.109697 -0.279489,0.649238 -0.279489,2.079671 0,1.315276 0.116283,2.252403 0.279489,2.252403 0.161285,0 0.279489,-0.879549 0.279489,-2.07967 z"
       id="path14558"
       inkscape:connector-curvature="0"
       transform="matrix(0.26458333,0,0,0.26458333,0,87)" />
    <path
       style="opacity:1;fill:#ffffff;fill-opacity:1;fill-rule:nonzero;stroke:none;stroke-width:2.51338577;stroke-linecap:butt;stroke-linejoin:miter;stroke-miterlimit:4;stroke-dasharray:none;stroke-dashoffset:0;stroke-opacity:1;paint-order:stroke fill markers"
       d="m 45.581769,93.559847 c -1.110157,-3.699161 -4.533284,-17.363878 -5.077846,-20.270163 -0.582173,-3.107011 -0.414585,-6.371953 0.438109,-8.535257 0.62017,-1.573384 1.340066,-2.615007 3.850744,-5.571679 l 1.479368,-1.742159 -0.08192,-11.080681 c -0.08043,-10.87827 -0.07097,-11.101143 0.518078,-12.20083 0.725886,-1.35516 2.346224,-2.334966 4.230459,-2.558126 2.375769,-0.281374 4.011095,1.083761 5.12459,4.277901 0.928087,2.662285 1.142363,2.51548 1.038533,-0.71152 -0.06898,-2.143743 -0.0018,-2.938547 0.255833,-3.027794 0.219183,-0.07592 0.349361,0.141876 0.349361,0.584505 0,0.388035 0.126658,0.783797 0.281463,0.879471 0.398126,0.246056 0.650454,-0.569042 0.43809,-1.415167 -0.138978,-0.553736 -0.30256,-0.674822 -0.728863,-0.539518 -0.753542,0.239164 -0.73425,-0.702875 0.04746,-2.317678 0.853915,-1.763954 1.931426,-2.365239 3.94467,-2.20125 2.265244,0.184515 3.925972,1.212394 4.82486,2.986264 1.392596,2.748159 1.560449,4.162184 1.819004,15.323869 0.237733,10.262644 0.362007,12.05854 0.834444,12.05854 0.332454,0 0.489382,-1.89988 0.823066,-9.964582 0.442009,-10.682828 1.009776,-13.893863 2.785873,-15.755678 1.972438,-2.067632 6.576882,-2.284996 7.314358,-0.345291 0.39769,1.046004 0.764608,6.368623 0.982824,14.257155 0.15361,5.553007 0.120971,7.057089 -0.153148,7.057089 -0.191601,0 -0.414144,-0.25154 -0.494541,-0.558978 -0.260559,-0.99638 -0.63996,-0.591922 -0.63996,0.682228 0,1.313896 0.396173,1.926944 0.640781,0.991561 0.198242,-0.75807 0.756084,-0.704414 0.759117,0.07302 0.006,1.523255 0.580039,8.643876 0.850646,10.550696 0.529267,3.729483 1.361034,6.194654 3.77206,11.179546 2.981951,6.165296 3.02805,6.375821 3.901398,17.817402 l 0.176006,2.305781 H 87.814172 85.74166 L 85.551228,91.246833 C 85.287935,84.9675 85.008925,83.563755 83.603935,81.449691 82.140879,79.24826 77.203693,74.272512 74.476392,72.250859 72.030699,70.437953 70.863453,69.826913 68.187897,68.958902 67.111866,68.609812 64.665829,67.697041 62.75226,66.930524 58.910547,65.391651 58.57757,65.401392 58.155056,67.065 c -0.202803,0.798519 -0.130544,1.235547 0.377972,2.286002 0.848546,1.752864 1.893386,2.471281 5.108883,3.512801 1.496395,0.484692 3.320059,1.290231 4.052586,1.790088 2.444223,1.667874 6.222918,7.460276 6.222918,9.539183 0,1.052392 -0.319288,1.378653 -1.832783,1.87282 -1.537339,0.50195 -2.019169,1.622934 -2.385914,5.550862 -0.162827,1.743926 -0.416586,3.396 -0.563907,3.671271 -0.35359,0.660686 -1.121566,0.633587 -2.01755,-0.07119 -1.50005,-1.17994 -1.666261,-3.961841 -0.574301,-9.612174 0.444618,-2.300667 0.661529,-4.149881 0.554006,-4.723028 -0.198164,-1.056302 -2.362591,-3.448499 -3.342732,-3.694499 -0.353593,-0.08875 -1.374508,0.199826 -2.479519,0.700859 -2.493416,1.130571 -4.949043,1.178984 -7.177771,0.14152 -3.235949,-1.506327 -6.63573,-4.457967 -7.82905,-6.797069 -1.280813,-2.510599 -0.323122,-3.895379 1.796821,-2.598121 0.461156,0.282194 2.03328,1.477572 3.493608,2.656391 2.728178,2.202267 4.822953,3.459754 4.979974,2.989464 0.04891,-0.14648 -0.424069,-1.021744 -1.05106,-1.945029 -0.699146,-1.029538 -1.30356,-2.358431 -1.562986,-3.436455 -0.232651,-0.966765 -0.566339,-2.230823 -0.741529,-2.809018 -0.561338,-1.852643 -2.917727,-4.119277 -4.282393,-4.119277 -0.733446,0 -3.416737,2.746683 -4.180406,4.279167 -0.86467,1.735169 -0.888797,2.86375 -0.156479,7.319612 1.027039,6.249118 3.483992,15.137774 5.608147,20.288903 0.455265,1.104028 0.827754,2.052911 0.827754,2.10863 0,0.05572 -1.049591,0.101304 -2.332425,0.101304 h -2.332425 z m 42.869056,-1.823912 c 0,-1.397444 -0.115083,-2.375654 -0.279489,-2.375654 -0.164406,0 -0.279489,0.97821 -0.279489,2.375654 0,1.397443 0.115083,2.375653 0.279489,2.375653 0.164406,0 0.279489,-0.97821 0.279489,-2.375653 z m -44.013396,-8.49678 c -0.104623,-0.476349 -0.306002,-0.86609 -0.447507,-0.86609 -0.296121,0 -0.353161,1.767377 -0.0663,2.054241 0.383776,0.383775 0.698971,-0.345098 0.513805,-1.188151 z m 33.94878,-15.050139 c -0.0017,-0.115289 -0.21785,-0.838466 -0.48041,-1.60706 C 77.480864,65.33805 77.426004,63.587721 77.40647,50.651103 77.3944,42.657728 77.284811,35.780926 77.162935,35.369323 c -0.501392,-1.693326 -1.713869,-0.953315 -2.480322,1.513812 -0.602167,1.938315 -1.119092,5.085173 -2.169802,13.208991 -1.33642,10.332868 -1.468992,10.760313 -3.337298,10.760313 -2.186703,0 -2.410029,-0.865177 -3.643265,-14.114177 C 64.6024,36.748649 63.70415,32.368624 62.357303,31.256686 c -0.631122,-0.521045 -0.800815,-0.287467 -1.047099,1.441315 -0.305198,2.142318 -0.284718,15.356121 0.03097,19.979138 0.371045,5.433776 0.903825,7.658008 2.170087,9.059607 1.446033,1.600587 4.943271,3.200989 8.681423,3.972789 2.641453,0.545369 3.220822,0.769508 4.276604,1.654492 1.15068,0.964529 1.92374,1.297232 1.916926,0.824989 z m -33.182318,-6.31027 c 1.348112,-1.665358 1.517217,-1.988042 0.856552,-1.634463 -0.70675,0.37824 -3.166268,3.017387 -3.166268,3.397511 0,0.483222 1.285956,-0.498373 2.309716,-1.763048 z M 79.459166,61.53689 c -0.137821,-1.173649 -0.790444,-1.219555 -0.790444,-0.0556 0,0.525207 0.08594,1.040863 0.190983,1.145904 0.3436,0.3436 0.693179,-0.292214 0.599461,-1.090302 z M 56.30963,61.100001 c 0,-1.199244 -2.009059,-13.948333 -2.901812,-18.414325 -0.879053,-4.397463 -1.806114,-7.266705 -2.347895,-7.266705 -0.466646,0 -0.951136,1.528007 -1.260863,3.976574 -0.5503,4.350432 0.542433,15.153206 1.795882,17.754125 0.511331,1.061017 3.960862,4.541235 4.501191,4.541235 0.117423,0 0.213497,-0.265906 0.213497,-0.590904 z m 2.173229,-10.513978 c -0.06175,-1.427566 -0.224841,-2.158898 -0.555086,-2.489144 -0.437199,-0.437199 -0.479265,-0.421343 -0.646144,0.243556 -0.184492,0.735077 0.345146,6.007894 0.653206,6.502998 0.300557,0.483046 0.639259,-2.14822 0.548024,-4.25741 z m -9.998911,2.0215 c 0,-0.981027 -0.12577,-1.861417 -0.279489,-1.95642 -0.176983,-0.109382 -0.279489,0.608155 -0.279489,1.95642 0,1.348266 0.102506,2.065802 0.279489,1.956421 0.153719,-0.095 0.279489,-0.975393 0.279489,-1.956421 z"
       id="path14560"
       inkscape:connector-curvature="0"
       transform="matrix(0.26458333,0,0,0.26458333,0,87)" />
    <path
       style="opacity:1;fill:#ffffff;fill-opacity:1;fill-rule:nonzero;stroke:none;stroke-width:2.51338577;stroke-linecap:butt;stroke-linejoin:miter;stroke-miterlimit:4;stroke-dasharray:none;stroke-dashoffset:0;stroke-opacity:1;paint-order:stroke fill markers"
       d="m 46.143171,95.578904 c -1.805394,-6.195115 -4.773836,-17.864619 -5.634295,-22.149476 -0.869852,-4.331627 -0.197548,-8.6013 1.765369,-11.211528 0.417821,-0.555604 1.487052,-1.87431 2.376069,-2.930455 l 1.616395,-1.920266 -0.07921,-11.043976 c -0.07712,-10.752659 -0.06375,-11.073454 0.506957,-12.16152 0.859958,-1.639541 3.063253,-2.748854 5.129997,-2.582846 1.371507,0.110164 1.627875,0.239641 2.564645,1.295248 0.579192,0.652668 1.327758,1.972945 1.687787,2.976822 0.355837,0.992185 0.748422,1.803974 0.872413,1.803974 0.12399,0 0.188,-1.213417 0.142243,-2.696482 -0.06071,-1.967816 0.01122,-2.729368 0.266168,-2.818177 0.219363,-0.07641 0.349361,0.140829 0.349361,0.583822 0,0.388035 0.112591,0.775103 0.250202,0.860151 0.365957,0.226174 0.614754,-0.617508 0.415829,-1.41009 -0.129184,-0.514708 -0.302863,-0.643495 -0.698473,-0.517934 -0.698667,0.221749 -0.699044,-0.725847 -8.94e-4,-2.246206 0.843352,-1.83656 1.49182,-2.236097 3.626943,-2.234652 3.411158,0.0023 5.19144,1.665233 6.351902,5.933181 0.332574,1.223143 0.500108,4.071414 0.694839,11.813092 0.271691,10.801381 0.410368,12.817612 0.851258,12.376721 0.282591,-0.282591 0.366695,-1.4072 0.812851,-10.869274 0.557074,-11.814461 1.337683,-14.554554 4.525754,-15.886287 1.310176,-0.547291 3.637059,-0.559536 4.671544,-0.02458 0.441374,0.228243 0.874288,0.737978 0.978124,1.151694 0.369473,1.472093 0.7161,6.820593 0.899579,13.880578 0.147659,5.681745 0.113271,7.196833 -0.163345,7.196833 -0.192707,0 -0.415787,-0.250126 -0.495731,-0.555834 -0.232965,-0.890873 -0.640779,-0.348751 -0.640779,0.851817 0,1.159846 0.391687,1.491872 0.63996,0.542483 0.166569,-0.636967 0.757484,-0.763326 0.757484,-0.161978 0,1.713911 0.661583,9.456711 0.982014,11.492954 0.583357,3.707067 1.331685,5.885838 3.78775,11.028116 1.211421,2.536359 2.391789,5.436619 2.623043,6.445019 0.344638,1.502839 1.271341,10.877928 1.271341,12.861677 0,0.481153 -0.214463,0.536998 -2.062305,0.536998 H 85.723655 L 85.53151,91.386574 c -0.241529,-5.533308 -0.56215,-7.474622 -1.504054,-9.106847 -1.773046,-3.072511 -7.078635,-8.390529 -10.961034,-10.98671 -1.126761,-0.753474 -3.273318,-1.743498 -5.589773,-2.578096 -2.068313,-0.745192 -4.568316,-1.687175 -5.55556,-2.093292 -2.523773,-1.038191 -3.248675,-0.99148 -3.653591,0.235428 -0.372157,1.12765 -0.209775,1.849066 0.729076,3.239072 0.815158,1.206874 2.031984,1.905825 5.029851,2.889172 1.246722,0.408945 2.839612,1.106823 3.539756,1.550838 2.522368,1.599639 6.351234,7.49626 6.351234,9.781177 0,0.942104 -0.102782,1.100962 -0.908338,1.403911 -1.813552,0.682031 -2.144508,0.94205 -2.577987,2.025421 -0.242602,0.606317 -0.57604,2.443681 -0.740977,4.083027 -0.164938,1.639349 -0.417623,3.200732 -0.561524,3.46974 -0.386027,0.721642 -1.29638,0.595646 -2.195951,-0.303922 -1.382684,-1.382686 -1.458092,-4.176871 -0.279001,-10.338184 0.33321,-1.741184 0.526626,-3.481384 0.429814,-3.867114 -0.205631,-0.819299 -2.492796,-3.354443 -3.24039,-3.59172 -0.28269,-0.08972 -1.412107,0.219737 -2.515324,0.689199 -3.007127,1.279648 -5.071095,1.212786 -8.012773,-0.259572 -3.918569,-1.961303 -7.616623,-6.002142 -7.62328,-8.329902 -0.0054,-1.890802 1.335664,-1.573454 4.802435,1.136429 5.714397,4.466799 6.93434,4.932466 4.969762,1.897026 -0.776318,-1.199478 -1.348909,-2.546248 -1.722993,-4.052585 -0.872931,-3.515073 -2.412164,-5.659534 -4.422074,-6.160838 -1.514116,-0.377645 -4.910257,3.64101 -5.199152,6.152157 -0.411627,3.577972 2.900726,17.697132 5.885707,25.088276 0.546687,1.353656 0.993976,2.517028 0.993976,2.58527 0,0.06824 -1.060568,0.124074 -2.356819,0.124074 -2.003965,0 -2.378159,-0.07323 -2.499355,-0.489105 z m 42.307654,-3.842969 c 0,-1.211117 -0.118006,-2.096165 -0.279489,-2.096165 -0.161483,0 -0.279489,0.885048 -0.279489,2.096165 0,1.211116 0.118006,2.096164 0.279489,2.096164 0.161483,0 0.279489,-0.885048 0.279489,-2.096164 z M 44.385355,83.26031 c -0.08741,-0.334266 -0.270033,-0.607757 -0.405823,-0.607757 -0.290902,0 -0.335274,1.495388 -0.05276,1.777906 0.31154,0.31154 0.632128,-0.506498 0.458579,-1.170149 z M 78.389233,68.154284 c 0,-0.134392 -0.213526,-0.794684 -0.474502,-1.467316 -0.420141,-1.082859 -0.48629,-2.936006 -0.577378,-16.175609 -0.08737,-12.699479 -0.166095,-15.050221 -0.522407,-15.600196 -0.357427,-0.551695 -0.485544,-0.593069 -0.865487,-0.279489 -1.263878,1.043127 -1.806556,3.520176 -3.436167,15.684337 -1.302037,9.719013 -1.496989,10.353133 -3.221901,10.479918 -0.832364,0.06118 -1.259923,-0.05766 -1.61363,-0.448498 -0.655563,-0.72439 -1.187801,-3.50995 -1.719176,-8.997606 -1.520741,-15.705094 -2.450911,-20.363597 -4.006954,-20.06773 -0.64438,0.122523 -0.819146,2.178083 -0.850733,10.006138 -0.04241,10.511686 0.525615,17.106279 1.666004,19.341627 1.097531,2.151338 4.965502,4.165683 9.85517,5.132328 2.063842,0.408003 2.694142,0.666125 3.773096,1.545153 1.263826,1.029644 1.994065,1.339801 1.994065,0.846943 z M 44.582471,62.459498 c 1.22871,-1.269046 1.830878,-2.166037 1.454104,-2.166037 -0.228004,0 -2.127103,1.913793 -2.842763,2.864759 -0.73333,0.974446 0.245557,0.481908 1.388659,-0.698722 z m 34.801996,-1.219501 c -0.09524,-0.37945 -0.295238,-0.614456 -0.444451,-0.522238 -0.310777,0.192073 -0.368439,1.621305 -0.07716,1.912585 0.33101,0.33101 0.704069,-0.663374 0.52161,-1.390347 z M 55.476692,55.21127 c -1.47416,-10.025786 -2.741395,-16.374756 -3.750317,-18.789448 -0.36449,-0.872346 -0.520872,-1.010435 -0.842246,-0.743718 -1.193775,0.990745 -1.494036,8.411351 -0.611509,15.112743 0.596256,4.527619 1.04502,6.027578 2.276113,7.60774 1.158748,1.487304 3.565451,3.459421 3.706256,3.037008 0.05225,-0.156754 -0.297983,-2.9577 -0.778297,-6.224325 z m 2.947558,-5.106909 c -0.172718,-1.778371 -0.513472,-2.4239 -1.014843,-1.92253 -0.306863,0.306864 0.139915,5.767453 0.521376,6.372323 0.310593,0.492498 0.663979,-2.694127 0.493467,-4.449793 z m -9.940302,2.503162 c 0,-0.827309 -0.12577,-1.581928 -0.279489,-1.676931 -0.175572,-0.10851 -0.279489,0.514991 -0.279489,1.676931 0,1.161941 0.103917,1.785442 0.279489,1.676932 0.153719,-0.095 0.279489,-0.849622 0.279489,-1.676932 z"
       id="path14564"
       inkscape:connector-curvature="0"
       transform="matrix(0.26458333,0,0,0.26458333,0,87)" />
    <path
       style="opacity:1;fill:#ffffff;fill-opacity:1;fill-rule:nonzero;stroke:none;stroke-width:2.51338577;stroke-linecap:butt;stroke-linejoin:miter;stroke-miterlimit:4;stroke-dasharray:none;stroke-dashoffset:0;stroke-opacity:1;paint-order:stroke fill markers"
       d="M 45.7108,94.18146 C 43.222714,85.813081 40.349692,73.518607 40.175605,70.494797 39.922252,66.094173 40.780464,63.845335 44.301453,59.683514 l 1.960599,-2.317434 -0.07688,-11.043426 c -0.07426,-10.666435 -0.0573,-11.081591 0.496515,-12.161381 0.834093,-1.626245 3.054721,-2.739364 5.142768,-2.577883 1.378764,0.106628 1.624574,0.231368 2.582032,1.310288 0.58201,0.655843 1.329457,1.936391 1.660994,2.845662 0.331537,0.909272 0.689114,1.70657 0.794616,1.771774 0.105502,0.0652 0.186322,-1.416456 0.1796,-3.292577 -0.01029,-2.873043 0.07891,-3.609523 0.565489,-4.668827 0.910858,-1.982973 1.523843,-2.376456 3.693495,-2.370902 2.526063,0.0065 4.080857,0.858661 5.130507,2.812072 1.426386,2.654519 1.631886,4.085327 1.903577,13.253774 0.409537,13.820182 0.453196,14.44574 0.971989,13.926947 0.07736,-0.07736 0.328656,-3.902857 0.558446,-8.501113 0.459915,-9.203223 0.746143,-11.883515 1.545368,-14.471109 0.859842,-2.783842 2.660629,-4.090692 5.636806,-4.090692 1.490485,0 2.849674,0.553603 3.125787,1.273146 0.373436,0.973155 0.750245,7.315632 1.009541,16.992587 0.45579,17.01029 0.86187,19.291306 4.982883,27.989639 1.092412,2.305781 2.174089,5.009834 2.403728,6.009006 0.383699,1.669511 1.273644,10.383269 1.277364,12.507117 l 0.0016,0.908338 h -2.067534 -2.067531 l -0.1756,-3.842969 C 85.29146,86.558642 84.923477,84.15026 84.08244,82.421735 83.185424,80.578164 77.517034,74.633437 74.49321,72.365026 72.091074,70.562995 71.251717,70.156211 65.39302,67.954718 59.777923,65.844763 59.24538,65.697891 58.737684,66.11924 c -1.076222,0.893187 -0.51243,3.340066 1.122719,4.872636 0.479678,0.449588 1.940084,1.168676 3.468412,1.70781 4.376155,1.543733 5.536248,2.351056 7.638533,5.315759 1.942488,2.73935 2.993785,5.055718 2.895209,6.379139 -0.07815,1.049237 -0.172,1.169573 -1.184299,1.518573 -2.146101,0.739888 -2.454338,1.387097 -2.977625,6.252187 -0.173006,1.608449 -0.44233,3.081667 -0.598502,3.273815 -0.739047,0.909303 -2.35104,-0.0041 -2.991772,-1.695126 -0.426179,-1.124811 -0.367946,-4.253871 0.126639,-6.804691 0.893906,-4.610325 0.978962,-5.726298 0.511516,-6.711367 -0.605146,-1.27525 -2.458609,-2.885706 -3.321141,-2.885706 -0.388486,0 -1.453379,0.314425 -2.366427,0.698722 -1.230408,0.51787 -2.160273,0.698721 -3.592567,0.698721 -1.696168,0 -2.205785,-0.136793 -4.167487,-1.118656 C 49.2516,75.594325 45.5235,71.42503 45.741257,69.166798 c 0.06761,-0.701097 0.233375,-0.928592 0.727726,-0.998705 0.820393,-0.116356 1.796301,0.471257 5.184549,3.121718 4.643952,3.632738 5.572837,3.863053 3.686368,0.914028 -0.559556,-0.874726 -1.276239,-2.620734 -1.694374,-4.127885 -0.834604,-3.008295 -2.053162,-4.921999 -3.602146,-5.65704 -0.987499,-0.468599 -1.047385,-0.465106 -1.987461,0.115893 -1.074329,0.663972 -2.579122,2.406324 -3.37465,3.907405 -0.957228,1.806192 -0.490459,6.419111 1.442318,14.253921 1.140831,4.624536 2.227712,8.165459 3.730295,12.152834 0.630005,1.671832 1.145463,3.080046 1.145463,3.129368 0,0.04932 -1.063718,0.08967 -2.363818,0.08967 h -2.363819 z m 42.740025,-2.445525 c 0,-1.024793 -0.121829,-1.816677 -0.279489,-1.816677 -0.15766,0 -0.279489,0.791884 -0.279489,1.816677 0,1.024792 0.121829,1.816676 0.279489,1.816676 0.15766,0 0.279489,-0.791884 0.279489,-1.816676 z M 44.291618,83.630764 c 0,-0.538016 -0.12577,-0.978211 -0.279489,-0.978211 -0.309918,0 -0.387585,1.475673 -0.09316,1.770094 0.321677,0.321678 0.372652,0.213356 0.372652,-0.791883 z M 78.21389,67.630038 c -0.102298,-0.422726 -0.317557,-1.083018 -0.478358,-1.467315 -0.184334,-0.440544 -0.34994,-6.296169 -0.44818,-15.847349 -0.160566,-15.610283 -0.196,-16.047378 -1.267607,-15.636165 -1.109075,0.425593 -1.915663,3.984033 -3.366924,14.853939 -1.465449,10.976193 -1.570016,11.319291 -3.44984,11.319291 -0.67643,0 -1.236338,-0.185796 -1.526657,-0.506596 -0.736069,-0.813348 -1.248351,-3.840984 -2.136911,-12.629371 -0.901883,-8.920143 -1.489632,-12.860975 -2.204854,-14.783437 -0.452974,-1.217561 -1.228191,-2.006522 -1.603145,-1.631567 -0.461389,0.461389 -0.715914,6.775614 -0.560291,13.899606 0.255313,11.687461 0.741434,14.807421 2.596122,16.662107 1.418116,1.418117 4.651267,2.872909 8.344651,3.754768 2.520655,0.601851 3.400197,0.949258 4.468559,1.765013 1.594369,1.217391 1.878648,1.260393 1.633435,0.247076 z m -33.403837,-5.50317 c 1.505276,-1.591607 1.768729,-2.032456 0.94888,-1.587803 -0.808791,0.438654 -3.101238,3.10826 -2.669129,3.10826 0.155245,0 0.929357,-0.684205 1.720249,-1.520457 z m 34.584632,-0.846163 c -0.100856,-0.401841 -0.305456,-0.655164 -0.454669,-0.562946 -0.31011,0.191659 -0.36686,1.343395 -0.08031,1.629944 0.364271,0.364269 0.717425,-0.340082 0.53498,-1.066998 z m -23.085055,0.0044 c 0,-0.547535 -1.321021,-9.199951 -2.114282,-13.848112 -1.879312,-11.011938 -3.149282,-14.090625 -4.061967,-9.847101 -0.877573,4.080276 0.129853,16.88647 1.540156,19.578128 0.784531,1.497329 4.636093,4.917714 4.636093,4.117085 z m 2.064639,-8.670614 c 0.101977,-0.995346 0.119345,-2.127275 0.0386,-2.515398 -0.08075,-0.388124 -0.212096,-1.020104 -0.291884,-1.404401 -0.275512,-1.326999 -0.693389,-0.69315 -0.690967,1.048083 0.0031,2.225919 0.295193,4.681435 0.556882,4.681435 0.111079,0 0.285398,-0.814374 0.387373,-1.809719 z m -9.890321,-0.007 c 0,-0.67359 -0.12577,-1.302439 -0.279489,-1.397443 -0.173658,-0.107326 -0.279489,0.421829 -0.279489,1.397443 0,0.975615 0.105831,1.50477 0.279489,1.397444 0.153719,-0.095 0.279489,-0.723853 0.279489,-1.397444 z m 31.950617,-0.109425 c -0.08385,-0.320655 -0.263933,-0.514116 -0.400175,-0.429914 -0.295355,0.18254 -0.332273,1.619316 -0.04889,1.9027 0.293388,0.293389 0.625817,-0.796874 0.449063,-1.472786 z M 58.337015,33.11319 c 0.161829,-0.480972 -0.08244,-1.327571 -0.38305,-1.327571 -0.135791,0 -0.246892,0.37731 -0.246892,0.838466 0,0.836139 0.406885,1.152056 0.629942,0.489105 z"
       id="path14566"
       inkscape:connector-curvature="0"
       transform="matrix(0.26458333,0,0,0.26458333,0,87)" />
    <path
       style="opacity:1;fill:#ffffff;fill-opacity:1;fill-rule:nonzero;stroke:none;stroke-width:2.51338577;stroke-linecap:butt;stroke-linejoin:miter;stroke-miterlimit:4;stroke-dasharray:none;stroke-dashoffset:0;stroke-opacity:1;paint-order:stroke fill markers"
       d="M 45.711337,94.18146 C 44.674268,90.690063 42.960307,84.17793 41.603734,78.574775 40.375551,73.501911 40.256758,72.713828 40.2594,69.656331 c 0.0036,-4.164043 0.518985,-5.655162 3.010079,-8.708768 0.946473,-1.160197 1.9724,-2.440465 2.279838,-2.845041 0.537409,-0.707207 0.558977,-1.167114 0.558977,-11.919187 V 34.999738 l 0.673966,-1.084199 c 0.932505,-1.500108 3.169076,-2.527517 5.098564,-2.342117 1.817673,0.174655 3.020606,1.32271 4.103321,3.916127 l 0.805899,1.930361 0.136283,-3.309062 c 0.212195,-5.152272 1.179119,-6.815469 4.075211,-7.009736 1.331667,-0.08933 1.85165,0.02378 3.133774,0.681645 1.297909,0.665967 1.674124,1.046618 2.416903,2.445404 1.495466,2.816227 1.62481,4.005623 2.031765,18.682891 0.200983,7.248593 0.320387,8.662937 0.699365,8.283959 0.06448,-0.06448 0.319402,-4.01575 0.56649,-8.7806 0.477238,-9.202969 0.932486,-13.005155 1.794378,-14.986443 1.048164,-2.409477 3.002393,-3.475235 5.977743,-3.260017 2.743922,0.198477 2.803847,0.365678 3.284363,9.163862 0.146922,2.690078 0.270115,6.714714 0.273762,8.943636 0.01384,8.450552 0.843883,17.122062 2.0012,20.90659 0.314811,1.029454 1.561174,4.011106 2.769697,6.62589 1.208522,2.614785 2.384639,5.570377 2.613587,6.567984 0.424208,1.848395 1.283703,10.0217 1.283703,12.207279 v 1.205328 h -2.068593 -2.068594 l -0.168353,-3.283992 c -0.272769,-5.320868 -0.685476,-8.375995 -1.311352,-9.70749 -1.220639,-2.596796 -7.194845,-8.73539 -10.933311,-11.234153 -1.481016,-0.989898 -3.615487,-1.94919 -7.832582,-3.520179 -3.188235,-1.187709 -5.961461,-2.159472 -6.162725,-2.159472 -1.18416,0 -1.429743,2.408488 -0.401207,3.934731 0.877788,1.302549 1.955022,1.964448 4.927756,3.027821 1.405042,0.502599 3.145644,1.311162 3.868004,1.79681 2.76452,1.858608 6.332299,7.490556 6.166137,9.733606 -0.0793,1.070461 -0.168816,1.186549 -1.185199,1.536955 -2.09415,0.721978 -2.428259,1.424535 -2.968444,6.242011 -0.180982,1.614047 -0.455639,3.091843 -0.610344,3.283991 -0.733459,0.910968 -2.348767,-0.0051 -2.989111,-1.695126 -0.458155,-1.209205 -0.355695,-4.251719 0.256627,-7.620393 0.780922,-4.296229 0.743358,-5.374457 -0.234259,-6.724019 -0.897676,-1.239205 -2.002345,-2.057352 -2.777853,-2.057352 -0.286343,0 -1.294428,0.314425 -2.240188,0.698722 -1.259524,0.511791 -2.235801,0.698721 -3.649175,0.698721 -1.692822,0 -2.203877,-0.137273 -4.164619,-1.118656 C 49.2516,75.594325 45.5235,71.42503 45.741257,69.166798 c 0.07164,-0.74297 0.220006,-0.923285 0.816661,-0.992536 0.758057,-0.08799 2.087808,0.748557 6.17554,3.88502 2.244134,1.721896 3.264165,2.334292 3.498225,2.100232 0.08452,-0.08452 -0.30273,-0.919825 -0.860551,-1.856241 -0.55782,-0.936415 -1.316438,-2.745037 -1.685819,-4.019158 -0.369381,-1.274122 -0.869622,-2.699514 -1.111647,-3.16754 -0.61315,-1.1857 -1.959398,-2.471901 -2.948035,-2.816542 -0.724395,-0.252526 -0.974439,-0.187576 -1.922863,0.499458 -0.599605,0.43435 -1.612406,1.571755 -2.25067,2.527561 -1.123632,1.682653 -1.160468,1.810038 -1.160098,4.011766 8.94e-4,5.324237 2.734521,16.226619 6.57935,26.240086 0.169852,0.44236 -0.04097,0.489105 -2.205921,0.489105 h -2.393721 z m 42.739488,-2.445525 c 0,-0.845454 -0.12577,-1.537188 -0.279489,-1.537188 -0.153719,0 -0.279489,0.691734 -0.279489,1.537188 0,0.845453 0.12577,1.537187 0.279489,1.537187 0.153719,0 0.279489,-0.691734 0.279489,-1.537187 z M 44.291618,83.474524 c 0,-0.498803 -0.116429,-0.783004 -0.279489,-0.682226 -0.153719,0.095 -0.279488,0.479736 -0.279488,0.854961 0,0.375225 0.125769,0.682226 0.279488,0.682226 0.153719,0 0.279489,-0.384733 0.279489,-0.854961 z M 77.91003,66.924067 C 77.526734,65.91689 77.433357,63.526754 77.274283,50.651103 77.17173,42.35029 76.987505,35.332444 76.864894,35.05589 c -0.338358,-0.763185 -1.072692,-0.454498 -1.629883,0.685143 -0.680426,1.391694 -1.378086,5.166596 -2.574814,13.93186 -1.479577,10.836929 -1.585528,11.179546 -3.457216,11.179546 -0.671721,0 -1.236344,-0.185802 -1.521226,-0.500595 -0.726598,-0.802882 -1.229504,-3.631215 -1.998216,-11.237929 -0.77063,-7.625688 -1.404973,-12.505261 -1.88934,-14.53341 -0.410315,-1.718075 -1.262904,-3.353863 -1.748068,-3.353863 -0.701283,0 -0.831328,1.838173 -0.800806,11.31929 0.04275,13.27909 0.579,17.2998 2.573293,19.294094 1.668632,1.668631 5.280913,3.191922 9.576553,4.038415 1.071118,0.211073 2.043612,0.660591 3.044201,1.40713 0.808656,0.603338 1.571459,1.034449 1.695116,0.958023 0.123659,-0.07642 0.02267,-0.670211 -0.224458,-1.319527 z M 45.755433,61.02971 46.332165,60.228771 45.7501,60.540283 c -0.625752,0.334892 -2.576437,2.591911 -2.576437,2.981038 0,0.310984 1.847754,-1.472243 2.58177,-2.491611 z m 33.50495,0.172089 c -0.261507,-0.465815 -0.283556,-0.465815 -0.463024,0 -0.103642,0.269008 -0.103642,0.709203 0,0.978211 0.179468,0.465815 0.201517,0.465815 0.463024,0 0.179781,-0.320241 0.179781,-0.65797 0,-0.978211 z M 56.169095,60.363334 C 54.236908,46.600393 52.442278,37.434601 51.416747,36.091471 51.064442,35.63006 50.97304,35.614857 50.734213,35.977949 c -1.307425,1.987689 -1.018397,14.359115 0.460334,19.70395 0.399421,1.443698 0.744136,1.958757 2.478472,3.703224 1.107988,1.114461 2.155979,2.026293 2.32887,2.026293 0.203078,0 0.262263,-0.370988 0.167206,-1.048082 z m 2.153011,-7.546194 c 0.12063,-2.856918 -0.160004,-4.962658 -0.623227,-4.676371 -0.498645,0.30818 -0.188797,6.003942 0.326613,6.003942 0.132307,0 0.265783,-0.597407 0.296614,-1.327571 z m -9.838158,-0.209617 c 0,-0.519871 -0.12577,-1.022951 -0.279489,-1.117954 -0.170914,-0.105631 -0.279489,0.328666 -0.279489,1.117954 0,0.789289 0.108575,1.223586 0.279489,1.117955 0.153719,-0.095 0.279489,-0.598083 0.279489,-1.117955 z m 31.861706,0.262995 c 0,-0.591967 -0.11316,-0.924769 -0.279489,-0.821972 -0.153719,0.095 -0.279489,0.542621 -0.279489,0.994705 0,0.452084 0.12577,0.821971 0.279489,0.821971 0.153719,0 0.279489,-0.447617 0.279489,-0.994704 z M 58.26605,32.624085 c 0,-0.461156 -0.12577,-0.838466 -0.279488,-0.838466 -0.310871,0 -0.385748,1.198021 -0.09316,1.490606 0.315758,0.315758 0.372651,0.216193 0.372651,-0.65214 z"
       id="path14568"
       inkscape:connector-curvature="0"
       transform="matrix(0.26458333,0,0,0.26458333,0,87)" />
    <path
       style="opacity:1;fill:#ffffff;fill-opacity:1;fill-rule:nonzero;stroke:none;stroke-width:2.51338577;stroke-linecap:butt;stroke-linejoin:miter;stroke-miterlimit:4;stroke-dasharray:none;stroke-dashoffset:0;stroke-opacity:1;paint-order:stroke fill markers"
       d="M 46.108367,95.718648 C 45.26182,93.29701 41.203151,77.288224 40.538179,73.747914 c -0.766284,-4.079696 -0.48845,-7.546118 0.809563,-10.100589 0.273384,-0.538015 1.456347,-2.166042 2.628807,-3.617838 l 2.131745,-2.639625 -0.09324,-10.027988 c -0.05129,-5.515393 -0.0082,-10.646134 0.09568,-11.401645 0.381679,-2.775139 2.293721,-4.314354 5.359368,-4.314354 1.535474,0 1.828283,0.09361 2.622612,0.838466 0.491789,0.461156 1.297768,1.715137 1.791066,2.786624 l 0.896905,1.948158 0.15531,-3.370946 c 0.227145,-4.930079 1.161002,-6.521403 3.963419,-6.753801 1.19316,-0.09895 1.822819,0.01975 3.025472,0.570346 3.466147,1.586855 4.239789,4.46074 4.53264,16.837631 0.21361,9.027903 0.430563,12.829007 0.715413,12.534269 0.125851,-0.130222 0.368483,-3.129476 0.539178,-6.665008 0.540184,-11.188503 1.047613,-15.41528 2.093404,-17.437615 1.080855,-2.090147 3.310844,-3.077894 6.210852,-2.751021 2.387742,0.269133 2.497298,0.664305 2.885092,10.406533 1.094226,27.489473 0.917407,26.340501 5.591419,36.333525 1.458008,3.117218 1.916462,4.364366 2.260292,6.14875 0.342985,1.779997 1.095095,9.584899 1.095095,11.364179 v 1.352555 h -2.06927 -2.069269 l -0.1701,-3.004503 C 85.234011,87.385752 84.827372,84.29273 84.252391,82.992892 82.75586,79.609735 75.556247,72.595462 71.445416,70.515605 69.718143,69.6417 59.809028,65.883234 59.232266,65.883234 c -0.50106,0 -0.966216,0.879043 -0.966216,1.825936 0,2.074809 1.81659,3.863674 4.980305,4.904296 3.920079,1.28941 5.667126,2.513065 7.74466,5.42447 1.796246,2.517212 2.9264,4.94227 2.9264,6.279397 0,1.103561 -0.04349,1.15639 -1.472229,1.788244 -1.855173,0.820447 -2.092431,1.326772 -2.638309,5.630358 -0.233976,1.844625 -0.552152,3.511076 -0.707058,3.703224 -0.734214,0.910745 -2.349073,-0.0049 -2.989469,-1.695126 -0.457527,-1.207545 -0.356085,-4.26429 0.257978,-7.773689 0.792612,-4.529815 0.753673,-5.222123 -0.377009,-6.702929 -0.516383,-0.676287 -1.283757,-1.414188 -1.705275,-1.639777 -0.703427,-0.376463 -0.942946,-0.347628 -2.91517,0.350957 -2.518024,0.89191 -4.991605,1.000432 -6.802393,0.298435 -4.204968,-1.630162 -8.87942,-6.38787 -8.87942,-9.03757 0,-1.850243 1.3732,-1.486217 5.099684,1.351895 3.635365,2.768715 5.206087,3.805011 5.429164,3.581935 0.09702,-0.09702 -0.269245,-0.901491 -0.813928,-1.787705 -0.544683,-0.886213 -1.389375,-2.909298 -1.877093,-4.495737 -0.772127,-2.511563 -1.058432,-3.062544 -2.214748,-4.262202 -1.823162,-1.891498 -2.567398,-1.878476 -4.483657,0.07846 -1.968568,2.010351 -2.536865,3.289504 -2.536865,5.710099 0,4.475116 2.656638,15.594729 5.594397,23.415878 0.612332,1.630201 1.11333,3.025185 1.11333,3.099965 0,0.07478 -1.072991,0.135963 -2.384425,0.135963 -1.656079,0 -2.42173,-0.106715 -2.506553,-0.349361 z m 42.342458,-3.982713 c 0,-0.691735 -0.12577,-1.257699 -0.279489,-1.257699 -0.153719,0 -0.279489,0.565964 -0.279489,1.257699 0,0.691734 0.12577,1.257699 0.279489,1.257699 0.153719,0 0.279489,-0.565965 0.279489,-1.257699 z M 44.291618,83.630764 c 0,-0.384297 -0.12577,-0.698722 -0.279489,-0.698722 -0.312236,0 -0.383096,0.921184 -0.09316,1.211117 0.308092,0.308091 0.372652,0.219323 0.372652,-0.512395 z M 78.109745,67.718105 c 0,-0.220572 -0.144535,-0.755094 -0.321192,-1.187826 -0.218557,-0.535381 -0.387958,-5.609385 -0.530142,-15.879176 -0.114923,-8.300813 -0.298268,-15.312485 -0.407433,-15.581492 -0.577602,-1.42335 -1.750845,0.324097 -2.486356,3.703224 -0.250945,1.152891 -1.021688,6.114182 -1.712768,11.025091 -1.429168,10.155878 -1.642027,10.866515 -3.295635,11.002676 -2.340934,0.192755 -2.535263,-0.456827 -3.824643,-12.784609 -1.247305,-11.925511 -1.879686,-15.290007 -3.077633,-16.374134 -1.072437,-0.970543 -1.17348,0.268784 -1.025726,12.581005 0.167208,13.93344 0.440221,15.790921 2.612271,17.772918 1.689192,1.541388 4.742499,2.83676 8.814674,3.739636 1.47086,0.326119 2.576209,0.778807 3.492714,1.430418 1.485105,1.055869 1.761869,1.142622 1.761869,0.552269 z M 44.460987,62.459498 c 0.4609,-0.499586 1.00644,-1.131314 1.212313,-1.40384 0.83138,-1.100551 -0.527979,-0.139638 -1.526769,1.079251 -1.167883,1.425246 -0.928722,1.672116 0.314456,0.324589 z m 34.766712,-0.824491 c 0,-0.650119 -0.08391,-0.810456 -0.307253,-0.587111 -0.168987,0.168987 -0.223398,0.571451 -0.120909,0.894364 0.266861,0.840808 0.428162,0.725058 0.428162,-0.307253 z M 55.837871,58.276993 C 54.213823,46.200931 51.979884,35.69846 51.035282,35.69846 c -0.728562,0 -1.013912,2.192177 -1.000459,7.685938 0.0161,6.57348 0.595934,11.205854 1.68543,13.465084 0.692379,1.43575 3.852245,4.705029 4.287541,4.436002 0.119166,-0.07365 0.0427,-1.427469 -0.169923,-3.008491 z m 2.295702,-9.372694 c -0.08671,-0.345867 -0.299513,-0.62885 -0.472888,-0.62885 -0.364613,0 -0.156489,5.046519 0.232974,5.649069 0.26881,0.415887 0.482382,-4.053109 0.239914,-5.020219 z m 22.136082,3.633352 c -0.111412,-0.465814 -0.127122,-0.465814 -0.329883,0 -0.117095,0.269008 -0.117095,0.709203 0,0.978211 0.202761,0.465814 0.218471,0.465814 0.329883,0 0.06434,-0.269008 0.06434,-0.709203 0,-0.978211 z m -31.785707,0.06987 c 0,-0.538015 -0.12577,-0.97821 -0.279489,-0.97821 -0.153719,0 -0.279489,0.440195 -0.279489,0.97821 0,0.538016 0.12577,0.978211 0.279489,0.978211 0.153719,0 0.279489,-0.440195 0.279489,-0.978211 z M 58.26605,32.624085 c 0,-0.461156 -0.12577,-0.838466 -0.279488,-0.838466 -0.310871,0 -0.385748,1.198021 -0.09316,1.490606 0.315758,0.315758 0.372651,0.216193 0.372651,-0.65214 z"
       id="path14570"
       inkscape:connector-curvature="0"
       transform="matrix(0.26458333,0,0,0.26458333,0,87)" />
  </g>
</svg>
