<?xml version="1.0" encoding="UTF-8" standalone="no"?>
<!-- Created with Inkscape (http://www.inkscape.org/) -->

<svg
   xmlns:dc="http://purl.org/dc/elements/1.1/"
   xmlns:cc="http://creativecommons.org/ns#"
   xmlns:rdf="http://www.w3.org/1999/02/22-rdf-syntax-ns#"
   xmlns:svg="http://www.w3.org/2000/svg"
   xmlns="http://www.w3.org/2000/svg"
   xmlns:sodipodi="http://sodipodi.sourceforge.net/DTD/sodipodi-0.dtd"
   xmlns:inkscape="http://www.inkscape.org/namespaces/inkscape"
   width="297mm"
   height="210mm"
   viewBox="0 0 297 210"
   version="1.1"
   id="svg1549"
   sodipodi:docname="X.svg"
   inkscape:version="0.92.2 (5c3e80d, 2017-08-06)">
  <defs
     id="defs1543">
    <inkscape:path-effect
       effect="spiro"
       id="path-effect15155"
       is_visible="true" />
  </defs>
  <sodipodi:namedview
     id="base"
     pagecolor="#ffffff"
     bordercolor="#666666"
     borderopacity="1.0"
     inkscape:pageopacity="0.0"
     inkscape:pageshadow="2"
     inkscape:zoom="5.8152778"
     inkscape:cx="59.869476"
     inkscape:cy="733.39392"
     inkscape:document-units="mm"
     inkscape:current-layer="layer1"
     showgrid="false"
     inkscape:window-width="1366"
     inkscape:window-height="705"
     inkscape:window-x="-8"
     inkscape:window-y="-8"
     inkscape:window-maximized="1"
     showguides="true"
     inkscape:guide-bbox="true">
    <sodipodi:guide
       position="-33.777908,227.32284"
       orientation="0,1"
       id="guide4080"
       inkscape:locked="false" />
  </sodipodi:namedview>
  <metadata
     id="metadata1546">
    <rdf:RDF>
      <cc:Work
         rdf:about="">
        <dc:format>image/svg+xml</dc:format>
        <dc:type
           rdf:resource="http://purl.org/dc/dcmitype/StillImage" />
        <dc:title />
      </cc:Work>
    </rdf:RDF>
  </metadata>
  <g
     inkscape:label="Capa 1"
     inkscape:groupmode="layer"
     id="layer1"
     transform="translate(0,-87)">
    <path
       style="opacity:1;fill:#216778;fill-opacity:1;fill-rule:nonzero;stroke:none;stroke-width:0.66499996;stroke-linecap:butt;stroke-linejoin:miter;stroke-miterlimit:4;stroke-dasharray:none;stroke-dashoffset:0;stroke-opacity:1;paint-order:stroke fill markers"
       d="m 11.957838,107.23717 c -0.199303,-0.0948 -0.567791,-0.37616 -1.013817,-0.77411 -1.0424746,-0.93008 -1.4471556,-1.61305 -1.1856856,-2.00104 0.06861,-0.10181 0.204425,-0.19665 0.2816146,-0.19665 0.07167,0 0.134874,0.0873 0.1349,0.18635 2.7e-5,0.10021 0.113893,0.33269 0.272323,0.55599 0.07073,0.0997 0.348461,0.40829 0.617188,0.68578 0.580464,0.59938 0.895051,0.98085 1.032208,1.25166 0.10404,0.20542 0.122682,0.343 0.0483,0.35644 -0.02058,0.004 -0.104735,-0.0253 -0.187028,-0.0644 z"
       id="path2708"
       inkscape:connector-curvature="0" />
    <path
       style="opacity:1;fill:#216778;fill-opacity:1;fill-rule:nonzero;stroke:none;stroke-width:0.66499996;stroke-linecap:butt;stroke-linejoin:miter;stroke-miterlimit:4;stroke-dasharray:none;stroke-dashoffset:0;stroke-opacity:1;paint-order:stroke fill markers"
       d="m 9.6932314,103.3266 c -0.06055,-0.0605 0.01976,-0.84949 0.131699,-1.29357 0.106437,-0.42231 0.2503466,-0.67801 0.2500156,-0.44424 -2.65e-4,0.21713 -0.1932806,1.34074 -0.2794896,1.62733 -0.03231,0.10742 -0.06738,0.14532 -0.102225,0.11048 z"
       id="path2710"
       inkscape:connector-curvature="0" />
    <path
       style="opacity:1;fill:#216778;fill-opacity:1;fill-rule:nonzero;stroke:none;stroke-width:0.66499996;stroke-linecap:butt;stroke-linejoin:miter;stroke-miterlimit:4;stroke-dasharray:none;stroke-dashoffset:0;stroke-opacity:1;paint-order:stroke fill markers"
       d="m 20.574507,104.84057 c -0.01421,-0.0265 -0.02566,-0.14155 -0.02548,-0.25561 5.29e-4,-0.33625 0.0393,-0.40245 0.125015,-0.2136 0.06037,0.133 0.06599,0.38264 0.0104,0.46202 -0.0477,0.0681 -0.07633,0.07 -0.109927,0.007 z"
       id="path2716"
       inkscape:connector-curvature="0" />
    <path
       style="opacity:1;fill:#216778;fill-opacity:1;fill-rule:nonzero;stroke:none;stroke-width:0.66499996;stroke-linecap:butt;stroke-linejoin:miter;stroke-miterlimit:4;stroke-dasharray:none;stroke-dashoffset:0;stroke-opacity:1;paint-order:stroke fill markers"
       d="m 20.309715,107.50385 c -0.03013,-0.0487 -0.04295,-0.39885 -0.01807,-0.49369 0.03119,-0.11895 0.06939,-0.12067 0.115591,-0.005 0.05637,0.14088 0.0716,0.32524 0.0353,0.42712 -0.03203,0.0899 -0.09919,0.12617 -0.132816,0.0718 z"
       id="path2718"
       inkscape:connector-curvature="0" />
    <path
       style="opacity:1;fill:#216778;fill-opacity:1;fill-rule:nonzero;stroke:none;stroke-width:0.66499996;stroke-linecap:butt;stroke-linejoin:miter;stroke-miterlimit:4;stroke-dasharray:none;stroke-dashoffset:0;stroke-opacity:1;paint-order:stroke fill markers"
       d="m 16.427825,94.572566 c -0.142499,-0.03724 0.100978,-0.156032 0.321421,-0.156823 0.117372,-5.3e-4 0.16683,0.01109 0.211966,0.04931 0.05777,0.04893 0.05797,0.05056 0.01048,0.08728 -0.03562,0.02754 -0.108069,0.03666 -0.274307,0.03453 -0.124248,-0.0016 -0.245541,-0.008 -0.269544,-0.01429 z"
       id="path2720"
       inkscape:connector-curvature="0" />
    <path
       style="opacity:1;fill:#216778;fill-opacity:1;fill-rule:nonzero;stroke:none;stroke-width:0.66499996;stroke-linecap:butt;stroke-linejoin:miter;stroke-miterlimit:4;stroke-dasharray:none;stroke-dashoffset:0;stroke-opacity:1;paint-order:stroke fill markers"
       d="m 0.49672528,92.446668 c -0.11284,-0.06125 -0.246886,-0.211907 -0.246886,-0.277471 0,-0.07699 0.09326,-0.335827 0.190757,-0.529431 0.145449,-0.288824 0.316664,-0.546169 0.81281302,-1.221711 l 0.472319,-0.643091 -0.145688,-0.191833 C 0.88406128,88.666712 0.82027328,88.575854 0.63058528,88.230779 c -0.21295,-0.387395 -0.264258,-0.648631 -0.162181,-0.82578 0.136321,-0.236586 0.57421202,-0.20428 1.00335502,0.07403 0.2012,0.130479 0.450678,0.391075 0.784448,0.819404 0.162589,0.20865 0.303741,0.374343 0.313676,0.368202 0.0099,-0.0061 0.145585,-0.18736 0.301443,-0.402709 0.337015,-0.465651 0.475845,-0.622118 0.683405,-0.770231 0.251611,-0.179547 0.418687,-0.245274 0.627087,-0.246703 0.193595,-0.0013 0.26425,0.03132 0.36772,0.169905 0.07753,0.103841 0.0848,0.380724 0.0154,0.586623 -0.07991,0.237117 -0.190902,0.39106 -0.461026,0.63945 -0.777039,0.714524 -0.778679,1.095677 -0.0095,2.19963 0.442143,0.634553 0.669012,1.076066 0.669012,1.301975 0,0.121883 -0.08241,0.225801 -0.239291,0.301747 -0.09622,0.04658 -0.143436,0.05318 -0.311023,0.04348 -0.169188,-0.0098 -0.228063,-0.02655 -0.409631,-0.116516 -0.322564,-0.159837 -0.574714,-0.414366 -0.996889,-1.0063 -0.188447,-0.264218 -0.349866,-0.483113 -0.358711,-0.486431 -0.0088,-0.0033 -0.155816,0.215505 -0.326602,0.486275 -0.381987,0.60561 -0.615905,0.860263 -0.934985,1.017868 -0.174021,0.08595 -0.22259302,0.09865 -0.39899402,0.104283 -0.160525,0.0051 -0.218871,-0.0034 -0.290616,-0.04231 z"
       id="path2722"
       inkscape:connector-curvature="0" />
    <path
       style="opacity:1;fill:#216778;fill-opacity:1;fill-rule:nonzero;stroke:none;stroke-width:0.66499996;stroke-linecap:butt;stroke-linejoin:miter;stroke-miterlimit:4;stroke-dasharray:none;stroke-dashoffset:0;stroke-opacity:1;paint-order:stroke fill markers"
       d="m 14.624764,112.50982 c 0.07676,-0.16846 -0.01453,-0.44668 -0.436521,-1.33039 -0.579501,-1.21358 -0.784592,-2.00604 -0.787363,-3.04234 -0.0021,-0.79983 0.08559,-1.0983 0.430292,-1.46397 0.186177,-0.1975 0.266237,-0.33559 0.347195,-0.59882 0.210878,-0.68569 0.05153,-1.91634 -0.351539,-2.715 -0.198194,-0.3927 -0.306938,-0.78298 -0.269843,-0.96845 0.01699,-0.085 0.11717,-0.24078 0.222607,-0.34622 0.162324,-0.16232 0.224189,-0.19168 0.403672,-0.19152 0.382701,2.7e-4 0.634693,0.21909 1.621877,1.40792 1.064565,1.28202 1.384441,1.58436 1.676257,1.58436 0.196443,0 0.280408,-0.12453 0.279861,-0.41503 -5.29e-4,-0.29887 -0.125026,-0.59242 -0.46233,-1.09041 -0.275852,-0.40727 -0.425943,-0.79524 -0.482791,-1.24798 -0.04618,-0.3678 -0.129945,-0.53898 -0.326882,-0.66802 -0.149979,-0.0983 -0.159258,-0.2534 -0.03039,-0.50816 0.218122,-0.43119 0.258929,-1.092766 0.128926,-2.090176 -0.196525,-1.50776 -0.463455,-2.109743 -0.935498,-2.109743 -0.114041,0 -0.484741,-0.225004 -0.902893,-0.548031 -0.106945,-0.08262 -0.254958,-0.150209 -0.32892,-0.150209 -0.07396,0 -0.278228,0.09346 -0.453924,0.2077 -0.511755,0.332738 -0.91989,0.453448 -1.555414,0.460031 -0.647933,0.0067 -0.724234,-0.04405 -0.47022,-0.312843 0.227065,-0.240276 1.257313,-0.907656 1.875155,-1.2147 0.622564,-0.309387 0.911762,-0.346321 1.685551,-0.215259 1.147242,0.194315 1.973562,0.462185 2.292927,0.743302 0.504021,0.443656 1.124995,2.113792 1.97774,5.319198 l 0.25873,0.97255 -0.0047,1.22192 c -0.0029,0.75414 -0.03691,1.53696 -0.08888,2.04485 -0.281985,2.75546 -0.297468,2.97645 -0.298744,4.26425 -0.0013,1.20178 0.0087,1.35152 0.135483,2.04485 0.07522,0.41147 0.148825,0.79642 0.163565,0.85545 0.02178,0.0872 2.65e-4,0.11242 -0.114535,0.13444 -0.07774,0.0149 -1.292278,0.0422 -2.698983,0.0606 l -2.557645,0.0335 0.05815,-0.12762 z"
       id="path2724"
       inkscape:connector-curvature="0" />
    <path
       style="opacity:1;fill:#216778;fill-opacity:1;fill-rule:nonzero;stroke:none;stroke-width:0.66499996;stroke-linecap:butt;stroke-linejoin:miter;stroke-miterlimit:4;stroke-dasharray:none;stroke-dashoffset:0;stroke-opacity:1;paint-order:stroke fill markers"
       d="m 12.506131,105.43757 c -0.273561,-0.1812 -0.921657,-0.87286 -1.187037,-1.26683 -0.285721,-0.42417 -0.318016,-0.67728 -0.219234,-1.71821 0.114925,-1.21099 0.258233,-2.11164 0.379688,-2.38621 0.132101,-0.298626 0.263416,-0.436436 0.571587,-0.599826 0.230926,-0.12244 0.291801,-0.13174 0.822926,-0.12576 0.693303,0.008 1.343639,0.16131 1.972077,0.46549 0.698735,0.338196 0.821478,0.652086 0.314507,0.804266 -0.09181,0.0276 -0.645382,0.0683 -1.230167,0.0905 -1.288322,0.0489 -1.296548,0.0523 -1.392002,0.57619 -0.0598,0.3282 -0.161456,0.54871 -0.525549,1.14001 -0.327205,0.53137 -0.289158,0.89497 0.100173,0.95738 0.629825,0.10097 0.949971,0.59286 0.998601,1.53431 0.02172,0.42077 0.01297,0.50087 -0.06409,0.58603 -0.125246,0.13839 -0.269015,0.12318 -0.541483,-0.0573 z"
       id="path2726"
       inkscape:connector-curvature="0" />
    <path
       style="opacity:1;fill:#216778;fill-opacity:1;fill-rule:nonzero;stroke:none;stroke-width:0.66499996;stroke-linecap:butt;stroke-linejoin:miter;stroke-miterlimit:4;stroke-dasharray:none;stroke-dashoffset:0;stroke-opacity:1;paint-order:stroke fill markers"
       d="m 2.5500743,103.5284 v -9.097388 l 0.236903,-0.02822 c 0.130296,-0.01553 0.805733,-0.05501 1.500968,-0.08776 0.8146491,-0.03838 1.2701871,-0.07877 1.2812811,-0.113617 0.0095,-0.02974 0.04122,-0.603938 0.07056,-1.275996 0.02934,-0.672054 0.06669,-1.395857 0.08299,-1.608447 l 0.02964,-0.386524 h 9.2215606 9.221559 v 10.766212 10.76621 l -1.648952,0.0368 c -0.906926,0.0202 -1.659492,0.0262 -1.672372,0.0134 -0.03059,-0.0306 -0.153258,-1.12757 -0.193747,-1.73261 -0.03701,-0.55299 0.04227,-2.64707 0.150755,-3.98241 0.187948,-2.31336 0.18722,-4.41156 -0.0021,-5.92961 -0.133422,-1.070096 -0.238609,-1.480316 -0.597998,-2.332126 -0.115734,-0.27431 -0.362791,-0.95883 -0.549016,-1.52117 -0.186224,-0.562332 -0.424315,-1.194151 -0.529092,-1.404043 -0.380183,-0.761592 -0.981562,-1.230775 -1.840519,-1.43593 -0.907513,-0.216755 -3.067219,-0.262925 -3.765169,-0.08049 -0.632515,0.16533 -1.788961,0.836779 -2.310646,1.341594 -0.357862,0.346292 -0.462269,0.563438 -0.4934,1.02617 -0.04204,0.624919 0.100087,0.953649 0.502073,1.161279 0.264351,0.13654 0.982785,0.17077 2.07754,0.099 0.843526,-0.0553 1.552438,-0.0103 1.792455,0.11382 0.292674,0.15134 0.441777,0.50578 0.304249,0.72323 -0.07235,0.1144 -0.396695,0.0763 -1.302678,-0.15299 -1.09778,-0.27784 -1.552295,-0.28874 -2.240381,-0.0537 -0.738071,0.25208 -1.541719,0.66471 -1.858508,0.95424 -0.8032376,0.734106 -1.0226806,1.591006 -1.2841576,5.014466 -0.05447,0.7132 -0.09907,1.33136 -0.0991,1.37369 -3.4e-5,0.0423 0.639575,0.69143 1.4213556,1.44246 l 1.421418,1.3655 v 2.06121 2.06121 H 7.0137774 2.5500243 Z"
       id="path2728"
       inkscape:connector-curvature="0" />
    <path
       style="opacity:1;fill:#216778;fill-opacity:1;fill-rule:nonzero;stroke:none;stroke-width:0.66499996;stroke-linecap:butt;stroke-linejoin:miter;stroke-miterlimit:4;stroke-dasharray:none;stroke-dashoffset:0;stroke-opacity:1;paint-order:stroke fill markers"
       d="m 12.592679,112.48863 c 0.01701,-0.10287 0.03116,-0.55361 0.03146,-1.00164 2.64e-4,-0.56158 0.0173,-0.80903 0.05448,-0.79664 0.02966,0.01 0.182636,0.29971 0.339936,0.64404 0.337106,0.73795 0.552225,1.05536 0.82682,1.21998 l 0.200729,0.12034 -0.742172,5.3e-4 -0.742172,5.3e-4 z"
       id="path2730"
       inkscape:connector-curvature="0" />
    <path
       style="opacity:1;fill:#216778;fill-opacity:1;fill-rule:nonzero;stroke:none;stroke-width:0.66499996;stroke-linecap:butt;stroke-linejoin:miter;stroke-miterlimit:4;stroke-dasharray:none;stroke-dashoffset:0;stroke-opacity:1;paint-order:stroke fill markers"
       d="m 11.903765,111.21855 c -0.02389,-0.1459 -0.03307,-0.57956 -0.0268,-1.26577 0.0074,-0.80525 0.01561,-0.94414 0.05376,-0.90543 0.01413,0.0143 0.04355,0.2764 0.05888,0.52463 0.01601,0.25937 0.01577,0.99579 -5.29e-4,1.23717 -0.01289,0.19214 -0.04027,0.42245 -0.0526,0.4424 -0.0136,0.022 -0.02585,0.01 -0.03283,-0.033 z"
       id="path2732"
       inkscape:connector-curvature="0" />
    <path
       style="opacity:1;fill:#216778;fill-opacity:1;fill-rule:nonzero;stroke:none;stroke-width:0.66499996;stroke-linecap:butt;stroke-linejoin:miter;stroke-miterlimit:4;stroke-dasharray:none;stroke-dashoffset:0;stroke-opacity:1;paint-order:stroke fill markers"
       d="m 12.761824,110.80929 c -0.07571,-0.14099 -0.09985,-0.15011 -0.115099,-0.0435 -0.0044,0.0309 -0.0146,0.0584 -0.02265,0.061 -0.0113,0.004 -0.01461,-0.0393 -0.01461,-0.19002 0,-0.14907 0.0034,-0.19376 0.01439,-0.19009 0.01289,0.004 0.196083,0.39688 0.196083,0.42022 0,0.0278 -0.02617,0.002 -0.05812,-0.0577 z"
       id="path2734"
       inkscape:connector-curvature="0" />
    <path
       style="opacity:1;fill:#ffffff;fill-opacity:1;fill-rule:nonzero;stroke:none;stroke-width:2.51338577;stroke-linecap:butt;stroke-linejoin:miter;stroke-miterlimit:4;stroke-dasharray:none;stroke-dashoffset:0;stroke-opacity:1;paint-order:stroke fill markers"
       d="m 43.395628,88.704417 v -7.438625 l -5.355702,-5.26045 -5.355703,-5.260452 0.203645,-2.837354 c 0.368096,-5.128654 0.881617,-10.367236 1.230542,-12.553141 1.09299,-6.847234 2.776067,-9.073353 8.774171,-11.605131 3.819062,-1.612013 5.432553,-1.72693 9.874912,-0.703314 4.94475,1.139378 5.485298,1.173055 5.690731,0.354549 0.156853,-0.624951 -0.03818,-1.202427 -0.636079,-1.883398 -0.869257,-0.990031 -1.244696,-1.037317 -8.235927,-1.037317 -7.000141,0 -7.002522,-3.6e-4 -8.073877,-1.220565 -0.693192,-0.789504 -0.925324,-1.763083 -0.822145,-3.44815 0.106678,-1.742223 0.641093,-2.81756 2.013137,-4.050788 2.105445,-1.892429 6.266649,-4.264346 8.602493,-4.903485 0.946091,-0.258871 1.830776,-0.304893 5.760688,-0.299671 7.93299,0.01054 10.768832,0.733926 13.412945,3.421469 1.52775,1.552844 2.027559,2.598571 4.073902,8.52364 0.473637,1.371388 1.327065,3.692612 1.896506,5.158276 1.635733,4.21015 2.141101,6.715588 2.566883,12.72565 0.236756,3.341913 0.08456,13.354403 -0.269237,17.711966 -0.655356,8.071799 -0.78836,15.038307 -0.359493,18.829711 0.139079,1.22952 0.254378,2.37091 0.256224,2.536422 0.003,0.26557 -0.187249,0.300932 -1.618685,0.300932 -1.394599,0 -1.635129,-0.0422 -1.715388,-0.300932 -0.05134,-0.165512 -0.295972,-1.461667 -0.543623,-2.880344 -0.442715,-2.536102 -0.448877,-2.681913 -0.366998,-8.684022 0.07232,-5.301674 0.155118,-6.771836 0.629454,-11.177454 0.44951,-4.175023 0.563114,-6.046751 0.641882,-10.575591 l 0.09571,-5.502746 -0.722853,-2.751374 c -2.092151,-7.963294 -4.27228,-14.773853 -5.680046,-17.744036 -1.138293,-2.40163 -1.741998,-3.227248 -2.806011,-3.837456 -2.751978,-1.578251 -9.811624,-2.99042 -12.097998,-2.42001 -2.260219,0.563884 -9.214622,4.837177 -9.736653,5.982909 -0.28052,0.615676 0.03961,0.731249 2.025831,0.731355 2.618433,1.39e-4 3.608531,-0.296249 6.604548,-1.977088 1.077134,-0.604297 1.531789,-0.547338 2.741912,0.343503 1.319703,0.971511 2.800044,1.810721 3.194052,1.810721 0.563855,0 1.279012,0.573375 1.70072,1.363547 1.593169,2.985185 2.425671,11.101556 1.412297,13.769006 -0.756627,1.991626 -0.756758,1.983855 0.04712,2.802944 0.599005,0.610342 0.757743,0.917107 0.911965,1.762377 0.368407,2.019217 1.019786,3.759965 1.969065,5.262144 1.345112,2.128559 1.691009,2.976044 1.69802,4.16031 0.0047,0.797527 -0.0623,1.054636 -0.324983,1.246716 -1.118573,0.81792 -2.139179,-0.0454 -7.358481,-6.224457 -3.285364,-3.889495 -4.473661,-4.877879 -5.869464,-4.882015 -0.570196,-0.0017 -1.471431,0.693649 -1.943836,1.499748 -0.431343,0.736034 -0.447245,0.83816 -0.265455,1.704858 0.106358,0.507057 0.516007,1.637614 0.910334,2.512347 1.780214,3.94905 2.208149,8.806696 0.986738,11.200858 -0.197447,0.387029 -0.653284,1.052703 -1.012971,1.479276 -1.145302,1.358279 -1.416741,2.202492 -1.499036,4.662202 -0.148469,4.437606 0.46361,6.893901 3.230864,12.965546 0.646585,1.418677 1.229907,2.869596 1.29627,3.224266 l 0.12066,0.644853 H 53.417649 51.536093 L 51.01343,95.206318 c -0.672482,-0.940325 -1.481146,-2.532403 -2.366255,-4.65863 -0.387461,-0.930768 -0.772073,-1.6659 -0.854693,-1.633628 -0.08262,0.03227 -0.157776,1.58042 -0.167013,3.440327 -0.0092,1.859906 -0.05549,3.417763 -0.102777,3.461902 -0.04729,0.04414 -0.995223,0.135715 -2.10652,0.203502 l -2.02054,0.123249 z m 1.975408,-0.986993 c -0.0012,-1.957774 -0.07353,-3.791736 -0.160775,-4.075472 -0.150907,-0.49076 -0.164629,-0.469824 -0.281783,0.429902 -0.15828,1.215581 -0.18686,5.488527 -0.04463,6.672817 0.07993,0.665509 0.160887,0.860786 0.299437,0.722235 0.126464,-0.126463 0.189177,-1.378887 0.187751,-3.749482 z M 77.344144,77.100997 c 0.142186,-0.566514 -0.198895,-1.842625 -0.468767,-1.753835 -0.213584,0.07027 -0.379818,1.539533 -0.221011,1.95338 0.149714,0.390149 0.57247,0.26785 0.689778,-0.199545 z m -31.429199,-1.31827 c -0.393743,-1.021152 -1.60335,-2.558071 -4.231877,-5.376992 -2.09518,-2.246945 -2.41421,-2.697584 -3.341454,-4.719902 -0.269605,-0.588008 -0.501041,-0.608148 -1.10908,-0.09652 -0.969514,0.815792 -0.889391,2.027014 0.252817,3.821814 1.683876,2.645947 7.894729,7.930152 8.550283,7.274598 0.104277,-0.104277 0.06024,-0.433776 -0.120689,-0.903002 z m 3.311642,-5.751229 c 0.394997,-0.276666 0.402616,-0.331494 0.316634,-2.278481 -0.151062,-3.420631 -1.154787,-5.169968 -3.314557,-5.776759 -2.128134,-0.597904 -2.140123,-1.318644 -0.08129,-4.887192 0.500288,-0.867145 0.989422,-2.009111 1.184936,-2.766436 0.449763,-1.742155 0.485305,-1.814038 1.016656,-2.056144 0.267256,-0.121774 2.216683,-0.310862 4.605183,-0.44669 2.277962,-0.129542 4.335932,-0.30936 4.573267,-0.399594 0.531246,-0.20198 1.000769,-0.655087 1.000769,-0.965779 0,-0.486171 -0.955995,-1.335116 -2.216197,-1.968033 -2.547111,-1.279246 -5.255669,-1.90368 -8.242866,-1.900317 -1.546765,0.0017 -2.66731,0.361862 -3.571023,1.147656 -1.324236,1.151448 -1.881822,3.418817 -2.571811,10.45802 -0.314287,3.206325 -0.254463,4.539027 0.255502,5.691888 0.977683,2.210215 5.124833,6.387509 6.377395,6.42375 0.144468,0.0042 0.444801,-0.119968 0.667406,-0.275889 z m 29.043282,-3.378267 c 0.05427,-0.829532 -0.207886,-1.580545 -0.490702,-1.405755 -0.186108,0.115019 -0.225181,2.025011 -0.04511,2.205081 0.270876,0.270876 0.486881,-0.05136 0.535812,-0.799326 z M 37.03566,61.330034 c 0.240289,-0.556143 1.029182,-5.013578 1.029182,-5.815125 0,-1.393431 -0.504989,-0.60132 -1.039857,1.631093 -0.423574,1.767898 -0.642819,4.570944 -0.357524,4.570944 0.110566,0 0.276255,-0.17411 0.368199,-0.386912 z M 64.258718,28.587318 c 0.06223,-0.06223 0.02696,-0.216997 -0.07838,-0.343922 -0.364839,-0.439604 -2.212943,-0.196447 -2.212943,0.29116 0,0.183888 2.111571,0.23251 2.29132,0.05276 z"
       id="path15159"
       inkscape:connector-curvature="0"
       transform="matrix(0.26458333,0,0,0.26458333,0,87)" />
    <path
       style="opacity:1;fill:#ffffff;fill-opacity:1;fill-rule:nonzero;stroke:none;stroke-width:2.51338577;stroke-linecap:butt;stroke-linejoin:miter;stroke-miterlimit:4;stroke-dasharray:none;stroke-dashoffset:0;stroke-opacity:1;paint-order:stroke fill markers"
       d="m 43.395628,88.681297 v -7.480425 l -1.074755,-1.003627 c -0.591115,-0.551994 -3.000086,-2.899418 -5.353268,-5.216496 l -4.278512,-4.212866 0.116314,-1.903067 c 0.06397,-1.046686 0.269225,-3.682859 0.456116,-5.858164 1.107425,-12.889769 2.180778,-15.500515 7.510212,-18.267289 2.182129,-1.132852 4.679271,-2.052324 6.225212,-2.292185 1.511092,-0.234454 3.13535,-0.04472 6.721376,0.785146 1.37747,0.318769 2.899475,0.631977 3.382233,0.696017 0.820261,0.108812 0.897372,0.08647 1.177567,-0.341158 0.624524,-0.953146 -0.32079,-2.446308 -1.813472,-2.864451 -0.552555,-0.154786 -2.543974,-0.220513 -6.964413,-0.229859 -6.898174,-0.01459 -6.920468,-0.01792 -7.948639,-1.188943 -0.731946,-0.83364 -0.966095,-1.78308 -0.861403,-3.492861 0.105691,-1.726099 0.630808,-2.796529 1.97419,-4.024304 2.011035,-1.837974 5.81391,-4.050847 8.306879,-4.833732 1.207297,-0.379137 1.54034,-0.402077 5.837308,-0.402077 6.65544,0 9.318869,0.434086 11.842917,1.930159 2.389172,1.416129 3.610622,3.355456 5.445163,8.645432 0.54119,1.560545 1.555677,4.364914 2.254416,6.231931 1.777282,4.748879 2.2056,6.795478 2.654494,12.683761 0.255619,3.353047 0.113069,13.526783 -0.256607,18.313828 -0.394834,5.112817 -0.615427,9.794848 -0.611691,12.983043 0.003,2.548965 0.07221,3.685614 0.44773,7.351326 l 0.110097,1.074755 h -1.654098 c -1.572951,0 -1.658696,-0.01898 -1.747823,-0.386912 -0.743461,-3.069128 -0.817908,-3.836061 -0.89722,-9.242895 -0.08122,-5.536879 0.0158,-7.581557 0.64708,-13.636404 0.444318,-4.261676 0.673882,-8.55489 0.677934,-12.678463 l 0.0033,-3.358095 -1.120465,-4.122201 c -3.096095,-11.390552 -5.248771,-17.22781 -7.072213,-19.177218 -1.2199,-1.304171 -4.005527,-2.309033 -8.5476,-3.083387 -2.455518,-0.418628 -3.530979,-0.435466 -4.766605,-0.07463 -1.986385,0.58008 -6.926066,3.492821 -8.646911,5.098752 -1.029618,0.960863 -1.048156,0.993656 -0.713175,1.261538 0.283977,0.227094 0.688604,0.262032 2.321471,0.200451 2.30429,-0.0869 3.466777,-0.424773 5.503533,-1.599573 0.727494,-0.419618 1.540819,-0.762942 1.807389,-0.762942 0.315454,0 1.106203,0.419415 2.264819,1.201261 0.979078,0.660694 1.991488,1.247352 2.249801,1.303684 1.463497,0.319158 1.987891,0.946122 2.720243,3.252315 0.581035,1.829688 1.111734,5.748945 1.114888,8.233535 0.0028,2.224288 -0.125036,3.05885 -0.695525,4.53983 -0.191662,0.497551 -0.348477,0.982919 -0.348477,1.078597 0,0.09568 0.312028,0.512469 0.693396,0.926205 0.578763,0.627882 0.736106,0.96129 0.951729,2.016698 0.428872,2.099195 0.893306,3.278509 2.06368,5.240195 1.223763,2.05117 1.711966,3.399299 1.563132,4.316453 -0.19586,1.206948 -0.914546,1.40206 -2.185966,0.593457 -0.82261,-0.523167 -1.756,-1.527709 -5.800299,-6.242452 -1.430232,-1.667327 -2.906733,-3.274108 -3.281116,-3.570624 -0.947431,-0.75038 -1.854141,-1.099775 -2.52662,-0.973618 -0.634439,0.119023 -1.892273,1.36929 -2.063358,2.050948 -0.133897,0.533491 0.272572,1.955439 1.137978,3.980983 0.868636,2.033101 1.350166,4.053581 1.481372,6.21579 0.16895,2.784182 -0.272417,4.396621 -1.663043,6.075578 -0.352513,0.425603 -0.763293,1.012918 -0.912844,1.305145 -0.49004,0.957553 -0.691881,2.758771 -0.57607,5.140822 0.178132,3.663918 0.684987,5.468996 2.994424,10.664136 0.798832,1.79699 1.493298,3.518748 1.543257,3.826128 l 0.09083,0.558873 h -1.905807 -1.905808 l -0.53746,-0.781174 c -0.295604,-0.429644 -0.983124,-1.725799 -1.527824,-2.880344 -0.5447,-1.154543 -1.138421,-2.4087 -1.31938,-2.787013 l -0.329016,-0.687844 -0.08598,3.468321 c -0.04729,1.907575 -0.133388,3.515528 -0.191331,3.573228 -0.05794,0.0577 -1.005878,0.153167 -2.106521,0.212153 l -2.001169,0.107245 z m 1.929808,-1.146888 c -0.0095,-4.3992 -0.283988,-5.399012 -0.468573,-1.706566 -0.141067,2.821887 0.02056,5.772969 0.300818,5.492705 0.108766,-0.108765 0.172571,-1.548816 0.167755,-3.786139 z m 31.93344,-10.392681 c 0.170203,-0.447669 0.05828,-1.294783 -0.216893,-1.641597 -0.245319,-0.309187 -0.429329,0.147201 -0.445827,1.105757 -0.01699,0.987229 0.371635,1.301453 0.66272,0.53584 z m -31.115651,-0.67914 c -0.01508,-0.858152 -1.183838,-2.461635 -4.042223,-5.545737 -2.381638,-2.569707 -3.057309,-3.452762 -3.445511,-4.503044 -0.451515,-1.221572 -0.534842,-1.295335 -1.120918,-0.992264 -1.189208,0.614965 -1.253524,1.878629 -0.188648,3.706571 1.047883,1.798774 5.902706,6.408593 7.664687,7.277879 0.6516,0.321473 1.137693,0.345762 1.132613,0.0566 z m 3.099071,-6.491522 c 0.276319,-0.276319 0.343667,-0.572081 0.342623,-1.504657 -0.0042,-3.720268 -1.135239,-5.862752 -3.437918,-6.512105 -1.079267,-0.304352 -1.547647,-0.74553 -1.547647,-1.457762 0,-0.277392 0.555022,-1.571247 1.264284,-2.947273 0.695356,-1.349048 1.360505,-2.839727 1.478107,-3.312619 0.35049,-1.409358 0.524676,-1.750298 1.006344,-1.969761 0.254648,-0.116024 2.254982,-0.318683 4.50235,-0.456142 4.209147,-0.257453 4.923606,-0.379045 5.414506,-0.921483 0.618043,-0.682929 -0.296703,-1.635409 -2.586782,-2.693491 -2.857559,-1.320274 -7.322656,-1.977871 -9.376218,-1.380885 -1.237055,0.359621 -2.392162,1.363805 -2.884049,2.50723 -0.679572,1.579706 -1.596672,8.239405 -1.623997,11.792965 -0.01203,1.563963 0.04668,2.025591 0.338979,2.665393 1.019635,2.231866 5.270085,6.534512 6.455242,6.534512 0.17064,0 0.465019,-0.154765 0.654176,-0.343922 z m 28.993109,-2.846689 c 0.107137,-0.426864 -0.0059,-1.583835 -0.170874,-1.748799 -0.04504,-0.04504 -0.164426,-0.03089 -0.265296,0.03145 -0.198529,0.122698 -0.256825,1.853877 -0.06876,2.04194 0.221915,0.221918 0.395824,0.110121 0.50493,-0.324596 z M 37.042527,61.262189 c 0.230143,-0.605319 1.022315,-5.14648 1.022315,-5.860458 0,-0.882652 -0.283684,-0.663311 -0.661597,0.511537 -0.685143,2.12996 -1.150525,5.803678 -0.735202,5.803678 0.110872,0 0.27939,-0.20464 0.374484,-0.454757 z M 64.116908,28.356545 c 0,-0.324453 -1.030023,-0.434141 -1.696677,-0.180679 -0.743782,0.282785 -0.354676,0.546326 0.723075,0.489739 0.728065,-0.03823 0.973602,-0.11617 0.973602,-0.30906 z"
       id="path15161"
       inkscape:connector-curvature="0"
       transform="matrix(0.26458333,0,0,0.26458333,0,87)" />
  </g>
</svg>
