<?xml version="1.0" encoding="UTF-8" standalone="no"?>
<!-- Created with Inkscape (http://www.inkscape.org/) -->

<svg
   xmlns:dc="http://purl.org/dc/elements/1.1/"
   xmlns:cc="http://creativecommons.org/ns#"
   xmlns:rdf="http://www.w3.org/1999/02/22-rdf-syntax-ns#"
   xmlns:svg="http://www.w3.org/2000/svg"
   xmlns="http://www.w3.org/2000/svg"
   xmlns:sodipodi="http://sodipodi.sourceforge.net/DTD/sodipodi-0.dtd"
   xmlns:inkscape="http://www.inkscape.org/namespaces/inkscape"
   width="297mm"
   height="210mm"
   viewBox="0 0 297 210"
   version="1.1"
   id="svg1549"
   sodipodi:docname="Y.svg"
   inkscape:version="0.92.2 (5c3e80d, 2017-08-06)">
  <defs
     id="defs1543">
    <inkscape:path-effect
       effect="spiro"
       id="path-effect15744"
       is_visible="true" />
  </defs>
  <sodipodi:namedview
     id="base"
     pagecolor="#ffffff"
     bordercolor="#666666"
     borderopacity="1.0"
     inkscape:pageopacity="0.0"
     inkscape:pageshadow="2"
     inkscape:zoom="6.6898465"
     inkscape:cx="37.486803"
     inkscape:cy="733.39392"
     inkscape:document-units="mm"
     inkscape:current-layer="layer1"
     showgrid="false"
     inkscape:window-width="1366"
     inkscape:window-height="705"
     inkscape:window-x="-8"
     inkscape:window-y="-8"
     inkscape:window-maximized="1"
     showguides="true"
     inkscape:guide-bbox="true">
    <sodipodi:guide
       position="-33.777908,227.32284"
       orientation="0,1"
       id="guide4080"
       inkscape:locked="false" />
  </sodipodi:namedview>
  <metadata
     id="metadata1546">
    <rdf:RDF>
      <cc:Work
         rdf:about="">
        <dc:format>image/svg+xml</dc:format>
        <dc:type
           rdf:resource="http://purl.org/dc/dcmitype/StillImage" />
        <dc:title />
      </cc:Work>
    </rdf:RDF>
  </metadata>
  <g
     inkscape:label="Capa 1"
     inkscape:groupmode="layer"
     id="layer1"
     transform="translate(0,-87)">
    <path
       style="opacity:1;fill:#216778;fill-opacity:1;fill-rule:nonzero;stroke:none;stroke-width:0.66499996;stroke-linecap:butt;stroke-linejoin:miter;stroke-miterlimit:4;stroke-dasharray:none;stroke-dashoffset:0;stroke-opacity:1;paint-order:stroke fill markers"
       d="m 15.810691,99.230084 c -0.04767,-0.0574 0.0249,-0.19133 0.15612,-0.28805 0.207423,-0.15287 0.411475,-0.23162 0.603994,-0.23309 0.150593,-0.001 0.175958,0.005 0.183893,0.0448 0.02748,0.13765 -0.591005,0.51498 -0.844116,0.51498 -0.03732,0 -0.08227,-0.0174 -0.09989,-0.0386 z"
       id="path2810"
       inkscape:connector-curvature="0" />
    <path
       style="opacity:1;fill:#216778;fill-opacity:1;fill-rule:nonzero;stroke:none;stroke-width:0.66499996;stroke-linecap:butt;stroke-linejoin:miter;stroke-miterlimit:4;stroke-dasharray:none;stroke-dashoffset:0;stroke-opacity:1;paint-order:stroke fill markers"
       d="m 15.583774,97.716344 c -0.05647,-0.10502 -0.03345,-0.56732 0.02825,-0.56732 0.09262,0 0.160043,0.40823 0.08984,0.54398 -0.04857,0.0939 -0.07711,0.0996 -0.118094,0.0233 z"
       id="path2812"
       inkscape:connector-curvature="0" />
    <path
       style="opacity:1;fill:#216778;fill-opacity:1;fill-rule:nonzero;stroke:none;stroke-width:0.66499996;stroke-linecap:butt;stroke-linejoin:miter;stroke-miterlimit:4;stroke-dasharray:none;stroke-dashoffset:0;stroke-opacity:1;paint-order:stroke fill markers"
       d="m 20.879182,93.51264 c -0.04511,-0.0093 -0.08241,-0.02813 -0.08288,-0.04184 -0.0019,-0.05213 0.239519,-0.08941 0.526494,-0.08134 0.293979,0.0083 0.43252,0.04532 0.377,0.100843 -0.03118,0.03118 -0.690637,0.04913 -0.820616,0.02233 z"
       id="path2814"
       inkscape:connector-curvature="0" />
    <path
       style="opacity:1;fill:#216778;fill-opacity:1;fill-rule:nonzero;stroke:none;stroke-width:0.66499996;stroke-linecap:butt;stroke-linejoin:miter;stroke-miterlimit:4;stroke-dasharray:none;stroke-dashoffset:0;stroke-opacity:1;paint-order:stroke fill markers"
       d="m 14.2853,100.15331 c -0.178457,-0.0985 -0.360723,-0.495666 -0.949566,-2.069136 -0.791853,-2.115946 -0.867693,-2.778294 -0.397383,-3.470467 0.170079,-0.250312 0.32281,-0.403704 0.420145,-0.421963 0.128476,-0.0241 0.302059,0.106892 0.677442,0.511238 0.390154,0.420254 0.609203,0.695558 0.704339,0.885222 0.09456,0.188521 0.09503,0.272116 0.0021,0.359013 -0.16337,0.152633 -0.202621,0.342367 -0.201846,0.975727 5.3e-4,0.45298 0.0076,0.57922 0.08796,1.57269 0.05704,0.70531 0.055,1.36932 -0.0048,1.546106 l -0.04636,0.13715 -0.112218,0.006 c -0.0636,0.003 -0.141489,-0.0103 -0.179779,-0.0314 z"
       id="path2816"
       inkscape:connector-curvature="0" />
    <path
       style="opacity:1;fill:#216778;fill-opacity:1;fill-rule:nonzero;stroke:none;stroke-width:0.66499996;stroke-linecap:butt;stroke-linejoin:miter;stroke-miterlimit:4;stroke-dasharray:none;stroke-dashoffset:0;stroke-opacity:1;paint-order:stroke fill markers"
       d="m 13.130938,102.25138 c -0.304397,-0.13327 -1.015452,-1.23752 -1.832313,-2.845536 -0.491646,-0.96783 -0.744382,-1.62563 -0.767607,-1.99789 -0.01527,-0.24472 0.01574,-0.34399 0.118668,-0.37987 0.164066,-0.0572 0.530389,0.10306 0.731063,0.31981 0.300971,0.32508 0.751123,1.07351 1.260282,2.09535 0.512503,1.028556 0.879543,1.953376 0.916826,2.310086 0.01349,0.12903 0.0066,0.16782 -0.05134,0.29035 -0.105624,0.22328 -0.209185,0.28055 -0.375579,0.2077 z"
       id="path2818"
       inkscape:connector-curvature="0" />
    <path
       style="opacity:1;fill:#216778;fill-opacity:1;fill-rule:nonzero;stroke:none;stroke-width:0.66499996;stroke-linecap:butt;stroke-linejoin:miter;stroke-miterlimit:4;stroke-dasharray:none;stroke-dashoffset:0;stroke-opacity:1;paint-order:stroke fill markers"
       d="m 10.438769,100.82926 c -0.5432508,-0.38624 -1.9859998,-1.935526 -2.4402018,-2.620396 -0.158438,-0.23891 -0.167056,-0.29934 -0.07061,-0.49525 0.135696,-0.27564 0.420102,-0.53965 0.581342,-0.53965 0.192564,0 0.457586,0.38924 1.41773,2.08225 0.4348238,0.766716 0.7226618,1.398026 0.7226618,1.585006 0,0.0994 -0.05894,0.0961 -0.210923,-0.012 z"
       id="path2822"
       inkscape:connector-curvature="0" />
    <path
       style="opacity:1;fill:#216778;fill-opacity:1;fill-rule:nonzero;stroke:none;stroke-width:0.66499996;stroke-linecap:butt;stroke-linejoin:miter;stroke-miterlimit:4;stroke-dasharray:none;stroke-dashoffset:0;stroke-opacity:1;paint-order:stroke fill markers"
       d="m 2.1069229,92.477688 c -0.217244,-0.11458 -0.284454,-0.319606 -0.32358,-0.98711 -0.03153,-0.537935 -0.07714,-0.834059 -0.173268,-1.12496 -0.120147,-0.363586 -0.388493,-0.886715 -0.72248502,-1.408449 -0.374285,-0.584676 -0.512386,-0.835612 -0.602776,-1.095259 -0.08352,-0.2399 -0.08743,-0.323524 -0.02029,-0.433641 0.07388,-0.121169 0.193686,-0.162915 0.473655,-0.165031 0.220345,-0.0016 0.249483,0.0042 0.40579902,0.08109 0.330147,0.162496 0.505513,0.37143 0.96511,1.149847 l 0.256686,0.434745 0.05252,-0.06244 c 0.02889,-0.03434 0.228158,-0.275023 0.442822,-0.534847 0.398701,-0.482574 0.57839,-0.660127 0.857452,-0.847259 0.402412,-0.269846 0.780978,-0.289026 0.896575,-0.04542 0.124446,0.26225 -0.07701,0.758296 -0.689565,1.697932 -0.528609,0.810866 -0.785313,1.452885 -0.905619,2.264973 -0.08022,0.541457 -0.182584,0.803918 -0.390565,1.001348 -0.154114,0.146301 -0.336904,0.172357 -0.522475,0.07448 z m 0.348083,-0.89808 c 0.01524,-0.01836 0.04108,-0.119454 0.05743,-0.224671 0.0531,-0.341524 -0.05881,-0.887243 -0.142679,-0.695807 -0.03364,0.07678 -0.04356,0.733748 -0.01281,0.847961 0.02995,0.111223 0.05225,0.127712 0.09805,0.07252 z"
       id="path2824"
       inkscape:connector-curvature="0" />
    <path
       style="opacity:1;fill:#216778;fill-opacity:1;fill-rule:nonzero;stroke:none;stroke-width:0.66499996;stroke-linecap:butt;stroke-linejoin:miter;stroke-miterlimit:4;stroke-dasharray:none;stroke-dashoffset:0;stroke-opacity:1;paint-order:stroke fill markers"
       d="m 3.0817829,98.944504 c 0,-2.770518 0.0028,-5.038526 0.0062,-5.040018 0.0034,-0.0016 0.626949,-0.03961 1.385599,-0.08471 0.75865,-0.0451 1.3834113,-0.08605 1.3883593,-0.091 0.0049,-0.0049 0.06822,-0.780402 0.14062,-1.723234 l 0.131625,-1.714238 0.562269,1.4e-5 c 0.535908,10e-6 6.6352048,-0.04542 13.3642598,-0.09955 1.719504,-0.01384 3.422399,-0.02516 3.784214,-0.02516 h 0.657844 v 6.907596 6.907596 h -1.479894 -1.479894 l 0.09659,-0.4177 c 0.253011,-1.09412 0.406757,-1.98243 0.435258,-2.51481 0.02627,-0.49082 -0.02638,-0.8156 -0.249743,-1.540306 -0.234489,-0.76083 -0.193735,-1.07551 0.341141,-2.63428 0.365233,-1.064375 0.457515,-1.355054 0.566047,-1.783005 0.276267,-1.089318 0.177281,-1.638191 -0.337984,-1.874086 -0.249563,-0.114255 -0.453081,-0.142933 -1.021133,-0.143899 -0.568312,-0.0011 -0.709097,0.02114 -0.97077,0.152514 -0.333676,0.167505 -0.753938,0.565753 -1.140679,1.080931 -0.420942,0.560737 -0.636598,0.968685 -0.77783,1.471391 -0.27695,0.985794 -0.734526,1.835724 -1.027938,1.909364 -0.04894,0.0123 -0.08088,-5.3e-4 -0.139234,-0.0558 -0.178525,-0.169 -0.453885,-0.61365 -0.862156,-1.39219 -0.506963,-0.966734 -0.84288,-1.508169 -1.20446,-1.941361 -0.242398,-0.290409 -0.423164,-0.45639 -0.684781,-0.628779 -0.38939,-0.256585 -0.693743,-0.340559 -1.228969,-0.339085 -0.692327,0.0019 -0.901417,0.0937 -1.165674,0.511731 -0.266349,0.421338 -0.635,1.426622 -0.635315,1.732457 -1.25e-4,0.128434 -0.08141,0.247142 -0.207362,0.302855 -0.129358,0.05722 -0.205433,0.06866 -0.654087,0.09835 -0.450366,0.0298 -0.6858078,0.09928 -0.8503318,0.250931 l -0.114149,0.105221 -0.17799,-0.0118 c -0.13479,-0.009 -0.24969,-0.0403 -0.473409,-0.129079 -0.376248,-0.149365 -0.527304,-0.178456 -0.724836,-0.139594 -0.467808,0.09204 -1.286431,0.727113 -1.286431,0.998003 0,0.11889 -0.05057,0.2231 -0.116255,0.23959 -0.211606,0.0531 -0.605055,-0.35012 -1.134618,-1.162819 C 5.4039079,95.52499 5.1906669,95.318859 4.8772229,95.23851 c -0.138845,-0.03559 -0.196064,-0.03753 -0.398994,-0.01352 -0.288623,0.03414 -0.392057,0.06213 -0.501084,0.135602 -0.227269,0.153156 -0.306959,0.460557 -0.30847,1.189892 -0.0011,0.45819 0.01524,0.57044 0.151067,1.04736 0.19894,0.69854 0.609055,1.54773 1.112935,2.30446 0.352592,0.529526 0.624697,0.867896 1.1153203,1.386936 0.37752,0.39938 0.520197,0.58456 0.753837,0.97839 0.244568,0.41225 0.47008,0.89389 0.741302,1.58321 l 0.05151,0.13092 -2.2168963,0.7119 -2.296001,-0.7119 z"
       id="path2826"
       inkscape:connector-curvature="0"
       sodipodi:nodetypes="ccscccccscccccccccccccsccccccccccccccccscccccccccsccccc" />
    <path
       style="opacity:1;fill:#216778;fill-opacity:1;fill-rule:nonzero;stroke:none;stroke-width:0.66499996;stroke-linecap:butt;stroke-linejoin:miter;stroke-miterlimit:4;stroke-dasharray:none;stroke-dashoffset:0;stroke-opacity:1;paint-order:stroke fill markers"
       d="m 9.9212432,106.66879 c -0.442581,-0.76154 -0.74549,-1.44576 -1.145381,-2.58723 -0.56611,-1.61592 -0.986581,-2.40785 -1.707983,-3.21689 -0.300408,-0.33691 -0.529942,-0.62671 -0.833194,-1.051976 -0.8521173,-1.19499 -1.6780963,-2.72302 -1.7451473,-3.22849 -0.01664,-0.12535 0.01312,-0.23316 0.06434,-0.23316 0.05624,0 0.220009,0.18414 0.333333,0.3748 0.29564,0.49741 0.70376,0.96253 1.9467623,2.21866 0.536098,0.54176 1.037396,1.069176 1.113999,1.172046 0.276632,0.37149 0.351906,0.5983 0.285842,0.8613 -0.04961,0.19748 -0.0513,0.44677 -0.0039,0.58099 0.122346,0.34677 0.447128,0.47616 0.756685,0.30145 0.128516,-0.0725 0.150172,-0.0766 0.40101,-0.0757 0.433959,0.002 1.1559748,0.15356 1.6684838,0.3512 0.259339,0.10002 0.294428,0.13872 0.145949,0.16099 -0.334645,0.0502 -1.139388,0.58652 -1.6645438,1.10937 -0.268232,0.26705 -0.371004,0.4234 -0.371004,0.56439 0,0.39794 0.558565,0.49393 1.1471088,0.19712 0.06172,-0.0311 0.263856,-0.16705 0.449191,-0.30205 0.499475,-0.36383 0.799195,-0.50825 0.872215,-0.42027 0.05037,0.0607 -1.01e-4,0.19035 -0.187997,0.48289 -0.207915,0.32372 -0.376973,0.67283 -0.415676,0.85838 -0.02487,0.11922 -0.02376,0.16168 0.0064,0.24711 0.05535,0.1567 0.142147,0.20781 0.349025,0.20554 0.358798,-0.004 0.74082,-0.28334 1.020312,-0.74624 0.233347,-0.38647 0.658551,-0.77052 1.201002,-1.08476 0.157258,-0.0911 0.531008,-0.45594 0.702006,-0.68527 0.08161,-0.10945 0.204795,-0.31144 0.273749,-0.44887 0.154529,-0.308 0.263612,-0.46995 0.479033,-0.71121 0.361849,-0.40525 0.856403,-0.81425 1.65304,-1.36709 0.691488,-0.479856 0.975606,-0.701026 1.242145,-0.966936 0.41702,-0.41603 0.603832,-0.75212 1.065945,-1.91776 0.647478,-1.633216 1.018066,-2.352837 1.435126,-2.786799 0.301387,-0.3136 0.527892,-0.408929 0.916544,-0.385741 0.347289,0.02072 0.434117,0.08264 0.433787,0.309356 -2.65e-4,0.234119 -0.07676,0.483907 -0.547788,1.790504 -0.410324,1.13821 -0.488765,1.78381 -0.386361,3.17987 0.10885,1.483936 0.06293,2.644936 -0.135768,3.432936 -0.28843,1.14384 -0.824291,3.56505 -0.886291,4.00457 l -0.01672,0.11845 H 14.96762 10.098758 Z"
       id="path2828"
       inkscape:connector-curvature="0" />
    <path
       style="opacity:1;fill:#216778;fill-opacity:1;fill-rule:nonzero;stroke:none;stroke-width:0.66499996;stroke-linecap:butt;stroke-linejoin:miter;stroke-miterlimit:4;stroke-dasharray:none;stroke-dashoffset:0;stroke-opacity:1;paint-order:stroke fill markers"
       d="m 15.78727,112.3452 c -0.493942,-0.0465 -0.722299,-0.12071 -0.810318,-0.26336 -0.02807,-0.0455 -0.07888,-0.1725 -0.112903,-0.28223 -0.03402,-0.10972 -0.09451,-0.2556 -0.134429,-0.32418 -0.226108,-0.38849 -0.760162,-0.86671 -1.573221,-1.40875 -1.248106,-0.83206 -2.123098,-1.69494 -2.913441,-2.87308 -0.07089,-0.10568 -0.128894,-0.19826 -0.128894,-0.20573 0,-0.007 2.239126,-1.53523 4.856514,-1.00235 l 4.865944,0.98875 -0.0081,0.33041 c 0.0019,0.51152 0.04612,0.63584 0.745598,2.09853 0.242041,0.50614 0.434901,0.93373 0.428578,0.95021 -0.0063,0.0165 -0.130662,0.19055 -0.276305,0.38682 -0.353377,0.47623 -0.480136,0.68462 -0.565366,0.92948 -0.07712,0.22155 -0.08612,0.30126 -0.04596,0.40689 0.03436,0.0904 -0.0036,0.12703 -0.177792,0.1717 -0.31917,0.0819 -0.609108,0.0943 -2.329418,0.10031 -0.946367,0.003 -1.765552,0.002 -1.820416,-0.003 z"
       id="path2830"
       inkscape:connector-curvature="0"
       sodipodi:nodetypes="ccscccssccccccccccc" />
    <path
       style="opacity:1;fill:#216778;fill-opacity:1;fill-rule:nonzero;stroke:none;stroke-width:0.66499996;stroke-linecap:butt;stroke-linejoin:miter;stroke-miterlimit:4;stroke-dasharray:none;stroke-dashoffset:0;stroke-opacity:1;paint-order:stroke fill markers"
       d="m 22.933746,109.71848 c -0.05481,-0.059 -0.136465,-0.16073 -0.181444,-0.22611 -0.09781,-0.14215 -0.385985,-0.28176 -0.584374,-0.28309 -0.348473,-0.002 -0.665388,-0.28355 -0.905095,-0.80316 -0.465828,-1.00978 -0.45825,-1.3059 0.09187,-3.58954 l 0.202139,-0.83912 1.794476,-1.70065 1.161674,1.70065 -0.01122,2.69045 -0.01122,2.69046 -0.544883,0.20321 c -0.299685,0.11177 -0.627536,0.21693 -0.728559,0.23368 -0.160351,0.0266 -0.196334,0.0169 -0.28334,-0.0768 z"
       id="path4086"
       inkscape:connector-curvature="0"
       sodipodi:nodetypes="cccccccccccccc" />
    <path
       style="opacity:1;fill:#216778;fill-opacity:1;fill-rule:nonzero;stroke:none;stroke-width:0.66499996;stroke-linecap:butt;stroke-linejoin:miter;stroke-miterlimit:4;stroke-dasharray:none;stroke-dashoffset:0;stroke-opacity:1;paint-order:stroke fill markers"
       d="m 3.1093469,108.05318 v -4.07572 h 2.235986 2.2359883 l 0.190707,0.53398 c 0.542485,1.51896 1.224245,2.82789 2.05392,3.94335 0.4000898,0.53791 1.4778228,1.61435 1.9361288,1.93381 0.191799,0.1337 0.571857,0.39796 0.844574,0.58726 0.272716,0.1893 0.6258,0.46555 0.784629,0.61389 0.287796,0.26878 0.288404,0.26985 0.177888,0.31275 -0.362178,0.14059 -3.120636,0.22333 -7.5065598,0.22517 l -2.9532613,0.001 z"
       id="path4088"
       inkscape:connector-curvature="0" />
    <path
       style="opacity:1;fill:#ffffff;fill-opacity:1;fill-rule:nonzero;stroke:none;stroke-width:2.51338577;stroke-linecap:butt;stroke-linejoin:miter;stroke-miterlimit:4;stroke-dasharray:none;stroke-dashoffset:0;stroke-opacity:1;paint-order:stroke fill markers"
       d="m 80.55309,95.50211 -4.573072,-0.04174 0.03796,-0.901631 c 0.04974,-1.181399 0.706808,-2.552813 2.213161,-4.619261 0.627016,-0.860154 1.140029,-1.644222 1.140029,-1.742372 0,-0.09815 -0.813072,-1.916149 -1.806828,-4.039994 -2.318286,-4.954623 -2.528099,-5.57646 -2.528099,-7.492667 0,-1.84045 0.63056,-5.035567 2.912536,-14.758141 0.443817,-1.890925 0.884412,-4.108508 0.9791,-4.92796 0.247187,-2.139223 0.250879,-6.316214 0.0093,-10.543247 -0.324359,-5.67591 -0.113813,-7.025415 2.052301,-13.154263 1.666483,-4.715184 1.801865,-5.540707 0.995311,-6.069181 -0.587395,-0.384875 -2.393149,-0.342396 -3.258807,0.07666 -0.762941,0.369334 -1.851446,1.482828 -2.701567,2.763591 -0.836142,1.259701 -2.459761,4.704459 -3.978464,8.440928 -2.754815,6.777678 -3.094075,7.206133 -9.142284,11.545857 -4.560034,3.271927 -6.165399,4.788771 -7.460618,7.049232 -1.606466,2.803658 -2.640538,3.960743 -4.83564,5.410888 -1.631337,1.077706 -2.896109,2.310951 -3.998232,3.898566 -1.097634,1.581147 -2.157427,2.341555 -3.379722,2.424971 -1.051162,0.07174 -1.368607,-0.132652 -1.478496,-0.951934 -0.09818,-0.73196 0.240097,-1.583788 1.477726,-3.721169 0.475822,-0.821736 0.865129,-1.614224 0.865129,-1.761084 0,-0.740009 -1.067839,-0.330649 -3.457698,1.325525 -1.985333,1.375836 -2.778457,1.705404 -4.104157,1.705404 -0.885527,0 -1.024248,-0.04273 -1.418459,-0.436942 -0.240744,-0.240743 -0.436942,-0.5984 -0.436942,-0.796514 0,-1.386732 4.912108,-5.513864 7.443084,-6.253645 0.810011,-0.23676 0.660249,-0.411753 -0.791213,-0.924509 -2.946233,-1.040814 -6.259855,-1.38729 -7.698233,-0.804936 -0.922311,0.373414 -1.649567,0.160256 -2.178091,-0.638397 C 31.089011,55.01545 31.074408,54.909413 31.1181,53.138646 l 0.04569,-1.851719 -0.523181,-0.874955 c -0.326538,-0.546093 -2.106991,-2.516318 -4.737012,-5.241908 -4.843076,-5.019063 -5.966229,-6.285503 -7.19488,-8.112768 -0.99174,-1.474928 -1.266651,-1.75609 -1.594167,-1.63041 -0.541656,0.207852 -0.07009,1.795517 1.404895,4.730042 2.205927,4.388741 4.79299,8.282796 8.130494,12.238042 2.963444,3.511952 4.154417,5.765676 6.540076,12.37603 2.22485,6.164782 4.042826,9.728716 6.913318,13.552774 2.51292,3.347703 5.326197,5.908251 10.418151,9.482235 3.393453,2.381826 4.800568,3.850332 5.548056,5.790112 0.253448,0.657713 0.538224,1.291103 0.632835,1.407533 0.145051,0.178504 0.07828,0.196338 -0.425901,0.113756 -0.328857,-0.05387 -2.705593,-0.09868 -5.281635,-0.09958 -3.679741,-0.0013 -4.670451,-0.0417 -4.621839,-0.188496 0.04209,-0.127079 0.623252,-0.220024 1.81677,-0.290552 1.997137,-0.118018 3.378076,-0.364655 3.378076,-0.603331 0,-0.388895 -2.323334,-2.254838 -6.203431,-4.982168 -1.650799,-1.160349 -2.630851,-2.009173 -4.641012,-4.019581 -2.702729,-2.703059 -3.971712,-4.280537 -5.777856,-7.182487 -2.193832,-3.524851 -3.642604,-6.56339 -5.416675,-11.3605 -2.725602,-7.37007 -3.732063,-9.212951 -7.020729,-12.855302 -2.142726,-2.37317 -3.816147,-4.639506 -5.16805,-6.999159 -1.628251,-2.841998 -2.897404,-6.069573 -3.303362,-8.400754 -0.20392,-1.170998 -0.104038,-4.291741 0.166962,-5.216584 0.352,-1.201275 1.369359,-1.7534 3.282654,-1.781509 1.717356,-0.02523 2.534682,0.649399 4.779999,3.945463 0.696968,1.023129 1.679117,2.276849 2.182553,2.786046 1.32405,1.339198 2.006264,1.41265 2.226311,0.2397 0.05601,-0.298572 0.273367,-0.767741 0.48301,-1.042597 0.488482,-0.640433 1.966207,-1.751385 3.07225,-2.309713 1.354188,-0.683593 1.883205,-0.695511 3.702707,-0.08342 2.130582,0.716742 2.712074,0.788258 3.076078,0.378317 0.51682,-0.582043 1.446435,-0.86576 3.56982,-1.089505 2.750957,-0.289872 2.849526,-0.361239 3.211444,-2.325146 0.382994,-2.078277 1.850648,-5.406901 2.873077,-6.516104 0.873133,-0.947238 1.700182,-1.16155 4.141439,-1.073165 1.477564,0.0535 2.055749,0.138305 2.680577,0.393198 2.736686,1.116405 4.975745,3.709753 7.955281,9.214054 2.718907,5.022825 3.880328,6.801352 4.441446,6.801352 0.132028,0 0.553278,-0.324967 0.936111,-0.722148 0.912965,-0.947186 1.987869,-3.175693 2.972413,-6.162458 1.136013,-3.446267 2.529164,-5.693198 5.105685,-8.234659 1.846588,-1.821459 2.684335,-2.215865 4.941864,-2.326593 2.21019,-0.108407 3.960483,0.126139 4.967123,0.665613 0.620279,0.332417 0.848599,0.569171 1.180141,1.223732 0.345441,0.682003 0.41107,1.000436 0.41107,1.994502 0,1.846282 -0.482757,3.800804 -2.314343,9.369998 -2.470264,7.51118 -2.526487,7.943997 -1.496001,11.516546 0.762019,2.641809 0.922955,4.066207 0.705097,6.240582 -0.271558,2.71032 -1.051062,6.629692 -2.732147,13.737336 -1.86435,7.882486 -1.913002,9.308931 -0.43263,12.684535 0.622893,1.420346 1.403058,2.513896 2.175774,3.049765 0.255693,0.177319 0.886881,0.390359 1.40264,0.473419 1.244232,0.200378 1.639435,0.42569 2.495184,1.422544 l 0.719607,0.838261 0.747402,-0.07636 c 0.41107,-0.042 1.655493,-0.406963 2.765384,-0.81103 l 2.017984,-0.734667 0.09187,2.328194 c 0.05053,1.280508 0.100977,3.757601 0.11211,5.504651 l 0.02024,3.176456 -3.774376,-0.03513 c -2.075907,-0.01932 -5.83226,-0.05391 -8.347449,-0.07686 z M 50.440884,57.702424 c 0.355724,-0.136506 0.827999,-1.156239 0.827999,-1.787811 0,-2.203163 -4.848359,-12.383289 -7.7118,-16.192506 -1.050187,-1.397058 -2.690337,-2.227416 -3.435394,-1.739236 -0.557581,0.36534 -0.498182,1.494584 0.187862,3.571435 1.032876,3.126805 5.446548,11.435621 7.661542,14.422982 1.11709,1.506619 1.798641,1.98268 2.469791,1.725136 z M 40.230789,52.050575 c -0.124349,-1.049489 -2.242403,-5.1783 -5.063714,-9.870907 -1.894794,-3.151556 -2.635231,-3.959827 -3.371181,-3.68002 -0.865748,0.329157 -2.052168,1.93894 -2.052168,2.784465 0,0.82161 2.787499,4.302367 6.293189,7.858322 3.180542,3.226146 4.325634,4.020182 4.193874,2.90814 z m 15.066202,-2.737981 c 0.225468,-0.811873 0.19266,-3.751238 -0.08257,-7.397446 -0.263967,-3.497026 -0.226701,-6.843553 0.08283,-7.438469 0.106939,-0.205536 0.333578,-0.526424 0.503642,-0.713085 0.282048,-0.309577 0.291975,-0.388347 0.113027,-0.896881 -0.356976,-1.014447 -3.168961,-4.396242 -4.392476,-5.282552 -0.851123,-0.616551 -1.153061,-0.563437 -1.971437,0.346794 -2.274792,2.530117 -2.321608,4.998116 -0.21108,11.127764 1.013577,2.943751 2.9778,7.976557 3.589141,9.196234 0.635917,1.268706 1.009627,1.618192 1.730352,1.618192 0.430682,0 0.499726,-0.06061 0.638568,-0.560551 z m 6.231262,-3.393663 c 1.127893,-0.564263 1.947167,-1.296026 1.770699,-1.58156 -0.168409,-0.27249 -1.400188,-0.099 -2.226244,0.313548 -1.069266,0.534017 -1.765497,1.475593 -1.24608,1.685183 0.393008,0.158582 0.70236,0.08274 1.701625,-0.417171 z m -2.076204,-6.477294 c -0.06874,-0.876442 -0.327132,-1.30178 -0.563608,-0.927742 -0.206223,0.32619 -0.177237,1.850509 0.03931,2.067054 0.329887,0.329886 0.594438,-0.244991 0.524301,-1.139312 z M 82.042497,24.530648 c 0.04697,-0.04697 -0.01354,-0.147981 -0.134489,-0.224466 -0.243555,-0.154028 -2.674314,-0.196225 -3.047791,-0.05291 -0.312394,0.119878 -0.300458,0.316571 0.02514,0.414317 0.325201,0.09762 3.040339,-0.02014 3.157136,-0.136942 z"
       id="path15746"
       inkscape:connector-curvature="0"
       transform="matrix(0.26458333,0,0,0.26458333,0,87)" />
    <path
       style="opacity:1;fill:#ffffff;fill-opacity:1;fill-rule:nonzero;stroke:none;stroke-width:2.51338577;stroke-linecap:butt;stroke-linejoin:miter;stroke-miterlimit:4;stroke-dasharray:none;stroke-dashoffset:0;stroke-opacity:1;paint-order:stroke fill markers"
       d="m 79.880442,95.50215 -3.900398,-0.0424 0.03795,-0.901321 c 0.04956,-1.177057 0.696457,-2.532831 2.226523,-4.666378 l 1.155571,-1.611343 -0.224207,-0.556121 c -0.123314,-0.305866 -0.938473,-2.089355 -1.811465,-3.963312 -2.098458,-4.504528 -2.328171,-5.20586 -2.328171,-7.108078 0,-1.85226 0.726508,-5.569458 2.829564,-14.477542 1.126136,-4.770065 1.123869,-4.750496 1.122492,-9.686608 -7.47e-4,-2.466424 -0.03254,-6.132428 -0.07078,-8.146674 -0.0869,-4.577344 -0.04036,-4.832597 1.972543,-10.816732 2.045365,-6.080652 2.040086,-6.391031 -0.110575,-6.499635 -1.46196,-0.07382 -2.225903,0.214792 -3.27209,1.236198 -1.567401,1.530273 -2.857278,3.952588 -5.418535,10.175698 -2.8391,6.89819 -3.128654,7.264859 -9.154931,11.593166 -4.68569,3.365445 -6.152803,4.803115 -7.869188,7.711258 -1.284944,2.177135 -2.328011,3.312192 -4.286892,4.664956 -1.670398,1.153542 -3.176893,2.630365 -4.345385,4.259796 -0.973326,1.357274 -2.046398,2.075102 -3.230037,2.160719 -0.73536,0.05319 -0.917363,0.01434 -1.184571,-0.252869 -0.632049,-0.632048 -0.315155,-1.867972 1.095666,-4.273211 0.924189,-1.575606 1.089547,-2.011293 0.82533,-2.174588 -0.322399,-0.199254 -1.050782,0.152281 -3.134839,1.512949 -2.323289,1.51686 -2.955341,1.779011 -4.289232,1.779011 -0.866529,0 -1.008641,-0.04431 -1.401269,-0.436942 -0.558235,-0.558235 -0.551228,-0.983548 0.03068,-1.862066 1.112895,-1.680165 5.341759,-4.820748 7.043761,-5.231078 0.226088,-0.05451 0.41107,-0.156805 0.41107,-0.227328 0,-0.415024 -3.643272,-1.444103 -5.991331,-1.692312 -1.497461,-0.158295 -1.638189,-0.148664 -2.643426,0.18089 -0.979417,0.321091 -1.105813,0.33132 -1.629785,0.131894 -0.328391,-0.124986 -0.714061,-0.432898 -0.914194,-0.729874 -0.323206,-0.479606 -0.343299,-0.637924 -0.302857,-2.386377 0.04186,-1.809729 0.02961,-1.895635 -0.364254,-2.555102 C 30.275979,49.811796 28.703249,48.08192 24.00932,43.193101 20.824832,39.876394 20.037167,38.950874 18.200003,36.367058 17.811482,35.820634 17.39235,35.37356 17.2686,35.37356 c -0.745731,0 -0.160351,2.00845 1.546832,5.30721 2.130063,4.115882 4.536652,7.721886 7.659709,11.477214 3.06731,3.688292 4.214508,5.811733 6.558696,12.140006 2.289352,6.180242 3.489639,8.705018 5.756141,12.107901 2.852813,4.283161 5.63956,7.045616 10.791772,10.6977 4.243817,3.008178 5.772453,4.511661 6.462609,6.356267 0.171472,0.458301 0.418661,1.039984 0.549309,1.292629 l 0.237542,0.459354 -1.02477,-0.09677 c -0.563624,-0.05322 -2.930644,-0.09724 -5.260044,-0.09783 -3.321161,-8.97e-4 -4.221932,-0.04139 -4.173459,-0.187914 0.04054,-0.122538 0.546465,-0.218845 1.469889,-0.279807 2.181278,-0.144004 3.233708,-0.291179 3.506011,-0.490292 0.22088,-0.161511 0.12877,-0.294445 -0.799531,-1.153909 -0.577043,-0.534253 -2.4095,-1.942705 -4.072127,-3.129892 -4.582692,-3.272237 -8.039962,-6.729998 -10.673202,-10.674714 -2.440779,-3.656404 -4.358233,-7.49392 -6.12661,-12.261564 -1.567601,-4.226339 -1.865778,-4.964428 -2.777838,-6.876092 -1.114541,-2.336061 -2.289964,-4.05467 -4.345001,-6.352911 -3.501942,-3.916382 -5.628388,-7.204412 -7.21371,-11.154247 -1.335259,-3.326801 -1.725951,-5.984944 -1.282635,-8.726628 0.279107,-1.726138 0.852005,-2.289683 2.605154,-2.562623 2.094694,-0.326114 3.115763,0.322414 5.181344,3.29091 2.243939,3.224819 3.292999,4.344081 4.124959,4.400995 0.359795,0.02461 0.432048,-0.05212 0.6327,-0.67194 0.124587,-0.384851 0.372913,-0.896736 0.551838,-1.137523 0.430705,-0.579621 2.001035,-1.750004 3.07629,-2.292791 1.352031,-0.682504 1.866484,-0.691948 3.787656,-0.06954 1.826637,0.591785 2.747545,0.678438 3.069202,0.288797 0.394561,-0.477953 1.437923,-0.790565 3.406256,-1.020582 2.794401,-0.32655 2.900257,-0.403293 3.301063,-2.393171 0.408158,-2.02639 1.858374,-5.329025 2.795503,-6.366314 0.866433,-0.959038 1.223176,-1.082221 3.33935,-1.153072 3.166252,-0.106009 4.51689,0.434617 6.806805,2.724592 1.61422,1.614261 2.738721,3.272397 4.924354,7.261219 2.640794,4.819499 3.696153,6.427651 4.218183,6.427651 0.131909,0 0.53021,-0.303052 0.885112,-0.673448 0.85077,-0.887911 2.073213,-3.416031 3.048502,-6.304566 0.421431,-1.248163 1.065567,-2.794639 1.431411,-3.436613 1.591834,-2.793307 4.18842,-5.615727 5.975992,-6.495746 0.887128,-0.436732 1.11546,-0.481324 2.791941,-0.545258 4.637002,-0.176835 6.384946,0.889083 6.384946,3.89362 0,1.811258 -0.467699,3.738446 -2.171221,8.946665 -2.623194,8.01995 -2.649557,8.22579 -1.557924,12.164099 0.650027,2.345112 0.662658,2.43389 0.648673,4.559148 -0.01942,2.951713 -0.463941,5.413254 -2.753371,15.246986 -1.21999,5.240183 -1.545767,7.230102 -1.445081,8.82687 0.168687,2.675185 1.879629,6.160994 3.413275,6.954072 0.239275,0.123736 0.818795,0.295912 1.28782,0.382616 1.158879,0.214231 1.538224,0.436841 2.380013,1.396654 0.573087,0.653439 0.813512,0.822475 1.171969,0.823974 0.248034,0.001 1.499092,-0.356098 2.780131,-0.793633 l 2.329158,-0.795519 0.09736,2.687984 c 0.05355,1.478393 0.09736,3.95526 0.09736,5.504149 v 2.816162 l -4.447037,-0.03478 c -2.445871,-0.01913 -6.202217,-0.05386 -8.347436,-0.07718 z M 50.668743,57.464585 c 0.518653,-0.556709 0.674362,-1.339293 0.462106,-2.322501 -0.479513,-2.221181 -3.561747,-8.930997 -5.907799,-12.860881 -1.880628,-3.15025 -3.282934,-4.4534 -4.668723,-4.338605 -0.768124,0.06363 -0.919654,0.499424 -0.673261,1.93627 0.256088,1.493399 1.178337,3.756906 2.945355,7.228892 2.908282,5.714439 5.374231,9.599037 6.611334,10.414804 0.542949,0.358031 0.857205,0.343229 1.230988,-0.05798 z M 40.165745,51.960166 c -0.206752,-1.541454 -5.632561,-11.339397 -7.177807,-12.96171 -0.304538,-0.319724 -0.60424,-0.48581 -0.87665,-0.48581 -0.780349,0 -2.367562,1.803806 -2.367562,2.690644 0,0.214451 0.18985,0.688961 0.421889,1.054467 1.843969,2.904609 8.927795,10.296777 9.874561,10.304375 0.155136,0.0012 0.186384,-0.148555 0.125569,-0.601966 z m 15.093299,-2.684942 c 0.244047,-0.715647 0.233516,-3.218314 -0.02893,-6.876092 -0.247294,-3.446559 -0.282598,-6.519107 -0.0847,-7.371716 0.07281,-0.313701 0.312125,-0.829728 0.531806,-1.146727 L 56.076632,33.304326 55.78787,32.65729 c -0.320357,-0.717835 -1.087646,-1.733792 -2.56522,-3.396571 -1.133452,-1.275524 -2.161812,-2.108573 -2.602936,-2.108573 -0.451207,0 -1.661026,1.367247 -2.226218,2.515906 -0.470087,0.955372 -0.487742,1.057264 -0.483074,2.788009 0.0042,1.550936 0.07043,2.03485 0.484804,3.541504 0.539653,1.962161 1.816216,5.565005 3.274525,9.241692 1.59028,4.00942 2.02475,4.692952 2.927558,4.605804 0.401859,-0.03879 0.513392,-0.134837 0.661735,-0.569837 z m 6.445741,-3.47038 c 0.971045,-0.484166 1.747627,-1.219167 1.578048,-1.493553 -0.165803,-0.268276 -1.540345,-0.0034 -2.346815,0.452212 -0.987925,0.558142 -1.425085,1.112015 -1.144513,1.450081 0.251103,0.302563 0.663299,0.214505 1.91328,-0.40874 z m -2.214487,-6.027881 c 0,-0.548162 -0.273732,-1.413798 -0.447072,-1.413798 -0.323181,0 -0.420996,1.587951 -0.131172,2.12949 0.16381,0.306082 0.175622,0.307231 0.373701,0.03634 0.112499,-0.153851 0.204543,-0.492267 0.204543,-0.752035 z M 82.049361,24.515489 c 0.290093,-0.251455 -2.248719,-0.493148 -3.054854,-0.290821 -0.492836,0.123694 -0.471354,0.351475 0.04033,0.42766 0.439724,0.06547 2.910513,-0.04669 3.014519,-0.136839 z"
       id="path15748"
       inkscape:connector-curvature="0"
       transform="matrix(0.26458333,0,0,0.26458333,0,87)" />
    <path
       style="opacity:1;fill:#ffffff;fill-opacity:1;fill-rule:nonzero;stroke:none;stroke-width:2.51338577;stroke-linecap:butt;stroke-linejoin:miter;stroke-miterlimit:4;stroke-dasharray:none;stroke-dashoffset:0;stroke-opacity:1;paint-order:stroke fill markers"
       d="m 79.326663,95.50211 c -2.266773,-0.02736 -3.524552,-0.09591 -3.467038,-0.18897 0.04964,-0.08032 0.113052,-0.481137 0.140911,-0.890701 0.06954,-1.022255 0.763237,-2.434367 2.182582,-4.442916 0.653431,-0.924684 1.188054,-1.717007 1.188054,-1.760718 0,-0.04371 -0.835,-1.885375 -1.855557,-4.092589 -2.277757,-4.926235 -2.47937,-5.540351 -2.47937,-7.552212 0,-1.753967 0.567744,-4.72555 2.445386,-12.799195 0.621403,-2.671959 1.211711,-5.362604 1.311797,-5.97921 0.197662,-1.217754 0.247967,-6.218276 0.132329,-13.154263 -0.08559,-5.133659 -0.126979,-4.894794 1.890853,-10.912059 1.035041,-3.086533 1.45005,-4.537953 1.506422,-5.268436 l 0.07781,-1.00825 -0.538411,-0.224963 c -0.615403,-0.257131 -1.87191,-0.292871 -2.640738,-0.07511 -1.084454,0.307154 -2.553295,1.824406 -3.716689,3.839187 -0.764193,1.323438 -1.899959,3.816895 -3.545754,7.784343 -2.658969,6.409859 -3.073625,6.946433 -8.283504,10.719035 -5.290371,3.830891 -6.784778,5.258708 -8.545716,8.164935 -1.373634,2.267022 -2.31268,3.310136 -4.157245,4.617962 -1.985548,1.407786 -2.95488,2.325303 -4.164967,3.942336 -1.464815,1.957425 -2.451722,2.636824 -3.830287,2.636824 -1.19619,0 -1.56449,-0.787278 -1.050205,-2.24492 0.123849,-0.351024 0.66792,-1.432548 1.209047,-2.403387 0.541128,-0.970838 0.940322,-1.835619 0.887102,-1.921733 -0.266853,-0.431775 -1.277396,0.02461 -3.710391,1.675704 -1.658813,1.125713 -2.517123,1.45629 -3.781107,1.45629 -0.885527,0 -1.024248,-0.04273 -1.418459,-0.436942 -0.548392,-0.548391 -0.55071,-0.969417 -0.01003,-1.821978 0.980736,-1.54646 4.815697,-4.47417 6.785512,-5.180238 0.390517,-0.139978 0.710031,-0.301151 0.710031,-0.358161 0,-0.342386 -3.764128,-1.369674 -5.949673,-1.623758 -1.407758,-0.16366 -1.594056,-0.153603 -2.553637,0.137861 -1.27291,0.386634 -1.463062,0.388613 -2.065161,0.02149 -0.794282,-0.484301 -0.941333,-0.956158 -0.942911,-3.025603 -0.0013,-1.762055 -0.01962,-1.869656 -0.439309,-2.585958 -0.47724,-0.814538 -2.042201,-2.541822 -6.704553,-7.39997 -3.094008,-3.223944 -4.180239,-4.490926 -5.55419,-6.478415 -0.795885,-1.151289 -1.162093,-1.447548 -1.374639,-1.112073 -0.746178,1.177735 4.148923,10.026741 8.526401,15.413404 4.038454,4.969482 5.122709,6.870295 7.347412,12.880798 1.595524,4.31064 2.338276,6.114702 3.33909,8.110266 2.098052,4.183398 4.339826,7.274213 7.513283,10.358836 1.856071,1.804114 3.16948,2.872489 6.01552,4.893236 2.685697,1.906902 4.508358,3.442341 5.24595,4.419275 0.333939,0.442299 0.87404,1.428592 1.200225,2.191762 l 0.593063,1.387583 -1.455557,-0.09639 c -0.800555,-0.05301 -3.15963,-0.09674 -5.242387,-0.09716 -2.962672,-5.98e-4 -3.77328,-0.04144 -3.724554,-0.187615 0.04184,-0.125524 0.720459,-0.240892 2.06781,-0.351532 2.357208,-0.19357 2.977151,-0.313127 2.977151,-0.57415 0,-0.416422 -1.726143,-1.807927 -6.502392,-5.241809 -1.913079,-1.375407 -6.242545,-5.605208 -7.654731,-7.47852 -3.168756,-4.203456 -5.352966,-8.403112 -7.965633,-15.315798 -2.647581,-7.005065 -3.582676,-8.690329 -6.868327,-12.378365 -0.901588,-1.012003 -2.002986,-2.323693 -2.44755,-2.914865 -2.789165,-3.708974 -4.8618,-7.845897 -5.73109,-11.439102 -0.347612,-1.436854 -0.37872,-1.803087 -0.315223,-3.711082 0.06152,-1.848545 0.115903,-2.208588 0.428996,-2.840125 0.433659,-0.874731 1.1954,-1.316188 2.540476,-1.4723 1.911834,-0.221892 2.989963,0.510987 4.986306,3.389539 2.94423,4.245321 4.390825,5.294768 4.780951,3.46839 0.149524,-0.699998 1.000291,-1.595001 2.371733,-2.495054 1.354229,-0.888755 2.277785,-1.296851 2.934885,-1.296851 0.238275,0 1.184125,0.235431 2.101888,0.523181 1.918541,0.601526 2.497339,0.643522 3.03545,0.220243 0.667034,-0.524689 1.368925,-0.730359 3.308315,-0.969412 1.036112,-0.127713 2.033795,-0.289558 2.217076,-0.359655 0.568055,-0.217258 0.839418,-0.659413 1.06683,-1.738278 0.487511,-2.312807 1.975614,-5.739162 2.934707,-6.757158 0.78989,-0.838403 1.233021,-0.983692 3.214244,-1.053857 3.224781,-0.114204 4.550328,0.402225 6.808216,2.652462 1.714204,1.708395 2.73141,3.208835 5.224666,7.706694 2.112873,3.811647 3.282204,5.664372 3.724362,5.901009 0.95047,0.508675 2.654258,-2.287507 4.216911,-6.920609 0.337715,-1.001288 0.815282,-2.224121 1.061261,-2.717406 1.368619,-2.744626 4.426944,-6.192483 6.309691,-7.113341 l 1.043036,-0.510152 h 2.469751 c 2.920531,0 3.894049,0.228456 4.789565,1.123973 0.743566,0.743566 0.95355,1.578238 0.855232,3.399506 -0.09688,1.794571 -0.549406,3.541767 -2.332195,9.004484 -0.737856,2.260889 -1.487837,4.682469 -1.666626,5.38129 -0.446776,1.746282 -0.425578,3.269288 0.07074,5.082328 0.675307,2.4669 0.973268,4.074342 0.975293,5.261523 0.0041,2.419413 -0.613454,5.884957 -2.591946,14.544612 -1.531047,6.70124 -1.648163,7.359544 -1.648776,9.267776 -4.49e-4,1.399612 0.05947,1.817394 0.402644,2.807655 0.796886,2.299449 1.965733,4.16091 2.923809,4.656352 0.219497,0.113504 0.784743,0.277667 1.256105,0.364802 1.135729,0.209951 1.365196,0.341411 2.455257,1.406607 l 0.926625,0.905488 0.867138,-0.192917 c 0.476925,-0.106104 1.680926,-0.481053 2.675556,-0.833219 l 1.808419,-0.640303 0.09745,2.251555 c 0.0536,1.238356 0.09745,3.720715 0.09745,5.516354 v 3.2648 l -4.895478,-0.03453 c -2.692513,-0.01899 -6.496261,-0.05385 -8.452774,-0.07746 z M 50.671468,57.369649 c 0.569412,-0.569412 0.679638,-1.263818 0.383869,-2.418317 -0.884856,-3.453933 -5.516059,-12.742475 -7.654452,-15.352101 -1.117607,-1.363892 -2.698637,-2.042258 -3.363234,-1.443048 -0.73129,0.659341 0.07476,3.367385 2.411724,8.102536 3.553546,7.20019 6.367096,11.427339 7.672534,11.527404 0.06799,0.0052 0.315287,-0.182201 0.549559,-0.416474 z m -10.466859,-5.14219 c -0.0103,-1.265668 -5.47386,-11.306709 -7.105767,-13.059105 -0.843592,-0.905877 -1.204487,-0.882593 -2.231026,0.143947 -0.999485,0.999486 -1.275207,1.753677 -0.915712,2.504776 1.063457,2.221888 9.104493,10.740977 10.14313,10.746154 0.06166,2.99e-4 0.11088,-0.15079 0.109375,-0.335772 z m 14.8533,-2.577168 c 0.369996,-0.369996 0.453013,-2.075886 0.258309,-5.307915 -0.269393,-4.471822 -0.364978,-7.910238 -0.246301,-8.860091 0.068,-0.544237 0.25861,-1.066289 0.549882,-1.506032 0.421656,-0.636582 0.434512,-0.699978 0.23729,-1.170044 -0.53793,-1.282119 -3.908984,-5.099407 -4.846079,-5.487564 -0.398194,-0.164937 -0.516831,-0.155502 -0.85835,0.06827 -0.478022,0.313213 -1.595214,1.852664 -1.944966,2.680096 -0.38328,0.906754 -0.449036,2.616616 -0.16365,4.255423 0.442003,2.538152 4.018798,12.475388 5.20291,14.454987 0.61366,1.025915 1.318284,1.365542 1.810955,0.87287 z m 6.450372,-3.774453 c 1.072575,-0.532501 1.719023,-1.055816 1.719023,-1.391589 0,-0.357756 -0.405368,-0.379991 -1.410845,-0.07739 -1.383367,0.416331 -2.511889,1.520426 -1.909841,1.868499 0.301535,0.174333 0.591461,0.102013 1.601663,-0.399524 z M 59.420955,40.10599 c 0.09965,-0.531154 -0.155802,-1.742825 -0.367425,-1.742825 -0.265262,0 -0.402734,1.210639 -0.216418,1.905874 0.134468,0.501769 0.477071,0.406091 0.583843,-0.163049 z M 81.912337,24.478935 c 0,-0.202969 -0.575676,-0.312312 -1.644283,-0.312312 -1.098194,0 -1.679873,0.11636 -1.559041,0.311873 0.106804,0.172811 3.203324,0.173236 3.203324,4.33e-4 z"
       id="path15750"
       inkscape:connector-curvature="0"
       transform="matrix(0.26458333,0,0,0.26458333,0,87)" />
    <path
       style="opacity:1;fill:#ffffff;fill-opacity:1;fill-rule:nonzero;stroke:none;stroke-width:2.51338577;stroke-linecap:butt;stroke-linejoin:miter;stroke-miterlimit:4;stroke-dasharray:none;stroke-dashoffset:0;stroke-opacity:1;paint-order:stroke fill markers"
       d="m 78.835774,95.502253 -3.001823,-0.04366 0.120533,-0.881358 c 0.182565,-1.334938 0.491793,-1.994754 1.965991,-4.19494 0.743665,-1.109891 1.345895,-2.118883 1.338291,-2.242204 -0.0076,-0.123321 -0.821028,-1.981795 -1.807606,-4.129941 -2.216803,-4.826803 -2.41521,-5.437736 -2.413983,-7.433156 0.001,-1.763299 0.473596,-4.264479 2.376173,-12.577965 0.658528,-2.877495 1.272914,-5.702672 1.365303,-6.278171 0.113578,-0.707484 0.154203,-3.684766 0.125437,-9.193036 -0.05002,-9.578088 -0.192344,-8.473637 1.916634,-14.873286 1.61353,-4.896226 1.830958,-6.0294 1.22294,-6.373645 -0.59151,-0.334899 -2.6275,-0.261929 -3.346175,0.119927 -0.677098,0.359764 -1.863837,1.565065 -2.59984,2.640507 -0.717081,1.04779 -2.491383,4.788529 -3.975386,8.38125 -2.621857,6.347428 -3.335453,7.361037 -7.136446,10.13676 -4.663473,3.40556 -5.854392,4.345813 -7.143219,5.639716 -0.782915,0.785995 -1.717023,1.899946 -2.075798,2.475445 -2.257058,3.620472 -2.51771,3.915108 -5.345163,6.042077 -1.81661,1.366556 -2.409404,1.965349 -4.160342,4.202436 -0.970441,1.239885 -1.909188,1.825629 -3.059166,1.908811 -0.747396,0.05406 -0.915014,0.01636 -1.201618,-0.27024 -0.63951,-0.639509 -0.334452,-1.696246 1.420052,-4.919136 1.096672,-2.014503 0.552252,-2.016362 -2.547374,-0.0087 -2.29799,1.488432 -3.028053,1.789347 -4.341213,1.789347 -0.885527,0 -1.024248,-0.04273 -1.418459,-0.436942 -0.240319,-0.240318 -0.436942,-0.597113 -0.436942,-0.792877 0,-1.289639 3.777327,-4.632175 6.845518,-6.057557 l 1.151675,-0.535032 -0.660423,-0.290859 c -1.002926,-0.441702 -3.816207,-1.112221 -5.414066,-1.290392 -1.171047,-0.13058 -1.56946,-0.118969 -2.234481,0.06512 -1.429296,0.395662 -1.708096,0.415071 -2.212861,0.154047 -0.881953,-0.456077 -1.0617,-0.970697 -1.06233,-3.041478 -8.02e-4,-2.63669 0.264078,-2.242754 -5.750187,-8.55179 -4.459095,-4.677644 -5.159496,-5.467861 -6.428548,-7.252917 -0.527259,-0.741646 -1.12499,-1.504713 -1.328291,-1.695704 -0.350959,-0.329708 -0.376939,-0.333327 -0.514106,-0.07162 -0.41288,0.787768 1.282691,4.55768 4.124209,9.169717 1.485173,2.41057 2.744726,4.163945 5.100575,7.100313 1.187288,1.479854 2.45755,3.152328 2.822807,3.716607 0.89633,1.38473 2.366377,4.498701 3.326272,7.045971 2.953791,7.83847 4.079691,10.272589 6.291407,13.601592 2.921209,4.396911 5.710375,7.142632 11.396643,11.219126 4.024098,2.884882 5.050923,3.958451 6.072737,6.349175 l 0.593352,1.388259 -2.040029,-0.09784 c -1.122017,-0.05381 -3.481222,-0.09784 -5.24268,-0.09784 -2.495462,0 -3.188985,-0.04126 -3.140774,-0.186851 0.04122,-0.124475 0.706624,-0.242536 1.993276,-0.353661 2.964138,-0.256004 3.336091,-0.386731 2.805146,-0.985894 -0.424277,-0.47879 -2.706708,-2.256917 -5.424313,-4.225813 -2.594397,-1.87963 -5.66743,-4.709473 -7.614425,-7.011839 C 35.199902,78.784051 32.249824,73.550963 30.117972,68.034997 27.139901,60.329515 26.582489,59.081394 25.177877,56.973458 24.371837,55.763814 24.118974,55.451882 21.466927,52.395617 17.860664,48.239698 14.736886,42.30558 14.035631,38.278675 13.933257,37.6908 13.888862,36.460478 13.928184,35.301038 c 0.05798,-1.709405 0.115942,-2.074561 0.429893,-2.708046 0.432807,-0.87331 1.236745,-1.342155 2.564813,-1.495761 1.912748,-0.221232 2.917476,0.491762 5.167239,3.666876 0.79092,1.116234 1.885781,2.488901 2.433025,3.050373 0.840581,0.862434 1.061895,1.013216 1.426127,0.971622 0.36274,-0.04143 0.466711,-0.155953 0.655359,-0.721897 0.507771,-1.523313 3.759686,-3.886487 5.348113,-3.886487 0.226631,0 1.212149,0.235431 2.190036,0.523181 2.122082,0.624435 2.413023,0.63793 3.083279,0.143016 0.664797,-0.490883 1.634731,-0.753341 3.572663,-0.96674 1.610786,-0.177374 2.288634,-0.407997 2.526175,-0.859476 0.07525,-0.143024 0.280544,-0.837242 0.456211,-1.542706 0.541178,-2.173347 1.627191,-4.719278 2.583708,-6.056967 0.766863,-1.072459 1.399287,-1.318371 3.554854,-1.382274 3.222775,-0.09554 4.446988,0.388214 6.746165,2.665778 1.71437,1.698255 2.693298,3.126007 5.058795,7.378174 2.185691,3.928952 3.032664,5.325346 3.595523,5.927888 l 0.439448,0.470432 0.449058,-0.265266 c 0.955152,-0.564222 2.290623,-3.076386 3.525593,-6.632024 0.385315,-1.109375 0.903769,-2.421064 1.152119,-2.914865 1.332343,-2.649137 4.371526,-6.108873 6.242588,-7.106417 l 0.971622,-0.518013 h 2.615905 c 3.041368,0 3.850813,0.188546 4.774375,1.112109 0.769411,0.76941 0.97006,1.583214 0.860625,3.490574 -0.105229,1.834072 -0.49443,3.339237 -2.269213,8.7758 -2.349177,7.196056 -2.398528,7.596575 -1.410696,11.448938 1.194562,4.658576 1.041944,6.251392 -1.791719,18.699628 -0.658563,2.893056 -1.307384,5.886398 -1.441822,6.651871 -0.327079,1.862333 -0.327381,3.975018 -7.47e-4,5.203516 0.416495,1.566451 1.505167,3.678259 2.312292,4.485382 0.621703,0.621705 0.848466,0.742434 1.801726,0.959249 1.419409,0.322837 1.741641,0.501516 2.701223,1.497835 0.465261,0.483072 0.928503,0.829802 1.107334,0.828821 0.169096,-8.97e-4 1.383705,-0.363164 2.699132,-0.80497 1.315426,-0.441807 2.417368,-0.779724 2.448758,-0.750925 0.03139,0.0288 0.09158,2.509917 0.133764,5.513599 l 0.0767,5.461239 -5.440313,-0.0341 c -2.992173,-0.01875 -6.791135,-0.05374 -8.442137,-0.07776 z M 50.395889,57.633335 c 0.166757,-0.08925 0.435651,-0.461704 0.597541,-0.827685 0.262371,-0.593134 0.27513,-0.758191 0.117456,-1.51939 -0.661054,-3.191319 -5.296361,-12.615663 -7.675643,-15.605846 -0.760898,-0.956266 -1.747917,-1.606547 -2.615,-1.722847 -0.507311,-0.06804 -0.616069,-0.02749 -0.83911,0.312919 -0.285783,0.436159 -0.235433,1.162752 0.182517,2.633844 0.740981,2.608095 4.28664,9.623945 6.837606,13.529673 1.219172,1.866645 1.900253,2.691608 2.5486,3.086998 0.530212,0.323345 0.46735,0.314998 0.846033,0.112334 z M 40.080374,51.683097 c -0.475337,-1.586533 -4.339357,-8.719369 -6.17688,-11.402288 -0.990251,-1.445839 -1.458252,-1.840818 -2.015438,-1.700974 -0.517039,0.129769 -1.565822,1.2287 -1.91283,2.004293 l -0.291451,0.65142 0.407581,0.768642 c 0.752081,1.418323 3.923365,5.101224 6.849302,7.954286 2.722979,2.655158 3.555527,3.112471 3.139716,1.724621 z m 15.02971,-2.207626 c 0.334501,-0.510511 0.351851,-2.710225 0.06171,-7.82374 -0.114288,-2.014247 -0.180443,-4.369484 -0.14701,-5.233862 0.05339,-1.380452 0.110481,-1.656394 0.469387,-2.268821 0.22473,-0.383475 0.408601,-0.805644 0.408601,-0.938155 0,-0.680969 -1.220584,-2.355211 -3.198922,-4.387875 -1.497851,-1.538982 -1.87156,-1.762818 -2.443957,-1.463827 -0.533623,0.278736 -1.417321,1.452128 -1.935574,2.57009 -0.362771,0.782561 -0.409728,1.058351 -0.405223,2.379934 0.0028,0.822141 0.09108,1.898399 0.196175,2.391684 0.47618,2.235085 3.309837,10.180476 4.640585,13.011896 0.96262,2.048161 1.770726,2.653214 2.354228,1.762676 z m 6.43983,-3.622511 c 0.985714,-0.498658 1.729155,-1.135984 1.635249,-1.40184 -0.08501,-0.240679 -1.108426,-0.174862 -1.804699,0.116059 -0.720253,0.30094 -1.591206,1.086375 -1.591206,1.434964 0,0.427541 0.745494,0.364373 1.760656,-0.149183 z m -2.200877,-5.642914 c 0.175354,-0.461212 -0.001,-1.570441 -0.26366,-1.657981 -0.232717,-0.07757 -0.403064,0.861359 -0.277603,1.530123 0.116754,0.622358 0.333765,0.673621 0.541263,0.127858 z M 81.826348,24.479701 c 0.105515,-0.170728 -0.647399,-0.317696 -1.614349,-0.315119 -0.881399,0.0023 -1.438748,0.124124 -1.438748,0.314353 0,0.172023 2.946797,0.172762 3.053097,7.62e-4 z"
       id="path15752"
       inkscape:connector-curvature="0"
       transform="matrix(0.26458333,0,0,0.26458333,0,87)" />
    <path
       style="opacity:1;fill:#ffffff;fill-opacity:1;fill-rule:nonzero;stroke:none;stroke-width:2.51338577;stroke-linecap:butt;stroke-linejoin:miter;stroke-miterlimit:4;stroke-dasharray:none;stroke-dashoffset:0;stroke-opacity:1;paint-order:stroke fill markers"
       d="m 78.315287,95.502374 -2.475949,-0.04473 0.104179,-0.856022 c 0.153118,-1.25815 0.485471,-1.975243 1.972139,-4.255137 1.011081,-1.550553 1.318396,-2.136802 1.254201,-2.392578 -0.04677,-0.186335 -0.857016,-2.028698 -1.800553,-4.094143 -2.254928,-4.936142 -2.389128,-5.387769 -2.295709,-7.72581 0.08935,-2.236281 0.537827,-4.448277 3.445274,-16.993037 0.318295,-1.373347 0.329396,-1.702819 0.337453,-10.015177 0.006,-6.218534 0.05991,-8.863771 0.194859,-9.566737 0.227255,-1.183764 0.713588,-2.81922 1.689123,-5.68025 0.96621,-2.833681 1.620473,-5.163405 1.620473,-5.770237 0,-0.649868 -0.293912,-0.907067 -1.175027,-1.028251 -1.743896,-0.239848 -2.914753,0.316075 -4.401559,2.08986 -1.053161,1.256437 -2.570485,4.266801 -4.595929,9.118296 -2.929008,7.015777 -3.174431,7.333348 -8.929223,11.554146 -5.084062,3.728856 -6.412878,5.025483 -8.227062,8.027768 -1.195377,1.978225 -2.134588,2.997583 -4.14908,4.503147 -1.947073,1.455175 -3.051915,2.521696 -4.271573,4.123417 -1.308222,1.718026 -2.29696,2.360235 -3.633794,2.360235 -0.490543,0 -0.764736,-0.08727 -0.993774,-0.316312 -0.556641,-0.55664 -0.335074,-1.520262 0.895279,-3.893666 0.585923,-1.130271 1.065316,-2.158899 1.065316,-2.285837 0,-0.52735 -0.861627,-0.152511 -3.319048,1.443909 -1.982451,1.287863 -2.809298,1.61386 -4.093327,1.61386 -0.885527,0 -1.024248,-0.04273 -1.418459,-0.436942 -0.240319,-0.240318 -0.436942,-0.597113 -0.436942,-0.792877 0,-1.254067 3.449394,-4.368309 6.5451,-5.909158 0.932584,-0.464182 1.321038,-0.728368 1.18386,-0.805136 -0.494935,-0.27698 -2.639733,-0.891949 -4.080533,-1.169994 -1.925004,-0.371488 -3.261011,-0.385789 -4.575296,-0.04898 -0.937496,0.24025 -1.035103,0.240709 -1.524856,0.0072 -0.912943,-0.435353 -1.051849,-0.816133 -1.135802,-3.113538 l -0.07474,-2.045306 -0.556712,-0.802441 c -0.537062,-0.774149 -1.870435,-2.226121 -7.419942,-8.07996 -1.42745,-1.505731 -3.008204,-3.300619 -3.512786,-3.988641 -1.38693,-1.891143 -2.116063,-2.785015 -2.271746,-2.785015 -0.279979,0 -0.230307,1.040225 0.09216,1.929913 1.274546,3.516517 4.977522,9.526482 8.895931,14.438176 3.581788,4.489742 4.344784,5.864485 6.637046,11.95842 2.205447,5.863138 3.345328,8.396724 5.004864,11.124188 2.988067,4.910923 6.247743,8.257632 12.192478,12.518018 3.96916,2.844562 5.123593,4.043582 6.126266,6.362879 0.31173,0.721066 0.553285,1.325899 0.536789,1.344069 -0.0165,0.01817 -2.365816,-0.0095 -5.220709,-0.06153 -5.760191,-0.104943 -6.612343,-0.281295 -2.959845,-0.612536 2.24463,-0.203564 2.923083,-0.364022 2.823821,-0.667848 -0.09873,-0.302179 -1.96358,-1.814707 -4.522703,-3.668227 -3.193699,-2.313128 -4.440314,-3.377725 -6.81786,-5.82239 C 35.505531,79.627557 32.59741,74.664165 29.290331,65.942273 26.654963,58.991909 25.731845,57.315374 22.509936,53.627949 20.350408,51.156403 19.739068,50.364991 18.389367,48.29365 16.41025,45.256368 14.850673,41.812859 14.178356,38.995842 13.91615,37.89719 13.876376,37.346169 13.927162,35.515838 c 0.05376,-1.937555 0.100326,-2.255373 0.427069,-2.914865 0.436911,-0.881853 1.235892,-1.349592 2.568659,-1.503742 1.917781,-0.221814 2.860166,0.450473 5.221219,3.724762 1.930145,2.676708 3.235238,4.029899 3.821673,3.962517 0.345396,-0.03969 0.450031,-0.159551 0.626579,-0.717775 0.476489,-1.506602 3.771333,-3.889017 5.37845,-3.889017 0.236563,0 1.02622,0.17639 1.75479,0.391978 2.57294,0.761346 2.505806,0.758728 3.702528,0.144359 0.892792,-0.458339 1.343418,-0.580146 2.853955,-0.771441 2.976356,-0.376928 2.978988,-0.378805 3.494807,-2.49162 0.500322,-2.049341 1.592752,-4.606872 2.58686,-6.056205 0.240027,-0.34994 0.718764,-0.78717 1.06386,-0.971622 0.575345,-0.307519 0.82671,-0.335367 3.027143,-0.335367 h 2.399696 l 1.187817,0.587179 c 0.942277,0.465801 1.484605,0.882947 2.623562,2.017984 1.631833,1.626214 2.671443,3.111322 4.629843,6.613838 3.223666,5.765387 4.026573,6.999608 4.553502,6.999608 0.884051,0 2.519704,-2.836072 3.879453,-6.726612 0.847923,-2.426097 1.63636,-3.99158 2.820401,-5.600055 1.273243,-1.729655 3.408937,-3.788641 4.57994,-4.415441 0.945146,-0.505906 1.025112,-0.521522 2.934645,-0.573082 3.41847,-0.0923 4.988878,0.35187 5.850667,1.654799 0.390971,0.591103 0.407419,0.693646 0.4003,2.495532 -0.0089,2.247118 -0.15615,2.866422 -2.164307,9.101341 -2.402433,7.459068 -2.433681,7.703109 -1.478692,11.548594 1.189014,4.787842 1.04725,6.307128 -1.735488,18.599229 -1.54053,6.804926 -1.714401,7.789563 -1.714401,9.708667 0,2.138102 0.583215,3.968218 1.896157,5.950088 0.753584,1.137529 1.461681,1.631857 2.70783,1.890361 1.093438,0.226824 1.521092,0.476706 2.475456,1.446429 0.975374,0.991072 0.744158,0.996048 3.981621,-0.08568 1.191843,-0.398229 2.196644,-0.694396 2.23289,-0.65815 0.03625,0.03625 0.09563,2.519701 0.131971,5.518787 l 0.06607,5.452888 -5.961228,-0.0335 c -3.278675,-0.01843 -7.075403,-0.05363 -8.437174,-0.07823 z M 50.590718,57.440992 c 0.477771,-0.477771 0.674528,-1.25662 0.520108,-2.058788 -0.678501,-3.524572 -6.063673,-14.168618 -8.23396,-16.274811 -1.042452,-1.011663 -2.165479,-1.416147 -2.744262,-0.988407 -0.93792,0.693155 0.474678,4.81361 3.728103,10.874635 2.507944,4.67222 4.551927,7.761326 5.599148,8.462096 0.632052,0.42295 0.693994,0.422143 1.130863,-0.01472 z M 40.135695,51.928499 c -0.144374,-0.73518 -2.573574,-5.543181 -4.248202,-8.408265 -2.237894,-3.828768 -3.325264,-5.163202 -4.026025,-4.940789 -0.507808,0.161173 -1.641326,1.419495 -1.908205,2.118309 l -0.248559,0.650841 0.505323,0.841081 c 1.593193,2.651783 8.812679,10.224565 9.747604,10.224619 0.228445,1.2e-5 0.257761,-0.07997 0.178064,-0.485796 z m 14.799561,-2.264091 c 0.420775,-0.30768 0.508465,-1.740393 0.32116,-5.247292 -0.08782,-1.644283 -0.1633,-4.46946 -0.167731,-6.278171 l -0.0081,-3.288566 0.411071,-0.699279 c 0.226091,-0.384603 0.411072,-0.833014 0.411072,-0.996469 0,-0.531328 -1.499947,-2.557037 -3.127506,-4.223759 -1.94635,-1.993184 -2.148574,-2.047965 -3.20844,-0.869139 -0.375871,0.418059 -0.89432,1.18854 -1.152106,1.71218 l -0.468704,0.952072 0.06846,2.062197 c 0.06477,1.951211 0.1066,2.182872 0.777167,4.304401 0.851839,2.695035 2.819551,8.005468 3.773109,10.182812 0.67321,1.537198 1.436517,2.59775 1.869669,2.59775 0.118453,0 0.34383,-0.09393 0.500837,-0.208737 z m 6.433321,-3.734289 c 0.769814,-0.358463 1.858727,-1.210123 1.858727,-1.453748 0,-0.246195 -1.262296,-0.131181 -1.943243,0.17706 -0.810207,0.366751 -1.494803,0.990157 -1.494803,1.361194 0,0.384885 0.645453,0.350349 1.579319,-0.08451 z m -2.000633,-6.211842 c -0.01731,-1.253848 -0.392219,-1.641141 -0.552112,-0.57034 -0.110569,0.74049 0.144155,1.599095 0.398848,1.344401 0.08894,-0.08894 0.157911,-0.43727 0.153264,-0.774061 z M 81.676868,24.479701 c 0.1025,-0.165848 -0.639791,-0.317776 -1.539609,-0.315119 -0.844271,0.0025 -1.388644,0.136126 -1.278765,0.313914 0.106388,0.172138 2.712043,0.173253 2.818374,0.0012 z"
       id="path15754"
       inkscape:connector-curvature="0"
       transform="matrix(0.26458333,0,0,0.26458333,0,87)" />
  </g>
</svg>
