<?xml version="1.0" encoding="UTF-8" standalone="no"?>
<!-- Created with Inkscape (http://www.inkscape.org/) -->

<svg
   xmlns:dc="http://purl.org/dc/elements/1.1/"
   xmlns:cc="http://creativecommons.org/ns#"
   xmlns:rdf="http://www.w3.org/1999/02/22-rdf-syntax-ns#"
   xmlns:svg="http://www.w3.org/2000/svg"
   xmlns="http://www.w3.org/2000/svg"
   xmlns:sodipodi="http://sodipodi.sourceforge.net/DTD/sodipodi-0.dtd"
   xmlns:inkscape="http://www.inkscape.org/namespaces/inkscape"
   width="297mm"
   height="210mm"
   viewBox="0 0 297 210"
   version="1.1"
   id="svg1549"
   sodipodi:docname="Z.svg"
   inkscape:version="0.92.2 (5c3e80d, 2017-08-06)">
  <defs
     id="defs1543">
    <inkscape:path-effect
       effect="spiro"
       id="path-effect16353"
       is_visible="true" />
    <inkscape:path-effect
       effect="spiro"
       id="path-effect16349"
       is_visible="true" />
  </defs>
  <sodipodi:namedview
     id="base"
     pagecolor="#ffffff"
     bordercolor="#666666"
     borderopacity="1.0"
     inkscape:pageopacity="0.0"
     inkscape:pageshadow="2"
     inkscape:zoom="10.274005"
     inkscape:cx="92.42246"
     inkscape:cy="733.39392"
     inkscape:document-units="mm"
     inkscape:current-layer="layer1"
     showgrid="false"
     inkscape:window-width="1366"
     inkscape:window-height="705"
     inkscape:window-x="-8"
     inkscape:window-y="-8"
     inkscape:window-maximized="1"
     showguides="true"
     inkscape:guide-bbox="true">
    <sodipodi:guide
       position="-33.777908,227.32284"
       orientation="0,1"
       id="guide4080"
       inkscape:locked="false" />
  </sodipodi:namedview>
  <metadata
     id="metadata1546">
    <rdf:RDF>
      <cc:Work
         rdf:about="">
        <dc:format>image/svg+xml</dc:format>
        <dc:type
           rdf:resource="http://purl.org/dc/dcmitype/StillImage" />
        <dc:title />
      </cc:Work>
    </rdf:RDF>
  </metadata>
  <g
     inkscape:label="Capa 1"
     inkscape:groupmode="layer"
     id="layer1"
     transform="translate(0,-87)">
    <path
       style="opacity:1;fill:#216778;fill-opacity:1;fill-rule:nonzero;stroke:none;stroke-width:0.66499996;stroke-linecap:butt;stroke-linejoin:miter;stroke-miterlimit:4;stroke-dasharray:none;stroke-dashoffset:0;stroke-opacity:1;paint-order:stroke fill markers"
       d="m 2.8215536,109.02162 c 0.00561,-4.45715 0.1066641,-15.316712 0.1428882,-15.352936 0.017515,-0.01752 0.6223133,-0.06498 1.344004,-0.105482 0.7216907,-0.0405 1.3268801,-0.08679 1.3448665,-0.102859 0.017992,-0.01606 0.067024,-0.741149 0.1089713,-1.611284 0.041944,-0.870135 0.088969,-1.594765 0.1044972,-1.610294 0.029154,-0.02915 13.3334972,-0.157554 16.5209332,-0.15944 l 1.797062,-0.0011 0.0016,5.127405 c 0.0011,2.82007 0.03569,6.09188 0.07721,7.27069 0.111685,3.17069 0.112244,3.1325 -0.04595,3.1325 -0.09632,0 -0.125108,-0.0356 -0.106733,-0.1319 0.06848,-0.359 -0.0019,-0.99874 -0.188518,-1.71463 -0.425762,-1.63282 -1.622371,-7.8831 -1.777833,-9.286172 -0.08151,-0.735626 -0.21174,-1.045474 -0.572613,-1.362324 -0.341366,-0.299722 -0.611712,-0.398139 -1.285029,-0.467799 -0.319302,-0.03303 -0.80663,-0.138136 -1.082953,-0.233558 -0.919255,-0.317447 -1.522978,-0.123703 -1.849048,0.593389 -0.169617,0.373023 -0.279935,1.202738 -0.456888,3.436314 -0.104439,1.31828 -0.189066,1.95754 -0.296582,2.24032 -0.04878,0.12829 -0.115279,0.15442 -0.455737,0.17905 -0.284332,0.0206 -0.525118,0.0939 -0.839774,0.25557 -0.580417,0.29832 -0.799428,0.57524 -0.886891,1.12138 -0.07778,0.48568 -0.199906,0.71899 -0.649312,1.2404 -0.579659,0.67254 -0.859202,1.44237 -0.861076,2.37126 -7.93e-4,0.38103 0.04759,0.62564 0.228169,1.15408 0.356997,1.04472 0.455256,1.99277 0.53598,5.17147 l 0.04563,1.79706 H 8.2682 2.817852 Z m 7.9975604,-6.17803 c 0.746416,-0.18934 1.2026,-0.40254 1.385494,-0.64751 0.291052,-0.38983 -0.07851,-0.61785 -1.4111,-0.87064 -0.737809,-0.13995 -1.028176,-0.12889 -1.625717,0.0619 -1.050946,0.33563 -1.496814,0.13902 -1.164526,-0.51352 0.171386,-0.33657 1.01837,-1.55286 2.098725,-3.01382 1.898936,-2.56793 2.893343,-4.070624 2.857813,-4.318573 -0.02953,-0.206079 -0.587412,-0.286076 -2.514352,-0.360538 C 9.283094,93.135969 8.604422,93.080663 8.3102,93.006876 7.79086,92.876629 7.439573,92.907366 6.965109,93.124589 c -0.3681814,0.168558 -0.783945,0.526986 -0.783945,0.675833 0,0.183798 0.3074564,0.458555 0.75098,0.671108 0.563335,0.269972 1.057021,0.293563 1.820963,0.08701 0.528106,-0.142785 1.714032,-0.2413 2.010135,-0.166984 0.155454,0.03902 0.173223,0.06839 0.13515,0.223407 -0.0628,0.255677 -0.622266,1.065017 -2.168764,3.137367 -1.458584,1.95456 -2.441747,3.33166 -2.8320974,3.96689 -0.4584197,0.74601 -0.3955044,0.7869 1.2321174,0.80084 1.493443,0.0128 1.917456,0.0569 2.0707,0.21529 0.307764,0.31813 0.690385,0.34371 1.618766,0.1082 z"
       id="path2770"
       inkscape:connector-curvature="0" />
    <path
       style="opacity:1;fill:#216778;fill-opacity:1;fill-rule:nonzero;stroke:none;stroke-width:0.66499996;stroke-linecap:butt;stroke-linejoin:miter;stroke-miterlimit:4;stroke-dasharray:none;stroke-dashoffset:0;stroke-opacity:1;paint-order:stroke fill markers"
       d="m 14.847644,111.56059 c -0.188576,-0.92178 -0.192354,-0.98135 -0.197628,-3.11601 -0.0058,-2.33213 -0.01614,-2.42302 -0.364823,-3.19236 -0.105336,-0.23242 -0.182049,-0.43205 -0.170471,-0.44363 0.102021,-0.10202 0.586767,0.54495 1.20772,1.6119 0.443619,0.76225 0.81375,0.95413 1.540012,0.79837 0.264015,-0.0566 0.42917,-0.14959 0.697691,-0.39277 0.39751,-0.35998 0.669615,-0.45795 1.273468,-0.45848 0.30964,-2.6e-4 0.410348,0.0212 0.385258,0.0821 -0.01868,0.0453 -0.154168,0.35076 -0.30108,0.67871 -0.459722,1.02626 -0.606023,1.89216 -0.476539,2.82051 0.121052,0.86789 0.403331,1.36433 0.848334,1.49196 0.361307,0.10362 0.436488,-0.0181 0.388077,-0.62813 -0.112291,-1.415 -0.125491,-2.06886 -0.04798,-2.37668 0.04402,-0.17484 0.241392,-0.65733 0.4386,-1.07221 0.706186,-1.48566 0.853167,-2.34902 0.528928,-3.10691 -0.08535,-0.19949 -0.250499,-0.59019 -0.367006,-0.86823 -0.160025,-0.38189 -0.254746,-0.52317 -0.387324,-0.57772 -0.111966,-0.0461 -0.641667,-0.066 -1.463264,-0.055 -1.139627,0.0152 -1.308426,0.004 -1.467327,-0.0998 -0.277754,-0.18088 -0.240517,-0.4028 0.100717,-0.60024 0.440404,-0.25483 1.962576,-0.87447 2.374804,-0.96672 0.32784,-0.0734 0.41025,-0.0695 0.675037,0.0316 0.547185,0.20898 2.176521,1.904 2.628553,2.73453 0.09926,0.18238 0.223723,0.53282 0.276579,0.77875 0.143989,0.66994 0.1919,2.16438 0.09974,3.11121 -0.08349,0.85785 -0.117181,1.06822 -0.48689,3.04038 -0.125791,0.67102 -0.248015,1.33131 -0.271608,1.46733 l -0.0429,0.2473 h -3.613213 -3.613216 z"
       id="path2772"
       inkscape:connector-curvature="0" />
    <path
       style="opacity:1;fill:#216778;fill-opacity:1;fill-rule:nonzero;stroke:none;stroke-width:0.66499996;stroke-linecap:butt;stroke-linejoin:miter;stroke-miterlimit:4;stroke-dasharray:none;stroke-dashoffset:0;stroke-opacity:1;paint-order:stroke fill markers"
       d="m 21.454653,100.61334 c -0.672214,-0.67446 -0.857433,-0.99008 -0.95785,-1.63219 -0.175713,-1.1236 -0.273712,-4.822445 -0.134649,-5.082282 0.111551,-0.208436 0.310501,-0.155461 0.451088,0.120113 0.181102,0.354989 0.236148,0.593183 0.537138,2.324269 0.148204,0.85237 0.401429,2.22478 0.562722,3.04979 0.307977,1.57533 0.33882,1.83031 0.22139,1.83031 -0.03953,0 -0.345454,-0.2745 -0.679839,-0.61001 z"
       id="path2774"
       inkscape:connector-curvature="0" />
    <path
       style="opacity:1;fill:#216778;fill-opacity:1;fill-rule:nonzero;stroke:none;stroke-width:0.66499996;stroke-linecap:butt;stroke-linejoin:miter;stroke-miterlimit:4;stroke-dasharray:none;stroke-dashoffset:0;stroke-opacity:1;paint-order:stroke fill markers"
       d="m 18.165773,100.05279 c -0.222215,-0.24614 -0.267819,-0.70087 -0.225774,-2.25128 0.06737,-2.48403 0.258181,-4.242973 0.477711,-4.403495 0.453966,-0.331949 0.694737,0.849669 0.920223,4.516135 0.05425,0.88212 0.09864,1.71535 0.09864,1.85161 v 0.24774 l -0.419774,0.0773 c -0.568595,0.10477 -0.728538,0.0976 -0.851025,-0.0381 z"
       id="path2776"
       inkscape:connector-curvature="0" />
    <path
       style="opacity:1;fill:#216778;fill-opacity:1;fill-rule:nonzero;stroke:none;stroke-width:0.66499996;stroke-linecap:butt;stroke-linejoin:miter;stroke-miterlimit:4;stroke-dasharray:none;stroke-dashoffset:0;stroke-opacity:1;paint-order:stroke fill markers"
       d="m 15.446701,100.98306 c -0.179364,-0.17937 0.02278,-0.70353 0.371578,-0.96349 l 0.173675,-0.12945 0.399875,0.17945 c 0.219933,0.0987 0.447215,0.23177 0.505074,0.2957 0.09748,0.10771 0.08983,0.12917 -0.10424,0.29247 -0.48908,0.41154 -1.109734,0.56155 -1.345962,0.32532 z"
       id="path2778"
       inkscape:connector-curvature="0" />
    <path
       style="opacity:1;fill:#216778;fill-opacity:1;fill-rule:nonzero;stroke:none;stroke-width:0.66499996;stroke-linecap:butt;stroke-linejoin:miter;stroke-miterlimit:4;stroke-dasharray:none;stroke-dashoffset:0;stroke-opacity:1;paint-order:stroke fill markers"
       d="m 16.374732,106.06577 c -0.057,-0.057 -0.103632,-0.16633 -0.103632,-0.24297 0,-0.21485 -0.241755,-0.66495 -0.537803,-1.00128 -0.394578,-0.44827 -0.786106,-0.69233 -1.238448,-0.77201 -0.543915,-0.0958 -0.642046,-0.2167 -0.541129,-0.66662 0.09194,-0.40988 0.416738,-1.00483 0.602983,-1.1045 0.112784,-0.0604 0.180999,-0.025 0.466498,0.24209 0.688763,0.64425 1.508789,2.07799 1.647277,2.8801 0.107744,0.62403 -0.0291,0.93183 -0.295746,0.66519 z"
       id="path2780"
       inkscape:connector-curvature="0" />
    <path
       style="opacity:1;fill:#216778;fill-opacity:1;fill-rule:nonzero;stroke:none;stroke-width:0.66499996;stroke-linecap:butt;stroke-linejoin:miter;stroke-miterlimit:4;stroke-dasharray:none;stroke-dashoffset:0;stroke-opacity:1;paint-order:stroke fill markers"
       d="m 18.139058,104.96586 c -0.148399,-0.15415 -0.302961,-0.34509 -0.343468,-0.42432 -0.192956,-0.37739 0.01024,-0.68218 0.452117,-0.6782 0.402405,0.004 0.634114,0.29864 0.563382,0.7173 -0.04369,0.25859 -0.257095,0.6655 -0.349027,0.6655 -0.02925,0 -0.174604,-0.12613 -0.323004,-0.28028 z"
       id="path2782"
       inkscape:connector-curvature="0" />
    <path
       style="opacity:1;fill:#216778;fill-opacity:1;fill-rule:nonzero;stroke:none;stroke-width:0.66499996;stroke-linecap:butt;stroke-linejoin:miter;stroke-miterlimit:4;stroke-dasharray:none;stroke-dashoffset:0;stroke-opacity:1;paint-order:stroke fill markers"
       d="m 19.786045,104.50423 c -0.131448,-0.14432 -0.283528,-0.39844 -0.283528,-0.47378 0,-0.0205 0.02949,-0.0373 0.06553,-0.0373 0.07073,0 0.462044,0.51105 0.462044,0.60342 0,0.0996 -0.105571,0.0597 -0.244051,-0.0923 z"
       id="path2784"
       inkscape:connector-curvature="0" />
    <path
       style="opacity:1;fill:#216778;fill-opacity:1;fill-rule:nonzero;stroke:none;stroke-width:0.66499996;stroke-linecap:butt;stroke-linejoin:miter;stroke-miterlimit:4;stroke-dasharray:none;stroke-dashoffset:0;stroke-opacity:1;paint-order:stroke fill markers"
       d="m 23.535332,111.85736 c -0.04057,-0.0773 5.3e-4,-0.43109 0.124452,-1.07165 0.101757,-0.52593 0.259226,-1.38277 0.349933,-1.9041 0.151506,-0.87076 0.242686,-1.14977 0.342971,-1.04949 0.02101,0.021 0.0047,0.22332 -0.03637,0.44956 -0.04102,0.22624 -0.09774,1.07343 -0.126029,1.88264 -0.0421,1.20412 -0.0715,1.50192 -0.161888,1.63988 -0.129231,0.19722 -0.402032,0.22664 -0.493065,0.0532 z"
       id="path2786"
       inkscape:connector-curvature="0" />
    <path
       style="opacity:1;fill:#216778;fill-opacity:1;fill-rule:nonzero;stroke:none;stroke-width:0.66499996;stroke-linecap:butt;stroke-linejoin:miter;stroke-miterlimit:4;stroke-dasharray:none;stroke-dashoffset:0;stroke-opacity:1;paint-order:stroke fill markers"
       d="m 13.962944,107.38943 c 0,-0.0544 0.02968,-0.0989 0.06595,-0.0989 0.03627,0 0.06595,0.0445 0.06595,0.0989 0,0.0544 -0.02968,0.0989 -0.06595,0.0989 -0.03627,0 -0.06595,-0.0445 -0.06595,-0.0989 z"
       id="path2788"
       inkscape:connector-curvature="0" />
    <path
       style="opacity:1;fill:#216778;fill-opacity:1;fill-rule:nonzero;stroke:none;stroke-width:0.66499996;stroke-linecap:butt;stroke-linejoin:miter;stroke-miterlimit:4;stroke-dasharray:none;stroke-dashoffset:0;stroke-opacity:1;paint-order:stroke fill markers"
       d="m 9.977691,102.39906 c -0.128248,-0.0255 -1.681067,-0.20393 -2.20219,-0.25313 -0.145693,-0.0137 -0.266097,-0.0412 -0.273071,-0.0622 -0.02968,-0.0896 2.232633,-0.0998 2.596459,-0.0117 0.223841,0.0542 0.245391,0.0978 0.117124,0.23724 -0.0997,0.10837 -0.115311,0.11425 -0.238322,0.0898 z"
       id="path2794"
       inkscape:connector-curvature="0" />
    <path
       style="opacity:1;fill:#216778;fill-opacity:1;fill-rule:nonzero;stroke:none;stroke-width:0.66499996;stroke-linecap:butt;stroke-linejoin:miter;stroke-miterlimit:4;stroke-dasharray:none;stroke-dashoffset:0;stroke-opacity:1;paint-order:stroke fill markers"
       d="m 7.920919,93.980659 c -0.261713,-0.05651 -0.33496,-0.171506 -0.164251,-0.257876 0.195995,-0.09916 0.893974,-0.01672 1.033984,0.122113 0.06267,0.06215 0.06243,0.06335 -0.01878,0.09423 -0.112877,0.04291 -0.709639,0.07204 -0.850945,0.04153 z"
       id="path2798"
       inkscape:connector-curvature="0" />
    <path
       style="opacity:1;fill:#216778;fill-opacity:1;fill-rule:nonzero;stroke:none;stroke-width:0.66499996;stroke-linecap:butt;stroke-linejoin:miter;stroke-miterlimit:4;stroke-dasharray:none;stroke-dashoffset:0;stroke-opacity:1;paint-order:stroke fill markers"
       d="m 10.446637,93.921808 c 0.02262,-0.0091 0.05965,-0.0091 0.08227,0 0.02262,0.0091 0.0041,0.01659 -0.04114,0.01659 -0.04525,0 -0.06376,-0.0075 -0.04113,-0.01659 z"
       id="path2800"
       inkscape:connector-curvature="0" />
    <path
       style="opacity:1;fill:#216778;fill-opacity:1;fill-rule:nonzero;stroke:none;stroke-width:0.66499996;stroke-linecap:butt;stroke-linejoin:miter;stroke-miterlimit:4;stroke-dasharray:none;stroke-dashoffset:0;stroke-opacity:1;paint-order:stroke fill markers"
       d="m 9.874036,93.88362 c -0.0091,-0.01463 -0.0089,-0.03415 2.64e-4,-0.04338 0.05129,-0.05129 1.024266,-0.07013 1.48444,-0.02874 0.635413,0.05715 0.378995,0.09447 -0.665599,0.09688 -0.543558,0.0013 -0.808059,-0.0067 -0.81919,-0.02474 z"
       id="path2802"
       inkscape:connector-curvature="0" />
    <path
       style="opacity:1;fill:#216778;fill-opacity:1;fill-rule:nonzero;stroke:none;stroke-width:0.66499996;stroke-linecap:butt;stroke-linejoin:miter;stroke-miterlimit:4;stroke-dasharray:none;stroke-dashoffset:0;stroke-opacity:1;paint-order:stroke fill markers"
       d="m 11.184263,102.16737 c -0.128275,-0.0227 -0.111575,-0.0819 0.03741,-0.13278 0.154705,-0.0528 0.287203,-0.0556 0.399796,-0.009 0.239929,0.10025 -0.08156,0.20421 -0.437203,0.14138 z"
       id="path2804"
       inkscape:connector-curvature="0" />
    <path
       style="opacity:1;fill:#216778;fill-opacity:1;fill-rule:nonzero;stroke:none;stroke-width:0.66499996;stroke-linecap:butt;stroke-linejoin:miter;stroke-miterlimit:4;stroke-dasharray:none;stroke-dashoffset:0;stroke-opacity:1;paint-order:stroke fill markers"
       d="m 13.969439,107.07912 c 0.01275,-0.19322 0.03673,-0.28069 0.06827,-0.24916 0.01527,0.0153 0.06378,0.31745 0.06402,0.39878 1.61e-4,0.0547 -0.01087,0.0644 -0.07311,0.0644 h -0.07331 z"
       id="path2806"
       inkscape:connector-curvature="0" />
    <path
       style="opacity:1;fill:#216778;fill-opacity:1;fill-rule:nonzero;stroke:none;stroke-width:0.66499996;stroke-linecap:butt;stroke-linejoin:miter;stroke-miterlimit:4;stroke-dasharray:none;stroke-dashoffset:0;stroke-opacity:1;paint-order:stroke fill markers"
       d="m 13.990942,107.96854 c -0.0053,-0.0171 -0.01643,-0.1331 -0.02474,-0.25768 l -0.01508,-0.22651 h 0.0788 0.07881 l -0.01537,0.20157 c -0.0085,0.11087 -0.02252,0.22683 -0.03126,0.25769 -0.0173,0.0611 -0.05578,0.0746 -0.07117,0.0249 z"
       id="path2808"
       inkscape:connector-curvature="0" />
    <path
       style="opacity:1;fill:#216778;fill-opacity:1;fill-rule:nonzero;stroke:none;stroke-width:0.66499996;stroke-linecap:butt;stroke-linejoin:miter;stroke-miterlimit:4;stroke-dasharray:none;stroke-dashoffset:0;stroke-opacity:1;paint-order:stroke fill markers"
       d="m 0.66836329,92.338978 c -0.02397,-0.0081 -0.112982,-0.0263 -0.197797,-0.04039 -0.279148,-0.04635 -0.377409,-0.359433 -0.22992,-0.732591 0.155509,-0.393448 0.424048,-0.780327 1.55087601,-2.234313 0.427099,-0.551101 0.76104,-1.006348 0.742093,-1.011666 -0.01894,-0.0053 -0.328681,-0.04898 -0.688306,-0.09703 -0.750868,-0.100322 -0.91230101,-0.140475 -1.11668701,-0.277746 -0.116784,-0.07844 -0.150267,-0.132983 -0.161041,-0.262343 -0.01291,-0.155127 -0.0042,-0.167436 0.17436,-0.245464 0.26921401,-0.117655 0.70830601,-0.171077 1.80928701,-0.220133 1.4290389,-0.06367 1.7255522,-0.01587 1.7824296,0.287308 0.075004,0.399796 -0.32385,1.120145 -1.2647401,2.28419 -0.5845125,0.723141 -0.8712965,1.134258 -0.8218965,1.178214 0.07333,0.06525 0.327657,0.124274 0.738574,0.171423 0.992706,0.113903 1.1246987,0.136139 1.2530534,0.211103 0.1810888,0.105762 0.2513648,0.252688 0.2290577,0.478888 -0.034044,0.345183 -0.1877457,0.415787 -1.0630455,0.488315 -0.4706885,0.039 -2.63500661,0.05659 -2.73629761,0.02222 z"
       id="path4090"
       inkscape:connector-curvature="0" />
    <path
       style="opacity:1;fill:#ffffff;fill-opacity:1;fill-rule:nonzero;stroke:none;stroke-width:2.51338577;stroke-linecap:butt;stroke-linejoin:miter;stroke-miterlimit:4;stroke-dasharray:none;stroke-dashoffset:0;stroke-opacity:1;paint-order:stroke fill markers"
       d="m 85.229815,95.709538 c -0.436002,-0.04561 -0.792732,-0.178639 -0.792732,-0.295625 0,-0.116986 0.527326,-3.083989 1.171831,-6.593337 1.626058,-8.853889 1.865633,-11.12853 1.718491,-16.316208 C 87.190522,67.678316 86.90023,66.008284 85.820836,63.837167 84.377514,60.934035 78.420557,54.61126 76.024055,53.438759 74.934784,52.90583 74.80937,52.889464 73.649918,53.128945 c -0.673264,0.13906 -2.540727,0.77412 -4.14992,1.411244 -6.113677,2.420572 -7.389457,3.486287 -5.603343,4.680714 0.491165,0.328457 1.251097,0.391208 5.913862,0.488321 l 5.350278,0.111435 0.384522,0.510398 c 0.211486,0.28072 0.891758,1.707638 1.511714,3.170928 1.015456,2.396794 1.135332,2.843561 1.209303,4.506932 0.104156,2.342148 -0.454861,4.401788 -2.350926,8.66175 -2.165436,4.865166 -2.129772,4.655559 -1.800368,10.581167 0.233066,4.192564 0.225045,4.635819 -0.08957,4.95043 -0.319802,0.319803 -0.41775,0.317977 -1.314577,-0.02453 -1.807809,-0.690408 -2.822456,-3.047346 -3.013717,-7.000604 -0.143518,-2.966432 0.254549,-5.068964 1.558817,-8.233467 0.527124,-1.278941 1.064417,-2.583319 1.193983,-2.898615 0.129566,-0.315298 0.166787,-0.64206 0.08271,-0.726134 -0.08408,-0.08408 -0.867839,-0.138282 -1.741694,-0.120459 -1.873059,0.0382 -3.037578,0.484164 -4.532429,1.735723 -1.346093,1.127013 -2.326354,1.509395 -3.931854,1.533742 -1.781064,0.02701 -2.728368,-0.595949 -4.033562,-2.652515 -2.536906,-3.997349 -3.51264,-5.409674 -4.192903,-6.069011 -0.87469,-0.847781 -0.963141,-0.549372 -0.292904,0.988179 1.342836,3.080525 1.286941,2.614066 1.464966,12.225598 0.142653,7.701833 0.222606,9.170229 0.603234,11.078943 0.241332,1.210191 0.494379,2.375507 0.562327,2.589591 0.109621,0.345383 -0.0056,0.389244 -1.022368,0.389244 -0.63025,0 -1.706848,-0.05923 -2.392441,-0.131623 L 51.776526,94.754703 51.726486,89.4429 c -0.06253,-6.637829 -0.399139,-13.312741 -0.814722,-16.15564 -0.175002,-1.19715 -0.694137,-3.479617 -1.153632,-5.072148 -0.683428,-2.368647 -0.834877,-3.222715 -0.832321,-4.693708 0.0059,-3.396159 0.954919,-5.981061 3.253957,-8.863024 1.749208,-2.192721 1.948849,-2.57349 2.350557,-4.483145 0.176223,-0.837732 0.517224,-1.84161 0.757782,-2.230839 0.851924,-1.378442 3.300117,-2.689371 5.641774,-3.020991 0.758504,-0.107418 1.511431,-0.327637 1.673171,-0.489378 0.446497,-0.446496 0.817698,-3.017389 1.425829,-9.875094 0.615049,-6.935718 1.033003,-10.124818 1.500637,-11.450232 0.692539,-1.962865 2.207427,-3.12202 4.092384,-3.131392 0.513572,-0.0026 1.988053,0.275714 3.276625,0.618373 1.28857,0.342658 3.151443,0.729188 4.139716,0.858956 2.198617,0.288695 3.705023,0.944718 4.82913,2.103033 1.065448,1.097873 1.384177,2.065161 1.931672,5.862297 1.056671,7.328516 4.420163,24.895382 6.24575,32.620336 0.886999,3.753327 1.234024,6.147836 1.059572,7.311165 -0.09747,0.649998 -0.05522,0.910584 0.161104,0.993595 0.438062,0.168101 0.658652,7.941247 0.248774,8.766297 -0.407073,0.819406 -2.666382,13.298018 -2.592903,14.321124 0.05546,0.772197 0.116703,0.851058 0.705715,0.908686 0.889997,0.08708 1.399506,-0.534242 1.527108,-1.86223 0.05621,-0.584939 0.195661,-1.121293 0.309903,-1.191899 0.40726,-0.2517 0.576803,0.483598 0.579995,2.515385 l 0.0032,2.061102 -3.012381,-0.03554 c -1.656809,-0.01955 -3.36911,-0.07285 -3.805113,-0.11846 z M 53.228755,78.899072 c 0.164422,-0.613537 0.164825,-2.872998 6.14e-4,-3.485642 -0.27012,-1.007856 -0.50156,-0.149681 -0.50156,1.859806 0,1.983231 0.216695,2.686517 0.500946,1.625836 z m 9.892017,-7.240284 c 0.530653,-1.994169 -1.463706,-6.896691 -4.394461,-10.802439 -1.291036,-1.72053 -2.875863,-3.25534 -3.361433,-3.25534 -0.785648,0 -2.187011,2.316126 -2.671619,4.415565 -0.348556,1.510023 8.87e-4,1.971626 1.842797,2.4343 0.777757,0.195367 1.759263,0.531737 2.181124,0.747489 1.876003,0.959447 4.306228,3.856258 4.588824,5.46985 0.301647,1.722372 1.452825,2.350733 1.814768,0.990575 z m 7.466366,-3.692389 c 0.760251,-1.500282 0.729352,-2.801781 -0.08588,-3.617005 -0.833833,-0.833836 -2.309041,-0.881104 -3.091099,-0.09905 -0.624028,0.624028 -0.656505,1.261076 -0.109983,2.15737 0.536101,0.879205 2.200693,2.608629 2.510839,2.608629 0.134238,0 0.483493,-0.472477 0.776118,-1.049949 z m 5.182744,-1.455075 c 0,-0.24179 -1.108742,-1.755168 -1.555327,-2.122945 -0.470264,-0.387275 -0.683481,-0.147807 -0.40757,0.457749 0.520615,1.142629 1.962897,2.366167 1.962897,1.665196 z m 8.163544,-13.020997 c 0.06449,-0.168066 -0.230419,-2.189532 -0.655357,-4.492147 -0.424938,-2.302618 -1.427862,-7.753871 -2.228722,-12.113896 -0.800858,-4.360026 -1.607755,-8.43067 -1.793104,-9.045877 -0.627146,-2.081604 -1.981566,-2.966235 -2.378361,-1.553413 -0.232429,0.82758 -0.128541,11.729921 0.144311,15.144286 0.47299,5.918857 0.865319,6.86682 4.217847,10.191381 1.206445,1.196381 2.279618,2.175235 2.384832,2.175235 0.105211,0 0.244062,-0.137506 0.308554,-0.305569 z M 61.864727,52.71498 c 1.159733,-0.59165 2.278407,-1.490365 2.278415,-1.830422 8e-6,-0.330897 -1.646763,-1.395305 -2.897999,-1.873158 l -0.925979,-0.353634 -0.757085,0.719359 c -0.903287,0.858272 -1.633026,2.3656 -1.46649,3.029134 0.260188,1.036671 2.054204,1.183616 3.769138,0.308721 z m 10.14404,-3.18323 1.499508,-0.247639 -0.137242,-3.610323 C 72.948023,34.54608 71.847848,25.567514 70.76006,24.365519 c -0.480184,-0.530597 -1.162095,-0.396818 -1.491461,0.292597 -0.690165,1.444628 -1.287188,7.946309 -1.462382,15.925583 -0.20259,9.227005 -0.0071,9.643259 4.20255,8.948051 z"
       id="path16355"
       inkscape:connector-curvature="0"
       transform="matrix(0.26458333,0,0,0.26458333,0,87)" />
    <path
       style="opacity:1;fill:#ffffff;fill-opacity:1;fill-rule:nonzero;stroke:none;stroke-width:2.51338577;stroke-linecap:butt;stroke-linejoin:miter;stroke-miterlimit:4;stroke-dasharray:none;stroke-dashoffset:0;stroke-opacity:1;paint-order:stroke fill markers"
       d="m 85.01842,95.712122 c -0.319735,-0.04844 -0.581026,-0.200657 -0.580647,-0.338269 4.22e-4,-0.137612 0.517167,-3.104037 1.148419,-6.592058 1.66561,-9.203432 1.706121,-9.562557 1.693118,-15.009056 -0.01729,-7.241051 -0.536994,-9.191043 -3.408584,-12.789407 -1.755522,-2.199829 -5.541333,-6.024308 -6.832473,-6.902257 -2.111413,-1.43572 -2.777396,-1.392183 -7.504528,0.490572 -3.583005,1.427065 -5.276227,2.261609 -5.944508,2.92989 -0.42864,0.42864 -0.468218,0.578805 -0.268233,1.017724 0.422709,0.927746 1.024204,1.032609 6.576125,1.14646 4.55398,0.09339 5.26709,0.153141 5.549332,0.465014 0.356731,0.394184 1.834872,3.687051 2.461515,5.483536 0.494111,1.416537 0.525281,3.883155 0.07115,5.630161 -0.334687,1.287513 -1.293214,3.738815 -2.833712,7.246844 -1.14087,2.597995 -1.262877,3.691877 -1.00007,8.966361 0.197527,3.96437 0.185222,4.439561 -0.12295,4.747731 -0.315664,0.315665 -0.41823,0.313503 -1.311474,-0.02763 -1.187056,-0.453341 -1.85052,-1.355679 -2.496941,-3.395943 -0.391996,-1.23724 -0.468502,-1.964816 -0.466805,-4.439298 0.0023,-3.402164 0.285549,-4.663383 1.891467,-8.423205 0.528186,-1.236605 0.960336,-2.34437 0.960336,-2.461705 0,-0.282105 -2.833754,-0.275262 -3.858475,0.0093 -0.436285,0.121163 -1.417686,0.698901 -2.18089,1.283866 -1.771862,1.358057 -2.64055,1.714057 -4.2133,1.726663 -2.211347,0.01771 -2.67076,-0.382258 -5.363258,-4.669449 -1.754119,-2.793037 -3.255325,-4.6979 -3.508081,-4.451362 -0.07733,0.07542 0.202519,0.965997 0.621876,1.979058 0.994547,2.402569 1.152144,3.772619 1.166955,10.144729 0.01825,7.850366 0.281259,11.245438 1.166829,15.061905 0.107215,0.462055 0.06346,0.475574 -1.531973,0.473312 -2.225424,-0.0031 -3.280389,-0.189909 -3.139962,-0.555856 0.153407,-0.399773 -0.251747,-14.372482 -0.514029,-17.727498 -0.265171,-3.391988 -0.622407,-5.374293 -1.579063,-8.762264 -0.890346,-3.153132 -0.983195,-5.34526 -0.333929,-7.883869 0.535651,-2.094374 1.128306,-3.210358 3.046542,-5.736715 1.291127,-1.700439 1.652437,-2.349101 1.942858,-3.48802 0.641766,-2.516756 0.771548,-2.812623 1.594933,-3.636007 1.304045,-1.304046 3.062792,-2.067878 5.549154,-2.410025 0.899861,-0.123829 1.055963,-0.223255 1.311776,-0.8355 0.359142,-0.859558 0.806453,-4.415546 1.371206,-10.900707 0.852174,-9.785654 1.396512,-11.669689 3.6699,-12.702077 1.212689,-0.550704 2.399546,-0.501893 5.208311,0.214201 1.334551,0.340243 3.187478,0.728028 4.117616,0.861745 2.121955,0.305051 3.628408,0.976286 4.723433,2.104635 1.014475,1.045348 1.38987,2.087941 1.829889,5.082197 1.106409,7.528927 3.856241,22.076959 5.953653,31.497879 0.996496,4.475952 1.4063,6.761031 1.451875,8.095708 0.03492,1.022753 0.154519,1.974031 0.265766,2.113951 0.111247,0.139921 0.26763,2.014266 0.347521,4.165212 0.121947,3.28325 0.09286,4.035663 -0.18125,4.688853 -0.319951,0.762422 -2.307091,11.192583 -2.571692,13.498388 -0.15475,1.348511 0.163839,1.82601 1.067063,1.599317 0.641487,-0.161003 0.95861,-0.716765 1.142488,-2.002238 0.09475,-0.662432 0.241514,-0.978405 0.454436,-0.978405 0.255154,0 0.325798,0.428708 0.37448,2.272498 l 0.06,2.272498 -3.230927,-0.03167 c -1.777011,-0.01742 -3.49253,-0.0713 -3.812265,-0.119738 z M 53.341988,77.260759 c -0.07062,-2.891541 -0.605779,-2.876109 -0.610942,0.01761 -0.0018,0.997963 0.06605,1.883768 0.150744,1.968457 0.227026,0.227026 0.486862,-0.894347 0.460198,-1.986072 z m 9.61587,-5.196471 c 0.267244,-0.696427 0.111901,-2.687209 -0.306632,-3.929606 -1.015286,-3.013829 -3.435115,-6.985785 -5.602833,-9.196602 -0.721053,-0.735389 -1.44716,-1.337071 -1.613571,-1.337071 -1.081323,0 -3.229758,4.393669 -2.804149,5.734642 0.152979,0.481997 0.901658,0.880682 2.292347,1.220722 2.0997,0.513401 3.574161,1.57322 5.137034,3.692418 0.503246,0.682384 1.063781,1.752508 1.245632,2.378056 0.457449,1.573567 1.313974,2.31877 1.652172,1.437441 z m 7.7674,-4.422009 c 0.700593,-1.54014 0.433692,-3.026572 -0.643466,-3.583591 -0.799809,-0.413599 -1.560768,-0.415631 -2.352362,-0.0063 -1.273104,0.658348 -0.965732,2.044752 0.854577,3.854565 1.263141,1.255858 1.460675,1.23144 2.141251,-0.264692 z m 5.044624,-1.14369 c 0,-0.105826 -0.384978,-0.679447 -0.855508,-1.274712 -0.918339,-1.161786 -1.48384,-1.273096 -0.919042,-0.1809 0.573718,1.109451 1.77455,2.094457 1.77455,1.455612 z m 8.114767,-13.825277 c -0.498559,-3.382039 -4.317643,-23.7319 -4.648434,-24.769019 -0.452468,-1.418618 -1.05404,-2.223953 -1.661253,-2.223953 -0.270311,0 -0.549217,0.150472 -0.61979,0.334382 -0.216699,0.564708 -0.142085,12.250574 0.09834,15.402601 0.299354,3.924532 0.668721,5.643841 1.511084,7.033734 0.810711,1.337665 4.90445,5.44547 5.22772,5.24568 0.134468,-0.08311 0.171097,-0.4891 0.09233,-1.023425 z m -21.954708,-0.04403 c 0.584879,-0.280628 1.345902,-0.806636 1.691161,-1.168908 L 64.248846,50.801696 63.61466,50.292473 C 63.265858,50.0124 62.372017,49.524379 61.628346,49.207982 l -1.352129,-0.575268 -0.914198,1.009763 c -2.526123,2.79019 -0.918773,4.659735 2.567922,2.986805 z m 9.907367,-3.101225 1.669398,-0.254126 -0.140613,-3.499535 C 72.92742,34.85684 71.886904,26.143624 70.829013,24.52908 c -0.503681,-0.768716 -1.092402,-0.689325 -1.565873,0.211165 -0.718719,1.36692 -1.364352,9.328499 -1.396231,17.217522 -0.02169,5.36815 0.01597,6.098495 0.345591,6.70129 0.648389,1.18575 0.996222,1.269139 3.624808,0.869 z"
       id="path16357"
       inkscape:connector-curvature="0"
       transform="matrix(0.26458333,0,0,0.26458333,0,87)" />
    <path
       style="opacity:1;fill:#ffffff;fill-opacity:1;fill-rule:nonzero;stroke:none;stroke-width:2.51338577;stroke-linecap:butt;stroke-linejoin:miter;stroke-miterlimit:4;stroke-dasharray:none;stroke-dashoffset:0;stroke-opacity:1;paint-order:stroke fill markers"
       d="m 35.683028,60.059556 c -0.363911,-0.166564 -0.729881,-0.413233 -0.813267,-0.548154 -0.338355,-0.547471 -1.517715,-0.698027 -6.775455,-0.864946 -5.532505,-0.175642 -6.65298,-0.334216 -6.65298,-0.941544 0,-0.990545 2.915075,-5.277085 11.255624,-16.551094 6.028597,-8.14892 8.344957,-11.531069 8.529573,-12.454147 0.121208,-0.606039 0.07633,-0.688343 -0.446962,-0.819681 -1.018853,-0.255716 -4.973876,0.07887 -7.922897,0.670252 -2.519732,0.505298 -3.012178,0.545636 -4.206379,0.344562 -2.623542,-0.441739 -5.62144,-2.442212 -5.105261,-3.4067 0.359149,-0.671076 1.748366,-1.755203 2.960139,-2.310054 1.522299,-0.697036 2.846662,-0.791114 5.303996,-0.376777 1.099331,0.185361 4.773926,0.481974 8.165768,0.659141 6.513212,0.340206 8.211816,0.547795 8.731054,1.067032 0.284635,0.284635 0.253059,0.445452 -0.291798,1.486116 -0.95918,1.832007 -3.574485,5.740205 -6.994264,10.451919 -9.478484,13.059297 -11.329297,15.764155 -11.608344,16.964936 -0.105557,0.454225 -0.01843,0.703496 0.387894,1.109825 0.689591,0.68959 1.574151,0.680318 4.136961,-0.04336 2.614451,-0.738264 4.571225,-0.738226 7.781813,1.54e-4 3.806874,0.875516 4.845226,1.678583 3.833468,2.964825 -1.378732,1.752773 -8.293123,3.501926 -10.268683,2.597698 z m 2.991524,-2.252147 c 0.760559,-0.840408 0.242912,-0.941364 -5.193875,-1.012961 -3.483607,-0.04588 -5.063311,0.0036 -5.063311,0.158546 0,0.123874 0.11891,0.232947 0.264244,0.242386 0.145334,0.0094 2.024109,0.235778 4.175054,0.502977 5.076046,0.630564 5.341424,0.635538 5.817888,0.109052 z m 5.539184,-0.76848 c 0.04436,-0.134744 -0.193234,-0.305147 -0.527997,-0.378673 -0.677141,-0.148724 -1.739083,0.17111 -1.739083,0.523779 0,0.310979 2.162486,0.172568 2.26708,-0.145106 z M 33.313402,26.153741 c 0.373008,-0.373007 -0.634098,-0.746109 -2.303069,-0.853217 -1.998769,-0.128273 -2.812933,0.444588 -1.461511,1.028348 0.582941,0.251806 3.472046,0.117403 3.76458,-0.175131 z m 8.914788,-0.05385 c 1.465914,-0.0022 2.048667,-0.06841 1.832418,-0.208158 -0.413882,-0.267471 -6.764645,-0.277843 -6.764645,-0.01105 0,0.19494 1.937441,0.417595 2.501182,0.287441 0.154844,-0.03575 1.248814,-0.06646 2.431045,-0.06824 z"
       id="path16359"
       inkscape:connector-curvature="0"
       transform="matrix(0.26458333,0,0,0.26458333,0,87)" />
    <path
       style="opacity:1;fill:#ffffff;fill-opacity:1;fill-rule:nonzero;stroke:none;stroke-width:2.51338577;stroke-linecap:butt;stroke-linejoin:miter;stroke-miterlimit:4;stroke-dasharray:none;stroke-dashoffset:0;stroke-opacity:1;paint-order:stroke fill markers"
       d="m 35.278327,59.800644 c -0.444546,-0.301676 -1.052369,-0.641673 -1.35072,-0.755548 -0.29835,-0.113876 -2.968214,-0.288074 -5.933031,-0.387111 -5.420669,-0.18107 -6.55325,-0.345787 -6.55325,-0.953073 0,-0.991206 2.623841,-4.875421 10.71004,-15.854649 5.821361,-7.90409 8.281889,-11.412463 8.871211,-12.649114 0.379565,-0.796494 0.378937,-0.819176 -0.03133,-1.131125 -0.591036,-0.449398 -4.179637,-0.230232 -8.095877,0.494441 -2.695707,0.498821 -3.196262,0.535996 -4.343744,0.3226 -2.611546,-0.485666 -5.51194,-2.454731 -5.006603,-3.398961 0.649297,-1.213222 3.344207,-2.763774 5.096102,-2.932109 0.540897,-0.05197 2.067399,0.05867 3.392226,0.245865 1.324827,0.187199 5.03033,0.482365 8.234451,0.655926 6.164508,0.333919 7.924278,0.55576 8.4314,1.062883 0.2756,0.2756 0.245276,0.44926 -0.257456,1.474308 -0.807278,1.646009 -4.645307,7.281199 -9.576178,14.060234 -7.730033,10.627363 -8.968437,12.51623 -8.968437,13.679045 0,1.415377 1.149425,1.581081 4.756391,0.685694 2.673177,-0.663587 2.799927,-0.675353 4.64684,-0.431358 3.990067,0.527122 6.909979,1.554847 7.043625,2.479155 0.168091,1.162541 -1.962687,2.445677 -5.588763,3.365506 -2.756053,0.699131 -4.413158,0.689265 -5.476898,-0.03261 z m 3.392877,-1.989535 c 0.211086,-0.233247 0.324729,-0.48315 0.252539,-0.555342 -0.327125,-0.327125 -2.260832,-0.482623 -6.107452,-0.491132 -4.032284,-0.0089 -5.608145,0.238061 -3.291955,0.515937 0.611974,0.07342 2.539596,0.307443 4.283607,0.520049 4.216547,0.514029 4.407191,0.514439 4.863261,0.01049 z m 5.365115,-0.613406 c 0.453766,-0.287374 -0.470266,-0.695215 -1.186896,-0.52386 -0.783622,0.187372 -0.932424,0.285369 -0.788042,0.518983 0.153508,0.248381 1.584863,0.251918 1.974938,0.0049 z M 32.16963,26.38894 c 0.67156,-0.08066 1.109825,-0.236986 1.109825,-0.395857 0,-0.324986 -1.563605,-0.735533 -2.801343,-0.735533 -1.092586,0 -1.838786,0.418481 -1.392801,0.781106 0.553306,0.449885 1.428034,0.549227 3.084319,0.350284 z m 11.679583,-0.497205 c -0.424888,-0.274583 -6.277851,-0.274583 -6.447553,0 -0.08509,0.137678 1.071604,0.210267 3.316998,0.208158 2.304065,-0.0022 3.342468,-0.07121 3.130555,-0.208158 z"
       id="path16361"
       inkscape:connector-curvature="0"
       transform="matrix(0.26458333,0,0,0.26458333,0,87)" />
    <path
       style="opacity:1;fill:#ffffff;fill-opacity:1;fill-rule:nonzero;stroke:none;stroke-width:2.51338577;stroke-linecap:butt;stroke-linejoin:miter;stroke-miterlimit:4;stroke-dasharray:none;stroke-dashoffset:0;stroke-opacity:1;paint-order:stroke fill markers"
       d="m 35.264359,59.789934 c -0.452227,-0.307567 -1.107614,-0.637925 -1.456416,-0.734129 -0.348802,-0.0962 -3.019027,-0.268473 -5.933834,-0.382819 -2.914806,-0.114348 -5.566091,-0.309206 -5.891745,-0.43302 -1.346786,-0.512048 -0.587191,-1.731476 10.514037,-16.878911 7.603227,-10.374472 9.061649,-12.575596 8.709682,-13.14509 -0.377614,-0.610992 -4.316548,-0.406474 -8.712786,0.452386 -2.573344,0.502734 -3.77897,0.451478 -5.615376,-0.238733 -1.303484,-0.489912 -2.769396,-1.503901 -3.262686,-2.256837 -0.277159,-0.423043 -0.239974,-0.525955 0.47665,-1.319173 0.427494,-0.473184 1.406695,-1.170421 2.176002,-1.549416 1.226883,-0.604417 1.607195,-0.689082 3.09533,-0.689082 0.933124,0 2.600303,0.117666 3.704842,0.261479 1.10454,0.143814 4.570214,0.410128 7.701499,0.591809 8.050796,0.467118 8.556068,0.613576 7.813112,2.264712 -0.671119,1.491486 -4.219355,6.73064 -9.503061,14.031762 -8.66706,11.976302 -9.599434,13.491121 -8.996839,14.617082 0.420978,0.786605 1.596052,0.754044 5.310636,-0.147157 2.153547,-0.522476 2.567769,-0.532325 4.992945,-0.118711 2.401531,0.409578 4.670418,1.087484 5.415574,1.61808 1.68576,1.200367 -0.438745,2.930184 -5.028784,4.094542 -2.789098,0.707515 -4.428453,0.695975 -5.508782,-0.03877 z m 3.328472,-2.006028 c 0.432318,-0.432318 0.434899,-0.460458 0.06142,-0.669469 -0.539847,-0.302113 -8.668037,-0.463247 -9.602696,-0.190366 -0.469742,0.137147 -0.585516,0.227037 -0.317092,0.246195 0.232534,0.0166 2.230219,0.252486 4.439298,0.524195 5.09007,0.626059 4.885832,0.62269 5.419074,0.08945 z m 5.133394,-0.522607 c 0.580326,-0.222692 0.36301,-0.50587 -0.38821,-0.50587 -0.882848,0 -1.428907,0.191014 -1.271971,0.44494 0.133174,0.215481 1.159291,0.253139 1.660181,0.06093 z M 33.143603,26.101313 c 0.459646,-0.432176 -2.051664,-0.995989 -3.350758,-0.752278 -0.938913,0.176142 -0.967432,0.674287 -0.05426,0.947749 0.73832,0.221101 3.106563,0.08515 3.405018,-0.195471 z M 43.53212,25.891735 c -0.602478,-0.258893 -5.759059,-0.258893 -5.919065,0 -0.08507,0.137652 0.998291,0.206212 3.105603,0.196538 2.004804,-0.0092 3.075374,-0.08399 2.813462,-0.196538 z"
       id="path16363"
       inkscape:connector-curvature="0"
       transform="matrix(0.26458333,0,0,0.26458333,0,87)" />
    <path
       style="opacity:1;fill:#ffffff;fill-opacity:1;fill-rule:nonzero;stroke:none;stroke-width:2.51338577;stroke-linecap:butt;stroke-linejoin:miter;stroke-miterlimit:4;stroke-dasharray:none;stroke-dashoffset:0;stroke-opacity:1;paint-order:stroke fill markers"
       d="m 35.076314,59.717859 c -1.298898,-0.766916 -1.571508,-0.804525 -7.621974,-1.05152 -2.68061,-0.109428 -5.141639,-0.300779 -5.468955,-0.425223 -0.519231,-0.197411 -0.578931,-0.307204 -0.468171,-0.861002 0.236048,-1.18024 3.111622,-5.366524 11.755332,-17.113508 5.014417,-6.814699 7.794056,-10.913366 7.875768,-11.613074 0.12059,-1.032629 -1.995488,-1.055241 -7.859316,-0.08398 -3.932282,0.651326 -4.988546,0.582941 -7.123355,-0.461178 -1.342437,-0.656576 -2.821761,-1.919226 -2.821761,-2.408463 0,-0.344617 1.879822,-1.903684 2.993311,-2.482561 0.9697,-0.504124 1.382285,-0.587968 2.925754,-0.594561 0.988272,-0.0042 2.843265,0.111931 4.122205,0.258117 1.278941,0.146186 4.74915,0.411453 7.711576,0.589482 2.962425,0.17803 5.626004,0.376132 5.919066,0.440228 1.284959,0.281037 1.906903,0.555616 1.906903,0.841871 0,1.068605 -2.803722,5.320711 -10.78714,16.359703 -6.433586,8.895977 -8.238425,11.669518 -8.238425,12.660188 0,1.209049 1.495196,1.377522 4.901471,0.552282 2.638165,-0.639149 3.324141,-0.650632 6.161172,-0.103142 2.535873,0.489374 4.486852,1.115175 5.0415,1.617125 1.428409,1.292694 -1.304133,3.199694 -6.023844,4.203948 -2.325032,0.494717 -3.663443,0.406039 -4.901117,-0.324729 z m 3.290522,-1.701496 c 0.507692,-0.271711 0.529551,-0.74661 0.04296,-0.933333 -0.615386,-0.236145 -8.140192,-0.379894 -9.041151,-0.172716 -0.924672,0.212632 -1.068055,0.187505 5.70767,1.000142 3.032472,0.363695 2.821525,0.356907 3.290522,0.105907 z m 5.359389,-0.755064 c 0.612198,-0.234921 0.345077,-0.50587 -0.498721,-0.50587 -0.802849,0 -1.204552,0.217225 -0.922776,0.499002 0.171124,0.171122 0.983233,0.175048 1.421497,0.0069 z M 33.060897,26.112031 c 0.424684,-0.268599 -0.516557,-0.617918 -2.084677,-0.773676 -0.892473,-0.08865 -1.289097,-0.03589 -1.607576,0.213831 -0.365118,0.286293 -0.379536,0.360458 -0.105697,0.54369 0.398767,0.266826 3.381551,0.279514 3.79795,0.01616 z M 43.10933,25.891735 c -0.585009,-0.251387 -4.790188,-0.251387 -5.179182,0 -0.212561,0.137368 0.658538,0.20109 2.64244,0.1933 1.847502,-0.0073 2.800671,-0.07989 2.536742,-0.1933 z"
       id="path16365"
       inkscape:connector-curvature="0"
       transform="matrix(0.26458333,0,0,0.26458333,0,87)" />
    <path
       style="opacity:1;fill:#ffffff;fill-opacity:1;fill-rule:nonzero;stroke:none;stroke-width:2.51338577;stroke-linecap:butt;stroke-linejoin:miter;stroke-miterlimit:4;stroke-dasharray:none;stroke-dashoffset:0;stroke-opacity:1;paint-order:stroke fill markers"
       d="m 84.807025,95.717812 c -0.203468,-0.05317 -0.369942,-0.242677 -0.369942,-0.421124 0,-0.178447 0.376113,-2.383193 0.835804,-4.899436 2.000437,-10.949904 2.29075,-13.873144 1.934429,-19.478348 -0.315271,-4.959461 -0.851386,-6.664602 -2.957687,-9.407084 -2.348404,-3.057709 -6.491588,-7.122404 -8.101384,-7.947913 -1.18433,-0.607328 -2.398398,-0.50508 -4.966634,0.418284 -2.925118,1.051676 -6.078904,2.430518 -7.091312,3.100338 -0.916194,0.606163 -1.039885,1.286185 -0.347892,1.912634 0.401452,0.363426 0.973629,0.419482 5.866216,0.574698 6.424112,0.203807 5.751755,-0.13644 7.447848,3.76899 l 1.134484,2.612267 0.005,2.431045 c 0.0058,2.838863 -0.152687,3.399441 -2.510525,8.878596 l -1.500997,3.48802 v 5.68371 c 0,5.197383 -0.03186,5.703848 -0.372404,5.919065 -0.294459,0.186093 -0.578331,0.124738 -1.356244,-0.293134 -1.799402,-0.966583 -2.805332,-3.662763 -2.812678,-7.53878 -0.0058,-3.073586 0.51742,-5.250506 2.194052,-9.128181 0.419399,-0.96998 0.709203,-1.849912 0.644004,-1.955405 -0.164156,-0.265611 -2.554938,-0.238663 -3.581609,0.04037 -0.465069,0.126399 -1.478063,0.688135 -2.251098,1.248301 -1.843101,1.335571 -2.083479,1.454512 -3.450177,1.707159 -1.344499,0.248544 -2.491632,0.01698 -3.380818,-0.682449 -0.316681,-0.249102 -1.648434,-2.079989 -2.959452,-4.06864 -2.244163,-3.404111 -3.150879,-4.559804 -3.389921,-4.320763 -0.0565,0.0565 0.229765,0.927277 0.636139,1.935065 0.977892,2.425132 1.149981,3.807838 1.162406,9.339728 0.01469,6.541236 0.315979,11.662559 0.8315,14.133897 0.23914,1.146405 0.4348,2.121465 0.4348,2.166801 0,0.13031 -3.473727,0.09586 -4.159285,-0.04126 l -0.618416,-0.123683 -0.04958,-4.474162 c -0.06207,-5.60135 -0.396372,-13.177749 -0.691783,-15.678105 -0.283362,-2.398371 -0.626065,-4.051336 -1.443522,-6.962562 -0.506564,-1.804036 -0.64764,-2.726251 -0.64764,-4.23363 0,-3.321519 0.778244,-5.482519 3.095993,-8.59683 1.84876,-2.484141 2.028947,-2.829628 2.504169,-4.801442 0.239726,-0.994684 0.611036,-1.861799 1.033554,-2.41364 0.90119,-1.177027 2.829464,-2.187418 5.092146,-2.668219 1.017859,-0.216287 1.928686,-0.51951 2.02406,-0.673828 0.09537,-0.154319 0.278789,-0.885725 0.407588,-1.625348 0.229695,-1.319002 0.382077,-2.738248 1.2765,-11.888997 0.774668,-7.925543 1.317107,-9.483196 3.640498,-10.453971 1.123816,-0.46956 2.183184,-0.408816 5.094617,0.292126 1.4148,0.34062 3.048001,0.681795 3.629338,0.758168 3.057313,0.401653 5.053201,1.508324 5.984028,3.318001 0.345908,0.672503 0.675877,2.011555 1.015788,4.122206 1.56262,9.702942 3.956956,22.341401 5.898665,31.136002 1.320765,5.982145 1.578287,7.46983 1.580492,9.130364 8.45e-4,0.661676 0.08638,1.255447 0.190004,1.319489 0.103623,0.06404 0.257084,1.85648 0.34102,3.983194 0.126421,3.203064 0.09728,4.029739 -0.169782,4.816351 -0.350282,1.031729 -1.526144,7.034436 -2.283051,11.654831 -0.390677,2.384816 -0.426022,2.952359 -0.200768,3.223776 0.718997,0.866337 1.686764,0.151433 2.014093,-1.487837 0.163861,-0.820624 0.352059,-1.247987 0.549579,-1.247987 0.237231,0 0.312998,0.477762 0.360384,2.272498 l 0.06,2.272498 -3.442323,-0.02452 c -1.893278,-0.01349 -3.608796,-0.06803 -3.812264,-0.1212 z M 53.272805,76.732271 c -0.05391,-0.697604 -0.10491,-1.363498 -0.113344,-1.479766 -0.0084,-0.116267 -0.10755,-0.0687 -0.220256,0.105698 -0.23779,0.367952 -0.285892,3.448758 -0.05741,3.677233 0.274687,0.274687 0.49152,-1.002503 0.391015,-2.303165 z m 9.685053,-4.667983 c 0.459128,-1.196467 -0.221297,-4.195458 -1.548326,-6.824286 -1.609301,-3.188008 -5.273118,-7.756478 -6.093783,-7.59843 -0.904604,0.174211 -2.605079,3.421274 -2.660067,5.079409 -0.03154,0.951139 0.363514,1.302378 1.868986,1.661689 3.054782,0.729087 5.803061,3.252993 6.796258,6.241404 0.52197,1.570545 1.318122,2.27102 1.636932,1.440214 z m 7.591166,-4.144707 c 1.089748,-2.229388 0.327867,-4.188112 -1.62904,-4.188112 -1.475801,0 -2.229474,1.010528 -1.701171,2.280935 0.397584,0.956066 2.189019,2.826338 2.629732,2.745461 0.17565,-0.03224 0.490866,-0.409462 0.700479,-0.838284 z m 5.220858,-1.358803 c 0,-0.327111 -1.549038,-2.195124 -1.820292,-2.195124 -0.264299,0 -0.26473,0.07678 -0.0033,0.581337 0.548431,1.058361 1.823569,2.186809 1.823569,1.613787 z M 83.738471,52.368979 C 83.589416,50.677564 79.703692,29.640637 79.25786,28.111384 78.838858,26.674168 78.195039,25.68034 77.682983,25.68034 c -0.872177,0 -0.920821,0.525219 -0.791787,8.549169 0.198326,12.332986 0.450595,13.337898 4.331265,17.253576 1.260672,1.272048 2.370796,2.312811 2.466943,2.312811 0.09615,0 0.118229,-0.642112 0.04907,-1.426917 z m -21.88413,0.28739 c 0.427032,-0.205113 1.140491,-0.696241 1.585463,-1.091393 l 0.809042,-0.718461 -0.516669,-0.406874 C 63.44801,50.21586 62.56848,49.719754 61.777666,49.337181 l -1.437842,-0.695583 -0.65444,0.621745 c -1.239906,1.177957 -1.837007,3.004889 -1.197056,3.662595 0.360075,0.370064 2.369351,0.20915 3.366013,-0.269569 z m 9.874991,-3.124171 1.772815,-0.24773 -0.143343,-3.293408 c -0.360285,-8.277787 -1.217856,-17.075991 -1.928195,-19.782232 -0.372918,-1.420735 -0.817361,-2.219649 -1.23481,-2.219649 -1.246801,0 -1.859781,3.888017 -2.26632,14.374871 -0.305567,7.882221 -0.09678,10.380098 0.927577,11.09759 0.545969,0.382412 0.62643,0.384389 2.872276,0.07056 z"
       id="path16367"
       inkscape:connector-curvature="0"
       transform="matrix(0.26458333,0,0,0.26458333,0,87)" />
    <path
       style="opacity:1;fill:#ffffff;fill-opacity:1;fill-rule:nonzero;stroke:none;stroke-width:2.51338577;stroke-linecap:butt;stroke-linejoin:miter;stroke-miterlimit:4;stroke-dasharray:none;stroke-dashoffset:0;stroke-opacity:1;paint-order:stroke fill markers"
       d="m 84.807025,95.717812 c -0.484862,-0.126706 -0.478222,-0.232615 0.26974,-4.301635 1.332227,-7.247512 1.917701,-11.184303 2.086578,-14.030388 0.191788,-3.232241 -0.02335,-8.872566 -0.407927,-10.694788 -0.611496,-2.897405 -2.854099,-6.075909 -7.319492,-10.374124 -2.453435,-2.361582 -3.71524,-3.155166 -5.016732,-3.155166 -0.982333,0 -3.19271,0.730353 -6.813304,2.251251 -3.906695,1.641081 -4.948557,2.60009 -3.877629,3.569267 0.383466,0.347031 1.023999,0.408304 5.841601,0.558798 3.823456,0.119441 5.506487,0.247273 5.73669,0.435726 0.401118,0.328368 1.967444,3.638546 2.58791,5.469129 0.386691,1.140863 0.442381,1.679382 0.358302,3.464768 -0.11632,2.470102 -0.393036,3.374945 -2.5536,8.350109 l -1.514744,3.48802 v 5.683596 c 0,5.19723 -0.03187,5.703744 -0.372404,5.919065 -0.294323,0.186097 -0.582425,0.124659 -1.374069,-0.29302 -1.972412,-1.040664 -2.910114,-3.936239 -2.738328,-8.455806 0.110086,-2.896317 0.460224,-4.280171 2.033911,-8.038677 0.458184,-1.0943 0.779395,-2.076469 0.713801,-2.182602 -0.195242,-0.315911 -3.498143,-0.01605 -4.301016,0.39047 -0.399597,0.202332 -1.206976,0.734093 -1.794176,1.18169 -1.826656,1.392386 -3.588638,1.885829 -5.197562,1.455574 -1.176317,-0.314568 -2.246444,-1.421061 -3.776072,-3.904396 -1.678921,-2.725713 -3.670229,-5.353224 -3.753089,-4.952167 -0.03784,0.183159 0.219216,1.052311 0.571239,1.931446 0.851891,2.127498 1.057646,3.745996 1.069261,8.410993 0.01576,6.331105 0.353851,12.331183 0.833805,14.797661 0.237559,1.220807 0.432212,2.243431 0.432564,2.272498 0.0013,0.108433 -3.775033,0.04813 -4.359386,-0.06961 L 51.565136,94.773032 51.537629,88.078 c -0.04278,-10.411508 -0.450422,-14.832301 -1.806428,-19.59014 -0.489442,-1.717313 -0.687563,-2.909512 -0.757689,-4.559409 -0.155638,-3.661783 0.645503,-5.962424 3.30757,-9.498369 1.169138,-1.552932 1.610164,-2.343755 1.945201,-3.48802 0.238299,-0.813872 0.57557,-1.879627 0.749491,-2.368345 0.579596,-1.62866 2.599593,-2.939086 5.611685,-3.640451 0.956957,-0.222827 1.851047,-0.557115 1.986867,-0.742859 0.418032,-0.571693 0.696067,-2.503166 1.35602,-9.420075 0.870608,-9.124775 1.150604,-10.948768 1.914592,-12.472314 0.719621,-1.435072 2.176858,-2.325347 3.806217,-2.325347 0.478991,0 2.123001,0.281801 3.653356,0.626225 1.530355,0.344424 3.513534,0.765108 4.407063,0.934853 2.045299,0.388548 3.008402,0.843786 4.107714,1.941625 1.121606,1.120103 1.401878,2.008031 2.197341,6.961357 1.346801,8.386492 3.784734,21.094398 5.839901,30.440903 0.723849,3.291922 1.207221,6.042203 1.281795,7.293133 0.06585,1.10454 0.196441,2.106215 0.290205,2.225943 0.09377,0.119728 0.237547,1.890991 0.319516,3.936142 0.136051,3.394505 0.110242,3.863578 -0.29625,5.384283 -0.447415,1.673797 -1.646231,7.916203 -2.258905,11.762443 -0.351886,2.209059 -0.231311,2.904189 0.503746,2.904189 0.594739,0 1.117475,-0.732949 1.39197,-1.951737 0.158825,-0.705204 0.36119,-1.113493 0.551893,-1.113493 0.238158,0 0.313656,0.475115 0.361112,2.272498 l 0.06,2.272498 -3.442323,-0.02452 c -1.893278,-0.01349 -3.608796,-0.06803 -3.812264,-0.1212 z M 53.25887,77.049364 c -0.03328,-0.406936 -0.07794,-1.025266 -0.09924,-1.374068 -0.06964,-1.140014 -0.400399,0.06203 -0.416959,1.515324 -0.01892,1.66085 0.218759,2.401103 0.429774,1.33851 0.08081,-0.406935 0.119705,-1.07283 0.08643,-1.479766 z m 9.620118,-4.97286 c 0.3373,-0.406422 0.162788,-2.544479 -0.328265,-4.021776 -0.994993,-2.993368 -3.206422,-6.587466 -5.493971,-8.929014 -1.103268,-1.129311 -1.601719,-1.503411 -1.867339,-1.401482 -0.910098,0.349237 -2.461604,3.471161 -2.461604,4.953214 0,0.975048 0.434621,1.350906 2.056991,1.77888 1.549154,0.408659 2.498248,0.921694 3.697074,1.998464 1.229613,1.104422 2.60346,3.104203 2.909057,4.23444 0.221337,0.818609 0.767038,1.709441 1.047158,1.709441 0.09544,0 0.293843,-0.144975 0.440899,-0.322167 z m 7.637029,-4.169981 c 1.094549,-2.126686 0.331161,-4.069356 -1.599088,-4.069356 -1.806002,0 -2.369459,1.389768 -1.21153,2.988244 0.636741,0.878993 1.836137,1.979542 2.157341,1.979542 0.104983,0 0.398958,-0.404293 0.653277,-0.89843 z m 5.253865,-1.406464 c 0,-0.105019 -0.424298,-0.652004 -0.942884,-1.215523 -0.658935,-0.716027 -0.945414,-0.913354 -0.951278,-0.655246 -0.0046,0.203131 0.335621,0.750116 0.756086,1.215522 0.740974,0.820169 1.138076,1.048799 1.138076,0.655247 z m 8.033016,-13.553278 c 0,-0.681045 -2.69595,-15.630189 -3.922285,-21.749217 -0.752531,-3.754896 -1.2954,-5.188917 -2.055693,-5.430225 -0.854806,-0.271304 -0.893117,0.05644 -0.874669,7.482329 0.02522,10.151163 0.459499,13.524825 2.021266,15.702136 0.842022,1.17389 4.270011,4.632697 4.591418,4.632697 0.13198,0 0.239963,-0.286973 0.239963,-0.63772 z m -21.853525,-0.38535 c 0.450838,-0.233752 1.152473,-0.706939 1.559188,-1.051528 l 0.739481,-0.626529 -0.528086,-0.429567 c -0.290447,-0.236264 -1.167582,-0.739592 -1.949188,-1.118509 -1.411983,-0.684517 -1.424058,-0.68632 -1.881696,-0.28097 -1.385332,1.227048 -2.105251,3.39098 -1.295047,3.892648 0.528843,0.327451 2.393399,0.113206 3.355348,-0.385545 z m 9.804001,-3.061672 1.585464,-0.253095 -0.0557,-2.957414 c -0.06634,-3.522625 -0.566122,-10.714419 -1.020842,-14.689845 -0.669545,-5.853602 -1.495705,-8.246578 -2.546105,-7.374823 -1.01508,0.842441 -1.753825,8.207622 -1.801398,17.959664 -0.02873,5.88971 0.110859,6.827009 1.090443,7.32191 0.629987,0.318279 0.71552,0.31808 2.748137,-0.0064 z"
       id="path16369"
       inkscape:connector-curvature="0"
       transform="matrix(0.26458333,0,0,0.26458333,0,87)" />
    <path
       style="opacity:1;fill:#ffffff;fill-opacity:1;fill-rule:nonzero;stroke:none;stroke-width:2.51338577;stroke-linecap:butt;stroke-linejoin:miter;stroke-miterlimit:4;stroke-dasharray:none;stroke-dashoffset:0;stroke-opacity:1;paint-order:stroke fill markers"
       d="m 84.657611,95.662256 c -0.263779,-0.166857 -0.149258,-1.098947 0.798275,-6.497165 1.534986,-8.745029 1.720466,-10.355036 1.725208,-14.975106 0.008,-7.831109 -0.564605,-9.782844 -4.122929,-14.052234 -1.941878,-2.329925 -5.352381,-5.558957 -6.668422,-6.313593 -0.631591,-0.362164 -1.447494,-0.659371 -1.813115,-0.660464 -0.824809,-0.0025 -2.921769,0.636029 -5.636932,1.716353 -5.128276,2.040467 -6.54039,3.179629 -5.106298,4.11928 0.44307,0.290311 1.452365,0.380587 5.830246,0.521487 3.694906,0.118916 5.390325,0.249993 5.61188,0.433867 0.412556,0.342392 1.301665,2.126973 2.263338,4.54288 0.680678,1.709992 0.767762,2.142078 0.767762,3.809362 0,2.453412 -0.416129,3.908489 -2.470624,8.639035 l -1.651582,3.802821 0.05694,5.625541 c 0.0625,6.174603 0.03678,6.308889 -1.151127,6.010744 -2.154356,-0.540709 -3.439203,-3.522023 -3.447141,-7.998631 -0.0048,-2.69952 0.428327,-4.709397 1.703744,-7.906295 0.572398,-1.434743 1.040723,-2.749758 1.040723,-2.922255 0,-0.235012 -0.26235,-0.313632 -1.046571,-0.313632 -1.899746,0 -3.052156,0.385234 -4.801539,1.605081 -2.479181,1.728739 -4.225083,2.13755 -5.893067,1.379891 -1.061909,-0.48236 -1.454091,-0.947845 -3.974227,-4.717055 -2.306846,-3.450206 -2.811422,-4.121998 -2.973926,-3.959495 -0.06351,0.06351 0.230754,1.108493 0.653918,2.322189 l 0.769389,2.206716 0.161358,6.870343 c 0.227048,9.667242 0.357152,11.386149 1.164039,15.378997 l 0.138838,0.687035 -2.087527,-0.0029 C 51.20766,95.010516 51.572721,95.85968 51.517966,88.08268 51.47081,81.384834 51.215403,76.136238 50.801045,73.349949 50.680011,72.536077 50.207869,70.405935 49.75184,68.6163 c -0.668731,-2.624364 -0.828539,-3.626368 -0.826019,-5.179182 0.0056,-3.455372 0.667034,-5.289172 3.172462,-8.795641 1.601055,-2.240755 1.889406,-2.813995 2.52515,-5.019984 0.274205,-0.951473 0.685694,-1.81009 1.085952,-2.265957 0.844542,-0.96188 3.118555,-2.083591 5.132218,-2.531588 1.029648,-0.229077 1.680737,-0.488691 1.804215,-0.719412 0.329966,-0.616544 0.61866,-2.684327 1.170386,-8.382926 0.977618,-10.097498 1.249647,-11.920759 1.9956,-13.375377 0.764839,-1.491446 2.154687,-2.373562 3.739745,-2.373562 0.896475,0 5.991265,0.999814 9.336946,1.832304 1.587424,0.394992 3.005648,1.410788 3.720866,2.665054 0.625785,1.09743 0.620903,1.076417 1.525829,6.568308 1.453815,8.823049 3.317486,18.575943 5.398992,28.253834 0.812715,3.778688 1.569717,7.821621 1.682228,8.984294 0.112509,1.162673 0.301758,3.112794 0.420552,4.333601 0.309379,3.179406 0.153405,5.836601 -0.514961,8.772899 -0.843928,3.707579 -2.034224,10.576501 -2.034224,11.739027 0,1.157929 0.389707,1.470589 1.18416,0.950043 0.436389,-0.285933 0.750524,-1.041129 0.969492,-2.330707 0.03948,-0.232535 0.213177,-0.422791 0.385986,-0.422791 0.254792,0 0.32554,0.429648 0.374197,2.272498 l 0.06,2.272498 -3.54802,-0.0032 c -1.951412,-0.0017 -3.686603,-0.0909 -3.855981,-0.198041 z M 53.176613,76.416665 c -0.05813,-0.849299 -0.125582,-1.049812 -0.249386,-0.741369 -0.217814,0.542655 -0.246307,2.491184 -0.0438,2.995091 0.223223,0.555447 0.395054,-0.765435 0.293184,-2.253722 z m 9.714565,-4.471429 c 0.305589,-0.570999 0.103336,-2.514826 -0.419824,-4.034863 -1.012884,-2.942925 -3.297069,-6.616132 -5.544482,-8.916107 -1.37511,-1.40727 -1.444992,-1.448989 -1.914702,-1.143054 -0.268126,0.174638 -0.854218,1.030867 -1.302426,1.902728 -0.875008,1.70208 -1.207302,3.345565 -0.780429,3.859915 0.140858,0.169725 1.025701,0.557722 1.966317,0.862218 2.008033,0.650038 3.11001,1.359361 4.494844,2.893251 0.900011,0.996885 2.21532,3.295648 2.215763,3.872484 2.33e-4,0.310529 0.622297,1.156863 0.850297,1.156863 0.105584,0 0.301173,-0.204045 0.434642,-0.453435 z m 7.559012,-3.933015 c 0.581483,-1.162363 0.705491,-2.093083 0.381996,-2.866981 -0.403021,-0.964146 -0.873804,-1.27284 -1.941183,-1.27284 -1.521575,0 -2.121303,0.858296 -1.585128,2.268545 0.24063,0.632904 2.14805,2.664008 2.501784,2.664008 0.135278,0 0.424418,-0.356729 0.642531,-0.792732 z m 4.998934,-1.902556 c -0.73259,-1.152956 -1.581799,-1.882696 -1.581799,-1.359271 0,0.273164 1.488155,1.940607 1.731946,1.940607 0.12058,0 0.05301,-0.261601 -0.150147,-0.581336 z m 8.353774,-13.024439 c 0,-0.965368 -3.457782,-19.843038 -4.352519,-23.762469 -0.544966,-2.387243 -1.199153,-3.642417 -1.898402,-3.642417 -0.538969,0 -0.619745,1.113475 -0.575075,7.927319 0.06504,9.920772 0.436541,12.894677 1.884484,15.085334 0.794617,1.20221 4.35788,4.891508 4.724403,4.891508 0.119411,0 0.217109,-0.224673 0.217109,-0.499275 z M 61.092399,52.843489 c 0.573372,-0.175022 1.502746,-0.657677 2.065276,-1.072566 0.989725,-0.729966 1.010776,-0.767612 0.651347,-1.164777 -0.204289,-0.225736 -1.036728,-0.743261 -1.849864,-1.150057 -1.285453,-0.643085 -1.532755,-0.703559 -1.894622,-0.463287 -0.683882,0.454081 -1.633056,1.915798 -1.762665,2.714487 -0.224267,1.381994 0.722477,1.767473 2.790528,1.1362 z m 10.928013,-3.394723 c 0.670072,-0.07787 1.266517,-0.219574 1.325429,-0.314896 0.143747,-0.232587 -0.252095,-8.026467 -0.654353,-12.883772 -0.73208,-8.839977 -1.688683,-12.867189 -2.881318,-12.130101 -0.723592,0.447205 -1.295045,3.971084 -1.658558,10.227545 -0.311501,5.361272 -0.200322,13.633626 0.193618,14.406176 0.360441,0.706861 1.009339,1.035773 1.82268,0.923877 0.348802,-0.04798 1.182428,-0.150959 1.852502,-0.228829 z"
       id="path16371"
       inkscape:connector-curvature="0"
       transform="matrix(0.26458333,0,0,0.26458333,0,87)" />
    <path
       style="opacity:1;fill:#ffffff;fill-opacity:1;fill-rule:nonzero;stroke:none;stroke-width:2.51338577;stroke-linecap:butt;stroke-linejoin:miter;stroke-miterlimit:4;stroke-dasharray:none;stroke-dashoffset:0;stroke-opacity:1;paint-order:stroke fill markers"
       d="M 84.655351,95.660858 C 84.3856,95.490254 84.408773,95.097689 84.832974,92.651716 86.443078,83.367731 86.765128,81.358312 86.991986,79.180593 87.309622,76.131463 87.125823,68.640618 86.684855,66.663294 86.040104,63.772192 84.283995,61.20488 80.113048,57.055758 76.822547,53.782475 75.572843,53.017 73.921434,53.26324 c -2.395756,0.357226 -9.697357,3.483712 -10.306297,4.41307 -0.373488,0.570017 -0.241482,1.105781 0.350516,1.422607 0.223822,0.119787 2.788974,0.302302 5.700339,0.405592 3.664049,0.129991 5.390903,0.268727 5.610191,0.450719 0.426534,0.353992 1.443707,2.399862 2.315519,4.657275 0.618071,1.600384 0.714922,2.103403 0.714922,3.71309 0,2.407565 -0.426613,3.921829 -2.427711,8.617188 l -1.588797,3.727937 v 5.667967 c 0,6.26798 -0.0096,6.313295 -1.281237,6.034002 -0.365403,-0.08026 -1.029663,-0.511215 -1.476134,-0.957686 -1.173624,-1.173623 -1.710314,-2.997158 -1.840271,-6.252756 -0.128738,-3.22507 0.224956,-5.090573 1.653856,-8.722995 0.576069,-1.464436 0.996151,-2.796164 0.933513,-2.959393 -0.09031,-0.235358 -0.441742,-0.269068 -1.698006,-0.162875 -1.673783,0.141486 -2.600395,0.511193 -4.29083,1.711986 -1.435949,1.020021 -2.163151,1.345635 -3.359743,1.504368 -1.256645,0.1667 -2.325692,-0.131731 -3.246037,-0.90615 -0.353137,-0.297145 -1.62597,-2.025053 -2.828519,-3.839794 -1.202548,-1.814743 -2.430666,-3.527729 -2.729151,-3.806635 l -0.542701,-0.507101 0.187828,0.612799 c 0.103306,0.33704 0.442107,1.326259 0.752892,2.198264 0.481032,1.349686 0.579189,2.025582 0.660044,4.544996 0.435804,13.579431 0.527398,15.323259 0.921589,17.545798 0.226833,1.278941 0.415415,2.396693 0.419069,2.483893 0.0075,0.179843 -3.890664,0.213313 -4.538352,0.03897 -0.409289,-0.110175 -0.424888,-0.321035 -0.488489,-6.603213 -0.111723,-11.035346 -0.447166,-14.687998 -1.845571,-20.096497 -0.583757,-2.257749 -0.731169,-3.232048 -0.731169,-4.832548 0,-3.417852 0.703908,-5.303875 3.363276,-9.011417 1.246842,-1.738274 1.601772,-2.431048 2.141371,-4.179654 0.420511,-1.362691 0.862409,-2.341576 1.26305,-2.797878 0.796626,-0.907308 2.751327,-1.942844 4.460113,-2.362819 1.882919,-0.462776 2.482791,-0.722026 2.600576,-1.12391 0.278638,-0.950714 0.591647,-3.470767 1.185297,-9.542895 1.123874,-11.495495 1.470444,-12.754955 3.844913,-13.972653 1.110126,-0.569306 2.26732,-0.507204 6.275686,0.336795 6.382047,1.3438 7.200759,1.681335 8.372332,3.451701 0.706386,1.06742 0.8627,1.647065 1.492232,5.533463 1.37209,8.470564 3.496164,19.605172 5.818838,30.502944 0.688734,3.231475 1.346456,6.751204 1.461608,7.82162 0.837693,7.78709 0.808229,9.380158 -0.266667,14.418529 -0.95221,4.463291 -1.847545,9.640319 -1.847545,10.682905 0,0.94505 0.420907,1.38994 1.014471,1.072274 0.424027,-0.226932 0.744406,-0.877941 1.05153,-2.1367 0.102087,-0.418408 0.312461,-0.739883 0.484179,-0.739883 0.24139,0 0.315958,0.465975 0.363655,2.272498 l 0.06,2.272498 -3.54802,-0.0032 c -1.951412,-0.0017 -3.68762,-0.09153 -3.858241,-0.199439 z M 53.135742,77.102213 c -0.01008,-1.11171 -0.07326,-1.502415 -0.196537,-1.215522 -0.31581,0.73493 -0.22054,2.853834 0.128314,2.853834 0.04569,0 0.0764,-0.73724 0.06822,-1.638312 z m 9.827909,-5.394251 c 0.519625,-1.470071 -1.074516,-5.916549 -3.344057,-9.327458 -1.4678,-2.205968 -3.682103,-4.568099 -4.282216,-4.568099 -0.553258,0 -1.595194,1.542658 -2.195467,3.25054 -0.775179,2.205524 -0.546354,2.697149 1.544452,3.318209 0.841207,0.249875 1.929655,0.688188 2.418773,0.974033 1.702753,0.995098 3.809501,3.65985 4.398664,5.563717 0.244512,0.790134 0.764685,1.505656 1.030463,1.417452 0.129149,-0.04286 0.322374,-0.32564 0.429388,-0.628394 z m 7.659795,-4.111741 c 0.47355,-1.13288 0.368939,-2.531007 -0.234533,-3.134477 -1.054481,-1.054483 -3.286233,-0.49832 -3.286233,0.818947 0,0.62826 1.111948,2.314223 1.968347,2.984456 0.76101,0.59558 1.081589,0.457446 1.552419,-0.668926 z m 4.364572,-2.124192 c -0.757835,-0.93633 -1.293347,-1.19923 -0.903996,-0.443799 0.387815,0.752449 1.35056,1.717394 1.441445,1.44474 0.04375,-0.131246 -0.198103,-0.581668 -0.537449,-1.000941 z m 8.728893,-12.997352 c -0.18677,-1.475775 -2.912685,-16.455012 -3.807804,-20.924347 -0.707874,-3.534422 -1.354168,-5.318178 -2.084141,-5.752168 -0.284445,-0.169111 -0.428331,-0.146334 -0.591111,0.09357 -0.141153,0.208029 -0.182278,3.261816 -0.119565,8.878597 0.126181,11.301357 0.365908,12.528799 3.013941,15.431847 1.575128,1.726817 3.300096,3.371006 3.543355,3.377422 0.10218,0.0027 0.122575,-0.494521 0.04532,-1.104924 z m -21.694277,-0.06522 c 0.526812,-0.27559 1.19566,-0.690717 1.486329,-0.922507 0.734829,-0.585979 0.4328,-0.985973 -1.480799,-1.961105 L 60.48502,48.739487 59.896092,49.15884 c -0.778584,0.554401 -1.761469,2.560676 -1.589725,3.244962 0.07117,0.283561 0.295809,0.562578 0.499197,0.620035 0.679241,0.191881 2.248836,-0.107871 3.21707,-0.614382 z m 9.625042,-2.947658 c 1.921603,-0.235036 1.811695,-0.07185 1.682232,-2.497681 -0.657919,-12.327872 -1.238116,-18.169881 -2.104847,-21.193719 -0.556275,-1.940735 -1.460072,-2.174426 -1.983428,-0.512847 -0.759026,2.409792 -1.386986,11.635734 -1.262124,18.543027 0.06886,3.809157 0.132376,4.50035 0.459442,4.999515 0.42325,0.64596 1.09085,0.980552 1.728959,0.866532 0.232535,-0.04155 0.89843,-0.133724 1.479766,-0.204827 z"
       id="path16373"
       inkscape:connector-curvature="0"
       transform="matrix(0.26458333,0,0,0.26458333,0,87)" />
    <path
       style="opacity:1;fill:#ffffff;fill-opacity:1;fill-rule:nonzero;stroke:none;stroke-width:2.51338577;stroke-linecap:butt;stroke-linejoin:miter;stroke-miterlimit:4;stroke-dasharray:none;stroke-dashoffset:0;stroke-opacity:1;paint-order:stroke fill markers"
       d="m 84.657163,95.661979 c -0.343334,-0.217171 -0.367371,-0.03619 1.250751,-9.416925 1.146149,-6.644569 1.360844,-9.133128 1.203688,-13.952081 -0.193845,-5.944068 -0.717961,-7.775609 -3.143604,-10.985452 -1.5452,-2.044758 -5.726543,-6.219374 -7.217137,-7.205529 -1.045419,-0.691632 -1.408209,-0.817932 -2.325347,-0.809539 -2.291828,0.02097 -10.568579,3.519632 -11.002704,4.650945 -0.1909,0.497478 0.231563,1.089496 0.877126,1.229163 0.320702,0.06938 2.850108,0.214575 5.620902,0.322644 3.580465,0.13965 5.135346,0.276296 5.374986,0.472367 0.401281,0.328324 2.182357,4.03695 2.699624,5.621266 0.287992,0.882071 0.34275,1.594602 0.259931,3.382322 -0.117649,2.539547 -0.315953,3.18871 -2.610935,8.547083 l -1.354328,3.162116 v 5.663148 c 0,6.262704 -0.0097,6.308452 -1.281237,6.02918 -1.027118,-0.225593 -2.183272,-1.533909 -2.727042,-3.085949 -0.354287,-1.011223 -0.501135,-2.018297 -0.584499,-4.008481 -0.139119,-3.321232 0.202271,-5.160532 1.655981,-8.921903 0.575849,-1.489973 0.990951,-2.799728 0.922446,-2.910571 -0.348768,-0.564322 -3.448896,0.0067 -4.855992,0.894368 -2.901811,1.830706 -3.35554,2.054465 -4.440914,2.190073 -1.318019,0.164677 -2.365675,-0.122214 -3.291674,-0.901391 -0.352061,-0.296239 -1.678012,-2.081006 -2.946559,-3.966147 -2.173245,-3.229579 -2.955841,-4.227432 -2.955841,-3.768853 0,0.108693 0.293997,1.047838 0.653326,2.086986 l 0.653326,1.889364 0.290384,8.667201 c 0.276195,8.243676 0.428949,10.371818 0.931451,12.976807 0.120807,0.626273 0.21965,1.220822 0.21965,1.32122 0,0.221153 -4.450568,0.240513 -4.772565,0.02076 -0.151726,-0.103548 -0.242472,-2.163232 -0.272283,-6.180072 -0.0801,-10.793256 -0.422306,-14.60911 -1.820972,-20.305306 -0.589176,-2.399473 -0.744405,-3.454508 -0.744405,-5.059448 0,-3.299906 0.6243,-5.04634 3.061442,-8.564169 1.635811,-2.361166 1.879422,-2.834985 2.551602,-4.962812 0.32572,-1.031087 0.791896,-1.99404 1.178493,-2.434351 0.807393,-0.919569 3.04632,-2.048218 5.025012,-2.533121 1.048488,-0.256946 1.617042,-0.514438 1.81882,-0.823724 0.403262,-0.618124 0.620353,-2.161991 1.371179,-9.751323 1.042389,-10.536436 1.408299,-12.06502 3.234146,-13.510589 1.27405,-1.008698 2.536034,-0.979923 7.852449,0.179044 4.859594,1.059381 5.868319,1.442139 6.946876,2.635972 1.033352,1.143797 1.319869,2.09847 2.163137,7.207553 1.426684,8.643821 3.029358,17.073229 5.301647,27.884495 0.865231,4.116673 1.672994,8.349862 1.795024,9.407085 0.8435,7.307789 0.827554,9.127132 -0.118557,13.527214 -1.014621,4.718697 -2.046183,10.866768 -1.972186,11.754173 0.05225,0.626639 0.148495,0.749912 0.628812,0.805401 0.649518,0.07504 0.941757,-0.333461 1.331481,-1.861174 0.146308,-0.573527 0.363642,-0.952481 0.54626,-0.952481 0.240912,0 0.315617,0.467315 0.363278,2.272498 l 0.06,2.272498 -3.54802,-0.0032 c -1.951412,-0.0017 -3.686804,-0.09103 -3.856429,-0.198318 z M 53.1506,77.225526 c 0,-1.615816 -0.121812,-1.811303 -0.32642,-0.523852 -0.116752,0.734634 0.03518,2.038851 0.237519,2.038851 0.0489,0 0.0889,-0.681749 0.0889,-1.514999 z m 9.798585,-6.589272 c -0.06101,-2.56536 -2.039407,-6.730545 -4.891469,-10.298142 -1.577247,-1.972951 -2.478607,-2.693179 -2.979542,-2.380786 -1.017041,0.634247 -2.547028,4.116213 -2.278608,5.185687 0.101819,0.405677 0.378512,0.641328 1.037669,0.883745 0.494356,0.181809 1.469595,0.537449 2.167199,0.79031 1.921419,0.69646 4.059695,2.912661 5.206101,5.395825 0.474494,1.027778 0.970919,1.936069 1.103166,2.018429 0.44707,0.27842 0.666913,-0.273387 0.635484,-1.595068 z m 7.588339,-2.888898 c 0.450754,-0.901554 0.476423,-2.14044 0.061,-2.943792 -0.363078,-0.702113 -0.698782,-0.8607 -1.821968,-0.8607 -0.872484,0 -1.673872,0.559895 -1.673872,1.169464 0,1.054162 1.984229,3.575594 2.707765,3.440857 0.196606,-0.03661 0.523791,-0.399234 0.727079,-0.805829 z m 5.017817,-1.426296 c -0.0056,-0.280397 -1.432648,-1.854215 -1.564098,-1.724917 -0.162941,0.160269 1.07875,1.883463 1.357174,1.883463 0.115538,0 0.208655,-0.07135 0.206924,-0.158546 z M 83.697858,52.452981 C 83.394195,50.479022 81.616755,40.591045 80.628419,35.37756 c -1.172801,-6.186545 -1.878182,-8.787352 -2.547567,-9.393137 -0.439814,-0.398027 -0.451128,-0.397975 -0.7446,0.0034 -0.239381,0.327374 -0.297851,1.553512 -0.297251,6.233351 0.0013,9.593485 0.387382,13.727298 1.482878,15.87465 0.523376,1.025901 4.823198,5.535308 5.109387,5.358432 0.111873,-0.06914 0.141485,-0.514401 0.06659,-1.001246 z m -21.774359,-0.04623 c 1.438607,-0.69761 2.09862,-1.241376 1.95645,-1.611867 -0.193506,-0.504266 -3.078101,-1.917204 -3.630856,-1.778472 -0.589817,0.148034 -1.541471,1.476515 -1.844891,2.575411 -0.202577,0.733674 -0.177695,0.849216 0.259041,1.202864 0.602744,0.488071 1.730478,0.353884 3.260256,-0.387936 z M 73.17704,49.003484 c 0.144822,-0.195871 0.218775,-0.689829 0.166144,-1.109759 -0.05217,-0.416227 -0.150545,-2.183693 -0.218619,-3.927703 -0.27579,-7.065721 -1.051684,-14.643447 -1.798247,-17.562478 -0.456054,-1.783153 -0.698554,-2.20297 -1.272506,-2.20297 -1.059628,0 -1.771643,5.154344 -2.029528,14.691964 -0.173969,6.434052 0.0055,9.396396 0.616422,10.173018 0.435161,0.553216 0.465118,0.558624 2.358051,0.425625 1.43366,-0.100732 1.983125,-0.223751 2.178283,-0.487697 z"
       id="path16375"
       inkscape:connector-curvature="0"
       transform="matrix(0.26458333,0,0,0.26458333,0,87)" />
    <path
       style="opacity:1;fill:#ffffff;fill-opacity:1;fill-rule:nonzero;stroke:none;stroke-width:2.51338577;stroke-linecap:butt;stroke-linejoin:miter;stroke-miterlimit:4;stroke-dasharray:none;stroke-dashoffset:0;stroke-opacity:1;paint-order:stroke fill markers"
       d="m 84.506457,95.528009 c -0.07081,-0.184537 0.41002,-3.537793 1.068522,-7.451679 1.491076,-8.862396 1.694584,-10.963063 1.524309,-15.734339 -0.206514,-5.78679 -0.713162,-7.69925 -2.78542,-10.514214 -2.046344,-2.779759 -6.590555,-7.249184 -8.219103,-8.083835 -1.201268,-0.615665 -2.380439,-0.526173 -4.975577,0.377611 -2.689618,0.93669 -6.469756,2.693134 -7.129073,3.31253 -0.718033,0.674558 -0.631724,1.354447 0.205882,1.621809 0.377869,0.120614 2.955905,0.314554 5.728967,0.430976 3.528906,0.148156 5.141596,0.293437 5.374039,0.484128 0.404917,0.332187 2.20637,4.07797 2.701779,5.617842 0.282812,0.879061 0.336194,1.600705 0.250194,3.382322 -0.124795,2.585365 -0.396712,3.484016 -2.508294,8.289599 l -1.346869,3.06523 -0.105697,5.896361 c -0.115204,6.426681 -0.127674,6.484878 -1.325057,6.184355 -1.3892,-0.348667 -2.648794,-2.24867 -3.094525,-4.667861 -0.340869,-1.850048 -0.28475,-5.401172 0.113147,-7.159728 0.189343,-0.836825 0.765187,-2.649101 1.279656,-4.027281 0.514468,-1.37818 0.903196,-2.662406 0.863841,-2.853835 -0.0578,-0.281162 -0.307382,-0.339841 -1.298633,-0.305335 -1.623962,0.05653 -2.497184,0.359235 -4.148655,1.438117 -2.352421,1.536805 -2.719592,1.678442 -4.366828,1.684515 -1.374208,0.0051 -1.587509,-0.05379 -2.325346,-0.64159 -0.446795,-0.355943 -1.550896,-1.735297 -2.453558,-3.06523 -2.505783,-3.691888 -3.554889,-5.114053 -3.680143,-4.988799 -0.06271,0.06271 0.19548,0.99973 0.573762,2.082264 l 0.687784,1.968241 0.271758,8.244411 c 0.292072,8.860662 0.390214,10.339472 0.848775,12.789407 0.163216,0.872005 0.296772,1.704374 0.296792,1.849708 2.7e-5,0.194488 -0.581346,0.264244 -2.202324,0.264244 -1.211297,0 -2.341965,-0.05357 -2.512594,-0.119047 -0.261162,-0.100219 -0.314916,-1.028125 -0.33983,-5.866216 -0.05388,-10.463365 -0.449575,-14.962964 -1.815996,-20.650527 -0.573905,-2.38881 -0.736748,-3.510264 -0.737929,-5.081919 -0.0025,-3.348573 0.555255,-4.864093 3.274309,-8.896603 1.168889,-1.733527 1.719523,-2.803557 2.227786,-4.329183 0.399146,-1.198097 0.921468,-2.307074 1.277731,-2.712834 0.781192,-0.889728 2.661928,-1.883626 4.559286,-2.409412 1.821874,-0.504867 2.336126,-0.763718 2.483748,-1.25021 0.235208,-0.775134 0.551027,-3.304585 1.075586,-8.614577 1.032074,-10.447447 1.368139,-12.208475 2.605714,-13.654304 1.489758,-1.740446 2.536836,-1.818463 8.207042,-0.611494 5.042453,1.073345 5.749974,1.311736 6.901574,2.325415 1.234366,1.086533 1.706439,2.257701 2.256646,5.598528 1.534158,9.315311 3.17822,18.007944 5.717391,30.229508 1.705893,8.210829 2.085883,10.838181 2.247171,15.537544 l 0.119711,3.48802 -0.953989,4.650694 c -1.216114,5.92855 -1.915641,10.329924 -1.747959,10.998025 0.155116,0.618031 0.75217,0.692102 1.233834,0.15307 0.181814,-0.203468 0.468126,-0.845581 0.63625,-1.426918 0.178515,-0.617267 0.428378,-1.056976 0.600623,-1.056976 0.230317,0 0.308091,0.497946 0.354945,2.272498 l 0.06,2.272498 h -3.7132 c -3.196272,0 -3.731127,-0.04671 -3.841955,-0.335524 z M 53.13243,77.313608 c -0.01538,-1.207534 -0.04832,-1.329413 -0.214289,-0.792732 -0.176893,0.572016 -0.06901,2.219649 0.145342,2.219649 0.04791,0 0.07894,-0.642112 0.06895,-1.426917 z m 9.700462,-6.478139 c 0.08173,-1.553241 -0.332223,-2.952495 -1.655392,-5.595569 -1.558024,-3.112204 -4.945956,-7.427495 -5.831322,-7.427495 -0.625997,0 -2.223878,2.850044 -2.523268,4.5006 -0.19426,1.070966 0.207104,1.487857 1.990566,2.067576 0.771294,0.250713 1.792363,0.678505 2.269041,0.950648 1.408172,0.803953 3.237379,2.954966 4.127363,4.853475 0.437496,0.933263 0.866218,1.767612 0.952716,1.854111 0.367399,0.367398 0.610619,-0.06924 0.670296,-1.203346 z m 7.657804,-3.140341 c 0.918956,-2.024504 0.231393,-3.730224 -1.5098,-3.745541 -0.827105,-0.0073 -1.878216,0.654092 -1.878216,1.181791 0,0.849847 2.03482,3.46218 2.696789,3.46218 0.155879,0 0.46693,-0.404294 0.691227,-0.89843 z m 4.869847,-1.585463 c -0.434337,-0.755005 -1.045886,-1.416225 -1.183014,-1.279098 -0.165377,0.165377 0.916161,1.649039 1.20209,1.649039 0.110126,0 0.101895,-0.15966 -0.01907,-0.369941 z m 8.349016,-13.423593 c -1.085597,-6.629817 -3.581113,-20.099471 -4.24932,-22.935892 -0.714258,-3.031894 -1.615446,-4.622449 -2.150971,-3.796363 -0.266555,0.411177 -0.320721,10.278164 -0.07915,14.418487 0.385215,6.602323 0.671083,7.401646 3.844883,10.750788 2.271065,2.396532 2.824844,2.725068 2.634558,1.56298 z M 62.078942,52.322519 c 0.550564,-0.275562 1.216458,-0.730343 1.479767,-1.010626 0.476334,-0.507039 0.476615,-0.511227 0.05595,-0.832596 -0.547923,-0.418588 -2.886,-1.545107 -3.207303,-1.545322 -0.4012,-2.12e-4 -1.66624,1.615052 -1.924926,2.457929 -0.389614,1.269479 -0.0612,1.625743 1.400217,1.518965 0.676524,-0.04943 1.629714,-0.304772 2.196295,-0.58835 z M 72.895377,49.22978 c 0.382399,-0.14693 0.395358,-0.348946 0.264238,-4.1195 -0.241063,-6.932109 -1.028339,-15.258259 -1.733045,-18.328483 -0.817269,-3.560636 -1.889503,-3.443077 -2.509342,0.275121 -0.715942,4.29468 -1.195478,16.028351 -0.805817,19.717383 0.285487,2.70278 0.463235,2.882981 2.690685,2.727803 0.930138,-0.0648 1.872115,-0.187343 2.093281,-0.272324 z"
       id="path16377"
       inkscape:connector-curvature="0"
       transform="matrix(0.26458333,0,0,0.26458333,0,87)" />
  </g>
</svg>
